%TF.GenerationSoftware,KiCad,Pcbnew,10.0.5-unknown-202607221313~667fa36054~ubuntu25.10.1*%
%TF.CreationDate,2026-08-10T20:00:35+00:00*%
%TF.ProjectId,solar-glow-drh-v4_0-panel,736f6c61-722d-4676-9c6f-772d6472682d,v4.0*%
%TF.SameCoordinates,Original*%
%TF.FileFunction,Legend,Top*%
%TF.FilePolarity,Positive*%
%FSLAX46Y46*%
G04 Gerber Fmt 4.6, Leading zero omitted, Abs format (unit mm)*
G04 Created by KiCad (PCBNEW 10.0.5-unknown-202607221313~667fa36054~ubuntu25.10.1) date 2026-08-10 20:00:35*
%MOMM*%
%LPD*%
G01*
G04 APERTURE LIST*
%ADD10C,0.150000*%
%ADD11C,0.165000*%
G04 APERTURE END LIST*
D10*
X7685713Y2992800D02*
X7828570Y2945180D01*
X7828570Y2945180D02*
X8066665Y2945180D01*
X8066665Y2945180D02*
X8161903Y2992800D01*
X8161903Y2992800D02*
X8209522Y3040419D01*
X8209522Y3040419D02*
X8257141Y3135657D01*
X8257141Y3135657D02*
X8257141Y3230895D01*
X8257141Y3230895D02*
X8209522Y3326133D01*
X8209522Y3326133D02*
X8161903Y3373752D01*
X8161903Y3373752D02*
X8066665Y3421371D01*
X8066665Y3421371D02*
X7876189Y3468990D01*
X7876189Y3468990D02*
X7780951Y3516609D01*
X7780951Y3516609D02*
X7733332Y3564228D01*
X7733332Y3564228D02*
X7685713Y3659466D01*
X7685713Y3659466D02*
X7685713Y3754704D01*
X7685713Y3754704D02*
X7733332Y3849942D01*
X7733332Y3849942D02*
X7780951Y3897561D01*
X7780951Y3897561D02*
X7876189Y3945180D01*
X7876189Y3945180D02*
X8114284Y3945180D01*
X8114284Y3945180D02*
X8257141Y3897561D01*
X8876189Y3945180D02*
X9066665Y3945180D01*
X9066665Y3945180D02*
X9161903Y3897561D01*
X9161903Y3897561D02*
X9257141Y3802323D01*
X9257141Y3802323D02*
X9304760Y3611847D01*
X9304760Y3611847D02*
X9304760Y3278514D01*
X9304760Y3278514D02*
X9257141Y3088038D01*
X9257141Y3088038D02*
X9161903Y2992800D01*
X9161903Y2992800D02*
X9066665Y2945180D01*
X9066665Y2945180D02*
X8876189Y2945180D01*
X8876189Y2945180D02*
X8780951Y2992800D01*
X8780951Y2992800D02*
X8685713Y3088038D01*
X8685713Y3088038D02*
X8638094Y3278514D01*
X8638094Y3278514D02*
X8638094Y3611847D01*
X8638094Y3611847D02*
X8685713Y3802323D01*
X8685713Y3802323D02*
X8780951Y3897561D01*
X8780951Y3897561D02*
X8876189Y3945180D01*
X10209522Y2945180D02*
X9733332Y2945180D01*
X9733332Y2945180D02*
X9733332Y3945180D01*
X10495237Y3230895D02*
X10971427Y3230895D01*
X10399999Y2945180D02*
X10733332Y3945180D01*
X10733332Y3945180D02*
X11066665Y2945180D01*
X11971427Y2945180D02*
X11638094Y3421371D01*
X11399999Y2945180D02*
X11399999Y3945180D01*
X11399999Y3945180D02*
X11780951Y3945180D01*
X11780951Y3945180D02*
X11876189Y3897561D01*
X11876189Y3897561D02*
X11923808Y3849942D01*
X11923808Y3849942D02*
X11971427Y3754704D01*
X11971427Y3754704D02*
X11971427Y3611847D01*
X11971427Y3611847D02*
X11923808Y3516609D01*
X11923808Y3516609D02*
X11876189Y3468990D01*
X11876189Y3468990D02*
X11780951Y3421371D01*
X11780951Y3421371D02*
X11399999Y3421371D01*
X12399999Y3326133D02*
X13161904Y3326133D01*
X14161903Y3897561D02*
X14066665Y3945180D01*
X14066665Y3945180D02*
X13923808Y3945180D01*
X13923808Y3945180D02*
X13780951Y3897561D01*
X13780951Y3897561D02*
X13685713Y3802323D01*
X13685713Y3802323D02*
X13638094Y3707085D01*
X13638094Y3707085D02*
X13590475Y3516609D01*
X13590475Y3516609D02*
X13590475Y3373752D01*
X13590475Y3373752D02*
X13638094Y3183276D01*
X13638094Y3183276D02*
X13685713Y3088038D01*
X13685713Y3088038D02*
X13780951Y2992800D01*
X13780951Y2992800D02*
X13923808Y2945180D01*
X13923808Y2945180D02*
X14019046Y2945180D01*
X14019046Y2945180D02*
X14161903Y2992800D01*
X14161903Y2992800D02*
X14209522Y3040419D01*
X14209522Y3040419D02*
X14209522Y3373752D01*
X14209522Y3373752D02*
X14019046Y3373752D01*
X15114284Y2945180D02*
X14638094Y2945180D01*
X14638094Y2945180D02*
X14638094Y3945180D01*
X15638094Y3945180D02*
X15828570Y3945180D01*
X15828570Y3945180D02*
X15923808Y3897561D01*
X15923808Y3897561D02*
X16019046Y3802323D01*
X16019046Y3802323D02*
X16066665Y3611847D01*
X16066665Y3611847D02*
X16066665Y3278514D01*
X16066665Y3278514D02*
X16019046Y3088038D01*
X16019046Y3088038D02*
X15923808Y2992800D01*
X15923808Y2992800D02*
X15828570Y2945180D01*
X15828570Y2945180D02*
X15638094Y2945180D01*
X15638094Y2945180D02*
X15542856Y2992800D01*
X15542856Y2992800D02*
X15447618Y3088038D01*
X15447618Y3088038D02*
X15399999Y3278514D01*
X15399999Y3278514D02*
X15399999Y3611847D01*
X15399999Y3611847D02*
X15447618Y3802323D01*
X15447618Y3802323D02*
X15542856Y3897561D01*
X15542856Y3897561D02*
X15638094Y3945180D01*
X16399999Y3945180D02*
X16638094Y2945180D01*
X16638094Y2945180D02*
X16828570Y3659466D01*
X16828570Y3659466D02*
X17019046Y2945180D01*
X17019046Y2945180D02*
X17257142Y3945180D01*
X18399999Y2945180D02*
X18399999Y3945180D01*
X18399999Y3945180D02*
X18638094Y3945180D01*
X18638094Y3945180D02*
X18780951Y3897561D01*
X18780951Y3897561D02*
X18876189Y3802323D01*
X18876189Y3802323D02*
X18923808Y3707085D01*
X18923808Y3707085D02*
X18971427Y3516609D01*
X18971427Y3516609D02*
X18971427Y3373752D01*
X18971427Y3373752D02*
X18923808Y3183276D01*
X18923808Y3183276D02*
X18876189Y3088038D01*
X18876189Y3088038D02*
X18780951Y2992800D01*
X18780951Y2992800D02*
X18638094Y2945180D01*
X18638094Y2945180D02*
X18399999Y2945180D01*
X19971427Y2945180D02*
X19638094Y3421371D01*
X19399999Y2945180D02*
X19399999Y3945180D01*
X19399999Y3945180D02*
X19780951Y3945180D01*
X19780951Y3945180D02*
X19876189Y3897561D01*
X19876189Y3897561D02*
X19923808Y3849942D01*
X19923808Y3849942D02*
X19971427Y3754704D01*
X19971427Y3754704D02*
X19971427Y3611847D01*
X19971427Y3611847D02*
X19923808Y3516609D01*
X19923808Y3516609D02*
X19876189Y3468990D01*
X19876189Y3468990D02*
X19780951Y3421371D01*
X19780951Y3421371D02*
X19399999Y3421371D01*
X20399999Y2945180D02*
X20399999Y3945180D01*
X20399999Y3468990D02*
X20971427Y3468990D01*
X20971427Y2945180D02*
X20971427Y3945180D01*
X22114285Y3611847D02*
X22352380Y2945180D01*
X22352380Y2945180D02*
X22590475Y3611847D01*
X23399999Y3611847D02*
X23399999Y2945180D01*
X23161904Y3992800D02*
X22923809Y3278514D01*
X22923809Y3278514D02*
X23542856Y3278514D01*
X23923809Y3040419D02*
X23971428Y2992800D01*
X23971428Y2992800D02*
X23923809Y2945180D01*
X23923809Y2945180D02*
X23876190Y2992800D01*
X23876190Y2992800D02*
X23923809Y3040419D01*
X23923809Y3040419D02*
X23923809Y2945180D01*
X24590475Y3945180D02*
X24685713Y3945180D01*
X24685713Y3945180D02*
X24780951Y3897561D01*
X24780951Y3897561D02*
X24828570Y3849942D01*
X24828570Y3849942D02*
X24876189Y3754704D01*
X24876189Y3754704D02*
X24923808Y3564228D01*
X24923808Y3564228D02*
X24923808Y3326133D01*
X24923808Y3326133D02*
X24876189Y3135657D01*
X24876189Y3135657D02*
X24828570Y3040419D01*
X24828570Y3040419D02*
X24780951Y2992800D01*
X24780951Y2992800D02*
X24685713Y2945180D01*
X24685713Y2945180D02*
X24590475Y2945180D01*
X24590475Y2945180D02*
X24495237Y2992800D01*
X24495237Y2992800D02*
X24447618Y3040419D01*
X24447618Y3040419D02*
X24399999Y3135657D01*
X24399999Y3135657D02*
X24352380Y3326133D01*
X24352380Y3326133D02*
X24352380Y3564228D01*
X24352380Y3564228D02*
X24399999Y3754704D01*
X24399999Y3754704D02*
X24447618Y3849942D01*
X24447618Y3849942D02*
X24495237Y3897561D01*
X24495237Y3897561D02*
X24590475Y3945180D01*
X26114285Y3326133D02*
X26876190Y3326133D01*
X28114285Y2945180D02*
X28114285Y3945180D01*
X28114285Y3945180D02*
X28495237Y3945180D01*
X28495237Y3945180D02*
X28590475Y3897561D01*
X28590475Y3897561D02*
X28638094Y3849942D01*
X28638094Y3849942D02*
X28685713Y3754704D01*
X28685713Y3754704D02*
X28685713Y3611847D01*
X28685713Y3611847D02*
X28638094Y3516609D01*
X28638094Y3516609D02*
X28590475Y3468990D01*
X28590475Y3468990D02*
X28495237Y3421371D01*
X28495237Y3421371D02*
X28114285Y3421371D01*
X29685713Y3040419D02*
X29638094Y2992800D01*
X29638094Y2992800D02*
X29495237Y2945180D01*
X29495237Y2945180D02*
X29399999Y2945180D01*
X29399999Y2945180D02*
X29257142Y2992800D01*
X29257142Y2992800D02*
X29161904Y3088038D01*
X29161904Y3088038D02*
X29114285Y3183276D01*
X29114285Y3183276D02*
X29066666Y3373752D01*
X29066666Y3373752D02*
X29066666Y3516609D01*
X29066666Y3516609D02*
X29114285Y3707085D01*
X29114285Y3707085D02*
X29161904Y3802323D01*
X29161904Y3802323D02*
X29257142Y3897561D01*
X29257142Y3897561D02*
X29399999Y3945180D01*
X29399999Y3945180D02*
X29495237Y3945180D01*
X29495237Y3945180D02*
X29638094Y3897561D01*
X29638094Y3897561D02*
X29685713Y3849942D01*
X30447618Y3468990D02*
X30590475Y3421371D01*
X30590475Y3421371D02*
X30638094Y3373752D01*
X30638094Y3373752D02*
X30685713Y3278514D01*
X30685713Y3278514D02*
X30685713Y3135657D01*
X30685713Y3135657D02*
X30638094Y3040419D01*
X30638094Y3040419D02*
X30590475Y2992800D01*
X30590475Y2992800D02*
X30495237Y2945180D01*
X30495237Y2945180D02*
X30114285Y2945180D01*
X30114285Y2945180D02*
X30114285Y3945180D01*
X30114285Y3945180D02*
X30447618Y3945180D01*
X30447618Y3945180D02*
X30542856Y3897561D01*
X30542856Y3897561D02*
X30590475Y3849942D01*
X30590475Y3849942D02*
X30638094Y3754704D01*
X30638094Y3754704D02*
X30638094Y3659466D01*
X30638094Y3659466D02*
X30590475Y3564228D01*
X30590475Y3564228D02*
X30542856Y3516609D01*
X30542856Y3516609D02*
X30447618Y3468990D01*
X30447618Y3468990D02*
X30114285Y3468990D01*
X31019047Y3945180D02*
X31257142Y2945180D01*
X31257142Y2945180D02*
X31447618Y3659466D01*
X31447618Y3659466D02*
X31638094Y2945180D01*
X31638094Y2945180D02*
X31876190Y3945180D01*
X32685713Y2945180D02*
X32685713Y3468990D01*
X32685713Y3468990D02*
X32638094Y3564228D01*
X32638094Y3564228D02*
X32542856Y3611847D01*
X32542856Y3611847D02*
X32352380Y3611847D01*
X32352380Y3611847D02*
X32257142Y3564228D01*
X32685713Y2992800D02*
X32590475Y2945180D01*
X32590475Y2945180D02*
X32352380Y2945180D01*
X32352380Y2945180D02*
X32257142Y2992800D01*
X32257142Y2992800D02*
X32209523Y3088038D01*
X32209523Y3088038D02*
X32209523Y3183276D01*
X32209523Y3183276D02*
X32257142Y3278514D01*
X32257142Y3278514D02*
X32352380Y3326133D01*
X32352380Y3326133D02*
X32590475Y3326133D01*
X32590475Y3326133D02*
X32685713Y3373752D01*
X33066666Y3611847D02*
X33304761Y2945180D01*
X33542856Y3611847D02*
X33304761Y2945180D01*
X33304761Y2945180D02*
X33209523Y2707085D01*
X33209523Y2707085D02*
X33161904Y2659466D01*
X33161904Y2659466D02*
X33066666Y2611847D01*
X35209523Y2945180D02*
X34638095Y2945180D01*
X34923809Y2945180D02*
X34923809Y3945180D01*
X34923809Y3945180D02*
X34828571Y3802323D01*
X34828571Y3802323D02*
X34733333Y3707085D01*
X34733333Y3707085D02*
X34638095Y3659466D01*
X35638095Y3326133D02*
X36400000Y3326133D01*
X37304761Y3611847D02*
X37304761Y2945180D01*
X36876190Y3611847D02*
X36876190Y3088038D01*
X36876190Y3088038D02*
X36923809Y2992800D01*
X36923809Y2992800D02*
X37019047Y2945180D01*
X37019047Y2945180D02*
X37161904Y2945180D01*
X37161904Y2945180D02*
X37257142Y2992800D01*
X37257142Y2992800D02*
X37304761Y3040419D01*
X37780952Y3611847D02*
X37780952Y2611847D01*
X37780952Y3564228D02*
X37876190Y3611847D01*
X37876190Y3611847D02*
X38066666Y3611847D01*
X38066666Y3611847D02*
X38161904Y3564228D01*
X38161904Y3564228D02*
X38209523Y3516609D01*
X38209523Y3516609D02*
X38257142Y3421371D01*
X38257142Y3421371D02*
X38257142Y3135657D01*
X38257142Y3135657D02*
X38209523Y3040419D01*
X38209523Y3040419D02*
X38161904Y2992800D01*
X38161904Y2992800D02*
X38066666Y2945180D01*
X38066666Y2945180D02*
X37876190Y2945180D01*
X37876190Y2945180D02*
X37780952Y2992800D01*
X39447619Y3611847D02*
X39447619Y2611847D01*
X39447619Y3564228D02*
X39542857Y3611847D01*
X39542857Y3611847D02*
X39733333Y3611847D01*
X39733333Y3611847D02*
X39828571Y3564228D01*
X39828571Y3564228D02*
X39876190Y3516609D01*
X39876190Y3516609D02*
X39923809Y3421371D01*
X39923809Y3421371D02*
X39923809Y3135657D01*
X39923809Y3135657D02*
X39876190Y3040419D01*
X39876190Y3040419D02*
X39828571Y2992800D01*
X39828571Y2992800D02*
X39733333Y2945180D01*
X39733333Y2945180D02*
X39542857Y2945180D01*
X39542857Y2945180D02*
X39447619Y2992800D01*
X40780952Y2945180D02*
X40780952Y3468990D01*
X40780952Y3468990D02*
X40733333Y3564228D01*
X40733333Y3564228D02*
X40638095Y3611847D01*
X40638095Y3611847D02*
X40447619Y3611847D01*
X40447619Y3611847D02*
X40352381Y3564228D01*
X40780952Y2992800D02*
X40685714Y2945180D01*
X40685714Y2945180D02*
X40447619Y2945180D01*
X40447619Y2945180D02*
X40352381Y2992800D01*
X40352381Y2992800D02*
X40304762Y3088038D01*
X40304762Y3088038D02*
X40304762Y3183276D01*
X40304762Y3183276D02*
X40352381Y3278514D01*
X40352381Y3278514D02*
X40447619Y3326133D01*
X40447619Y3326133D02*
X40685714Y3326133D01*
X40685714Y3326133D02*
X40780952Y3373752D01*
X41257143Y3611847D02*
X41257143Y2945180D01*
X41257143Y3516609D02*
X41304762Y3564228D01*
X41304762Y3564228D02*
X41400000Y3611847D01*
X41400000Y3611847D02*
X41542857Y3611847D01*
X41542857Y3611847D02*
X41638095Y3564228D01*
X41638095Y3564228D02*
X41685714Y3468990D01*
X41685714Y3468990D02*
X41685714Y2945180D01*
X42542857Y2992800D02*
X42447619Y2945180D01*
X42447619Y2945180D02*
X42257143Y2945180D01*
X42257143Y2945180D02*
X42161905Y2992800D01*
X42161905Y2992800D02*
X42114286Y3088038D01*
X42114286Y3088038D02*
X42114286Y3468990D01*
X42114286Y3468990D02*
X42161905Y3564228D01*
X42161905Y3564228D02*
X42257143Y3611847D01*
X42257143Y3611847D02*
X42447619Y3611847D01*
X42447619Y3611847D02*
X42542857Y3564228D01*
X42542857Y3564228D02*
X42590476Y3468990D01*
X42590476Y3468990D02*
X42590476Y3373752D01*
X42590476Y3373752D02*
X42114286Y3278514D01*
X43161905Y2945180D02*
X43066667Y2992800D01*
X43066667Y2992800D02*
X43019048Y3088038D01*
X43019048Y3088038D02*
X43019048Y3945180D01*
X4542853Y6897561D02*
X4447615Y6945180D01*
X4447615Y6945180D02*
X4304758Y6945180D01*
X4304758Y6945180D02*
X4161901Y6897561D01*
X4161901Y6897561D02*
X4066663Y6802323D01*
X4066663Y6802323D02*
X4019044Y6707085D01*
X4019044Y6707085D02*
X3971425Y6516609D01*
X3971425Y6516609D02*
X3971425Y6373752D01*
X3971425Y6373752D02*
X4019044Y6183276D01*
X4019044Y6183276D02*
X4066663Y6088038D01*
X4066663Y6088038D02*
X4161901Y5992800D01*
X4161901Y5992800D02*
X4304758Y5945180D01*
X4304758Y5945180D02*
X4399996Y5945180D01*
X4399996Y5945180D02*
X4542853Y5992800D01*
X4542853Y5992800D02*
X4590472Y6040419D01*
X4590472Y6040419D02*
X4590472Y6373752D01*
X4590472Y6373752D02*
X4399996Y6373752D01*
X5399996Y5992800D02*
X5304758Y5945180D01*
X5304758Y5945180D02*
X5114282Y5945180D01*
X5114282Y5945180D02*
X5019044Y5992800D01*
X5019044Y5992800D02*
X4971425Y6088038D01*
X4971425Y6088038D02*
X4971425Y6468990D01*
X4971425Y6468990D02*
X5019044Y6564228D01*
X5019044Y6564228D02*
X5114282Y6611847D01*
X5114282Y6611847D02*
X5304758Y6611847D01*
X5304758Y6611847D02*
X5399996Y6564228D01*
X5399996Y6564228D02*
X5447615Y6468990D01*
X5447615Y6468990D02*
X5447615Y6373752D01*
X5447615Y6373752D02*
X4971425Y6278514D01*
X5876187Y6611847D02*
X5876187Y5945180D01*
X5876187Y6516609D02*
X5923806Y6564228D01*
X5923806Y6564228D02*
X6019044Y6611847D01*
X6019044Y6611847D02*
X6161901Y6611847D01*
X6161901Y6611847D02*
X6257139Y6564228D01*
X6257139Y6564228D02*
X6304758Y6468990D01*
X6304758Y6468990D02*
X6304758Y5945180D01*
X7161901Y5992800D02*
X7066663Y5945180D01*
X7066663Y5945180D02*
X6876187Y5945180D01*
X6876187Y5945180D02*
X6780949Y5992800D01*
X6780949Y5992800D02*
X6733330Y6088038D01*
X6733330Y6088038D02*
X6733330Y6468990D01*
X6733330Y6468990D02*
X6780949Y6564228D01*
X6780949Y6564228D02*
X6876187Y6611847D01*
X6876187Y6611847D02*
X7066663Y6611847D01*
X7066663Y6611847D02*
X7161901Y6564228D01*
X7161901Y6564228D02*
X7209520Y6468990D01*
X7209520Y6468990D02*
X7209520Y6373752D01*
X7209520Y6373752D02*
X6733330Y6278514D01*
X7638092Y5945180D02*
X7638092Y6611847D01*
X7638092Y6421371D02*
X7685711Y6516609D01*
X7685711Y6516609D02*
X7733330Y6564228D01*
X7733330Y6564228D02*
X7828568Y6611847D01*
X7828568Y6611847D02*
X7923806Y6611847D01*
X8685711Y5945180D02*
X8685711Y6468990D01*
X8685711Y6468990D02*
X8638092Y6564228D01*
X8638092Y6564228D02*
X8542854Y6611847D01*
X8542854Y6611847D02*
X8352378Y6611847D01*
X8352378Y6611847D02*
X8257140Y6564228D01*
X8685711Y5992800D02*
X8590473Y5945180D01*
X8590473Y5945180D02*
X8352378Y5945180D01*
X8352378Y5945180D02*
X8257140Y5992800D01*
X8257140Y5992800D02*
X8209521Y6088038D01*
X8209521Y6088038D02*
X8209521Y6183276D01*
X8209521Y6183276D02*
X8257140Y6278514D01*
X8257140Y6278514D02*
X8352378Y6326133D01*
X8352378Y6326133D02*
X8590473Y6326133D01*
X8590473Y6326133D02*
X8685711Y6373752D01*
X9019045Y6611847D02*
X9399997Y6611847D01*
X9161902Y6945180D02*
X9161902Y6088038D01*
X9161902Y6088038D02*
X9209521Y5992800D01*
X9209521Y5992800D02*
X9304759Y5945180D01*
X9304759Y5945180D02*
X9399997Y5945180D01*
X10114283Y5992800D02*
X10019045Y5945180D01*
X10019045Y5945180D02*
X9828569Y5945180D01*
X9828569Y5945180D02*
X9733331Y5992800D01*
X9733331Y5992800D02*
X9685712Y6088038D01*
X9685712Y6088038D02*
X9685712Y6468990D01*
X9685712Y6468990D02*
X9733331Y6564228D01*
X9733331Y6564228D02*
X9828569Y6611847D01*
X9828569Y6611847D02*
X10019045Y6611847D01*
X10019045Y6611847D02*
X10114283Y6564228D01*
X10114283Y6564228D02*
X10161902Y6468990D01*
X10161902Y6468990D02*
X10161902Y6373752D01*
X10161902Y6373752D02*
X9685712Y6278514D01*
X11019045Y5945180D02*
X11019045Y6945180D01*
X11019045Y5992800D02*
X10923807Y5945180D01*
X10923807Y5945180D02*
X10733331Y5945180D01*
X10733331Y5945180D02*
X10638093Y5992800D01*
X10638093Y5992800D02*
X10590474Y6040419D01*
X10590474Y6040419D02*
X10542855Y6135657D01*
X10542855Y6135657D02*
X10542855Y6421371D01*
X10542855Y6421371D02*
X10590474Y6516609D01*
X10590474Y6516609D02*
X10638093Y6564228D01*
X10638093Y6564228D02*
X10733331Y6611847D01*
X10733331Y6611847D02*
X10923807Y6611847D01*
X10923807Y6611847D02*
X11019045Y6564228D01*
X12257141Y5945180D02*
X12257141Y6945180D01*
X12257141Y6564228D02*
X12352379Y6611847D01*
X12352379Y6611847D02*
X12542855Y6611847D01*
X12542855Y6611847D02*
X12638093Y6564228D01*
X12638093Y6564228D02*
X12685712Y6516609D01*
X12685712Y6516609D02*
X12733331Y6421371D01*
X12733331Y6421371D02*
X12733331Y6135657D01*
X12733331Y6135657D02*
X12685712Y6040419D01*
X12685712Y6040419D02*
X12638093Y5992800D01*
X12638093Y5992800D02*
X12542855Y5945180D01*
X12542855Y5945180D02*
X12352379Y5945180D01*
X12352379Y5945180D02*
X12257141Y5992800D01*
X13066665Y6611847D02*
X13304760Y5945180D01*
X13542855Y6611847D02*
X13304760Y5945180D01*
X13304760Y5945180D02*
X13209522Y5707085D01*
X13209522Y5707085D02*
X13161903Y5659466D01*
X13161903Y5659466D02*
X13066665Y5611847D01*
X14638094Y5992800D02*
X14733332Y5945180D01*
X14733332Y5945180D02*
X14923808Y5945180D01*
X14923808Y5945180D02*
X15019046Y5992800D01*
X15019046Y5992800D02*
X15066665Y6088038D01*
X15066665Y6088038D02*
X15066665Y6135657D01*
X15066665Y6135657D02*
X15019046Y6230895D01*
X15019046Y6230895D02*
X14923808Y6278514D01*
X14923808Y6278514D02*
X14780951Y6278514D01*
X14780951Y6278514D02*
X14685713Y6326133D01*
X14685713Y6326133D02*
X14638094Y6421371D01*
X14638094Y6421371D02*
X14638094Y6468990D01*
X14638094Y6468990D02*
X14685713Y6564228D01*
X14685713Y6564228D02*
X14780951Y6611847D01*
X14780951Y6611847D02*
X14923808Y6611847D01*
X14923808Y6611847D02*
X15019046Y6564228D01*
X15923808Y5992800D02*
X15828570Y5945180D01*
X15828570Y5945180D02*
X15638094Y5945180D01*
X15638094Y5945180D02*
X15542856Y5992800D01*
X15542856Y5992800D02*
X15495237Y6040419D01*
X15495237Y6040419D02*
X15447618Y6135657D01*
X15447618Y6135657D02*
X15447618Y6421371D01*
X15447618Y6421371D02*
X15495237Y6516609D01*
X15495237Y6516609D02*
X15542856Y6564228D01*
X15542856Y6564228D02*
X15638094Y6611847D01*
X15638094Y6611847D02*
X15828570Y6611847D01*
X15828570Y6611847D02*
X15923808Y6564228D01*
X16352380Y5945180D02*
X16352380Y6611847D01*
X16352380Y6421371D02*
X16399999Y6516609D01*
X16399999Y6516609D02*
X16447618Y6564228D01*
X16447618Y6564228D02*
X16542856Y6611847D01*
X16542856Y6611847D02*
X16638094Y6611847D01*
X16971428Y5945180D02*
X16971428Y6611847D01*
X16971428Y6945180D02*
X16923809Y6897561D01*
X16923809Y6897561D02*
X16971428Y6849942D01*
X16971428Y6849942D02*
X17019047Y6897561D01*
X17019047Y6897561D02*
X16971428Y6945180D01*
X16971428Y6945180D02*
X16971428Y6849942D01*
X17447618Y6611847D02*
X17447618Y5611847D01*
X17447618Y6564228D02*
X17542856Y6611847D01*
X17542856Y6611847D02*
X17733332Y6611847D01*
X17733332Y6611847D02*
X17828570Y6564228D01*
X17828570Y6564228D02*
X17876189Y6516609D01*
X17876189Y6516609D02*
X17923808Y6421371D01*
X17923808Y6421371D02*
X17923808Y6135657D01*
X17923808Y6135657D02*
X17876189Y6040419D01*
X17876189Y6040419D02*
X17828570Y5992800D01*
X17828570Y5992800D02*
X17733332Y5945180D01*
X17733332Y5945180D02*
X17542856Y5945180D01*
X17542856Y5945180D02*
X17447618Y5992800D01*
X18209523Y6611847D02*
X18590475Y6611847D01*
X18352380Y6945180D02*
X18352380Y6088038D01*
X18352380Y6088038D02*
X18399999Y5992800D01*
X18399999Y5992800D02*
X18495237Y5945180D01*
X18495237Y5945180D02*
X18590475Y5945180D01*
X18876190Y5992800D02*
X18971428Y5945180D01*
X18971428Y5945180D02*
X19161904Y5945180D01*
X19161904Y5945180D02*
X19257142Y5992800D01*
X19257142Y5992800D02*
X19304761Y6088038D01*
X19304761Y6088038D02*
X19304761Y6135657D01*
X19304761Y6135657D02*
X19257142Y6230895D01*
X19257142Y6230895D02*
X19161904Y6278514D01*
X19161904Y6278514D02*
X19019047Y6278514D01*
X19019047Y6278514D02*
X18923809Y6326133D01*
X18923809Y6326133D02*
X18876190Y6421371D01*
X18876190Y6421371D02*
X18876190Y6468990D01*
X18876190Y6468990D02*
X18923809Y6564228D01*
X18923809Y6564228D02*
X19019047Y6611847D01*
X19019047Y6611847D02*
X19161904Y6611847D01*
X19161904Y6611847D02*
X19257142Y6564228D01*
X20447618Y6992800D02*
X19590476Y5707085D01*
X20780952Y6611847D02*
X20780952Y5611847D01*
X20780952Y6564228D02*
X20876190Y6611847D01*
X20876190Y6611847D02*
X21066666Y6611847D01*
X21066666Y6611847D02*
X21161904Y6564228D01*
X21161904Y6564228D02*
X21209523Y6516609D01*
X21209523Y6516609D02*
X21257142Y6421371D01*
X21257142Y6421371D02*
X21257142Y6135657D01*
X21257142Y6135657D02*
X21209523Y6040419D01*
X21209523Y6040419D02*
X21161904Y5992800D01*
X21161904Y5992800D02*
X21066666Y5945180D01*
X21066666Y5945180D02*
X20876190Y5945180D01*
X20876190Y5945180D02*
X20780952Y5992800D01*
X22114285Y5945180D02*
X22114285Y6468990D01*
X22114285Y6468990D02*
X22066666Y6564228D01*
X22066666Y6564228D02*
X21971428Y6611847D01*
X21971428Y6611847D02*
X21780952Y6611847D01*
X21780952Y6611847D02*
X21685714Y6564228D01*
X22114285Y5992800D02*
X22019047Y5945180D01*
X22019047Y5945180D02*
X21780952Y5945180D01*
X21780952Y5945180D02*
X21685714Y5992800D01*
X21685714Y5992800D02*
X21638095Y6088038D01*
X21638095Y6088038D02*
X21638095Y6183276D01*
X21638095Y6183276D02*
X21685714Y6278514D01*
X21685714Y6278514D02*
X21780952Y6326133D01*
X21780952Y6326133D02*
X22019047Y6326133D01*
X22019047Y6326133D02*
X22114285Y6373752D01*
X22590476Y6611847D02*
X22590476Y5945180D01*
X22590476Y6516609D02*
X22638095Y6564228D01*
X22638095Y6564228D02*
X22733333Y6611847D01*
X22733333Y6611847D02*
X22876190Y6611847D01*
X22876190Y6611847D02*
X22971428Y6564228D01*
X22971428Y6564228D02*
X23019047Y6468990D01*
X23019047Y6468990D02*
X23019047Y5945180D01*
X23876190Y5992800D02*
X23780952Y5945180D01*
X23780952Y5945180D02*
X23590476Y5945180D01*
X23590476Y5945180D02*
X23495238Y5992800D01*
X23495238Y5992800D02*
X23447619Y6088038D01*
X23447619Y6088038D02*
X23447619Y6468990D01*
X23447619Y6468990D02*
X23495238Y6564228D01*
X23495238Y6564228D02*
X23590476Y6611847D01*
X23590476Y6611847D02*
X23780952Y6611847D01*
X23780952Y6611847D02*
X23876190Y6564228D01*
X23876190Y6564228D02*
X23923809Y6468990D01*
X23923809Y6468990D02*
X23923809Y6373752D01*
X23923809Y6373752D02*
X23447619Y6278514D01*
X24495238Y5945180D02*
X24400000Y5992800D01*
X24400000Y5992800D02*
X24352381Y6088038D01*
X24352381Y6088038D02*
X24352381Y6945180D01*
X24876191Y5945180D02*
X24876191Y6611847D01*
X24876191Y6945180D02*
X24828572Y6897561D01*
X24828572Y6897561D02*
X24876191Y6849942D01*
X24876191Y6849942D02*
X24923810Y6897561D01*
X24923810Y6897561D02*
X24876191Y6945180D01*
X24876191Y6945180D02*
X24876191Y6849942D01*
X25257143Y6611847D02*
X25780952Y6611847D01*
X25780952Y6611847D02*
X25257143Y5945180D01*
X25257143Y5945180D02*
X25780952Y5945180D01*
X26542857Y5992800D02*
X26447619Y5945180D01*
X26447619Y5945180D02*
X26257143Y5945180D01*
X26257143Y5945180D02*
X26161905Y5992800D01*
X26161905Y5992800D02*
X26114286Y6088038D01*
X26114286Y6088038D02*
X26114286Y6468990D01*
X26114286Y6468990D02*
X26161905Y6564228D01*
X26161905Y6564228D02*
X26257143Y6611847D01*
X26257143Y6611847D02*
X26447619Y6611847D01*
X26447619Y6611847D02*
X26542857Y6564228D01*
X26542857Y6564228D02*
X26590476Y6468990D01*
X26590476Y6468990D02*
X26590476Y6373752D01*
X26590476Y6373752D02*
X26114286Y6278514D01*
X27019048Y6040419D02*
X27066667Y5992800D01*
X27066667Y5992800D02*
X27019048Y5945180D01*
X27019048Y5945180D02*
X26971429Y5992800D01*
X26971429Y5992800D02*
X27019048Y6040419D01*
X27019048Y6040419D02*
X27019048Y5945180D01*
X27495238Y6611847D02*
X27495238Y5611847D01*
X27495238Y6564228D02*
X27590476Y6611847D01*
X27590476Y6611847D02*
X27780952Y6611847D01*
X27780952Y6611847D02*
X27876190Y6564228D01*
X27876190Y6564228D02*
X27923809Y6516609D01*
X27923809Y6516609D02*
X27971428Y6421371D01*
X27971428Y6421371D02*
X27971428Y6135657D01*
X27971428Y6135657D02*
X27923809Y6040419D01*
X27923809Y6040419D02*
X27876190Y5992800D01*
X27876190Y5992800D02*
X27780952Y5945180D01*
X27780952Y5945180D02*
X27590476Y5945180D01*
X27590476Y5945180D02*
X27495238Y5992800D01*
X28304762Y6611847D02*
X28542857Y5945180D01*
X28780952Y6611847D02*
X28542857Y5945180D01*
X28542857Y5945180D02*
X28447619Y5707085D01*
X28447619Y5707085D02*
X28400000Y5659466D01*
X28400000Y5659466D02*
X28304762Y5611847D01*
X29923810Y6326133D02*
X30685715Y6326133D01*
X32352381Y5945180D02*
X32352381Y6945180D01*
X32352381Y5992800D02*
X32257143Y5945180D01*
X32257143Y5945180D02*
X32066667Y5945180D01*
X32066667Y5945180D02*
X31971429Y5992800D01*
X31971429Y5992800D02*
X31923810Y6040419D01*
X31923810Y6040419D02*
X31876191Y6135657D01*
X31876191Y6135657D02*
X31876191Y6421371D01*
X31876191Y6421371D02*
X31923810Y6516609D01*
X31923810Y6516609D02*
X31971429Y6564228D01*
X31971429Y6564228D02*
X32066667Y6611847D01*
X32066667Y6611847D02*
X32257143Y6611847D01*
X32257143Y6611847D02*
X32352381Y6564228D01*
X32971429Y5945180D02*
X32876191Y5992800D01*
X32876191Y5992800D02*
X32828572Y6040419D01*
X32828572Y6040419D02*
X32780953Y6135657D01*
X32780953Y6135657D02*
X32780953Y6421371D01*
X32780953Y6421371D02*
X32828572Y6516609D01*
X32828572Y6516609D02*
X32876191Y6564228D01*
X32876191Y6564228D02*
X32971429Y6611847D01*
X32971429Y6611847D02*
X33114286Y6611847D01*
X33114286Y6611847D02*
X33209524Y6564228D01*
X33209524Y6564228D02*
X33257143Y6516609D01*
X33257143Y6516609D02*
X33304762Y6421371D01*
X33304762Y6421371D02*
X33304762Y6135657D01*
X33304762Y6135657D02*
X33257143Y6040419D01*
X33257143Y6040419D02*
X33209524Y5992800D01*
X33209524Y5992800D02*
X33114286Y5945180D01*
X33114286Y5945180D02*
X32971429Y5945180D01*
X34495239Y6611847D02*
X34495239Y5945180D01*
X34495239Y6516609D02*
X34542858Y6564228D01*
X34542858Y6564228D02*
X34638096Y6611847D01*
X34638096Y6611847D02*
X34780953Y6611847D01*
X34780953Y6611847D02*
X34876191Y6564228D01*
X34876191Y6564228D02*
X34923810Y6468990D01*
X34923810Y6468990D02*
X34923810Y5945180D01*
X35542858Y5945180D02*
X35447620Y5992800D01*
X35447620Y5992800D02*
X35400001Y6040419D01*
X35400001Y6040419D02*
X35352382Y6135657D01*
X35352382Y6135657D02*
X35352382Y6421371D01*
X35352382Y6421371D02*
X35400001Y6516609D01*
X35400001Y6516609D02*
X35447620Y6564228D01*
X35447620Y6564228D02*
X35542858Y6611847D01*
X35542858Y6611847D02*
X35685715Y6611847D01*
X35685715Y6611847D02*
X35780953Y6564228D01*
X35780953Y6564228D02*
X35828572Y6516609D01*
X35828572Y6516609D02*
X35876191Y6421371D01*
X35876191Y6421371D02*
X35876191Y6135657D01*
X35876191Y6135657D02*
X35828572Y6040419D01*
X35828572Y6040419D02*
X35780953Y5992800D01*
X35780953Y5992800D02*
X35685715Y5945180D01*
X35685715Y5945180D02*
X35542858Y5945180D01*
X36161906Y6611847D02*
X36542858Y6611847D01*
X36304763Y6945180D02*
X36304763Y6088038D01*
X36304763Y6088038D02*
X36352382Y5992800D01*
X36352382Y5992800D02*
X36447620Y5945180D01*
X36447620Y5945180D02*
X36542858Y5945180D01*
X38019049Y5992800D02*
X37923811Y5945180D01*
X37923811Y5945180D02*
X37733335Y5945180D01*
X37733335Y5945180D02*
X37638097Y5992800D01*
X37638097Y5992800D02*
X37590478Y6088038D01*
X37590478Y6088038D02*
X37590478Y6468990D01*
X37590478Y6468990D02*
X37638097Y6564228D01*
X37638097Y6564228D02*
X37733335Y6611847D01*
X37733335Y6611847D02*
X37923811Y6611847D01*
X37923811Y6611847D02*
X38019049Y6564228D01*
X38019049Y6564228D02*
X38066668Y6468990D01*
X38066668Y6468990D02*
X38066668Y6373752D01*
X38066668Y6373752D02*
X37590478Y6278514D01*
X38923811Y5945180D02*
X38923811Y6945180D01*
X38923811Y5992800D02*
X38828573Y5945180D01*
X38828573Y5945180D02*
X38638097Y5945180D01*
X38638097Y5945180D02*
X38542859Y5992800D01*
X38542859Y5992800D02*
X38495240Y6040419D01*
X38495240Y6040419D02*
X38447621Y6135657D01*
X38447621Y6135657D02*
X38447621Y6421371D01*
X38447621Y6421371D02*
X38495240Y6516609D01*
X38495240Y6516609D02*
X38542859Y6564228D01*
X38542859Y6564228D02*
X38638097Y6611847D01*
X38638097Y6611847D02*
X38828573Y6611847D01*
X38828573Y6611847D02*
X38923811Y6564228D01*
X39400002Y5945180D02*
X39400002Y6611847D01*
X39400002Y6945180D02*
X39352383Y6897561D01*
X39352383Y6897561D02*
X39400002Y6849942D01*
X39400002Y6849942D02*
X39447621Y6897561D01*
X39447621Y6897561D02*
X39400002Y6945180D01*
X39400002Y6945180D02*
X39400002Y6849942D01*
X39733335Y6611847D02*
X40114287Y6611847D01*
X39876192Y6945180D02*
X39876192Y6088038D01*
X39876192Y6088038D02*
X39923811Y5992800D01*
X39923811Y5992800D02*
X40019049Y5945180D01*
X40019049Y5945180D02*
X40114287Y5945180D01*
X41209526Y5945180D02*
X41209526Y6945180D01*
X41209526Y6564228D02*
X41304764Y6611847D01*
X41304764Y6611847D02*
X41495240Y6611847D01*
X41495240Y6611847D02*
X41590478Y6564228D01*
X41590478Y6564228D02*
X41638097Y6516609D01*
X41638097Y6516609D02*
X41685716Y6421371D01*
X41685716Y6421371D02*
X41685716Y6135657D01*
X41685716Y6135657D02*
X41638097Y6040419D01*
X41638097Y6040419D02*
X41590478Y5992800D01*
X41590478Y5992800D02*
X41495240Y5945180D01*
X41495240Y5945180D02*
X41304764Y5945180D01*
X41304764Y5945180D02*
X41209526Y5992800D01*
X42019050Y6611847D02*
X42257145Y5945180D01*
X42495240Y6611847D02*
X42257145Y5945180D01*
X42257145Y5945180D02*
X42161907Y5707085D01*
X42161907Y5707085D02*
X42114288Y5659466D01*
X42114288Y5659466D02*
X42019050Y5611847D01*
X43638098Y5945180D02*
X43638098Y6945180D01*
X44066669Y5945180D02*
X44066669Y6468990D01*
X44066669Y6468990D02*
X44019050Y6564228D01*
X44019050Y6564228D02*
X43923812Y6611847D01*
X43923812Y6611847D02*
X43780955Y6611847D01*
X43780955Y6611847D02*
X43685717Y6564228D01*
X43685717Y6564228D02*
X43638098Y6516609D01*
X44971431Y5945180D02*
X44971431Y6468990D01*
X44971431Y6468990D02*
X44923812Y6564228D01*
X44923812Y6564228D02*
X44828574Y6611847D01*
X44828574Y6611847D02*
X44638098Y6611847D01*
X44638098Y6611847D02*
X44542860Y6564228D01*
X44971431Y5992800D02*
X44876193Y5945180D01*
X44876193Y5945180D02*
X44638098Y5945180D01*
X44638098Y5945180D02*
X44542860Y5992800D01*
X44542860Y5992800D02*
X44495241Y6088038D01*
X44495241Y6088038D02*
X44495241Y6183276D01*
X44495241Y6183276D02*
X44542860Y6278514D01*
X44542860Y6278514D02*
X44638098Y6326133D01*
X44638098Y6326133D02*
X44876193Y6326133D01*
X44876193Y6326133D02*
X44971431Y6373752D01*
X45447622Y6611847D02*
X45447622Y5945180D01*
X45447622Y6516609D02*
X45495241Y6564228D01*
X45495241Y6564228D02*
X45590479Y6611847D01*
X45590479Y6611847D02*
X45733336Y6611847D01*
X45733336Y6611847D02*
X45828574Y6564228D01*
X45828574Y6564228D02*
X45876193Y6468990D01*
X45876193Y6468990D02*
X45876193Y5945180D01*
X46780955Y5945180D02*
X46780955Y6945180D01*
X46780955Y5992800D02*
X46685717Y5945180D01*
X46685717Y5945180D02*
X46495241Y5945180D01*
X46495241Y5945180D02*
X46400003Y5992800D01*
X46400003Y5992800D02*
X46352384Y6040419D01*
X46352384Y6040419D02*
X46304765Y6135657D01*
X46304765Y6135657D02*
X46304765Y6421371D01*
X46304765Y6421371D02*
X46352384Y6516609D01*
X46352384Y6516609D02*
X46400003Y6564228D01*
X46400003Y6564228D02*
X46495241Y6611847D01*
X46495241Y6611847D02*
X46685717Y6611847D01*
X46685717Y6611847D02*
X46780955Y6564228D01*
X1042856Y-92754819D02*
X1042856Y-91754819D01*
X1042856Y-92231009D02*
X1614284Y-92231009D01*
X1614284Y-92754819D02*
X1614284Y-91754819D01*
X2042856Y-92469104D02*
X2519046Y-92469104D01*
X1947618Y-92754819D02*
X2280951Y-91754819D01*
X2280951Y-91754819D02*
X2614284Y-92754819D01*
X3519046Y-92754819D02*
X3185713Y-92278628D01*
X2947618Y-92754819D02*
X2947618Y-91754819D01*
X2947618Y-91754819D02*
X3328570Y-91754819D01*
X3328570Y-91754819D02*
X3423808Y-91802438D01*
X3423808Y-91802438D02*
X3471427Y-91850057D01*
X3471427Y-91850057D02*
X3519046Y-91945295D01*
X3519046Y-91945295D02*
X3519046Y-92088152D01*
X3519046Y-92088152D02*
X3471427Y-92183390D01*
X3471427Y-92183390D02*
X3423808Y-92231009D01*
X3423808Y-92231009D02*
X3328570Y-92278628D01*
X3328570Y-92278628D02*
X2947618Y-92278628D01*
X3947618Y-92754819D02*
X3947618Y-91754819D01*
X3947618Y-91754819D02*
X4185713Y-91754819D01*
X4185713Y-91754819D02*
X4328570Y-91802438D01*
X4328570Y-91802438D02*
X4423808Y-91897676D01*
X4423808Y-91897676D02*
X4471427Y-91992914D01*
X4471427Y-91992914D02*
X4519046Y-92183390D01*
X4519046Y-92183390D02*
X4519046Y-92326247D01*
X4519046Y-92326247D02*
X4471427Y-92516723D01*
X4471427Y-92516723D02*
X4423808Y-92611961D01*
X4423808Y-92611961D02*
X4328570Y-92707200D01*
X4328570Y-92707200D02*
X4185713Y-92754819D01*
X4185713Y-92754819D02*
X3947618Y-92754819D01*
X4947618Y-92373866D02*
X5709523Y-92373866D01*
X6709522Y-91802438D02*
X6614284Y-91754819D01*
X6614284Y-91754819D02*
X6471427Y-91754819D01*
X6471427Y-91754819D02*
X6328570Y-91802438D01*
X6328570Y-91802438D02*
X6233332Y-91897676D01*
X6233332Y-91897676D02*
X6185713Y-91992914D01*
X6185713Y-91992914D02*
X6138094Y-92183390D01*
X6138094Y-92183390D02*
X6138094Y-92326247D01*
X6138094Y-92326247D02*
X6185713Y-92516723D01*
X6185713Y-92516723D02*
X6233332Y-92611961D01*
X6233332Y-92611961D02*
X6328570Y-92707200D01*
X6328570Y-92707200D02*
X6471427Y-92754819D01*
X6471427Y-92754819D02*
X6566665Y-92754819D01*
X6566665Y-92754819D02*
X6709522Y-92707200D01*
X6709522Y-92707200D02*
X6757141Y-92659580D01*
X6757141Y-92659580D02*
X6757141Y-92326247D01*
X6757141Y-92326247D02*
X6566665Y-92326247D01*
X7376189Y-91754819D02*
X7566665Y-91754819D01*
X7566665Y-91754819D02*
X7661903Y-91802438D01*
X7661903Y-91802438D02*
X7757141Y-91897676D01*
X7757141Y-91897676D02*
X7804760Y-92088152D01*
X7804760Y-92088152D02*
X7804760Y-92421485D01*
X7804760Y-92421485D02*
X7757141Y-92611961D01*
X7757141Y-92611961D02*
X7661903Y-92707200D01*
X7661903Y-92707200D02*
X7566665Y-92754819D01*
X7566665Y-92754819D02*
X7376189Y-92754819D01*
X7376189Y-92754819D02*
X7280951Y-92707200D01*
X7280951Y-92707200D02*
X7185713Y-92611961D01*
X7185713Y-92611961D02*
X7138094Y-92421485D01*
X7138094Y-92421485D02*
X7138094Y-92088152D01*
X7138094Y-92088152D02*
X7185713Y-91897676D01*
X7185713Y-91897676D02*
X7280951Y-91802438D01*
X7280951Y-91802438D02*
X7376189Y-91754819D01*
X8709522Y-92754819D02*
X8233332Y-92754819D01*
X8233332Y-92754819D02*
X8233332Y-91754819D01*
X9042856Y-92754819D02*
X9042856Y-91754819D01*
X9042856Y-91754819D02*
X9280951Y-91754819D01*
X9280951Y-91754819D02*
X9423808Y-91802438D01*
X9423808Y-91802438D02*
X9519046Y-91897676D01*
X9519046Y-91897676D02*
X9566665Y-91992914D01*
X9566665Y-91992914D02*
X9614284Y-92183390D01*
X9614284Y-92183390D02*
X9614284Y-92326247D01*
X9614284Y-92326247D02*
X9566665Y-92516723D01*
X9566665Y-92516723D02*
X9519046Y-92611961D01*
X9519046Y-92611961D02*
X9423808Y-92707200D01*
X9423808Y-92707200D02*
X9280951Y-92754819D01*
X9280951Y-92754819D02*
X9042856Y-92754819D01*
X10804761Y-92754819D02*
X10804761Y-91754819D01*
X10804761Y-91754819D02*
X11185713Y-91754819D01*
X11185713Y-91754819D02*
X11280951Y-91802438D01*
X11280951Y-91802438D02*
X11328570Y-91850057D01*
X11328570Y-91850057D02*
X11376189Y-91945295D01*
X11376189Y-91945295D02*
X11376189Y-92088152D01*
X11376189Y-92088152D02*
X11328570Y-92183390D01*
X11328570Y-92183390D02*
X11280951Y-92231009D01*
X11280951Y-92231009D02*
X11185713Y-92278628D01*
X11185713Y-92278628D02*
X10804761Y-92278628D01*
X12280951Y-92754819D02*
X11804761Y-92754819D01*
X11804761Y-92754819D02*
X11804761Y-91754819D01*
X12566666Y-92469104D02*
X13042856Y-92469104D01*
X12471428Y-92754819D02*
X12804761Y-91754819D01*
X12804761Y-91754819D02*
X13138094Y-92754819D01*
X13328571Y-91754819D02*
X13899999Y-91754819D01*
X13614285Y-92754819D02*
X13614285Y-91754819D01*
X14233333Y-92754819D02*
X14233333Y-91754819D01*
X14709523Y-92754819D02*
X14709523Y-91754819D01*
X14709523Y-91754819D02*
X15280951Y-92754819D01*
X15280951Y-92754819D02*
X15280951Y-91754819D01*
X16280951Y-91802438D02*
X16185713Y-91754819D01*
X16185713Y-91754819D02*
X16042856Y-91754819D01*
X16042856Y-91754819D02*
X15899999Y-91802438D01*
X15899999Y-91802438D02*
X15804761Y-91897676D01*
X15804761Y-91897676D02*
X15757142Y-91992914D01*
X15757142Y-91992914D02*
X15709523Y-92183390D01*
X15709523Y-92183390D02*
X15709523Y-92326247D01*
X15709523Y-92326247D02*
X15757142Y-92516723D01*
X15757142Y-92516723D02*
X15804761Y-92611961D01*
X15804761Y-92611961D02*
X15899999Y-92707200D01*
X15899999Y-92707200D02*
X16042856Y-92754819D01*
X16042856Y-92754819D02*
X16138094Y-92754819D01*
X16138094Y-92754819D02*
X16280951Y-92707200D01*
X16280951Y-92707200D02*
X16328570Y-92659580D01*
X16328570Y-92659580D02*
X16328570Y-92326247D01*
X16328570Y-92326247D02*
X16138094Y-92326247D01*
X17852380Y-92231009D02*
X17995237Y-92278628D01*
X17995237Y-92278628D02*
X18042856Y-92326247D01*
X18042856Y-92326247D02*
X18090475Y-92421485D01*
X18090475Y-92421485D02*
X18090475Y-92564342D01*
X18090475Y-92564342D02*
X18042856Y-92659580D01*
X18042856Y-92659580D02*
X17995237Y-92707200D01*
X17995237Y-92707200D02*
X17899999Y-92754819D01*
X17899999Y-92754819D02*
X17519047Y-92754819D01*
X17519047Y-92754819D02*
X17519047Y-91754819D01*
X17519047Y-91754819D02*
X17852380Y-91754819D01*
X17852380Y-91754819D02*
X17947618Y-91802438D01*
X17947618Y-91802438D02*
X17995237Y-91850057D01*
X17995237Y-91850057D02*
X18042856Y-91945295D01*
X18042856Y-91945295D02*
X18042856Y-92040533D01*
X18042856Y-92040533D02*
X17995237Y-92135771D01*
X17995237Y-92135771D02*
X17947618Y-92183390D01*
X17947618Y-92183390D02*
X17852380Y-92231009D01*
X17852380Y-92231009D02*
X17519047Y-92231009D01*
X18519047Y-91754819D02*
X18519047Y-92564342D01*
X18519047Y-92564342D02*
X18566666Y-92659580D01*
X18566666Y-92659580D02*
X18614285Y-92707200D01*
X18614285Y-92707200D02*
X18709523Y-92754819D01*
X18709523Y-92754819D02*
X18899999Y-92754819D01*
X18899999Y-92754819D02*
X18995237Y-92707200D01*
X18995237Y-92707200D02*
X19042856Y-92659580D01*
X19042856Y-92659580D02*
X19090475Y-92564342D01*
X19090475Y-92564342D02*
X19090475Y-91754819D01*
X19519047Y-92707200D02*
X19661904Y-92754819D01*
X19661904Y-92754819D02*
X19899999Y-92754819D01*
X19899999Y-92754819D02*
X19995237Y-92707200D01*
X19995237Y-92707200D02*
X20042856Y-92659580D01*
X20042856Y-92659580D02*
X20090475Y-92564342D01*
X20090475Y-92564342D02*
X20090475Y-92469104D01*
X20090475Y-92469104D02*
X20042856Y-92373866D01*
X20042856Y-92373866D02*
X19995237Y-92326247D01*
X19995237Y-92326247D02*
X19899999Y-92278628D01*
X19899999Y-92278628D02*
X19709523Y-92231009D01*
X19709523Y-92231009D02*
X19614285Y-92183390D01*
X19614285Y-92183390D02*
X19566666Y-92135771D01*
X19566666Y-92135771D02*
X19519047Y-92040533D01*
X19519047Y-92040533D02*
X19519047Y-91945295D01*
X19519047Y-91945295D02*
X19566666Y-91850057D01*
X19566666Y-91850057D02*
X19614285Y-91802438D01*
X19614285Y-91802438D02*
X19709523Y-91754819D01*
X19709523Y-91754819D02*
X19947618Y-91754819D01*
X19947618Y-91754819D02*
X20090475Y-91802438D01*
X21471428Y-91754819D02*
X21661904Y-91754819D01*
X21661904Y-91754819D02*
X21757142Y-91802438D01*
X21757142Y-91802438D02*
X21852380Y-91897676D01*
X21852380Y-91897676D02*
X21899999Y-92088152D01*
X21899999Y-92088152D02*
X21899999Y-92421485D01*
X21899999Y-92421485D02*
X21852380Y-92611961D01*
X21852380Y-92611961D02*
X21757142Y-92707200D01*
X21757142Y-92707200D02*
X21661904Y-92754819D01*
X21661904Y-92754819D02*
X21471428Y-92754819D01*
X21471428Y-92754819D02*
X21376190Y-92707200D01*
X21376190Y-92707200D02*
X21280952Y-92611961D01*
X21280952Y-92611961D02*
X21233333Y-92421485D01*
X21233333Y-92421485D02*
X21233333Y-92088152D01*
X21233333Y-92088152D02*
X21280952Y-91897676D01*
X21280952Y-91897676D02*
X21376190Y-91802438D01*
X21376190Y-91802438D02*
X21471428Y-91754819D01*
X22328571Y-92754819D02*
X22328571Y-91754819D01*
X22328571Y-91754819D02*
X22899999Y-92754819D01*
X22899999Y-92754819D02*
X22899999Y-91754819D01*
X24471428Y-92231009D02*
X24614285Y-92278628D01*
X24614285Y-92278628D02*
X24661904Y-92326247D01*
X24661904Y-92326247D02*
X24709523Y-92421485D01*
X24709523Y-92421485D02*
X24709523Y-92564342D01*
X24709523Y-92564342D02*
X24661904Y-92659580D01*
X24661904Y-92659580D02*
X24614285Y-92707200D01*
X24614285Y-92707200D02*
X24519047Y-92754819D01*
X24519047Y-92754819D02*
X24138095Y-92754819D01*
X24138095Y-92754819D02*
X24138095Y-91754819D01*
X24138095Y-91754819D02*
X24471428Y-91754819D01*
X24471428Y-91754819D02*
X24566666Y-91802438D01*
X24566666Y-91802438D02*
X24614285Y-91850057D01*
X24614285Y-91850057D02*
X24661904Y-91945295D01*
X24661904Y-91945295D02*
X24661904Y-92040533D01*
X24661904Y-92040533D02*
X24614285Y-92135771D01*
X24614285Y-92135771D02*
X24566666Y-92183390D01*
X24566666Y-92183390D02*
X24471428Y-92231009D01*
X24471428Y-92231009D02*
X24138095Y-92231009D01*
X25090476Y-92469104D02*
X25566666Y-92469104D01*
X24995238Y-92754819D02*
X25328571Y-91754819D01*
X25328571Y-91754819D02*
X25661904Y-92754819D01*
X26566666Y-92659580D02*
X26519047Y-92707200D01*
X26519047Y-92707200D02*
X26376190Y-92754819D01*
X26376190Y-92754819D02*
X26280952Y-92754819D01*
X26280952Y-92754819D02*
X26138095Y-92707200D01*
X26138095Y-92707200D02*
X26042857Y-92611961D01*
X26042857Y-92611961D02*
X25995238Y-92516723D01*
X25995238Y-92516723D02*
X25947619Y-92326247D01*
X25947619Y-92326247D02*
X25947619Y-92183390D01*
X25947619Y-92183390D02*
X25995238Y-91992914D01*
X25995238Y-91992914D02*
X26042857Y-91897676D01*
X26042857Y-91897676D02*
X26138095Y-91802438D01*
X26138095Y-91802438D02*
X26280952Y-91754819D01*
X26280952Y-91754819D02*
X26376190Y-91754819D01*
X26376190Y-91754819D02*
X26519047Y-91802438D01*
X26519047Y-91802438D02*
X26566666Y-91850057D01*
X26995238Y-92754819D02*
X26995238Y-91754819D01*
X27566666Y-92754819D02*
X27138095Y-92183390D01*
X27566666Y-91754819D02*
X26995238Y-92326247D01*
X28757143Y-92373866D02*
X29519048Y-92373866D01*
X31328571Y-92754819D02*
X30995238Y-92278628D01*
X30757143Y-92754819D02*
X30757143Y-91754819D01*
X30757143Y-91754819D02*
X31138095Y-91754819D01*
X31138095Y-91754819D02*
X31233333Y-91802438D01*
X31233333Y-91802438D02*
X31280952Y-91850057D01*
X31280952Y-91850057D02*
X31328571Y-91945295D01*
X31328571Y-91945295D02*
X31328571Y-92088152D01*
X31328571Y-92088152D02*
X31280952Y-92183390D01*
X31280952Y-92183390D02*
X31233333Y-92231009D01*
X31233333Y-92231009D02*
X31138095Y-92278628D01*
X31138095Y-92278628D02*
X30757143Y-92278628D01*
X31757143Y-92231009D02*
X32090476Y-92231009D01*
X32233333Y-92754819D02*
X31757143Y-92754819D01*
X31757143Y-92754819D02*
X31757143Y-91754819D01*
X31757143Y-91754819D02*
X32233333Y-91754819D01*
X32519048Y-91754819D02*
X33090476Y-91754819D01*
X32804762Y-92754819D02*
X32804762Y-91754819D01*
X33376191Y-92469104D02*
X33852381Y-92469104D01*
X33280953Y-92754819D02*
X33614286Y-91754819D01*
X33614286Y-91754819D02*
X33947619Y-92754819D01*
X34280953Y-92754819D02*
X34280953Y-91754819D01*
X34757143Y-92754819D02*
X34757143Y-91754819D01*
X34757143Y-91754819D02*
X35328571Y-92754819D01*
X35328571Y-92754819D02*
X35328571Y-91754819D01*
X36423810Y-91754819D02*
X36995238Y-91754819D01*
X36709524Y-92754819D02*
X36709524Y-91754819D01*
X37328572Y-92754819D02*
X37328572Y-91754819D01*
X37328572Y-92231009D02*
X37900000Y-92231009D01*
X37900000Y-92754819D02*
X37900000Y-91754819D01*
X38947619Y-92754819D02*
X38614286Y-92278628D01*
X38376191Y-92754819D02*
X38376191Y-91754819D01*
X38376191Y-91754819D02*
X38757143Y-91754819D01*
X38757143Y-91754819D02*
X38852381Y-91802438D01*
X38852381Y-91802438D02*
X38900000Y-91850057D01*
X38900000Y-91850057D02*
X38947619Y-91945295D01*
X38947619Y-91945295D02*
X38947619Y-92088152D01*
X38947619Y-92088152D02*
X38900000Y-92183390D01*
X38900000Y-92183390D02*
X38852381Y-92231009D01*
X38852381Y-92231009D02*
X38757143Y-92278628D01*
X38757143Y-92278628D02*
X38376191Y-92278628D01*
X39566667Y-91754819D02*
X39757143Y-91754819D01*
X39757143Y-91754819D02*
X39852381Y-91802438D01*
X39852381Y-91802438D02*
X39947619Y-91897676D01*
X39947619Y-91897676D02*
X39995238Y-92088152D01*
X39995238Y-92088152D02*
X39995238Y-92421485D01*
X39995238Y-92421485D02*
X39947619Y-92611961D01*
X39947619Y-92611961D02*
X39852381Y-92707200D01*
X39852381Y-92707200D02*
X39757143Y-92754819D01*
X39757143Y-92754819D02*
X39566667Y-92754819D01*
X39566667Y-92754819D02*
X39471429Y-92707200D01*
X39471429Y-92707200D02*
X39376191Y-92611961D01*
X39376191Y-92611961D02*
X39328572Y-92421485D01*
X39328572Y-92421485D02*
X39328572Y-92088152D01*
X39328572Y-92088152D02*
X39376191Y-91897676D01*
X39376191Y-91897676D02*
X39471429Y-91802438D01*
X39471429Y-91802438D02*
X39566667Y-91754819D01*
X40423810Y-91754819D02*
X40423810Y-92564342D01*
X40423810Y-92564342D02*
X40471429Y-92659580D01*
X40471429Y-92659580D02*
X40519048Y-92707200D01*
X40519048Y-92707200D02*
X40614286Y-92754819D01*
X40614286Y-92754819D02*
X40804762Y-92754819D01*
X40804762Y-92754819D02*
X40900000Y-92707200D01*
X40900000Y-92707200D02*
X40947619Y-92659580D01*
X40947619Y-92659580D02*
X40995238Y-92564342D01*
X40995238Y-92564342D02*
X40995238Y-91754819D01*
X41995238Y-91802438D02*
X41900000Y-91754819D01*
X41900000Y-91754819D02*
X41757143Y-91754819D01*
X41757143Y-91754819D02*
X41614286Y-91802438D01*
X41614286Y-91802438D02*
X41519048Y-91897676D01*
X41519048Y-91897676D02*
X41471429Y-91992914D01*
X41471429Y-91992914D02*
X41423810Y-92183390D01*
X41423810Y-92183390D02*
X41423810Y-92326247D01*
X41423810Y-92326247D02*
X41471429Y-92516723D01*
X41471429Y-92516723D02*
X41519048Y-92611961D01*
X41519048Y-92611961D02*
X41614286Y-92707200D01*
X41614286Y-92707200D02*
X41757143Y-92754819D01*
X41757143Y-92754819D02*
X41852381Y-92754819D01*
X41852381Y-92754819D02*
X41995238Y-92707200D01*
X41995238Y-92707200D02*
X42042857Y-92659580D01*
X42042857Y-92659580D02*
X42042857Y-92326247D01*
X42042857Y-92326247D02*
X41852381Y-92326247D01*
X42471429Y-92754819D02*
X42471429Y-91754819D01*
X42471429Y-92231009D02*
X43042857Y-92231009D01*
X43042857Y-92754819D02*
X43042857Y-91754819D01*
X44280953Y-92754819D02*
X44280953Y-91754819D01*
X44280953Y-91754819D02*
X44661905Y-91754819D01*
X44661905Y-91754819D02*
X44757143Y-91802438D01*
X44757143Y-91802438D02*
X44804762Y-91850057D01*
X44804762Y-91850057D02*
X44852381Y-91945295D01*
X44852381Y-91945295D02*
X44852381Y-92088152D01*
X44852381Y-92088152D02*
X44804762Y-92183390D01*
X44804762Y-92183390D02*
X44757143Y-92231009D01*
X44757143Y-92231009D02*
X44661905Y-92278628D01*
X44661905Y-92278628D02*
X44280953Y-92278628D01*
X45757143Y-92754819D02*
X45280953Y-92754819D01*
X45280953Y-92754819D02*
X45280953Y-91754819D01*
X46042858Y-92469104D02*
X46519048Y-92469104D01*
X45947620Y-92754819D02*
X46280953Y-91754819D01*
X46280953Y-91754819D02*
X46614286Y-92754819D01*
X46804763Y-91754819D02*
X47376191Y-91754819D01*
X47090477Y-92754819D02*
X47090477Y-91754819D01*
X47709525Y-92754819D02*
X47709525Y-91754819D01*
X48185715Y-92754819D02*
X48185715Y-91754819D01*
X48185715Y-91754819D02*
X48757143Y-92754819D01*
X48757143Y-92754819D02*
X48757143Y-91754819D01*
X49757143Y-91802438D02*
X49661905Y-91754819D01*
X49661905Y-91754819D02*
X49519048Y-91754819D01*
X49519048Y-91754819D02*
X49376191Y-91802438D01*
X49376191Y-91802438D02*
X49280953Y-91897676D01*
X49280953Y-91897676D02*
X49233334Y-91992914D01*
X49233334Y-91992914D02*
X49185715Y-92183390D01*
X49185715Y-92183390D02*
X49185715Y-92326247D01*
X49185715Y-92326247D02*
X49233334Y-92516723D01*
X49233334Y-92516723D02*
X49280953Y-92611961D01*
X49280953Y-92611961D02*
X49376191Y-92707200D01*
X49376191Y-92707200D02*
X49519048Y-92754819D01*
X49519048Y-92754819D02*
X49614286Y-92754819D01*
X49614286Y-92754819D02*
X49757143Y-92707200D01*
X49757143Y-92707200D02*
X49804762Y-92659580D01*
X49804762Y-92659580D02*
X49804762Y-92326247D01*
X49804762Y-92326247D02*
X49614286Y-92326247D01*
X-147622Y-95231009D02*
X-4765Y-95278628D01*
X-4765Y-95278628D02*
X42853Y-95326247D01*
X42853Y-95326247D02*
X90472Y-95421485D01*
X90472Y-95421485D02*
X90472Y-95564342D01*
X90472Y-95564342D02*
X42853Y-95659580D01*
X42853Y-95659580D02*
X-4765Y-95707200D01*
X-4765Y-95707200D02*
X-100003Y-95754819D01*
X-100003Y-95754819D02*
X-480955Y-95754819D01*
X-480955Y-95754819D02*
X-480955Y-94754819D01*
X-480955Y-94754819D02*
X-147622Y-94754819D01*
X-147622Y-94754819D02*
X-52384Y-94802438D01*
X-52384Y-94802438D02*
X-4765Y-94850057D01*
X-4765Y-94850057D02*
X42853Y-94945295D01*
X42853Y-94945295D02*
X42853Y-95040533D01*
X42853Y-95040533D02*
X-4765Y-95135771D01*
X-4765Y-95135771D02*
X-52384Y-95183390D01*
X-52384Y-95183390D02*
X-147622Y-95231009D01*
X-147622Y-95231009D02*
X-480955Y-95231009D01*
X947615Y-95088152D02*
X947615Y-95754819D01*
X519044Y-95088152D02*
X519044Y-95611961D01*
X519044Y-95611961D02*
X566663Y-95707200D01*
X566663Y-95707200D02*
X661901Y-95754819D01*
X661901Y-95754819D02*
X804758Y-95754819D01*
X804758Y-95754819D02*
X899996Y-95707200D01*
X899996Y-95707200D02*
X947615Y-95659580D01*
X1376187Y-95707200D02*
X1471425Y-95754819D01*
X1471425Y-95754819D02*
X1661901Y-95754819D01*
X1661901Y-95754819D02*
X1757139Y-95707200D01*
X1757139Y-95707200D02*
X1804758Y-95611961D01*
X1804758Y-95611961D02*
X1804758Y-95564342D01*
X1804758Y-95564342D02*
X1757139Y-95469104D01*
X1757139Y-95469104D02*
X1661901Y-95421485D01*
X1661901Y-95421485D02*
X1519044Y-95421485D01*
X1519044Y-95421485D02*
X1423806Y-95373866D01*
X1423806Y-95373866D02*
X1376187Y-95278628D01*
X1376187Y-95278628D02*
X1376187Y-95231009D01*
X1376187Y-95231009D02*
X1423806Y-95135771D01*
X1423806Y-95135771D02*
X1519044Y-95088152D01*
X1519044Y-95088152D02*
X1661901Y-95088152D01*
X1661901Y-95088152D02*
X1757139Y-95135771D01*
X2995235Y-95754819D02*
X2995235Y-95088152D01*
X2995235Y-95278628D02*
X3042854Y-95183390D01*
X3042854Y-95183390D02*
X3090473Y-95135771D01*
X3090473Y-95135771D02*
X3185711Y-95088152D01*
X3185711Y-95088152D02*
X3280949Y-95088152D01*
X3614283Y-95754819D02*
X3614283Y-95088152D01*
X3614283Y-94754819D02*
X3566664Y-94802438D01*
X3566664Y-94802438D02*
X3614283Y-94850057D01*
X3614283Y-94850057D02*
X3661902Y-94802438D01*
X3661902Y-94802438D02*
X3614283Y-94754819D01*
X3614283Y-94754819D02*
X3614283Y-94850057D01*
X4090473Y-95088152D02*
X4090473Y-95754819D01*
X4090473Y-95183390D02*
X4138092Y-95135771D01*
X4138092Y-95135771D02*
X4233330Y-95088152D01*
X4233330Y-95088152D02*
X4376187Y-95088152D01*
X4376187Y-95088152D02*
X4471425Y-95135771D01*
X4471425Y-95135771D02*
X4519044Y-95231009D01*
X4519044Y-95231009D02*
X4519044Y-95754819D01*
X5423806Y-95088152D02*
X5423806Y-95897676D01*
X5423806Y-95897676D02*
X5376187Y-95992914D01*
X5376187Y-95992914D02*
X5328568Y-96040533D01*
X5328568Y-96040533D02*
X5233330Y-96088152D01*
X5233330Y-96088152D02*
X5090473Y-96088152D01*
X5090473Y-96088152D02*
X4995235Y-96040533D01*
X5423806Y-95707200D02*
X5328568Y-95754819D01*
X5328568Y-95754819D02*
X5138092Y-95754819D01*
X5138092Y-95754819D02*
X5042854Y-95707200D01*
X5042854Y-95707200D02*
X4995235Y-95659580D01*
X4995235Y-95659580D02*
X4947616Y-95564342D01*
X4947616Y-95564342D02*
X4947616Y-95278628D01*
X4947616Y-95278628D02*
X4995235Y-95183390D01*
X4995235Y-95183390D02*
X5042854Y-95135771D01*
X5042854Y-95135771D02*
X5138092Y-95088152D01*
X5138092Y-95088152D02*
X5328568Y-95088152D01*
X5328568Y-95088152D02*
X5423806Y-95135771D01*
X6995235Y-95231009D02*
X7138092Y-95278628D01*
X7138092Y-95278628D02*
X7185711Y-95326247D01*
X7185711Y-95326247D02*
X7233330Y-95421485D01*
X7233330Y-95421485D02*
X7233330Y-95564342D01*
X7233330Y-95564342D02*
X7185711Y-95659580D01*
X7185711Y-95659580D02*
X7138092Y-95707200D01*
X7138092Y-95707200D02*
X7042854Y-95754819D01*
X7042854Y-95754819D02*
X6661902Y-95754819D01*
X6661902Y-95754819D02*
X6661902Y-94754819D01*
X6661902Y-94754819D02*
X6995235Y-94754819D01*
X6995235Y-94754819D02*
X7090473Y-94802438D01*
X7090473Y-94802438D02*
X7138092Y-94850057D01*
X7138092Y-94850057D02*
X7185711Y-94945295D01*
X7185711Y-94945295D02*
X7185711Y-95040533D01*
X7185711Y-95040533D02*
X7138092Y-95135771D01*
X7138092Y-95135771D02*
X7090473Y-95183390D01*
X7090473Y-95183390D02*
X6995235Y-95231009D01*
X6995235Y-95231009D02*
X6661902Y-95231009D01*
X7852378Y-94754819D02*
X8042854Y-94754819D01*
X8042854Y-94754819D02*
X8138092Y-94802438D01*
X8138092Y-94802438D02*
X8233330Y-94897676D01*
X8233330Y-94897676D02*
X8280949Y-95088152D01*
X8280949Y-95088152D02*
X8280949Y-95421485D01*
X8280949Y-95421485D02*
X8233330Y-95611961D01*
X8233330Y-95611961D02*
X8138092Y-95707200D01*
X8138092Y-95707200D02*
X8042854Y-95754819D01*
X8042854Y-95754819D02*
X7852378Y-95754819D01*
X7852378Y-95754819D02*
X7757140Y-95707200D01*
X7757140Y-95707200D02*
X7661902Y-95611961D01*
X7661902Y-95611961D02*
X7614283Y-95421485D01*
X7614283Y-95421485D02*
X7614283Y-95088152D01*
X7614283Y-95088152D02*
X7661902Y-94897676D01*
X7661902Y-94897676D02*
X7757140Y-94802438D01*
X7757140Y-94802438D02*
X7852378Y-94754819D01*
X8566664Y-94754819D02*
X9138092Y-94754819D01*
X8852378Y-95754819D02*
X8852378Y-94754819D01*
X9471426Y-95754819D02*
X9471426Y-94754819D01*
X9471426Y-95231009D02*
X10042854Y-95231009D01*
X10042854Y-95754819D02*
X10042854Y-94754819D01*
X11138093Y-95088152D02*
X11519045Y-95088152D01*
X11280950Y-95754819D02*
X11280950Y-94897676D01*
X11280950Y-94897676D02*
X11328569Y-94802438D01*
X11328569Y-94802438D02*
X11423807Y-94754819D01*
X11423807Y-94754819D02*
X11519045Y-94754819D01*
X12280950Y-95754819D02*
X12280950Y-95231009D01*
X12280950Y-95231009D02*
X12233331Y-95135771D01*
X12233331Y-95135771D02*
X12138093Y-95088152D01*
X12138093Y-95088152D02*
X11947617Y-95088152D01*
X11947617Y-95088152D02*
X11852379Y-95135771D01*
X12280950Y-95707200D02*
X12185712Y-95754819D01*
X12185712Y-95754819D02*
X11947617Y-95754819D01*
X11947617Y-95754819D02*
X11852379Y-95707200D01*
X11852379Y-95707200D02*
X11804760Y-95611961D01*
X11804760Y-95611961D02*
X11804760Y-95516723D01*
X11804760Y-95516723D02*
X11852379Y-95421485D01*
X11852379Y-95421485D02*
X11947617Y-95373866D01*
X11947617Y-95373866D02*
X12185712Y-95373866D01*
X12185712Y-95373866D02*
X12280950Y-95326247D01*
X13185712Y-95707200D02*
X13090474Y-95754819D01*
X13090474Y-95754819D02*
X12899998Y-95754819D01*
X12899998Y-95754819D02*
X12804760Y-95707200D01*
X12804760Y-95707200D02*
X12757141Y-95659580D01*
X12757141Y-95659580D02*
X12709522Y-95564342D01*
X12709522Y-95564342D02*
X12709522Y-95278628D01*
X12709522Y-95278628D02*
X12757141Y-95183390D01*
X12757141Y-95183390D02*
X12804760Y-95135771D01*
X12804760Y-95135771D02*
X12899998Y-95088152D01*
X12899998Y-95088152D02*
X13090474Y-95088152D01*
X13090474Y-95088152D02*
X13185712Y-95135771D01*
X13995236Y-95707200D02*
X13899998Y-95754819D01*
X13899998Y-95754819D02*
X13709522Y-95754819D01*
X13709522Y-95754819D02*
X13614284Y-95707200D01*
X13614284Y-95707200D02*
X13566665Y-95611961D01*
X13566665Y-95611961D02*
X13566665Y-95231009D01*
X13566665Y-95231009D02*
X13614284Y-95135771D01*
X13614284Y-95135771D02*
X13709522Y-95088152D01*
X13709522Y-95088152D02*
X13899998Y-95088152D01*
X13899998Y-95088152D02*
X13995236Y-95135771D01*
X13995236Y-95135771D02*
X14042855Y-95231009D01*
X14042855Y-95231009D02*
X14042855Y-95326247D01*
X14042855Y-95326247D02*
X13566665Y-95421485D01*
X14423808Y-95707200D02*
X14519046Y-95754819D01*
X14519046Y-95754819D02*
X14709522Y-95754819D01*
X14709522Y-95754819D02*
X14804760Y-95707200D01*
X14804760Y-95707200D02*
X14852379Y-95611961D01*
X14852379Y-95611961D02*
X14852379Y-95564342D01*
X14852379Y-95564342D02*
X14804760Y-95469104D01*
X14804760Y-95469104D02*
X14709522Y-95421485D01*
X14709522Y-95421485D02*
X14566665Y-95421485D01*
X14566665Y-95421485D02*
X14471427Y-95373866D01*
X14471427Y-95373866D02*
X14423808Y-95278628D01*
X14423808Y-95278628D02*
X14423808Y-95231009D01*
X14423808Y-95231009D02*
X14471427Y-95135771D01*
X14471427Y-95135771D02*
X14566665Y-95088152D01*
X14566665Y-95088152D02*
X14709522Y-95088152D01*
X14709522Y-95088152D02*
X14804760Y-95135771D01*
X16042856Y-95373866D02*
X16804761Y-95373866D01*
X18471427Y-95707200D02*
X18376189Y-95754819D01*
X18376189Y-95754819D02*
X18185713Y-95754819D01*
X18185713Y-95754819D02*
X18090475Y-95707200D01*
X18090475Y-95707200D02*
X18042856Y-95659580D01*
X18042856Y-95659580D02*
X17995237Y-95564342D01*
X17995237Y-95564342D02*
X17995237Y-95278628D01*
X17995237Y-95278628D02*
X18042856Y-95183390D01*
X18042856Y-95183390D02*
X18090475Y-95135771D01*
X18090475Y-95135771D02*
X18185713Y-95088152D01*
X18185713Y-95088152D02*
X18376189Y-95088152D01*
X18376189Y-95088152D02*
X18471427Y-95135771D01*
X19042856Y-95754819D02*
X18947618Y-95707200D01*
X18947618Y-95707200D02*
X18899999Y-95611961D01*
X18899999Y-95611961D02*
X18899999Y-94754819D01*
X19423809Y-95754819D02*
X19423809Y-95088152D01*
X19423809Y-94754819D02*
X19376190Y-94802438D01*
X19376190Y-94802438D02*
X19423809Y-94850057D01*
X19423809Y-94850057D02*
X19471428Y-94802438D01*
X19471428Y-94802438D02*
X19423809Y-94754819D01*
X19423809Y-94754819D02*
X19423809Y-94850057D01*
X19899999Y-95088152D02*
X19899999Y-96088152D01*
X19899999Y-95135771D02*
X19995237Y-95088152D01*
X19995237Y-95088152D02*
X20185713Y-95088152D01*
X20185713Y-95088152D02*
X20280951Y-95135771D01*
X20280951Y-95135771D02*
X20328570Y-95183390D01*
X20328570Y-95183390D02*
X20376189Y-95278628D01*
X20376189Y-95278628D02*
X20376189Y-95564342D01*
X20376189Y-95564342D02*
X20328570Y-95659580D01*
X20328570Y-95659580D02*
X20280951Y-95707200D01*
X20280951Y-95707200D02*
X20185713Y-95754819D01*
X20185713Y-95754819D02*
X19995237Y-95754819D01*
X19995237Y-95754819D02*
X19899999Y-95707200D01*
X21947618Y-95707200D02*
X21852380Y-95754819D01*
X21852380Y-95754819D02*
X21661904Y-95754819D01*
X21661904Y-95754819D02*
X21566666Y-95707200D01*
X21566666Y-95707200D02*
X21519047Y-95611961D01*
X21519047Y-95611961D02*
X21519047Y-95231009D01*
X21519047Y-95231009D02*
X21566666Y-95135771D01*
X21566666Y-95135771D02*
X21661904Y-95088152D01*
X21661904Y-95088152D02*
X21852380Y-95088152D01*
X21852380Y-95088152D02*
X21947618Y-95135771D01*
X21947618Y-95135771D02*
X21995237Y-95231009D01*
X21995237Y-95231009D02*
X21995237Y-95326247D01*
X21995237Y-95326247D02*
X21519047Y-95421485D01*
X22423809Y-95754819D02*
X22423809Y-95088152D01*
X22423809Y-94754819D02*
X22376190Y-94802438D01*
X22376190Y-94802438D02*
X22423809Y-94850057D01*
X22423809Y-94850057D02*
X22471428Y-94802438D01*
X22471428Y-94802438D02*
X22423809Y-94754819D01*
X22423809Y-94754819D02*
X22423809Y-94850057D01*
X22757142Y-95088152D02*
X23138094Y-95088152D01*
X22899999Y-94754819D02*
X22899999Y-95611961D01*
X22899999Y-95611961D02*
X22947618Y-95707200D01*
X22947618Y-95707200D02*
X23042856Y-95754819D01*
X23042856Y-95754819D02*
X23138094Y-95754819D01*
X23471428Y-95754819D02*
X23471428Y-94754819D01*
X23899999Y-95754819D02*
X23899999Y-95231009D01*
X23899999Y-95231009D02*
X23852380Y-95135771D01*
X23852380Y-95135771D02*
X23757142Y-95088152D01*
X23757142Y-95088152D02*
X23614285Y-95088152D01*
X23614285Y-95088152D02*
X23519047Y-95135771D01*
X23519047Y-95135771D02*
X23471428Y-95183390D01*
X24757142Y-95707200D02*
X24661904Y-95754819D01*
X24661904Y-95754819D02*
X24471428Y-95754819D01*
X24471428Y-95754819D02*
X24376190Y-95707200D01*
X24376190Y-95707200D02*
X24328571Y-95611961D01*
X24328571Y-95611961D02*
X24328571Y-95231009D01*
X24328571Y-95231009D02*
X24376190Y-95135771D01*
X24376190Y-95135771D02*
X24471428Y-95088152D01*
X24471428Y-95088152D02*
X24661904Y-95088152D01*
X24661904Y-95088152D02*
X24757142Y-95135771D01*
X24757142Y-95135771D02*
X24804761Y-95231009D01*
X24804761Y-95231009D02*
X24804761Y-95326247D01*
X24804761Y-95326247D02*
X24328571Y-95421485D01*
X25233333Y-95754819D02*
X25233333Y-95088152D01*
X25233333Y-95278628D02*
X25280952Y-95183390D01*
X25280952Y-95183390D02*
X25328571Y-95135771D01*
X25328571Y-95135771D02*
X25423809Y-95088152D01*
X25423809Y-95088152D02*
X25519047Y-95088152D01*
X25900000Y-95707200D02*
X25900000Y-95754819D01*
X25900000Y-95754819D02*
X25852381Y-95850057D01*
X25852381Y-95850057D02*
X25804762Y-95897676D01*
X25852381Y-95135771D02*
X25900000Y-95183390D01*
X25900000Y-95183390D02*
X25852381Y-95231009D01*
X25852381Y-95231009D02*
X25804762Y-95183390D01*
X25804762Y-95183390D02*
X25852381Y-95135771D01*
X25852381Y-95135771D02*
X25852381Y-95231009D01*
X26947619Y-95088152D02*
X27328571Y-95088152D01*
X27090476Y-94754819D02*
X27090476Y-95611961D01*
X27090476Y-95611961D02*
X27138095Y-95707200D01*
X27138095Y-95707200D02*
X27233333Y-95754819D01*
X27233333Y-95754819D02*
X27328571Y-95754819D01*
X28090476Y-95754819D02*
X28090476Y-95231009D01*
X28090476Y-95231009D02*
X28042857Y-95135771D01*
X28042857Y-95135771D02*
X27947619Y-95088152D01*
X27947619Y-95088152D02*
X27757143Y-95088152D01*
X27757143Y-95088152D02*
X27661905Y-95135771D01*
X28090476Y-95707200D02*
X27995238Y-95754819D01*
X27995238Y-95754819D02*
X27757143Y-95754819D01*
X27757143Y-95754819D02*
X27661905Y-95707200D01*
X27661905Y-95707200D02*
X27614286Y-95611961D01*
X27614286Y-95611961D02*
X27614286Y-95516723D01*
X27614286Y-95516723D02*
X27661905Y-95421485D01*
X27661905Y-95421485D02*
X27757143Y-95373866D01*
X27757143Y-95373866D02*
X27995238Y-95373866D01*
X27995238Y-95373866D02*
X28090476Y-95326247D01*
X28566667Y-95754819D02*
X28566667Y-94754819D01*
X28566667Y-95135771D02*
X28661905Y-95088152D01*
X28661905Y-95088152D02*
X28852381Y-95088152D01*
X28852381Y-95088152D02*
X28947619Y-95135771D01*
X28947619Y-95135771D02*
X28995238Y-95183390D01*
X28995238Y-95183390D02*
X29042857Y-95278628D01*
X29042857Y-95278628D02*
X29042857Y-95564342D01*
X29042857Y-95564342D02*
X28995238Y-95659580D01*
X28995238Y-95659580D02*
X28947619Y-95707200D01*
X28947619Y-95707200D02*
X28852381Y-95754819D01*
X28852381Y-95754819D02*
X28661905Y-95754819D01*
X28661905Y-95754819D02*
X28566667Y-95707200D01*
X29423810Y-95707200D02*
X29519048Y-95754819D01*
X29519048Y-95754819D02*
X29709524Y-95754819D01*
X29709524Y-95754819D02*
X29804762Y-95707200D01*
X29804762Y-95707200D02*
X29852381Y-95611961D01*
X29852381Y-95611961D02*
X29852381Y-95564342D01*
X29852381Y-95564342D02*
X29804762Y-95469104D01*
X29804762Y-95469104D02*
X29709524Y-95421485D01*
X29709524Y-95421485D02*
X29566667Y-95421485D01*
X29566667Y-95421485D02*
X29471429Y-95373866D01*
X29471429Y-95373866D02*
X29423810Y-95278628D01*
X29423810Y-95278628D02*
X29423810Y-95231009D01*
X29423810Y-95231009D02*
X29471429Y-95135771D01*
X29471429Y-95135771D02*
X29566667Y-95088152D01*
X29566667Y-95088152D02*
X29709524Y-95088152D01*
X29709524Y-95088152D02*
X29804762Y-95135771D01*
X31471429Y-95754819D02*
X31471429Y-95231009D01*
X31471429Y-95231009D02*
X31423810Y-95135771D01*
X31423810Y-95135771D02*
X31328572Y-95088152D01*
X31328572Y-95088152D02*
X31138096Y-95088152D01*
X31138096Y-95088152D02*
X31042858Y-95135771D01*
X31471429Y-95707200D02*
X31376191Y-95754819D01*
X31376191Y-95754819D02*
X31138096Y-95754819D01*
X31138096Y-95754819D02*
X31042858Y-95707200D01*
X31042858Y-95707200D02*
X30995239Y-95611961D01*
X30995239Y-95611961D02*
X30995239Y-95516723D01*
X30995239Y-95516723D02*
X31042858Y-95421485D01*
X31042858Y-95421485D02*
X31138096Y-95373866D01*
X31138096Y-95373866D02*
X31376191Y-95373866D01*
X31376191Y-95373866D02*
X31471429Y-95326247D01*
X31804763Y-95088152D02*
X32185715Y-95088152D01*
X31947620Y-94754819D02*
X31947620Y-95611961D01*
X31947620Y-95611961D02*
X31995239Y-95707200D01*
X31995239Y-95707200D02*
X32090477Y-95754819D01*
X32090477Y-95754819D02*
X32185715Y-95754819D01*
X33185716Y-95754819D02*
X33709525Y-95088152D01*
X33185716Y-95088152D02*
X33709525Y-95754819D01*
X34090478Y-95231009D02*
X34852383Y-95231009D01*
X34852383Y-95516723D02*
X34090478Y-95516723D01*
X35280954Y-94850057D02*
X35328573Y-94802438D01*
X35328573Y-94802438D02*
X35423811Y-94754819D01*
X35423811Y-94754819D02*
X35661906Y-94754819D01*
X35661906Y-94754819D02*
X35757144Y-94802438D01*
X35757144Y-94802438D02*
X35804763Y-94850057D01*
X35804763Y-94850057D02*
X35852382Y-94945295D01*
X35852382Y-94945295D02*
X35852382Y-95040533D01*
X35852382Y-95040533D02*
X35804763Y-95183390D01*
X35804763Y-95183390D02*
X35233335Y-95754819D01*
X35233335Y-95754819D02*
X35852382Y-95754819D01*
X36757144Y-94754819D02*
X36280954Y-94754819D01*
X36280954Y-94754819D02*
X36233335Y-95231009D01*
X36233335Y-95231009D02*
X36280954Y-95183390D01*
X36280954Y-95183390D02*
X36376192Y-95135771D01*
X36376192Y-95135771D02*
X36614287Y-95135771D01*
X36614287Y-95135771D02*
X36709525Y-95183390D01*
X36709525Y-95183390D02*
X36757144Y-95231009D01*
X36757144Y-95231009D02*
X36804763Y-95326247D01*
X36804763Y-95326247D02*
X36804763Y-95564342D01*
X36804763Y-95564342D02*
X36757144Y-95659580D01*
X36757144Y-95659580D02*
X36709525Y-95707200D01*
X36709525Y-95707200D02*
X36614287Y-95754819D01*
X36614287Y-95754819D02*
X36376192Y-95754819D01*
X36376192Y-95754819D02*
X36280954Y-95707200D01*
X36280954Y-95707200D02*
X36233335Y-95659580D01*
X37233335Y-95659580D02*
X37280954Y-95707200D01*
X37280954Y-95707200D02*
X37233335Y-95754819D01*
X37233335Y-95754819D02*
X37185716Y-95707200D01*
X37185716Y-95707200D02*
X37233335Y-95659580D01*
X37233335Y-95659580D02*
X37233335Y-95754819D01*
X38138096Y-95088152D02*
X38138096Y-95754819D01*
X37900001Y-94707200D02*
X37661906Y-95421485D01*
X37661906Y-95421485D02*
X38280953Y-95421485D01*
X38709525Y-95707200D02*
X38709525Y-95754819D01*
X38709525Y-95754819D02*
X38661906Y-95850057D01*
X38661906Y-95850057D02*
X38614287Y-95897676D01*
X39900001Y-95754819D02*
X39900001Y-95088152D01*
X39900001Y-95278628D02*
X39947620Y-95183390D01*
X39947620Y-95183390D02*
X39995239Y-95135771D01*
X39995239Y-95135771D02*
X40090477Y-95088152D01*
X40090477Y-95088152D02*
X40185715Y-95088152D01*
X40661906Y-95754819D02*
X40566668Y-95707200D01*
X40566668Y-95707200D02*
X40519049Y-95659580D01*
X40519049Y-95659580D02*
X40471430Y-95564342D01*
X40471430Y-95564342D02*
X40471430Y-95278628D01*
X40471430Y-95278628D02*
X40519049Y-95183390D01*
X40519049Y-95183390D02*
X40566668Y-95135771D01*
X40566668Y-95135771D02*
X40661906Y-95088152D01*
X40661906Y-95088152D02*
X40804763Y-95088152D01*
X40804763Y-95088152D02*
X40900001Y-95135771D01*
X40900001Y-95135771D02*
X40947620Y-95183390D01*
X40947620Y-95183390D02*
X40995239Y-95278628D01*
X40995239Y-95278628D02*
X40995239Y-95564342D01*
X40995239Y-95564342D02*
X40947620Y-95659580D01*
X40947620Y-95659580D02*
X40900001Y-95707200D01*
X40900001Y-95707200D02*
X40804763Y-95754819D01*
X40804763Y-95754819D02*
X40661906Y-95754819D01*
X41852382Y-95088152D02*
X41852382Y-95754819D01*
X41423811Y-95088152D02*
X41423811Y-95611961D01*
X41423811Y-95611961D02*
X41471430Y-95707200D01*
X41471430Y-95707200D02*
X41566668Y-95754819D01*
X41566668Y-95754819D02*
X41709525Y-95754819D01*
X41709525Y-95754819D02*
X41804763Y-95707200D01*
X41804763Y-95707200D02*
X41852382Y-95659580D01*
X42185716Y-95088152D02*
X42566668Y-95088152D01*
X42328573Y-94754819D02*
X42328573Y-95611961D01*
X42328573Y-95611961D02*
X42376192Y-95707200D01*
X42376192Y-95707200D02*
X42471430Y-95754819D01*
X42471430Y-95754819D02*
X42566668Y-95754819D01*
X44090478Y-95754819D02*
X44090478Y-95231009D01*
X44090478Y-95231009D02*
X44042859Y-95135771D01*
X44042859Y-95135771D02*
X43947621Y-95088152D01*
X43947621Y-95088152D02*
X43757145Y-95088152D01*
X43757145Y-95088152D02*
X43661907Y-95135771D01*
X44090478Y-95707200D02*
X43995240Y-95754819D01*
X43995240Y-95754819D02*
X43757145Y-95754819D01*
X43757145Y-95754819D02*
X43661907Y-95707200D01*
X43661907Y-95707200D02*
X43614288Y-95611961D01*
X43614288Y-95611961D02*
X43614288Y-95516723D01*
X43614288Y-95516723D02*
X43661907Y-95421485D01*
X43661907Y-95421485D02*
X43757145Y-95373866D01*
X43757145Y-95373866D02*
X43995240Y-95373866D01*
X43995240Y-95373866D02*
X44090478Y-95326247D01*
X44423812Y-95088152D02*
X44804764Y-95088152D01*
X44566669Y-94754819D02*
X44566669Y-95611961D01*
X44566669Y-95611961D02*
X44614288Y-95707200D01*
X44614288Y-95707200D02*
X44709526Y-95754819D01*
X44709526Y-95754819D02*
X44804764Y-95754819D01*
X46328574Y-95754819D02*
X46328574Y-94754819D01*
X46328574Y-95707200D02*
X46233336Y-95754819D01*
X46233336Y-95754819D02*
X46042860Y-95754819D01*
X46042860Y-95754819D02*
X45947622Y-95707200D01*
X45947622Y-95707200D02*
X45900003Y-95659580D01*
X45900003Y-95659580D02*
X45852384Y-95564342D01*
X45852384Y-95564342D02*
X45852384Y-95278628D01*
X45852384Y-95278628D02*
X45900003Y-95183390D01*
X45900003Y-95183390D02*
X45947622Y-95135771D01*
X45947622Y-95135771D02*
X46042860Y-95088152D01*
X46042860Y-95088152D02*
X46233336Y-95088152D01*
X46233336Y-95088152D02*
X46328574Y-95135771D01*
X47185717Y-95707200D02*
X47090479Y-95754819D01*
X47090479Y-95754819D02*
X46900003Y-95754819D01*
X46900003Y-95754819D02*
X46804765Y-95707200D01*
X46804765Y-95707200D02*
X46757146Y-95611961D01*
X46757146Y-95611961D02*
X46757146Y-95231009D01*
X46757146Y-95231009D02*
X46804765Y-95135771D01*
X46804765Y-95135771D02*
X46900003Y-95088152D01*
X46900003Y-95088152D02*
X47090479Y-95088152D01*
X47090479Y-95088152D02*
X47185717Y-95135771D01*
X47185717Y-95135771D02*
X47233336Y-95231009D01*
X47233336Y-95231009D02*
X47233336Y-95326247D01*
X47233336Y-95326247D02*
X46757146Y-95421485D01*
X47661908Y-95088152D02*
X47661908Y-96088152D01*
X47661908Y-95135771D02*
X47757146Y-95088152D01*
X47757146Y-95088152D02*
X47947622Y-95088152D01*
X47947622Y-95088152D02*
X48042860Y-95135771D01*
X48042860Y-95135771D02*
X48090479Y-95183390D01*
X48090479Y-95183390D02*
X48138098Y-95278628D01*
X48138098Y-95278628D02*
X48138098Y-95564342D01*
X48138098Y-95564342D02*
X48090479Y-95659580D01*
X48090479Y-95659580D02*
X48042860Y-95707200D01*
X48042860Y-95707200D02*
X47947622Y-95754819D01*
X47947622Y-95754819D02*
X47757146Y-95754819D01*
X47757146Y-95754819D02*
X47661908Y-95707200D01*
X48995241Y-95754819D02*
X48995241Y-95231009D01*
X48995241Y-95231009D02*
X48947622Y-95135771D01*
X48947622Y-95135771D02*
X48852384Y-95088152D01*
X48852384Y-95088152D02*
X48661908Y-95088152D01*
X48661908Y-95088152D02*
X48566670Y-95135771D01*
X48995241Y-95707200D02*
X48900003Y-95754819D01*
X48900003Y-95754819D02*
X48661908Y-95754819D01*
X48661908Y-95754819D02*
X48566670Y-95707200D01*
X48566670Y-95707200D02*
X48519051Y-95611961D01*
X48519051Y-95611961D02*
X48519051Y-95516723D01*
X48519051Y-95516723D02*
X48566670Y-95421485D01*
X48566670Y-95421485D02*
X48661908Y-95373866D01*
X48661908Y-95373866D02*
X48900003Y-95373866D01*
X48900003Y-95373866D02*
X48995241Y-95326247D01*
X49471432Y-95088152D02*
X49471432Y-95754819D01*
X49471432Y-95183390D02*
X49519051Y-95135771D01*
X49519051Y-95135771D02*
X49614289Y-95088152D01*
X49614289Y-95088152D02*
X49757146Y-95088152D01*
X49757146Y-95088152D02*
X49852384Y-95135771D01*
X49852384Y-95135771D02*
X49900003Y-95231009D01*
X49900003Y-95231009D02*
X49900003Y-95754819D01*
X50757146Y-95707200D02*
X50661908Y-95754819D01*
X50661908Y-95754819D02*
X50471432Y-95754819D01*
X50471432Y-95754819D02*
X50376194Y-95707200D01*
X50376194Y-95707200D02*
X50328575Y-95611961D01*
X50328575Y-95611961D02*
X50328575Y-95231009D01*
X50328575Y-95231009D02*
X50376194Y-95135771D01*
X50376194Y-95135771D02*
X50471432Y-95088152D01*
X50471432Y-95088152D02*
X50661908Y-95088152D01*
X50661908Y-95088152D02*
X50757146Y-95135771D01*
X50757146Y-95135771D02*
X50804765Y-95231009D01*
X50804765Y-95231009D02*
X50804765Y-95326247D01*
X50804765Y-95326247D02*
X50328575Y-95421485D01*
X51376194Y-95754819D02*
X51280956Y-95707200D01*
X51280956Y-95707200D02*
X51233337Y-95611961D01*
X51233337Y-95611961D02*
X51233337Y-94754819D01*
%TO.C,TC1*%
D11*
X14382500Y-14980000D02*
G75*
G02*
X14217500Y-14980000I-82500J0D01*
G01*
X14217500Y-14980000D02*
G75*
G02*
X14382500Y-14980000I82500J0D01*
G01*
%TD*%
M02*
