M48
; DRILL file KiCad 10.0.5-unknown-202607221313~667fa36054~ubuntu25.10.1 date 2026-08-02T23:45:58
; FORMAT={-:-/ absolute / metric / decimal}
; #@! TF.CreationDate,2026-08-02T23:45:58+00:00
; #@! TF.GenerationSoftware,Kicad,Pcbnew,10.0.5-unknown-202607221313~667fa36054~ubuntu25.10.1
; #@! TF.FileFunction,Plated,1,2,PTH
FMAT,2
METRIC
; #@! TA.AperFunction,Plated,PTH,ViaDrill
T1C0.300
; #@! TA.AperFunction,Plated,PTH,ComponentDrill
T2C2.200
%
G90
G05
T1
X2.977Y-57.521
X3.28Y-30.04
X3.503Y-39.516
X3.781Y-50.728
X3.875Y-55.95
X4.37Y-49.55
X4.545Y-31.545
X4.557Y-43.27
X4.753Y-46.456
X5.175Y-33.875
X5.364Y-47.448
X5.392Y-44.6
X5.802Y-35.827
X5.983Y-53.63
X6.0Y-38.4
X6.22Y-22.5
X6.35Y-41.043
X6.475Y-42.375
X6.51Y-9.17
X6.62Y-37.77
X6.973Y-47.815
X6.979Y-46.969
X7.0Y-8.0
X7.054Y-51.599
X7.4Y-40.125
X7.502Y-41.187
X7.648Y-25.4
X7.65Y-22.5
X7.78Y-39.434
X7.95Y-32.0
X7.95Y-37.065
X8.367Y-50.64
X8.406Y-47.965
X8.889Y-47.273
X8.976Y-52.229
X9.286Y-47.968
X9.325Y-40.4
X10.072Y-42.317
X10.845Y-47.055
X10.91Y-21.2
X10.962Y-48.3
X11.071Y-44.169
X11.175Y-42.225
X11.575Y-39.702
X11.627Y-30.293
X11.875Y-46.553
X11.89Y-11.86
X12.02Y-41.4
X12.272Y-43.297
X12.44Y-13.03
X12.52Y-21.52
X12.613Y-40.296
X13.06Y-47.99
X13.292Y-44.089
X13.8Y-42.45
X14.525Y-47.275
X14.6Y-26.0
X15.291Y-31.709
X15.291Y-33.55
X16.0Y-26.0
X16.025Y-60.95
X16.3Y-26.725
X16.8Y-33.125
X16.8Y-48.65
X20.185Y-47.503
X22.299Y-47.586
X23.0Y-36.0
X24.0Y-48.094
X24.406Y-31.631
X24.41Y-37.41
X24.707Y-49.702
X25.225Y-27.4
X25.8Y-29.0
X26.165Y-49.15
X26.775Y-30.875
X27.25Y-33.55
X27.251Y-49.35
X27.295Y-32.451
X27.65Y-31.775
X27.83Y-47.519
X28.45Y-48.854
X28.922Y-31.308
X28.957Y-48.196
X29.125Y-56.15
X30.047Y-30.298
X31.0Y-34.086
X31.526Y-39.424
X31.575Y-57.35
X32.0Y-33.2
X32.004Y-37.084
X32.5Y-31.926
X33.025Y-57.25
X33.05Y-58.725
X33.25Y-33.203
X33.325Y-47.65
X33.895Y-33.676
X34.125Y-36.5
X34.175Y-35.365
X34.375Y-52.725
X34.592Y-56.532
X35.15Y-36.02
X35.7Y-51.45
X35.733Y-47.69
X36.008Y-34.862
X36.2Y-48.75
X36.275Y-30.725
X39.29Y-65.19
X39.7Y-64.0
X40.97Y-30.1
X42.9Y-38.0
X43.8Y-63.05
X44.07Y-61.78
X44.725Y-20.9
X44.75Y-23.0
X45.4Y-70.14
X46.16Y-22.12
X46.334Y-13.232
X46.5Y-69.5
X46.696Y-19.635
T2
X3.0Y-3.0
X3.0Y-28.5
X3.0Y-60.4
X3.0Y-85.9
X47.8Y-3.0
X47.8Y-28.5
X47.8Y-60.4
X47.8Y-85.9
M30
