%TF.GenerationSoftware,KiCad,Pcbnew,10.0.5-unknown-202607221313~667fa36054~ubuntu25.10.1*%
%TF.CreationDate,2026-08-03T18:55:17+00:00*%
%TF.ProjectId,solar-glow-drh-v4_0-panel,736f6c61-722d-4676-9c6f-772d6472682d,rev?*%
%TF.SameCoordinates,Original*%
%TF.FileFunction,Profile,NP*%
%FSLAX46Y46*%
G04 Gerber Fmt 4.6, Leading zero omitted, Abs format (unit mm)*
G04 Created by KiCad (PCBNEW 10.0.5-unknown-202607221313~667fa36054~ubuntu25.10.1) date 2026-08-03 18:55:17*
%MOMM*%
%LPD*%
G01*
G04 APERTURE LIST*
%TA.AperFunction,Profile*%
%ADD10C,0.100000*%
%TD*%
G04 APERTURE END LIST*
D10*
X58200000Y7400000D02*
X58200000Y-96300000D01*
X58200000Y-96300000D02*
X-7400000Y-96300000D01*
X-7400000Y-96300000D02*
X-7400000Y7400000D01*
X-7400000Y7400000D02*
X58200000Y7400000D01*
X-2400000Y-85900000D02*
X-2398169Y-85993726D01*
X-2398169Y-85993726D02*
X-2388969Y-86229126D01*
X-2388969Y-86229126D02*
X-2374145Y-86417652D01*
X-2374145Y-86417652D02*
X-2346445Y-86651552D01*
X-2346445Y-86651552D02*
X-2316885Y-86838019D01*
X-2316885Y-86838019D02*
X-2270885Y-87069019D01*
X-2270885Y-87069019D02*
X-2227163Y-87251151D01*
X-2227163Y-87251151D02*
X-2163263Y-87477951D01*
X-2163263Y-87477951D02*
X-2104632Y-87658398D01*
X-2104632Y-87658398D02*
X-2023032Y-87879398D01*
X-2023032Y-87879398D02*
X-1951179Y-88052806D01*
X-1951179Y-88052806D02*
X-1852579Y-88266706D01*
X-1852579Y-88266706D02*
X-1766928Y-88434803D01*
X-1766928Y-88434803D02*
X-1651828Y-88640303D01*
X-1651828Y-88640303D02*
X-1553880Y-88800191D01*
X-1553880Y-88800191D02*
X-1423080Y-88996091D01*
X-1423080Y-88996091D02*
X-1311184Y-89150084D01*
X-1311184Y-89150084D02*
X-1165284Y-89334984D01*
X-1165284Y-89334984D02*
X-1043673Y-89477314D01*
X-1043673Y-89477314D02*
X-883773Y-89650314D01*
X-883773Y-89650314D02*
X-750314Y-89783773D01*
X-750314Y-89783773D02*
X-577314Y-89943673D01*
X-577314Y-89943673D02*
X-434984Y-90065284D01*
X-434984Y-90065284D02*
X-250084Y-90211184D01*
X-250084Y-90211184D02*
X-96091Y-90323080D01*
X-96091Y-90323080D02*
X99809Y-90453880D01*
X99809Y-90453880D02*
X259697Y-90551828D01*
X259697Y-90551828D02*
X465197Y-90666928D01*
X465197Y-90666928D02*
X633294Y-90752579D01*
X633294Y-90752579D02*
X847194Y-90851179D01*
X847194Y-90851179D02*
X1020602Y-90923032D01*
X1020602Y-90923032D02*
X1241602Y-91004632D01*
X1241602Y-91004632D02*
X1422049Y-91063263D01*
X1422049Y-91063263D02*
X1648849Y-91127163D01*
X1648849Y-91127163D02*
X1830981Y-91170885D01*
X1830981Y-91170885D02*
X2061981Y-91216885D01*
X2061981Y-91216885D02*
X2248448Y-91246445D01*
X2248448Y-91246445D02*
X2482348Y-91274145D01*
X2482348Y-91274145D02*
X2670874Y-91288969D01*
X2670874Y-91288969D02*
X2906274Y-91298169D01*
X2906274Y-91298169D02*
X3000000Y-91300000D01*
X3000000Y-91300000D02*
X22900000Y-91300000D01*
X22900000Y-91300000D02*
X22900000Y-88900000D01*
X22900000Y-88900000D02*
X3000000Y-88900000D01*
X3000000Y-88900000D02*
X2764600Y-88890800D01*
X2764600Y-88890800D02*
X2530700Y-88863100D01*
X2530700Y-88863100D02*
X2299700Y-88817100D01*
X2299700Y-88817100D02*
X2072900Y-88753200D01*
X2072900Y-88753200D02*
X1851900Y-88671600D01*
X1851900Y-88671600D02*
X1638000Y-88573000D01*
X1638000Y-88573000D02*
X1432500Y-88457900D01*
X1432500Y-88457900D02*
X1236600Y-88327100D01*
X1236600Y-88327100D02*
X1051700Y-88181200D01*
X1051700Y-88181200D02*
X878700Y-88021300D01*
X878700Y-88021300D02*
X718800Y-87848300D01*
X718800Y-87848300D02*
X572900Y-87663400D01*
X572900Y-87663400D02*
X442100Y-87467500D01*
X442100Y-87467500D02*
X327000Y-87262000D01*
X327000Y-87262000D02*
X228400Y-87048100D01*
X228400Y-87048100D02*
X146800Y-86827100D01*
X146800Y-86827100D02*
X82900Y-86600300D01*
X82900Y-86600300D02*
X36900Y-86369300D01*
X36900Y-86369300D02*
X9200Y-86135400D01*
X9200Y-86135400D02*
X0Y-85900000D01*
X0Y-85900000D02*
X0Y-3000000D01*
X0Y-3000000D02*
X9200Y-2764600D01*
X9200Y-2764600D02*
X36900Y-2530700D01*
X36900Y-2530700D02*
X82900Y-2299700D01*
X82900Y-2299700D02*
X146800Y-2072900D01*
X146800Y-2072900D02*
X228400Y-1851900D01*
X228400Y-1851900D02*
X327000Y-1638000D01*
X327000Y-1638000D02*
X442100Y-1432500D01*
X442100Y-1432500D02*
X572900Y-1236600D01*
X572900Y-1236600D02*
X718800Y-1051700D01*
X718800Y-1051700D02*
X878700Y-878700D01*
X878700Y-878700D02*
X1051700Y-718800D01*
X1051700Y-718800D02*
X1236600Y-572900D01*
X1236600Y-572900D02*
X1432500Y-442100D01*
X1432500Y-442100D02*
X1638000Y-327000D01*
X1638000Y-327000D02*
X1851900Y-228400D01*
X1851900Y-228400D02*
X2072900Y-146800D01*
X2072900Y-146800D02*
X2299700Y-82900D01*
X2299700Y-82900D02*
X2530700Y-36900D01*
X2530700Y-36900D02*
X2764600Y-9200D01*
X2764600Y-9200D02*
X3000000Y0D01*
X3000000Y0D02*
X22900000Y0D01*
X22900000Y0D02*
X22900000Y2400000D01*
X22900000Y2400000D02*
X3000000Y2400000D01*
X3000000Y2400000D02*
X2906274Y2398169D01*
X2906274Y2398169D02*
X2670874Y2388969D01*
X2670874Y2388969D02*
X2482348Y2374145D01*
X2482348Y2374145D02*
X2248448Y2346445D01*
X2248448Y2346445D02*
X2061981Y2316885D01*
X2061981Y2316885D02*
X1830981Y2270885D01*
X1830981Y2270885D02*
X1648849Y2227163D01*
X1648849Y2227163D02*
X1422049Y2163263D01*
X1422049Y2163263D02*
X1241602Y2104632D01*
X1241602Y2104632D02*
X1020602Y2023032D01*
X1020602Y2023032D02*
X847194Y1951179D01*
X847194Y1951179D02*
X633294Y1852579D01*
X633294Y1852579D02*
X465197Y1766928D01*
X465197Y1766928D02*
X259697Y1651828D01*
X259697Y1651828D02*
X99809Y1553880D01*
X99809Y1553880D02*
X-96091Y1423080D01*
X-96091Y1423080D02*
X-250084Y1311184D01*
X-250084Y1311184D02*
X-434984Y1165284D01*
X-434984Y1165284D02*
X-577314Y1043673D01*
X-577314Y1043673D02*
X-750314Y883773D01*
X-750314Y883773D02*
X-883773Y750314D01*
X-883773Y750314D02*
X-1043673Y577314D01*
X-1043673Y577314D02*
X-1165284Y434984D01*
X-1165284Y434984D02*
X-1311184Y250084D01*
X-1311184Y250084D02*
X-1423080Y96091D01*
X-1423080Y96091D02*
X-1553880Y-99809D01*
X-1553880Y-99809D02*
X-1651828Y-259697D01*
X-1651828Y-259697D02*
X-1766928Y-465197D01*
X-1766928Y-465197D02*
X-1852579Y-633294D01*
X-1852579Y-633294D02*
X-1951179Y-847194D01*
X-1951179Y-847194D02*
X-2023032Y-1020602D01*
X-2023032Y-1020602D02*
X-2104632Y-1241602D01*
X-2104632Y-1241602D02*
X-2163263Y-1422049D01*
X-2163263Y-1422049D02*
X-2227163Y-1648849D01*
X-2227163Y-1648849D02*
X-2270885Y-1830981D01*
X-2270885Y-1830981D02*
X-2316885Y-2061981D01*
X-2316885Y-2061981D02*
X-2346445Y-2248448D01*
X-2346445Y-2248448D02*
X-2374145Y-2482348D01*
X-2374145Y-2482348D02*
X-2388969Y-2670874D01*
X-2388969Y-2670874D02*
X-2398169Y-2906274D01*
X-2398169Y-2906274D02*
X-2400000Y-3000000D01*
X-2400000Y-3000000D02*
X-2400000Y-85900000D01*
X47800000Y-91300000D02*
X47893726Y-91298169D01*
X47893726Y-91298169D02*
X48129126Y-91288969D01*
X48129126Y-91288969D02*
X48317652Y-91274145D01*
X48317652Y-91274145D02*
X48551552Y-91246445D01*
X48551552Y-91246445D02*
X48738019Y-91216885D01*
X48738019Y-91216885D02*
X48969019Y-91170885D01*
X48969019Y-91170885D02*
X49151151Y-91127163D01*
X49151151Y-91127163D02*
X49377951Y-91063263D01*
X49377951Y-91063263D02*
X49558398Y-91004632D01*
X49558398Y-91004632D02*
X49779398Y-90923032D01*
X49779398Y-90923032D02*
X49952806Y-90851179D01*
X49952806Y-90851179D02*
X50166706Y-90752579D01*
X50166706Y-90752579D02*
X50334803Y-90666928D01*
X50334803Y-90666928D02*
X50540303Y-90551828D01*
X50540303Y-90551828D02*
X50700191Y-90453880D01*
X50700191Y-90453880D02*
X50896091Y-90323080D01*
X50896091Y-90323080D02*
X51050084Y-90211184D01*
X51050084Y-90211184D02*
X51234984Y-90065284D01*
X51234984Y-90065284D02*
X51377314Y-89943673D01*
X51377314Y-89943673D02*
X51550314Y-89783773D01*
X51550314Y-89783773D02*
X51683773Y-89650314D01*
X51683773Y-89650314D02*
X51843673Y-89477314D01*
X51843673Y-89477314D02*
X51965284Y-89334984D01*
X51965284Y-89334984D02*
X52111184Y-89150084D01*
X52111184Y-89150084D02*
X52223080Y-88996091D01*
X52223080Y-88996091D02*
X52353880Y-88800191D01*
X52353880Y-88800191D02*
X52451828Y-88640303D01*
X52451828Y-88640303D02*
X52566928Y-88434803D01*
X52566928Y-88434803D02*
X52652579Y-88266706D01*
X52652579Y-88266706D02*
X52751179Y-88052806D01*
X52751179Y-88052806D02*
X52823032Y-87879398D01*
X52823032Y-87879398D02*
X52904632Y-87658398D01*
X52904632Y-87658398D02*
X52963263Y-87477951D01*
X52963263Y-87477951D02*
X53027163Y-87251151D01*
X53027163Y-87251151D02*
X53070885Y-87069019D01*
X53070885Y-87069019D02*
X53116885Y-86838019D01*
X53116885Y-86838019D02*
X53146445Y-86651552D01*
X53146445Y-86651552D02*
X53174145Y-86417652D01*
X53174145Y-86417652D02*
X53188969Y-86229126D01*
X53188969Y-86229126D02*
X53198169Y-85993726D01*
X53198169Y-85993726D02*
X53200000Y-85900000D01*
X53200000Y-85900000D02*
X53200000Y-3000000D01*
X53200000Y-3000000D02*
X53198169Y-2906274D01*
X53198169Y-2906274D02*
X53188969Y-2670874D01*
X53188969Y-2670874D02*
X53174145Y-2482348D01*
X53174145Y-2482348D02*
X53146445Y-2248448D01*
X53146445Y-2248448D02*
X53116885Y-2061981D01*
X53116885Y-2061981D02*
X53070885Y-1830981D01*
X53070885Y-1830981D02*
X53027163Y-1648849D01*
X53027163Y-1648849D02*
X52963263Y-1422049D01*
X52963263Y-1422049D02*
X52904632Y-1241602D01*
X52904632Y-1241602D02*
X52823032Y-1020602D01*
X52823032Y-1020602D02*
X52751179Y-847194D01*
X52751179Y-847194D02*
X52652579Y-633294D01*
X52652579Y-633294D02*
X52566928Y-465197D01*
X52566928Y-465197D02*
X52451828Y-259697D01*
X52451828Y-259697D02*
X52353880Y-99809D01*
X52353880Y-99809D02*
X52223080Y96091D01*
X52223080Y96091D02*
X52111184Y250084D01*
X52111184Y250084D02*
X51965284Y434984D01*
X51965284Y434984D02*
X51843673Y577314D01*
X51843673Y577314D02*
X51683773Y750314D01*
X51683773Y750314D02*
X51550314Y883773D01*
X51550314Y883773D02*
X51377314Y1043673D01*
X51377314Y1043673D02*
X51234984Y1165284D01*
X51234984Y1165284D02*
X51050084Y1311184D01*
X51050084Y1311184D02*
X50896091Y1423080D01*
X50896091Y1423080D02*
X50700191Y1553880D01*
X50700191Y1553880D02*
X50540303Y1651828D01*
X50540303Y1651828D02*
X50334803Y1766928D01*
X50334803Y1766928D02*
X50166706Y1852579D01*
X50166706Y1852579D02*
X49952806Y1951179D01*
X49952806Y1951179D02*
X49779398Y2023032D01*
X49779398Y2023032D02*
X49558398Y2104632D01*
X49558398Y2104632D02*
X49377951Y2163263D01*
X49377951Y2163263D02*
X49151151Y2227163D01*
X49151151Y2227163D02*
X48969019Y2270885D01*
X48969019Y2270885D02*
X48738019Y2316885D01*
X48738019Y2316885D02*
X48551552Y2346445D01*
X48551552Y2346445D02*
X48317652Y2374145D01*
X48317652Y2374145D02*
X48129126Y2388969D01*
X48129126Y2388969D02*
X47893726Y2398169D01*
X47893726Y2398169D02*
X47800000Y2400000D01*
X47800000Y2400000D02*
X27900000Y2400000D01*
X27900000Y2400000D02*
X27900000Y0D01*
X27900000Y0D02*
X47800000Y0D01*
X47800000Y0D02*
X48035400Y-9200D01*
X48035400Y-9200D02*
X48269300Y-36900D01*
X48269300Y-36900D02*
X48500300Y-82900D01*
X48500300Y-82900D02*
X48727100Y-146800D01*
X48727100Y-146800D02*
X48948100Y-228400D01*
X48948100Y-228400D02*
X49162000Y-327000D01*
X49162000Y-327000D02*
X49367500Y-442100D01*
X49367500Y-442100D02*
X49563400Y-572900D01*
X49563400Y-572900D02*
X49748300Y-718800D01*
X49748300Y-718800D02*
X49921300Y-878700D01*
X49921300Y-878700D02*
X50081200Y-1051700D01*
X50081200Y-1051700D02*
X50227100Y-1236600D01*
X50227100Y-1236600D02*
X50357900Y-1432500D01*
X50357900Y-1432500D02*
X50473000Y-1638000D01*
X50473000Y-1638000D02*
X50571600Y-1851900D01*
X50571600Y-1851900D02*
X50653200Y-2072900D01*
X50653200Y-2072900D02*
X50717100Y-2299700D01*
X50717100Y-2299700D02*
X50763100Y-2530700D01*
X50763100Y-2530700D02*
X50790800Y-2764600D01*
X50790800Y-2764600D02*
X50800000Y-3000000D01*
X50800000Y-3000000D02*
X50800000Y-85900000D01*
X50800000Y-85900000D02*
X50790800Y-86135400D01*
X50790800Y-86135400D02*
X50763100Y-86369300D01*
X50763100Y-86369300D02*
X50717100Y-86600300D01*
X50717100Y-86600300D02*
X50653200Y-86827100D01*
X50653200Y-86827100D02*
X50571600Y-87048100D01*
X50571600Y-87048100D02*
X50473000Y-87262000D01*
X50473000Y-87262000D02*
X50357900Y-87467500D01*
X50357900Y-87467500D02*
X50227100Y-87663400D01*
X50227100Y-87663400D02*
X50081200Y-87848300D01*
X50081200Y-87848300D02*
X49921300Y-88021300D01*
X49921300Y-88021300D02*
X49748300Y-88181200D01*
X49748300Y-88181200D02*
X49563400Y-88327100D01*
X49563400Y-88327100D02*
X49367500Y-88457900D01*
X49367500Y-88457900D02*
X49162000Y-88573000D01*
X49162000Y-88573000D02*
X48948100Y-88671600D01*
X48948100Y-88671600D02*
X48727100Y-88753200D01*
X48727100Y-88753200D02*
X48500300Y-88817100D01*
X48500300Y-88817100D02*
X48269300Y-88863100D01*
X48269300Y-88863100D02*
X48035400Y-88890800D01*
X48035400Y-88890800D02*
X47800000Y-88900000D01*
X47800000Y-88900000D02*
X27900000Y-88900000D01*
X27900000Y-88900000D02*
X27900000Y-91300000D01*
X27900000Y-91300000D02*
X47800000Y-91300000D01*
M02*
