%TF.GenerationSoftware,KiCad,Pcbnew,10.0.5-unknown-202607221313~667fa36054~ubuntu25.10.1*%
%TF.CreationDate,2026-08-01T03:46:09+00:00*%
%TF.ProjectId,solar-glow-drh-v4_0-panel,736f6c61-722d-4676-9c6f-772d6472682d,rev?*%
%TF.SameCoordinates,Original*%
%TF.FileFunction,Legend,Top*%
%TF.FilePolarity,Positive*%
%FSLAX46Y46*%
G04 Gerber Fmt 4.6, Leading zero omitted, Abs format (unit mm)*
G04 Created by KiCad (PCBNEW 10.0.5-unknown-202607221313~667fa36054~ubuntu25.10.1) date 2026-08-01 03:46:09*
%MOMM*%
%LPD*%
G01*
G04 APERTURE LIST*
%ADD10C,0.150000*%
%ADD11C,0.165000*%
G04 APERTURE END LIST*
D10*
X7685713Y2992800D02*
X7828570Y2945180D01*
X7828570Y2945180D02*
X8066665Y2945180D01*
X8066665Y2945180D02*
X8161903Y2992800D01*
X8161903Y2992800D02*
X8209522Y3040419D01*
X8209522Y3040419D02*
X8257141Y3135657D01*
X8257141Y3135657D02*
X8257141Y3230895D01*
X8257141Y3230895D02*
X8209522Y3326133D01*
X8209522Y3326133D02*
X8161903Y3373752D01*
X8161903Y3373752D02*
X8066665Y3421371D01*
X8066665Y3421371D02*
X7876189Y3468990D01*
X7876189Y3468990D02*
X7780951Y3516609D01*
X7780951Y3516609D02*
X7733332Y3564228D01*
X7733332Y3564228D02*
X7685713Y3659466D01*
X7685713Y3659466D02*
X7685713Y3754704D01*
X7685713Y3754704D02*
X7733332Y3849942D01*
X7733332Y3849942D02*
X7780951Y3897561D01*
X7780951Y3897561D02*
X7876189Y3945180D01*
X7876189Y3945180D02*
X8114284Y3945180D01*
X8114284Y3945180D02*
X8257141Y3897561D01*
X8876189Y3945180D02*
X9066665Y3945180D01*
X9066665Y3945180D02*
X9161903Y3897561D01*
X9161903Y3897561D02*
X9257141Y3802323D01*
X9257141Y3802323D02*
X9304760Y3611847D01*
X9304760Y3611847D02*
X9304760Y3278514D01*
X9304760Y3278514D02*
X9257141Y3088038D01*
X9257141Y3088038D02*
X9161903Y2992800D01*
X9161903Y2992800D02*
X9066665Y2945180D01*
X9066665Y2945180D02*
X8876189Y2945180D01*
X8876189Y2945180D02*
X8780951Y2992800D01*
X8780951Y2992800D02*
X8685713Y3088038D01*
X8685713Y3088038D02*
X8638094Y3278514D01*
X8638094Y3278514D02*
X8638094Y3611847D01*
X8638094Y3611847D02*
X8685713Y3802323D01*
X8685713Y3802323D02*
X8780951Y3897561D01*
X8780951Y3897561D02*
X8876189Y3945180D01*
X10209522Y2945180D02*
X9733332Y2945180D01*
X9733332Y2945180D02*
X9733332Y3945180D01*
X10495237Y3230895D02*
X10971427Y3230895D01*
X10399999Y2945180D02*
X10733332Y3945180D01*
X10733332Y3945180D02*
X11066665Y2945180D01*
X11971427Y2945180D02*
X11638094Y3421371D01*
X11399999Y2945180D02*
X11399999Y3945180D01*
X11399999Y3945180D02*
X11780951Y3945180D01*
X11780951Y3945180D02*
X11876189Y3897561D01*
X11876189Y3897561D02*
X11923808Y3849942D01*
X11923808Y3849942D02*
X11971427Y3754704D01*
X11971427Y3754704D02*
X11971427Y3611847D01*
X11971427Y3611847D02*
X11923808Y3516609D01*
X11923808Y3516609D02*
X11876189Y3468990D01*
X11876189Y3468990D02*
X11780951Y3421371D01*
X11780951Y3421371D02*
X11399999Y3421371D01*
X12399999Y3326133D02*
X13161904Y3326133D01*
X14161903Y3897561D02*
X14066665Y3945180D01*
X14066665Y3945180D02*
X13923808Y3945180D01*
X13923808Y3945180D02*
X13780951Y3897561D01*
X13780951Y3897561D02*
X13685713Y3802323D01*
X13685713Y3802323D02*
X13638094Y3707085D01*
X13638094Y3707085D02*
X13590475Y3516609D01*
X13590475Y3516609D02*
X13590475Y3373752D01*
X13590475Y3373752D02*
X13638094Y3183276D01*
X13638094Y3183276D02*
X13685713Y3088038D01*
X13685713Y3088038D02*
X13780951Y2992800D01*
X13780951Y2992800D02*
X13923808Y2945180D01*
X13923808Y2945180D02*
X14019046Y2945180D01*
X14019046Y2945180D02*
X14161903Y2992800D01*
X14161903Y2992800D02*
X14209522Y3040419D01*
X14209522Y3040419D02*
X14209522Y3373752D01*
X14209522Y3373752D02*
X14019046Y3373752D01*
X15114284Y2945180D02*
X14638094Y2945180D01*
X14638094Y2945180D02*
X14638094Y3945180D01*
X15638094Y3945180D02*
X15828570Y3945180D01*
X15828570Y3945180D02*
X15923808Y3897561D01*
X15923808Y3897561D02*
X16019046Y3802323D01*
X16019046Y3802323D02*
X16066665Y3611847D01*
X16066665Y3611847D02*
X16066665Y3278514D01*
X16066665Y3278514D02*
X16019046Y3088038D01*
X16019046Y3088038D02*
X15923808Y2992800D01*
X15923808Y2992800D02*
X15828570Y2945180D01*
X15828570Y2945180D02*
X15638094Y2945180D01*
X15638094Y2945180D02*
X15542856Y2992800D01*
X15542856Y2992800D02*
X15447618Y3088038D01*
X15447618Y3088038D02*
X15399999Y3278514D01*
X15399999Y3278514D02*
X15399999Y3611847D01*
X15399999Y3611847D02*
X15447618Y3802323D01*
X15447618Y3802323D02*
X15542856Y3897561D01*
X15542856Y3897561D02*
X15638094Y3945180D01*
X16399999Y3945180D02*
X16638094Y2945180D01*
X16638094Y2945180D02*
X16828570Y3659466D01*
X16828570Y3659466D02*
X17019046Y2945180D01*
X17019046Y2945180D02*
X17257142Y3945180D01*
X18399999Y2945180D02*
X18399999Y3945180D01*
X18399999Y3945180D02*
X18638094Y3945180D01*
X18638094Y3945180D02*
X18780951Y3897561D01*
X18780951Y3897561D02*
X18876189Y3802323D01*
X18876189Y3802323D02*
X18923808Y3707085D01*
X18923808Y3707085D02*
X18971427Y3516609D01*
X18971427Y3516609D02*
X18971427Y3373752D01*
X18971427Y3373752D02*
X18923808Y3183276D01*
X18923808Y3183276D02*
X18876189Y3088038D01*
X18876189Y3088038D02*
X18780951Y2992800D01*
X18780951Y2992800D02*
X18638094Y2945180D01*
X18638094Y2945180D02*
X18399999Y2945180D01*
X19971427Y2945180D02*
X19638094Y3421371D01*
X19399999Y2945180D02*
X19399999Y3945180D01*
X19399999Y3945180D02*
X19780951Y3945180D01*
X19780951Y3945180D02*
X19876189Y3897561D01*
X19876189Y3897561D02*
X19923808Y3849942D01*
X19923808Y3849942D02*
X19971427Y3754704D01*
X19971427Y3754704D02*
X19971427Y3611847D01*
X19971427Y3611847D02*
X19923808Y3516609D01*
X19923808Y3516609D02*
X19876189Y3468990D01*
X19876189Y3468990D02*
X19780951Y3421371D01*
X19780951Y3421371D02*
X19399999Y3421371D01*
X20399999Y2945180D02*
X20399999Y3945180D01*
X20399999Y3468990D02*
X20971427Y3468990D01*
X20971427Y2945180D02*
X20971427Y3945180D01*
X22114285Y3611847D02*
X22352380Y2945180D01*
X22352380Y2945180D02*
X22590475Y3611847D01*
X23399999Y3611847D02*
X23399999Y2945180D01*
X23161904Y3992800D02*
X22923809Y3278514D01*
X22923809Y3278514D02*
X23542856Y3278514D01*
X23923809Y3040419D02*
X23971428Y2992800D01*
X23971428Y2992800D02*
X23923809Y2945180D01*
X23923809Y2945180D02*
X23876190Y2992800D01*
X23876190Y2992800D02*
X23923809Y3040419D01*
X23923809Y3040419D02*
X23923809Y2945180D01*
X24590475Y3945180D02*
X24685713Y3945180D01*
X24685713Y3945180D02*
X24780951Y3897561D01*
X24780951Y3897561D02*
X24828570Y3849942D01*
X24828570Y3849942D02*
X24876189Y3754704D01*
X24876189Y3754704D02*
X24923808Y3564228D01*
X24923808Y3564228D02*
X24923808Y3326133D01*
X24923808Y3326133D02*
X24876189Y3135657D01*
X24876189Y3135657D02*
X24828570Y3040419D01*
X24828570Y3040419D02*
X24780951Y2992800D01*
X24780951Y2992800D02*
X24685713Y2945180D01*
X24685713Y2945180D02*
X24590475Y2945180D01*
X24590475Y2945180D02*
X24495237Y2992800D01*
X24495237Y2992800D02*
X24447618Y3040419D01*
X24447618Y3040419D02*
X24399999Y3135657D01*
X24399999Y3135657D02*
X24352380Y3326133D01*
X24352380Y3326133D02*
X24352380Y3564228D01*
X24352380Y3564228D02*
X24399999Y3754704D01*
X24399999Y3754704D02*
X24447618Y3849942D01*
X24447618Y3849942D02*
X24495237Y3897561D01*
X24495237Y3897561D02*
X24590475Y3945180D01*
X26114285Y3326133D02*
X26876190Y3326133D01*
X28114285Y2945180D02*
X28114285Y3945180D01*
X28114285Y3945180D02*
X28495237Y3945180D01*
X28495237Y3945180D02*
X28590475Y3897561D01*
X28590475Y3897561D02*
X28638094Y3849942D01*
X28638094Y3849942D02*
X28685713Y3754704D01*
X28685713Y3754704D02*
X28685713Y3611847D01*
X28685713Y3611847D02*
X28638094Y3516609D01*
X28638094Y3516609D02*
X28590475Y3468990D01*
X28590475Y3468990D02*
X28495237Y3421371D01*
X28495237Y3421371D02*
X28114285Y3421371D01*
X29685713Y3040419D02*
X29638094Y2992800D01*
X29638094Y2992800D02*
X29495237Y2945180D01*
X29495237Y2945180D02*
X29399999Y2945180D01*
X29399999Y2945180D02*
X29257142Y2992800D01*
X29257142Y2992800D02*
X29161904Y3088038D01*
X29161904Y3088038D02*
X29114285Y3183276D01*
X29114285Y3183276D02*
X29066666Y3373752D01*
X29066666Y3373752D02*
X29066666Y3516609D01*
X29066666Y3516609D02*
X29114285Y3707085D01*
X29114285Y3707085D02*
X29161904Y3802323D01*
X29161904Y3802323D02*
X29257142Y3897561D01*
X29257142Y3897561D02*
X29399999Y3945180D01*
X29399999Y3945180D02*
X29495237Y3945180D01*
X29495237Y3945180D02*
X29638094Y3897561D01*
X29638094Y3897561D02*
X29685713Y3849942D01*
X30447618Y3468990D02*
X30590475Y3421371D01*
X30590475Y3421371D02*
X30638094Y3373752D01*
X30638094Y3373752D02*
X30685713Y3278514D01*
X30685713Y3278514D02*
X30685713Y3135657D01*
X30685713Y3135657D02*
X30638094Y3040419D01*
X30638094Y3040419D02*
X30590475Y2992800D01*
X30590475Y2992800D02*
X30495237Y2945180D01*
X30495237Y2945180D02*
X30114285Y2945180D01*
X30114285Y2945180D02*
X30114285Y3945180D01*
X30114285Y3945180D02*
X30447618Y3945180D01*
X30447618Y3945180D02*
X30542856Y3897561D01*
X30542856Y3897561D02*
X30590475Y3849942D01*
X30590475Y3849942D02*
X30638094Y3754704D01*
X30638094Y3754704D02*
X30638094Y3659466D01*
X30638094Y3659466D02*
X30590475Y3564228D01*
X30590475Y3564228D02*
X30542856Y3516609D01*
X30542856Y3516609D02*
X30447618Y3468990D01*
X30447618Y3468990D02*
X30114285Y3468990D01*
X31019047Y3945180D02*
X31257142Y2945180D01*
X31257142Y2945180D02*
X31447618Y3659466D01*
X31447618Y3659466D02*
X31638094Y2945180D01*
X31638094Y2945180D02*
X31876190Y3945180D01*
X32685713Y2945180D02*
X32685713Y3468990D01*
X32685713Y3468990D02*
X32638094Y3564228D01*
X32638094Y3564228D02*
X32542856Y3611847D01*
X32542856Y3611847D02*
X32352380Y3611847D01*
X32352380Y3611847D02*
X32257142Y3564228D01*
X32685713Y2992800D02*
X32590475Y2945180D01*
X32590475Y2945180D02*
X32352380Y2945180D01*
X32352380Y2945180D02*
X32257142Y2992800D01*
X32257142Y2992800D02*
X32209523Y3088038D01*
X32209523Y3088038D02*
X32209523Y3183276D01*
X32209523Y3183276D02*
X32257142Y3278514D01*
X32257142Y3278514D02*
X32352380Y3326133D01*
X32352380Y3326133D02*
X32590475Y3326133D01*
X32590475Y3326133D02*
X32685713Y3373752D01*
X33066666Y3611847D02*
X33304761Y2945180D01*
X33542856Y3611847D02*
X33304761Y2945180D01*
X33304761Y2945180D02*
X33209523Y2707085D01*
X33209523Y2707085D02*
X33161904Y2659466D01*
X33161904Y2659466D02*
X33066666Y2611847D01*
X35209523Y2945180D02*
X34638095Y2945180D01*
X34923809Y2945180D02*
X34923809Y3945180D01*
X34923809Y3945180D02*
X34828571Y3802323D01*
X34828571Y3802323D02*
X34733333Y3707085D01*
X34733333Y3707085D02*
X34638095Y3659466D01*
X35638095Y3326133D02*
X36400000Y3326133D01*
X37304761Y3611847D02*
X37304761Y2945180D01*
X36876190Y3611847D02*
X36876190Y3088038D01*
X36876190Y3088038D02*
X36923809Y2992800D01*
X36923809Y2992800D02*
X37019047Y2945180D01*
X37019047Y2945180D02*
X37161904Y2945180D01*
X37161904Y2945180D02*
X37257142Y2992800D01*
X37257142Y2992800D02*
X37304761Y3040419D01*
X37780952Y3611847D02*
X37780952Y2611847D01*
X37780952Y3564228D02*
X37876190Y3611847D01*
X37876190Y3611847D02*
X38066666Y3611847D01*
X38066666Y3611847D02*
X38161904Y3564228D01*
X38161904Y3564228D02*
X38209523Y3516609D01*
X38209523Y3516609D02*
X38257142Y3421371D01*
X38257142Y3421371D02*
X38257142Y3135657D01*
X38257142Y3135657D02*
X38209523Y3040419D01*
X38209523Y3040419D02*
X38161904Y2992800D01*
X38161904Y2992800D02*
X38066666Y2945180D01*
X38066666Y2945180D02*
X37876190Y2945180D01*
X37876190Y2945180D02*
X37780952Y2992800D01*
X39447619Y3611847D02*
X39447619Y2611847D01*
X39447619Y3564228D02*
X39542857Y3611847D01*
X39542857Y3611847D02*
X39733333Y3611847D01*
X39733333Y3611847D02*
X39828571Y3564228D01*
X39828571Y3564228D02*
X39876190Y3516609D01*
X39876190Y3516609D02*
X39923809Y3421371D01*
X39923809Y3421371D02*
X39923809Y3135657D01*
X39923809Y3135657D02*
X39876190Y3040419D01*
X39876190Y3040419D02*
X39828571Y2992800D01*
X39828571Y2992800D02*
X39733333Y2945180D01*
X39733333Y2945180D02*
X39542857Y2945180D01*
X39542857Y2945180D02*
X39447619Y2992800D01*
X40780952Y2945180D02*
X40780952Y3468990D01*
X40780952Y3468990D02*
X40733333Y3564228D01*
X40733333Y3564228D02*
X40638095Y3611847D01*
X40638095Y3611847D02*
X40447619Y3611847D01*
X40447619Y3611847D02*
X40352381Y3564228D01*
X40780952Y2992800D02*
X40685714Y2945180D01*
X40685714Y2945180D02*
X40447619Y2945180D01*
X40447619Y2945180D02*
X40352381Y2992800D01*
X40352381Y2992800D02*
X40304762Y3088038D01*
X40304762Y3088038D02*
X40304762Y3183276D01*
X40304762Y3183276D02*
X40352381Y3278514D01*
X40352381Y3278514D02*
X40447619Y3326133D01*
X40447619Y3326133D02*
X40685714Y3326133D01*
X40685714Y3326133D02*
X40780952Y3373752D01*
X41257143Y3611847D02*
X41257143Y2945180D01*
X41257143Y3516609D02*
X41304762Y3564228D01*
X41304762Y3564228D02*
X41400000Y3611847D01*
X41400000Y3611847D02*
X41542857Y3611847D01*
X41542857Y3611847D02*
X41638095Y3564228D01*
X41638095Y3564228D02*
X41685714Y3468990D01*
X41685714Y3468990D02*
X41685714Y2945180D01*
X42542857Y2992800D02*
X42447619Y2945180D01*
X42447619Y2945180D02*
X42257143Y2945180D01*
X42257143Y2945180D02*
X42161905Y2992800D01*
X42161905Y2992800D02*
X42114286Y3088038D01*
X42114286Y3088038D02*
X42114286Y3468990D01*
X42114286Y3468990D02*
X42161905Y3564228D01*
X42161905Y3564228D02*
X42257143Y3611847D01*
X42257143Y3611847D02*
X42447619Y3611847D01*
X42447619Y3611847D02*
X42542857Y3564228D01*
X42542857Y3564228D02*
X42590476Y3468990D01*
X42590476Y3468990D02*
X42590476Y3373752D01*
X42590476Y3373752D02*
X42114286Y3278514D01*
X43161905Y2945180D02*
X43066667Y2992800D01*
X43066667Y2992800D02*
X43019048Y3088038D01*
X43019048Y3088038D02*
X43019048Y3945180D01*
X4542853Y6897561D02*
X4447615Y6945180D01*
X4447615Y6945180D02*
X4304758Y6945180D01*
X4304758Y6945180D02*
X4161901Y6897561D01*
X4161901Y6897561D02*
X4066663Y6802323D01*
X4066663Y6802323D02*
X4019044Y6707085D01*
X4019044Y6707085D02*
X3971425Y6516609D01*
X3971425Y6516609D02*
X3971425Y6373752D01*
X3971425Y6373752D02*
X4019044Y6183276D01*
X4019044Y6183276D02*
X4066663Y6088038D01*
X4066663Y6088038D02*
X4161901Y5992800D01*
X4161901Y5992800D02*
X4304758Y5945180D01*
X4304758Y5945180D02*
X4399996Y5945180D01*
X4399996Y5945180D02*
X4542853Y5992800D01*
X4542853Y5992800D02*
X4590472Y6040419D01*
X4590472Y6040419D02*
X4590472Y6373752D01*
X4590472Y6373752D02*
X4399996Y6373752D01*
X5399996Y5992800D02*
X5304758Y5945180D01*
X5304758Y5945180D02*
X5114282Y5945180D01*
X5114282Y5945180D02*
X5019044Y5992800D01*
X5019044Y5992800D02*
X4971425Y6088038D01*
X4971425Y6088038D02*
X4971425Y6468990D01*
X4971425Y6468990D02*
X5019044Y6564228D01*
X5019044Y6564228D02*
X5114282Y6611847D01*
X5114282Y6611847D02*
X5304758Y6611847D01*
X5304758Y6611847D02*
X5399996Y6564228D01*
X5399996Y6564228D02*
X5447615Y6468990D01*
X5447615Y6468990D02*
X5447615Y6373752D01*
X5447615Y6373752D02*
X4971425Y6278514D01*
X5876187Y6611847D02*
X5876187Y5945180D01*
X5876187Y6516609D02*
X5923806Y6564228D01*
X5923806Y6564228D02*
X6019044Y6611847D01*
X6019044Y6611847D02*
X6161901Y6611847D01*
X6161901Y6611847D02*
X6257139Y6564228D01*
X6257139Y6564228D02*
X6304758Y6468990D01*
X6304758Y6468990D02*
X6304758Y5945180D01*
X7161901Y5992800D02*
X7066663Y5945180D01*
X7066663Y5945180D02*
X6876187Y5945180D01*
X6876187Y5945180D02*
X6780949Y5992800D01*
X6780949Y5992800D02*
X6733330Y6088038D01*
X6733330Y6088038D02*
X6733330Y6468990D01*
X6733330Y6468990D02*
X6780949Y6564228D01*
X6780949Y6564228D02*
X6876187Y6611847D01*
X6876187Y6611847D02*
X7066663Y6611847D01*
X7066663Y6611847D02*
X7161901Y6564228D01*
X7161901Y6564228D02*
X7209520Y6468990D01*
X7209520Y6468990D02*
X7209520Y6373752D01*
X7209520Y6373752D02*
X6733330Y6278514D01*
X7638092Y5945180D02*
X7638092Y6611847D01*
X7638092Y6421371D02*
X7685711Y6516609D01*
X7685711Y6516609D02*
X7733330Y6564228D01*
X7733330Y6564228D02*
X7828568Y6611847D01*
X7828568Y6611847D02*
X7923806Y6611847D01*
X8685711Y5945180D02*
X8685711Y6468990D01*
X8685711Y6468990D02*
X8638092Y6564228D01*
X8638092Y6564228D02*
X8542854Y6611847D01*
X8542854Y6611847D02*
X8352378Y6611847D01*
X8352378Y6611847D02*
X8257140Y6564228D01*
X8685711Y5992800D02*
X8590473Y5945180D01*
X8590473Y5945180D02*
X8352378Y5945180D01*
X8352378Y5945180D02*
X8257140Y5992800D01*
X8257140Y5992800D02*
X8209521Y6088038D01*
X8209521Y6088038D02*
X8209521Y6183276D01*
X8209521Y6183276D02*
X8257140Y6278514D01*
X8257140Y6278514D02*
X8352378Y6326133D01*
X8352378Y6326133D02*
X8590473Y6326133D01*
X8590473Y6326133D02*
X8685711Y6373752D01*
X9019045Y6611847D02*
X9399997Y6611847D01*
X9161902Y6945180D02*
X9161902Y6088038D01*
X9161902Y6088038D02*
X9209521Y5992800D01*
X9209521Y5992800D02*
X9304759Y5945180D01*
X9304759Y5945180D02*
X9399997Y5945180D01*
X10114283Y5992800D02*
X10019045Y5945180D01*
X10019045Y5945180D02*
X9828569Y5945180D01*
X9828569Y5945180D02*
X9733331Y5992800D01*
X9733331Y5992800D02*
X9685712Y6088038D01*
X9685712Y6088038D02*
X9685712Y6468990D01*
X9685712Y6468990D02*
X9733331Y6564228D01*
X9733331Y6564228D02*
X9828569Y6611847D01*
X9828569Y6611847D02*
X10019045Y6611847D01*
X10019045Y6611847D02*
X10114283Y6564228D01*
X10114283Y6564228D02*
X10161902Y6468990D01*
X10161902Y6468990D02*
X10161902Y6373752D01*
X10161902Y6373752D02*
X9685712Y6278514D01*
X11019045Y5945180D02*
X11019045Y6945180D01*
X11019045Y5992800D02*
X10923807Y5945180D01*
X10923807Y5945180D02*
X10733331Y5945180D01*
X10733331Y5945180D02*
X10638093Y5992800D01*
X10638093Y5992800D02*
X10590474Y6040419D01*
X10590474Y6040419D02*
X10542855Y6135657D01*
X10542855Y6135657D02*
X10542855Y6421371D01*
X10542855Y6421371D02*
X10590474Y6516609D01*
X10590474Y6516609D02*
X10638093Y6564228D01*
X10638093Y6564228D02*
X10733331Y6611847D01*
X10733331Y6611847D02*
X10923807Y6611847D01*
X10923807Y6611847D02*
X11019045Y6564228D01*
X12257141Y5945180D02*
X12257141Y6945180D01*
X12257141Y6564228D02*
X12352379Y6611847D01*
X12352379Y6611847D02*
X12542855Y6611847D01*
X12542855Y6611847D02*
X12638093Y6564228D01*
X12638093Y6564228D02*
X12685712Y6516609D01*
X12685712Y6516609D02*
X12733331Y6421371D01*
X12733331Y6421371D02*
X12733331Y6135657D01*
X12733331Y6135657D02*
X12685712Y6040419D01*
X12685712Y6040419D02*
X12638093Y5992800D01*
X12638093Y5992800D02*
X12542855Y5945180D01*
X12542855Y5945180D02*
X12352379Y5945180D01*
X12352379Y5945180D02*
X12257141Y5992800D01*
X13066665Y6611847D02*
X13304760Y5945180D01*
X13542855Y6611847D02*
X13304760Y5945180D01*
X13304760Y5945180D02*
X13209522Y5707085D01*
X13209522Y5707085D02*
X13161903Y5659466D01*
X13161903Y5659466D02*
X13066665Y5611847D01*
X14638094Y5992800D02*
X14733332Y5945180D01*
X14733332Y5945180D02*
X14923808Y5945180D01*
X14923808Y5945180D02*
X15019046Y5992800D01*
X15019046Y5992800D02*
X15066665Y6088038D01*
X15066665Y6088038D02*
X15066665Y6135657D01*
X15066665Y6135657D02*
X15019046Y6230895D01*
X15019046Y6230895D02*
X14923808Y6278514D01*
X14923808Y6278514D02*
X14780951Y6278514D01*
X14780951Y6278514D02*
X14685713Y6326133D01*
X14685713Y6326133D02*
X14638094Y6421371D01*
X14638094Y6421371D02*
X14638094Y6468990D01*
X14638094Y6468990D02*
X14685713Y6564228D01*
X14685713Y6564228D02*
X14780951Y6611847D01*
X14780951Y6611847D02*
X14923808Y6611847D01*
X14923808Y6611847D02*
X15019046Y6564228D01*
X15923808Y5992800D02*
X15828570Y5945180D01*
X15828570Y5945180D02*
X15638094Y5945180D01*
X15638094Y5945180D02*
X15542856Y5992800D01*
X15542856Y5992800D02*
X15495237Y6040419D01*
X15495237Y6040419D02*
X15447618Y6135657D01*
X15447618Y6135657D02*
X15447618Y6421371D01*
X15447618Y6421371D02*
X15495237Y6516609D01*
X15495237Y6516609D02*
X15542856Y6564228D01*
X15542856Y6564228D02*
X15638094Y6611847D01*
X15638094Y6611847D02*
X15828570Y6611847D01*
X15828570Y6611847D02*
X15923808Y6564228D01*
X16352380Y5945180D02*
X16352380Y6611847D01*
X16352380Y6421371D02*
X16399999Y6516609D01*
X16399999Y6516609D02*
X16447618Y6564228D01*
X16447618Y6564228D02*
X16542856Y6611847D01*
X16542856Y6611847D02*
X16638094Y6611847D01*
X16971428Y5945180D02*
X16971428Y6611847D01*
X16971428Y6945180D02*
X16923809Y6897561D01*
X16923809Y6897561D02*
X16971428Y6849942D01*
X16971428Y6849942D02*
X17019047Y6897561D01*
X17019047Y6897561D02*
X16971428Y6945180D01*
X16971428Y6945180D02*
X16971428Y6849942D01*
X17447618Y6611847D02*
X17447618Y5611847D01*
X17447618Y6564228D02*
X17542856Y6611847D01*
X17542856Y6611847D02*
X17733332Y6611847D01*
X17733332Y6611847D02*
X17828570Y6564228D01*
X17828570Y6564228D02*
X17876189Y6516609D01*
X17876189Y6516609D02*
X17923808Y6421371D01*
X17923808Y6421371D02*
X17923808Y6135657D01*
X17923808Y6135657D02*
X17876189Y6040419D01*
X17876189Y6040419D02*
X17828570Y5992800D01*
X17828570Y5992800D02*
X17733332Y5945180D01*
X17733332Y5945180D02*
X17542856Y5945180D01*
X17542856Y5945180D02*
X17447618Y5992800D01*
X18209523Y6611847D02*
X18590475Y6611847D01*
X18352380Y6945180D02*
X18352380Y6088038D01*
X18352380Y6088038D02*
X18399999Y5992800D01*
X18399999Y5992800D02*
X18495237Y5945180D01*
X18495237Y5945180D02*
X18590475Y5945180D01*
X18876190Y5992800D02*
X18971428Y5945180D01*
X18971428Y5945180D02*
X19161904Y5945180D01*
X19161904Y5945180D02*
X19257142Y5992800D01*
X19257142Y5992800D02*
X19304761Y6088038D01*
X19304761Y6088038D02*
X19304761Y6135657D01*
X19304761Y6135657D02*
X19257142Y6230895D01*
X19257142Y6230895D02*
X19161904Y6278514D01*
X19161904Y6278514D02*
X19019047Y6278514D01*
X19019047Y6278514D02*
X18923809Y6326133D01*
X18923809Y6326133D02*
X18876190Y6421371D01*
X18876190Y6421371D02*
X18876190Y6468990D01*
X18876190Y6468990D02*
X18923809Y6564228D01*
X18923809Y6564228D02*
X19019047Y6611847D01*
X19019047Y6611847D02*
X19161904Y6611847D01*
X19161904Y6611847D02*
X19257142Y6564228D01*
X20447618Y6992800D02*
X19590476Y5707085D01*
X20780952Y6611847D02*
X20780952Y5611847D01*
X20780952Y6564228D02*
X20876190Y6611847D01*
X20876190Y6611847D02*
X21066666Y6611847D01*
X21066666Y6611847D02*
X21161904Y6564228D01*
X21161904Y6564228D02*
X21209523Y6516609D01*
X21209523Y6516609D02*
X21257142Y6421371D01*
X21257142Y6421371D02*
X21257142Y6135657D01*
X21257142Y6135657D02*
X21209523Y6040419D01*
X21209523Y6040419D02*
X21161904Y5992800D01*
X21161904Y5992800D02*
X21066666Y5945180D01*
X21066666Y5945180D02*
X20876190Y5945180D01*
X20876190Y5945180D02*
X20780952Y5992800D01*
X22114285Y5945180D02*
X22114285Y6468990D01*
X22114285Y6468990D02*
X22066666Y6564228D01*
X22066666Y6564228D02*
X21971428Y6611847D01*
X21971428Y6611847D02*
X21780952Y6611847D01*
X21780952Y6611847D02*
X21685714Y6564228D01*
X22114285Y5992800D02*
X22019047Y5945180D01*
X22019047Y5945180D02*
X21780952Y5945180D01*
X21780952Y5945180D02*
X21685714Y5992800D01*
X21685714Y5992800D02*
X21638095Y6088038D01*
X21638095Y6088038D02*
X21638095Y6183276D01*
X21638095Y6183276D02*
X21685714Y6278514D01*
X21685714Y6278514D02*
X21780952Y6326133D01*
X21780952Y6326133D02*
X22019047Y6326133D01*
X22019047Y6326133D02*
X22114285Y6373752D01*
X22590476Y6611847D02*
X22590476Y5945180D01*
X22590476Y6516609D02*
X22638095Y6564228D01*
X22638095Y6564228D02*
X22733333Y6611847D01*
X22733333Y6611847D02*
X22876190Y6611847D01*
X22876190Y6611847D02*
X22971428Y6564228D01*
X22971428Y6564228D02*
X23019047Y6468990D01*
X23019047Y6468990D02*
X23019047Y5945180D01*
X23876190Y5992800D02*
X23780952Y5945180D01*
X23780952Y5945180D02*
X23590476Y5945180D01*
X23590476Y5945180D02*
X23495238Y5992800D01*
X23495238Y5992800D02*
X23447619Y6088038D01*
X23447619Y6088038D02*
X23447619Y6468990D01*
X23447619Y6468990D02*
X23495238Y6564228D01*
X23495238Y6564228D02*
X23590476Y6611847D01*
X23590476Y6611847D02*
X23780952Y6611847D01*
X23780952Y6611847D02*
X23876190Y6564228D01*
X23876190Y6564228D02*
X23923809Y6468990D01*
X23923809Y6468990D02*
X23923809Y6373752D01*
X23923809Y6373752D02*
X23447619Y6278514D01*
X24495238Y5945180D02*
X24400000Y5992800D01*
X24400000Y5992800D02*
X24352381Y6088038D01*
X24352381Y6088038D02*
X24352381Y6945180D01*
X24876191Y5945180D02*
X24876191Y6611847D01*
X24876191Y6945180D02*
X24828572Y6897561D01*
X24828572Y6897561D02*
X24876191Y6849942D01*
X24876191Y6849942D02*
X24923810Y6897561D01*
X24923810Y6897561D02*
X24876191Y6945180D01*
X24876191Y6945180D02*
X24876191Y6849942D01*
X25257143Y6611847D02*
X25780952Y6611847D01*
X25780952Y6611847D02*
X25257143Y5945180D01*
X25257143Y5945180D02*
X25780952Y5945180D01*
X26542857Y5992800D02*
X26447619Y5945180D01*
X26447619Y5945180D02*
X26257143Y5945180D01*
X26257143Y5945180D02*
X26161905Y5992800D01*
X26161905Y5992800D02*
X26114286Y6088038D01*
X26114286Y6088038D02*
X26114286Y6468990D01*
X26114286Y6468990D02*
X26161905Y6564228D01*
X26161905Y6564228D02*
X26257143Y6611847D01*
X26257143Y6611847D02*
X26447619Y6611847D01*
X26447619Y6611847D02*
X26542857Y6564228D01*
X26542857Y6564228D02*
X26590476Y6468990D01*
X26590476Y6468990D02*
X26590476Y6373752D01*
X26590476Y6373752D02*
X26114286Y6278514D01*
X27019048Y6040419D02*
X27066667Y5992800D01*
X27066667Y5992800D02*
X27019048Y5945180D01*
X27019048Y5945180D02*
X26971429Y5992800D01*
X26971429Y5992800D02*
X27019048Y6040419D01*
X27019048Y6040419D02*
X27019048Y5945180D01*
X27495238Y6611847D02*
X27495238Y5611847D01*
X27495238Y6564228D02*
X27590476Y6611847D01*
X27590476Y6611847D02*
X27780952Y6611847D01*
X27780952Y6611847D02*
X27876190Y6564228D01*
X27876190Y6564228D02*
X27923809Y6516609D01*
X27923809Y6516609D02*
X27971428Y6421371D01*
X27971428Y6421371D02*
X27971428Y6135657D01*
X27971428Y6135657D02*
X27923809Y6040419D01*
X27923809Y6040419D02*
X27876190Y5992800D01*
X27876190Y5992800D02*
X27780952Y5945180D01*
X27780952Y5945180D02*
X27590476Y5945180D01*
X27590476Y5945180D02*
X27495238Y5992800D01*
X28304762Y6611847D02*
X28542857Y5945180D01*
X28780952Y6611847D02*
X28542857Y5945180D01*
X28542857Y5945180D02*
X28447619Y5707085D01*
X28447619Y5707085D02*
X28400000Y5659466D01*
X28400000Y5659466D02*
X28304762Y5611847D01*
X29923810Y6326133D02*
X30685715Y6326133D01*
X32352381Y5945180D02*
X32352381Y6945180D01*
X32352381Y5992800D02*
X32257143Y5945180D01*
X32257143Y5945180D02*
X32066667Y5945180D01*
X32066667Y5945180D02*
X31971429Y5992800D01*
X31971429Y5992800D02*
X31923810Y6040419D01*
X31923810Y6040419D02*
X31876191Y6135657D01*
X31876191Y6135657D02*
X31876191Y6421371D01*
X31876191Y6421371D02*
X31923810Y6516609D01*
X31923810Y6516609D02*
X31971429Y6564228D01*
X31971429Y6564228D02*
X32066667Y6611847D01*
X32066667Y6611847D02*
X32257143Y6611847D01*
X32257143Y6611847D02*
X32352381Y6564228D01*
X32971429Y5945180D02*
X32876191Y5992800D01*
X32876191Y5992800D02*
X32828572Y6040419D01*
X32828572Y6040419D02*
X32780953Y6135657D01*
X32780953Y6135657D02*
X32780953Y6421371D01*
X32780953Y6421371D02*
X32828572Y6516609D01*
X32828572Y6516609D02*
X32876191Y6564228D01*
X32876191Y6564228D02*
X32971429Y6611847D01*
X32971429Y6611847D02*
X33114286Y6611847D01*
X33114286Y6611847D02*
X33209524Y6564228D01*
X33209524Y6564228D02*
X33257143Y6516609D01*
X33257143Y6516609D02*
X33304762Y6421371D01*
X33304762Y6421371D02*
X33304762Y6135657D01*
X33304762Y6135657D02*
X33257143Y6040419D01*
X33257143Y6040419D02*
X33209524Y5992800D01*
X33209524Y5992800D02*
X33114286Y5945180D01*
X33114286Y5945180D02*
X32971429Y5945180D01*
X34495239Y6611847D02*
X34495239Y5945180D01*
X34495239Y6516609D02*
X34542858Y6564228D01*
X34542858Y6564228D02*
X34638096Y6611847D01*
X34638096Y6611847D02*
X34780953Y6611847D01*
X34780953Y6611847D02*
X34876191Y6564228D01*
X34876191Y6564228D02*
X34923810Y6468990D01*
X34923810Y6468990D02*
X34923810Y5945180D01*
X35542858Y5945180D02*
X35447620Y5992800D01*
X35447620Y5992800D02*
X35400001Y6040419D01*
X35400001Y6040419D02*
X35352382Y6135657D01*
X35352382Y6135657D02*
X35352382Y6421371D01*
X35352382Y6421371D02*
X35400001Y6516609D01*
X35400001Y6516609D02*
X35447620Y6564228D01*
X35447620Y6564228D02*
X35542858Y6611847D01*
X35542858Y6611847D02*
X35685715Y6611847D01*
X35685715Y6611847D02*
X35780953Y6564228D01*
X35780953Y6564228D02*
X35828572Y6516609D01*
X35828572Y6516609D02*
X35876191Y6421371D01*
X35876191Y6421371D02*
X35876191Y6135657D01*
X35876191Y6135657D02*
X35828572Y6040419D01*
X35828572Y6040419D02*
X35780953Y5992800D01*
X35780953Y5992800D02*
X35685715Y5945180D01*
X35685715Y5945180D02*
X35542858Y5945180D01*
X36161906Y6611847D02*
X36542858Y6611847D01*
X36304763Y6945180D02*
X36304763Y6088038D01*
X36304763Y6088038D02*
X36352382Y5992800D01*
X36352382Y5992800D02*
X36447620Y5945180D01*
X36447620Y5945180D02*
X36542858Y5945180D01*
X38019049Y5992800D02*
X37923811Y5945180D01*
X37923811Y5945180D02*
X37733335Y5945180D01*
X37733335Y5945180D02*
X37638097Y5992800D01*
X37638097Y5992800D02*
X37590478Y6088038D01*
X37590478Y6088038D02*
X37590478Y6468990D01*
X37590478Y6468990D02*
X37638097Y6564228D01*
X37638097Y6564228D02*
X37733335Y6611847D01*
X37733335Y6611847D02*
X37923811Y6611847D01*
X37923811Y6611847D02*
X38019049Y6564228D01*
X38019049Y6564228D02*
X38066668Y6468990D01*
X38066668Y6468990D02*
X38066668Y6373752D01*
X38066668Y6373752D02*
X37590478Y6278514D01*
X38923811Y5945180D02*
X38923811Y6945180D01*
X38923811Y5992800D02*
X38828573Y5945180D01*
X38828573Y5945180D02*
X38638097Y5945180D01*
X38638097Y5945180D02*
X38542859Y5992800D01*
X38542859Y5992800D02*
X38495240Y6040419D01*
X38495240Y6040419D02*
X38447621Y6135657D01*
X38447621Y6135657D02*
X38447621Y6421371D01*
X38447621Y6421371D02*
X38495240Y6516609D01*
X38495240Y6516609D02*
X38542859Y6564228D01*
X38542859Y6564228D02*
X38638097Y6611847D01*
X38638097Y6611847D02*
X38828573Y6611847D01*
X38828573Y6611847D02*
X38923811Y6564228D01*
X39400002Y5945180D02*
X39400002Y6611847D01*
X39400002Y6945180D02*
X39352383Y6897561D01*
X39352383Y6897561D02*
X39400002Y6849942D01*
X39400002Y6849942D02*
X39447621Y6897561D01*
X39447621Y6897561D02*
X39400002Y6945180D01*
X39400002Y6945180D02*
X39400002Y6849942D01*
X39733335Y6611847D02*
X40114287Y6611847D01*
X39876192Y6945180D02*
X39876192Y6088038D01*
X39876192Y6088038D02*
X39923811Y5992800D01*
X39923811Y5992800D02*
X40019049Y5945180D01*
X40019049Y5945180D02*
X40114287Y5945180D01*
X41209526Y5945180D02*
X41209526Y6945180D01*
X41209526Y6564228D02*
X41304764Y6611847D01*
X41304764Y6611847D02*
X41495240Y6611847D01*
X41495240Y6611847D02*
X41590478Y6564228D01*
X41590478Y6564228D02*
X41638097Y6516609D01*
X41638097Y6516609D02*
X41685716Y6421371D01*
X41685716Y6421371D02*
X41685716Y6135657D01*
X41685716Y6135657D02*
X41638097Y6040419D01*
X41638097Y6040419D02*
X41590478Y5992800D01*
X41590478Y5992800D02*
X41495240Y5945180D01*
X41495240Y5945180D02*
X41304764Y5945180D01*
X41304764Y5945180D02*
X41209526Y5992800D01*
X42019050Y6611847D02*
X42257145Y5945180D01*
X42495240Y6611847D02*
X42257145Y5945180D01*
X42257145Y5945180D02*
X42161907Y5707085D01*
X42161907Y5707085D02*
X42114288Y5659466D01*
X42114288Y5659466D02*
X42019050Y5611847D01*
X43638098Y5945180D02*
X43638098Y6945180D01*
X44066669Y5945180D02*
X44066669Y6468990D01*
X44066669Y6468990D02*
X44019050Y6564228D01*
X44019050Y6564228D02*
X43923812Y6611847D01*
X43923812Y6611847D02*
X43780955Y6611847D01*
X43780955Y6611847D02*
X43685717Y6564228D01*
X43685717Y6564228D02*
X43638098Y6516609D01*
X44971431Y5945180D02*
X44971431Y6468990D01*
X44971431Y6468990D02*
X44923812Y6564228D01*
X44923812Y6564228D02*
X44828574Y6611847D01*
X44828574Y6611847D02*
X44638098Y6611847D01*
X44638098Y6611847D02*
X44542860Y6564228D01*
X44971431Y5992800D02*
X44876193Y5945180D01*
X44876193Y5945180D02*
X44638098Y5945180D01*
X44638098Y5945180D02*
X44542860Y5992800D01*
X44542860Y5992800D02*
X44495241Y6088038D01*
X44495241Y6088038D02*
X44495241Y6183276D01*
X44495241Y6183276D02*
X44542860Y6278514D01*
X44542860Y6278514D02*
X44638098Y6326133D01*
X44638098Y6326133D02*
X44876193Y6326133D01*
X44876193Y6326133D02*
X44971431Y6373752D01*
X45447622Y6611847D02*
X45447622Y5945180D01*
X45447622Y6516609D02*
X45495241Y6564228D01*
X45495241Y6564228D02*
X45590479Y6611847D01*
X45590479Y6611847D02*
X45733336Y6611847D01*
X45733336Y6611847D02*
X45828574Y6564228D01*
X45828574Y6564228D02*
X45876193Y6468990D01*
X45876193Y6468990D02*
X45876193Y5945180D01*
X46780955Y5945180D02*
X46780955Y6945180D01*
X46780955Y5992800D02*
X46685717Y5945180D01*
X46685717Y5945180D02*
X46495241Y5945180D01*
X46495241Y5945180D02*
X46400003Y5992800D01*
X46400003Y5992800D02*
X46352384Y6040419D01*
X46352384Y6040419D02*
X46304765Y6135657D01*
X46304765Y6135657D02*
X46304765Y6421371D01*
X46304765Y6421371D02*
X46352384Y6516609D01*
X46352384Y6516609D02*
X46400003Y6564228D01*
X46400003Y6564228D02*
X46495241Y6611847D01*
X46495241Y6611847D02*
X46685717Y6611847D01*
X46685717Y6611847D02*
X46780955Y6564228D01*
X4780952Y-92754819D02*
X4780952Y-91754819D01*
X4780952Y-92231009D02*
X5352380Y-92231009D01*
X5352380Y-92754819D02*
X5352380Y-91754819D01*
X5780952Y-92469104D02*
X6257142Y-92469104D01*
X5685714Y-92754819D02*
X6019047Y-91754819D01*
X6019047Y-91754819D02*
X6352380Y-92754819D01*
X7257142Y-92754819D02*
X6923809Y-92278628D01*
X6685714Y-92754819D02*
X6685714Y-91754819D01*
X6685714Y-91754819D02*
X7066666Y-91754819D01*
X7066666Y-91754819D02*
X7161904Y-91802438D01*
X7161904Y-91802438D02*
X7209523Y-91850057D01*
X7209523Y-91850057D02*
X7257142Y-91945295D01*
X7257142Y-91945295D02*
X7257142Y-92088152D01*
X7257142Y-92088152D02*
X7209523Y-92183390D01*
X7209523Y-92183390D02*
X7161904Y-92231009D01*
X7161904Y-92231009D02*
X7066666Y-92278628D01*
X7066666Y-92278628D02*
X6685714Y-92278628D01*
X7685714Y-92754819D02*
X7685714Y-91754819D01*
X7685714Y-91754819D02*
X7923809Y-91754819D01*
X7923809Y-91754819D02*
X8066666Y-91802438D01*
X8066666Y-91802438D02*
X8161904Y-91897676D01*
X8161904Y-91897676D02*
X8209523Y-91992914D01*
X8209523Y-91992914D02*
X8257142Y-92183390D01*
X8257142Y-92183390D02*
X8257142Y-92326247D01*
X8257142Y-92326247D02*
X8209523Y-92516723D01*
X8209523Y-92516723D02*
X8161904Y-92611961D01*
X8161904Y-92611961D02*
X8066666Y-92707200D01*
X8066666Y-92707200D02*
X7923809Y-92754819D01*
X7923809Y-92754819D02*
X7685714Y-92754819D01*
X8685714Y-92373866D02*
X9447619Y-92373866D01*
X10447618Y-91802438D02*
X10352380Y-91754819D01*
X10352380Y-91754819D02*
X10209523Y-91754819D01*
X10209523Y-91754819D02*
X10066666Y-91802438D01*
X10066666Y-91802438D02*
X9971428Y-91897676D01*
X9971428Y-91897676D02*
X9923809Y-91992914D01*
X9923809Y-91992914D02*
X9876190Y-92183390D01*
X9876190Y-92183390D02*
X9876190Y-92326247D01*
X9876190Y-92326247D02*
X9923809Y-92516723D01*
X9923809Y-92516723D02*
X9971428Y-92611961D01*
X9971428Y-92611961D02*
X10066666Y-92707200D01*
X10066666Y-92707200D02*
X10209523Y-92754819D01*
X10209523Y-92754819D02*
X10304761Y-92754819D01*
X10304761Y-92754819D02*
X10447618Y-92707200D01*
X10447618Y-92707200D02*
X10495237Y-92659580D01*
X10495237Y-92659580D02*
X10495237Y-92326247D01*
X10495237Y-92326247D02*
X10304761Y-92326247D01*
X11114285Y-91754819D02*
X11304761Y-91754819D01*
X11304761Y-91754819D02*
X11399999Y-91802438D01*
X11399999Y-91802438D02*
X11495237Y-91897676D01*
X11495237Y-91897676D02*
X11542856Y-92088152D01*
X11542856Y-92088152D02*
X11542856Y-92421485D01*
X11542856Y-92421485D02*
X11495237Y-92611961D01*
X11495237Y-92611961D02*
X11399999Y-92707200D01*
X11399999Y-92707200D02*
X11304761Y-92754819D01*
X11304761Y-92754819D02*
X11114285Y-92754819D01*
X11114285Y-92754819D02*
X11019047Y-92707200D01*
X11019047Y-92707200D02*
X10923809Y-92611961D01*
X10923809Y-92611961D02*
X10876190Y-92421485D01*
X10876190Y-92421485D02*
X10876190Y-92088152D01*
X10876190Y-92088152D02*
X10923809Y-91897676D01*
X10923809Y-91897676D02*
X11019047Y-91802438D01*
X11019047Y-91802438D02*
X11114285Y-91754819D01*
X12447618Y-92754819D02*
X11971428Y-92754819D01*
X11971428Y-92754819D02*
X11971428Y-91754819D01*
X12780952Y-92754819D02*
X12780952Y-91754819D01*
X12780952Y-91754819D02*
X13019047Y-91754819D01*
X13019047Y-91754819D02*
X13161904Y-91802438D01*
X13161904Y-91802438D02*
X13257142Y-91897676D01*
X13257142Y-91897676D02*
X13304761Y-91992914D01*
X13304761Y-91992914D02*
X13352380Y-92183390D01*
X13352380Y-92183390D02*
X13352380Y-92326247D01*
X13352380Y-92326247D02*
X13304761Y-92516723D01*
X13304761Y-92516723D02*
X13257142Y-92611961D01*
X13257142Y-92611961D02*
X13161904Y-92707200D01*
X13161904Y-92707200D02*
X13019047Y-92754819D01*
X13019047Y-92754819D02*
X12780952Y-92754819D01*
X14542857Y-92754819D02*
X14542857Y-91754819D01*
X14542857Y-91754819D02*
X14923809Y-91754819D01*
X14923809Y-91754819D02*
X15019047Y-91802438D01*
X15019047Y-91802438D02*
X15066666Y-91850057D01*
X15066666Y-91850057D02*
X15114285Y-91945295D01*
X15114285Y-91945295D02*
X15114285Y-92088152D01*
X15114285Y-92088152D02*
X15066666Y-92183390D01*
X15066666Y-92183390D02*
X15019047Y-92231009D01*
X15019047Y-92231009D02*
X14923809Y-92278628D01*
X14923809Y-92278628D02*
X14542857Y-92278628D01*
X16019047Y-92754819D02*
X15542857Y-92754819D01*
X15542857Y-92754819D02*
X15542857Y-91754819D01*
X16304762Y-92469104D02*
X16780952Y-92469104D01*
X16209524Y-92754819D02*
X16542857Y-91754819D01*
X16542857Y-91754819D02*
X16876190Y-92754819D01*
X17066667Y-91754819D02*
X17638095Y-91754819D01*
X17352381Y-92754819D02*
X17352381Y-91754819D01*
X17971429Y-92754819D02*
X17971429Y-91754819D01*
X18447619Y-92754819D02*
X18447619Y-91754819D01*
X18447619Y-91754819D02*
X19019047Y-92754819D01*
X19019047Y-92754819D02*
X19019047Y-91754819D01*
X20019047Y-91802438D02*
X19923809Y-91754819D01*
X19923809Y-91754819D02*
X19780952Y-91754819D01*
X19780952Y-91754819D02*
X19638095Y-91802438D01*
X19638095Y-91802438D02*
X19542857Y-91897676D01*
X19542857Y-91897676D02*
X19495238Y-91992914D01*
X19495238Y-91992914D02*
X19447619Y-92183390D01*
X19447619Y-92183390D02*
X19447619Y-92326247D01*
X19447619Y-92326247D02*
X19495238Y-92516723D01*
X19495238Y-92516723D02*
X19542857Y-92611961D01*
X19542857Y-92611961D02*
X19638095Y-92707200D01*
X19638095Y-92707200D02*
X19780952Y-92754819D01*
X19780952Y-92754819D02*
X19876190Y-92754819D01*
X19876190Y-92754819D02*
X20019047Y-92707200D01*
X20019047Y-92707200D02*
X20066666Y-92659580D01*
X20066666Y-92659580D02*
X20066666Y-92326247D01*
X20066666Y-92326247D02*
X19876190Y-92326247D01*
X21590476Y-92231009D02*
X21733333Y-92278628D01*
X21733333Y-92278628D02*
X21780952Y-92326247D01*
X21780952Y-92326247D02*
X21828571Y-92421485D01*
X21828571Y-92421485D02*
X21828571Y-92564342D01*
X21828571Y-92564342D02*
X21780952Y-92659580D01*
X21780952Y-92659580D02*
X21733333Y-92707200D01*
X21733333Y-92707200D02*
X21638095Y-92754819D01*
X21638095Y-92754819D02*
X21257143Y-92754819D01*
X21257143Y-92754819D02*
X21257143Y-91754819D01*
X21257143Y-91754819D02*
X21590476Y-91754819D01*
X21590476Y-91754819D02*
X21685714Y-91802438D01*
X21685714Y-91802438D02*
X21733333Y-91850057D01*
X21733333Y-91850057D02*
X21780952Y-91945295D01*
X21780952Y-91945295D02*
X21780952Y-92040533D01*
X21780952Y-92040533D02*
X21733333Y-92135771D01*
X21733333Y-92135771D02*
X21685714Y-92183390D01*
X21685714Y-92183390D02*
X21590476Y-92231009D01*
X21590476Y-92231009D02*
X21257143Y-92231009D01*
X22257143Y-91754819D02*
X22257143Y-92564342D01*
X22257143Y-92564342D02*
X22304762Y-92659580D01*
X22304762Y-92659580D02*
X22352381Y-92707200D01*
X22352381Y-92707200D02*
X22447619Y-92754819D01*
X22447619Y-92754819D02*
X22638095Y-92754819D01*
X22638095Y-92754819D02*
X22733333Y-92707200D01*
X22733333Y-92707200D02*
X22780952Y-92659580D01*
X22780952Y-92659580D02*
X22828571Y-92564342D01*
X22828571Y-92564342D02*
X22828571Y-91754819D01*
X23257143Y-92707200D02*
X23400000Y-92754819D01*
X23400000Y-92754819D02*
X23638095Y-92754819D01*
X23638095Y-92754819D02*
X23733333Y-92707200D01*
X23733333Y-92707200D02*
X23780952Y-92659580D01*
X23780952Y-92659580D02*
X23828571Y-92564342D01*
X23828571Y-92564342D02*
X23828571Y-92469104D01*
X23828571Y-92469104D02*
X23780952Y-92373866D01*
X23780952Y-92373866D02*
X23733333Y-92326247D01*
X23733333Y-92326247D02*
X23638095Y-92278628D01*
X23638095Y-92278628D02*
X23447619Y-92231009D01*
X23447619Y-92231009D02*
X23352381Y-92183390D01*
X23352381Y-92183390D02*
X23304762Y-92135771D01*
X23304762Y-92135771D02*
X23257143Y-92040533D01*
X23257143Y-92040533D02*
X23257143Y-91945295D01*
X23257143Y-91945295D02*
X23304762Y-91850057D01*
X23304762Y-91850057D02*
X23352381Y-91802438D01*
X23352381Y-91802438D02*
X23447619Y-91754819D01*
X23447619Y-91754819D02*
X23685714Y-91754819D01*
X23685714Y-91754819D02*
X23828571Y-91802438D01*
X25019048Y-92373866D02*
X25780953Y-92373866D01*
X27590476Y-92754819D02*
X27257143Y-92278628D01*
X27019048Y-92754819D02*
X27019048Y-91754819D01*
X27019048Y-91754819D02*
X27400000Y-91754819D01*
X27400000Y-91754819D02*
X27495238Y-91802438D01*
X27495238Y-91802438D02*
X27542857Y-91850057D01*
X27542857Y-91850057D02*
X27590476Y-91945295D01*
X27590476Y-91945295D02*
X27590476Y-92088152D01*
X27590476Y-92088152D02*
X27542857Y-92183390D01*
X27542857Y-92183390D02*
X27495238Y-92231009D01*
X27495238Y-92231009D02*
X27400000Y-92278628D01*
X27400000Y-92278628D02*
X27019048Y-92278628D01*
X28019048Y-92231009D02*
X28352381Y-92231009D01*
X28495238Y-92754819D02*
X28019048Y-92754819D01*
X28019048Y-92754819D02*
X28019048Y-91754819D01*
X28019048Y-91754819D02*
X28495238Y-91754819D01*
X28780953Y-91754819D02*
X29352381Y-91754819D01*
X29066667Y-92754819D02*
X29066667Y-91754819D01*
X29638096Y-92469104D02*
X30114286Y-92469104D01*
X29542858Y-92754819D02*
X29876191Y-91754819D01*
X29876191Y-91754819D02*
X30209524Y-92754819D01*
X30542858Y-92754819D02*
X30542858Y-91754819D01*
X31019048Y-92754819D02*
X31019048Y-91754819D01*
X31019048Y-91754819D02*
X31590476Y-92754819D01*
X31590476Y-92754819D02*
X31590476Y-91754819D01*
X32685715Y-91754819D02*
X33257143Y-91754819D01*
X32971429Y-92754819D02*
X32971429Y-91754819D01*
X33590477Y-92754819D02*
X33590477Y-91754819D01*
X33590477Y-92231009D02*
X34161905Y-92231009D01*
X34161905Y-92754819D02*
X34161905Y-91754819D01*
X35209524Y-92754819D02*
X34876191Y-92278628D01*
X34638096Y-92754819D02*
X34638096Y-91754819D01*
X34638096Y-91754819D02*
X35019048Y-91754819D01*
X35019048Y-91754819D02*
X35114286Y-91802438D01*
X35114286Y-91802438D02*
X35161905Y-91850057D01*
X35161905Y-91850057D02*
X35209524Y-91945295D01*
X35209524Y-91945295D02*
X35209524Y-92088152D01*
X35209524Y-92088152D02*
X35161905Y-92183390D01*
X35161905Y-92183390D02*
X35114286Y-92231009D01*
X35114286Y-92231009D02*
X35019048Y-92278628D01*
X35019048Y-92278628D02*
X34638096Y-92278628D01*
X35828572Y-91754819D02*
X36019048Y-91754819D01*
X36019048Y-91754819D02*
X36114286Y-91802438D01*
X36114286Y-91802438D02*
X36209524Y-91897676D01*
X36209524Y-91897676D02*
X36257143Y-92088152D01*
X36257143Y-92088152D02*
X36257143Y-92421485D01*
X36257143Y-92421485D02*
X36209524Y-92611961D01*
X36209524Y-92611961D02*
X36114286Y-92707200D01*
X36114286Y-92707200D02*
X36019048Y-92754819D01*
X36019048Y-92754819D02*
X35828572Y-92754819D01*
X35828572Y-92754819D02*
X35733334Y-92707200D01*
X35733334Y-92707200D02*
X35638096Y-92611961D01*
X35638096Y-92611961D02*
X35590477Y-92421485D01*
X35590477Y-92421485D02*
X35590477Y-92088152D01*
X35590477Y-92088152D02*
X35638096Y-91897676D01*
X35638096Y-91897676D02*
X35733334Y-91802438D01*
X35733334Y-91802438D02*
X35828572Y-91754819D01*
X36685715Y-91754819D02*
X36685715Y-92564342D01*
X36685715Y-92564342D02*
X36733334Y-92659580D01*
X36733334Y-92659580D02*
X36780953Y-92707200D01*
X36780953Y-92707200D02*
X36876191Y-92754819D01*
X36876191Y-92754819D02*
X37066667Y-92754819D01*
X37066667Y-92754819D02*
X37161905Y-92707200D01*
X37161905Y-92707200D02*
X37209524Y-92659580D01*
X37209524Y-92659580D02*
X37257143Y-92564342D01*
X37257143Y-92564342D02*
X37257143Y-91754819D01*
X38257143Y-91802438D02*
X38161905Y-91754819D01*
X38161905Y-91754819D02*
X38019048Y-91754819D01*
X38019048Y-91754819D02*
X37876191Y-91802438D01*
X37876191Y-91802438D02*
X37780953Y-91897676D01*
X37780953Y-91897676D02*
X37733334Y-91992914D01*
X37733334Y-91992914D02*
X37685715Y-92183390D01*
X37685715Y-92183390D02*
X37685715Y-92326247D01*
X37685715Y-92326247D02*
X37733334Y-92516723D01*
X37733334Y-92516723D02*
X37780953Y-92611961D01*
X37780953Y-92611961D02*
X37876191Y-92707200D01*
X37876191Y-92707200D02*
X38019048Y-92754819D01*
X38019048Y-92754819D02*
X38114286Y-92754819D01*
X38114286Y-92754819D02*
X38257143Y-92707200D01*
X38257143Y-92707200D02*
X38304762Y-92659580D01*
X38304762Y-92659580D02*
X38304762Y-92326247D01*
X38304762Y-92326247D02*
X38114286Y-92326247D01*
X38733334Y-92754819D02*
X38733334Y-91754819D01*
X38733334Y-92231009D02*
X39304762Y-92231009D01*
X39304762Y-92754819D02*
X39304762Y-91754819D01*
X40542858Y-92754819D02*
X40542858Y-91754819D01*
X40542858Y-91754819D02*
X40923810Y-91754819D01*
X40923810Y-91754819D02*
X41019048Y-91802438D01*
X41019048Y-91802438D02*
X41066667Y-91850057D01*
X41066667Y-91850057D02*
X41114286Y-91945295D01*
X41114286Y-91945295D02*
X41114286Y-92088152D01*
X41114286Y-92088152D02*
X41066667Y-92183390D01*
X41066667Y-92183390D02*
X41019048Y-92231009D01*
X41019048Y-92231009D02*
X40923810Y-92278628D01*
X40923810Y-92278628D02*
X40542858Y-92278628D01*
X42019048Y-92754819D02*
X41542858Y-92754819D01*
X41542858Y-92754819D02*
X41542858Y-91754819D01*
X42304763Y-92469104D02*
X42780953Y-92469104D01*
X42209525Y-92754819D02*
X42542858Y-91754819D01*
X42542858Y-91754819D02*
X42876191Y-92754819D01*
X43066668Y-91754819D02*
X43638096Y-91754819D01*
X43352382Y-92754819D02*
X43352382Y-91754819D01*
X43971430Y-92754819D02*
X43971430Y-91754819D01*
X44447620Y-92754819D02*
X44447620Y-91754819D01*
X44447620Y-91754819D02*
X45019048Y-92754819D01*
X45019048Y-92754819D02*
X45019048Y-91754819D01*
X46019048Y-91802438D02*
X45923810Y-91754819D01*
X45923810Y-91754819D02*
X45780953Y-91754819D01*
X45780953Y-91754819D02*
X45638096Y-91802438D01*
X45638096Y-91802438D02*
X45542858Y-91897676D01*
X45542858Y-91897676D02*
X45495239Y-91992914D01*
X45495239Y-91992914D02*
X45447620Y-92183390D01*
X45447620Y-92183390D02*
X45447620Y-92326247D01*
X45447620Y-92326247D02*
X45495239Y-92516723D01*
X45495239Y-92516723D02*
X45542858Y-92611961D01*
X45542858Y-92611961D02*
X45638096Y-92707200D01*
X45638096Y-92707200D02*
X45780953Y-92754819D01*
X45780953Y-92754819D02*
X45876191Y-92754819D01*
X45876191Y-92754819D02*
X46019048Y-92707200D01*
X46019048Y-92707200D02*
X46066667Y-92659580D01*
X46066667Y-92659580D02*
X46066667Y-92326247D01*
X46066667Y-92326247D02*
X45876191Y-92326247D01*
X4899995Y-95231009D02*
X5042852Y-95278628D01*
X5042852Y-95278628D02*
X5090471Y-95326247D01*
X5090471Y-95326247D02*
X5138090Y-95421485D01*
X5138090Y-95421485D02*
X5138090Y-95564342D01*
X5138090Y-95564342D02*
X5090471Y-95659580D01*
X5090471Y-95659580D02*
X5042852Y-95707200D01*
X5042852Y-95707200D02*
X4947614Y-95754819D01*
X4947614Y-95754819D02*
X4566662Y-95754819D01*
X4566662Y-95754819D02*
X4566662Y-94754819D01*
X4566662Y-94754819D02*
X4899995Y-94754819D01*
X4899995Y-94754819D02*
X4995233Y-94802438D01*
X4995233Y-94802438D02*
X5042852Y-94850057D01*
X5042852Y-94850057D02*
X5090471Y-94945295D01*
X5090471Y-94945295D02*
X5090471Y-95040533D01*
X5090471Y-95040533D02*
X5042852Y-95135771D01*
X5042852Y-95135771D02*
X4995233Y-95183390D01*
X4995233Y-95183390D02*
X4899995Y-95231009D01*
X4899995Y-95231009D02*
X4566662Y-95231009D01*
X5566662Y-95754819D02*
X5566662Y-95088152D01*
X5566662Y-95278628D02*
X5614281Y-95183390D01*
X5614281Y-95183390D02*
X5661900Y-95135771D01*
X5661900Y-95135771D02*
X5757138Y-95088152D01*
X5757138Y-95088152D02*
X5852376Y-95088152D01*
X6566662Y-95707200D02*
X6471424Y-95754819D01*
X6471424Y-95754819D02*
X6280948Y-95754819D01*
X6280948Y-95754819D02*
X6185710Y-95707200D01*
X6185710Y-95707200D02*
X6138091Y-95611961D01*
X6138091Y-95611961D02*
X6138091Y-95231009D01*
X6138091Y-95231009D02*
X6185710Y-95135771D01*
X6185710Y-95135771D02*
X6280948Y-95088152D01*
X6280948Y-95088152D02*
X6471424Y-95088152D01*
X6471424Y-95088152D02*
X6566662Y-95135771D01*
X6566662Y-95135771D02*
X6614281Y-95231009D01*
X6614281Y-95231009D02*
X6614281Y-95326247D01*
X6614281Y-95326247D02*
X6138091Y-95421485D01*
X7471424Y-95754819D02*
X7471424Y-95231009D01*
X7471424Y-95231009D02*
X7423805Y-95135771D01*
X7423805Y-95135771D02*
X7328567Y-95088152D01*
X7328567Y-95088152D02*
X7138091Y-95088152D01*
X7138091Y-95088152D02*
X7042853Y-95135771D01*
X7471424Y-95707200D02*
X7376186Y-95754819D01*
X7376186Y-95754819D02*
X7138091Y-95754819D01*
X7138091Y-95754819D02*
X7042853Y-95707200D01*
X7042853Y-95707200D02*
X6995234Y-95611961D01*
X6995234Y-95611961D02*
X6995234Y-95516723D01*
X6995234Y-95516723D02*
X7042853Y-95421485D01*
X7042853Y-95421485D02*
X7138091Y-95373866D01*
X7138091Y-95373866D02*
X7376186Y-95373866D01*
X7376186Y-95373866D02*
X7471424Y-95326247D01*
X7947615Y-95754819D02*
X7947615Y-94754819D01*
X8042853Y-95373866D02*
X8328567Y-95754819D01*
X8328567Y-95088152D02*
X7947615Y-95469104D01*
X9376187Y-95088152D02*
X9757139Y-95088152D01*
X9519044Y-94754819D02*
X9519044Y-95611961D01*
X9519044Y-95611961D02*
X9566663Y-95707200D01*
X9566663Y-95707200D02*
X9661901Y-95754819D01*
X9661901Y-95754819D02*
X9757139Y-95754819D01*
X10519044Y-95754819D02*
X10519044Y-95231009D01*
X10519044Y-95231009D02*
X10471425Y-95135771D01*
X10471425Y-95135771D02*
X10376187Y-95088152D01*
X10376187Y-95088152D02*
X10185711Y-95088152D01*
X10185711Y-95088152D02*
X10090473Y-95135771D01*
X10519044Y-95707200D02*
X10423806Y-95754819D01*
X10423806Y-95754819D02*
X10185711Y-95754819D01*
X10185711Y-95754819D02*
X10090473Y-95707200D01*
X10090473Y-95707200D02*
X10042854Y-95611961D01*
X10042854Y-95611961D02*
X10042854Y-95516723D01*
X10042854Y-95516723D02*
X10090473Y-95421485D01*
X10090473Y-95421485D02*
X10185711Y-95373866D01*
X10185711Y-95373866D02*
X10423806Y-95373866D01*
X10423806Y-95373866D02*
X10519044Y-95326247D01*
X10995235Y-95754819D02*
X10995235Y-94754819D01*
X10995235Y-95135771D02*
X11090473Y-95088152D01*
X11090473Y-95088152D02*
X11280949Y-95088152D01*
X11280949Y-95088152D02*
X11376187Y-95135771D01*
X11376187Y-95135771D02*
X11423806Y-95183390D01*
X11423806Y-95183390D02*
X11471425Y-95278628D01*
X11471425Y-95278628D02*
X11471425Y-95564342D01*
X11471425Y-95564342D02*
X11423806Y-95659580D01*
X11423806Y-95659580D02*
X11376187Y-95707200D01*
X11376187Y-95707200D02*
X11280949Y-95754819D01*
X11280949Y-95754819D02*
X11090473Y-95754819D01*
X11090473Y-95754819D02*
X10995235Y-95707200D01*
X11852378Y-95707200D02*
X11947616Y-95754819D01*
X11947616Y-95754819D02*
X12138092Y-95754819D01*
X12138092Y-95754819D02*
X12233330Y-95707200D01*
X12233330Y-95707200D02*
X12280949Y-95611961D01*
X12280949Y-95611961D02*
X12280949Y-95564342D01*
X12280949Y-95564342D02*
X12233330Y-95469104D01*
X12233330Y-95469104D02*
X12138092Y-95421485D01*
X12138092Y-95421485D02*
X11995235Y-95421485D01*
X11995235Y-95421485D02*
X11899997Y-95373866D01*
X11899997Y-95373866D02*
X11852378Y-95278628D01*
X11852378Y-95278628D02*
X11852378Y-95231009D01*
X11852378Y-95231009D02*
X11899997Y-95135771D01*
X11899997Y-95135771D02*
X11995235Y-95088152D01*
X11995235Y-95088152D02*
X12138092Y-95088152D01*
X12138092Y-95088152D02*
X12233330Y-95135771D01*
X13899997Y-95754819D02*
X13899997Y-95231009D01*
X13899997Y-95231009D02*
X13852378Y-95135771D01*
X13852378Y-95135771D02*
X13757140Y-95088152D01*
X13757140Y-95088152D02*
X13566664Y-95088152D01*
X13566664Y-95088152D02*
X13471426Y-95135771D01*
X13899997Y-95707200D02*
X13804759Y-95754819D01*
X13804759Y-95754819D02*
X13566664Y-95754819D01*
X13566664Y-95754819D02*
X13471426Y-95707200D01*
X13471426Y-95707200D02*
X13423807Y-95611961D01*
X13423807Y-95611961D02*
X13423807Y-95516723D01*
X13423807Y-95516723D02*
X13471426Y-95421485D01*
X13471426Y-95421485D02*
X13566664Y-95373866D01*
X13566664Y-95373866D02*
X13804759Y-95373866D01*
X13804759Y-95373866D02*
X13899997Y-95326247D01*
X14233331Y-95088152D02*
X14614283Y-95088152D01*
X14376188Y-94754819D02*
X14376188Y-95611961D01*
X14376188Y-95611961D02*
X14423807Y-95707200D01*
X14423807Y-95707200D02*
X14519045Y-95754819D01*
X14519045Y-95754819D02*
X14614283Y-95754819D01*
X15614284Y-95754819D02*
X16138093Y-95088152D01*
X15614284Y-95088152D02*
X16138093Y-95754819D01*
X16519046Y-95231009D02*
X17280951Y-95231009D01*
X17280951Y-95516723D02*
X16519046Y-95516723D01*
X17709522Y-94850057D02*
X17757141Y-94802438D01*
X17757141Y-94802438D02*
X17852379Y-94754819D01*
X17852379Y-94754819D02*
X18090474Y-94754819D01*
X18090474Y-94754819D02*
X18185712Y-94802438D01*
X18185712Y-94802438D02*
X18233331Y-94850057D01*
X18233331Y-94850057D02*
X18280950Y-94945295D01*
X18280950Y-94945295D02*
X18280950Y-95040533D01*
X18280950Y-95040533D02*
X18233331Y-95183390D01*
X18233331Y-95183390D02*
X17661903Y-95754819D01*
X17661903Y-95754819D02*
X18280950Y-95754819D01*
X19185712Y-94754819D02*
X18709522Y-94754819D01*
X18709522Y-94754819D02*
X18661903Y-95231009D01*
X18661903Y-95231009D02*
X18709522Y-95183390D01*
X18709522Y-95183390D02*
X18804760Y-95135771D01*
X18804760Y-95135771D02*
X19042855Y-95135771D01*
X19042855Y-95135771D02*
X19138093Y-95183390D01*
X19138093Y-95183390D02*
X19185712Y-95231009D01*
X19185712Y-95231009D02*
X19233331Y-95326247D01*
X19233331Y-95326247D02*
X19233331Y-95564342D01*
X19233331Y-95564342D02*
X19185712Y-95659580D01*
X19185712Y-95659580D02*
X19138093Y-95707200D01*
X19138093Y-95707200D02*
X19042855Y-95754819D01*
X19042855Y-95754819D02*
X18804760Y-95754819D01*
X18804760Y-95754819D02*
X18709522Y-95707200D01*
X18709522Y-95707200D02*
X18661903Y-95659580D01*
X19661903Y-95659580D02*
X19709522Y-95707200D01*
X19709522Y-95707200D02*
X19661903Y-95754819D01*
X19661903Y-95754819D02*
X19614284Y-95707200D01*
X19614284Y-95707200D02*
X19661903Y-95659580D01*
X19661903Y-95659580D02*
X19661903Y-95754819D01*
X20566664Y-95088152D02*
X20566664Y-95754819D01*
X20328569Y-94707200D02*
X20090474Y-95421485D01*
X20090474Y-95421485D02*
X20709521Y-95421485D01*
X22280950Y-95707200D02*
X22185712Y-95754819D01*
X22185712Y-95754819D02*
X21995236Y-95754819D01*
X21995236Y-95754819D02*
X21899998Y-95707200D01*
X21899998Y-95707200D02*
X21852379Y-95659580D01*
X21852379Y-95659580D02*
X21804760Y-95564342D01*
X21804760Y-95564342D02*
X21804760Y-95278628D01*
X21804760Y-95278628D02*
X21852379Y-95183390D01*
X21852379Y-95183390D02*
X21899998Y-95135771D01*
X21899998Y-95135771D02*
X21995236Y-95088152D01*
X21995236Y-95088152D02*
X22185712Y-95088152D01*
X22185712Y-95088152D02*
X22280950Y-95135771D01*
X23138093Y-95754819D02*
X23138093Y-95231009D01*
X23138093Y-95231009D02*
X23090474Y-95135771D01*
X23090474Y-95135771D02*
X22995236Y-95088152D01*
X22995236Y-95088152D02*
X22804760Y-95088152D01*
X22804760Y-95088152D02*
X22709522Y-95135771D01*
X23138093Y-95707200D02*
X23042855Y-95754819D01*
X23042855Y-95754819D02*
X22804760Y-95754819D01*
X22804760Y-95754819D02*
X22709522Y-95707200D01*
X22709522Y-95707200D02*
X22661903Y-95611961D01*
X22661903Y-95611961D02*
X22661903Y-95516723D01*
X22661903Y-95516723D02*
X22709522Y-95421485D01*
X22709522Y-95421485D02*
X22804760Y-95373866D01*
X22804760Y-95373866D02*
X23042855Y-95373866D01*
X23042855Y-95373866D02*
X23138093Y-95326247D01*
X23614284Y-95754819D02*
X23614284Y-95088152D01*
X23614284Y-95278628D02*
X23661903Y-95183390D01*
X23661903Y-95183390D02*
X23709522Y-95135771D01*
X23709522Y-95135771D02*
X23804760Y-95088152D01*
X23804760Y-95088152D02*
X23899998Y-95088152D01*
X24233332Y-95754819D02*
X24233332Y-95088152D01*
X24233332Y-95278628D02*
X24280951Y-95183390D01*
X24280951Y-95183390D02*
X24328570Y-95135771D01*
X24328570Y-95135771D02*
X24423808Y-95088152D01*
X24423808Y-95088152D02*
X24519046Y-95088152D01*
X24757142Y-95088152D02*
X24995237Y-95754819D01*
X25233332Y-95088152D02*
X24995237Y-95754819D01*
X24995237Y-95754819D02*
X24899999Y-95992914D01*
X24899999Y-95992914D02*
X24852380Y-96040533D01*
X24852380Y-96040533D02*
X24757142Y-96088152D01*
X26233333Y-95088152D02*
X26614285Y-95088152D01*
X26376190Y-94754819D02*
X26376190Y-95611961D01*
X26376190Y-95611961D02*
X26423809Y-95707200D01*
X26423809Y-95707200D02*
X26519047Y-95754819D01*
X26519047Y-95754819D02*
X26614285Y-95754819D01*
X26947619Y-95754819D02*
X26947619Y-94754819D01*
X27376190Y-95754819D02*
X27376190Y-95231009D01*
X27376190Y-95231009D02*
X27328571Y-95135771D01*
X27328571Y-95135771D02*
X27233333Y-95088152D01*
X27233333Y-95088152D02*
X27090476Y-95088152D01*
X27090476Y-95088152D02*
X26995238Y-95135771D01*
X26995238Y-95135771D02*
X26947619Y-95183390D01*
X28233333Y-95707200D02*
X28138095Y-95754819D01*
X28138095Y-95754819D02*
X27947619Y-95754819D01*
X27947619Y-95754819D02*
X27852381Y-95707200D01*
X27852381Y-95707200D02*
X27804762Y-95611961D01*
X27804762Y-95611961D02*
X27804762Y-95231009D01*
X27804762Y-95231009D02*
X27852381Y-95135771D01*
X27852381Y-95135771D02*
X27947619Y-95088152D01*
X27947619Y-95088152D02*
X28138095Y-95088152D01*
X28138095Y-95088152D02*
X28233333Y-95135771D01*
X28233333Y-95135771D02*
X28280952Y-95231009D01*
X28280952Y-95231009D02*
X28280952Y-95326247D01*
X28280952Y-95326247D02*
X27804762Y-95421485D01*
X29471429Y-95754819D02*
X29471429Y-94754819D01*
X29471429Y-95135771D02*
X29566667Y-95088152D01*
X29566667Y-95088152D02*
X29757143Y-95088152D01*
X29757143Y-95088152D02*
X29852381Y-95135771D01*
X29852381Y-95135771D02*
X29900000Y-95183390D01*
X29900000Y-95183390D02*
X29947619Y-95278628D01*
X29947619Y-95278628D02*
X29947619Y-95564342D01*
X29947619Y-95564342D02*
X29900000Y-95659580D01*
X29900000Y-95659580D02*
X29852381Y-95707200D01*
X29852381Y-95707200D02*
X29757143Y-95754819D01*
X29757143Y-95754819D02*
X29566667Y-95754819D01*
X29566667Y-95754819D02*
X29471429Y-95707200D01*
X30804762Y-95088152D02*
X30804762Y-95754819D01*
X30376191Y-95088152D02*
X30376191Y-95611961D01*
X30376191Y-95611961D02*
X30423810Y-95707200D01*
X30423810Y-95707200D02*
X30519048Y-95754819D01*
X30519048Y-95754819D02*
X30661905Y-95754819D01*
X30661905Y-95754819D02*
X30757143Y-95707200D01*
X30757143Y-95707200D02*
X30804762Y-95659580D01*
X31233334Y-95707200D02*
X31328572Y-95754819D01*
X31328572Y-95754819D02*
X31519048Y-95754819D01*
X31519048Y-95754819D02*
X31614286Y-95707200D01*
X31614286Y-95707200D02*
X31661905Y-95611961D01*
X31661905Y-95611961D02*
X31661905Y-95564342D01*
X31661905Y-95564342D02*
X31614286Y-95469104D01*
X31614286Y-95469104D02*
X31519048Y-95421485D01*
X31519048Y-95421485D02*
X31376191Y-95421485D01*
X31376191Y-95421485D02*
X31280953Y-95373866D01*
X31280953Y-95373866D02*
X31233334Y-95278628D01*
X31233334Y-95278628D02*
X31233334Y-95231009D01*
X31233334Y-95231009D02*
X31280953Y-95135771D01*
X31280953Y-95135771D02*
X31376191Y-95088152D01*
X31376191Y-95088152D02*
X31519048Y-95088152D01*
X31519048Y-95088152D02*
X31614286Y-95135771D01*
X32852382Y-95373866D02*
X33614287Y-95373866D01*
X34852382Y-95754819D02*
X34852382Y-95088152D01*
X34852382Y-95278628D02*
X34900001Y-95183390D01*
X34900001Y-95183390D02*
X34947620Y-95135771D01*
X34947620Y-95135771D02*
X35042858Y-95088152D01*
X35042858Y-95088152D02*
X35138096Y-95088152D01*
X35614287Y-95754819D02*
X35519049Y-95707200D01*
X35519049Y-95707200D02*
X35471430Y-95659580D01*
X35471430Y-95659580D02*
X35423811Y-95564342D01*
X35423811Y-95564342D02*
X35423811Y-95278628D01*
X35423811Y-95278628D02*
X35471430Y-95183390D01*
X35471430Y-95183390D02*
X35519049Y-95135771D01*
X35519049Y-95135771D02*
X35614287Y-95088152D01*
X35614287Y-95088152D02*
X35757144Y-95088152D01*
X35757144Y-95088152D02*
X35852382Y-95135771D01*
X35852382Y-95135771D02*
X35900001Y-95183390D01*
X35900001Y-95183390D02*
X35947620Y-95278628D01*
X35947620Y-95278628D02*
X35947620Y-95564342D01*
X35947620Y-95564342D02*
X35900001Y-95659580D01*
X35900001Y-95659580D02*
X35852382Y-95707200D01*
X35852382Y-95707200D02*
X35757144Y-95754819D01*
X35757144Y-95754819D02*
X35614287Y-95754819D01*
X36804763Y-95088152D02*
X36804763Y-95754819D01*
X36376192Y-95088152D02*
X36376192Y-95611961D01*
X36376192Y-95611961D02*
X36423811Y-95707200D01*
X36423811Y-95707200D02*
X36519049Y-95754819D01*
X36519049Y-95754819D02*
X36661906Y-95754819D01*
X36661906Y-95754819D02*
X36757144Y-95707200D01*
X36757144Y-95707200D02*
X36804763Y-95659580D01*
X37138097Y-95088152D02*
X37519049Y-95088152D01*
X37280954Y-94754819D02*
X37280954Y-95611961D01*
X37280954Y-95611961D02*
X37328573Y-95707200D01*
X37328573Y-95707200D02*
X37423811Y-95754819D01*
X37423811Y-95754819D02*
X37519049Y-95754819D01*
X39042859Y-95754819D02*
X39042859Y-95231009D01*
X39042859Y-95231009D02*
X38995240Y-95135771D01*
X38995240Y-95135771D02*
X38900002Y-95088152D01*
X38900002Y-95088152D02*
X38709526Y-95088152D01*
X38709526Y-95088152D02*
X38614288Y-95135771D01*
X39042859Y-95707200D02*
X38947621Y-95754819D01*
X38947621Y-95754819D02*
X38709526Y-95754819D01*
X38709526Y-95754819D02*
X38614288Y-95707200D01*
X38614288Y-95707200D02*
X38566669Y-95611961D01*
X38566669Y-95611961D02*
X38566669Y-95516723D01*
X38566669Y-95516723D02*
X38614288Y-95421485D01*
X38614288Y-95421485D02*
X38709526Y-95373866D01*
X38709526Y-95373866D02*
X38947621Y-95373866D01*
X38947621Y-95373866D02*
X39042859Y-95326247D01*
X39376193Y-95088152D02*
X39757145Y-95088152D01*
X39519050Y-94754819D02*
X39519050Y-95611961D01*
X39519050Y-95611961D02*
X39566669Y-95707200D01*
X39566669Y-95707200D02*
X39661907Y-95754819D01*
X39661907Y-95754819D02*
X39757145Y-95754819D01*
X41280955Y-95754819D02*
X41280955Y-94754819D01*
X41280955Y-95707200D02*
X41185717Y-95754819D01*
X41185717Y-95754819D02*
X40995241Y-95754819D01*
X40995241Y-95754819D02*
X40900003Y-95707200D01*
X40900003Y-95707200D02*
X40852384Y-95659580D01*
X40852384Y-95659580D02*
X40804765Y-95564342D01*
X40804765Y-95564342D02*
X40804765Y-95278628D01*
X40804765Y-95278628D02*
X40852384Y-95183390D01*
X40852384Y-95183390D02*
X40900003Y-95135771D01*
X40900003Y-95135771D02*
X40995241Y-95088152D01*
X40995241Y-95088152D02*
X41185717Y-95088152D01*
X41185717Y-95088152D02*
X41280955Y-95135771D01*
X42138098Y-95707200D02*
X42042860Y-95754819D01*
X42042860Y-95754819D02*
X41852384Y-95754819D01*
X41852384Y-95754819D02*
X41757146Y-95707200D01*
X41757146Y-95707200D02*
X41709527Y-95611961D01*
X41709527Y-95611961D02*
X41709527Y-95231009D01*
X41709527Y-95231009D02*
X41757146Y-95135771D01*
X41757146Y-95135771D02*
X41852384Y-95088152D01*
X41852384Y-95088152D02*
X42042860Y-95088152D01*
X42042860Y-95088152D02*
X42138098Y-95135771D01*
X42138098Y-95135771D02*
X42185717Y-95231009D01*
X42185717Y-95231009D02*
X42185717Y-95326247D01*
X42185717Y-95326247D02*
X41709527Y-95421485D01*
X42614289Y-95088152D02*
X42614289Y-96088152D01*
X42614289Y-95135771D02*
X42709527Y-95088152D01*
X42709527Y-95088152D02*
X42900003Y-95088152D01*
X42900003Y-95088152D02*
X42995241Y-95135771D01*
X42995241Y-95135771D02*
X43042860Y-95183390D01*
X43042860Y-95183390D02*
X43090479Y-95278628D01*
X43090479Y-95278628D02*
X43090479Y-95564342D01*
X43090479Y-95564342D02*
X43042860Y-95659580D01*
X43042860Y-95659580D02*
X42995241Y-95707200D01*
X42995241Y-95707200D02*
X42900003Y-95754819D01*
X42900003Y-95754819D02*
X42709527Y-95754819D01*
X42709527Y-95754819D02*
X42614289Y-95707200D01*
X43947622Y-95754819D02*
X43947622Y-95231009D01*
X43947622Y-95231009D02*
X43900003Y-95135771D01*
X43900003Y-95135771D02*
X43804765Y-95088152D01*
X43804765Y-95088152D02*
X43614289Y-95088152D01*
X43614289Y-95088152D02*
X43519051Y-95135771D01*
X43947622Y-95707200D02*
X43852384Y-95754819D01*
X43852384Y-95754819D02*
X43614289Y-95754819D01*
X43614289Y-95754819D02*
X43519051Y-95707200D01*
X43519051Y-95707200D02*
X43471432Y-95611961D01*
X43471432Y-95611961D02*
X43471432Y-95516723D01*
X43471432Y-95516723D02*
X43519051Y-95421485D01*
X43519051Y-95421485D02*
X43614289Y-95373866D01*
X43614289Y-95373866D02*
X43852384Y-95373866D01*
X43852384Y-95373866D02*
X43947622Y-95326247D01*
X44423813Y-95088152D02*
X44423813Y-95754819D01*
X44423813Y-95183390D02*
X44471432Y-95135771D01*
X44471432Y-95135771D02*
X44566670Y-95088152D01*
X44566670Y-95088152D02*
X44709527Y-95088152D01*
X44709527Y-95088152D02*
X44804765Y-95135771D01*
X44804765Y-95135771D02*
X44852384Y-95231009D01*
X44852384Y-95231009D02*
X44852384Y-95754819D01*
X45709527Y-95707200D02*
X45614289Y-95754819D01*
X45614289Y-95754819D02*
X45423813Y-95754819D01*
X45423813Y-95754819D02*
X45328575Y-95707200D01*
X45328575Y-95707200D02*
X45280956Y-95611961D01*
X45280956Y-95611961D02*
X45280956Y-95231009D01*
X45280956Y-95231009D02*
X45328575Y-95135771D01*
X45328575Y-95135771D02*
X45423813Y-95088152D01*
X45423813Y-95088152D02*
X45614289Y-95088152D01*
X45614289Y-95088152D02*
X45709527Y-95135771D01*
X45709527Y-95135771D02*
X45757146Y-95231009D01*
X45757146Y-95231009D02*
X45757146Y-95326247D01*
X45757146Y-95326247D02*
X45280956Y-95421485D01*
X46328575Y-95754819D02*
X46233337Y-95707200D01*
X46233337Y-95707200D02*
X46185718Y-95611961D01*
X46185718Y-95611961D02*
X46185718Y-94754819D01*
%TO.C,TC1*%
D11*
X14382500Y-14980000D02*
G75*
G02*
X14217500Y-14980000I-82500J0D01*
G01*
X14217500Y-14980000D02*
G75*
G02*
X14382500Y-14980000I82500J0D01*
G01*
%TD*%
M02*
