%TF.GenerationSoftware,KiCad,Pcbnew,10.0.5-unknown-202607221313~667fa36054~ubuntu25.10.1*%
%TF.CreationDate,2026-08-07T19:19:55+00:00*%
%TF.ProjectId,solar-glow-drh-v4_0-panel,736f6c61-722d-4676-9c6f-772d6472682d,v4.0*%
%TF.SameCoordinates,Original*%
%TF.FileFunction,Soldermask,Bot*%
%TF.FilePolarity,Negative*%
%FSLAX46Y46*%
G04 Gerber Fmt 4.6, Leading zero omitted, Abs format (unit mm)*
G04 Created by KiCad (PCBNEW 10.0.5-unknown-202607221313~667fa36054~ubuntu25.10.1) date 2026-08-07 19:19:55*
%MOMM*%
%LPD*%
G01*
G04 APERTURE LIST*
G04 Aperture macros list*
%AMRoundRect*
0 Rectangle with rounded corners*
0 $1 Rounding radius*
0 $2 $3 $4 $5 $6 $7 $8 $9 X,Y pos of 4 corners*
0 Add a 4 corners polygon primitive as box body*
4,1,4,$2,$3,$4,$5,$6,$7,$8,$9,$2,$3,0*
0 Add four circle primitives for the rounded corners*
1,1,$1+$1,$2,$3*
1,1,$1+$1,$4,$5*
1,1,$1+$1,$6,$7*
1,1,$1+$1,$8,$9*
0 Add four rect primitives between the rounded corners*
20,1,$1+$1,$2,$3,$4,$5,0*
20,1,$1+$1,$4,$5,$6,$7,0*
20,1,$1+$1,$6,$7,$8,$9,0*
20,1,$1+$1,$8,$9,$2,$3,0*%
%AMFreePoly0*
4,1,6,0.180000,0.075000,0.000000,-0.105000,-0.180000,-0.105000,-0.180000,0.105000,0.180000,0.105000,0.180000,0.075000,0.180000,0.075000,$1*%
%AMFreePoly1*
4,1,6,0.180000,-0.075000,0.180000,-0.105000,-0.180000,-0.105000,-0.180000,0.105000,0.000000,0.105000,0.180000,-0.075000,0.180000,-0.075000,$1*%
%AMFreePoly2*
4,1,6,0.180000,-0.105000,0.000000,-0.105000,-0.180000,0.075000,-0.180000,0.105000,0.180000,0.105000,0.180000,-0.105000,0.180000,-0.105000,$1*%
%AMFreePoly3*
4,1,6,0.180000,-0.105000,-0.180000,-0.105000,-0.180000,-0.075000,0.000000,0.105000,0.180000,0.105000,0.180000,-0.105000,0.180000,-0.105000,$1*%
G04 Aperture macros list end*
%ADD10C,0.000000*%
%ADD11C,3.600000*%
%ADD12C,2.374900*%
%ADD13C,0.990600*%
%ADD14RoundRect,0.875000X-5.250000X0.875000X-5.250000X-0.875000X5.250000X-0.875000X5.250000X0.875000X0*%
%ADD15RoundRect,0.875000X-3.000000X0.875000X-3.000000X-0.875000X3.000000X-0.875000X3.000000X0.875000X0*%
%ADD16RoundRect,0.147500X-0.147500X-0.182500X0.147500X-0.182500X0.147500X0.182500X-0.147500X0.182500X0*%
%ADD17RoundRect,0.147500X0.147500X0.182500X-0.147500X0.182500X-0.147500X-0.182500X0.147500X-0.182500X0*%
%ADD18C,0.330000*%
%ADD19R,0.700000X0.800000*%
%ADD20RoundRect,0.147500X0.182500X-0.147500X0.182500X0.147500X-0.182500X0.147500X-0.182500X-0.147500X0*%
%ADD21RoundRect,0.200000X-0.275000X0.200000X-0.275000X-0.200000X0.275000X-0.200000X0.275000X0.200000X0*%
%ADD22RoundRect,0.225000X0.225000X0.250000X-0.225000X0.250000X-0.225000X-0.250000X0.225000X-0.250000X0*%
%ADD23C,1.000000*%
%ADD24RoundRect,0.050000X-0.350000X-0.050000X0.350000X-0.050000X0.350000X0.050000X-0.350000X0.050000X0*%
%ADD25RoundRect,0.050000X-0.050000X-0.350000X0.050000X-0.350000X0.050000X0.350000X-0.050000X0.350000X0*%
%ADD26RoundRect,0.575000X-0.575000X-0.575000X0.575000X-0.575000X0.575000X0.575000X-0.575000X0.575000X0*%
%ADD27RoundRect,0.162500X-0.162500X-0.187500X0.162500X-0.187500X0.162500X0.187500X-0.162500X0.187500X0*%
%ADD28RoundRect,0.662500X-0.662500X-0.662500X0.662500X-0.662500X0.662500X0.662500X-0.662500X0.662500X0*%
%ADD29RoundRect,0.150000X-0.650000X-0.150000X0.650000X-0.150000X0.650000X0.150000X-0.650000X0.150000X0*%
%ADD30RoundRect,0.375000X-0.375000X-0.625000X0.375000X-0.625000X0.375000X0.625000X-0.375000X0.625000X0*%
%ADD31RoundRect,0.250000X0.650000X-0.412500X0.650000X0.412500X-0.650000X0.412500X-0.650000X-0.412500X0*%
%ADD32RoundRect,0.062500X-0.137500X-0.062500X0.137500X-0.062500X0.137500X0.062500X-0.137500X0.062500X0*%
%ADD33RoundRect,0.062500X-0.062500X-0.137500X0.062500X-0.137500X0.062500X0.137500X-0.062500X0.137500X0*%
%ADD34RoundRect,0.250000X-0.650000X0.412500X-0.650000X-0.412500X0.650000X-0.412500X0.650000X0.412500X0*%
%ADD35RoundRect,0.425000X-0.425000X-0.425000X0.425000X-0.425000X0.425000X0.425000X-0.425000X0.425000X0*%
%ADD36RoundRect,0.225000X0.250000X-0.225000X0.250000X0.225000X-0.250000X0.225000X-0.250000X-0.225000X0*%
%ADD37RoundRect,0.147500X-0.182500X0.147500X-0.182500X-0.147500X0.182500X-0.147500X0.182500X0.147500X0*%
%ADD38RoundRect,0.225000X-0.250000X0.225000X-0.250000X-0.225000X0.250000X-0.225000X0.250000X0.225000X0*%
%ADD39RoundRect,0.200000X0.275000X-0.200000X0.275000X0.200000X-0.275000X0.200000X-0.275000X-0.200000X0*%
%ADD40RoundRect,0.875000X3.000000X-0.875000X3.000000X0.875000X-3.000000X0.875000X-3.000000X-0.875000X0*%
%ADD41RoundRect,0.218750X-0.256250X0.218750X-0.256250X-0.218750X0.256250X-0.218750X0.256250X0.218750X0*%
%ADD42RoundRect,0.250000X-0.850000X0.375000X-0.850000X-0.375000X0.850000X-0.375000X0.850000X0.375000X0*%
%ADD43R,0.381000X0.330200*%
%ADD44R,0.330200X0.381000*%
%ADD45RoundRect,0.147500X0.182500X0.147500X-0.182500X0.147500X-0.182500X-0.147500X0.182500X-0.147500X0*%
%ADD46RoundRect,0.140000X-0.140000X-0.170000X0.140000X-0.170000X0.140000X0.170000X-0.140000X0.170000X0*%
%ADD47RoundRect,0.100000X0.100000X-0.155000X0.100000X0.155000X-0.100000X0.155000X-0.100000X-0.155000X0*%
%ADD48RoundRect,0.225000X-0.225000X-0.250000X0.225000X-0.250000X0.225000X0.250000X-0.225000X0.250000X0*%
%ADD49RoundRect,0.200000X-0.200000X-0.275000X0.200000X-0.275000X0.200000X0.275000X-0.200000X0.275000X0*%
%ADD50C,0.900000*%
%ADD51FreePoly0,90.000000*%
%ADD52FreePoly1,90.000000*%
%ADD53FreePoly2,90.000000*%
%ADD54FreePoly3,90.000000*%
%ADD55RoundRect,0.070000X0.169706X0.000000X0.000000X0.169706X-0.169706X0.000000X0.000000X-0.169706X0*%
%ADD56C,0.500000*%
%ADD57C,1.500000*%
%ADD58C,2.000000*%
G04 APERTURE END LIST*
D10*
G36*
X35262738Y-40305800D02*
G01*
X35379238Y-40323100D01*
X35493438Y-40351700D01*
X35604338Y-40391300D01*
X35710838Y-40441700D01*
X35811838Y-40502200D01*
X35906438Y-40572400D01*
X35993638Y-40651500D01*
X36072738Y-40738700D01*
X36142938Y-40833300D01*
X36203438Y-40934300D01*
X36253838Y-41040800D01*
X36293438Y-41151700D01*
X36322038Y-41265900D01*
X36339338Y-41382400D01*
X36345138Y-41500000D01*
X36345138Y-46300000D01*
X36339338Y-46417600D01*
X36322038Y-46534100D01*
X36293438Y-46648300D01*
X36253838Y-46759200D01*
X36203438Y-46865700D01*
X36142938Y-46966700D01*
X36072738Y-47061300D01*
X35993638Y-47148500D01*
X35906438Y-47227600D01*
X35811838Y-47297800D01*
X35710838Y-47358300D01*
X35604338Y-47408700D01*
X35493438Y-47448300D01*
X35379238Y-47476900D01*
X35262738Y-47494200D01*
X35145138Y-47500000D01*
X15645138Y-47500000D01*
X15527538Y-47494200D01*
X15411038Y-47476900D01*
X15296838Y-47448300D01*
X15185938Y-47408700D01*
X15079438Y-47358300D01*
X14978438Y-47297800D01*
X14883838Y-47227600D01*
X14796638Y-47148500D01*
X14717538Y-47061300D01*
X14647338Y-46966700D01*
X14586838Y-46865700D01*
X14536438Y-46759200D01*
X14496838Y-46648300D01*
X14468238Y-46534100D01*
X14450938Y-46417600D01*
X14445138Y-46300000D01*
X14445138Y-41500000D01*
X14450938Y-41382400D01*
X14468238Y-41265900D01*
X14496838Y-41151700D01*
X14536438Y-41040800D01*
X14586838Y-40934300D01*
X14647338Y-40833300D01*
X14717538Y-40738700D01*
X14796638Y-40651500D01*
X14883838Y-40572400D01*
X14978438Y-40502200D01*
X15079438Y-40441700D01*
X15185938Y-40391300D01*
X15296838Y-40351700D01*
X15411038Y-40323100D01*
X15527538Y-40305800D01*
X15645138Y-40300000D01*
X35145138Y-40300000D01*
X35262738Y-40305800D01*
G37*
G36*
X56300000Y4300000D02*
G01*
X-5500000Y4300000D01*
X-5500000Y5500000D01*
X56300000Y5500000D01*
X56300000Y4300000D01*
G37*
G36*
X56300000Y-84050000D02*
G01*
X55100000Y-84050000D01*
X55100000Y5500000D01*
X56300000Y5500000D01*
X56300000Y-84050000D01*
G37*
G36*
X57850000Y-84050000D02*
G01*
X55100000Y-84050000D01*
X55100000Y-82850000D01*
X57850000Y-82850000D01*
X57850000Y-84050000D01*
G37*
G36*
X57850000Y-87150000D02*
G01*
X56650000Y-87150000D01*
X56650000Y-82850000D01*
X57850000Y-82850000D01*
X57850000Y-87150000D01*
G37*
G36*
X57850000Y-87150000D02*
G01*
X55100000Y-87150000D01*
X55100000Y-85950000D01*
X57850000Y-85950000D01*
X57850000Y-87150000D01*
G37*
G36*
X56300000Y-94400000D02*
G01*
X55100000Y-94400000D01*
X55100000Y-85950000D01*
X56300000Y-85950000D01*
X56300000Y-94400000D01*
G37*
G36*
X56300000Y-94400000D02*
G01*
X-5500000Y-94400000D01*
X-5500000Y-93200000D01*
X56300000Y-93200000D01*
X56300000Y-94400000D01*
G37*
G36*
X-4300000Y-94400000D02*
G01*
X-5500000Y-94400000D01*
X-5500000Y-20950000D01*
X-4300000Y-20950000D01*
X-4300000Y-94400000D01*
G37*
G36*
X-4300000Y-22150000D02*
G01*
X-7050000Y-22150000D01*
X-7050000Y-20950000D01*
X-4300000Y-20950000D01*
X-4300000Y-22150000D01*
G37*
G36*
X-5850000Y-22150000D02*
G01*
X-7050000Y-22150000D01*
X-7050000Y-17850000D01*
X-5850000Y-17850000D01*
X-5850000Y-22150000D01*
G37*
G36*
X-4300000Y-19050000D02*
G01*
X-7050000Y-19050000D01*
X-7050000Y-17850000D01*
X-4300000Y-17850000D01*
X-4300000Y-19050000D01*
G37*
G36*
X-4300000Y-19050000D02*
G01*
X-5500000Y-19050000D01*
X-5500000Y5500000D01*
X-4300000Y5500000D01*
X-4300000Y-19050000D01*
G37*
D11*
%TO.C,MH3*%
X2870000Y-2870000D03*
%TD*%
%TO.C,MP3*%
X2870000Y-60270000D03*
%TD*%
%TO.C,MP4*%
X47930000Y-60270000D03*
%TD*%
%TO.C,MP1*%
X2870000Y-28630000D03*
%TD*%
%TO.C,MH2*%
X47930000Y-86030000D03*
%TD*%
%TO.C,MP2*%
X47930000Y-28630000D03*
%TD*%
%TO.C,MH1*%
X2870000Y-86030000D03*
%TD*%
%TO.C,MH4*%
X47930000Y-2870000D03*
%TD*%
D12*
%TO.C,*%
X10760000Y-14360000D03*
X10760000Y-17535000D03*
D13*
X12284000Y-19440000D03*
X13300000Y-14360000D03*
X14316000Y-19440000D03*
D12*
X15840000Y-14360000D03*
X15840000Y-17535000D03*
%TD*%
D14*
%TO.C,SC1*%
X13594983Y-2924021D03*
D15*
X13594983Y-38024021D03*
%TD*%
D16*
%TO.C,R2*%
X24860000Y-51240000D03*
X25880000Y-51240000D03*
%TD*%
D17*
%TO.C,R10*%
X30980000Y-32300000D03*
X29960000Y-32300000D03*
%TD*%
D18*
%TO.C,U6*%
X26949628Y-16061436D03*
X27349628Y-16061436D03*
X26949628Y-15661436D03*
X27349628Y-15661436D03*
%TD*%
D19*
%TO.C,SW2*%
X25480000Y-50260000D03*
X26380000Y-50260000D03*
%TD*%
D20*
%TO.C,C12*%
X26000000Y-31010000D03*
X26000000Y-29990000D03*
%TD*%
D21*
%TO.C,R16*%
X6149213Y-54950453D03*
X6149213Y-56600453D03*
%TD*%
D22*
%TO.C,C13*%
X26775000Y-48150000D03*
X25225000Y-48150000D03*
%TD*%
D23*
%TO.C,TP5*%
X32260000Y-50600000D03*
%TD*%
D16*
%TO.C,C1*%
X10700000Y-41610000D03*
X11720000Y-41610000D03*
%TD*%
D20*
%TO.C,C6*%
X25437128Y-17181436D03*
X25437128Y-16161436D03*
%TD*%
D24*
%TO.C,U8*%
X29200000Y-52800000D03*
X29200000Y-53200000D03*
X29200000Y-53600000D03*
X29200000Y-54000000D03*
X29200000Y-54400000D03*
X29200000Y-54800000D03*
X29200000Y-55200000D03*
D25*
X30000000Y-56000000D03*
X30400000Y-56000000D03*
X30800000Y-56000000D03*
X31200000Y-56000000D03*
X31600000Y-56000000D03*
X32000000Y-56000000D03*
X32400000Y-56000000D03*
D24*
X33200000Y-55200000D03*
X33200000Y-54800000D03*
X33200000Y-54400000D03*
X33200000Y-54000000D03*
X33200000Y-53600000D03*
X33200000Y-53200000D03*
X33200000Y-52800000D03*
D25*
X32400000Y-52000000D03*
X32000000Y-52000000D03*
X31600000Y-52000000D03*
X31200000Y-52000000D03*
X30800000Y-52000000D03*
X30400000Y-52000000D03*
X30000000Y-52000000D03*
D26*
X31200000Y-54000000D03*
%TD*%
D27*
%TO.C,D4*%
X27150000Y-44300000D03*
X30250000Y-43500000D03*
%TD*%
D24*
%TO.C,U1*%
X6229600Y-42869000D03*
X6229600Y-43269000D03*
X6229600Y-43669000D03*
X6229600Y-44069000D03*
X6229600Y-44469000D03*
X6229600Y-44869000D03*
X6229600Y-45269000D03*
D25*
X7029600Y-46069000D03*
X7429600Y-46069000D03*
X7829600Y-46069000D03*
X8229600Y-46069000D03*
X8629600Y-46069000D03*
X9029600Y-46069000D03*
X9429600Y-46069000D03*
D24*
X10229600Y-45269000D03*
X10229600Y-44869000D03*
X10229600Y-44469000D03*
X10229600Y-44069000D03*
X10229600Y-43669000D03*
X10229600Y-43269000D03*
X10229600Y-42869000D03*
D25*
X9429600Y-42069000D03*
X9029600Y-42069000D03*
X8629600Y-42069000D03*
X8229600Y-42069000D03*
X7829600Y-42069000D03*
X7429600Y-42069000D03*
X7029600Y-42069000D03*
D28*
X8229600Y-44069000D03*
%TD*%
D29*
%TO.C,U7*%
X26109412Y-39304989D03*
X26109412Y-38034989D03*
X26109412Y-36764989D03*
X26109412Y-35494989D03*
X30309412Y-35494989D03*
X30309412Y-36764989D03*
X30309412Y-38034989D03*
X30309412Y-39304989D03*
%TD*%
D30*
%TO.C,J1*%
X3850000Y-35860000D03*
X3850000Y-38400000D03*
X3850000Y-40940000D03*
%TD*%
D23*
%TO.C,TP3*%
X25400000Y-11100000D03*
%TD*%
D17*
%TO.C,C24*%
X5437600Y-52705000D03*
X4417600Y-52705000D03*
%TD*%
D27*
%TO.C,D5*%
X33150000Y-44300000D03*
X36250000Y-43500000D03*
%TD*%
D31*
%TO.C,C27*%
X2800000Y-51622500D03*
X2800000Y-48497500D03*
%TD*%
D16*
%TO.C,R4*%
X34310000Y-48300000D03*
X35330000Y-48300000D03*
%TD*%
D23*
%TO.C,TP4*%
X29210000Y-57940000D03*
%TD*%
D31*
%TO.C,C25*%
X26270000Y-55812500D03*
X26270000Y-52687500D03*
%TD*%
D32*
%TO.C,U5*%
X34352000Y-33750000D03*
X34352000Y-34250000D03*
D33*
X34802000Y-34700000D03*
X35302000Y-34700000D03*
D32*
X35752000Y-34250000D03*
X35752000Y-33750000D03*
D33*
X35302000Y-33300000D03*
X34802000Y-33300000D03*
%TD*%
D34*
%TO.C,C26*%
X35570000Y-51727500D03*
X35570000Y-54852500D03*
%TD*%
D35*
%TO.C,TP1*%
X48400000Y-12000000D03*
%TD*%
D36*
%TO.C,C9*%
X35710000Y-38725000D03*
X35710000Y-37175000D03*
%TD*%
D17*
%TO.C,R14*%
X27160000Y-14710000D03*
X26140000Y-14710000D03*
%TD*%
D23*
%TO.C,TP6*%
X25110000Y-57440000D03*
%TD*%
D37*
%TO.C,R3*%
X28120000Y-48280000D03*
X28120000Y-49300000D03*
%TD*%
D17*
%TO.C,C8*%
X31030000Y-33260000D03*
X30010000Y-33260000D03*
%TD*%
D38*
%TO.C,C4*%
X27227128Y-17336436D03*
X27227128Y-18886436D03*
%TD*%
D37*
%TO.C,R17*%
X35623636Y-56100612D03*
X35623636Y-57120612D03*
%TD*%
D39*
%TO.C,R6*%
X25270000Y-24415000D03*
X25270000Y-22765000D03*
%TD*%
D35*
%TO.C,JP1*%
X48400000Y-14540000D03*
X48400000Y-17080000D03*
X48400000Y-19620000D03*
X48400000Y-22160000D03*
%TD*%
D14*
%TO.C,SC3*%
X15646400Y-85950300D03*
D40*
X15646400Y-50850300D03*
%TD*%
D41*
%TO.C,FB1*%
X1675000Y-53237500D03*
X1675000Y-54812500D03*
%TD*%
D17*
%TO.C,C3*%
X6199600Y-47955200D03*
X5179600Y-47955200D03*
%TD*%
D27*
%TO.C,D3*%
X20850000Y-44300000D03*
X23950000Y-43500000D03*
%TD*%
D42*
%TO.C,L2*%
X27060000Y-57615000D03*
X27060000Y-59765000D03*
%TD*%
D27*
%TO.C,D2*%
X14550000Y-44300000D03*
X17650000Y-43500000D03*
%TD*%
D16*
%TO.C,R18*%
X26270000Y-61870000D03*
X27290000Y-61870000D03*
%TD*%
D43*
%TO.C,U3*%
X26663600Y-32049999D03*
X26663600Y-32550000D03*
X26663600Y-33050000D03*
X26663600Y-33550001D03*
D44*
X26050000Y-33714400D03*
X25550000Y-33714400D03*
D43*
X24936400Y-33550001D03*
X24936400Y-33050000D03*
X24936400Y-32550000D03*
X24936400Y-32049999D03*
D44*
X25550000Y-31885600D03*
X26050000Y-31885600D03*
%TD*%
D37*
%TO.C,C5*%
X13130000Y-45350000D03*
X13130000Y-46370000D03*
%TD*%
D38*
%TO.C,C22*%
X1677448Y-56214966D03*
X1677448Y-57764966D03*
%TD*%
D20*
%TO.C,R11*%
X28433633Y-33678887D03*
X28433633Y-32658887D03*
%TD*%
D23*
%TO.C,TP7*%
X3080000Y-55920000D03*
%TD*%
D17*
%TO.C,R1*%
X6199600Y-49047400D03*
X5179600Y-49047400D03*
%TD*%
D23*
%TO.C,TP2*%
X27350000Y-12710000D03*
%TD*%
D45*
%TO.C,C7*%
X27180000Y-13820000D03*
X26160000Y-13820000D03*
%TD*%
D46*
%TO.C,C28*%
X32261221Y-39322571D03*
X33221221Y-39322571D03*
%TD*%
D14*
%TO.C,SC4*%
X37155600Y-85950000D03*
D40*
X37155600Y-61350000D03*
%TD*%
D47*
%TO.C,Q2*%
X26270000Y-62940000D03*
X27270000Y-62940000D03*
X26770000Y-64230000D03*
%TD*%
D37*
%TO.C,C29*%
X11575000Y-44115000D03*
X11575000Y-45135000D03*
%TD*%
D14*
%TO.C,SC2*%
X37003758Y-2974252D03*
D15*
X37003758Y-27574252D03*
%TD*%
D48*
%TO.C,C23*%
X4598422Y-58200091D03*
X6148422Y-58200091D03*
%TD*%
D21*
%TO.C,R5*%
X26850000Y-22755000D03*
X26850000Y-24405000D03*
%TD*%
D17*
%TO.C,C11*%
X24110000Y-32760000D03*
X23090000Y-32760000D03*
%TD*%
D49*
%TO.C,R15*%
X3100000Y-53940000D03*
X4750000Y-53940000D03*
%TD*%
D50*
%TO.C,TC1/b1*%
X12665000Y-15630000D03*
X13935000Y-15630000D03*
X12665000Y-16900000D03*
X13935000Y-16900000D03*
X12665000Y-18170000D03*
X13935000Y-18170000D03*
%TD*%
D51*
%TO.C,U9*%
X4290000Y-56037322D03*
D52*
X4940000Y-56037322D03*
D53*
X4290000Y-55177322D03*
D54*
X4940000Y-55177322D03*
D55*
X4615000Y-55607322D03*
%TD*%
D56*
%TO.C,MB1*%
X23650000Y0D03*
X24650000Y0D03*
X26150000Y0D03*
X27150000Y0D03*
%TD*%
%TO.C,MB2*%
X23650000Y-88900000D03*
X24650000Y-88900000D03*
X26150000Y-88900000D03*
X27150000Y-88900000D03*
%TD*%
D57*
%TO.C,TH1*%
X-4900000Y-20000000D03*
%TD*%
%TO.C,TH2*%
X55700000Y-85000000D03*
%TD*%
D58*
%TO.C,FID1*%
X-6400000Y1400000D03*
%TD*%
%TO.C,FID2*%
X-6400000Y-90300000D03*
%TD*%
%TO.C,FID3*%
X57200000Y1400000D03*
%TD*%
M02*
