%TF.GenerationSoftware,KiCad,Pcbnew,10.0.5-unknown-202607221313~667fa36054~ubuntu25.10.1*%
%TF.CreationDate,2026-08-08T12:41:42+00:00*%
%TF.ProjectId,solar-glow-drh-v4_0-panel,736f6c61-722d-4676-9c6f-772d6472682d,v4.0*%
%TF.SameCoordinates,Original*%
%TF.FileFunction,Paste,Bot*%
%TF.FilePolarity,Positive*%
%FSLAX46Y46*%
G04 Gerber Fmt 4.6, Leading zero omitted, Abs format (unit mm)*
G04 Created by KiCad (PCBNEW 10.0.5-unknown-202607221313~667fa36054~ubuntu25.10.1) date 2026-08-08 12:41:42*
%MOMM*%
%LPD*%
G01*
G04 APERTURE LIST*
G04 Aperture macros list*
%AMRoundRect*
0 Rectangle with rounded corners*
0 $1 Rounding radius*
0 $2 $3 $4 $5 $6 $7 $8 $9 X,Y pos of 4 corners*
0 Add a 4 corners polygon primitive as box body*
4,1,4,$2,$3,$4,$5,$6,$7,$8,$9,$2,$3,0*
0 Add four circle primitives for the rounded corners*
1,1,$1+$1,$2,$3*
1,1,$1+$1,$4,$5*
1,1,$1+$1,$6,$7*
1,1,$1+$1,$8,$9*
0 Add four rect primitives between the rounded corners*
20,1,$1+$1,$2,$3,$4,$5,0*
20,1,$1+$1,$4,$5,$6,$7,0*
20,1,$1+$1,$6,$7,$8,$9,0*
20,1,$1+$1,$8,$9,$2,$3,0*%
%AMFreePoly0*
4,1,6,0.180000,0.075000,0.000000,-0.105000,-0.220000,-0.105000,-0.220000,0.105000,0.180000,0.105000,0.180000,0.075000,0.180000,0.075000,$1*%
%AMFreePoly1*
4,1,6,0.180000,-0.075000,0.180000,-0.105000,-0.220000,-0.105000,-0.220000,0.105000,0.000000,0.105000,0.180000,-0.075000,0.180000,-0.075000,$1*%
%AMFreePoly2*
4,1,6,0.220000,-0.105000,0.000000,-0.105000,-0.180000,0.075000,-0.180000,0.105000,0.220000,0.105000,0.220000,-0.105000,0.220000,-0.105000,$1*%
%AMFreePoly3*
4,1,6,0.220000,-0.105000,-0.180000,-0.105000,-0.180000,-0.075000,0.000000,0.105000,0.220000,0.105000,0.220000,-0.105000,0.220000,-0.105000,$1*%
G04 Aperture macros list end*
%ADD10C,0.230000*%
%ADD11RoundRect,0.147500X0.182500X-0.147500X0.182500X0.147500X-0.182500X0.147500X-0.182500X-0.147500X0*%
%ADD12RoundRect,0.200000X0.275000X-0.200000X0.275000X0.200000X-0.275000X0.200000X-0.275000X-0.200000X0*%
%ADD13RoundRect,0.225000X0.225000X0.250000X-0.225000X0.250000X-0.225000X-0.250000X0.225000X-0.250000X0*%
%ADD14RoundRect,0.147500X-0.147500X-0.182500X0.147500X-0.182500X0.147500X0.182500X-0.147500X0.182500X0*%
%ADD15R,0.400000X0.500000*%
%ADD16RoundRect,0.147500X-0.182500X0.147500X-0.182500X-0.147500X0.182500X-0.147500X0.182500X0.147500X0*%
%ADD17RoundRect,0.050000X-0.350000X-0.050000X0.350000X-0.050000X0.350000X0.050000X-0.350000X0.050000X0*%
%ADD18RoundRect,0.050000X-0.050000X-0.350000X0.050000X-0.350000X0.050000X0.350000X-0.050000X0.350000X0*%
%ADD19RoundRect,0.575000X-0.575000X-0.575000X0.575000X-0.575000X0.575000X0.575000X-0.575000X0.575000X0*%
%ADD20RoundRect,0.162500X-0.162500X-0.187500X0.162500X-0.187500X0.162500X0.187500X-0.162500X0.187500X0*%
%ADD21RoundRect,0.662500X-0.662500X-0.662500X0.662500X-0.662500X0.662500X0.662500X-0.662500X0.662500X0*%
%ADD22RoundRect,0.140000X-0.140000X-0.170000X0.140000X-0.170000X0.140000X0.170000X-0.140000X0.170000X0*%
%ADD23RoundRect,0.150000X-0.650000X-0.150000X0.650000X-0.150000X0.650000X0.150000X-0.650000X0.150000X0*%
%ADD24RoundRect,0.147500X0.147500X0.182500X-0.147500X0.182500X-0.147500X-0.182500X0.147500X-0.182500X0*%
%ADD25RoundRect,0.250000X0.412500X0.650000X-0.412500X0.650000X-0.412500X-0.650000X0.412500X-0.650000X0*%
%ADD26RoundRect,0.250000X0.650000X-0.412500X0.650000X0.412500X-0.650000X0.412500X-0.650000X-0.412500X0*%
%ADD27RoundRect,0.062500X-0.137500X-0.062500X0.137500X-0.062500X0.137500X0.062500X-0.137500X0.062500X0*%
%ADD28RoundRect,0.062500X-0.062500X-0.137500X0.062500X-0.137500X0.062500X0.137500X-0.062500X0.137500X0*%
%ADD29RoundRect,0.250000X-0.650000X0.412500X-0.650000X-0.412500X0.650000X-0.412500X0.650000X0.412500X0*%
%ADD30RoundRect,0.225000X0.250000X-0.225000X0.250000X0.225000X-0.250000X0.225000X-0.250000X-0.225000X0*%
%ADD31RoundRect,0.218750X-0.256250X0.218750X-0.256250X-0.218750X0.256250X-0.218750X0.256250X0.218750X0*%
%ADD32R,0.294000X0.500000*%
%ADD33RoundRect,0.250000X-0.850000X0.375000X-0.850000X-0.375000X0.850000X-0.375000X0.850000X0.375000X0*%
%ADD34R,0.381000X0.330200*%
%ADD35R,0.330200X0.381000*%
%ADD36RoundRect,0.225000X-0.250000X0.225000X-0.250000X-0.225000X0.250000X-0.225000X0.250000X0.225000X0*%
%ADD37RoundRect,0.100000X0.100000X-0.155000X0.100000X0.155000X-0.100000X0.155000X-0.100000X-0.155000X0*%
%ADD38RoundRect,0.200000X-0.275000X0.200000X-0.275000X-0.200000X0.275000X-0.200000X0.275000X0.200000X0*%
%ADD39RoundRect,0.200000X0.200000X0.275000X-0.200000X0.275000X-0.200000X-0.275000X0.200000X-0.275000X0*%
%ADD40FreePoly0,90.000000*%
%ADD41FreePoly1,90.000000*%
%ADD42FreePoly2,90.000000*%
%ADD43FreePoly3,90.000000*%
%ADD44RoundRect,0.055000X0.000000X-0.169706X0.169706X0.000000X0.000000X0.169706X-0.169706X0.000000X0*%
G04 APERTURE END LIST*
D10*
%TO.C,U6*%
X26949628Y-16061436D03*
X27349628Y-16061436D03*
X26949628Y-15661436D03*
X27349628Y-15661436D03*
%TD*%
D11*
%TO.C,C12*%
X26000000Y-31010000D03*
X26000000Y-29990000D03*
%TD*%
D12*
%TO.C,R16*%
X3098800Y-47916600D03*
X3098800Y-46266600D03*
%TD*%
D13*
%TO.C,C13*%
X26775000Y-48150000D03*
X25225000Y-48150000D03*
%TD*%
D14*
%TO.C,C1*%
X10320000Y-41250000D03*
X11340000Y-41250000D03*
%TD*%
D15*
%TO.C,RN2*%
X28750000Y-32450000D03*
X28050000Y-32450000D03*
X28050000Y-33450000D03*
X28750000Y-33450000D03*
%TD*%
D16*
%TO.C,C6*%
X27520000Y-16970000D03*
X27520000Y-17990000D03*
%TD*%
D17*
%TO.C,U8*%
X29200000Y-52800000D03*
X29200000Y-53200000D03*
X29200000Y-53600000D03*
X29200000Y-54000000D03*
X29200000Y-54400000D03*
X29200000Y-54800000D03*
X29200000Y-55200000D03*
D18*
X30000000Y-56000000D03*
X30400000Y-56000000D03*
X30800000Y-56000000D03*
X31200000Y-56000000D03*
X31600000Y-56000000D03*
X32000000Y-56000000D03*
X32400000Y-56000000D03*
D17*
X33200000Y-55200000D03*
X33200000Y-54800000D03*
X33200000Y-54400000D03*
X33200000Y-54000000D03*
X33200000Y-53600000D03*
X33200000Y-53200000D03*
X33200000Y-52800000D03*
D18*
X32400000Y-52000000D03*
X32000000Y-52000000D03*
X31600000Y-52000000D03*
X31200000Y-52000000D03*
X30800000Y-52000000D03*
X30400000Y-52000000D03*
X30000000Y-52000000D03*
D19*
X31200000Y-54000000D03*
%TD*%
D20*
%TO.C,D4*%
X27150000Y-44300000D03*
X30250000Y-43500000D03*
%TD*%
D17*
%TO.C,U1*%
X6229600Y-42869000D03*
X6229600Y-43269000D03*
X6229600Y-43669000D03*
X6229600Y-44069000D03*
X6229600Y-44469000D03*
X6229600Y-44869000D03*
X6229600Y-45269000D03*
D18*
X7029600Y-46069000D03*
X7429600Y-46069000D03*
X7829600Y-46069000D03*
X8229600Y-46069000D03*
X8629600Y-46069000D03*
X9029600Y-46069000D03*
X9429600Y-46069000D03*
D17*
X10229600Y-45269000D03*
X10229600Y-44869000D03*
X10229600Y-44469000D03*
X10229600Y-44069000D03*
X10229600Y-43669000D03*
X10229600Y-43269000D03*
X10229600Y-42869000D03*
D18*
X9429600Y-42069000D03*
X9029600Y-42069000D03*
X8629600Y-42069000D03*
X8229600Y-42069000D03*
X7829600Y-42069000D03*
X7429600Y-42069000D03*
X7029600Y-42069000D03*
D21*
X8229600Y-44069000D03*
%TD*%
D22*
%TO.C,C30*%
X34350000Y-38430000D03*
X34350000Y-37470000D03*
%TD*%
D23*
%TO.C,U7*%
X26109412Y-39304989D03*
X26109412Y-38034989D03*
X26109412Y-36764989D03*
X26109412Y-35494989D03*
X30309412Y-35494989D03*
X30309412Y-36764989D03*
X30309412Y-38034989D03*
X30309412Y-39304989D03*
%TD*%
D24*
%TO.C,C24*%
X3862800Y-49072800D03*
X2842800Y-49072800D03*
%TD*%
D20*
%TO.C,D5*%
X33150000Y-44300000D03*
X36250000Y-43500000D03*
%TD*%
D25*
%TO.C,C27*%
X34882500Y-49650000D03*
X31757500Y-49650000D03*
%TD*%
D26*
%TO.C,C25*%
X26270000Y-55812500D03*
X26270000Y-52687500D03*
%TD*%
D27*
%TO.C,U5*%
X34352000Y-33750000D03*
X34352000Y-34250000D03*
D28*
X34802000Y-34700000D03*
X35302000Y-34700000D03*
D27*
X35752000Y-34250000D03*
X35752000Y-33750000D03*
D28*
X35302000Y-33300000D03*
X34802000Y-33300000D03*
%TD*%
D29*
%TO.C,C26*%
X35570000Y-51727500D03*
X35570000Y-54852500D03*
%TD*%
D30*
%TO.C,C9*%
X35710000Y-38725000D03*
X35710000Y-37175000D03*
%TD*%
D24*
%TO.C,R14*%
X27160000Y-14710000D03*
X26140000Y-14710000D03*
%TD*%
D11*
%TO.C,C8*%
X35600000Y-32370000D03*
X35600000Y-31350000D03*
%TD*%
D13*
%TO.C,C4*%
X26145000Y-17420000D03*
X24595000Y-17420000D03*
%TD*%
D16*
%TO.C,R17*%
X35623636Y-56100612D03*
X35623636Y-57120612D03*
%TD*%
D12*
%TO.C,R6*%
X25270000Y-24415000D03*
X25270000Y-22765000D03*
%TD*%
D31*
%TO.C,FB1*%
X24892000Y-80746500D03*
X24892000Y-82321500D03*
%TD*%
D15*
%TO.C,RN1*%
X25280000Y-49600000D03*
D32*
X25780000Y-49600000D03*
X26280000Y-49600000D03*
D15*
X26780000Y-49600000D03*
X26780000Y-50600000D03*
D32*
X26280000Y-50600000D03*
X25780000Y-50600000D03*
D15*
X25280000Y-50600000D03*
%TD*%
D14*
%TO.C,C3*%
X10290000Y-47980000D03*
X11310000Y-47980000D03*
%TD*%
D20*
%TO.C,D3*%
X20850000Y-44300000D03*
X23950000Y-43500000D03*
%TD*%
D33*
%TO.C,L2*%
X27060000Y-57615000D03*
X27060000Y-59765000D03*
%TD*%
D20*
%TO.C,D2*%
X14550000Y-44300000D03*
X17650000Y-43500000D03*
%TD*%
D14*
%TO.C,R18*%
X26270000Y-61870000D03*
X27290000Y-61870000D03*
%TD*%
D34*
%TO.C,U3*%
X26663600Y-32049999D03*
X26663600Y-32550000D03*
X26663600Y-33050000D03*
X26663600Y-33550001D03*
D35*
X26050000Y-33714400D03*
X25550000Y-33714400D03*
D34*
X24936400Y-33550001D03*
X24936400Y-33050000D03*
X24936400Y-32550000D03*
X24936400Y-32049999D03*
D35*
X25550000Y-31885600D03*
X26050000Y-31885600D03*
%TD*%
D16*
%TO.C,C5*%
X13130000Y-45350000D03*
X13130000Y-46370000D03*
%TD*%
D36*
%TO.C,C22*%
X24841200Y-83769200D03*
X24841200Y-85319200D03*
%TD*%
D22*
%TO.C,C28*%
X32261221Y-39322571D03*
X33221221Y-39322571D03*
%TD*%
D37*
%TO.C,Q2*%
X26270000Y-62940000D03*
X27270000Y-62940000D03*
X26770000Y-64230000D03*
%TD*%
D16*
%TO.C,C29*%
X11575000Y-44115000D03*
X11575000Y-45135000D03*
%TD*%
D36*
%TO.C,C23*%
X26365200Y-80772000D03*
X26365200Y-82322000D03*
%TD*%
D38*
%TO.C,R5*%
X26850000Y-22755000D03*
X26850000Y-24405000D03*
%TD*%
D24*
%TO.C,C11*%
X24110000Y-32760000D03*
X23090000Y-32760000D03*
%TD*%
D39*
%TO.C,R15*%
X6159000Y-47853600D03*
X4509000Y-47853600D03*
%TD*%
D40*
%TO.C,U9*%
X26009600Y-84391800D03*
D41*
X26659600Y-84391800D03*
D42*
X26009600Y-83531800D03*
D43*
X26659600Y-83531800D03*
D44*
X26334600Y-83961800D03*
%TD*%
M02*
