M48
; DRILL file KiCad 10.0.5-unknown-202607221313~667fa36054~ubuntu25.10.1 date 2026-08-23T19:46:29
; FORMAT={-:-/ absolute / metric / decimal}
; #@! TF.CreationDate,2026-08-23T19:46:29+00:00
; #@! TF.GenerationSoftware,Kicad,Pcbnew,10.0.5-unknown-202607221313~667fa36054~ubuntu25.10.1
; #@! TF.FileFunction,Plated,1,2,PTH
FMAT,2
METRIC
; #@! TA.AperFunction,Plated,PTH,ViaDrill
T1C0.254
; #@! TA.AperFunction,Plated,PTH,ViaDrill
T2C0.300
; #@! TA.AperFunction,Plated,PTH,ComponentDrill
T3C2.200
%
G90
G05
T1
X1.93Y-49.124
X2.591Y-55.067
X2.761Y-51.603
X3.03Y-50.424
X3.353Y-52.07
X3.65Y-44.951
X3.924Y-43.048
X4.058Y-52.166
X4.373Y-34.314
X4.724Y-45.364
X4.797Y-42.965
X5.029Y-52.019
X5.032Y-33.672
X5.239Y-44.369
X5.36Y-45.891
X5.699Y-34.867
X6.045Y-50.207
X6.35Y-41.043
X6.475Y-42.375
X6.51Y-9.17
X6.979Y-46.969
X7.054Y-51.599
X7.15Y-47.94
X7.208Y-36.723
X7.274Y-37.562
X7.4Y-40.125
X7.502Y-41.187
X7.61Y-33.77
X7.648Y-25.4
X7.78Y-39.434
X7.998Y-30.028
X8.314Y-52.112
X8.448Y-47.978
X8.558Y-47.186
X8.721Y-18.387
X8.762Y-37.782
X9.185Y-47.8
X9.195Y-50.902
X9.32Y-49.71
X9.325Y-40.4
X9.327Y-55.553
X10.514Y-21.489
X10.8Y-40.47
X10.854Y-24.994
X11.071Y-44.169
X11.075Y-46.798
X11.11Y-19.49
X11.23Y-42.32
X11.29Y-23.465
X11.875Y-46.553
X11.89Y-11.86
X12.1Y-43.46
X12.22Y-48.05
X12.31Y-41.12
X12.36Y-21.93
X12.44Y-13.03
X12.844Y-30.371
X13.16Y-20.25
X13.292Y-44.089
X13.331Y-47.165
X13.8Y-42.45
X13.93Y-21.26
X14.525Y-47.148
X14.62Y-28.155
X15.34Y-35.72
X16.208Y-60.734
X16.83Y-33.18
X17.032Y-27.492
X18.35Y-16.83
X19.805Y-15.845
X20.084Y-27.099
X20.185Y-47.503
X20.28Y-48.78
X21.2Y-17.24
X21.42Y-23.34
X21.564Y-47.538
X21.57Y-28.6
X22.91Y-49.32
X23.0Y-36.0
X23.18Y-9.32
X24.0Y-35.6
X24.212Y-25.592
X24.406Y-31.631
X24.86Y-6.46
X25.11Y-63.77
X25.25Y-25.44
X25.768Y-49.001
X25.8Y-29.0
X25.95Y-62.63
X26.015Y-4.985
X26.386Y-16.321
X26.775Y-30.875
X27.25Y-33.55
X27.267Y-32.557
X27.474Y-31.784
X27.83Y-47.519
X28.922Y-31.308
X28.93Y-30.12
X29.33Y-56.61
X29.72Y-48.22
X30.78Y-60.6
X31.0Y-34.086
X31.328Y-56.964
X31.526Y-39.424
X31.84Y-58.05
X31.944Y-32.335
X32.0Y-33.2
X32.004Y-37.084
X32.42Y-62.24
X33.015Y-56.994
X33.25Y-33.203
X33.325Y-47.65
X33.895Y-33.676
X34.125Y-36.5
X34.175Y-35.365
X34.375Y-52.725
X34.592Y-56.532
X34.87Y-14.7
X35.001Y-30.76
X35.15Y-36.02
X35.53Y-52.86
X35.733Y-47.69
X35.74Y-49.2
X36.008Y-34.862
X36.08Y-58.11
X36.17Y-48.31
X36.8Y-63.46
X37.81Y-22.81
X39.29Y-67.486
X41.12Y-69.45
X42.364Y-61.67
X42.9Y-38.0
X44.725Y-20.9
X44.75Y-23.0
X45.4Y-70.14
X46.16Y-22.12
X46.334Y-13.232
X46.5Y-69.5
X46.696Y-19.635
T2
X-4.9Y4.9
X-4.9Y-93.8
X25.4Y4.9
X25.4Y-93.8
X55.7Y4.9
X55.7Y-93.8
T3
X2.87Y-2.87
X2.87Y-28.63
X2.87Y-60.27
X2.87Y-86.03
X47.93Y-2.87
X47.93Y-28.63
X47.93Y-60.27
X47.93Y-86.03
M30
