M48
; DRILL file KiCad 10.0.4-10.0.4~ubuntu25.10.1 date 2026-07-10T19:41:25
; FORMAT={-:-/ absolute / metric / decimal}
; #@! TF.CreationDate,2026-07-10T19:41:25+00:00
; #@! TF.GenerationSoftware,Kicad,Pcbnew,10.0.4-10.0.4~ubuntu25.10.1
; #@! TF.FileFunction,Plated,1,2,PTH
FMAT,2
METRIC
; #@! TA.AperFunction,Plated,PTH,ViaDrill
T1C0.300
; #@! TA.AperFunction,Plated,PTH,ComponentDrill
T2C2.200
%
G90
G05
T1
X2.3Y-27.9
X3.4Y-40.72
X3.88Y-30.6
X4.45Y-33.08
X5.65Y-34.24
X5.697Y-38.517
X6.0Y-35.96
X6.134Y-19.753
X6.771Y-41.35
X6.923Y-37.291
X7.393Y-74.709
X7.395Y-44.095
X7.54Y-45.62
X7.578Y-39.373
X7.723Y-37.315
X7.921Y-38.669
X8.232Y-37.932
X8.355Y-46.455
X8.425Y-33.58
X8.456Y-27.9
X8.575Y-43.73
X9.4Y-38.025
X9.56Y-30.55
X10.05Y-43.75
X10.16Y-33.58
X10.75Y-36.81
X11.75Y-45.65
X11.9Y-47.15
X11.971Y-38.438
X12.539Y-44.061
X13.211Y-16.123
X13.64Y-44.06
X13.78Y-41.02
X14.001Y-48.741
X16.761Y-47.524
X19.438Y-36.9
X20.12Y-32.79
X20.185Y-47.503
X20.276Y-36.9
X21.0Y-33.43
X21.069Y-34.744
X21.175Y-47.51
X21.63Y-35.315
X21.864Y-31.162
X22.256Y-48.176
X24.13Y-47.697
X25.581Y-48.268
X26.719Y-49.185
X28.352Y-47.698
X28.7Y-6.15
X29.524Y-48.19
X30.1Y-35.55
X31.039Y-35.816
X31.323Y-29.186
X32.004Y-32.131
X32.47Y-48.32
X32.828Y-36.356
X33.25Y-33.203
X33.325Y-47.65
X33.895Y-33.676
X34.232Y-35.423
X34.323Y-36.526
X35.15Y-37.33
X35.733Y-47.69
X36.322Y-30.78
X36.45Y-48.23
X36.6Y-34.6
X42.9Y-38.0
X44.0Y-68.0
X44.75Y-63.0
X45.5Y-25.0
X46.15Y-13.097
X46.5Y-68.0
X46.672Y-64.0
X47.231Y-69.947
X47.752Y-20.417
X48.4Y-23.217
X48.5Y-63.75
X48.75Y-66.75
T2
X3.0Y-3.0
X3.0Y-85.9
X47.8Y-3.0
X47.8Y-85.9
M30
