%TF.GenerationSoftware,KiCad,Pcbnew,10.0.4-10.0.4~ubuntu25.10.1*%
%TF.CreationDate,Date%
%TF.ProjectId,solar-glow-drh-v4_0,736f6c61-722d-4676-9c6f-772d6472682d,rev?*%
%TF.SameCoordinates,Original*%
%TF.FileFunction,Legend,Bot*%
%TF.FilePolarity,Positive*%
%FSLAX46Y46*%
G04 Gerber Fmt 4.6, Leading zero omitted, Abs format (unit mm)*
G04 Created by KiCad*
%MOMM*%
%LPD*%
G01*
G04 APERTURE LIST*
%ADD10C,0.150000*%
%ADD11C,0.120000*%
G04 APERTURE END LIST*
D10*
X44414819Y-74738095D02*
X45224342Y-74738095D01*
X45224342Y-74738095D02*
X45319580Y-74785714D01*
X45319580Y-74785714D02*
X45367200Y-74833333D01*
X45367200Y-74833333D02*
X45414819Y-74928571D01*
X45414819Y-74928571D02*
X45414819Y-75119047D01*
X45414819Y-75119047D02*
X45367200Y-75214285D01*
X45367200Y-75214285D02*
X45319580Y-75261904D01*
X45319580Y-75261904D02*
X45224342Y-75309523D01*
X45224342Y-75309523D02*
X44414819Y-75309523D01*
X44748152Y-76214285D02*
X45414819Y-76214285D01*
X44367200Y-75976190D02*
X45081485Y-75738095D01*
X45081485Y-75738095D02*
X45081485Y-76357142D01*
%TO.C,SC1*%
D11*
X9500000Y-250000D02*
X9500000Y-1250000D01*
X10000000Y-750000D02*
X9000000Y-750000D01*
%TO.C,U6*%
X3001214Y-5754658D02*
X3001214Y-5804658D01*
X3001214Y-8824658D02*
X3001214Y-8874658D01*
X3001214Y-8874658D02*
X4821214Y-8874658D01*
X4821214Y-5754658D02*
X3001214Y-5754658D01*
X4821214Y-5804658D02*
X4821214Y-5754658D01*
X4821214Y-8874658D02*
X4821214Y-8824658D01*
X2461214Y-8824658D02*
X2221214Y-9154658D01*
X2701214Y-9154658D01*
X2461214Y-8824658D01*
G36*
X2701214Y-9154658D02*
G01*
X2221214Y-9154658D01*
X2461214Y-8824658D01*
X2701214Y-9154658D01*
G37*
%TO.C,U4*%
X45800000Y-74590000D02*
X45800000Y-76410000D01*
X45800000Y-76410000D02*
X45850000Y-76410000D01*
X45850000Y-74590000D02*
X45800000Y-74590000D01*
X48870000Y-76410000D02*
X48920000Y-76410000D01*
X48920000Y-74590000D02*
X48870000Y-74590000D01*
X48920000Y-76410000D02*
X48920000Y-74590000D01*
X45850000Y-74050000D02*
X45520000Y-73810000D01*
X45520000Y-74290000D01*
X45850000Y-74050000D01*
G36*
X45850000Y-74050000D02*
G01*
X45520000Y-74290000D01*
X45520000Y-73810000D01*
X45850000Y-74050000D01*
G37*
%TO.C,SC3*%
X21146400Y-87980300D02*
X22146400Y-87980300D01*
X21646400Y-88480300D02*
X21646400Y-87480300D01*
%TO.C,SC4*%
X29228651Y-55970151D02*
X29228651Y-56970151D01*
X29728651Y-56470151D02*
X28728651Y-56470151D01*
%TO.C,SC2*%
X40800000Y-32400000D02*
X41800000Y-32400000D01*
X41300000Y-32900000D02*
X41300000Y-31900000D01*
%TD*%
M02*
