%TF.GenerationSoftware,KiCad,Pcbnew,10.0.4-10.0.4~ubuntu25.10.1*%
%TF.CreationDate,Date%
%TF.ProjectId,solar-glow-drh-v4_0,736f6c61-722d-4676-9c6f-772d6472682d,rev?*%
%TF.SameCoordinates,Original*%
%TF.FileFunction,Soldermask,Bot*%
%TF.FilePolarity,Negative*%
%FSLAX46Y46*%
G04 Gerber Fmt 4.6, Leading zero omitted, Abs format (unit mm)*
G04 Created by KiCad*
%MOMM*%
%LPD*%
G01*
G04 APERTURE LIST*
G04 Aperture macros list*
%AMRoundRect*
0 Rectangle with rounded corners*
0 $1 Rounding radius*
0 $2 $3 $4 $5 $6 $7 $8 $9 X,Y pos of 4 corners*
0 Add a 4 corners polygon primitive as box body*
4,1,4,$2,$3,$4,$5,$6,$7,$8,$9,$2,$3,0*
0 Add four circle primitives for the rounded corners*
1,1,$1+$1,$2,$3*
1,1,$1+$1,$4,$5*
1,1,$1+$1,$6,$7*
1,1,$1+$1,$8,$9*
0 Add four rect primitives between the rounded corners*
20,1,$1+$1,$2,$3,$4,$5,0*
20,1,$1+$1,$4,$5,$6,$7,0*
20,1,$1+$1,$6,$7,$8,$9,0*
20,1,$1+$1,$8,$9,$2,$3,0*%
G04 Aperture macros list end*
%ADD10C,0.000000*%
%ADD11C,3.600000*%
%ADD12C,2.374900*%
%ADD13C,0.990600*%
%ADD14RoundRect,0.875000X5.250000X-0.875000X5.250000X0.875000X-5.250000X0.875000X-5.250000X-0.875000X0*%
%ADD15RoundRect,0.875000X3.000000X-0.875000X3.000000X0.875000X-3.000000X0.875000X-3.000000X-0.875000X0*%
%ADD16RoundRect,0.147500X-0.182500X0.147500X-0.182500X-0.147500X0.182500X-0.147500X0.182500X0.147500X0*%
%ADD17RoundRect,0.147500X0.182500X0.147500X-0.182500X0.147500X-0.182500X-0.147500X0.182500X-0.147500X0*%
%ADD18RoundRect,0.150000X-0.512500X-0.150000X0.512500X-0.150000X0.512500X0.150000X-0.512500X0.150000X0*%
%ADD19RoundRect,0.147500X0.147500X0.182500X-0.147500X0.182500X-0.147500X-0.182500X0.147500X-0.182500X0*%
%ADD20RoundRect,0.187500X-0.187500X-0.212500X0.187500X-0.212500X0.187500X0.212500X-0.187500X0.212500X0*%
%ADD21RoundRect,0.150000X-0.150000X0.512500X-0.150000X-0.512500X0.150000X-0.512500X0.150000X0.512500X0*%
%ADD22RoundRect,0.147500X-0.182500X-0.147500X0.182500X-0.147500X0.182500X0.147500X-0.182500X0.147500X0*%
%ADD23RoundRect,0.147500X-0.147500X-0.182500X0.147500X-0.182500X0.147500X0.182500X-0.147500X0.182500X0*%
%ADD24RoundRect,0.147500X0.182500X-0.147500X0.182500X0.147500X-0.182500X0.147500X-0.182500X-0.147500X0*%
%ADD25RoundRect,0.150000X0.300000X-0.150000X0.300000X0.150000X-0.300000X0.150000X-0.300000X-0.150000X0*%
%ADD26RoundRect,0.250000X-0.350000X-0.250000X0.350000X-0.250000X0.350000X0.250000X-0.350000X0.250000X0*%
%ADD27RoundRect,0.162500X-0.162500X-0.187500X0.162500X-0.187500X0.162500X0.187500X-0.162500X0.187500X0*%
%ADD28RoundRect,0.050000X-0.350000X-0.050000X0.350000X-0.050000X0.350000X0.050000X-0.350000X0.050000X0*%
%ADD29RoundRect,0.050000X-0.050000X-0.350000X0.050000X-0.350000X0.050000X0.350000X-0.050000X0.350000X0*%
%ADD30RoundRect,0.662500X-0.662500X-0.662500X0.662500X-0.662500X0.662500X0.662500X-0.662500X0.662500X0*%
%ADD31RoundRect,0.375000X-0.375000X-0.625000X0.375000X-0.625000X0.375000X0.625000X-0.375000X0.625000X0*%
%ADD32RoundRect,0.062500X-0.137500X-0.062500X0.137500X-0.062500X0.137500X0.062500X-0.137500X0.062500X0*%
%ADD33RoundRect,0.062500X-0.062500X-0.137500X0.062500X-0.137500X0.062500X0.137500X-0.062500X0.137500X0*%
%ADD34RoundRect,0.425000X-0.425000X-0.425000X0.425000X-0.425000X0.425000X0.425000X-0.425000X0.425000X0*%
%ADD35RoundRect,0.250000X-0.350000X0.250000X-0.350000X-0.250000X0.350000X-0.250000X0.350000X0.250000X0*%
%ADD36RoundRect,0.150000X-0.150000X-0.300000X0.150000X-0.300000X0.150000X0.300000X-0.150000X0.300000X0*%
%ADD37RoundRect,0.250000X-0.250000X-0.350000X0.250000X-0.350000X0.250000X0.350000X-0.250000X0.350000X0*%
%ADD38RoundRect,0.875000X-5.250000X0.875000X-5.250000X-0.875000X5.250000X-0.875000X5.250000X0.875000X0*%
%ADD39RoundRect,0.875000X-3.000000X0.875000X-3.000000X-0.875000X3.000000X-0.875000X3.000000X0.875000X0*%
%ADD40RoundRect,0.150000X0.150000X0.300000X-0.150000X0.300000X-0.150000X-0.300000X0.150000X-0.300000X0*%
%ADD41C,0.900000*%
%ADD42RoundRect,0.100000X-0.100000X-0.150000X0.100000X-0.150000X0.100000X0.150000X-0.100000X0.150000X0*%
%ADD43RoundRect,0.250000X-0.250000X-0.450000X0.250000X-0.450000X0.250000X0.450000X-0.250000X0.450000X0*%
%ADD44R,0.381000X0.330200*%
%ADD45R,0.330200X0.381000*%
%ADD46RoundRect,0.150000X-0.625000X-0.150000X0.625000X-0.150000X0.625000X0.150000X-0.625000X0.150000X0*%
%ADD47RoundRect,0.147500X-0.147500X0.182500X-0.147500X-0.182500X0.147500X-0.182500X0.147500X0.182500X0*%
G04 APERTURE END LIST*
D10*
G36*
X35267600Y-40305800D02*
G01*
X35384100Y-40323100D01*
X35498300Y-40351700D01*
X35609200Y-40391300D01*
X35715700Y-40441700D01*
X35816700Y-40502200D01*
X35911300Y-40572400D01*
X35998500Y-40651500D01*
X36077600Y-40738700D01*
X36147800Y-40833300D01*
X36208300Y-40934300D01*
X36258700Y-41040800D01*
X36298300Y-41151700D01*
X36326900Y-41265900D01*
X36344200Y-41382400D01*
X36350000Y-41500000D01*
X36350000Y-46300000D01*
X36344200Y-46417600D01*
X36326900Y-46534100D01*
X36298300Y-46648300D01*
X36258700Y-46759200D01*
X36208300Y-46865700D01*
X36147800Y-46966700D01*
X36077600Y-47061300D01*
X35998500Y-47148500D01*
X35911300Y-47227600D01*
X35816700Y-47297800D01*
X35715700Y-47358300D01*
X35609200Y-47408700D01*
X35498300Y-47448300D01*
X35384100Y-47476900D01*
X35267600Y-47494200D01*
X35150000Y-47500000D01*
X15650000Y-47500000D01*
X15532400Y-47494200D01*
X15415900Y-47476900D01*
X15301700Y-47448300D01*
X15190800Y-47408700D01*
X15084300Y-47358300D01*
X14983300Y-47297800D01*
X14888700Y-47227600D01*
X14801500Y-47148500D01*
X14722400Y-47061300D01*
X14652200Y-46966700D01*
X14591700Y-46865700D01*
X14541300Y-46759200D01*
X14501700Y-46648300D01*
X14473100Y-46534100D01*
X14455800Y-46417600D01*
X14450000Y-46300000D01*
X14450000Y-41500000D01*
X14455800Y-41382400D01*
X14473100Y-41265900D01*
X14501700Y-41151700D01*
X14541300Y-41040800D01*
X14591700Y-40934300D01*
X14652200Y-40833300D01*
X14722400Y-40738700D01*
X14801500Y-40651500D01*
X14888700Y-40572400D01*
X14983300Y-40502200D01*
X15084300Y-40441700D01*
X15190800Y-40391300D01*
X15301700Y-40351700D01*
X15415900Y-40323100D01*
X15532400Y-40305800D01*
X15650000Y-40300000D01*
X35150000Y-40300000D01*
X35267600Y-40305800D01*
G37*
D11*
%TO.C,MH3*%
X3000000Y-3000000D03*
%TD*%
%TO.C,*%
X3000000Y-60400000D03*
%TD*%
%TO.C,*%
X47800000Y-60400000D03*
%TD*%
%TO.C,*%
X3000000Y-28500000D03*
%TD*%
%TO.C,MH2*%
X47800000Y-85900000D03*
%TD*%
%TO.C,*%
X47800000Y-28500000D03*
%TD*%
%TO.C,MH1*%
X3000000Y-85900000D03*
%TD*%
%TO.C,MH4*%
X47800000Y-3000000D03*
%TD*%
D12*
%TO.C,*%
X10760000Y-14360000D03*
X10760000Y-17535000D03*
D13*
X12284000Y-19440000D03*
X13300000Y-14360000D03*
X14316000Y-19440000D03*
D12*
X15840000Y-14360000D03*
X15840000Y-17535000D03*
%TD*%
D14*
%TO.C,SC1*%
X15500000Y-37500000D03*
D15*
X15500000Y-5000000D03*
%TD*%
D16*
%TO.C,R2*%
X26212800Y-51915600D03*
X26212800Y-52935600D03*
%TD*%
D17*
%TO.C,R7*%
X48690000Y-78220000D03*
X47670000Y-78220000D03*
%TD*%
D18*
%TO.C,U6*%
X2773714Y-8264658D03*
X2773714Y-7314658D03*
X2773714Y-6364658D03*
X5048714Y-6364658D03*
X5048714Y-7314658D03*
X5048714Y-8264658D03*
%TD*%
D19*
%TO.C,R10*%
X31910000Y-31375000D03*
X30890000Y-31375000D03*
%TD*%
D20*
%TO.C,SW2*%
X25450800Y-50368200D03*
X26350800Y-50368200D03*
X27250800Y-50368200D03*
%TD*%
D19*
%TO.C,C12*%
X26672000Y-31917123D03*
X25652000Y-31917123D03*
%TD*%
D21*
%TO.C,U4*%
X46410000Y-74362500D03*
X47360000Y-74362500D03*
X48310000Y-74362500D03*
X48310000Y-76637500D03*
X47360000Y-76637500D03*
X46410000Y-76637500D03*
%TD*%
D22*
%TO.C,C13*%
X26386815Y-48528979D03*
D17*
X25366815Y-48528979D03*
%TD*%
D23*
%TO.C,C1*%
X10234200Y-41503600D03*
X11254200Y-41503600D03*
%TD*%
D16*
%TO.C,C6*%
X3098800Y-9624600D03*
X3098800Y-10644600D03*
%TD*%
D24*
%TO.C,R6*%
X46431200Y-25260000D03*
X46431200Y-24240000D03*
%TD*%
D25*
%TO.C,SB2*%
X27381200Y-52850200D03*
X27381200Y-51950200D03*
%TD*%
D26*
%TO.C,SJ1*%
X13300000Y-45050000D03*
X13300000Y-46950000D03*
%TD*%
D22*
%TO.C,R12*%
X31040000Y-48600000D03*
X32060000Y-48600000D03*
%TD*%
D27*
%TO.C,D4*%
X27400000Y-44300000D03*
X30000000Y-43500000D03*
%TD*%
D28*
%TO.C,U1*%
X6229600Y-42869000D03*
X6229600Y-43269000D03*
X6229600Y-43669000D03*
X6229600Y-44069000D03*
X6229600Y-44469000D03*
X6229600Y-44869000D03*
X6229600Y-45269000D03*
D29*
X7029600Y-46069000D03*
X7429600Y-46069000D03*
X7829600Y-46069000D03*
X8229600Y-46069000D03*
X8629600Y-46069000D03*
X9029600Y-46069000D03*
X9429600Y-46069000D03*
D28*
X10229600Y-45269000D03*
X10229600Y-44869000D03*
X10229600Y-44469000D03*
X10229600Y-44069000D03*
X10229600Y-43669000D03*
X10229600Y-43269000D03*
X10229600Y-42869000D03*
D29*
X9429600Y-42069000D03*
X9029600Y-42069000D03*
X8629600Y-42069000D03*
X8229600Y-42069000D03*
X7829600Y-42069000D03*
X7429600Y-42069000D03*
X7029600Y-42069000D03*
D30*
X8229600Y-44069000D03*
%TD*%
D31*
%TO.C,J1*%
X4700000Y-35860000D03*
X4700000Y-38400000D03*
X4700000Y-40940000D03*
%TD*%
D27*
%TO.C,D5*%
X33400000Y-44300000D03*
X36000000Y-43500000D03*
%TD*%
D23*
%TO.C,R4*%
X34310000Y-48300000D03*
X35330000Y-48300000D03*
%TD*%
D32*
%TO.C,U5*%
X34352000Y-33750000D03*
X34352000Y-34250000D03*
D33*
X34802000Y-34700000D03*
X35302000Y-34700000D03*
D32*
X35752000Y-34250000D03*
X35752000Y-33750000D03*
D33*
X35302000Y-33300000D03*
X34802000Y-33300000D03*
%TD*%
D34*
%TO.C,TP1*%
X48400000Y-12000000D03*
%TD*%
D23*
%TO.C,R14*%
X4840825Y-4924502D03*
X5860825Y-4924502D03*
%TD*%
%TO.C,R3*%
X28370000Y-49590000D03*
X29390000Y-49590000D03*
%TD*%
D16*
%TO.C,C2*%
X45339000Y-77544200D03*
X45339000Y-78564200D03*
%TD*%
D35*
%TO.C,D10*%
X48980000Y-65360000D03*
X45280000Y-65360000D03*
%TD*%
D23*
%TO.C,C8*%
X31790000Y-34300000D03*
X32810000Y-34300000D03*
%TD*%
%TO.C,C4*%
X4849400Y-9550400D03*
X5869400Y-9550400D03*
%TD*%
D36*
%TO.C,SB1*%
X5188800Y-50165000D03*
X6088800Y-50165000D03*
%TD*%
D37*
%TO.C,D1*%
X46500000Y-10150000D03*
X46500000Y-13850000D03*
%TD*%
%TO.C,D11*%
X44741846Y-60233818D03*
X44741846Y-63933818D03*
%TD*%
D34*
%TO.C,JP1*%
X48400000Y-14540000D03*
X48400000Y-17080000D03*
X48400000Y-19620000D03*
X48400000Y-22160000D03*
%TD*%
D38*
%TO.C,SC3*%
X15646400Y-51230300D03*
D39*
X15646400Y-83730300D03*
%TD*%
D40*
%TO.C,SB4*%
X35430000Y-49600000D03*
X34530000Y-49600000D03*
%TD*%
D41*
%TO.C,TC1*%
X12665000Y-15630000D03*
X13935000Y-15630000D03*
X12665000Y-16900000D03*
X13935000Y-16900000D03*
X12665000Y-18170000D03*
X13935000Y-18170000D03*
%TD*%
D19*
%TO.C,C9*%
X36170000Y-39140000D03*
X35150000Y-39140000D03*
%TD*%
D37*
%TO.C,D9*%
X45820000Y-66770000D03*
X45820000Y-70470000D03*
%TD*%
D42*
%TO.C,Q1*%
X48310000Y-67630000D03*
X48310000Y-68630000D03*
D43*
X47110000Y-68130000D03*
%TD*%
D19*
%TO.C,C3*%
X6199600Y-47955200D03*
X5179600Y-47955200D03*
%TD*%
D27*
%TO.C,D3*%
X21100000Y-44300000D03*
X23700000Y-43500000D03*
%TD*%
%TO.C,D2*%
X14800000Y-44300000D03*
X17400000Y-43500000D03*
%TD*%
D44*
%TO.C,U3*%
X29311600Y-32523999D03*
X29311600Y-33024000D03*
X29311600Y-33524000D03*
X29311600Y-34024001D03*
D45*
X28698000Y-34188400D03*
X28198000Y-34188400D03*
D44*
X27584400Y-34024001D03*
X27584400Y-33524000D03*
X27584400Y-33024000D03*
X27584400Y-32523999D03*
D45*
X28198000Y-32359600D03*
X28698000Y-32359600D03*
%TD*%
D24*
%TO.C,C5*%
X45618400Y-25260000D03*
X45618400Y-24240000D03*
%TD*%
D19*
%TO.C,R11*%
X30253400Y-34950400D03*
X29233400Y-34950400D03*
%TD*%
%TO.C,R1*%
X6199600Y-49047400D03*
X5179600Y-49047400D03*
%TD*%
D22*
%TO.C,C7*%
X48240000Y-82360000D03*
X49260000Y-82360000D03*
%TD*%
D46*
%TO.C,U2*%
X27500000Y-35731000D03*
X27500000Y-37001000D03*
X27500000Y-38271000D03*
X27500000Y-39541000D03*
X32700000Y-39541000D03*
X32700000Y-38271000D03*
X32700000Y-37001000D03*
X32700000Y-35731000D03*
%TD*%
D14*
%TO.C,SC4*%
X35228651Y-82970151D03*
D15*
X35228651Y-60970151D03*
%TD*%
D38*
%TO.C,SC2*%
X35300000Y-5900000D03*
D39*
X35300000Y-27900000D03*
%TD*%
D47*
%TO.C,R8*%
X46690000Y-78190000D03*
X46690000Y-79210000D03*
%TD*%
D19*
%TO.C,C11*%
X26672000Y-33020000D03*
X25652000Y-33020000D03*
%TD*%
D16*
%TO.C,R5*%
X47250000Y-24240000D03*
X47250000Y-25260000D03*
%TD*%
D17*
%TO.C,R9*%
X48680000Y-79110000D03*
X47660000Y-79110000D03*
%TD*%
D36*
%TO.C,SB3*%
X30286531Y-49631042D03*
X31186531Y-49631042D03*
%TD*%
M02*
