%TF.GenerationSoftware,KiCad,Pcbnew,10.0.4-10.0.4~ubuntu25.10.1*%
%TF.CreationDate,Date%
%TF.ProjectId,solar-glow-drh-v4_0,736f6c61-722d-4676-9c6f-772d6472682d,rev?*%
%TF.SameCoordinates,Original*%
%TF.FileFunction,Legend,Bot*%
%TF.FilePolarity,Positive*%
%FSLAX46Y46*%
G04 Gerber Fmt 4.6, Leading zero omitted, Abs format (unit mm)*
G04 Created by KiCad*
%MOMM*%
%LPD*%
G01*
G04 APERTURE LIST*
%ADD10C,0.150000*%
%ADD11C,0.120000*%
G04 APERTURE END LIST*
D10*
X28861904Y-40154819D02*
X28861904Y-40964342D01*
X28861904Y-40964342D02*
X28814285Y-41059580D01*
X28814285Y-41059580D02*
X28766666Y-41107200D01*
X28766666Y-41107200D02*
X28671428Y-41154819D01*
X28671428Y-41154819D02*
X28480952Y-41154819D01*
X28480952Y-41154819D02*
X28385714Y-41107200D01*
X28385714Y-41107200D02*
X28338095Y-41059580D01*
X28338095Y-41059580D02*
X28290476Y-40964342D01*
X28290476Y-40964342D02*
X28290476Y-40154819D01*
X27909523Y-40154819D02*
X27242857Y-40154819D01*
X27242857Y-40154819D02*
X27671428Y-41154819D01*
X26939580Y-54757142D02*
X26987200Y-54709523D01*
X26987200Y-54709523D02*
X27034819Y-54566666D01*
X27034819Y-54566666D02*
X27034819Y-54471428D01*
X27034819Y-54471428D02*
X26987200Y-54328571D01*
X26987200Y-54328571D02*
X26891961Y-54233333D01*
X26891961Y-54233333D02*
X26796723Y-54185714D01*
X26796723Y-54185714D02*
X26606247Y-54138095D01*
X26606247Y-54138095D02*
X26463390Y-54138095D01*
X26463390Y-54138095D02*
X26272914Y-54185714D01*
X26272914Y-54185714D02*
X26177676Y-54233333D01*
X26177676Y-54233333D02*
X26082438Y-54328571D01*
X26082438Y-54328571D02*
X26034819Y-54471428D01*
X26034819Y-54471428D02*
X26034819Y-54566666D01*
X26034819Y-54566666D02*
X26082438Y-54709523D01*
X26082438Y-54709523D02*
X26130057Y-54757142D01*
X26130057Y-55138095D02*
X26082438Y-55185714D01*
X26082438Y-55185714D02*
X26034819Y-55280952D01*
X26034819Y-55280952D02*
X26034819Y-55519047D01*
X26034819Y-55519047D02*
X26082438Y-55614285D01*
X26082438Y-55614285D02*
X26130057Y-55661904D01*
X26130057Y-55661904D02*
X26225295Y-55709523D01*
X26225295Y-55709523D02*
X26320533Y-55709523D01*
X26320533Y-55709523D02*
X26463390Y-55661904D01*
X26463390Y-55661904D02*
X27034819Y-55090476D01*
X27034819Y-55090476D02*
X27034819Y-55709523D01*
X26034819Y-56614285D02*
X26034819Y-56138095D01*
X26034819Y-56138095D02*
X26511009Y-56090476D01*
X26511009Y-56090476D02*
X26463390Y-56138095D01*
X26463390Y-56138095D02*
X26415771Y-56233333D01*
X26415771Y-56233333D02*
X26415771Y-56471428D01*
X26415771Y-56471428D02*
X26463390Y-56566666D01*
X26463390Y-56566666D02*
X26511009Y-56614285D01*
X26511009Y-56614285D02*
X26606247Y-56661904D01*
X26606247Y-56661904D02*
X26844342Y-56661904D01*
X26844342Y-56661904D02*
X26939580Y-56614285D01*
X26939580Y-56614285D02*
X26987200Y-56566666D01*
X26987200Y-56566666D02*
X27034819Y-56471428D01*
X27034819Y-56471428D02*
X27034819Y-56233333D01*
X27034819Y-56233333D02*
X26987200Y-56138095D01*
X26987200Y-56138095D02*
X26939580Y-56090476D01*
X24324819Y-58633333D02*
X24324819Y-58157143D01*
X24324819Y-58157143D02*
X23324819Y-58157143D01*
X23420057Y-58919048D02*
X23372438Y-58966667D01*
X23372438Y-58966667D02*
X23324819Y-59061905D01*
X23324819Y-59061905D02*
X23324819Y-59300000D01*
X23324819Y-59300000D02*
X23372438Y-59395238D01*
X23372438Y-59395238D02*
X23420057Y-59442857D01*
X23420057Y-59442857D02*
X23515295Y-59490476D01*
X23515295Y-59490476D02*
X23610533Y-59490476D01*
X23610533Y-59490476D02*
X23753390Y-59442857D01*
X23753390Y-59442857D02*
X24324819Y-58871429D01*
X24324819Y-58871429D02*
X24324819Y-59490476D01*
X33672857Y-41019580D02*
X33720476Y-41067200D01*
X33720476Y-41067200D02*
X33863333Y-41114819D01*
X33863333Y-41114819D02*
X33958571Y-41114819D01*
X33958571Y-41114819D02*
X34101428Y-41067200D01*
X34101428Y-41067200D02*
X34196666Y-40971961D01*
X34196666Y-40971961D02*
X34244285Y-40876723D01*
X34244285Y-40876723D02*
X34291904Y-40686247D01*
X34291904Y-40686247D02*
X34291904Y-40543390D01*
X34291904Y-40543390D02*
X34244285Y-40352914D01*
X34244285Y-40352914D02*
X34196666Y-40257676D01*
X34196666Y-40257676D02*
X34101428Y-40162438D01*
X34101428Y-40162438D02*
X33958571Y-40114819D01*
X33958571Y-40114819D02*
X33863333Y-40114819D01*
X33863333Y-40114819D02*
X33720476Y-40162438D01*
X33720476Y-40162438D02*
X33672857Y-40210057D01*
X33291904Y-40210057D02*
X33244285Y-40162438D01*
X33244285Y-40162438D02*
X33149047Y-40114819D01*
X33149047Y-40114819D02*
X32910952Y-40114819D01*
X32910952Y-40114819D02*
X32815714Y-40162438D01*
X32815714Y-40162438D02*
X32768095Y-40210057D01*
X32768095Y-40210057D02*
X32720476Y-40305295D01*
X32720476Y-40305295D02*
X32720476Y-40400533D01*
X32720476Y-40400533D02*
X32768095Y-40543390D01*
X32768095Y-40543390D02*
X33339523Y-41114819D01*
X33339523Y-41114819D02*
X32720476Y-41114819D01*
X32149047Y-40543390D02*
X32244285Y-40495771D01*
X32244285Y-40495771D02*
X32291904Y-40448152D01*
X32291904Y-40448152D02*
X32339523Y-40352914D01*
X32339523Y-40352914D02*
X32339523Y-40305295D01*
X32339523Y-40305295D02*
X32291904Y-40210057D01*
X32291904Y-40210057D02*
X32244285Y-40162438D01*
X32244285Y-40162438D02*
X32149047Y-40114819D01*
X32149047Y-40114819D02*
X31958571Y-40114819D01*
X31958571Y-40114819D02*
X31863333Y-40162438D01*
X31863333Y-40162438D02*
X31815714Y-40210057D01*
X31815714Y-40210057D02*
X31768095Y-40305295D01*
X31768095Y-40305295D02*
X31768095Y-40352914D01*
X31768095Y-40352914D02*
X31815714Y-40448152D01*
X31815714Y-40448152D02*
X31863333Y-40495771D01*
X31863333Y-40495771D02*
X31958571Y-40543390D01*
X31958571Y-40543390D02*
X32149047Y-40543390D01*
X32149047Y-40543390D02*
X32244285Y-40591009D01*
X32244285Y-40591009D02*
X32291904Y-40638628D01*
X32291904Y-40638628D02*
X32339523Y-40733866D01*
X32339523Y-40733866D02*
X32339523Y-40924342D01*
X32339523Y-40924342D02*
X32291904Y-41019580D01*
X32291904Y-41019580D02*
X32244285Y-41067200D01*
X32244285Y-41067200D02*
X32149047Y-41114819D01*
X32149047Y-41114819D02*
X31958571Y-41114819D01*
X31958571Y-41114819D02*
X31863333Y-41067200D01*
X31863333Y-41067200D02*
X31815714Y-41019580D01*
X31815714Y-41019580D02*
X31768095Y-40924342D01*
X31768095Y-40924342D02*
X31768095Y-40733866D01*
X31768095Y-40733866D02*
X31815714Y-40638628D01*
X31815714Y-40638628D02*
X31863333Y-40591009D01*
X31863333Y-40591009D02*
X31958571Y-40543390D01*
%TO.C,SC1*%
D11*
X9500000Y-250000D02*
X9500000Y-1250000D01*
X10000000Y-750000D02*
X9000000Y-750000D01*
%TO.C,U6*%
X3001214Y-5754658D02*
X3001214Y-5804658D01*
X3001214Y-8824658D02*
X3001214Y-8874658D01*
X3001214Y-8874658D02*
X4821214Y-8874658D01*
X4821214Y-5754658D02*
X3001214Y-5754658D01*
X4821214Y-5804658D02*
X4821214Y-5754658D01*
X4821214Y-8874658D02*
X4821214Y-8824658D01*
X2461214Y-8824658D02*
X2221214Y-9154658D01*
X2701214Y-9154658D01*
X2461214Y-8824658D01*
G36*
X2701214Y-9154658D02*
G01*
X2221214Y-9154658D01*
X2461214Y-8824658D01*
X2701214Y-9154658D01*
G37*
%TO.C,U7*%
X26040000Y-34740000D02*
X26040000Y-34835000D01*
X26040000Y-39765000D02*
X26040000Y-39860000D01*
X26040000Y-39860000D02*
X30160000Y-39860000D01*
X30160000Y-34740000D02*
X26040000Y-34740000D01*
X30160000Y-34835000D02*
X30160000Y-34740000D01*
X30160000Y-39860000D02*
X30160000Y-39765000D01*
X25500000Y-39770000D02*
X25260000Y-40100000D01*
X25740000Y-40100000D01*
X25500000Y-39770000D01*
G36*
X25740000Y-40100000D02*
G01*
X25260000Y-40100000D01*
X25500000Y-39770000D01*
X25740000Y-40100000D01*
G37*
%TO.C,C25*%
X24640000Y-55540580D02*
X24640000Y-55259420D01*
X25660000Y-55540580D02*
X25660000Y-55259420D01*
%TO.C,SC3*%
X21146400Y-87980300D02*
X22146400Y-87980300D01*
X21646400Y-88480300D02*
X21646400Y-87480300D01*
%TO.C,U9*%
X2440000Y-54490000D02*
X2440000Y-56310000D01*
X2440000Y-56310000D02*
X2490000Y-56310000D01*
X2490000Y-54490000D02*
X2440000Y-54490000D01*
X5510000Y-56310000D02*
X5560000Y-56310000D01*
X5560000Y-54490000D02*
X5510000Y-54490000D01*
X5560000Y-56310000D02*
X5560000Y-54490000D01*
X2490000Y-53950000D02*
X2160000Y-53710000D01*
X2160000Y-54190000D01*
X2490000Y-53950000D01*
G36*
X2490000Y-53950000D02*
G01*
X2160000Y-54190000D01*
X2160000Y-53710000D01*
X2490000Y-53950000D01*
G37*
%TO.C,L2*%
X24790000Y-58637221D02*
X24790000Y-58962779D01*
X25810000Y-58637221D02*
X25810000Y-58962779D01*
%TO.C,C28*%
X32922164Y-39140000D02*
X33137836Y-39140000D01*
X32922164Y-39860000D02*
X33137836Y-39860000D01*
%TO.C,SC4*%
X29228651Y-55970151D02*
X29228651Y-56970151D01*
X29728651Y-56470151D02*
X28728651Y-56470151D01*
%TO.C,SC2*%
X40800000Y-32400000D02*
X41800000Y-32400000D01*
X41300000Y-32900000D02*
X41300000Y-31900000D01*
%TD*%
M02*
