%TF.GenerationSoftware,KiCad,Pcbnew,10.0.4-10.0.4~ubuntu25.10.1*%
%TF.CreationDate,Date%
%TF.ProjectId,solar-glow-drh-v4_0,736f6c61-722d-4676-9c6f-772d6472682d,rev?*%
%TF.SameCoordinates,Original*%
%TF.FileFunction,Soldermask,Bot*%
%TF.FilePolarity,Negative*%
%FSLAX46Y46*%
G04 Gerber Fmt 4.6, Leading zero omitted, Abs format (unit mm)*
G04 Created by KiCad*
%MOMM*%
%LPD*%
G01*
G04 APERTURE LIST*
G04 Aperture macros list*
%AMRoundRect*
0 Rectangle with rounded corners*
0 $1 Rounding radius*
0 $2 $3 $4 $5 $6 $7 $8 $9 X,Y pos of 4 corners*
0 Add a 4 corners polygon primitive as box body*
4,1,4,$2,$3,$4,$5,$6,$7,$8,$9,$2,$3,0*
0 Add four circle primitives for the rounded corners*
1,1,$1+$1,$2,$3*
1,1,$1+$1,$4,$5*
1,1,$1+$1,$6,$7*
1,1,$1+$1,$8,$9*
0 Add four rect primitives between the rounded corners*
20,1,$1+$1,$2,$3,$4,$5,0*
20,1,$1+$1,$4,$5,$6,$7,0*
20,1,$1+$1,$6,$7,$8,$9,0*
20,1,$1+$1,$8,$9,$2,$3,0*%
G04 Aperture macros list end*
%ADD10C,0.000000*%
%ADD11C,3.600000*%
%ADD12C,2.374900*%
%ADD13C,0.990600*%
%ADD14RoundRect,0.875000X5.250000X-0.875000X5.250000X0.875000X-5.250000X0.875000X-5.250000X-0.875000X0*%
%ADD15RoundRect,0.875000X3.000000X-0.875000X3.000000X0.875000X-3.000000X0.875000X-3.000000X-0.875000X0*%
%ADD16RoundRect,0.147500X-0.182500X0.147500X-0.182500X-0.147500X0.182500X-0.147500X0.182500X0.147500X0*%
%ADD17RoundRect,0.150000X-0.512500X-0.150000X0.512500X-0.150000X0.512500X0.150000X-0.512500X0.150000X0*%
%ADD18RoundRect,0.147500X0.147500X0.182500X-0.147500X0.182500X-0.147500X-0.182500X0.147500X-0.182500X0*%
%ADD19RoundRect,0.187500X-0.187500X-0.212500X0.187500X-0.212500X0.187500X0.212500X-0.187500X0.212500X0*%
%ADD20RoundRect,0.147500X0.182500X-0.147500X0.182500X0.147500X-0.182500X0.147500X-0.182500X-0.147500X0*%
%ADD21RoundRect,0.225000X0.225000X0.250000X-0.225000X0.250000X-0.225000X-0.250000X0.225000X-0.250000X0*%
%ADD22RoundRect,0.147500X-0.147500X-0.182500X0.147500X-0.182500X0.147500X0.182500X-0.147500X0.182500X0*%
%ADD23RoundRect,0.150000X0.300000X-0.150000X0.300000X0.150000X-0.300000X0.150000X-0.300000X-0.150000X0*%
%ADD24RoundRect,0.250000X-0.350000X-0.250000X0.350000X-0.250000X0.350000X0.250000X-0.350000X0.250000X0*%
%ADD25RoundRect,0.050000X-0.350000X-0.050000X0.350000X-0.050000X0.350000X0.050000X-0.350000X0.050000X0*%
%ADD26RoundRect,0.050000X-0.050000X-0.350000X0.050000X-0.350000X0.050000X0.350000X-0.050000X0.350000X0*%
%ADD27RoundRect,0.575000X-0.575000X-0.575000X0.575000X-0.575000X0.575000X0.575000X-0.575000X0.575000X0*%
%ADD28RoundRect,0.147500X-0.182500X-0.147500X0.182500X-0.147500X0.182500X0.147500X-0.182500X0.147500X0*%
%ADD29RoundRect,0.162500X-0.162500X-0.187500X0.162500X-0.187500X0.162500X0.187500X-0.162500X0.187500X0*%
%ADD30RoundRect,0.662500X-0.662500X-0.662500X0.662500X-0.662500X0.662500X0.662500X-0.662500X0.662500X0*%
%ADD31RoundRect,0.150000X-0.825000X-0.150000X0.825000X-0.150000X0.825000X0.150000X-0.825000X0.150000X0*%
%ADD32RoundRect,0.375000X-0.375000X-0.625000X0.375000X-0.625000X0.375000X0.625000X-0.375000X0.625000X0*%
%ADD33RoundRect,0.225000X0.250000X-0.225000X0.250000X0.225000X-0.250000X0.225000X-0.250000X-0.225000X0*%
%ADD34RoundRect,0.062500X-0.137500X-0.062500X0.137500X-0.062500X0.137500X0.062500X-0.137500X0.062500X0*%
%ADD35RoundRect,0.062500X-0.062500X-0.137500X0.062500X-0.137500X0.062500X0.137500X-0.062500X0.137500X0*%
%ADD36RoundRect,0.425000X-0.425000X-0.425000X0.425000X-0.425000X0.425000X0.425000X-0.425000X0.425000X0*%
%ADD37RoundRect,0.225000X-0.250000X0.225000X-0.250000X-0.225000X0.250000X-0.225000X0.250000X0.225000X0*%
%ADD38RoundRect,0.150000X-0.150000X-0.300000X0.150000X-0.300000X0.150000X0.300000X-0.150000X0.300000X0*%
%ADD39RoundRect,0.875000X-5.250000X0.875000X-5.250000X-0.875000X5.250000X-0.875000X5.250000X0.875000X0*%
%ADD40RoundRect,0.875000X-3.000000X0.875000X-3.000000X-0.875000X3.000000X-0.875000X3.000000X0.875000X0*%
%ADD41RoundRect,0.150000X-0.150000X0.512500X-0.150000X-0.512500X0.150000X-0.512500X0.150000X0.512500X0*%
%ADD42RoundRect,0.150000X0.150000X0.300000X-0.150000X0.300000X-0.150000X-0.300000X0.150000X-0.300000X0*%
%ADD43C,0.900000*%
%ADD44RoundRect,0.218750X-0.218750X-0.256250X0.218750X-0.256250X0.218750X0.256250X-0.218750X0.256250X0*%
%ADD45R,0.381000X0.330200*%
%ADD46R,0.330200X0.381000*%
%ADD47RoundRect,0.140000X-0.140000X-0.170000X0.140000X-0.170000X0.140000X0.170000X-0.140000X0.170000X0*%
G04 APERTURE END LIST*
D10*
G36*
X35267600Y-40305800D02*
G01*
X35384100Y-40323100D01*
X35498300Y-40351700D01*
X35609200Y-40391300D01*
X35715700Y-40441700D01*
X35816700Y-40502200D01*
X35911300Y-40572400D01*
X35998500Y-40651500D01*
X36077600Y-40738700D01*
X36147800Y-40833300D01*
X36208300Y-40934300D01*
X36258700Y-41040800D01*
X36298300Y-41151700D01*
X36326900Y-41265900D01*
X36344200Y-41382400D01*
X36350000Y-41500000D01*
X36350000Y-46300000D01*
X36344200Y-46417600D01*
X36326900Y-46534100D01*
X36298300Y-46648300D01*
X36258700Y-46759200D01*
X36208300Y-46865700D01*
X36147800Y-46966700D01*
X36077600Y-47061300D01*
X35998500Y-47148500D01*
X35911300Y-47227600D01*
X35816700Y-47297800D01*
X35715700Y-47358300D01*
X35609200Y-47408700D01*
X35498300Y-47448300D01*
X35384100Y-47476900D01*
X35267600Y-47494200D01*
X35150000Y-47500000D01*
X15650000Y-47500000D01*
X15532400Y-47494200D01*
X15415900Y-47476900D01*
X15301700Y-47448300D01*
X15190800Y-47408700D01*
X15084300Y-47358300D01*
X14983300Y-47297800D01*
X14888700Y-47227600D01*
X14801500Y-47148500D01*
X14722400Y-47061300D01*
X14652200Y-46966700D01*
X14591700Y-46865700D01*
X14541300Y-46759200D01*
X14501700Y-46648300D01*
X14473100Y-46534100D01*
X14455800Y-46417600D01*
X14450000Y-46300000D01*
X14450000Y-41500000D01*
X14455800Y-41382400D01*
X14473100Y-41265900D01*
X14501700Y-41151700D01*
X14541300Y-41040800D01*
X14591700Y-40934300D01*
X14652200Y-40833300D01*
X14722400Y-40738700D01*
X14801500Y-40651500D01*
X14888700Y-40572400D01*
X14983300Y-40502200D01*
X15084300Y-40441700D01*
X15190800Y-40391300D01*
X15301700Y-40351700D01*
X15415900Y-40323100D01*
X15532400Y-40305800D01*
X15650000Y-40300000D01*
X35150000Y-40300000D01*
X35267600Y-40305800D01*
G37*
D11*
%TO.C,MH3*%
X3000000Y-3000000D03*
%TD*%
%TO.C,MP3*%
X3000000Y-60400000D03*
%TD*%
%TO.C,MP4*%
X47800000Y-60400000D03*
%TD*%
%TO.C,MP1*%
X3000000Y-28500000D03*
%TD*%
%TO.C,MH2*%
X47800000Y-85900000D03*
%TD*%
%TO.C,MP2*%
X47800000Y-28500000D03*
%TD*%
%TO.C,MH1*%
X3000000Y-85900000D03*
%TD*%
%TO.C,MH4*%
X47800000Y-3000000D03*
%TD*%
D12*
%TO.C,*%
X10760000Y-14360000D03*
X10760000Y-17535000D03*
D13*
X12284000Y-19440000D03*
X13300000Y-14360000D03*
X14316000Y-19440000D03*
D12*
X15840000Y-14360000D03*
X15840000Y-17535000D03*
%TD*%
D14*
%TO.C,SC1*%
X15500000Y-37500000D03*
D15*
X15500000Y-5000000D03*
%TD*%
D16*
%TO.C,R2*%
X25224889Y-51890000D03*
X25224889Y-52910000D03*
%TD*%
D17*
%TO.C,U6*%
X2773714Y-8264658D03*
X2773714Y-7314658D03*
X2773714Y-6364658D03*
X5048714Y-6364658D03*
X5048714Y-7314658D03*
X5048714Y-8264658D03*
%TD*%
D18*
%TO.C,R10*%
X31710000Y-31600000D03*
X30690000Y-31600000D03*
%TD*%
D19*
%TO.C,SW2*%
X25450800Y-50368200D03*
X26350800Y-50368200D03*
X27250800Y-50368200D03*
%TD*%
D20*
%TO.C,C12*%
X26000000Y-31010000D03*
X26000000Y-29990000D03*
%TD*%
D21*
%TO.C,C13*%
X26775000Y-48050000D03*
X25225000Y-48050000D03*
%TD*%
D22*
%TO.C,C1*%
X10234200Y-41503600D03*
X11254200Y-41503600D03*
%TD*%
D16*
%TO.C,C6*%
X3098800Y-9624600D03*
X3098800Y-10644600D03*
%TD*%
D20*
%TO.C,R6*%
X46431200Y-25260000D03*
X46431200Y-24240000D03*
%TD*%
D23*
%TO.C,SB2*%
X26400000Y-52850000D03*
X26400000Y-51950000D03*
%TD*%
D24*
%TO.C,SJ1*%
X13300000Y-45050000D03*
X13300000Y-46950000D03*
%TD*%
D25*
%TO.C,U8*%
X29200000Y-52800000D03*
X29200000Y-53200000D03*
X29200000Y-53600000D03*
X29200000Y-54000000D03*
X29200000Y-54400000D03*
X29200000Y-54800000D03*
X29200000Y-55200000D03*
D26*
X30000000Y-56000000D03*
X30400000Y-56000000D03*
X30800000Y-56000000D03*
X31200000Y-56000000D03*
X31600000Y-56000000D03*
X32000000Y-56000000D03*
X32400000Y-56000000D03*
D25*
X33200000Y-55200000D03*
X33200000Y-54800000D03*
X33200000Y-54400000D03*
X33200000Y-54000000D03*
X33200000Y-53600000D03*
X33200000Y-53200000D03*
X33200000Y-52800000D03*
D26*
X32400000Y-52000000D03*
X32000000Y-52000000D03*
X31600000Y-52000000D03*
X31200000Y-52000000D03*
X30800000Y-52000000D03*
X30400000Y-52000000D03*
X30000000Y-52000000D03*
D27*
X31200000Y-54000000D03*
%TD*%
D28*
%TO.C,R12*%
X31031668Y-48443825D03*
X32051668Y-48443825D03*
%TD*%
D29*
%TO.C,D4*%
X27400000Y-44300000D03*
X30000000Y-43500000D03*
%TD*%
D25*
%TO.C,U1*%
X6229600Y-42869000D03*
X6229600Y-43269000D03*
X6229600Y-43669000D03*
X6229600Y-44069000D03*
X6229600Y-44469000D03*
X6229600Y-44869000D03*
X6229600Y-45269000D03*
D26*
X7029600Y-46069000D03*
X7429600Y-46069000D03*
X7829600Y-46069000D03*
X8229600Y-46069000D03*
X8629600Y-46069000D03*
X9029600Y-46069000D03*
X9429600Y-46069000D03*
D25*
X10229600Y-45269000D03*
X10229600Y-44869000D03*
X10229600Y-44469000D03*
X10229600Y-44069000D03*
X10229600Y-43669000D03*
X10229600Y-43269000D03*
X10229600Y-42869000D03*
D26*
X9429600Y-42069000D03*
X9029600Y-42069000D03*
X8629600Y-42069000D03*
X8229600Y-42069000D03*
X7829600Y-42069000D03*
X7429600Y-42069000D03*
X7029600Y-42069000D03*
D30*
X8229600Y-44069000D03*
%TD*%
D31*
%TO.C,U7*%
X25625000Y-39205000D03*
X25625000Y-37935000D03*
X25625000Y-36665000D03*
X25625000Y-35395000D03*
X30575000Y-35395000D03*
X30575000Y-36665000D03*
X30575000Y-37935000D03*
X30575000Y-39205000D03*
%TD*%
D32*
%TO.C,J1*%
X4700000Y-35860000D03*
X4700000Y-38400000D03*
X4700000Y-40940000D03*
%TD*%
D16*
%TO.C,R16*%
X6403919Y-58216733D03*
X6403919Y-59236733D03*
%TD*%
D20*
%TO.C,C26*%
X35800000Y-55000000D03*
X35800000Y-53980000D03*
%TD*%
D16*
%TO.C,C24*%
X5435600Y-58214800D03*
X5435600Y-59234800D03*
%TD*%
D29*
%TO.C,D5*%
X33400000Y-44300000D03*
X36000000Y-43500000D03*
%TD*%
D22*
%TO.C,R4*%
X34310000Y-48300000D03*
X35330000Y-48300000D03*
%TD*%
D33*
%TO.C,C25*%
X25150000Y-56175000D03*
X25150000Y-54625000D03*
%TD*%
D34*
%TO.C,U5*%
X34352000Y-33750000D03*
X34352000Y-34250000D03*
D35*
X34802000Y-34700000D03*
X35302000Y-34700000D03*
D34*
X35752000Y-34250000D03*
X35752000Y-33750000D03*
D35*
X35302000Y-33300000D03*
X34802000Y-33300000D03*
%TD*%
D36*
%TO.C,TP1*%
X48400000Y-12000000D03*
%TD*%
D22*
%TO.C,R14*%
X4840825Y-4924502D03*
X5860825Y-4924502D03*
%TD*%
%TO.C,R3*%
X28299773Y-49684168D03*
X29319773Y-49684168D03*
%TD*%
D18*
%TO.C,C8*%
X31110000Y-32400000D03*
X30090000Y-32400000D03*
%TD*%
D37*
%TO.C,C4*%
X5050000Y-9825000D03*
X5050000Y-11375000D03*
%TD*%
D16*
%TO.C,R17*%
X35800000Y-55890000D03*
X35800000Y-56910000D03*
%TD*%
D38*
%TO.C,SB1*%
X5188800Y-50165000D03*
X6088800Y-50165000D03*
%TD*%
D36*
%TO.C,JP1*%
X48400000Y-14540000D03*
X48400000Y-17080000D03*
X48400000Y-19620000D03*
X48400000Y-22160000D03*
%TD*%
D39*
%TO.C,SC3*%
X15646400Y-51230300D03*
D40*
X15646400Y-83730300D03*
%TD*%
D41*
%TO.C,U9*%
X2950000Y-54262500D03*
X3900000Y-54262500D03*
X4850000Y-54262500D03*
X4850000Y-56537500D03*
X3900000Y-56537500D03*
X2950000Y-56537500D03*
%TD*%
D20*
%TO.C,FB1*%
X1981200Y-55221600D03*
X1981200Y-54201600D03*
%TD*%
D42*
%TO.C,SB4*%
X35430000Y-49600000D03*
X34530000Y-49600000D03*
%TD*%
D37*
%TO.C,C27*%
X6150000Y-55175000D03*
X6150000Y-56725000D03*
%TD*%
D43*
%TO.C,TC1*%
X12665000Y-15630000D03*
X13935000Y-15630000D03*
X12665000Y-16900000D03*
X13935000Y-16900000D03*
X12665000Y-18170000D03*
X13935000Y-18170000D03*
%TD*%
D18*
%TO.C,C9*%
X36170000Y-39140000D03*
X35150000Y-39140000D03*
%TD*%
%TO.C,C3*%
X6199600Y-47955200D03*
X5179600Y-47955200D03*
%TD*%
D29*
%TO.C,D3*%
X21100000Y-44300000D03*
X23700000Y-43500000D03*
%TD*%
D44*
%TO.C,L2*%
X27350000Y-56700000D03*
X28925000Y-56700000D03*
%TD*%
D29*
%TO.C,D2*%
X14800000Y-44300000D03*
X17400000Y-43500000D03*
%TD*%
D45*
%TO.C,U3*%
X26663600Y-32049999D03*
X26663600Y-32550000D03*
X26663600Y-33050000D03*
X26663600Y-33550001D03*
D46*
X26050000Y-33714400D03*
X25550000Y-33714400D03*
D45*
X24936400Y-33550001D03*
X24936400Y-33050000D03*
X24936400Y-32550000D03*
X24936400Y-32049999D03*
D46*
X25550000Y-31885600D03*
X26050000Y-31885600D03*
%TD*%
D18*
%TO.C,C23*%
X3608116Y-57795070D03*
X2588116Y-57795070D03*
%TD*%
D20*
%TO.C,C5*%
X45618400Y-25260000D03*
X45618400Y-24240000D03*
%TD*%
D22*
%TO.C,R15*%
X2190000Y-52000000D03*
X3210000Y-52000000D03*
%TD*%
D20*
%TO.C,R11*%
X28600000Y-33110000D03*
X28600000Y-32090000D03*
%TD*%
D18*
%TO.C,R1*%
X6199600Y-49047400D03*
X5179600Y-49047400D03*
%TD*%
D28*
%TO.C,C7*%
X4740000Y-12450000D03*
X5760000Y-12450000D03*
%TD*%
D22*
%TO.C,C22*%
X2999082Y-53124138D03*
X4019082Y-53124138D03*
%TD*%
D47*
%TO.C,C28*%
X32550000Y-39500000D03*
X33510000Y-39500000D03*
%TD*%
D14*
%TO.C,SC4*%
X35228651Y-82970151D03*
D15*
X35228651Y-60970151D03*
%TD*%
D39*
%TO.C,SC2*%
X35300000Y-5900000D03*
D40*
X35300000Y-27900000D03*
%TD*%
D20*
%TO.C,C11*%
X25000000Y-31010000D03*
X25000000Y-29990000D03*
%TD*%
D16*
%TO.C,R5*%
X47250000Y-24240000D03*
X47250000Y-25260000D03*
%TD*%
D38*
%TO.C,SB3*%
X30290940Y-49754821D03*
X31190940Y-49754821D03*
%TD*%
M02*
