M48
; DRILL file KiCad 10.0.5-unknown-202607221313~667fa36054~ubuntu25.10.1 date 2026-08-05T19:05:51
; FORMAT={-:-/ absolute / metric / decimal}
; #@! TF.CreationDate,2026-08-05T19:05:51+00:00
; #@! TF.GenerationSoftware,Kicad,Pcbnew,10.0.5-unknown-202607221313~667fa36054~ubuntu25.10.1
; #@! TF.FileFunction,Plated,1,2,PTH
FMAT,2
METRIC
; #@! TA.AperFunction,Plated,PTH,ViaDrill
T1C0.300
; #@! TA.AperFunction,Plated,PTH,ComponentDrill
T2C2.200
%
G90
G05
T1
X2.977Y-57.521
X3.503Y-39.516
X3.61Y-57.03
X3.781Y-50.728
X4.37Y-49.55
X4.545Y-31.545
X4.557Y-43.27
X4.753Y-46.456
X5.175Y-33.875
X5.364Y-47.448
X5.392Y-44.6
X5.802Y-35.827
X5.983Y-53.63
X6.0Y-38.4
X6.22Y-22.5
X6.35Y-41.043
X6.475Y-42.375
X6.51Y-9.17
X6.62Y-37.77
X6.973Y-47.815
X6.979Y-46.969
X7.0Y-8.0
X7.054Y-51.599
X7.4Y-40.125
X7.502Y-41.187
X7.648Y-25.4
X7.65Y-22.5
X7.78Y-39.434
X7.95Y-32.0
X7.95Y-37.065
X8.367Y-50.64
X8.406Y-47.965
X8.669Y-47.239
X9.134Y-55.746
X9.185Y-47.8
X9.32Y-49.71
X9.325Y-40.4
X9.56Y-38.87
X9.97Y-52.23
X10.478Y-47.434
X10.765Y-39.845
X10.91Y-21.2
X11.017Y-46.842
X11.071Y-44.169
X11.23Y-42.32
X11.627Y-30.293
X11.875Y-46.553
X11.89Y-11.86
X12.272Y-43.297
X12.31Y-41.12
X12.44Y-13.03
X12.52Y-21.52
X13.182Y-47.434
X13.292Y-44.089
X13.8Y-42.45
X14.525Y-47.275
X14.6Y-26.0
X15.34Y-33.25
X16.0Y-26.0
X16.025Y-60.95
X16.3Y-26.725
X16.8Y-33.125
X20.185Y-47.503
X22.299Y-47.586
X22.47Y-49.34
X23.0Y-36.0
X24.0Y-48.094
X24.406Y-31.631
X24.41Y-37.41
X24.707Y-49.702
X24.86Y-6.46
X25.11Y-63.77
X25.25Y-25.44
X25.8Y-29.0
X26.015Y-4.985
X26.165Y-49.15
X26.775Y-30.875
X27.25Y-33.55
X27.251Y-49.35
X27.295Y-32.451
X27.65Y-31.775
X27.83Y-47.519
X28.45Y-48.854
X28.922Y-31.308
X28.93Y-30.12
X28.94Y-56.6
X28.957Y-48.196
X30.41Y-30.7
X31.0Y-34.086
X31.069Y-63.586
X31.3Y-64.69
X31.328Y-56.964
X31.526Y-39.424
X31.84Y-58.05
X31.944Y-32.335
X32.0Y-33.2
X32.004Y-37.084
X32.6Y-25.08
X33.015Y-56.994
X33.25Y-33.203
X33.325Y-47.65
X33.895Y-33.676
X34.125Y-36.5
X34.175Y-35.365
X34.375Y-52.725
X34.592Y-56.532
X35.15Y-36.02
X35.7Y-51.45
X35.733Y-47.69
X36.008Y-34.862
X36.2Y-48.75
X36.92Y-25.057
X39.29Y-67.486
X39.7Y-64.0
X41.12Y-69.45
X42.9Y-38.0
X43.8Y-63.05
X44.07Y-61.78
X44.725Y-20.9
X44.75Y-23.0
X44.89Y-27.54
X45.4Y-70.14
X46.16Y-22.12
X46.23Y-30.59
X46.334Y-13.232
X46.5Y-69.5
X46.696Y-19.635
T2
X2.87Y-2.87
X2.87Y-28.63
X2.87Y-60.27
X2.87Y-86.03
X47.93Y-2.87
X47.93Y-28.63
X47.93Y-60.27
X47.93Y-86.03
M30
