%TF.GenerationSoftware,KiCad,Pcbnew,10.0.4-10.0.4~ubuntu25.10.1*%
%TF.CreationDate,Date%
%TF.ProjectId,solar-glow-drh-v3_0,736f6c61-722d-4676-9c6f-772d6472682d,rev?*%
%TF.SameCoordinates,Original*%
%TF.FileFunction,Legend,Bot*%
%TF.FilePolarity,Positive*%
%FSLAX46Y46*%
G04 Gerber Fmt 4.6, Leading zero omitted, Abs format (unit mm)*
G04 Created by KiCad*
%MOMM*%
%LPD*%
G01*
G04 APERTURE LIST*
%ADD10C,0.150000*%
%ADD11C,0.120000*%
G04 APERTURE END LIST*
D10*
X8197319Y-31438095D02*
X9006842Y-31438095D01*
X9006842Y-31438095D02*
X9102080Y-31485714D01*
X9102080Y-31485714D02*
X9149700Y-31533333D01*
X9149700Y-31533333D02*
X9197319Y-31628571D01*
X9197319Y-31628571D02*
X9197319Y-31819047D01*
X9197319Y-31819047D02*
X9149700Y-31914285D01*
X9149700Y-31914285D02*
X9102080Y-31961904D01*
X9102080Y-31961904D02*
X9006842Y-32009523D01*
X9006842Y-32009523D02*
X8197319Y-32009523D01*
X8197319Y-32914285D02*
X8197319Y-32723809D01*
X8197319Y-32723809D02*
X8244938Y-32628571D01*
X8244938Y-32628571D02*
X8292557Y-32580952D01*
X8292557Y-32580952D02*
X8435414Y-32485714D01*
X8435414Y-32485714D02*
X8625890Y-32438095D01*
X8625890Y-32438095D02*
X9006842Y-32438095D01*
X9006842Y-32438095D02*
X9102080Y-32485714D01*
X9102080Y-32485714D02*
X9149700Y-32533333D01*
X9149700Y-32533333D02*
X9197319Y-32628571D01*
X9197319Y-32628571D02*
X9197319Y-32819047D01*
X9197319Y-32819047D02*
X9149700Y-32914285D01*
X9149700Y-32914285D02*
X9102080Y-32961904D01*
X9102080Y-32961904D02*
X9006842Y-33009523D01*
X9006842Y-33009523D02*
X8768747Y-33009523D01*
X8768747Y-33009523D02*
X8673509Y-32961904D01*
X8673509Y-32961904D02*
X8625890Y-32914285D01*
X8625890Y-32914285D02*
X8578271Y-32819047D01*
X8578271Y-32819047D02*
X8578271Y-32628571D01*
X8578271Y-32628571D02*
X8625890Y-32533333D01*
X8625890Y-32533333D02*
X8673509Y-32485714D01*
X8673509Y-32485714D02*
X8768747Y-32438095D01*
%TO.C,U6*%
D11*
X4782500Y-31290000D02*
X4782500Y-33110000D01*
X4782500Y-33110000D02*
X4832500Y-33110000D01*
X4832500Y-31290000D02*
X4782500Y-31290000D01*
X7852500Y-33110000D02*
X7902500Y-33110000D01*
X7902500Y-31290000D02*
X7852500Y-31290000D01*
X7902500Y-33110000D02*
X7902500Y-31290000D01*
X7852500Y-33650000D02*
X8182500Y-33890000D01*
X8182500Y-33410000D01*
X7852500Y-33650000D01*
G36*
X8182500Y-33890000D02*
G01*
X7852500Y-33650000D01*
X8182500Y-33410000D01*
X8182500Y-33890000D01*
G37*
%TD*%
M02*
