%TF.GenerationSoftware,KiCad,Pcbnew,10.0.4-10.0.4~ubuntu25.10.1*%
%TF.CreationDate,Date%
%TF.ProjectId,solar-glow-drh-v3_0,736f6c61-722d-4676-9c6f-772d6472682d,rev?*%
%TF.SameCoordinates,Original*%
%TF.FileFunction,Copper,L1,Top*%
%TF.FilePolarity,Positive*%
%FSLAX46Y46*%
G04 Gerber Fmt 4.6, Leading zero omitted, Abs format (unit mm)*
G04 Created by KiCad*
%MOMM*%
%LPD*%
G01*
G04 APERTURE LIST*
G04 Aperture macros list*
%AMRoundRect*
0 Rectangle with rounded corners*
0 $1 Rounding radius*
0 $2 $3 $4 $5 $6 $7 $8 $9 X,Y pos of 4 corners*
0 Add a 4 corners polygon primitive as box body*
4,1,4,$2,$3,$4,$5,$6,$7,$8,$9,$2,$3,0*
0 Add four circle primitives for the rounded corners*
1,1,$1+$1,$2,$3*
1,1,$1+$1,$4,$5*
1,1,$1+$1,$6,$7*
1,1,$1+$1,$8,$9*
0 Add four rect primitives between the rounded corners*
20,1,$1+$1,$2,$3,$4,$5,0*
20,1,$1+$1,$4,$5,$6,$7,0*
20,1,$1+$1,$6,$7,$8,$9,0*
20,1,$1+$1,$8,$9,$2,$3,0*%
G04 Aperture macros list end*
%TA.AperFunction,Conductor*%
%ADD10C,0.000000*%
%TD*%
%TA.AperFunction,NonConductor*%
%ADD11C,0.000000*%
%TD*%
%TA.AperFunction,Conductor*%
%ADD12C,0.500000*%
%TD*%
%TA.AperFunction,Conductor*%
%ADD13C,0.250000*%
%TD*%
%TA.AperFunction,Conductor*%
%ADD14C,0.400000*%
%TD*%
%TA.AperFunction,ComponentPad*%
%ADD15C,3.600000*%
%TD*%
%TA.AperFunction,SMDPad,CuDef*%
%ADD16C,3.500000*%
%TD*%
%TA.AperFunction,SMDPad,CuDef*%
%ADD17RoundRect,0.750000X-1.250000X-0.750000X1.250000X-0.750000X1.250000X0.750000X-1.250000X0.750000X0*%
%TD*%
%TA.AperFunction,ViaPad*%
%ADD18C,0.600000*%
%TD*%
%TA.AperFunction,Conductor*%
%ADD19C,0.300000*%
%TD*%
%TA.AperFunction,Conductor*%
%ADD20C,0.220000*%
%TD*%
%TA.AperFunction,Conductor*%
%ADD21C,0.200000*%
%TD*%
%TA.AperFunction,Conductor*%
%ADD22C,0.160000*%
%TD*%
G04 APERTURE END LIST*
D10*
%TA.AperFunction,Conductor*%
%TO.N,GND*%
G36*
X17709100Y-42004000D02*
G01*
X15250000Y-42004000D01*
X15250000Y-41896000D01*
X17709100Y-41896000D01*
X17709100Y-42004000D01*
G37*
%TD.AperFunction*%
%TA.AperFunction,Conductor*%
G36*
X17709100Y-42104000D02*
G01*
X15250000Y-42104000D01*
X15250000Y-41996000D01*
X17709100Y-41996000D01*
X17709100Y-42104000D01*
G37*
%TD.AperFunction*%
%TA.AperFunction,Conductor*%
G36*
X17709100Y-42204000D02*
G01*
X15250000Y-42204000D01*
X15250000Y-42096000D01*
X17709100Y-42096000D01*
X17709100Y-42204000D01*
G37*
%TD.AperFunction*%
%TA.AperFunction,Conductor*%
G36*
X17709100Y-42304000D02*
G01*
X15250000Y-42304000D01*
X15250000Y-42196000D01*
X17709100Y-42196000D01*
X17709100Y-42304000D01*
G37*
%TD.AperFunction*%
%TA.AperFunction,Conductor*%
G36*
X17709100Y-42404000D02*
G01*
X15250000Y-42404000D01*
X15250000Y-42296000D01*
X17709100Y-42296000D01*
X17709100Y-42404000D01*
G37*
%TD.AperFunction*%
%TA.AperFunction,Conductor*%
G36*
X17709100Y-42504000D02*
G01*
X15250000Y-42504000D01*
X15250000Y-42396000D01*
X17709100Y-42396000D01*
X17709100Y-42504000D01*
G37*
%TD.AperFunction*%
%TA.AperFunction,Conductor*%
G36*
X17709100Y-42604000D02*
G01*
X15250000Y-42604000D01*
X15250000Y-42496000D01*
X17709100Y-42496000D01*
X17709100Y-42604000D01*
G37*
%TD.AperFunction*%
%TA.AperFunction,Conductor*%
G36*
X17709100Y-42704000D02*
G01*
X15250000Y-42704000D01*
X15250000Y-42596000D01*
X17709100Y-42596000D01*
X17709100Y-42704000D01*
G37*
%TD.AperFunction*%
%TA.AperFunction,Conductor*%
G36*
X17709100Y-42804000D02*
G01*
X15250000Y-42804000D01*
X15250000Y-42696000D01*
X17709100Y-42696000D01*
X17709100Y-42804000D01*
G37*
%TD.AperFunction*%
%TA.AperFunction,Conductor*%
G36*
X17709100Y-42904000D02*
G01*
X15250000Y-42904000D01*
X15250000Y-42796000D01*
X17709100Y-42796000D01*
X17709100Y-42904000D01*
G37*
%TD.AperFunction*%
%TA.AperFunction,Conductor*%
G36*
X17709100Y-43004000D02*
G01*
X15250000Y-43004000D01*
X15250000Y-42896000D01*
X17709100Y-42896000D01*
X17709100Y-43004000D01*
G37*
%TD.AperFunction*%
%TA.AperFunction,Conductor*%
G36*
X17709100Y-43104000D02*
G01*
X15250000Y-43104000D01*
X15250000Y-42996000D01*
X17709100Y-42996000D01*
X17709100Y-43104000D01*
G37*
%TD.AperFunction*%
%TA.AperFunction,Conductor*%
G36*
X17709100Y-43204000D02*
G01*
X15250000Y-43204000D01*
X15250000Y-43096000D01*
X17709100Y-43096000D01*
X17709100Y-43204000D01*
G37*
%TD.AperFunction*%
%TA.AperFunction,Conductor*%
G36*
X17709100Y-43304000D02*
G01*
X15250000Y-43304000D01*
X15250000Y-43196000D01*
X17709100Y-43196000D01*
X17709100Y-43304000D01*
G37*
%TD.AperFunction*%
%TA.AperFunction,Conductor*%
G36*
X17709100Y-43404000D02*
G01*
X15250000Y-43404000D01*
X15250000Y-43296000D01*
X17709100Y-43296000D01*
X17709100Y-43404000D01*
G37*
%TD.AperFunction*%
%TA.AperFunction,Conductor*%
G36*
X17709100Y-43504000D02*
G01*
X15250000Y-43504000D01*
X15250000Y-43396000D01*
X17709100Y-43396000D01*
X17709100Y-43504000D01*
G37*
%TD.AperFunction*%
%TA.AperFunction,Conductor*%
G36*
X17709100Y-43604000D02*
G01*
X15250000Y-43604000D01*
X15250000Y-43496000D01*
X17709100Y-43496000D01*
X17709100Y-43604000D01*
G37*
%TD.AperFunction*%
%TA.AperFunction,Conductor*%
G36*
X17709100Y-43704000D02*
G01*
X15250000Y-43704000D01*
X15250000Y-43596000D01*
X17709100Y-43596000D01*
X17709100Y-43704000D01*
G37*
%TD.AperFunction*%
%TA.AperFunction,Conductor*%
G36*
X17709100Y-43804000D02*
G01*
X15250000Y-43804000D01*
X15250000Y-43696000D01*
X17709100Y-43696000D01*
X17709100Y-43804000D01*
G37*
%TD.AperFunction*%
%TA.AperFunction,Conductor*%
G36*
X17709100Y-43904000D02*
G01*
X15250000Y-43904000D01*
X15250000Y-43796000D01*
X17709100Y-43796000D01*
X17709100Y-43904000D01*
G37*
%TD.AperFunction*%
%TA.AperFunction,Conductor*%
G36*
X17709100Y-44004000D02*
G01*
X15250000Y-44004000D01*
X15250000Y-43896000D01*
X17709100Y-43896000D01*
X17709100Y-44004000D01*
G37*
%TD.AperFunction*%
%TA.AperFunction,Conductor*%
G36*
X17709100Y-44104000D02*
G01*
X15250000Y-44104000D01*
X15250000Y-43996000D01*
X17709100Y-43996000D01*
X17709100Y-44104000D01*
G37*
%TD.AperFunction*%
%TA.AperFunction,Conductor*%
G36*
X17709100Y-44204000D02*
G01*
X15250000Y-44204000D01*
X15250000Y-44096000D01*
X17709100Y-44096000D01*
X17709100Y-44204000D01*
G37*
%TD.AperFunction*%
%TA.AperFunction,Conductor*%
G36*
X17709100Y-44304000D02*
G01*
X15250000Y-44304000D01*
X15250000Y-44196000D01*
X17709100Y-44196000D01*
X17709100Y-44304000D01*
G37*
%TD.AperFunction*%
%TA.AperFunction,Conductor*%
G36*
X17709100Y-44404000D02*
G01*
X15250000Y-44404000D01*
X15250000Y-44296000D01*
X17709100Y-44296000D01*
X17709100Y-44404000D01*
G37*
%TD.AperFunction*%
%TA.AperFunction,Conductor*%
G36*
X17709100Y-44504000D02*
G01*
X15250000Y-44504000D01*
X15250000Y-44396000D01*
X17709100Y-44396000D01*
X17709100Y-44504000D01*
G37*
%TD.AperFunction*%
%TA.AperFunction,Conductor*%
G36*
X17709100Y-44604000D02*
G01*
X15250000Y-44604000D01*
X15250000Y-44496000D01*
X17709100Y-44496000D01*
X17709100Y-44604000D01*
G37*
%TD.AperFunction*%
%TA.AperFunction,Conductor*%
G36*
X17709100Y-44704000D02*
G01*
X15250000Y-44704000D01*
X15250000Y-44596000D01*
X17709100Y-44596000D01*
X17709100Y-44704000D01*
G37*
%TD.AperFunction*%
%TA.AperFunction,Conductor*%
G36*
X17709100Y-44804000D02*
G01*
X15250000Y-44804000D01*
X15250000Y-44696000D01*
X17709100Y-44696000D01*
X17709100Y-44804000D01*
G37*
%TD.AperFunction*%
%TA.AperFunction,Conductor*%
G36*
X17709100Y-44904000D02*
G01*
X15250000Y-44904000D01*
X15250000Y-44796000D01*
X17709100Y-44796000D01*
X17709100Y-44904000D01*
G37*
%TD.AperFunction*%
%TA.AperFunction,Conductor*%
G36*
X17709100Y-45004000D02*
G01*
X15250000Y-45004000D01*
X15250000Y-44896000D01*
X17709100Y-44896000D01*
X17709100Y-45004000D01*
G37*
%TD.AperFunction*%
%TA.AperFunction,Conductor*%
G36*
X17709100Y-45104000D02*
G01*
X15250000Y-45104000D01*
X15250000Y-44996000D01*
X17709100Y-44996000D01*
X17709100Y-45104000D01*
G37*
%TD.AperFunction*%
%TA.AperFunction,Conductor*%
G36*
X17709100Y-45204000D02*
G01*
X15250000Y-45204000D01*
X15250000Y-45096000D01*
X17709100Y-45096000D01*
X17709100Y-45204000D01*
G37*
%TD.AperFunction*%
%TA.AperFunction,Conductor*%
G36*
X17709100Y-45304000D02*
G01*
X15250000Y-45304000D01*
X15250000Y-45196000D01*
X17709100Y-45196000D01*
X17709100Y-45304000D01*
G37*
%TD.AperFunction*%
%TA.AperFunction,Conductor*%
G36*
X17709100Y-45404000D02*
G01*
X15250000Y-45404000D01*
X15250000Y-45296000D01*
X17709100Y-45296000D01*
X17709100Y-45404000D01*
G37*
%TD.AperFunction*%
%TA.AperFunction,Conductor*%
G36*
X17709100Y-45504000D02*
G01*
X15250000Y-45504000D01*
X15250000Y-45396000D01*
X17709100Y-45396000D01*
X17709100Y-45504000D01*
G37*
%TD.AperFunction*%
%TA.AperFunction,Conductor*%
G36*
X17709100Y-45604000D02*
G01*
X15250000Y-45604000D01*
X15250000Y-45496000D01*
X17709100Y-45496000D01*
X17709100Y-45604000D01*
G37*
%TD.AperFunction*%
%TA.AperFunction,Conductor*%
G36*
X17709100Y-45704000D02*
G01*
X15250000Y-45704000D01*
X15250000Y-45596000D01*
X17709100Y-45596000D01*
X17709100Y-45704000D01*
G37*
%TD.AperFunction*%
%TA.AperFunction,Conductor*%
G36*
X17709100Y-45804000D02*
G01*
X15250000Y-45804000D01*
X15250000Y-45696000D01*
X17709100Y-45696000D01*
X17709100Y-45804000D01*
G37*
%TD.AperFunction*%
%TA.AperFunction,Conductor*%
G36*
X17709100Y-45904000D02*
G01*
X15250000Y-45904000D01*
X15250000Y-45796000D01*
X17709100Y-45796000D01*
X17709100Y-45904000D01*
G37*
%TD.AperFunction*%
D11*
%TA.AperFunction,NonConductor*%
G36*
X19773900Y-45004000D02*
G01*
X18654300Y-45004000D01*
X18654300Y-44896000D01*
X19816800Y-44896000D01*
X19773900Y-45004000D01*
G37*
%TD.AperFunction*%
%TA.AperFunction,NonConductor*%
G36*
X19819000Y-42904000D02*
G01*
X18654300Y-42904000D01*
X18654300Y-42796000D01*
X19775800Y-42796000D01*
X19819000Y-42904000D01*
G37*
%TD.AperFunction*%
%TA.AperFunction,NonConductor*%
G36*
X19845700Y-43204000D02*
G01*
X18654300Y-43204000D01*
X18654300Y-43096000D01*
X19845700Y-43096000D01*
X19845700Y-43204000D01*
G37*
%TD.AperFunction*%
%TA.AperFunction,NonConductor*%
G36*
X19845700Y-43304000D02*
G01*
X18654300Y-43304000D01*
X18654300Y-43196000D01*
X19845700Y-43196000D01*
X19845700Y-43304000D01*
G37*
%TD.AperFunction*%
%TA.AperFunction,NonConductor*%
G36*
X19845700Y-43404000D02*
G01*
X18654300Y-43404000D01*
X18654300Y-43296000D01*
X19845700Y-43296000D01*
X19845700Y-43404000D01*
G37*
%TD.AperFunction*%
%TA.AperFunction,NonConductor*%
G36*
X19845700Y-43504000D02*
G01*
X18654300Y-43504000D01*
X18654300Y-43396000D01*
X19845700Y-43396000D01*
X19845700Y-43504000D01*
G37*
%TD.AperFunction*%
%TA.AperFunction,NonConductor*%
G36*
X19845700Y-43604000D02*
G01*
X18654300Y-43604000D01*
X18654300Y-43496000D01*
X19845700Y-43496000D01*
X19845700Y-43604000D01*
G37*
%TD.AperFunction*%
%TA.AperFunction,NonConductor*%
G36*
X19845700Y-43704000D02*
G01*
X18654300Y-43704000D01*
X18654300Y-43596000D01*
X19845700Y-43596000D01*
X19845700Y-43704000D01*
G37*
%TD.AperFunction*%
%TA.AperFunction,NonConductor*%
G36*
X19845700Y-43804000D02*
G01*
X18654300Y-43804000D01*
X18654300Y-43696000D01*
X19845700Y-43696000D01*
X19845700Y-43804000D01*
G37*
%TD.AperFunction*%
%TA.AperFunction,NonConductor*%
G36*
X19845700Y-43904000D02*
G01*
X18654300Y-43904000D01*
X18654300Y-43796000D01*
X19845700Y-43796000D01*
X19845700Y-43904000D01*
G37*
%TD.AperFunction*%
%TA.AperFunction,NonConductor*%
G36*
X19845700Y-44004000D02*
G01*
X18654300Y-44004000D01*
X18654300Y-43896000D01*
X19845700Y-43896000D01*
X19845700Y-44004000D01*
G37*
%TD.AperFunction*%
%TA.AperFunction,NonConductor*%
G36*
X19845700Y-44104000D02*
G01*
X18654300Y-44104000D01*
X18654300Y-43996000D01*
X19845700Y-43996000D01*
X19845700Y-44104000D01*
G37*
%TD.AperFunction*%
%TA.AperFunction,NonConductor*%
G36*
X19845700Y-44204000D02*
G01*
X18654300Y-44204000D01*
X18654300Y-44096000D01*
X19845700Y-44096000D01*
X19845700Y-44204000D01*
G37*
%TD.AperFunction*%
%TA.AperFunction,NonConductor*%
G36*
X19845700Y-44304000D02*
G01*
X18654300Y-44304000D01*
X18654300Y-44196000D01*
X19845700Y-44196000D01*
X19845700Y-44304000D01*
G37*
%TD.AperFunction*%
%TA.AperFunction,NonConductor*%
G36*
X19845700Y-44404000D02*
G01*
X18654300Y-44404000D01*
X18654300Y-44296000D01*
X19845700Y-44296000D01*
X19845700Y-44404000D01*
G37*
%TD.AperFunction*%
%TA.AperFunction,NonConductor*%
G36*
X19845700Y-44504000D02*
G01*
X18654300Y-44504000D01*
X18654300Y-44396000D01*
X19845700Y-44396000D01*
X19845700Y-44504000D01*
G37*
%TD.AperFunction*%
%TA.AperFunction,NonConductor*%
G36*
X19845700Y-44604000D02*
G01*
X18654300Y-44604000D01*
X18654300Y-44496000D01*
X19845700Y-44496000D01*
X19845700Y-44604000D01*
G37*
%TD.AperFunction*%
%TA.AperFunction,NonConductor*%
G36*
X19845700Y-44704000D02*
G01*
X18654300Y-44704000D01*
X18654300Y-44596000D01*
X19845700Y-44596000D01*
X19845700Y-44704000D01*
G37*
%TD.AperFunction*%
D10*
%TA.AperFunction,Conductor*%
G36*
X23977600Y-42004000D02*
G01*
X20336200Y-42004000D01*
X20219500Y-41896000D01*
X23977600Y-41896000D01*
X23977600Y-42004000D01*
G37*
%TD.AperFunction*%
%TA.AperFunction,Conductor*%
G36*
X23977600Y-42104000D02*
G01*
X20444200Y-42104000D01*
X20327500Y-41996000D01*
X23977600Y-41996000D01*
X23977600Y-42104000D01*
G37*
%TD.AperFunction*%
%TA.AperFunction,Conductor*%
G36*
X23977600Y-42604000D02*
G01*
X20713500Y-42604000D01*
X20685900Y-42496000D01*
X23977600Y-42496000D01*
X23977600Y-42604000D01*
G37*
%TD.AperFunction*%
%TA.AperFunction,Conductor*%
G36*
X23977600Y-42704000D02*
G01*
X20739100Y-42704000D01*
X20711500Y-42596000D01*
X23977600Y-42596000D01*
X23977600Y-42704000D01*
G37*
%TD.AperFunction*%
%TA.AperFunction,Conductor*%
G36*
X23977600Y-42804000D02*
G01*
X20764600Y-42804000D01*
X20737000Y-42696000D01*
X23977600Y-42696000D01*
X23977600Y-42804000D01*
G37*
%TD.AperFunction*%
%TA.AperFunction,Conductor*%
G36*
X23977600Y-43004000D02*
G01*
X20786800Y-43004000D01*
X20780600Y-42896000D01*
X23977600Y-42896000D01*
X23977600Y-43004000D01*
G37*
%TD.AperFunction*%
%TA.AperFunction,Conductor*%
G36*
X23977600Y-43204000D02*
G01*
X20790900Y-43204000D01*
X20790900Y-43096000D01*
X23977600Y-43096000D01*
X23977600Y-43204000D01*
G37*
%TD.AperFunction*%
%TA.AperFunction,Conductor*%
G36*
X23977600Y-43304000D02*
G01*
X20790900Y-43304000D01*
X20790900Y-43196000D01*
X23977600Y-43196000D01*
X23977600Y-43304000D01*
G37*
%TD.AperFunction*%
%TA.AperFunction,Conductor*%
G36*
X23977600Y-43404000D02*
G01*
X20790900Y-43404000D01*
X20790900Y-43296000D01*
X23977600Y-43296000D01*
X23977600Y-43404000D01*
G37*
%TD.AperFunction*%
%TA.AperFunction,Conductor*%
G36*
X23977600Y-43504000D02*
G01*
X20790900Y-43504000D01*
X20790900Y-43396000D01*
X23977600Y-43396000D01*
X23977600Y-43504000D01*
G37*
%TD.AperFunction*%
%TA.AperFunction,Conductor*%
G36*
X23977600Y-43604000D02*
G01*
X20790900Y-43604000D01*
X20790900Y-43496000D01*
X23977600Y-43496000D01*
X23977600Y-43604000D01*
G37*
%TD.AperFunction*%
%TA.AperFunction,Conductor*%
G36*
X23977600Y-43704000D02*
G01*
X20790900Y-43704000D01*
X20790900Y-43596000D01*
X23977600Y-43596000D01*
X23977600Y-43704000D01*
G37*
%TD.AperFunction*%
%TA.AperFunction,Conductor*%
G36*
X23977600Y-43804000D02*
G01*
X20790900Y-43804000D01*
X20790900Y-43696000D01*
X23977600Y-43696000D01*
X23977600Y-43804000D01*
G37*
%TD.AperFunction*%
%TA.AperFunction,Conductor*%
G36*
X23977600Y-43904000D02*
G01*
X20790900Y-43904000D01*
X20790900Y-43796000D01*
X23977600Y-43796000D01*
X23977600Y-43904000D01*
G37*
%TD.AperFunction*%
%TA.AperFunction,Conductor*%
G36*
X23977600Y-44004000D02*
G01*
X20790900Y-44004000D01*
X20790900Y-43896000D01*
X23977600Y-43896000D01*
X23977600Y-44004000D01*
G37*
%TD.AperFunction*%
%TA.AperFunction,Conductor*%
G36*
X23977600Y-44104000D02*
G01*
X20790900Y-44104000D01*
X20790900Y-43996000D01*
X23977600Y-43996000D01*
X23977600Y-44104000D01*
G37*
%TD.AperFunction*%
%TA.AperFunction,Conductor*%
G36*
X23977600Y-44204000D02*
G01*
X20790900Y-44204000D01*
X20790900Y-44096000D01*
X23977600Y-44096000D01*
X23977600Y-44204000D01*
G37*
%TD.AperFunction*%
%TA.AperFunction,Conductor*%
G36*
X23977600Y-44304000D02*
G01*
X20790900Y-44304000D01*
X20790900Y-44196000D01*
X23977600Y-44196000D01*
X23977600Y-44304000D01*
G37*
%TD.AperFunction*%
%TA.AperFunction,Conductor*%
G36*
X23977600Y-44404000D02*
G01*
X20790900Y-44404000D01*
X20790900Y-44296000D01*
X23977600Y-44296000D01*
X23977600Y-44404000D01*
G37*
%TD.AperFunction*%
%TA.AperFunction,Conductor*%
G36*
X23977600Y-44504000D02*
G01*
X20790900Y-44504000D01*
X20790900Y-44396000D01*
X23977600Y-44396000D01*
X23977600Y-44504000D01*
G37*
%TD.AperFunction*%
%TA.AperFunction,Conductor*%
G36*
X23977600Y-44604000D02*
G01*
X20790900Y-44604000D01*
X20790900Y-44496000D01*
X23977600Y-44496000D01*
X23977600Y-44604000D01*
G37*
%TD.AperFunction*%
%TA.AperFunction,Conductor*%
G36*
X23977600Y-44704000D02*
G01*
X20790900Y-44704000D01*
X20790900Y-44596000D01*
X23977600Y-44596000D01*
X23977600Y-44704000D01*
G37*
%TD.AperFunction*%
%TA.AperFunction,Conductor*%
G36*
X23977600Y-44904000D02*
G01*
X20780100Y-44904000D01*
X20786400Y-44796000D01*
X23977600Y-44796000D01*
X23977600Y-44904000D01*
G37*
%TD.AperFunction*%
%TA.AperFunction,Conductor*%
G36*
X23977600Y-45104000D02*
G01*
X20734600Y-45104000D01*
X20762300Y-44996000D01*
X23977600Y-44996000D01*
X23977600Y-45104000D01*
G37*
%TD.AperFunction*%
%TA.AperFunction,Conductor*%
G36*
X23977600Y-45204000D02*
G01*
X20708900Y-45204000D01*
X20736600Y-45096000D01*
X23977600Y-45096000D01*
X23977600Y-45204000D01*
G37*
%TD.AperFunction*%
%TA.AperFunction,Conductor*%
G36*
X23977600Y-45304000D02*
G01*
X20683200Y-45304000D01*
X20711000Y-45196000D01*
X23977600Y-45196000D01*
X23977600Y-45304000D01*
G37*
%TD.AperFunction*%
%TA.AperFunction,Conductor*%
G36*
X23977600Y-45604000D02*
G01*
X20516100Y-45604000D01*
X20590600Y-45496000D01*
X23977600Y-45496000D01*
X23977600Y-45604000D01*
G37*
%TD.AperFunction*%
%TA.AperFunction,Conductor*%
G36*
X23977600Y-45804000D02*
G01*
X20320700Y-45804000D01*
X20435900Y-45696000D01*
X23977600Y-45696000D01*
X23977600Y-45804000D01*
G37*
%TD.AperFunction*%
%TA.AperFunction,Conductor*%
G36*
X23977600Y-45904000D02*
G01*
X20214100Y-45904000D01*
X20329300Y-45796000D01*
X23977600Y-45796000D01*
X23977600Y-45904000D01*
G37*
%TD.AperFunction*%
%TA.AperFunction,Conductor*%
G36*
X25370400Y-44504000D02*
G01*
X24911000Y-44504000D01*
X24911000Y-44461200D01*
X25352100Y-44461200D01*
X25370400Y-44504000D01*
G37*
%TD.AperFunction*%
%TA.AperFunction,Conductor*%
G36*
X25413100Y-44604000D02*
G01*
X24911000Y-44604000D01*
X24911000Y-44496000D01*
X25367000Y-44496000D01*
X25413100Y-44604000D01*
G37*
%TD.AperFunction*%
%TA.AperFunction,Conductor*%
G36*
X25455900Y-44704000D02*
G01*
X24911000Y-44704000D01*
X24911000Y-44596000D01*
X25409700Y-44596000D01*
X25455900Y-44704000D01*
G37*
%TD.AperFunction*%
%TA.AperFunction,Conductor*%
G36*
X25498600Y-44804000D02*
G01*
X24911000Y-44804000D01*
X24911000Y-44696000D01*
X25452500Y-44696000D01*
X25498600Y-44804000D01*
G37*
%TD.AperFunction*%
%TA.AperFunction,Conductor*%
G36*
X25541400Y-44904000D02*
G01*
X24911000Y-44904000D01*
X24911000Y-44796000D01*
X25495200Y-44796000D01*
X25541400Y-44904000D01*
G37*
%TD.AperFunction*%
%TA.AperFunction,Conductor*%
G36*
X25584100Y-45004000D02*
G01*
X24911000Y-45004000D01*
X24911000Y-44896000D01*
X25538000Y-44896000D01*
X25584100Y-45004000D01*
G37*
%TD.AperFunction*%
%TA.AperFunction,Conductor*%
G36*
X25626900Y-45104000D02*
G01*
X24911000Y-45104000D01*
X24911000Y-44996000D01*
X25580700Y-44996000D01*
X25626900Y-45104000D01*
G37*
%TD.AperFunction*%
%TA.AperFunction,Conductor*%
G36*
X25669700Y-45204000D02*
G01*
X24911000Y-45204000D01*
X24911000Y-45096000D01*
X25623500Y-45096000D01*
X25669700Y-45204000D01*
G37*
%TD.AperFunction*%
%TA.AperFunction,Conductor*%
G36*
X25712400Y-45304000D02*
G01*
X24911000Y-45304000D01*
X24911000Y-45196000D01*
X25666200Y-45196000D01*
X25712400Y-45304000D01*
G37*
%TD.AperFunction*%
%TA.AperFunction,Conductor*%
G36*
X25755200Y-45404000D02*
G01*
X24911000Y-45404000D01*
X24911000Y-45296000D01*
X25709000Y-45296000D01*
X25755200Y-45404000D01*
G37*
%TD.AperFunction*%
%TA.AperFunction,Conductor*%
G36*
X25797900Y-45504000D02*
G01*
X24911000Y-45504000D01*
X24911000Y-45396000D01*
X25751700Y-45396000D01*
X25797900Y-45504000D01*
G37*
%TD.AperFunction*%
%TA.AperFunction,Conductor*%
G36*
X25840700Y-45604000D02*
G01*
X24911000Y-45604000D01*
X24911000Y-45496000D01*
X25794500Y-45496000D01*
X25840700Y-45604000D01*
G37*
%TD.AperFunction*%
%TA.AperFunction,Conductor*%
G36*
X25883400Y-45704000D02*
G01*
X24911000Y-45704000D01*
X24911000Y-45596000D01*
X25837200Y-45596000D01*
X25883400Y-45704000D01*
G37*
%TD.AperFunction*%
%TA.AperFunction,Conductor*%
G36*
X25926200Y-45804000D02*
G01*
X24911000Y-45804000D01*
X24911000Y-45696000D01*
X25880000Y-45696000D01*
X25926200Y-45804000D01*
G37*
%TD.AperFunction*%
%TA.AperFunction,Conductor*%
G36*
X25968900Y-45904000D02*
G01*
X24911000Y-45904000D01*
X24911000Y-45796000D01*
X25922700Y-45796000D01*
X25968900Y-45904000D01*
G37*
%TD.AperFunction*%
%TA.AperFunction,Conductor*%
G36*
X26011700Y-46004000D02*
G01*
X24911000Y-46004000D01*
X24911000Y-45896000D01*
X25965500Y-45896000D01*
X26011700Y-46004000D01*
G37*
%TD.AperFunction*%
D11*
%TA.AperFunction,NonConductor*%
G36*
X26053600Y-43304000D02*
G01*
X24911000Y-43304000D01*
X24911000Y-43196000D01*
X26096000Y-43196000D01*
X26053600Y-43304000D01*
G37*
%TD.AperFunction*%
D10*
%TA.AperFunction,Conductor*%
G36*
X26054400Y-46104000D02*
G01*
X24911000Y-46104000D01*
X24911000Y-45996000D01*
X26008200Y-45996000D01*
X26054400Y-46104000D01*
G37*
%TD.AperFunction*%
D11*
%TA.AperFunction,NonConductor*%
G36*
X26065800Y-42804000D02*
G01*
X24911000Y-42804000D01*
X24911000Y-42696000D01*
X26025100Y-42696000D01*
X26065800Y-42804000D01*
G37*
%TD.AperFunction*%
D10*
%TA.AperFunction,Conductor*%
G36*
X30225100Y-42004000D02*
G01*
X26632900Y-42004000D01*
X26508900Y-41896000D01*
X30225100Y-41896000D01*
X30225100Y-42004000D01*
G37*
%TD.AperFunction*%
%TA.AperFunction,Conductor*%
G36*
X30225100Y-42104000D02*
G01*
X26747700Y-42104000D01*
X26623700Y-41996000D01*
X30225100Y-41996000D01*
X30225100Y-42104000D01*
G37*
%TD.AperFunction*%
%TA.AperFunction,Conductor*%
G36*
X30225100Y-42404000D02*
G01*
X26938900Y-42404000D01*
X26881800Y-42296000D01*
X30225100Y-42296000D01*
X30225100Y-42404000D01*
G37*
%TD.AperFunction*%
%TA.AperFunction,Conductor*%
G36*
X30225100Y-42604000D02*
G01*
X26996600Y-42604000D01*
X26967700Y-42496000D01*
X30225100Y-42496000D01*
X30225100Y-42604000D01*
G37*
%TD.AperFunction*%
%TA.AperFunction,Conductor*%
G36*
X30225100Y-42704000D02*
G01*
X27023400Y-42704000D01*
X26994500Y-42596000D01*
X30225100Y-42596000D01*
X30225100Y-42704000D01*
G37*
%TD.AperFunction*%
%TA.AperFunction,Conductor*%
G36*
X30225100Y-42904000D02*
G01*
X27053700Y-42904000D01*
X27047200Y-42796000D01*
X30225100Y-42796000D01*
X30225100Y-42904000D01*
G37*
%TD.AperFunction*%
%TA.AperFunction,Conductor*%
G36*
X30225100Y-43204000D02*
G01*
X27046600Y-43204000D01*
X27053300Y-43096000D01*
X30225100Y-43096000D01*
X30225100Y-43204000D01*
G37*
%TD.AperFunction*%
%TA.AperFunction,Conductor*%
G36*
X30225100Y-43404000D02*
G01*
X26994900Y-43404000D01*
X27024200Y-43296000D01*
X30225100Y-43296000D01*
X30225100Y-43404000D01*
G37*
%TD.AperFunction*%
%TA.AperFunction,Conductor*%
G36*
X30225100Y-43504000D02*
G01*
X26967700Y-43504000D01*
X26997100Y-43396000D01*
X30225100Y-43396000D01*
X30225100Y-43504000D01*
G37*
%TD.AperFunction*%
%TA.AperFunction,Conductor*%
G36*
X30225100Y-43604000D02*
G01*
X26940500Y-43604000D01*
X26969900Y-43496000D01*
X30225100Y-43496000D01*
X30225100Y-43604000D01*
G37*
%TD.AperFunction*%
%TA.AperFunction,Conductor*%
G36*
X30225100Y-44104000D02*
G01*
X26561300Y-44104000D01*
X26686000Y-43996000D01*
X30225100Y-43996000D01*
X30225100Y-44104000D01*
G37*
%TD.AperFunction*%
%TA.AperFunction,Conductor*%
G36*
X30225100Y-44204000D02*
G01*
X26445900Y-44204000D01*
X26570600Y-44096000D01*
X30225100Y-44096000D01*
X30225100Y-44204000D01*
G37*
%TD.AperFunction*%
%TA.AperFunction,Conductor*%
G36*
X30225100Y-44504000D02*
G01*
X26342400Y-44504000D01*
X26292700Y-44396000D01*
X30225100Y-44396000D01*
X30225100Y-44504000D01*
G37*
%TD.AperFunction*%
%TA.AperFunction,Conductor*%
G36*
X30225100Y-44604000D02*
G01*
X26388400Y-44604000D01*
X26338700Y-44496000D01*
X30225100Y-44496000D01*
X30225100Y-44604000D01*
G37*
%TD.AperFunction*%
%TA.AperFunction,Conductor*%
G36*
X30225100Y-44704000D02*
G01*
X26434400Y-44704000D01*
X26384700Y-44596000D01*
X30225100Y-44596000D01*
X30225100Y-44704000D01*
G37*
%TD.AperFunction*%
%TA.AperFunction,Conductor*%
G36*
X30225100Y-44804000D02*
G01*
X26480400Y-44804000D01*
X26430700Y-44696000D01*
X30225100Y-44696000D01*
X30225100Y-44804000D01*
G37*
%TD.AperFunction*%
%TA.AperFunction,Conductor*%
G36*
X30225100Y-44904000D02*
G01*
X26526400Y-44904000D01*
X26476700Y-44796000D01*
X30225100Y-44796000D01*
X30225100Y-44904000D01*
G37*
%TD.AperFunction*%
%TA.AperFunction,Conductor*%
G36*
X30225100Y-45004000D02*
G01*
X26572400Y-45004000D01*
X26522700Y-44896000D01*
X30225100Y-44896000D01*
X30225100Y-45004000D01*
G37*
%TD.AperFunction*%
%TA.AperFunction,Conductor*%
G36*
X30225100Y-45104000D02*
G01*
X26618300Y-45104000D01*
X26568700Y-44996000D01*
X30225100Y-44996000D01*
X30225100Y-45104000D01*
G37*
%TD.AperFunction*%
%TA.AperFunction,Conductor*%
G36*
X30225100Y-45204000D02*
G01*
X26664300Y-45204000D01*
X26614700Y-45096000D01*
X30225100Y-45096000D01*
X30225100Y-45204000D01*
G37*
%TD.AperFunction*%
%TA.AperFunction,Conductor*%
G36*
X30225100Y-45304000D02*
G01*
X26710300Y-45304000D01*
X26660700Y-45196000D01*
X30225100Y-45196000D01*
X30225100Y-45304000D01*
G37*
%TD.AperFunction*%
%TA.AperFunction,Conductor*%
G36*
X30225100Y-45404000D02*
G01*
X26756300Y-45404000D01*
X26706600Y-45296000D01*
X30225100Y-45296000D01*
X30225100Y-45404000D01*
G37*
%TD.AperFunction*%
%TA.AperFunction,Conductor*%
G36*
X30225100Y-45504000D02*
G01*
X26802300Y-45504000D01*
X26752600Y-45396000D01*
X30225100Y-45396000D01*
X30225100Y-45504000D01*
G37*
%TD.AperFunction*%
%TA.AperFunction,Conductor*%
G36*
X30225100Y-45604000D02*
G01*
X26848300Y-45604000D01*
X26798600Y-45496000D01*
X30225100Y-45496000D01*
X30225100Y-45604000D01*
G37*
%TD.AperFunction*%
%TA.AperFunction,Conductor*%
G36*
X30225100Y-45704000D02*
G01*
X26894300Y-45704000D01*
X26844600Y-45596000D01*
X30225100Y-45596000D01*
X30225100Y-45704000D01*
G37*
%TD.AperFunction*%
%TA.AperFunction,Conductor*%
G36*
X30225100Y-45804000D02*
G01*
X26940300Y-45804000D01*
X26890600Y-45696000D01*
X30225100Y-45696000D01*
X30225100Y-45804000D01*
G37*
%TD.AperFunction*%
%TA.AperFunction,Conductor*%
G36*
X30225100Y-45904000D02*
G01*
X26986300Y-45904000D01*
X26936600Y-45796000D01*
X30225100Y-45796000D01*
X30225100Y-45904000D01*
G37*
%TD.AperFunction*%
%TA.AperFunction,Conductor*%
G36*
X30225100Y-46004000D02*
G01*
X27032200Y-46004000D01*
X26982600Y-45896000D01*
X30225100Y-45896000D01*
X30225100Y-46004000D01*
G37*
%TD.AperFunction*%
%TA.AperFunction,Conductor*%
G36*
X30225100Y-46104000D02*
G01*
X27078200Y-46104000D01*
X27028600Y-45996000D01*
X30225100Y-45996000D01*
X30225100Y-46104000D01*
G37*
%TD.AperFunction*%
%TA.AperFunction,Conductor*%
G36*
X32229700Y-43390000D02*
G01*
X31170300Y-43390000D01*
X31170300Y-43296000D01*
X32229700Y-43296000D01*
X32229700Y-43390000D01*
G37*
%TD.AperFunction*%
%TA.AperFunction,Conductor*%
G36*
X32229700Y-41804000D02*
G01*
X31170300Y-41804000D01*
X31170300Y-41696000D01*
X32229700Y-41696000D01*
X32229700Y-41804000D01*
G37*
%TD.AperFunction*%
%TA.AperFunction,Conductor*%
G36*
X32229700Y-41904000D02*
G01*
X31170300Y-41904000D01*
X31170300Y-41796000D01*
X32229700Y-41796000D01*
X32229700Y-41904000D01*
G37*
%TD.AperFunction*%
%TA.AperFunction,Conductor*%
G36*
X32229700Y-42004000D02*
G01*
X31170300Y-42004000D01*
X31170300Y-41896000D01*
X32229700Y-41896000D01*
X32229700Y-42004000D01*
G37*
%TD.AperFunction*%
%TA.AperFunction,Conductor*%
G36*
X32229700Y-42104000D02*
G01*
X31170300Y-42104000D01*
X31170300Y-41996000D01*
X32229700Y-41996000D01*
X32229700Y-42104000D01*
G37*
%TD.AperFunction*%
%TA.AperFunction,Conductor*%
G36*
X32229700Y-42204000D02*
G01*
X31170300Y-42204000D01*
X31170300Y-42096000D01*
X32229700Y-42096000D01*
X32229700Y-42204000D01*
G37*
%TD.AperFunction*%
%TA.AperFunction,Conductor*%
G36*
X32229700Y-42304000D02*
G01*
X31170300Y-42304000D01*
X31170300Y-42196000D01*
X32229700Y-42196000D01*
X32229700Y-42304000D01*
G37*
%TD.AperFunction*%
%TA.AperFunction,Conductor*%
G36*
X32229700Y-42404000D02*
G01*
X31170300Y-42404000D01*
X31170300Y-42296000D01*
X32229700Y-42296000D01*
X32229700Y-42404000D01*
G37*
%TD.AperFunction*%
%TA.AperFunction,Conductor*%
G36*
X32229700Y-42504000D02*
G01*
X31170300Y-42504000D01*
X31170300Y-42396000D01*
X32229700Y-42396000D01*
X32229700Y-42504000D01*
G37*
%TD.AperFunction*%
%TA.AperFunction,Conductor*%
G36*
X32229700Y-42604000D02*
G01*
X31170300Y-42604000D01*
X31170300Y-42496000D01*
X32229700Y-42496000D01*
X32229700Y-42604000D01*
G37*
%TD.AperFunction*%
%TA.AperFunction,Conductor*%
G36*
X32229700Y-42704000D02*
G01*
X31170300Y-42704000D01*
X31170300Y-42596000D01*
X32229700Y-42596000D01*
X32229700Y-42704000D01*
G37*
%TD.AperFunction*%
%TA.AperFunction,Conductor*%
G36*
X32229700Y-42804000D02*
G01*
X31170300Y-42804000D01*
X31170300Y-42696000D01*
X32229700Y-42696000D01*
X32229700Y-42804000D01*
G37*
%TD.AperFunction*%
%TA.AperFunction,Conductor*%
G36*
X32229700Y-42904000D02*
G01*
X31170300Y-42904000D01*
X31170300Y-42796000D01*
X32229700Y-42796000D01*
X32229700Y-42904000D01*
G37*
%TD.AperFunction*%
%TA.AperFunction,Conductor*%
G36*
X32229700Y-43004000D02*
G01*
X31170300Y-43004000D01*
X31170300Y-42896000D01*
X32229700Y-42896000D01*
X32229700Y-43004000D01*
G37*
%TD.AperFunction*%
%TA.AperFunction,Conductor*%
G36*
X32229700Y-43104000D02*
G01*
X31170300Y-43104000D01*
X31170300Y-42996000D01*
X32229700Y-42996000D01*
X32229700Y-43104000D01*
G37*
%TD.AperFunction*%
%TA.AperFunction,Conductor*%
G36*
X32229700Y-43204000D02*
G01*
X31170300Y-43204000D01*
X31170300Y-43096000D01*
X32229700Y-43096000D01*
X32229700Y-43204000D01*
G37*
%TD.AperFunction*%
%TA.AperFunction,Conductor*%
G36*
X32229700Y-43304000D02*
G01*
X31170300Y-43304000D01*
X31170300Y-43196000D01*
X32229700Y-43196000D01*
X32229700Y-43304000D01*
G37*
%TD.AperFunction*%
%TA.AperFunction,Conductor*%
G36*
X32229700Y-44304000D02*
G01*
X31170300Y-44304000D01*
X31170300Y-44240700D01*
X32229700Y-44240700D01*
X32229700Y-44304000D01*
G37*
%TD.AperFunction*%
%TA.AperFunction,Conductor*%
G36*
X32229700Y-44404000D02*
G01*
X31170300Y-44404000D01*
X31170300Y-44296000D01*
X32229700Y-44296000D01*
X32229700Y-44404000D01*
G37*
%TD.AperFunction*%
%TA.AperFunction,Conductor*%
G36*
X32229700Y-44504000D02*
G01*
X31170300Y-44504000D01*
X31170300Y-44396000D01*
X32229700Y-44396000D01*
X32229700Y-44504000D01*
G37*
%TD.AperFunction*%
%TA.AperFunction,Conductor*%
G36*
X32229700Y-44604000D02*
G01*
X31170300Y-44604000D01*
X31170300Y-44496000D01*
X32229700Y-44496000D01*
X32229700Y-44604000D01*
G37*
%TD.AperFunction*%
%TA.AperFunction,Conductor*%
G36*
X32229700Y-44704000D02*
G01*
X31170300Y-44704000D01*
X31170300Y-44596000D01*
X32229700Y-44596000D01*
X32229700Y-44704000D01*
G37*
%TD.AperFunction*%
%TA.AperFunction,Conductor*%
G36*
X32229700Y-44804000D02*
G01*
X31170300Y-44804000D01*
X31170300Y-44696000D01*
X32229700Y-44696000D01*
X32229700Y-44804000D01*
G37*
%TD.AperFunction*%
%TA.AperFunction,Conductor*%
G36*
X32229700Y-44904000D02*
G01*
X31170300Y-44904000D01*
X31170300Y-44796000D01*
X32229700Y-44796000D01*
X32229700Y-44904000D01*
G37*
%TD.AperFunction*%
%TA.AperFunction,Conductor*%
G36*
X32229700Y-45004000D02*
G01*
X31170300Y-45004000D01*
X31170300Y-44896000D01*
X32229700Y-44896000D01*
X32229700Y-45004000D01*
G37*
%TD.AperFunction*%
%TA.AperFunction,Conductor*%
G36*
X32229700Y-45104000D02*
G01*
X31170300Y-45104000D01*
X31170300Y-44996000D01*
X32229700Y-44996000D01*
X32229700Y-45104000D01*
G37*
%TD.AperFunction*%
%TA.AperFunction,Conductor*%
G36*
X32229700Y-45204000D02*
G01*
X31170300Y-45204000D01*
X31170300Y-45096000D01*
X32229700Y-45096000D01*
X32229700Y-45204000D01*
G37*
%TD.AperFunction*%
%TA.AperFunction,Conductor*%
G36*
X32229700Y-45304000D02*
G01*
X31170300Y-45304000D01*
X31170300Y-45196000D01*
X32229700Y-45196000D01*
X32229700Y-45304000D01*
G37*
%TD.AperFunction*%
%TA.AperFunction,Conductor*%
G36*
X32229700Y-45404000D02*
G01*
X31170300Y-45404000D01*
X31170300Y-45296000D01*
X32229700Y-45296000D01*
X32229700Y-45404000D01*
G37*
%TD.AperFunction*%
%TA.AperFunction,Conductor*%
G36*
X32229700Y-45504000D02*
G01*
X31170300Y-45504000D01*
X31170300Y-45396000D01*
X32229700Y-45396000D01*
X32229700Y-45504000D01*
G37*
%TD.AperFunction*%
%TA.AperFunction,Conductor*%
G36*
X32229700Y-45604000D02*
G01*
X31170300Y-45604000D01*
X31170300Y-45496000D01*
X32229700Y-45496000D01*
X32229700Y-45604000D01*
G37*
%TD.AperFunction*%
%TA.AperFunction,Conductor*%
G36*
X32229700Y-45704000D02*
G01*
X31170300Y-45704000D01*
X31170300Y-45596000D01*
X32229700Y-45596000D01*
X32229700Y-45704000D01*
G37*
%TD.AperFunction*%
%TA.AperFunction,Conductor*%
G36*
X32229700Y-45804000D02*
G01*
X31170300Y-45804000D01*
X31170300Y-45696000D01*
X32229700Y-45696000D01*
X32229700Y-45804000D01*
G37*
%TD.AperFunction*%
%TA.AperFunction,Conductor*%
G36*
X32229700Y-45904000D02*
G01*
X31170300Y-45904000D01*
X31170300Y-45796000D01*
X32229700Y-45796000D01*
X32229700Y-45904000D01*
G37*
%TD.AperFunction*%
%TA.AperFunction,Conductor*%
G36*
X32229700Y-46004000D02*
G01*
X31170300Y-46004000D01*
X31170300Y-45896000D01*
X32229700Y-45896000D01*
X32229700Y-46004000D01*
G37*
%TD.AperFunction*%
%TA.AperFunction,Conductor*%
G36*
X32229700Y-46104000D02*
G01*
X31170300Y-46104000D01*
X31170300Y-45996000D01*
X32229700Y-45996000D01*
X32229700Y-46104000D01*
G37*
%TD.AperFunction*%
%TA.AperFunction,Conductor*%
G36*
X35550000Y-42004000D02*
G01*
X33174900Y-42004000D01*
X33174900Y-41896000D01*
X35550000Y-41896000D01*
X35550000Y-42004000D01*
G37*
%TD.AperFunction*%
%TA.AperFunction,Conductor*%
G36*
X35550000Y-42104000D02*
G01*
X33174900Y-42104000D01*
X33174900Y-41996000D01*
X35550000Y-41996000D01*
X35550000Y-42104000D01*
G37*
%TD.AperFunction*%
%TA.AperFunction,Conductor*%
G36*
X35550000Y-42204000D02*
G01*
X33174900Y-42204000D01*
X33174900Y-42096000D01*
X35550000Y-42096000D01*
X35550000Y-42204000D01*
G37*
%TD.AperFunction*%
%TA.AperFunction,Conductor*%
G36*
X35550000Y-42304000D02*
G01*
X33174900Y-42304000D01*
X33174900Y-42196000D01*
X35550000Y-42196000D01*
X35550000Y-42304000D01*
G37*
%TD.AperFunction*%
%TA.AperFunction,Conductor*%
G36*
X35550000Y-42404000D02*
G01*
X33174900Y-42404000D01*
X33174900Y-42296000D01*
X35550000Y-42296000D01*
X35550000Y-42404000D01*
G37*
%TD.AperFunction*%
%TA.AperFunction,Conductor*%
G36*
X35550000Y-42504000D02*
G01*
X33174900Y-42504000D01*
X33174900Y-42396000D01*
X35550000Y-42396000D01*
X35550000Y-42504000D01*
G37*
%TD.AperFunction*%
%TA.AperFunction,Conductor*%
G36*
X35550000Y-42604000D02*
G01*
X33174900Y-42604000D01*
X33174900Y-42496000D01*
X35550000Y-42496000D01*
X35550000Y-42604000D01*
G37*
%TD.AperFunction*%
%TA.AperFunction,Conductor*%
G36*
X35550000Y-42704000D02*
G01*
X33174900Y-42704000D01*
X33174900Y-42596000D01*
X35550000Y-42596000D01*
X35550000Y-42704000D01*
G37*
%TD.AperFunction*%
%TA.AperFunction,Conductor*%
G36*
X35550000Y-42804000D02*
G01*
X33174900Y-42804000D01*
X33174900Y-42696000D01*
X35550000Y-42696000D01*
X35550000Y-42804000D01*
G37*
%TD.AperFunction*%
%TA.AperFunction,Conductor*%
G36*
X35550000Y-42904000D02*
G01*
X33174900Y-42904000D01*
X33174900Y-42796000D01*
X35550000Y-42796000D01*
X35550000Y-42904000D01*
G37*
%TD.AperFunction*%
%TA.AperFunction,Conductor*%
G36*
X35550000Y-43004000D02*
G01*
X33174900Y-43004000D01*
X33174900Y-42896000D01*
X35550000Y-42896000D01*
X35550000Y-43004000D01*
G37*
%TD.AperFunction*%
%TA.AperFunction,Conductor*%
G36*
X35550000Y-43104000D02*
G01*
X33174900Y-43104000D01*
X33174900Y-42996000D01*
X35550000Y-42996000D01*
X35550000Y-43104000D01*
G37*
%TD.AperFunction*%
%TA.AperFunction,Conductor*%
G36*
X35550000Y-43204000D02*
G01*
X33174900Y-43204000D01*
X33174900Y-43096000D01*
X35550000Y-43096000D01*
X35550000Y-43204000D01*
G37*
%TD.AperFunction*%
%TA.AperFunction,Conductor*%
G36*
X35550000Y-43304000D02*
G01*
X33174900Y-43304000D01*
X33174900Y-43196000D01*
X35550000Y-43196000D01*
X35550000Y-43304000D01*
G37*
%TD.AperFunction*%
%TA.AperFunction,Conductor*%
G36*
X35550000Y-43404000D02*
G01*
X33174900Y-43404000D01*
X33174900Y-43296000D01*
X35550000Y-43296000D01*
X35550000Y-43404000D01*
G37*
%TD.AperFunction*%
%TA.AperFunction,Conductor*%
G36*
X35550000Y-43504000D02*
G01*
X33174900Y-43504000D01*
X33174900Y-43396000D01*
X35550000Y-43396000D01*
X35550000Y-43504000D01*
G37*
%TD.AperFunction*%
%TA.AperFunction,Conductor*%
G36*
X35550000Y-43604000D02*
G01*
X33174900Y-43604000D01*
X33174900Y-43496000D01*
X35550000Y-43496000D01*
X35550000Y-43604000D01*
G37*
%TD.AperFunction*%
%TA.AperFunction,Conductor*%
G36*
X35550000Y-43704000D02*
G01*
X33174900Y-43704000D01*
X33174900Y-43596000D01*
X35550000Y-43596000D01*
X35550000Y-43704000D01*
G37*
%TD.AperFunction*%
%TA.AperFunction,Conductor*%
G36*
X35550000Y-43804000D02*
G01*
X33174900Y-43804000D01*
X33174900Y-43696000D01*
X35550000Y-43696000D01*
X35550000Y-43804000D01*
G37*
%TD.AperFunction*%
%TA.AperFunction,Conductor*%
G36*
X35550000Y-43904000D02*
G01*
X33174900Y-43904000D01*
X33174900Y-43796000D01*
X35550000Y-43796000D01*
X35550000Y-43904000D01*
G37*
%TD.AperFunction*%
%TA.AperFunction,Conductor*%
G36*
X35550000Y-44004000D02*
G01*
X33174900Y-44004000D01*
X33174900Y-43896000D01*
X35550000Y-43896000D01*
X35550000Y-44004000D01*
G37*
%TD.AperFunction*%
%TA.AperFunction,Conductor*%
G36*
X35550000Y-44104000D02*
G01*
X33174900Y-44104000D01*
X33174900Y-43996000D01*
X35550000Y-43996000D01*
X35550000Y-44104000D01*
G37*
%TD.AperFunction*%
%TA.AperFunction,Conductor*%
G36*
X35550000Y-44204000D02*
G01*
X33174900Y-44204000D01*
X33174900Y-44096000D01*
X35550000Y-44096000D01*
X35550000Y-44204000D01*
G37*
%TD.AperFunction*%
%TA.AperFunction,Conductor*%
G36*
X35550000Y-44304000D02*
G01*
X33174900Y-44304000D01*
X33174900Y-44196000D01*
X35550000Y-44196000D01*
X35550000Y-44304000D01*
G37*
%TD.AperFunction*%
%TA.AperFunction,Conductor*%
G36*
X35550000Y-44404000D02*
G01*
X33174900Y-44404000D01*
X33174900Y-44296000D01*
X35550000Y-44296000D01*
X35550000Y-44404000D01*
G37*
%TD.AperFunction*%
%TA.AperFunction,Conductor*%
G36*
X35550000Y-44504000D02*
G01*
X33174900Y-44504000D01*
X33174900Y-44396000D01*
X35550000Y-44396000D01*
X35550000Y-44504000D01*
G37*
%TD.AperFunction*%
%TA.AperFunction,Conductor*%
G36*
X35550000Y-44604000D02*
G01*
X33174900Y-44604000D01*
X33174900Y-44496000D01*
X35550000Y-44496000D01*
X35550000Y-44604000D01*
G37*
%TD.AperFunction*%
%TA.AperFunction,Conductor*%
G36*
X35550000Y-44704000D02*
G01*
X33174900Y-44704000D01*
X33174900Y-44596000D01*
X35550000Y-44596000D01*
X35550000Y-44704000D01*
G37*
%TD.AperFunction*%
%TA.AperFunction,Conductor*%
G36*
X35550000Y-44804000D02*
G01*
X33174900Y-44804000D01*
X33174900Y-44696000D01*
X35550000Y-44696000D01*
X35550000Y-44804000D01*
G37*
%TD.AperFunction*%
%TA.AperFunction,Conductor*%
G36*
X35550000Y-44904000D02*
G01*
X33174900Y-44904000D01*
X33174900Y-44796000D01*
X35550000Y-44796000D01*
X35550000Y-44904000D01*
G37*
%TD.AperFunction*%
%TA.AperFunction,Conductor*%
G36*
X35550000Y-45004000D02*
G01*
X33174900Y-45004000D01*
X33174900Y-44896000D01*
X35550000Y-44896000D01*
X35550000Y-45004000D01*
G37*
%TD.AperFunction*%
%TA.AperFunction,Conductor*%
G36*
X35550000Y-45104000D02*
G01*
X33174900Y-45104000D01*
X33174900Y-44996000D01*
X35550000Y-44996000D01*
X35550000Y-45104000D01*
G37*
%TD.AperFunction*%
%TA.AperFunction,Conductor*%
G36*
X35550000Y-45204000D02*
G01*
X33174900Y-45204000D01*
X33174900Y-45096000D01*
X35550000Y-45096000D01*
X35550000Y-45204000D01*
G37*
%TD.AperFunction*%
%TA.AperFunction,Conductor*%
G36*
X35550000Y-45304000D02*
G01*
X33174900Y-45304000D01*
X33174900Y-45196000D01*
X35550000Y-45196000D01*
X35550000Y-45304000D01*
G37*
%TD.AperFunction*%
%TA.AperFunction,Conductor*%
G36*
X35550000Y-45404000D02*
G01*
X33174900Y-45404000D01*
X33174900Y-45296000D01*
X35550000Y-45296000D01*
X35550000Y-45404000D01*
G37*
%TD.AperFunction*%
%TA.AperFunction,Conductor*%
G36*
X35550000Y-45504000D02*
G01*
X33174900Y-45504000D01*
X33174900Y-45396000D01*
X35550000Y-45396000D01*
X35550000Y-45504000D01*
G37*
%TD.AperFunction*%
%TA.AperFunction,Conductor*%
G36*
X35550000Y-45604000D02*
G01*
X33174900Y-45604000D01*
X33174900Y-45496000D01*
X35550000Y-45496000D01*
X35550000Y-45604000D01*
G37*
%TD.AperFunction*%
%TA.AperFunction,Conductor*%
G36*
X35550000Y-45704000D02*
G01*
X33174900Y-45704000D01*
X33174900Y-45596000D01*
X35550000Y-45596000D01*
X35550000Y-45704000D01*
G37*
%TD.AperFunction*%
%TA.AperFunction,Conductor*%
G36*
X35550000Y-45804000D02*
G01*
X33174900Y-45804000D01*
X33174900Y-45696000D01*
X35550000Y-45696000D01*
X35550000Y-45804000D01*
G37*
%TD.AperFunction*%
%TA.AperFunction,Conductor*%
G36*
X35550000Y-45904000D02*
G01*
X33174900Y-45904000D01*
X33174900Y-45796000D01*
X35550000Y-45796000D01*
X35550000Y-45904000D01*
G37*
%TD.AperFunction*%
%TA.AperFunction,Conductor*%
G36*
X17709100Y-41904000D02*
G01*
X15250000Y-41904000D01*
X15250000Y-41804900D01*
X15250300Y-41796000D01*
X17709100Y-41796000D01*
X17709100Y-41904000D01*
G37*
%TD.AperFunction*%
%TA.AperFunction,Conductor*%
G36*
X17709100Y-46004000D02*
G01*
X15250300Y-46004000D01*
X15250000Y-45995100D01*
X15250000Y-45896000D01*
X17709100Y-45896000D01*
X17709100Y-46004000D01*
G37*
%TD.AperFunction*%
D11*
%TA.AperFunction,NonConductor*%
G36*
X19338000Y-45338300D02*
G01*
X19202700Y-45349300D01*
X18654300Y-45349300D01*
X18654300Y-45296000D01*
X19449100Y-45296000D01*
X19338000Y-45338300D01*
G37*
%TD.AperFunction*%
%TA.AperFunction,NonConductor*%
G36*
X19569400Y-45250200D02*
G01*
X19428100Y-45304000D01*
X18654300Y-45304000D01*
X18654300Y-45196000D01*
X19636900Y-45196000D01*
X19569400Y-45250200D01*
G37*
%TD.AperFunction*%
%TA.AperFunction,NonConductor*%
G36*
X19338000Y-42461500D02*
G01*
X19451500Y-42504000D01*
X18654300Y-42504000D01*
X18654300Y-42450700D01*
X19202700Y-42450700D01*
X19338000Y-42461500D01*
G37*
%TD.AperFunction*%
%TA.AperFunction,NonConductor*%
G36*
X19665500Y-45173100D02*
G01*
X19626900Y-45204000D01*
X18654300Y-45204000D01*
X18654300Y-45096000D01*
X19729800Y-45096000D01*
X19665500Y-45173100D01*
G37*
%TD.AperFunction*%
%TA.AperFunction,NonConductor*%
G36*
X19569400Y-42548200D02*
G01*
X19640200Y-42604000D01*
X18654300Y-42604000D01*
X18654300Y-42496000D01*
X19430100Y-42496000D01*
X19569400Y-42548200D01*
G37*
%TD.AperFunction*%
%TA.AperFunction,NonConductor*%
G36*
X19744300Y-45078600D02*
G01*
X19723100Y-45104000D01*
X18654300Y-45104000D01*
X18654300Y-44996000D01*
X19777100Y-44996000D01*
X19744300Y-45078600D01*
G37*
%TD.AperFunction*%
%TA.AperFunction,NonConductor*%
G36*
X19665500Y-42624000D02*
G01*
X19733200Y-42704000D01*
X18654300Y-42704000D01*
X18654300Y-42596000D01*
X19630000Y-42596000D01*
X19665500Y-42624000D01*
G37*
%TD.AperFunction*%
%TA.AperFunction,NonConductor*%
G36*
X19744300Y-42717100D02*
G01*
X19779000Y-42804000D01*
X18654300Y-42804000D01*
X18654300Y-42696000D01*
X19726400Y-42696000D01*
X19744300Y-42717100D01*
G37*
%TD.AperFunction*%
%TA.AperFunction,NonConductor*%
G36*
X19834400Y-44851700D02*
G01*
X19813600Y-44904000D01*
X18654300Y-44904000D01*
X18654300Y-44796000D01*
X19839100Y-44796000D01*
X19834400Y-44851700D01*
G37*
%TD.AperFunction*%
%TA.AperFunction,NonConductor*%
G36*
X19845700Y-44719200D02*
G01*
X19838500Y-44804000D01*
X18654300Y-44804000D01*
X18654300Y-44696000D01*
X19845700Y-44696000D01*
X19845700Y-44719200D01*
G37*
%TD.AperFunction*%
%TA.AperFunction,NonConductor*%
G36*
X19834400Y-42942600D02*
G01*
X19839600Y-43004000D01*
X18654300Y-43004000D01*
X18654300Y-42896000D01*
X19815800Y-42896000D01*
X19834400Y-42942600D01*
G37*
%TD.AperFunction*%
%TA.AperFunction,NonConductor*%
G36*
X19845700Y-43074900D02*
G01*
X19845700Y-43104000D01*
X18654300Y-43104000D01*
X18654300Y-42996000D01*
X19839000Y-42996000D01*
X19845700Y-43074900D01*
G37*
%TD.AperFunction*%
D10*
%TA.AperFunction,Conductor*%
G36*
X23977600Y-41904000D02*
G01*
X20228100Y-41904000D01*
X20206000Y-41883500D01*
X20059200Y-41796000D01*
X23977600Y-41796000D01*
X23977600Y-41904000D01*
G37*
%TD.AperFunction*%
%TA.AperFunction,Conductor*%
G36*
X23977600Y-42204000D02*
G01*
X20527800Y-42204000D01*
X20483100Y-42140000D01*
X20435600Y-42096000D01*
X23977600Y-42096000D01*
X23977600Y-42204000D01*
G37*
%TD.AperFunction*%
%TA.AperFunction,Conductor*%
G36*
X23977600Y-42304000D02*
G01*
X20596000Y-42304000D01*
X20592000Y-42296100D01*
X20522200Y-42196000D01*
X23977600Y-42196000D01*
X23977600Y-42304000D01*
G37*
%TD.AperFunction*%
%TA.AperFunction,Conductor*%
G36*
X23977600Y-42404000D02*
G01*
X20646300Y-42404000D01*
X20592000Y-42296100D01*
X20591900Y-42296000D01*
X23977600Y-42296000D01*
X23977600Y-42404000D01*
G37*
%TD.AperFunction*%
%TA.AperFunction,Conductor*%
G36*
X23977600Y-42504000D02*
G01*
X20688000Y-42504000D01*
X20679000Y-42468800D01*
X20642300Y-42396000D01*
X23977600Y-42396000D01*
X23977600Y-42504000D01*
G37*
%TD.AperFunction*%
%TA.AperFunction,Conductor*%
G36*
X23977600Y-42904000D02*
G01*
X20781100Y-42904000D01*
X20778500Y-42858200D01*
X20762600Y-42796000D01*
X23977600Y-42796000D01*
X23977600Y-42904000D01*
G37*
%TD.AperFunction*%
%TA.AperFunction,Conductor*%
G36*
X23977600Y-43104000D02*
G01*
X20790900Y-43104000D01*
X20790900Y-43074900D01*
X20786400Y-42996000D01*
X23977600Y-42996000D01*
X23977600Y-43104000D01*
G37*
%TD.AperFunction*%
%TA.AperFunction,Conductor*%
G36*
X23977600Y-44804000D02*
G01*
X20786000Y-44804000D01*
X20790900Y-44719200D01*
X20790900Y-44696000D01*
X23977600Y-44696000D01*
X23977600Y-44804000D01*
G37*
%TD.AperFunction*%
%TA.AperFunction,Conductor*%
G36*
X23977600Y-45004000D02*
G01*
X20760200Y-45004000D01*
X20778500Y-44933000D01*
X20780600Y-44896000D01*
X23977600Y-44896000D01*
X23977600Y-45004000D01*
G37*
%TD.AperFunction*%
%TA.AperFunction,Conductor*%
G36*
X23977600Y-45404000D02*
G01*
X20637100Y-45404000D01*
X20679000Y-45320500D01*
X20685300Y-45296000D01*
X23977600Y-45296000D01*
X23977600Y-45404000D01*
G37*
%TD.AperFunction*%
%TA.AperFunction,Conductor*%
G36*
X23977600Y-45504000D02*
G01*
X20585100Y-45504000D01*
X20592000Y-45494000D01*
X20641100Y-45396000D01*
X23977600Y-45396000D01*
X23977600Y-45504000D01*
G37*
%TD.AperFunction*%
%TA.AperFunction,Conductor*%
G36*
X23977600Y-45704000D02*
G01*
X20427400Y-45704000D01*
X20483100Y-45651700D01*
X20521600Y-45596000D01*
X23977600Y-45596000D01*
X23977600Y-45704000D01*
G37*
%TD.AperFunction*%
%TA.AperFunction,Conductor*%
G36*
X23977600Y-46004000D02*
G01*
X20054000Y-46004000D01*
X20206000Y-45911600D01*
X20222600Y-45896000D01*
X23977600Y-45896000D01*
X23977600Y-46004000D01*
G37*
%TD.AperFunction*%
D11*
%TA.AperFunction,NonConductor*%
G36*
X25601200Y-43632200D02*
G01*
X25452500Y-43642000D01*
X24911000Y-43642000D01*
X24911000Y-43596000D01*
X25713400Y-43596000D01*
X25601200Y-43632200D01*
G37*
%TD.AperFunction*%
%TA.AperFunction,NonConductor*%
G36*
X25845400Y-43553400D02*
G01*
X25688600Y-43604000D01*
X24911000Y-43604000D01*
X24911000Y-43496000D01*
X25925000Y-43496000D01*
X25845400Y-43553400D01*
G37*
%TD.AperFunction*%
%TA.AperFunction,NonConductor*%
G36*
X25601200Y-42429500D02*
G01*
X25822600Y-42504000D01*
X24911000Y-42504000D01*
X24911000Y-42419200D01*
X25452500Y-42419200D01*
X25601200Y-42429500D01*
G37*
%TD.AperFunction*%
%TA.AperFunction,NonConductor*%
G36*
X26016700Y-43397900D02*
G01*
X26011300Y-43404000D01*
X24911000Y-43404000D01*
X24911000Y-43296000D01*
X26056700Y-43296000D01*
X26016700Y-43397900D01*
G37*
%TD.AperFunction*%
%TA.AperFunction,NonConductor*%
G36*
X26016700Y-42673600D02*
G01*
X26028100Y-42704000D01*
X24911000Y-42704000D01*
X24911000Y-42596000D01*
X25951300Y-42596000D01*
X26016700Y-42673600D01*
G37*
%TD.AperFunction*%
%TA.AperFunction,NonConductor*%
G36*
X26103300Y-43177300D02*
G01*
X26092900Y-43204000D01*
X24911000Y-43204000D01*
X24911000Y-43096000D01*
X26109900Y-43096000D01*
X26103300Y-43177300D01*
G37*
%TD.AperFunction*%
%TA.AperFunction,NonConductor*%
G36*
X26103300Y-42903500D02*
G01*
X26103400Y-42904000D01*
X24911000Y-42904000D01*
X24911000Y-42796000D01*
X26062800Y-42796000D01*
X26103300Y-42903500D01*
G37*
%TD.AperFunction*%
%TA.AperFunction,NonConductor*%
G36*
X26114200Y-43043400D02*
G01*
X26109300Y-43104000D01*
X24911000Y-43104000D01*
X24911000Y-42996000D01*
X26110500Y-42996000D01*
X26114200Y-43043400D01*
G37*
%TD.AperFunction*%
%TA.AperFunction,NonConductor*%
G36*
X26103300Y-42903500D02*
G01*
X26111100Y-43004000D01*
X24911000Y-43004000D01*
X24911000Y-42896000D01*
X26100500Y-42896000D01*
X26103300Y-42903500D01*
G37*
%TD.AperFunction*%
D10*
%TA.AperFunction,Conductor*%
G36*
X30225100Y-41804000D02*
G01*
X26363800Y-41804000D01*
X26303200Y-41770300D01*
X26115700Y-41696000D01*
X30225100Y-41696000D01*
X30225100Y-41804000D01*
G37*
%TD.AperFunction*%
%TA.AperFunction,Conductor*%
G36*
X30225100Y-41904000D02*
G01*
X26518100Y-41904000D01*
X26472800Y-41864500D01*
X26349400Y-41796000D01*
X30225100Y-41796000D01*
X30225100Y-41904000D01*
G37*
%TD.AperFunction*%
%TA.AperFunction,Conductor*%
G36*
X30225100Y-42204000D02*
G01*
X26822500Y-42204000D01*
X26751400Y-42107200D01*
X26738500Y-42096000D01*
X30225100Y-42096000D01*
X30225100Y-42204000D01*
G37*
%TD.AperFunction*%
%TA.AperFunction,Conductor*%
G36*
X30225100Y-42304000D02*
G01*
X26886000Y-42304000D01*
X26860500Y-42255700D01*
X26816600Y-42196000D01*
X30225100Y-42196000D01*
X30225100Y-42304000D01*
G37*
%TD.AperFunction*%
%TA.AperFunction,Conductor*%
G36*
X30225100Y-42504000D02*
G01*
X26969900Y-42504000D01*
X26947500Y-42420300D01*
X26934600Y-42396000D01*
X30225100Y-42396000D01*
X30225100Y-42504000D01*
G37*
%TD.AperFunction*%
%TA.AperFunction,Conductor*%
G36*
X30225100Y-42804000D02*
G01*
X27047700Y-42804000D01*
X27046900Y-42792000D01*
X27021300Y-42696000D01*
X30225100Y-42696000D01*
X30225100Y-42804000D01*
G37*
%TD.AperFunction*%
%TA.AperFunction,Conductor*%
G36*
X30225100Y-43004000D02*
G01*
X27059100Y-43004000D01*
X27059400Y-42999100D01*
X27053200Y-42896000D01*
X30225100Y-42896000D01*
X30225100Y-43004000D01*
G37*
%TD.AperFunction*%
%TA.AperFunction,Conductor*%
G36*
X30225100Y-43104000D02*
G01*
X27052800Y-43104000D01*
X27059400Y-42999100D01*
X27059200Y-42996000D01*
X30225100Y-42996000D01*
X30225100Y-43104000D01*
G37*
%TD.AperFunction*%
%TA.AperFunction,Conductor*%
G36*
X30225100Y-43304000D02*
G01*
X27022100Y-43304000D01*
X27045800Y-43216800D01*
X27047100Y-43196000D01*
X30225100Y-43196000D01*
X30225100Y-43304000D01*
G37*
%TD.AperFunction*%
%TA.AperFunction,Conductor*%
G36*
X30225100Y-43704000D02*
G01*
X26891600Y-43704000D01*
X26937000Y-43617000D01*
X26942700Y-43596000D01*
X30225100Y-43596000D01*
X30225100Y-43704000D01*
G37*
%TD.AperFunction*%
%TA.AperFunction,Conductor*%
G36*
X30225100Y-43804000D02*
G01*
X26838600Y-43804000D01*
X26841800Y-43799600D01*
X26895800Y-43696000D01*
X30225100Y-43696000D01*
X30225100Y-43804000D01*
G37*
%TD.AperFunction*%
%TA.AperFunction,Conductor*%
G36*
X30225100Y-43904000D02*
G01*
X26766400Y-43904000D01*
X26841800Y-43799600D01*
X26843600Y-43796000D01*
X30225100Y-43796000D01*
X30225100Y-43904000D01*
G37*
%TD.AperFunction*%
%TA.AperFunction,Conductor*%
G36*
X30225100Y-44004000D02*
G01*
X26676800Y-44004000D01*
X26723400Y-43963600D01*
X26772200Y-43896000D01*
X30225100Y-43896000D01*
X30225100Y-44004000D01*
G37*
%TD.AperFunction*%
%TA.AperFunction,Conductor*%
G36*
X30225100Y-44304000D02*
G01*
X26263800Y-44304000D01*
X26429000Y-44218600D01*
X26455100Y-44196000D01*
X30225100Y-44196000D01*
X30225100Y-44304000D01*
G37*
%TD.AperFunction*%
%TA.AperFunction,Conductor*%
G36*
X30225100Y-44404000D02*
G01*
X26296400Y-44404000D01*
X26253000Y-44309600D01*
X26279300Y-44296000D01*
X30225100Y-44296000D01*
X30225100Y-44404000D01*
G37*
%TD.AperFunction*%
%TA.AperFunction,Conductor*%
G36*
X35550000Y-45995100D02*
G01*
X35549700Y-46004000D01*
X33174900Y-46004000D01*
X33174900Y-45896000D01*
X35550000Y-45896000D01*
X35550000Y-45995100D01*
G37*
%TD.AperFunction*%
%TA.AperFunction,Conductor*%
G36*
X35550000Y-41804900D02*
G01*
X35550000Y-41904000D01*
X33174900Y-41904000D01*
X33174900Y-41796000D01*
X35549700Y-41796000D01*
X35550000Y-41804900D01*
G37*
%TD.AperFunction*%
%TA.AperFunction,Conductor*%
G36*
X17709100Y-41804000D02*
G01*
X15250000Y-41804000D01*
X15251700Y-41754200D01*
X15256100Y-41708700D01*
X15258200Y-41696000D01*
X17709100Y-41696000D01*
X17709100Y-41804000D01*
G37*
%TD.AperFunction*%
%TA.AperFunction,Conductor*%
G36*
X17709100Y-46104000D02*
G01*
X15258200Y-46104000D01*
X15256100Y-46091300D01*
X15251700Y-46045800D01*
X15250000Y-45996000D01*
X17709100Y-45996000D01*
X17709100Y-46104000D01*
G37*
%TD.AperFunction*%
%TA.AperFunction,Conductor*%
G36*
X23977600Y-41804000D02*
G01*
X20072700Y-41804000D01*
X20037700Y-41783100D01*
X19851800Y-41703000D01*
X19819900Y-41696000D01*
X23977600Y-41696000D01*
X23977600Y-41804000D01*
G37*
%TD.AperFunction*%
%TA.AperFunction,Conductor*%
G36*
X23977600Y-46104000D02*
G01*
X19812900Y-46104000D01*
X19851800Y-46095300D01*
X20037700Y-46013900D01*
X20067100Y-45996000D01*
X23977600Y-45996000D01*
X23977600Y-46104000D01*
G37*
%TD.AperFunction*%
D11*
%TA.AperFunction,NonConductor*%
G36*
X26016700Y-43397900D02*
G01*
X25940900Y-43484500D01*
X25913900Y-43504000D01*
X24911000Y-43504000D01*
X24911000Y-43396000D01*
X26017400Y-43396000D01*
X26016700Y-43397900D01*
G37*
%TD.AperFunction*%
%TA.AperFunction,NonConductor*%
G36*
X25845400Y-42511700D02*
G01*
X25940900Y-42583600D01*
X25958100Y-42604000D01*
X24911000Y-42604000D01*
X24911000Y-42496000D01*
X25798800Y-42496000D01*
X25845400Y-42511700D01*
G37*
%TD.AperFunction*%
D10*
%TA.AperFunction,Conductor*%
G36*
X35548300Y-46045800D02*
G01*
X35543900Y-46091300D01*
X35541800Y-46104000D01*
X33174900Y-46104000D01*
X33174900Y-45996000D01*
X35550000Y-45996000D01*
X35548300Y-46045800D01*
G37*
%TD.AperFunction*%
%TA.AperFunction,Conductor*%
G36*
X35543900Y-41708700D02*
G01*
X35548300Y-41754200D01*
X35550000Y-41804000D01*
X33174900Y-41804000D01*
X33174900Y-41696000D01*
X35541800Y-41696000D01*
X35543900Y-41708700D01*
G37*
%TD.AperFunction*%
%TA.AperFunction,Conductor*%
G36*
X35311400Y-46526200D02*
G01*
X35276000Y-46555200D01*
X35238800Y-46581900D01*
X35203300Y-46604000D01*
X15596700Y-46604000D01*
X15561200Y-46581900D01*
X15524000Y-46555200D01*
X15488600Y-46526200D01*
X15456400Y-46496000D01*
X35343600Y-46496000D01*
X35311400Y-46526200D01*
G37*
%TD.AperFunction*%
%TA.AperFunction,Conductor*%
G36*
X35405200Y-46426000D02*
G01*
X35376200Y-46461400D01*
X35344900Y-46494900D01*
X35335100Y-46504000D01*
X15464900Y-46504000D01*
X15455100Y-46494900D01*
X15423800Y-46461400D01*
X15394800Y-46426000D01*
X15373300Y-46396000D01*
X35426700Y-46396000D01*
X35405200Y-46426000D01*
G37*
%TD.AperFunction*%
%TA.AperFunction,Conductor*%
G36*
X35238800Y-41218100D02*
G01*
X35276000Y-41244800D01*
X35311400Y-41273800D01*
X35343600Y-41304000D01*
X15456400Y-41304000D01*
X15488600Y-41273800D01*
X15524000Y-41244800D01*
X15561200Y-41218100D01*
X15596700Y-41196000D01*
X35203300Y-41196000D01*
X35238800Y-41218100D01*
G37*
%TD.AperFunction*%
%TA.AperFunction,Conductor*%
G36*
X35477700Y-46309500D02*
G01*
X35456100Y-46349900D01*
X35431900Y-46388800D01*
X35421000Y-46404000D01*
X15379000Y-46404000D01*
X15368100Y-46388800D01*
X15343900Y-46349900D01*
X15322300Y-46309500D01*
X15316200Y-46296000D01*
X35483800Y-46296000D01*
X35477700Y-46309500D01*
G37*
%TD.AperFunction*%
%TA.AperFunction,Conductor*%
G36*
X35344900Y-41305100D02*
G01*
X35376200Y-41338600D01*
X35405200Y-41374000D01*
X35426700Y-41404000D01*
X15373300Y-41404000D01*
X15394800Y-41374000D01*
X15423800Y-41338600D01*
X15455100Y-41305100D01*
X15464900Y-41296000D01*
X35335100Y-41296000D01*
X35344900Y-41305100D01*
G37*
%TD.AperFunction*%
%TA.AperFunction,Conductor*%
G36*
X35431900Y-41411200D02*
G01*
X35456100Y-41450100D01*
X35477700Y-41490500D01*
X35483800Y-41504000D01*
X15316200Y-41504000D01*
X15322300Y-41490500D01*
X15343900Y-41450100D01*
X15368100Y-41411200D01*
X15379000Y-41396000D01*
X35421000Y-41396000D01*
X35431900Y-41411200D01*
G37*
%TD.AperFunction*%
%TA.AperFunction,Conductor*%
G36*
X2050000Y-5511000D02*
G01*
X2217000Y-5601000D01*
X2390000Y-5679000D01*
X2568000Y-5746000D01*
X2749000Y-5801000D01*
X2934000Y-5844000D01*
X3121000Y-5875000D01*
X3310000Y-5894000D01*
X3400000Y-5897000D01*
X3400000Y-13722000D01*
X3207000Y-13780000D01*
X2999000Y-13859000D01*
X2796000Y-13951000D01*
X2600000Y-14056000D01*
X2411000Y-14173000D01*
X2230000Y-14303000D01*
X2058000Y-14444000D01*
X2000000Y-14498000D01*
X2000000Y-5480000D01*
X2050000Y-5511000D01*
G37*
%TD.AperFunction*%
%TA.AperFunction,Conductor*%
G36*
X2058000Y-74456000D02*
G01*
X2230000Y-74597000D01*
X2411000Y-74727000D01*
X2600000Y-74844000D01*
X2796000Y-74949000D01*
X2999000Y-75041000D01*
X3207000Y-75120000D01*
X3400000Y-75178000D01*
X3400000Y-83003000D01*
X3310000Y-83006000D01*
X3121000Y-83025000D01*
X2934000Y-83056000D01*
X2749000Y-83099000D01*
X2568000Y-83154000D01*
X2390000Y-83221000D01*
X2217000Y-83299000D01*
X2050000Y-83389000D01*
X2000000Y-83420000D01*
X2000000Y-74402000D01*
X2058000Y-74456000D01*
G37*
%TD.AperFunction*%
%TA.AperFunction,Conductor*%
G36*
X35199900Y-46606100D02*
G01*
X35159500Y-46627700D01*
X35117800Y-46646600D01*
X35075000Y-46662700D01*
X35031100Y-46676000D01*
X34986500Y-46686400D01*
X34941300Y-46693900D01*
X34895800Y-46698300D01*
X34845100Y-46700000D01*
X15954900Y-46700000D01*
X15904200Y-46698300D01*
X15858700Y-46693900D01*
X15813500Y-46686400D01*
X15768900Y-46676000D01*
X15725000Y-46662700D01*
X15682200Y-46646600D01*
X15640500Y-46627700D01*
X15600100Y-46606100D01*
X15583900Y-46596000D01*
X35216100Y-46596000D01*
X35199900Y-46606100D01*
G37*
%TD.AperFunction*%
%TA.AperFunction,Conductor*%
G36*
X34895800Y-41101700D02*
G01*
X34941300Y-41106100D01*
X34986500Y-41113600D01*
X35031100Y-41124000D01*
X35075000Y-41137300D01*
X35117800Y-41153400D01*
X35159500Y-41172300D01*
X35199900Y-41193900D01*
X35216100Y-41204000D01*
X15583900Y-41204000D01*
X15600100Y-41193900D01*
X15640500Y-41172300D01*
X15682200Y-41153400D01*
X15725000Y-41137300D01*
X15768900Y-41124000D01*
X15813500Y-41113600D01*
X15858700Y-41106100D01*
X15904200Y-41101700D01*
X15954900Y-41100000D01*
X34845100Y-41100000D01*
X34895800Y-41101700D01*
G37*
%TD.AperFunction*%
%TA.AperFunction,Conductor*%
G36*
X48800000Y-14498000D02*
G01*
X48742000Y-14444000D01*
X48570000Y-14303000D01*
X48389000Y-14173000D01*
X48200000Y-14056000D01*
X48004000Y-13951000D01*
X47801000Y-13859000D01*
X47593000Y-13780000D01*
X47400000Y-13722000D01*
X47400000Y-5897000D01*
X47490000Y-5894000D01*
X47679000Y-5875000D01*
X47866000Y-5844000D01*
X48051000Y-5801000D01*
X48232000Y-5746000D01*
X48410000Y-5679000D01*
X48583000Y-5601000D01*
X48750000Y-5511000D01*
X48800000Y-5480000D01*
X48800000Y-14498000D01*
G37*
%TD.AperFunction*%
%TA.AperFunction,Conductor*%
G36*
X48800000Y-83420000D02*
G01*
X48750000Y-83389000D01*
X48583000Y-83299000D01*
X48410000Y-83221000D01*
X48232000Y-83154000D01*
X48051000Y-83099000D01*
X47866000Y-83056000D01*
X47679000Y-83025000D01*
X47490000Y-83006000D01*
X47400000Y-83003000D01*
X47400000Y-75178000D01*
X47593000Y-75120000D01*
X47801000Y-75041000D01*
X48004000Y-74949000D01*
X48200000Y-74844000D01*
X48389000Y-74727000D01*
X48570000Y-74597000D01*
X48742000Y-74456000D01*
X48800000Y-74402000D01*
X48800000Y-83420000D01*
G37*
%TD.AperFunction*%
%TA.AperFunction,Conductor*%
G36*
X44554000Y-2068000D02*
G01*
X44499000Y-2249000D01*
X44456000Y-2434000D01*
X44425000Y-2621000D01*
X44406000Y-2810000D01*
X44400000Y-3000000D01*
X44406000Y-3190000D01*
X44425000Y-3379000D01*
X44428000Y-3400000D01*
X6372000Y-3400000D01*
X6375000Y-3379000D01*
X6394000Y-3190000D01*
X6400000Y-3000000D01*
X6394000Y-2810000D01*
X6375000Y-2621000D01*
X6344000Y-2434000D01*
X6301000Y-2249000D01*
X6246000Y-2068000D01*
X6221000Y-2000000D01*
X44579000Y-2000000D01*
X44554000Y-2068000D01*
G37*
%TD.AperFunction*%
%TA.AperFunction,Conductor*%
G36*
X44425000Y-85521000D02*
G01*
X44406000Y-85710000D01*
X44400000Y-85900000D01*
X44406000Y-86090000D01*
X44425000Y-86279000D01*
X44456000Y-86466000D01*
X44499000Y-86651000D01*
X44554000Y-86832000D01*
X44579000Y-86900000D01*
X6221000Y-86900000D01*
X6246000Y-86832000D01*
X6301000Y-86651000D01*
X6344000Y-86466000D01*
X6375000Y-86279000D01*
X6394000Y-86090000D01*
X6400000Y-85900000D01*
X6394000Y-85710000D01*
X6375000Y-85521000D01*
X6372000Y-85500000D01*
X44428000Y-85500000D01*
X44425000Y-85521000D01*
G37*
%TD.AperFunction*%
%TA.AperFunction,Conductor*%
G36*
X35496600Y-41532200D02*
G01*
X35512700Y-41575000D01*
X35521500Y-41604000D01*
X33174900Y-41604000D01*
X33174900Y-41600000D01*
X32229700Y-41600000D01*
X32229700Y-41604000D01*
X31170300Y-41604000D01*
X31170300Y-41600000D01*
X30225100Y-41600000D01*
X30225100Y-41604000D01*
X25541700Y-41604000D01*
X25452500Y-41600000D01*
X23977600Y-41600000D01*
X23977600Y-41604000D01*
X19283700Y-41604000D01*
X19202700Y-41600000D01*
X17709100Y-41600000D01*
X17709100Y-41604000D01*
X15278500Y-41604000D01*
X15287300Y-41575000D01*
X15303400Y-41532200D01*
X15319800Y-41496000D01*
X35480200Y-41496000D01*
X35496600Y-41532200D01*
G37*
%TD.AperFunction*%
%TA.AperFunction,Conductor*%
G36*
X17709100Y-46200000D02*
G01*
X19202700Y-46200000D01*
X19282400Y-46196000D01*
X23977600Y-46196000D01*
X23977600Y-46200000D01*
X24911000Y-46200000D01*
X24911000Y-46196000D01*
X26093800Y-46196000D01*
X26095500Y-46200000D01*
X27122400Y-46200000D01*
X27120500Y-46196000D01*
X30225100Y-46196000D01*
X30225100Y-46200000D01*
X31170300Y-46200000D01*
X31170300Y-46196000D01*
X32229700Y-46196000D01*
X32229700Y-46200000D01*
X33174900Y-46200000D01*
X33174900Y-46196000D01*
X35521500Y-46196000D01*
X35512700Y-46225000D01*
X35496600Y-46267800D01*
X35480200Y-46304000D01*
X15319800Y-46304000D01*
X15303400Y-46267800D01*
X15287300Y-46225000D01*
X15278500Y-46196000D01*
X17709100Y-46196000D01*
X17709100Y-46200000D01*
G37*
%TD.AperFunction*%
%TA.AperFunction,Conductor*%
G36*
X35526000Y-41618900D02*
G01*
X35536400Y-41663500D01*
X35543100Y-41704000D01*
X33174900Y-41704000D01*
X33174900Y-41600000D01*
X32229700Y-41600000D01*
X32229700Y-41704000D01*
X31170300Y-41704000D01*
X31170300Y-41600000D01*
X30225100Y-41600000D01*
X30225100Y-41704000D01*
X26135900Y-41704000D01*
X26115300Y-41695800D01*
X25689900Y-41610600D01*
X25452500Y-41600000D01*
X23977600Y-41600000D01*
X23977600Y-41704000D01*
X19854100Y-41704000D01*
X19851800Y-41703000D01*
X19434400Y-41611400D01*
X19202700Y-41600000D01*
X17709100Y-41600000D01*
X17709100Y-41704000D01*
X15256900Y-41704000D01*
X15263600Y-41663500D01*
X15274000Y-41618900D01*
X15280900Y-41596000D01*
X35519100Y-41596000D01*
X35526000Y-41618900D01*
G37*
%TD.AperFunction*%
%TA.AperFunction,Conductor*%
G36*
X17709100Y-46200000D02*
G01*
X19202700Y-46200000D01*
X19434400Y-46188400D01*
X19848800Y-46096000D01*
X23977600Y-46096000D01*
X23977600Y-46200000D01*
X24911000Y-46200000D01*
X24911000Y-46096000D01*
X26051000Y-46096000D01*
X26095500Y-46200000D01*
X27122400Y-46200000D01*
X27074600Y-46096000D01*
X30225100Y-46096000D01*
X30225100Y-46200000D01*
X31170300Y-46200000D01*
X31170300Y-46096000D01*
X32229700Y-46096000D01*
X32229700Y-46200000D01*
X33174900Y-46200000D01*
X33174900Y-46096000D01*
X35543100Y-46096000D01*
X35536400Y-46136500D01*
X35526000Y-46181100D01*
X35519100Y-46204000D01*
X15280900Y-46204000D01*
X15274000Y-46181100D01*
X15263600Y-46136500D01*
X15256900Y-46096000D01*
X17709100Y-46096000D01*
X17709100Y-46200000D01*
G37*
%TD.AperFunction*%
D12*
X1250000Y-3850000D02*
X3850000Y-1250000D01*
X1250000Y-85050000D02*
X1250000Y-3850000D01*
D13*
X2100000Y-10000000D02*
X1200000Y-10000000D01*
X2100000Y-79000000D02*
X1200000Y-79000000D01*
D12*
X3850000Y-1250000D02*
X46950000Y-1250000D01*
X3850000Y-87650000D02*
X1250000Y-85050000D01*
D14*
X25400000Y-1250000D02*
X25400000Y400000D01*
D13*
X25400000Y-2100000D02*
X25400000Y-1200000D01*
X25400000Y-86800000D02*
X25400000Y-87650000D01*
D14*
X25400000Y-87650000D02*
X25400000Y-89300000D01*
D13*
X34820000Y-46450000D02*
X34820000Y-48300000D01*
X34820000Y-48300000D02*
X49500000Y-48300000D01*
D12*
X46950000Y-1250000D02*
X49550000Y-3850000D01*
X46950000Y-87650000D02*
X3850000Y-87650000D01*
D13*
X48700000Y-10000000D02*
X49600000Y-10000000D01*
X48700000Y-79000000D02*
X49600000Y-79000000D01*
D12*
X49550000Y-3850000D02*
X49550000Y-85050000D01*
X49550000Y-85050000D02*
X46950000Y-87650000D01*
%TD*%
D15*
%TO.P,MH3,1,1_1*%
%TO.N,GND*%
X3000000Y-3000000D03*
%TD*%
D16*
%TO.P,PV2,N,N_N*%
%TO.N,GND*%
X7400000Y-71900000D03*
D17*
%TO.P,PV2,Nt,Nt_Nt*%
X4300000Y-71900000D03*
D16*
%TO.P,PV2,P,P_P*%
%TO.N,VINB*%
X43400000Y-71900000D03*
D17*
%TO.P,PV2,Pt,Pt_Pt*%
X46500000Y-71900000D03*
%TD*%
D15*
%TO.P,MH2,1,1_1*%
%TO.N,GND*%
X47800000Y-85900000D03*
%TD*%
%TO.P,MH1,1,1_1*%
%TO.N,GND*%
X3000000Y-85900000D03*
%TD*%
%TO.P,MH4,1,1_1*%
%TO.N,GND*%
X47800000Y-3000000D03*
%TD*%
D16*
%TO.P,PV1,N,N_N*%
%TO.N,GND*%
X7400000Y-17000000D03*
D17*
%TO.P,PV1,Nt,Nt_Nt*%
X4300000Y-17000000D03*
D16*
%TO.P,PV1,P,P_P*%
%TO.N,VIN*%
X43400000Y-17000000D03*
D17*
%TO.P,PV1,Pt,Pt_Pt*%
X46500000Y-17000000D03*
%TD*%
D18*
%TO.N,GND*%
X4300000Y-71900000D03*
X13750000Y-31300000D03*
X3800000Y-51175000D03*
X8450000Y-42000000D03*
X10650000Y-47625000D03*
X9100000Y-47300000D03*
X17050000Y-33100000D03*
X15600000Y-35900000D03*
X34625000Y-56325000D03*
X8900000Y-44700000D03*
X4850000Y-28500000D03*
X12225000Y-25175000D03*
X32525000Y-33225000D03*
X33475000Y-56325000D03*
X4850000Y-27250000D03*
X36275000Y-30450000D03*
X34325000Y-31350000D03*
X10600000Y-46450000D03*
X47200000Y-67200000D03*
X19300000Y-31825000D03*
X3800000Y-49600000D03*
X48200000Y-66300000D03*
X7400000Y-15600000D03*
X7400000Y-71900000D03*
%TO.N,VINB*%
X45500000Y-63000000D03*
%TO.N,VIN*%
X45500000Y-25000000D03*
%TO.N,MID*%
X31400000Y-29250000D03*
X30850000Y-36050000D03*
X4200000Y-27900000D03*
X2300000Y-27900000D03*
%TO.N,VS*%
X35850000Y-57050000D03*
X13050000Y-43000000D03*
X3400000Y-40720000D03*
X30100000Y-35550000D03*
X16300000Y-32050000D03*
X5250000Y-38945000D03*
X11900000Y-47150000D03*
X6900000Y-37295000D03*
X16200000Y-34400000D03*
X28700000Y-6150000D03*
X23150000Y-48800000D03*
X32550000Y-36750000D03*
X31350000Y-49350000D03*
X13200000Y-44550000D03*
X46150000Y-13350000D03*
X10900000Y-32050000D03*
X6775000Y-43795000D03*
%TO.N,LDRV2*%
X7950000Y-38600000D03*
X12450000Y-44075000D03*
X21750000Y-51450000D03*
X11750000Y-45650000D03*
%TO.N,VNFC*%
X30550000Y-31465000D03*
X12850000Y-30565000D03*
%TO.N,NFC_EN*%
X6700000Y-42438000D03*
X4700000Y-34388000D03*
%TO.N,ANODE*%
X14975000Y-51200000D03*
X24900000Y-51975000D03*
X21175000Y-47650000D03*
X27475000Y-47650000D03*
X33325000Y-47650000D03*
X23775000Y-47850000D03*
%TO.N,TINY*%
X29175000Y-48500000D03*
X25675000Y-48500000D03*
%TO.N,VSENSE*%
X10050000Y-43750000D03*
X9900000Y-47600000D03*
%TO.N,LDRV1*%
X16350000Y-49050000D03*
X7700000Y-39500000D03*
%TO.N,FD*%
X8300000Y-37900000D03*
X33300000Y-36250000D03*
%TO.N,SCL*%
X16125000Y-38005000D03*
X34375000Y-35280000D03*
X8575000Y-43730000D03*
X8425000Y-33580000D03*
X10525000Y-33580000D03*
X12125000Y-34630000D03*
%TO.N,UPDI*%
X10750000Y-36810000D03*
X6000000Y-35960000D03*
X12400000Y-15980000D03*
%TO.N,LDRV4*%
X9400000Y-38025000D03*
X35500000Y-47550000D03*
%TO.N,LDRV3*%
X25500000Y-52450000D03*
X7675000Y-37425000D03*
%TO.N,LA*%
X33950000Y-33650000D03*
X36600000Y-34600000D03*
%TO.N,LB*%
X33300000Y-33225000D03*
X33275000Y-38350000D03*
X42900000Y-38000000D03*
%TD*%
%TO.N,GND*%
D19*
X16525000Y-31450000D02*
X16650000Y-31525000D01*
D13*
X9250000Y-42800000D02*
X8450000Y-42000000D01*
X34100000Y-31550000D02*
X32775000Y-32850000D01*
X9500000Y-48150000D02*
X9250000Y-47850000D01*
X9250000Y-47850000D02*
X9200000Y-43850000D01*
D19*
X12225000Y-25175000D02*
X12250000Y-30775000D01*
X12575000Y-31125000D02*
X13250000Y-31425000D01*
D13*
X4850000Y-27250000D02*
X4850000Y-28500000D01*
X10500000Y-47900000D02*
X10250000Y-48150000D01*
X3800000Y-51175000D02*
X3800000Y-49600000D01*
X32775000Y-32850000D02*
X32525000Y-33225000D01*
D19*
X12250000Y-30775000D02*
X12450000Y-31050000D01*
X12450000Y-31050000D02*
X12525000Y-31100000D01*
X34625000Y-56325000D02*
X33475000Y-56325000D01*
D13*
X34700000Y-31150000D02*
X34325000Y-31350000D01*
D19*
X12525000Y-31100000D02*
X12575000Y-31125000D01*
D14*
X7400000Y-17000000D02*
X4300000Y-17000000D01*
D13*
X16950000Y-31750000D02*
X16950000Y-34550000D01*
X10050000Y-48250000D02*
X9700000Y-48250000D01*
D19*
X16650000Y-31525000D02*
X16800000Y-31675000D01*
D13*
X9700000Y-48250000D02*
X9500000Y-48150000D01*
X9050000Y-44700000D02*
X8900000Y-44700000D01*
X10250000Y-48150000D02*
X10050000Y-48250000D01*
D19*
X13250000Y-31425000D02*
X16525000Y-31450000D01*
D13*
X16950000Y-34550000D02*
X15600000Y-35900000D01*
D20*
X7400000Y-71900000D02*
X4300000Y-71900000D01*
D19*
X48200000Y-66300000D02*
X47200000Y-67200000D01*
X10650000Y-47625000D02*
X10600000Y-46450000D01*
D13*
X36275000Y-30450000D02*
X34825000Y-31100000D01*
X9200000Y-43850000D02*
X9250000Y-43800000D01*
X16950000Y-31675000D02*
X19300000Y-31825000D01*
X9250000Y-43800000D02*
X9250000Y-42800000D01*
%TO.N,VINB*%
D20*
X43400000Y-71900000D02*
X46500000Y-71900000D01*
X46500000Y-71900000D02*
X45500000Y-63000000D01*
%TO.N,VIN*%
X43400000Y-17000000D02*
X46500000Y-17000000D01*
X46500000Y-17000000D02*
X45500000Y-25000000D01*
%TO.N,MID*%
D19*
X31400000Y-29250000D02*
X30850000Y-36050000D01*
X4200000Y-27900000D02*
X2300000Y-27900000D01*
%TO.N,VS*%
X6025000Y-43345000D02*
X3400000Y-40720000D01*
D14*
X13100000Y-43100000D02*
X13050000Y-43000000D01*
X24200000Y-51900000D02*
X24300000Y-51700000D01*
X11900000Y-47150000D02*
X16650000Y-51900000D01*
X23350000Y-52200000D02*
X23900000Y-52200000D01*
X16650000Y-51900000D02*
X16800000Y-52000000D01*
X16200000Y-32300000D02*
X16200000Y-34400000D01*
X28700000Y-6150000D02*
X46150000Y-13350000D01*
X30100000Y-35550000D02*
X30100000Y-36300000D01*
X24300000Y-49950000D02*
X23150000Y-48800000D01*
X16800000Y-52000000D02*
X17050000Y-52050000D01*
X30700000Y-36750000D02*
X32550000Y-36750000D01*
X23900000Y-52200000D02*
X24200000Y-51900000D01*
X31350000Y-49650000D02*
X35850000Y-57050000D01*
D19*
X6175000Y-43445000D02*
X6025000Y-43345000D01*
D14*
X30100000Y-36300000D02*
X30450000Y-36650000D01*
X30450000Y-36650000D02*
X30700000Y-36750000D01*
X13200000Y-43950000D02*
X13200000Y-44550000D01*
D19*
X6775000Y-43795000D02*
X6175000Y-43445000D01*
D14*
X17050000Y-52050000D02*
X23350000Y-52200000D01*
X13100000Y-43750000D02*
X13100000Y-43100000D01*
X10900000Y-32050000D02*
X16300000Y-32050000D01*
D19*
X24450000Y-49800000D02*
X31350000Y-49350000D01*
X5250000Y-38945000D02*
X6900000Y-37295000D01*
D14*
X24300000Y-51700000D02*
X24300000Y-49950000D01*
%TO.N,LDRV2*%
D21*
X12000000Y-45750000D02*
X16000000Y-49600000D01*
X12450000Y-44075000D02*
X8050000Y-38875000D01*
X16000000Y-49600000D02*
X16100000Y-49650000D01*
X16100000Y-49650000D02*
X16250000Y-49700000D01*
X16250000Y-49700000D02*
X21750000Y-51450000D01*
%TO.N,VNFC*%
D19*
X12850000Y-30565000D02*
X30550000Y-31465000D01*
%TO.N,NFC_EN*%
D13*
X4550000Y-40288000D02*
X6700000Y-42438000D01*
X4550000Y-37138000D02*
X4550000Y-40288000D01*
X4700000Y-34388000D02*
X4550000Y-37138000D01*
%TO.N,ANODE*%
D19*
X23775000Y-47850000D02*
X21175000Y-47650000D01*
X24900000Y-51975000D02*
X24900000Y-52000000D01*
X33325000Y-47650000D02*
X27475000Y-47650000D01*
X24225000Y-52675000D02*
X24075000Y-52750000D01*
X24075000Y-52750000D02*
X23975000Y-52775000D01*
X16550000Y-52775000D02*
X14975000Y-51200000D01*
X23975000Y-52775000D02*
X16550000Y-52775000D01*
X24900000Y-52000000D02*
X24225000Y-52675000D01*
%TO.N,TINY*%
D13*
X29175000Y-48500000D02*
X25675000Y-48500000D01*
%TO.N,VSENSE*%
X9900000Y-47600000D02*
X9900000Y-44000000D01*
%TO.N,LDRV1*%
X16350000Y-49050000D02*
X12250000Y-44750000D01*
X12250000Y-44750000D02*
X7700000Y-39500000D01*
%TO.N,FD*%
X32750000Y-37325000D02*
X32675000Y-37350000D01*
X33075000Y-37050000D02*
X33025000Y-37125000D01*
X33150000Y-36875000D02*
X33125000Y-36950000D01*
X8650000Y-37600000D02*
X8300000Y-37900000D01*
X8825000Y-37500000D02*
X8650000Y-37600000D01*
X8825000Y-37500000D02*
X9400000Y-37340000D01*
X33175000Y-36525000D02*
X33150000Y-36875000D01*
X32675000Y-37350000D02*
X10900000Y-37400000D01*
X32925000Y-37225000D02*
X32850000Y-37275000D01*
X9400000Y-37340000D02*
X10800000Y-37425000D01*
X33025000Y-37125000D02*
X32925000Y-37225000D01*
X33125000Y-36950000D02*
X33075000Y-37050000D01*
X10900000Y-37400000D02*
X10800000Y-37425000D01*
X32850000Y-37275000D02*
X32750000Y-37325000D01*
%TO.N,SCL*%
X4100000Y-34055000D02*
X4025000Y-34280000D01*
X12125000Y-34630000D02*
X10525000Y-33580000D01*
X8425000Y-33580000D02*
X4550000Y-33580000D01*
X33650000Y-37155000D02*
X33750000Y-37005000D01*
X6450000Y-43055000D02*
X8575000Y-43730000D01*
X6325000Y-42980000D02*
X6400000Y-43030000D01*
X4550000Y-33580000D02*
X4100000Y-34055000D01*
X4025000Y-40680000D02*
X6325000Y-42980000D01*
X6400000Y-43030000D02*
X6450000Y-43055000D01*
X33750000Y-37005000D02*
X34375000Y-35280000D01*
X16125000Y-38005000D02*
X32800000Y-38005000D01*
X4025000Y-34280000D02*
X4025000Y-40680000D01*
X32800000Y-38005000D02*
X33650000Y-37155000D01*
%TO.N,UPDI*%
X11860000Y-18660000D02*
X12050000Y-18380000D01*
X9900000Y-35960000D02*
X10750000Y-36810000D01*
X12250000Y-17980000D02*
X12300000Y-17680000D01*
X12200000Y-18130000D02*
X12250000Y-17980000D01*
X12150000Y-18230000D02*
X12200000Y-18130000D01*
X9950000Y-20480000D02*
X11860000Y-18660000D01*
X12300000Y-17680000D02*
X12400000Y-15980000D01*
X6000000Y-35960000D02*
X9900000Y-35960000D01*
X12050000Y-18380000D02*
X12150000Y-18230000D01*
X9950000Y-35830000D02*
X9950000Y-20480000D01*
%TO.N,LDRV4*%
D22*
X11700000Y-40325000D02*
X35300000Y-40325000D01*
X36250000Y-41125000D02*
X36275000Y-41200000D01*
X36150000Y-46750000D02*
X36075000Y-46850000D01*
X36300000Y-46300000D02*
X36275000Y-46425000D01*
X36075000Y-40775000D02*
X36150000Y-40875000D01*
X36175000Y-40925000D02*
X36250000Y-41125000D01*
X36275000Y-46425000D02*
X36250000Y-46500000D01*
X36175000Y-46700000D02*
X36150000Y-46750000D01*
X36275000Y-41200000D02*
X36300000Y-41325000D01*
X36075000Y-46850000D02*
X35500000Y-47550000D01*
X9400000Y-38025000D02*
X11700000Y-40325000D01*
X35775000Y-40500000D02*
X36075000Y-40775000D01*
X35300000Y-40325000D02*
X35775000Y-40500000D01*
X36250000Y-46500000D02*
X36175000Y-46700000D01*
X36300000Y-41325000D02*
X36300000Y-46300000D01*
X36150000Y-40875000D02*
X36175000Y-40925000D01*
%TO.N,LDRV3*%
D21*
X10675000Y-43550000D02*
X7150000Y-39750000D01*
X14650000Y-51700000D02*
X14425000Y-51450000D01*
X7150000Y-39750000D02*
X7100000Y-39600000D01*
X7100000Y-39600000D02*
X7125000Y-39275000D01*
X14425000Y-51450000D02*
X11350000Y-47400000D01*
X7125000Y-39275000D02*
X7675000Y-37425000D01*
X11350000Y-47400000D02*
X10675000Y-43550000D01*
X24450000Y-53050000D02*
X24200000Y-53175000D01*
X16275000Y-53125000D02*
X14650000Y-51700000D01*
X25500000Y-52450000D02*
X24450000Y-53050000D01*
X16425000Y-53200000D02*
X16350000Y-53175000D01*
X24075000Y-53200000D02*
X16425000Y-53200000D01*
X24200000Y-53175000D02*
X24075000Y-53200000D01*
X16350000Y-53175000D02*
X16275000Y-53125000D01*
%TO.N,LA*%
D19*
X36600000Y-34600000D02*
X33950000Y-33650000D01*
%TO.N,LB*%
X42900000Y-38000000D02*
X42900000Y-31475000D01*
X33575000Y-34225000D02*
X33725000Y-34300000D01*
X33725000Y-34300000D02*
X33825000Y-34325000D01*
X34925000Y-34875000D02*
X35000000Y-35000000D01*
X33250000Y-33500000D02*
X33250000Y-33925000D01*
X33825000Y-34325000D02*
X34350000Y-34350000D01*
D21*
X42900000Y-31475000D02*
X35050000Y-31475000D01*
D19*
X35050000Y-35150000D02*
X35050000Y-36575000D01*
X33475000Y-34150000D02*
X33575000Y-34225000D01*
D21*
X35050000Y-31475000D02*
X33300000Y-33225000D01*
D19*
X35050000Y-36575000D02*
X33275000Y-38350000D01*
X35025000Y-35050000D02*
X35050000Y-35150000D01*
X33250000Y-33925000D02*
X33475000Y-34150000D01*
X35000000Y-35000000D02*
X35025000Y-35050000D01*
X34350000Y-34350000D02*
X34925000Y-34875000D01*
%TD*%
M02*
