M48
; DRILL file KiCad 10.0.4-10.0.4~ubuntu25.10.1 date 2026-07-12T03:48:38
; FORMAT={-:-/ absolute / metric / decimal}
; #@! TF.CreationDate,2026-07-12T03:48:38+00:00
; #@! TF.GenerationSoftware,Kicad,Pcbnew,10.0.4-10.0.4~ubuntu25.10.1
; #@! TF.FileFunction,Plated,1,2,PTH
FMAT,2
METRIC
; #@! TA.AperFunction,Plated,PTH,ViaDrill
T1C0.300
; #@! TA.AperFunction,Plated,PTH,ComponentDrill
T2C2.200
%
G90
G05
T1
X3.476Y-40.72
X3.9Y-32.91
X4.408Y-32.357
X5.65Y-34.24
X5.68Y-33.11
X5.697Y-38.517
X6.0Y-35.96
X6.22Y-20.01
X6.77Y-35.09
X6.771Y-41.35
X6.923Y-37.291
X7.395Y-44.095
X7.54Y-45.62
X7.578Y-39.373
X7.63Y-20.87
X7.723Y-37.315
X7.921Y-38.669
X8.232Y-37.932
X8.355Y-46.455
X8.456Y-27.9
X8.575Y-43.73
X9.4Y-38.025
X9.652Y-30.0
X10.05Y-43.75
X10.16Y-34.785
X10.724Y-36.872
X10.91Y-21.2
X11.627Y-30.293
X11.75Y-45.65
X11.9Y-47.15
X11.971Y-38.438
X12.35Y-41.3
X12.539Y-44.061
X12.8Y-35.05
X13.211Y-16.123
X13.397Y-44.06
X14.001Y-48.741
X14.334Y-34.646
X16.33Y-39.388
X16.761Y-47.524
X20.185Y-47.503
X21.175Y-47.51
X22.256Y-48.176
X24.13Y-47.697
X25.581Y-48.268
X26.719Y-49.185
X28.352Y-47.698
X28.7Y-6.15
X29.524Y-48.19
X31.323Y-29.186
X31.75Y-37.0
X32.004Y-32.131
X32.47Y-48.32
X33.0Y-31.4
X33.25Y-33.203
X33.325Y-47.65
X33.895Y-33.676
X34.232Y-35.423
X34.323Y-36.526
X35.15Y-37.33
X35.733Y-47.69
X35.853Y-34.801
X36.0Y-48.77
X36.308Y-30.665
X42.9Y-38.0
X44.39Y-22.49
X44.975Y-25.0
X45.0Y-74.75
X45.1Y-64.25
X45.24Y-68.08
X45.37Y-76.72
X45.7Y-74.04
X46.15Y-13.097
X46.16Y-22.12
X46.29Y-68.65
X46.3Y-68.05
X46.51Y-64.81
X46.696Y-19.635
X46.748Y-65.632
X46.773Y-67.11
X46.9Y-80.45
X48.579Y-69.926
T2
X3.0Y-3.0
X3.0Y-28.5
X3.0Y-60.4
X3.0Y-85.9
X47.8Y-3.0
X47.8Y-28.5
X47.8Y-60.4
X47.8Y-85.9
M30
