M48
; DRILL file KiCad 10.0.4-10.0.4~ubuntu25.10.1 date 2026-07-27T10:18:00
; FORMAT={-:-/ absolute / metric / decimal}
; #@! TF.CreationDate,2026-07-27T10:18:00+00:00
; #@! TF.GenerationSoftware,Kicad,Pcbnew,10.0.4-10.0.4~ubuntu25.10.1
; #@! TF.FileFunction,Plated,1,2,PTH
FMAT,2
METRIC
; #@! TA.AperFunction,Plated,PTH,ViaDrill
T1C0.300
; #@! TA.AperFunction,Plated,PTH,ComponentDrill
T2C2.200
%
G90
G05
T1
X2.883Y-50.918
X2.975Y-57.678
X3.625Y-39.7
X3.875Y-55.95
X4.0Y-31.0
X4.489Y-49.518
X4.504Y-43.269
X4.753Y-46.456
X5.175Y-33.875
X5.364Y-47.448
X5.392Y-44.6
X5.802Y-35.827
X5.9Y-53.65
X6.0Y-38.4
X6.22Y-22.5
X6.237Y-42.461
X6.436Y-41.043
X6.99Y-47.708
X7.0Y-8.0
X7.163Y-51.221
X7.179Y-46.889
X7.4Y-40.125
X7.586Y-41.129
X7.63Y-25.4
X7.65Y-22.5
X7.825Y-39.475
X7.95Y-32.0
X7.95Y-37.065
X8.313Y-50.586
X8.413Y-48.024
X8.976Y-52.229
X9.009Y-47.408
X9.125Y-48.2
X9.325Y-40.4
X10.814Y-47.15
X10.91Y-21.2
X10.962Y-48.3
X11.019Y-44.087
X11.242Y-42.308
X11.252Y-39.72
X11.417Y-46.7
X11.627Y-30.293
X12.107Y-41.392
X12.2Y-43.3
X12.613Y-40.296
X12.988Y-48.263
X13.211Y-16.123
X13.35Y-44.089
X13.8Y-42.45
X14.35Y-47.2
X14.6Y-26.0
X15.291Y-31.709
X15.291Y-33.5
X16.0Y-26.0
X16.025Y-60.95
X16.05Y-26.8
X16.8Y-48.65
X20.0Y-31.877
X20.185Y-47.503
X22.299Y-47.586
X23.0Y-36.0
X24.0Y-48.094
X25.225Y-27.4
X25.8Y-29.0
X26.165Y-49.15
X27.25Y-33.55
X27.251Y-49.35
X27.295Y-32.451
X27.83Y-47.519
X28.45Y-48.854
X28.957Y-48.196
X29.125Y-56.15
X30.226Y-30.78
X30.988Y-33.528
X31.526Y-39.424
X32.0Y-33.2
X32.004Y-37.084
X32.5Y-31.926
X33.025Y-57.25
X33.05Y-58.725
X33.25Y-33.203
X33.325Y-47.65
X33.895Y-33.676
X34.125Y-36.5
X34.232Y-35.423
X34.501Y-52.496
X34.544Y-56.494
X35.15Y-37.33
X35.7Y-51.45
X35.733Y-47.69
X35.853Y-34.801
X36.0Y-48.77
X36.308Y-30.851
X39.7Y-64.0
X42.9Y-38.0
X43.8Y-63.05
X44.725Y-20.9
X44.75Y-23.0
X46.16Y-22.12
X46.334Y-14.482
X46.5Y-69.5
X46.696Y-19.635
T2
X3.0Y-3.0
X3.0Y-28.5
X3.0Y-60.4
X3.0Y-85.9
X47.8Y-3.0
X47.8Y-28.5
X47.8Y-60.4
X47.8Y-85.9
M30
