%TF.GenerationSoftware,KiCad,Pcbnew,10.0.5-unknown-202607221313~667fa36054~ubuntu25.10.1*%
%TF.CreationDate,2026-08-23T19:45:10+00:00*%
%TF.ProjectId,solar-glow-drh-v4_0,736f6c61-722d-4676-9c6f-772d6472682d,v4.0*%
%TF.SameCoordinates,Original*%
%TF.FileFunction,Legend,Bot*%
%TF.FilePolarity,Positive*%
%FSLAX46Y46*%
G04 Gerber Fmt 4.6, Leading zero omitted, Abs format (unit mm)*
G04 Created by KiCad (PCBNEW 10.0.5-unknown-202607221313~667fa36054~ubuntu25.10.1) date 2026-08-23 19:45:10*
%MOMM*%
%LPD*%
G01*
G04 APERTURE LIST*
%ADD10C,0.125000*%
%ADD11C,0.150000*%
%ADD12C,0.100000*%
%ADD13C,0.246787*%
%ADD14C,0.120000*%
%ADD15C,0.240000*%
%ADD16C,0.200000*%
%ADD17C,0.260391*%
%ADD18C,0.165000*%
%ADD19C,0.140357*%
G04 APERTURE END LIST*
D10*
X28804906Y-48985595D02*
X28652525Y-48985595D01*
X28652525Y-48985595D02*
X28576335Y-49023690D01*
X28576335Y-49023690D02*
X28500144Y-49099880D01*
X28500144Y-49099880D02*
X28462049Y-49252261D01*
X28462049Y-49252261D02*
X28462049Y-49518928D01*
X28462049Y-49518928D02*
X28500144Y-49671309D01*
X28500144Y-49671309D02*
X28576335Y-49747500D01*
X28576335Y-49747500D02*
X28652525Y-49785595D01*
X28652525Y-49785595D02*
X28804906Y-49785595D01*
X28804906Y-49785595D02*
X28881097Y-49747500D01*
X28881097Y-49747500D02*
X28957287Y-49671309D01*
X28957287Y-49671309D02*
X28995383Y-49518928D01*
X28995383Y-49518928D02*
X28995383Y-49252261D01*
X28995383Y-49252261D02*
X28957287Y-49099880D01*
X28957287Y-49099880D02*
X28881097Y-49023690D01*
X28881097Y-49023690D02*
X28804906Y-48985595D01*
X28119192Y-49785595D02*
X28119192Y-48985595D01*
X28119192Y-48985595D02*
X27662049Y-49785595D01*
X27662049Y-49785595D02*
X27662049Y-48985595D01*
X37627287Y-75295595D02*
X37627287Y-74495595D01*
X37627287Y-74495595D02*
X37436811Y-74495595D01*
X37436811Y-74495595D02*
X37322525Y-74533690D01*
X37322525Y-74533690D02*
X37246335Y-74609880D01*
X37246335Y-74609880D02*
X37208240Y-74686071D01*
X37208240Y-74686071D02*
X37170144Y-74838452D01*
X37170144Y-74838452D02*
X37170144Y-74952738D01*
X37170144Y-74952738D02*
X37208240Y-75105119D01*
X37208240Y-75105119D02*
X37246335Y-75181309D01*
X37246335Y-75181309D02*
X37322525Y-75257500D01*
X37322525Y-75257500D02*
X37436811Y-75295595D01*
X37436811Y-75295595D02*
X37627287Y-75295595D01*
X36370144Y-75295595D02*
X36636811Y-74914642D01*
X36827287Y-75295595D02*
X36827287Y-74495595D01*
X36827287Y-74495595D02*
X36522525Y-74495595D01*
X36522525Y-74495595D02*
X36446335Y-74533690D01*
X36446335Y-74533690D02*
X36408240Y-74571785D01*
X36408240Y-74571785D02*
X36370144Y-74647976D01*
X36370144Y-74647976D02*
X36370144Y-74762261D01*
X36370144Y-74762261D02*
X36408240Y-74838452D01*
X36408240Y-74838452D02*
X36446335Y-74876547D01*
X36446335Y-74876547D02*
X36522525Y-74914642D01*
X36522525Y-74914642D02*
X36827287Y-74914642D01*
X36027287Y-75295595D02*
X36027287Y-74495595D01*
X36027287Y-74876547D02*
X35570144Y-74876547D01*
X35570144Y-75295595D02*
X35570144Y-74495595D01*
X34655859Y-74762261D02*
X34465383Y-75295595D01*
X34465383Y-75295595D02*
X34274906Y-74762261D01*
X33627287Y-74762261D02*
X33627287Y-75295595D01*
X33817763Y-74457500D02*
X34008240Y-75028928D01*
X34008240Y-75028928D02*
X33513001Y-75028928D01*
X33208239Y-75219404D02*
X33170144Y-75257500D01*
X33170144Y-75257500D02*
X33208239Y-75295595D01*
X33208239Y-75295595D02*
X33246335Y-75257500D01*
X33246335Y-75257500D02*
X33208239Y-75219404D01*
X33208239Y-75219404D02*
X33208239Y-75295595D01*
X32674906Y-74495595D02*
X32598716Y-74495595D01*
X32598716Y-74495595D02*
X32522525Y-74533690D01*
X32522525Y-74533690D02*
X32484430Y-74571785D01*
X32484430Y-74571785D02*
X32446335Y-74647976D01*
X32446335Y-74647976D02*
X32408240Y-74800357D01*
X32408240Y-74800357D02*
X32408240Y-74990833D01*
X32408240Y-74990833D02*
X32446335Y-75143214D01*
X32446335Y-75143214D02*
X32484430Y-75219404D01*
X32484430Y-75219404D02*
X32522525Y-75257500D01*
X32522525Y-75257500D02*
X32598716Y-75295595D01*
X32598716Y-75295595D02*
X32674906Y-75295595D01*
X32674906Y-75295595D02*
X32751097Y-75257500D01*
X32751097Y-75257500D02*
X32789192Y-75219404D01*
X32789192Y-75219404D02*
X32827287Y-75143214D01*
X32827287Y-75143214D02*
X32865383Y-74990833D01*
X32865383Y-74990833D02*
X32865383Y-74800357D01*
X32865383Y-74800357D02*
X32827287Y-74647976D01*
X32827287Y-74647976D02*
X32789192Y-74571785D01*
X32789192Y-74571785D02*
X32751097Y-74533690D01*
X32751097Y-74533690D02*
X32674906Y-74495595D01*
D11*
X46093800Y-23008935D02*
X46055704Y-22894649D01*
X46055704Y-22894649D02*
X46055704Y-22704173D01*
X46055704Y-22704173D02*
X46093800Y-22627982D01*
X46093800Y-22627982D02*
X46131895Y-22589887D01*
X46131895Y-22589887D02*
X46208085Y-22551792D01*
X46208085Y-22551792D02*
X46284276Y-22551792D01*
X46284276Y-22551792D02*
X46360466Y-22589887D01*
X46360466Y-22589887D02*
X46398561Y-22627982D01*
X46398561Y-22627982D02*
X46436657Y-22704173D01*
X46436657Y-22704173D02*
X46474752Y-22856554D01*
X46474752Y-22856554D02*
X46512847Y-22932744D01*
X46512847Y-22932744D02*
X46550942Y-22970839D01*
X46550942Y-22970839D02*
X46627133Y-23008935D01*
X46627133Y-23008935D02*
X46703323Y-23008935D01*
X46703323Y-23008935D02*
X46779514Y-22970839D01*
X46779514Y-22970839D02*
X46817609Y-22932744D01*
X46817609Y-22932744D02*
X46855704Y-22856554D01*
X46855704Y-22856554D02*
X46855704Y-22666077D01*
X46855704Y-22666077D02*
X46817609Y-22551792D01*
X46055704Y-22208934D02*
X46855704Y-22208934D01*
X46855704Y-22208934D02*
X46855704Y-22018458D01*
X46855704Y-22018458D02*
X46817609Y-21904172D01*
X46817609Y-21904172D02*
X46741419Y-21827982D01*
X46741419Y-21827982D02*
X46665228Y-21789887D01*
X46665228Y-21789887D02*
X46512847Y-21751791D01*
X46512847Y-21751791D02*
X46398561Y-21751791D01*
X46398561Y-21751791D02*
X46246180Y-21789887D01*
X46246180Y-21789887D02*
X46169990Y-21827982D01*
X46169990Y-21827982D02*
X46093800Y-21904172D01*
X46093800Y-21904172D02*
X46055704Y-22018458D01*
X46055704Y-22018458D02*
X46055704Y-22208934D01*
X46284276Y-21447030D02*
X46284276Y-21066077D01*
X46055704Y-21523220D02*
X46855704Y-21256553D01*
X46855704Y-21256553D02*
X46055704Y-20989887D01*
X46153800Y-20438935D02*
X46115704Y-20324649D01*
X46115704Y-20324649D02*
X46115704Y-20134173D01*
X46115704Y-20134173D02*
X46153800Y-20057982D01*
X46153800Y-20057982D02*
X46191895Y-20019887D01*
X46191895Y-20019887D02*
X46268085Y-19981792D01*
X46268085Y-19981792D02*
X46344276Y-19981792D01*
X46344276Y-19981792D02*
X46420466Y-20019887D01*
X46420466Y-20019887D02*
X46458561Y-20057982D01*
X46458561Y-20057982D02*
X46496657Y-20134173D01*
X46496657Y-20134173D02*
X46534752Y-20286554D01*
X46534752Y-20286554D02*
X46572847Y-20362744D01*
X46572847Y-20362744D02*
X46610942Y-20400839D01*
X46610942Y-20400839D02*
X46687133Y-20438935D01*
X46687133Y-20438935D02*
X46763323Y-20438935D01*
X46763323Y-20438935D02*
X46839514Y-20400839D01*
X46839514Y-20400839D02*
X46877609Y-20362744D01*
X46877609Y-20362744D02*
X46915704Y-20286554D01*
X46915704Y-20286554D02*
X46915704Y-20096077D01*
X46915704Y-20096077D02*
X46877609Y-19981792D01*
X46191895Y-19181791D02*
X46153800Y-19219887D01*
X46153800Y-19219887D02*
X46115704Y-19334172D01*
X46115704Y-19334172D02*
X46115704Y-19410363D01*
X46115704Y-19410363D02*
X46153800Y-19524649D01*
X46153800Y-19524649D02*
X46229990Y-19600839D01*
X46229990Y-19600839D02*
X46306180Y-19638934D01*
X46306180Y-19638934D02*
X46458561Y-19677030D01*
X46458561Y-19677030D02*
X46572847Y-19677030D01*
X46572847Y-19677030D02*
X46725228Y-19638934D01*
X46725228Y-19638934D02*
X46801419Y-19600839D01*
X46801419Y-19600839D02*
X46877609Y-19524649D01*
X46877609Y-19524649D02*
X46915704Y-19410363D01*
X46915704Y-19410363D02*
X46915704Y-19334172D01*
X46915704Y-19334172D02*
X46877609Y-19219887D01*
X46877609Y-19219887D02*
X46839514Y-19181791D01*
X46115704Y-18457982D02*
X46115704Y-18838934D01*
X46115704Y-18838934D02*
X46915704Y-18838934D01*
X46173800Y-17848935D02*
X46135704Y-17734649D01*
X46135704Y-17734649D02*
X46135704Y-17544173D01*
X46135704Y-17544173D02*
X46173800Y-17467982D01*
X46173800Y-17467982D02*
X46211895Y-17429887D01*
X46211895Y-17429887D02*
X46288085Y-17391792D01*
X46288085Y-17391792D02*
X46364276Y-17391792D01*
X46364276Y-17391792D02*
X46440466Y-17429887D01*
X46440466Y-17429887D02*
X46478561Y-17467982D01*
X46478561Y-17467982D02*
X46516657Y-17544173D01*
X46516657Y-17544173D02*
X46554752Y-17696554D01*
X46554752Y-17696554D02*
X46592847Y-17772744D01*
X46592847Y-17772744D02*
X46630942Y-17810839D01*
X46630942Y-17810839D02*
X46707133Y-17848935D01*
X46707133Y-17848935D02*
X46783323Y-17848935D01*
X46783323Y-17848935D02*
X46859514Y-17810839D01*
X46859514Y-17810839D02*
X46897609Y-17772744D01*
X46897609Y-17772744D02*
X46935704Y-17696554D01*
X46935704Y-17696554D02*
X46935704Y-17506077D01*
X46935704Y-17506077D02*
X46897609Y-17391792D01*
X46935704Y-17163220D02*
X46935704Y-16706077D01*
X46135704Y-16934649D02*
X46935704Y-16934649D01*
X46935704Y-16287029D02*
X46935704Y-16134648D01*
X46935704Y-16134648D02*
X46897609Y-16058458D01*
X46897609Y-16058458D02*
X46821419Y-15982267D01*
X46821419Y-15982267D02*
X46669038Y-15944172D01*
X46669038Y-15944172D02*
X46402371Y-15944172D01*
X46402371Y-15944172D02*
X46249990Y-15982267D01*
X46249990Y-15982267D02*
X46173800Y-16058458D01*
X46173800Y-16058458D02*
X46135704Y-16134648D01*
X46135704Y-16134648D02*
X46135704Y-16287029D01*
X46135704Y-16287029D02*
X46173800Y-16363220D01*
X46173800Y-16363220D02*
X46249990Y-16439410D01*
X46249990Y-16439410D02*
X46402371Y-16477506D01*
X46402371Y-16477506D02*
X46669038Y-16477506D01*
X46669038Y-16477506D02*
X46821419Y-16439410D01*
X46821419Y-16439410D02*
X46897609Y-16363220D01*
X46897609Y-16363220D02*
X46935704Y-16287029D01*
X46303800Y-12898935D02*
X46265704Y-12784649D01*
X46265704Y-12784649D02*
X46265704Y-12594173D01*
X46265704Y-12594173D02*
X46303800Y-12517982D01*
X46303800Y-12517982D02*
X46341895Y-12479887D01*
X46341895Y-12479887D02*
X46418085Y-12441792D01*
X46418085Y-12441792D02*
X46494276Y-12441792D01*
X46494276Y-12441792D02*
X46570466Y-12479887D01*
X46570466Y-12479887D02*
X46608561Y-12517982D01*
X46608561Y-12517982D02*
X46646657Y-12594173D01*
X46646657Y-12594173D02*
X46684752Y-12746554D01*
X46684752Y-12746554D02*
X46722847Y-12822744D01*
X46722847Y-12822744D02*
X46760942Y-12860839D01*
X46760942Y-12860839D02*
X46837133Y-12898935D01*
X46837133Y-12898935D02*
X46913323Y-12898935D01*
X46913323Y-12898935D02*
X46989514Y-12860839D01*
X46989514Y-12860839D02*
X47027609Y-12822744D01*
X47027609Y-12822744D02*
X47065704Y-12746554D01*
X47065704Y-12746554D02*
X47065704Y-12556077D01*
X47065704Y-12556077D02*
X47027609Y-12441792D01*
X46265704Y-11641791D02*
X46646657Y-11908458D01*
X46265704Y-12098934D02*
X47065704Y-12098934D01*
X47065704Y-12098934D02*
X47065704Y-11794172D01*
X47065704Y-11794172D02*
X47027609Y-11717982D01*
X47027609Y-11717982D02*
X46989514Y-11679887D01*
X46989514Y-11679887D02*
X46913323Y-11641791D01*
X46913323Y-11641791D02*
X46799038Y-11641791D01*
X46799038Y-11641791D02*
X46722847Y-11679887D01*
X46722847Y-11679887D02*
X46684752Y-11717982D01*
X46684752Y-11717982D02*
X46646657Y-11794172D01*
X46646657Y-11794172D02*
X46646657Y-12098934D01*
X46341895Y-10841791D02*
X46303800Y-10879887D01*
X46303800Y-10879887D02*
X46265704Y-10994172D01*
X46265704Y-10994172D02*
X46265704Y-11070363D01*
X46265704Y-11070363D02*
X46303800Y-11184649D01*
X46303800Y-11184649D02*
X46379990Y-11260839D01*
X46379990Y-11260839D02*
X46456180Y-11298934D01*
X46456180Y-11298934D02*
X46608561Y-11337030D01*
X46608561Y-11337030D02*
X46722847Y-11337030D01*
X46722847Y-11337030D02*
X46875228Y-11298934D01*
X46875228Y-11298934D02*
X46951419Y-11260839D01*
X46951419Y-11260839D02*
X47027609Y-11184649D01*
X47027609Y-11184649D02*
X47065704Y-11070363D01*
X47065704Y-11070363D02*
X47065704Y-10994172D01*
X47065704Y-10994172D02*
X47027609Y-10879887D01*
X47027609Y-10879887D02*
X46989514Y-10841791D01*
D12*
X1659878Y-33282798D02*
X2469401Y-33282798D01*
X2469401Y-33282798D02*
X2564639Y-33330417D01*
X2564639Y-33330417D02*
X2612259Y-33378036D01*
X2612259Y-33378036D02*
X2659878Y-33473274D01*
X2659878Y-33473274D02*
X2659878Y-33663750D01*
X2659878Y-33663750D02*
X2612259Y-33758988D01*
X2612259Y-33758988D02*
X2564639Y-33806607D01*
X2564639Y-33806607D02*
X2469401Y-33854226D01*
X2469401Y-33854226D02*
X1659878Y-33854226D01*
X2659878Y-34330417D02*
X1659878Y-34330417D01*
X1659878Y-34330417D02*
X1659878Y-34711369D01*
X1659878Y-34711369D02*
X1707497Y-34806607D01*
X1707497Y-34806607D02*
X1755116Y-34854226D01*
X1755116Y-34854226D02*
X1850354Y-34901845D01*
X1850354Y-34901845D02*
X1993211Y-34901845D01*
X1993211Y-34901845D02*
X2088449Y-34854226D01*
X2088449Y-34854226D02*
X2136068Y-34806607D01*
X2136068Y-34806607D02*
X2183687Y-34711369D01*
X2183687Y-34711369D02*
X2183687Y-34330417D01*
X2659878Y-35330417D02*
X1659878Y-35330417D01*
X1659878Y-35330417D02*
X1659878Y-35568512D01*
X1659878Y-35568512D02*
X1707497Y-35711369D01*
X1707497Y-35711369D02*
X1802735Y-35806607D01*
X1802735Y-35806607D02*
X1897973Y-35854226D01*
X1897973Y-35854226D02*
X2088449Y-35901845D01*
X2088449Y-35901845D02*
X2231306Y-35901845D01*
X2231306Y-35901845D02*
X2421782Y-35854226D01*
X2421782Y-35854226D02*
X2517020Y-35806607D01*
X2517020Y-35806607D02*
X2612259Y-35711369D01*
X2612259Y-35711369D02*
X2659878Y-35568512D01*
X2659878Y-35568512D02*
X2659878Y-35330417D01*
X2659878Y-36330417D02*
X1659878Y-36330417D01*
X2612259Y-37520893D02*
X2659878Y-37663750D01*
X2659878Y-37663750D02*
X2659878Y-37901845D01*
X2659878Y-37901845D02*
X2612259Y-37997083D01*
X2612259Y-37997083D02*
X2564639Y-38044702D01*
X2564639Y-38044702D02*
X2469401Y-38092321D01*
X2469401Y-38092321D02*
X2374163Y-38092321D01*
X2374163Y-38092321D02*
X2278925Y-38044702D01*
X2278925Y-38044702D02*
X2231306Y-37997083D01*
X2231306Y-37997083D02*
X2183687Y-37901845D01*
X2183687Y-37901845D02*
X2136068Y-37711369D01*
X2136068Y-37711369D02*
X2088449Y-37616131D01*
X2088449Y-37616131D02*
X2040830Y-37568512D01*
X2040830Y-37568512D02*
X1945592Y-37520893D01*
X1945592Y-37520893D02*
X1850354Y-37520893D01*
X1850354Y-37520893D02*
X1755116Y-37568512D01*
X1755116Y-37568512D02*
X1707497Y-37616131D01*
X1707497Y-37616131D02*
X1659878Y-37711369D01*
X1659878Y-37711369D02*
X1659878Y-37949464D01*
X1659878Y-37949464D02*
X1707497Y-38092321D01*
X1659878Y-38378036D02*
X1659878Y-38949464D01*
X2659878Y-38663750D02*
X1659878Y-38663750D01*
X1659878Y-39473274D02*
X1659878Y-39663750D01*
X1659878Y-39663750D02*
X1707497Y-39758988D01*
X1707497Y-39758988D02*
X1802735Y-39854226D01*
X1802735Y-39854226D02*
X1993211Y-39901845D01*
X1993211Y-39901845D02*
X2326544Y-39901845D01*
X2326544Y-39901845D02*
X2517020Y-39854226D01*
X2517020Y-39854226D02*
X2612259Y-39758988D01*
X2612259Y-39758988D02*
X2659878Y-39663750D01*
X2659878Y-39663750D02*
X2659878Y-39473274D01*
X2659878Y-39473274D02*
X2612259Y-39378036D01*
X2612259Y-39378036D02*
X2517020Y-39282798D01*
X2517020Y-39282798D02*
X2326544Y-39235179D01*
X2326544Y-39235179D02*
X1993211Y-39235179D01*
X1993211Y-39235179D02*
X1802735Y-39282798D01*
X1802735Y-39282798D02*
X1707497Y-39378036D01*
X1707497Y-39378036D02*
X1659878Y-39473274D01*
X1707497Y-41616131D02*
X1659878Y-41520893D01*
X1659878Y-41520893D02*
X1659878Y-41378036D01*
X1659878Y-41378036D02*
X1707497Y-41235179D01*
X1707497Y-41235179D02*
X1802735Y-41139941D01*
X1802735Y-41139941D02*
X1897973Y-41092322D01*
X1897973Y-41092322D02*
X2088449Y-41044703D01*
X2088449Y-41044703D02*
X2231306Y-41044703D01*
X2231306Y-41044703D02*
X2421782Y-41092322D01*
X2421782Y-41092322D02*
X2517020Y-41139941D01*
X2517020Y-41139941D02*
X2612259Y-41235179D01*
X2612259Y-41235179D02*
X2659878Y-41378036D01*
X2659878Y-41378036D02*
X2659878Y-41473274D01*
X2659878Y-41473274D02*
X2612259Y-41616131D01*
X2612259Y-41616131D02*
X2564639Y-41663750D01*
X2564639Y-41663750D02*
X2231306Y-41663750D01*
X2231306Y-41663750D02*
X2231306Y-41473274D01*
X2659878Y-42092322D02*
X1659878Y-42092322D01*
X1659878Y-42092322D02*
X2659878Y-42663750D01*
X2659878Y-42663750D02*
X1659878Y-42663750D01*
X2659878Y-43139941D02*
X1659878Y-43139941D01*
X1659878Y-43139941D02*
X1659878Y-43378036D01*
X1659878Y-43378036D02*
X1707497Y-43520893D01*
X1707497Y-43520893D02*
X1802735Y-43616131D01*
X1802735Y-43616131D02*
X1897973Y-43663750D01*
X1897973Y-43663750D02*
X2088449Y-43711369D01*
X2088449Y-43711369D02*
X2231306Y-43711369D01*
X2231306Y-43711369D02*
X2421782Y-43663750D01*
X2421782Y-43663750D02*
X2517020Y-43616131D01*
X2517020Y-43616131D02*
X2612259Y-43520893D01*
X2612259Y-43520893D02*
X2659878Y-43378036D01*
X2659878Y-43378036D02*
X2659878Y-43139941D01*
X46995009Y-15164687D02*
X47033104Y-15240877D01*
X47033104Y-15240877D02*
X47033104Y-15355163D01*
X47033104Y-15355163D02*
X46995009Y-15469449D01*
X46995009Y-15469449D02*
X46918819Y-15545639D01*
X46918819Y-15545639D02*
X46842628Y-15583734D01*
X46842628Y-15583734D02*
X46690247Y-15621830D01*
X46690247Y-15621830D02*
X46575961Y-15621830D01*
X46575961Y-15621830D02*
X46423580Y-15583734D01*
X46423580Y-15583734D02*
X46347390Y-15545639D01*
X46347390Y-15545639D02*
X46271200Y-15469449D01*
X46271200Y-15469449D02*
X46233104Y-15355163D01*
X46233104Y-15355163D02*
X46233104Y-15278972D01*
X46233104Y-15278972D02*
X46271200Y-15164687D01*
X46271200Y-15164687D02*
X46309295Y-15126591D01*
X46309295Y-15126591D02*
X46575961Y-15126591D01*
X46575961Y-15126591D02*
X46575961Y-15278972D01*
X46233104Y-14783734D02*
X47033104Y-14783734D01*
X47033104Y-14783734D02*
X46233104Y-14326591D01*
X46233104Y-14326591D02*
X47033104Y-14326591D01*
X46233104Y-13945639D02*
X47033104Y-13945639D01*
X47033104Y-13945639D02*
X47033104Y-13755163D01*
X47033104Y-13755163D02*
X46995009Y-13640877D01*
X46995009Y-13640877D02*
X46918819Y-13564687D01*
X46918819Y-13564687D02*
X46842628Y-13526592D01*
X46842628Y-13526592D02*
X46690247Y-13488496D01*
X46690247Y-13488496D02*
X46575961Y-13488496D01*
X46575961Y-13488496D02*
X46423580Y-13526592D01*
X46423580Y-13526592D02*
X46347390Y-13564687D01*
X46347390Y-13564687D02*
X46271200Y-13640877D01*
X46271200Y-13640877D02*
X46233104Y-13755163D01*
X46233104Y-13755163D02*
X46233104Y-13945639D01*
%TO.C,SC1*%
D13*
X11062316Y-33399198D02*
X13118810Y-33399198D01*
X12090563Y-34427445D02*
X12090563Y-32370951D01*
%TO.C,R16*%
D14*
X2576300Y-47328858D02*
X2576300Y-46854342D01*
X3621300Y-47328858D02*
X3621300Y-46854342D01*
%TO.C,RN2*%
X27620000Y-33200000D02*
X27620000Y-32700000D01*
X29180000Y-33200000D02*
X29180000Y-32700000D01*
%TO.C,U8*%
D15*
X29120000Y-51800000D02*
G75*
G02*
X28880000Y-51800000I-120000J0D01*
G01*
X28880000Y-51800000D02*
G75*
G02*
X29120000Y-51800000I120000J0D01*
G01*
%TO.C,D4*%
D11*
X30700000Y-43100000D02*
X30700000Y-44700000D01*
%TO.C,U1*%
D15*
X6149600Y-41869000D02*
G75*
G02*
X5909600Y-41869000I-120000J0D01*
G01*
X5909600Y-41869000D02*
G75*
G02*
X6149600Y-41869000I120000J0D01*
G01*
%TO.C,C30*%
D14*
X33990000Y-38057836D02*
X33990000Y-37842164D01*
X34710000Y-38057836D02*
X34710000Y-37842164D01*
%TO.C,U7*%
D16*
X24959412Y-39304989D02*
G75*
G02*
X24759412Y-39304989I-100000J0D01*
G01*
X24759412Y-39304989D02*
G75*
G02*
X24959412Y-39304989I100000J0D01*
G01*
%TO.C,J1*%
D15*
X4920000Y-34660000D02*
G75*
G02*
X4680000Y-34660000I-120000J0D01*
G01*
X4680000Y-34660000D02*
G75*
G02*
X4920000Y-34660000I120000J0D01*
G01*
%TO.C,D5*%
D11*
X36700000Y-43100000D02*
X36700000Y-44700000D01*
%TO.C,C27*%
D14*
X34031252Y-48740000D02*
X32608748Y-48740000D01*
X34031252Y-50560000D02*
X32608748Y-50560000D01*
%TO.C,C25*%
X25360000Y-54961252D02*
X25360000Y-53538748D01*
X27180000Y-54961252D02*
X27180000Y-53538748D01*
%TO.C,U5*%
D15*
X34472000Y-33300000D02*
G75*
G02*
X34232000Y-33300000I-120000J0D01*
G01*
X34232000Y-33300000D02*
G75*
G02*
X34472000Y-33300000I120000J0D01*
G01*
%TO.C,C26*%
D14*
X34660000Y-52578748D02*
X34660000Y-54001252D01*
X36480000Y-52578748D02*
X36480000Y-54001252D01*
%TO.C,C9*%
X35200000Y-38090580D02*
X35200000Y-37809420D01*
X36220000Y-38090580D02*
X36220000Y-37809420D01*
%TO.C,C4*%
X25510580Y-16910000D02*
X25229420Y-16910000D01*
X25510580Y-17930000D02*
X25229420Y-17930000D01*
%TO.C,R6*%
X24747500Y-23827258D02*
X24747500Y-23352742D01*
X25792500Y-23827258D02*
X25792500Y-23352742D01*
%TO.C,SC3*%
X7665200Y-51900300D02*
X7665200Y-52900300D01*
X8165200Y-52400300D02*
X7165200Y-52400300D01*
%TO.C,FB1*%
X24382000Y-81371221D02*
X24382000Y-81696779D01*
X25402000Y-81371221D02*
X25402000Y-81696779D01*
%TO.C,RN1*%
X24850000Y-50350000D02*
X24850000Y-49850000D01*
X27210000Y-50350000D02*
X27210000Y-49850000D01*
%TO.C,D3*%
D11*
X24400000Y-43100000D02*
X24400000Y-44700000D01*
%TO.C,L2*%
D14*
X25950000Y-58428748D02*
X25950000Y-58951252D01*
X28170000Y-58428748D02*
X28170000Y-58951252D01*
%TO.C,D2*%
D11*
X18100000Y-43100000D02*
X18100000Y-44700000D01*
%TO.C,U3*%
D15*
X27069000Y-31575000D02*
G75*
G02*
X26829000Y-31575000I-120000J0D01*
G01*
X26829000Y-31575000D02*
G75*
G02*
X27069000Y-31575000I120000J0D01*
G01*
%TO.C,C22*%
D14*
X24331200Y-84403620D02*
X24331200Y-84684780D01*
X25351200Y-84403620D02*
X25351200Y-84684780D01*
%TO.C,C28*%
X32633385Y-38962571D02*
X32849057Y-38962571D01*
X32633385Y-39682571D02*
X32849057Y-39682571D01*
%TO.C,SC4*%
D17*
X37155600Y-66565103D02*
X37155600Y-68734897D01*
X38240497Y-67650000D02*
X36070703Y-67650000D01*
%TO.C,Q2*%
D14*
X25870000Y-64235000D02*
X25870000Y-62935000D01*
X27670000Y-64235000D02*
X27670000Y-62935000D01*
D11*
X26335000Y-62335000D02*
G75*
G02*
X26185000Y-62335000I-75000J0D01*
G01*
X26185000Y-62335000D02*
G75*
G02*
X26335000Y-62335000I75000J0D01*
G01*
%TO.C,SC2*%
D14*
X34534558Y-22805052D02*
X35534558Y-22805052D01*
X35034558Y-23305052D02*
X35034558Y-22305052D01*
%TO.C,C23*%
X25855200Y-81406420D02*
X25855200Y-81687580D01*
X26875200Y-81406420D02*
X26875200Y-81687580D01*
%TO.C,R5*%
X26327500Y-23342742D02*
X26327500Y-23817258D01*
X27372500Y-23342742D02*
X27372500Y-23817258D01*
%TO.C,R15*%
X5571258Y-47331100D02*
X5096742Y-47331100D01*
X5571258Y-48376100D02*
X5096742Y-48376100D01*
%TO.C,TC1/b1*%
D18*
X12382500Y-14980000D02*
G75*
G02*
X12217500Y-14980000I-82500J0D01*
G01*
X12217500Y-14980000D02*
G75*
G02*
X12382500Y-14980000I82500J0D01*
G01*
%TO.C,U9*%
D14*
X25594600Y-84461800D02*
X25594600Y-83461800D01*
X27074600Y-84461800D02*
X27074600Y-83461800D01*
D19*
X26854778Y-84961800D02*
G75*
G02*
X26714422Y-84961800I-70178J0D01*
G01*
X26714422Y-84961800D02*
G75*
G02*
X26854778Y-84961800I70178J0D01*
G01*
%TD*%
M02*
