%TF.GenerationSoftware,KiCad,Pcbnew,10.0.4-10.0.4~ubuntu25.10.1*%
%TF.CreationDate,Date%
%TF.ProjectId,solar-glow-drh-v4_0,736f6c61-722d-4676-9c6f-772d6472682d,rev?*%
%TF.SameCoordinates,Original*%
%TF.FileFunction,Legend,Bot*%
%TF.FilePolarity,Positive*%
%FSLAX46Y46*%
G04 Gerber Fmt 4.6, Leading zero omitted, Abs format (unit mm)*
G04 Created by KiCad*
%MOMM*%
%LPD*%
G01*
G04 APERTURE LIST*
%ADD10C,0.120000*%
G04 APERTURE END LIST*
%TO.C,SC1*%
D10*
X9500000Y-250000D02*
X9500000Y-1250000D01*
X10000000Y-750000D02*
X9000000Y-750000D01*
%TO.C,U6*%
X3001214Y-5754658D02*
X3001214Y-5804658D01*
X3001214Y-8824658D02*
X3001214Y-8874658D01*
X3001214Y-8874658D02*
X4821214Y-8874658D01*
X4821214Y-5754658D02*
X3001214Y-5754658D01*
X4821214Y-5804658D02*
X4821214Y-5754658D01*
X4821214Y-8874658D02*
X4821214Y-8824658D01*
X2461214Y-8824658D02*
X2221214Y-9154658D01*
X2701214Y-9154658D01*
X2461214Y-8824658D01*
G36*
X2701214Y-9154658D02*
G01*
X2221214Y-9154658D01*
X2461214Y-8824658D01*
X2701214Y-9154658D01*
G37*
%TO.C,SC3*%
X21146400Y-87980300D02*
X22146400Y-87980300D01*
X21646400Y-88480300D02*
X21646400Y-87480300D01*
%TO.C,U9*%
X2440000Y-54490000D02*
X2440000Y-56310000D01*
X2440000Y-56310000D02*
X2490000Y-56310000D01*
X2490000Y-54490000D02*
X2440000Y-54490000D01*
X5510000Y-56310000D02*
X5560000Y-56310000D01*
X5560000Y-54490000D02*
X5510000Y-54490000D01*
X5560000Y-56310000D02*
X5560000Y-54490000D01*
X2490000Y-53950000D02*
X2160000Y-53710000D01*
X2160000Y-54190000D01*
X2490000Y-53950000D01*
G36*
X2490000Y-53950000D02*
G01*
X2160000Y-54190000D01*
X2160000Y-53710000D01*
X2490000Y-53950000D01*
G37*
%TO.C,SC4*%
X29228651Y-55970151D02*
X29228651Y-56970151D01*
X29728651Y-56470151D02*
X28728651Y-56470151D01*
%TO.C,SC2*%
X40800000Y-32400000D02*
X41800000Y-32400000D01*
X41300000Y-32900000D02*
X41300000Y-31900000D01*
%TD*%
M02*
