%TF.GenerationSoftware,KiCad,Pcbnew,10.0.4-10.0.4~ubuntu25.10.1*%
%TF.CreationDate,Date%
%TF.ProjectId,solar-glow-drh-v3_0,736f6c61-722d-4676-9c6f-772d6472682d,rev?*%
%TF.SameCoordinates,Original*%
%TF.FileFunction,Soldermask,Top*%
%TF.FilePolarity,Negative*%
%FSLAX46Y46*%
G04 Gerber Fmt 4.6, Leading zero omitted, Abs format (unit mm)*
G04 Created by KiCad*
%MOMM*%
%LPD*%
G01*
G04 APERTURE LIST*
G04 Aperture macros list*
%AMRoundRect*
0 Rectangle with rounded corners*
0 $1 Rounding radius*
0 $2 $3 $4 $5 $6 $7 $8 $9 X,Y pos of 4 corners*
0 Add a 4 corners polygon primitive as box body*
4,1,4,$2,$3,$4,$5,$6,$7,$8,$9,$2,$3,0*
0 Add four circle primitives for the rounded corners*
1,1,$1+$1,$2,$3*
1,1,$1+$1,$4,$5*
1,1,$1+$1,$6,$7*
1,1,$1+$1,$8,$9*
0 Add four rect primitives between the rounded corners*
20,1,$1+$1,$2,$3,$4,$5,0*
20,1,$1+$1,$4,$5,$6,$7,0*
20,1,$1+$1,$6,$7,$8,$9,0*
20,1,$1+$1,$8,$9,$2,$3,0*%
G04 Aperture macros list end*
%ADD10C,0.000000*%
%ADD11C,0.700000*%
%ADD12C,3.600000*%
%ADD13C,3.500000*%
%ADD14RoundRect,0.750000X-1.250000X-0.750000X1.250000X-0.750000X1.250000X0.750000X-1.250000X0.750000X0*%
%ADD15C,2.374900*%
%ADD16C,0.990600*%
%ADD17C,0.890000*%
G04 APERTURE END LIST*
D10*
G36*
X17559100Y-42004000D02*
G01*
X14950000Y-42004000D01*
X14950000Y-41896000D01*
X17559100Y-41896000D01*
X17559100Y-42004000D01*
G37*
G36*
X17559100Y-42104000D02*
G01*
X14950000Y-42104000D01*
X14950000Y-41996000D01*
X17559100Y-41996000D01*
X17559100Y-42104000D01*
G37*
G36*
X17559100Y-42204000D02*
G01*
X14950000Y-42204000D01*
X14950000Y-42096000D01*
X17559100Y-42096000D01*
X17559100Y-42204000D01*
G37*
G36*
X17559100Y-42304000D02*
G01*
X14950000Y-42304000D01*
X14950000Y-42196000D01*
X17559100Y-42196000D01*
X17559100Y-42304000D01*
G37*
G36*
X17559100Y-42404000D02*
G01*
X14950000Y-42404000D01*
X14950000Y-42296000D01*
X17559100Y-42296000D01*
X17559100Y-42404000D01*
G37*
G36*
X17559100Y-42504000D02*
G01*
X14950000Y-42504000D01*
X14950000Y-42396000D01*
X17559100Y-42396000D01*
X17559100Y-42504000D01*
G37*
G36*
X17559100Y-42604000D02*
G01*
X14950000Y-42604000D01*
X14950000Y-42496000D01*
X17559100Y-42496000D01*
X17559100Y-42604000D01*
G37*
G36*
X17559100Y-42704000D02*
G01*
X14950000Y-42704000D01*
X14950000Y-42596000D01*
X17559100Y-42596000D01*
X17559100Y-42704000D01*
G37*
G36*
X17559100Y-42804000D02*
G01*
X14950000Y-42804000D01*
X14950000Y-42696000D01*
X17559100Y-42696000D01*
X17559100Y-42804000D01*
G37*
G36*
X17559100Y-42904000D02*
G01*
X14950000Y-42904000D01*
X14950000Y-42796000D01*
X17559100Y-42796000D01*
X17559100Y-42904000D01*
G37*
G36*
X17559100Y-43004000D02*
G01*
X14950000Y-43004000D01*
X14950000Y-42896000D01*
X17559100Y-42896000D01*
X17559100Y-43004000D01*
G37*
G36*
X17559100Y-43104000D02*
G01*
X14950000Y-43104000D01*
X14950000Y-42996000D01*
X17559100Y-42996000D01*
X17559100Y-43104000D01*
G37*
G36*
X17559100Y-43204000D02*
G01*
X14950000Y-43204000D01*
X14950000Y-43096000D01*
X17559100Y-43096000D01*
X17559100Y-43204000D01*
G37*
G36*
X17559100Y-43304000D02*
G01*
X14950000Y-43304000D01*
X14950000Y-43196000D01*
X17559100Y-43196000D01*
X17559100Y-43304000D01*
G37*
G36*
X17559100Y-43404000D02*
G01*
X14950000Y-43404000D01*
X14950000Y-43296000D01*
X17559100Y-43296000D01*
X17559100Y-43404000D01*
G37*
G36*
X17559100Y-43504000D02*
G01*
X14950000Y-43504000D01*
X14950000Y-43396000D01*
X17559100Y-43396000D01*
X17559100Y-43504000D01*
G37*
G36*
X17559100Y-43604000D02*
G01*
X14950000Y-43604000D01*
X14950000Y-43496000D01*
X17559100Y-43496000D01*
X17559100Y-43604000D01*
G37*
G36*
X17559100Y-43704000D02*
G01*
X14950000Y-43704000D01*
X14950000Y-43596000D01*
X17559100Y-43596000D01*
X17559100Y-43704000D01*
G37*
G36*
X17559100Y-43804000D02*
G01*
X14950000Y-43804000D01*
X14950000Y-43696000D01*
X17559100Y-43696000D01*
X17559100Y-43804000D01*
G37*
G36*
X17559100Y-43904000D02*
G01*
X14950000Y-43904000D01*
X14950000Y-43796000D01*
X17559100Y-43796000D01*
X17559100Y-43904000D01*
G37*
G36*
X17559100Y-44004000D02*
G01*
X14950000Y-44004000D01*
X14950000Y-43896000D01*
X17559100Y-43896000D01*
X17559100Y-44004000D01*
G37*
G36*
X17559100Y-44104000D02*
G01*
X14950000Y-44104000D01*
X14950000Y-43996000D01*
X17559100Y-43996000D01*
X17559100Y-44104000D01*
G37*
G36*
X17559100Y-44204000D02*
G01*
X14950000Y-44204000D01*
X14950000Y-44096000D01*
X17559100Y-44096000D01*
X17559100Y-44204000D01*
G37*
G36*
X17559100Y-44304000D02*
G01*
X14950000Y-44304000D01*
X14950000Y-44196000D01*
X17559100Y-44196000D01*
X17559100Y-44304000D01*
G37*
G36*
X17559100Y-44404000D02*
G01*
X14950000Y-44404000D01*
X14950000Y-44296000D01*
X17559100Y-44296000D01*
X17559100Y-44404000D01*
G37*
G36*
X17559100Y-44504000D02*
G01*
X14950000Y-44504000D01*
X14950000Y-44396000D01*
X17559100Y-44396000D01*
X17559100Y-44504000D01*
G37*
G36*
X17559100Y-44604000D02*
G01*
X14950000Y-44604000D01*
X14950000Y-44496000D01*
X17559100Y-44496000D01*
X17559100Y-44604000D01*
G37*
G36*
X17559100Y-44704000D02*
G01*
X14950000Y-44704000D01*
X14950000Y-44596000D01*
X17559100Y-44596000D01*
X17559100Y-44704000D01*
G37*
G36*
X17559100Y-44804000D02*
G01*
X14950000Y-44804000D01*
X14950000Y-44696000D01*
X17559100Y-44696000D01*
X17559100Y-44804000D01*
G37*
G36*
X17559100Y-44904000D02*
G01*
X14950000Y-44904000D01*
X14950000Y-44796000D01*
X17559100Y-44796000D01*
X17559100Y-44904000D01*
G37*
G36*
X17559100Y-45004000D02*
G01*
X14950000Y-45004000D01*
X14950000Y-44896000D01*
X17559100Y-44896000D01*
X17559100Y-45004000D01*
G37*
G36*
X17559100Y-45104000D02*
G01*
X14950000Y-45104000D01*
X14950000Y-44996000D01*
X17559100Y-44996000D01*
X17559100Y-45104000D01*
G37*
G36*
X17559100Y-45204000D02*
G01*
X14950000Y-45204000D01*
X14950000Y-45096000D01*
X17559100Y-45096000D01*
X17559100Y-45204000D01*
G37*
G36*
X17559100Y-45304000D02*
G01*
X14950000Y-45304000D01*
X14950000Y-45196000D01*
X17559100Y-45196000D01*
X17559100Y-45304000D01*
G37*
G36*
X17559100Y-45404000D02*
G01*
X14950000Y-45404000D01*
X14950000Y-45296000D01*
X17559100Y-45296000D01*
X17559100Y-45404000D01*
G37*
G36*
X17559100Y-45504000D02*
G01*
X14950000Y-45504000D01*
X14950000Y-45396000D01*
X17559100Y-45396000D01*
X17559100Y-45504000D01*
G37*
G36*
X17559100Y-45604000D02*
G01*
X14950000Y-45604000D01*
X14950000Y-45496000D01*
X17559100Y-45496000D01*
X17559100Y-45604000D01*
G37*
G36*
X17559100Y-45704000D02*
G01*
X14950000Y-45704000D01*
X14950000Y-45596000D01*
X17559100Y-45596000D01*
X17559100Y-45704000D01*
G37*
G36*
X17559100Y-45804000D02*
G01*
X14950000Y-45804000D01*
X14950000Y-45696000D01*
X17559100Y-45696000D01*
X17559100Y-45804000D01*
G37*
G36*
X17559100Y-45904000D02*
G01*
X14950000Y-45904000D01*
X14950000Y-45796000D01*
X17559100Y-45796000D01*
X17559100Y-45904000D01*
G37*
G36*
X19202700Y-46200000D02*
G01*
X17709100Y-46200000D01*
X17709100Y-46196000D01*
X19282400Y-46196000D01*
X19202700Y-46200000D01*
G37*
G36*
X18654300Y-42604000D02*
G01*
X17709100Y-42604000D01*
X17709100Y-42496000D01*
X18654300Y-42496000D01*
X18654300Y-42604000D01*
G37*
G36*
X18654300Y-42704000D02*
G01*
X17709100Y-42704000D01*
X17709100Y-42596000D01*
X18654300Y-42596000D01*
X18654300Y-42704000D01*
G37*
G36*
X18654300Y-42804000D02*
G01*
X17709100Y-42804000D01*
X17709100Y-42696000D01*
X18654300Y-42696000D01*
X18654300Y-42804000D01*
G37*
G36*
X18654300Y-42904000D02*
G01*
X17709100Y-42904000D01*
X17709100Y-42796000D01*
X18654300Y-42796000D01*
X18654300Y-42904000D01*
G37*
G36*
X18654300Y-43004000D02*
G01*
X17709100Y-43004000D01*
X17709100Y-42896000D01*
X18654300Y-42896000D01*
X18654300Y-43004000D01*
G37*
G36*
X18654300Y-43104000D02*
G01*
X17709100Y-43104000D01*
X17709100Y-42996000D01*
X18654300Y-42996000D01*
X18654300Y-43104000D01*
G37*
G36*
X18654300Y-43204000D02*
G01*
X17709100Y-43204000D01*
X17709100Y-43096000D01*
X18654300Y-43096000D01*
X18654300Y-43204000D01*
G37*
G36*
X18654300Y-43304000D02*
G01*
X17709100Y-43304000D01*
X17709100Y-43196000D01*
X18654300Y-43196000D01*
X18654300Y-43304000D01*
G37*
G36*
X18654300Y-43404000D02*
G01*
X17709100Y-43404000D01*
X17709100Y-43296000D01*
X18654300Y-43296000D01*
X18654300Y-43404000D01*
G37*
G36*
X18654300Y-43504000D02*
G01*
X17709100Y-43504000D01*
X17709100Y-43396000D01*
X18654300Y-43396000D01*
X18654300Y-43504000D01*
G37*
G36*
X18654300Y-43604000D02*
G01*
X17709100Y-43604000D01*
X17709100Y-43496000D01*
X18654300Y-43496000D01*
X18654300Y-43604000D01*
G37*
G36*
X18654300Y-43704000D02*
G01*
X17709100Y-43704000D01*
X17709100Y-43596000D01*
X18654300Y-43596000D01*
X18654300Y-43704000D01*
G37*
G36*
X18654300Y-43804000D02*
G01*
X17709100Y-43804000D01*
X17709100Y-43696000D01*
X18654300Y-43696000D01*
X18654300Y-43804000D01*
G37*
G36*
X18654300Y-43904000D02*
G01*
X17709100Y-43904000D01*
X17709100Y-43796000D01*
X18654300Y-43796000D01*
X18654300Y-43904000D01*
G37*
G36*
X18654300Y-44004000D02*
G01*
X17709100Y-44004000D01*
X17709100Y-43896000D01*
X18654300Y-43896000D01*
X18654300Y-44004000D01*
G37*
G36*
X18654300Y-44104000D02*
G01*
X17709100Y-44104000D01*
X17709100Y-43996000D01*
X18654300Y-43996000D01*
X18654300Y-44104000D01*
G37*
G36*
X18654300Y-44204000D02*
G01*
X17709100Y-44204000D01*
X17709100Y-44096000D01*
X18654300Y-44096000D01*
X18654300Y-44204000D01*
G37*
G36*
X18654300Y-44304000D02*
G01*
X17709100Y-44304000D01*
X17709100Y-44196000D01*
X18654300Y-44196000D01*
X18654300Y-44304000D01*
G37*
G36*
X18654300Y-44404000D02*
G01*
X17709100Y-44404000D01*
X17709100Y-44296000D01*
X18654300Y-44296000D01*
X18654300Y-44404000D01*
G37*
G36*
X18654300Y-44504000D02*
G01*
X17709100Y-44504000D01*
X17709100Y-44396000D01*
X18654300Y-44396000D01*
X18654300Y-44504000D01*
G37*
G36*
X18654300Y-44604000D02*
G01*
X17709100Y-44604000D01*
X17709100Y-44496000D01*
X18654300Y-44496000D01*
X18654300Y-44604000D01*
G37*
G36*
X18654300Y-44704000D02*
G01*
X17709100Y-44704000D01*
X17709100Y-44596000D01*
X18654300Y-44596000D01*
X18654300Y-44704000D01*
G37*
G36*
X18654300Y-44804000D02*
G01*
X17709100Y-44804000D01*
X17709100Y-44696000D01*
X18654300Y-44696000D01*
X18654300Y-44804000D01*
G37*
G36*
X18654300Y-44904000D02*
G01*
X17709100Y-44904000D01*
X17709100Y-44796000D01*
X18654300Y-44796000D01*
X18654300Y-44904000D01*
G37*
G36*
X18654300Y-45004000D02*
G01*
X17709100Y-45004000D01*
X17709100Y-44896000D01*
X18654300Y-44896000D01*
X18654300Y-45004000D01*
G37*
G36*
X18654300Y-45104000D02*
G01*
X17709100Y-45104000D01*
X17709100Y-44996000D01*
X18654300Y-44996000D01*
X18654300Y-45104000D01*
G37*
G36*
X18654300Y-45204000D02*
G01*
X17709100Y-45204000D01*
X17709100Y-45096000D01*
X18654300Y-45096000D01*
X18654300Y-45204000D01*
G37*
G36*
X18654300Y-45304000D02*
G01*
X17709100Y-45304000D01*
X17709100Y-45196000D01*
X18654300Y-45196000D01*
X18654300Y-45304000D01*
G37*
G36*
X19196600Y-45199300D02*
G01*
X18804300Y-45199300D01*
X18804300Y-45196000D01*
X19237300Y-45196000D01*
X19196600Y-45199300D01*
G37*
G36*
X19238100Y-42604000D02*
G01*
X18804300Y-42604000D01*
X18804300Y-42600700D01*
X19196700Y-42600700D01*
X19238100Y-42604000D01*
G37*
G36*
X19283700Y-41604000D02*
G01*
X17709100Y-41604000D01*
X17709100Y-41600000D01*
X19202700Y-41600000D01*
X19283700Y-41604000D01*
G37*
G36*
X19657500Y-42904000D02*
G01*
X18804300Y-42904000D01*
X18804300Y-42796000D01*
X19614300Y-42796000D01*
X19657500Y-42904000D01*
G37*
G36*
X19695700Y-43204000D02*
G01*
X18804300Y-43204000D01*
X18804300Y-43096000D01*
X19695700Y-43096000D01*
X19695700Y-43204000D01*
G37*
G36*
X19695700Y-43304000D02*
G01*
X18804300Y-43304000D01*
X18804300Y-43196000D01*
X19695700Y-43196000D01*
X19695700Y-43304000D01*
G37*
G36*
X19695700Y-43404000D02*
G01*
X18804300Y-43404000D01*
X18804300Y-43296000D01*
X19695700Y-43296000D01*
X19695700Y-43404000D01*
G37*
G36*
X19695700Y-43504000D02*
G01*
X18804300Y-43504000D01*
X18804300Y-43396000D01*
X19695700Y-43396000D01*
X19695700Y-43504000D01*
G37*
G36*
X19695700Y-43604000D02*
G01*
X18804300Y-43604000D01*
X18804300Y-43496000D01*
X19695700Y-43496000D01*
X19695700Y-43604000D01*
G37*
G36*
X19695700Y-43704000D02*
G01*
X18804300Y-43704000D01*
X18804300Y-43596000D01*
X19695700Y-43596000D01*
X19695700Y-43704000D01*
G37*
G36*
X19695700Y-43804000D02*
G01*
X18804300Y-43804000D01*
X18804300Y-43696000D01*
X19695700Y-43696000D01*
X19695700Y-43804000D01*
G37*
G36*
X19695700Y-43904000D02*
G01*
X18804300Y-43904000D01*
X18804300Y-43796000D01*
X19695700Y-43796000D01*
X19695700Y-43904000D01*
G37*
G36*
X19695700Y-44004000D02*
G01*
X18804300Y-44004000D01*
X18804300Y-43896000D01*
X19695700Y-43896000D01*
X19695700Y-44004000D01*
G37*
G36*
X19695700Y-44104000D02*
G01*
X18804300Y-44104000D01*
X18804300Y-43996000D01*
X19695700Y-43996000D01*
X19695700Y-44104000D01*
G37*
G36*
X19695700Y-44204000D02*
G01*
X18804300Y-44204000D01*
X18804300Y-44096000D01*
X19695700Y-44096000D01*
X19695700Y-44204000D01*
G37*
G36*
X19695700Y-44304000D02*
G01*
X18804300Y-44304000D01*
X18804300Y-44196000D01*
X19695700Y-44196000D01*
X19695700Y-44304000D01*
G37*
G36*
X19695700Y-44404000D02*
G01*
X18804300Y-44404000D01*
X18804300Y-44296000D01*
X19695700Y-44296000D01*
X19695700Y-44404000D01*
G37*
G36*
X19695700Y-44504000D02*
G01*
X18804300Y-44504000D01*
X18804300Y-44396000D01*
X19695700Y-44396000D01*
X19695700Y-44504000D01*
G37*
G36*
X19695700Y-44604000D02*
G01*
X18804300Y-44604000D01*
X18804300Y-44496000D01*
X19695700Y-44496000D01*
X19695700Y-44604000D01*
G37*
G36*
X19695700Y-44704000D02*
G01*
X18804300Y-44704000D01*
X18804300Y-44596000D01*
X19695700Y-44596000D01*
X19695700Y-44704000D01*
G37*
G36*
X20214100Y-45904000D02*
G01*
X17709100Y-45904000D01*
X17709100Y-45796000D01*
X20329300Y-45796000D01*
X20214100Y-45904000D01*
G37*
G36*
X20320700Y-45804000D02*
G01*
X17709100Y-45804000D01*
X17709100Y-45696000D01*
X20435900Y-45696000D01*
X20320700Y-45804000D01*
G37*
G36*
X20336200Y-42004000D02*
G01*
X17709100Y-42004000D01*
X17709100Y-41896000D01*
X20219500Y-41896000D01*
X20336200Y-42004000D01*
G37*
G36*
X20444200Y-42104000D02*
G01*
X17709100Y-42104000D01*
X17709100Y-41996000D01*
X20327500Y-41996000D01*
X20444200Y-42104000D01*
G37*
G36*
X20516100Y-45604000D02*
G01*
X17709100Y-45604000D01*
X17709100Y-45496000D01*
X20590600Y-45496000D01*
X20516100Y-45604000D01*
G37*
G36*
X20790900Y-43204000D02*
G01*
X19845700Y-43204000D01*
X19845700Y-43096000D01*
X20790900Y-43096000D01*
X20790900Y-43204000D01*
G37*
G36*
X20790900Y-43304000D02*
G01*
X19845700Y-43304000D01*
X19845700Y-43196000D01*
X20790900Y-43196000D01*
X20790900Y-43304000D01*
G37*
G36*
X20790900Y-43404000D02*
G01*
X19845700Y-43404000D01*
X19845700Y-43296000D01*
X20790900Y-43296000D01*
X20790900Y-43404000D01*
G37*
G36*
X20790900Y-43504000D02*
G01*
X19845700Y-43504000D01*
X19845700Y-43396000D01*
X20790900Y-43396000D01*
X20790900Y-43504000D01*
G37*
G36*
X20790900Y-43604000D02*
G01*
X19845700Y-43604000D01*
X19845700Y-43496000D01*
X20790900Y-43496000D01*
X20790900Y-43604000D01*
G37*
G36*
X20790900Y-43704000D02*
G01*
X19845700Y-43704000D01*
X19845700Y-43596000D01*
X20790900Y-43596000D01*
X20790900Y-43704000D01*
G37*
G36*
X20790900Y-43804000D02*
G01*
X19845700Y-43804000D01*
X19845700Y-43696000D01*
X20790900Y-43696000D01*
X20790900Y-43804000D01*
G37*
G36*
X20790900Y-43904000D02*
G01*
X19845700Y-43904000D01*
X19845700Y-43796000D01*
X20790900Y-43796000D01*
X20790900Y-43904000D01*
G37*
G36*
X20790900Y-44004000D02*
G01*
X19845700Y-44004000D01*
X19845700Y-43896000D01*
X20790900Y-43896000D01*
X20790900Y-44004000D01*
G37*
G36*
X20790900Y-44104000D02*
G01*
X19845700Y-44104000D01*
X19845700Y-43996000D01*
X20790900Y-43996000D01*
X20790900Y-44104000D01*
G37*
G36*
X20790900Y-44204000D02*
G01*
X19845700Y-44204000D01*
X19845700Y-44096000D01*
X20790900Y-44096000D01*
X20790900Y-44204000D01*
G37*
G36*
X20790900Y-44304000D02*
G01*
X19845700Y-44304000D01*
X19845700Y-44196000D01*
X20790900Y-44196000D01*
X20790900Y-44304000D01*
G37*
G36*
X20790900Y-44404000D02*
G01*
X19845700Y-44404000D01*
X19845700Y-44296000D01*
X20790900Y-44296000D01*
X20790900Y-44404000D01*
G37*
G36*
X20790900Y-44504000D02*
G01*
X19845700Y-44504000D01*
X19845700Y-44396000D01*
X20790900Y-44396000D01*
X20790900Y-44504000D01*
G37*
G36*
X20790900Y-44604000D02*
G01*
X19845700Y-44604000D01*
X19845700Y-44496000D01*
X20790900Y-44496000D01*
X20790900Y-44604000D01*
G37*
G36*
X20790900Y-44704000D02*
G01*
X19845700Y-44704000D01*
X19845700Y-44596000D01*
X20790900Y-44596000D01*
X20790900Y-44704000D01*
G37*
G36*
X23827600Y-41904000D02*
G01*
X20449000Y-41904000D01*
X20332300Y-41796000D01*
X23827600Y-41796000D01*
X23827600Y-41904000D01*
G37*
G36*
X23827600Y-42004000D02*
G01*
X20557000Y-42004000D01*
X20440300Y-41896000D01*
X23827600Y-41896000D01*
X23827600Y-42004000D01*
G37*
G36*
X23827600Y-42204000D02*
G01*
X20710600Y-42204000D01*
X20635300Y-42096000D01*
X23827600Y-42096000D01*
X23827600Y-42204000D01*
G37*
G36*
X23827600Y-42604000D02*
G01*
X20868300Y-42604000D01*
X20840800Y-42496000D01*
X23827600Y-42496000D01*
X23827600Y-42604000D01*
G37*
G36*
X23827600Y-42704000D02*
G01*
X20893900Y-42704000D01*
X20866300Y-42596000D01*
X23827600Y-42596000D01*
X23827600Y-42704000D01*
G37*
G36*
X23827600Y-42804000D02*
G01*
X20919400Y-42804000D01*
X20891800Y-42696000D01*
X23827600Y-42696000D01*
X23827600Y-42804000D01*
G37*
G36*
X23827600Y-43004000D02*
G01*
X20937100Y-43004000D01*
X20930900Y-42896000D01*
X23827600Y-42896000D01*
X23827600Y-43004000D01*
G37*
G36*
X23827600Y-43204000D02*
G01*
X20940900Y-43204000D01*
X20940900Y-43096000D01*
X23827600Y-43096000D01*
X23827600Y-43204000D01*
G37*
G36*
X23827600Y-43304000D02*
G01*
X20940900Y-43304000D01*
X20940900Y-43196000D01*
X23827600Y-43196000D01*
X23827600Y-43304000D01*
G37*
G36*
X23827600Y-43404000D02*
G01*
X20940900Y-43404000D01*
X20940900Y-43296000D01*
X23827600Y-43296000D01*
X23827600Y-43404000D01*
G37*
G36*
X23827600Y-43504000D02*
G01*
X20940900Y-43504000D01*
X20940900Y-43396000D01*
X23827600Y-43396000D01*
X23827600Y-43504000D01*
G37*
G36*
X23827600Y-43604000D02*
G01*
X20940900Y-43604000D01*
X20940900Y-43496000D01*
X23827600Y-43496000D01*
X23827600Y-43604000D01*
G37*
G36*
X23827600Y-43704000D02*
G01*
X20940900Y-43704000D01*
X20940900Y-43596000D01*
X23827600Y-43596000D01*
X23827600Y-43704000D01*
G37*
G36*
X23827600Y-43804000D02*
G01*
X20940900Y-43804000D01*
X20940900Y-43696000D01*
X23827600Y-43696000D01*
X23827600Y-43804000D01*
G37*
G36*
X23827600Y-43904000D02*
G01*
X20940900Y-43904000D01*
X20940900Y-43796000D01*
X23827600Y-43796000D01*
X23827600Y-43904000D01*
G37*
G36*
X23827600Y-44004000D02*
G01*
X20940900Y-44004000D01*
X20940900Y-43896000D01*
X23827600Y-43896000D01*
X23827600Y-44004000D01*
G37*
G36*
X23827600Y-44104000D02*
G01*
X20940900Y-44104000D01*
X20940900Y-43996000D01*
X23827600Y-43996000D01*
X23827600Y-44104000D01*
G37*
G36*
X23827600Y-44204000D02*
G01*
X20940900Y-44204000D01*
X20940900Y-44096000D01*
X23827600Y-44096000D01*
X23827600Y-44204000D01*
G37*
G36*
X23827600Y-44304000D02*
G01*
X20940900Y-44304000D01*
X20940900Y-44196000D01*
X23827600Y-44196000D01*
X23827600Y-44304000D01*
G37*
G36*
X23827600Y-44404000D02*
G01*
X20940900Y-44404000D01*
X20940900Y-44296000D01*
X23827600Y-44296000D01*
X23827600Y-44404000D01*
G37*
G36*
X23827600Y-44504000D02*
G01*
X20940900Y-44504000D01*
X20940900Y-44396000D01*
X23827600Y-44396000D01*
X23827600Y-44504000D01*
G37*
G36*
X23827600Y-44604000D02*
G01*
X20940900Y-44604000D01*
X20940900Y-44496000D01*
X23827600Y-44496000D01*
X23827600Y-44604000D01*
G37*
G36*
X23827600Y-44704000D02*
G01*
X20940900Y-44704000D01*
X20940900Y-44596000D01*
X23827600Y-44596000D01*
X23827600Y-44704000D01*
G37*
G36*
X23827600Y-44904000D02*
G01*
X20930400Y-44904000D01*
X20936700Y-44796000D01*
X23827600Y-44796000D01*
X23827600Y-44904000D01*
G37*
G36*
X23827600Y-45104000D02*
G01*
X20889400Y-45104000D01*
X20917100Y-44996000D01*
X23827600Y-44996000D01*
X23827600Y-45104000D01*
G37*
G36*
X23827600Y-45204000D02*
G01*
X20863800Y-45204000D01*
X20891500Y-45096000D01*
X23827600Y-45096000D01*
X23827600Y-45204000D01*
G37*
G36*
X23827600Y-45304000D02*
G01*
X20838100Y-45304000D01*
X20865800Y-45196000D01*
X23827600Y-45196000D01*
X23827600Y-45304000D01*
G37*
G36*
X23827600Y-45504000D02*
G01*
X20754800Y-45504000D01*
X20808900Y-45396000D01*
X23827600Y-45396000D01*
X23827600Y-45504000D01*
G37*
G36*
X23827600Y-45704000D02*
G01*
X20629300Y-45704000D01*
X20703900Y-45596000D01*
X23827600Y-45596000D01*
X23827600Y-45704000D01*
G37*
G36*
X23827600Y-45904000D02*
G01*
X20433400Y-45904000D01*
X20548600Y-45796000D01*
X23827600Y-45796000D01*
X23827600Y-45904000D01*
G37*
G36*
X23827600Y-46004000D02*
G01*
X20326800Y-46004000D01*
X20441900Y-45896000D01*
X23827600Y-45896000D01*
X23827600Y-46004000D01*
G37*
G36*
X24911000Y-46200000D02*
G01*
X23977600Y-46200000D01*
X23977600Y-46096000D01*
X24911000Y-46096000D01*
X24911000Y-46200000D01*
G37*
G36*
X24911000Y-46200000D02*
G01*
X23977600Y-46200000D01*
X23977600Y-46196000D01*
X24911000Y-46196000D01*
X24911000Y-46200000D01*
G37*
G36*
X24911000Y-42604000D02*
G01*
X23977600Y-42604000D01*
X23977600Y-42496000D01*
X24911000Y-42496000D01*
X24911000Y-42604000D01*
G37*
G36*
X24911000Y-42704000D02*
G01*
X23977600Y-42704000D01*
X23977600Y-42596000D01*
X24911000Y-42596000D01*
X24911000Y-42704000D01*
G37*
G36*
X24911000Y-42804000D02*
G01*
X23977600Y-42804000D01*
X23977600Y-42696000D01*
X24911000Y-42696000D01*
X24911000Y-42804000D01*
G37*
G36*
X24911000Y-42904000D02*
G01*
X23977600Y-42904000D01*
X23977600Y-42796000D01*
X24911000Y-42796000D01*
X24911000Y-42904000D01*
G37*
G36*
X24911000Y-43004000D02*
G01*
X23977600Y-43004000D01*
X23977600Y-42896000D01*
X24911000Y-42896000D01*
X24911000Y-43004000D01*
G37*
G36*
X24911000Y-43104000D02*
G01*
X23977600Y-43104000D01*
X23977600Y-42996000D01*
X24911000Y-42996000D01*
X24911000Y-43104000D01*
G37*
G36*
X24911000Y-43204000D02*
G01*
X23977600Y-43204000D01*
X23977600Y-43096000D01*
X24911000Y-43096000D01*
X24911000Y-43204000D01*
G37*
G36*
X24911000Y-43304000D02*
G01*
X23977600Y-43304000D01*
X23977600Y-43196000D01*
X24911000Y-43196000D01*
X24911000Y-43304000D01*
G37*
G36*
X24911000Y-43404000D02*
G01*
X23977600Y-43404000D01*
X23977600Y-43296000D01*
X24911000Y-43296000D01*
X24911000Y-43404000D01*
G37*
G36*
X24911000Y-43504000D02*
G01*
X23977600Y-43504000D01*
X23977600Y-43396000D01*
X24911000Y-43396000D01*
X24911000Y-43504000D01*
G37*
G36*
X24911000Y-43604000D02*
G01*
X23977600Y-43604000D01*
X23977600Y-43496000D01*
X24911000Y-43496000D01*
X24911000Y-43604000D01*
G37*
G36*
X24911000Y-44604000D02*
G01*
X23977600Y-44604000D01*
X23977600Y-44496000D01*
X24911000Y-44496000D01*
X24911000Y-44604000D01*
G37*
G36*
X24911000Y-44704000D02*
G01*
X23977600Y-44704000D01*
X23977600Y-44596000D01*
X24911000Y-44596000D01*
X24911000Y-44704000D01*
G37*
G36*
X24911000Y-44804000D02*
G01*
X23977600Y-44804000D01*
X23977600Y-44696000D01*
X24911000Y-44696000D01*
X24911000Y-44804000D01*
G37*
G36*
X24911000Y-44904000D02*
G01*
X23977600Y-44904000D01*
X23977600Y-44796000D01*
X24911000Y-44796000D01*
X24911000Y-44904000D01*
G37*
G36*
X24911000Y-45004000D02*
G01*
X23977600Y-45004000D01*
X23977600Y-44896000D01*
X24911000Y-44896000D01*
X24911000Y-45004000D01*
G37*
G36*
X24911000Y-45104000D02*
G01*
X23977600Y-45104000D01*
X23977600Y-44996000D01*
X24911000Y-44996000D01*
X24911000Y-45104000D01*
G37*
G36*
X24911000Y-45204000D02*
G01*
X23977600Y-45204000D01*
X23977600Y-45096000D01*
X24911000Y-45096000D01*
X24911000Y-45204000D01*
G37*
G36*
X24911000Y-45304000D02*
G01*
X23977600Y-45304000D01*
X23977600Y-45196000D01*
X24911000Y-45196000D01*
X24911000Y-45304000D01*
G37*
G36*
X24911000Y-45404000D02*
G01*
X23977600Y-45404000D01*
X23977600Y-45296000D01*
X24911000Y-45296000D01*
X24911000Y-45404000D01*
G37*
G36*
X24911000Y-45504000D02*
G01*
X23977600Y-45504000D01*
X23977600Y-45396000D01*
X24911000Y-45396000D01*
X24911000Y-45504000D01*
G37*
G36*
X24911000Y-45604000D02*
G01*
X23977600Y-45604000D01*
X23977600Y-45496000D01*
X24911000Y-45496000D01*
X24911000Y-45604000D01*
G37*
G36*
X24911000Y-45704000D02*
G01*
X23977600Y-45704000D01*
X23977600Y-45596000D01*
X24911000Y-45596000D01*
X24911000Y-45704000D01*
G37*
G36*
X24911000Y-45804000D02*
G01*
X23977600Y-45804000D01*
X23977600Y-45696000D01*
X24911000Y-45696000D01*
X24911000Y-45804000D01*
G37*
G36*
X24911000Y-45904000D02*
G01*
X23977600Y-45904000D01*
X23977600Y-45796000D01*
X24911000Y-45796000D01*
X24911000Y-45904000D01*
G37*
G36*
X24911000Y-46004000D02*
G01*
X23977600Y-46004000D01*
X23977600Y-45896000D01*
X24911000Y-45896000D01*
X24911000Y-46004000D01*
G37*
G36*
X24911000Y-46104000D02*
G01*
X23977600Y-46104000D01*
X23977600Y-45996000D01*
X24911000Y-45996000D01*
X24911000Y-46104000D01*
G37*
G36*
X25292800Y-44704000D02*
G01*
X25061000Y-44704000D01*
X25061000Y-44611200D01*
X25253100Y-44611200D01*
X25292800Y-44704000D01*
G37*
G36*
X25335500Y-44804000D02*
G01*
X25061000Y-44804000D01*
X25061000Y-44696000D01*
X25289300Y-44696000D01*
X25335500Y-44804000D01*
G37*
G36*
X25378300Y-44904000D02*
G01*
X25061000Y-44904000D01*
X25061000Y-44796000D01*
X25332100Y-44796000D01*
X25378300Y-44904000D01*
G37*
G36*
X25421000Y-45004000D02*
G01*
X25061000Y-45004000D01*
X25061000Y-44896000D01*
X25374800Y-44896000D01*
X25421000Y-45004000D01*
G37*
G36*
X25463800Y-45104000D02*
G01*
X25061000Y-45104000D01*
X25061000Y-44996000D01*
X25417600Y-44996000D01*
X25463800Y-45104000D01*
G37*
G36*
X25506500Y-45204000D02*
G01*
X25061000Y-45204000D01*
X25061000Y-45096000D01*
X25460300Y-45096000D01*
X25506500Y-45204000D01*
G37*
G36*
X25541700Y-41604000D02*
G01*
X23977600Y-41604000D01*
X23977600Y-41600000D01*
X25452500Y-41600000D01*
X25541700Y-41604000D01*
G37*
G36*
X25549300Y-45304000D02*
G01*
X25061000Y-45304000D01*
X25061000Y-45196000D01*
X25503100Y-45196000D01*
X25549300Y-45304000D01*
G37*
G36*
X25592000Y-45404000D02*
G01*
X25061000Y-45404000D01*
X25061000Y-45296000D01*
X25545900Y-45296000D01*
X25592000Y-45404000D01*
G37*
G36*
X25634800Y-45504000D02*
G01*
X25061000Y-45504000D01*
X25061000Y-45396000D01*
X25588600Y-45396000D01*
X25634800Y-45504000D01*
G37*
G36*
X25677500Y-45604000D02*
G01*
X25061000Y-45604000D01*
X25061000Y-45496000D01*
X25631400Y-45496000D01*
X25677500Y-45604000D01*
G37*
G36*
X25720300Y-45704000D02*
G01*
X25061000Y-45704000D01*
X25061000Y-45596000D01*
X25674100Y-45596000D01*
X25720300Y-45704000D01*
G37*
G36*
X25763000Y-45804000D02*
G01*
X25061000Y-45804000D01*
X25061000Y-45696000D01*
X25716900Y-45696000D01*
X25763000Y-45804000D01*
G37*
G36*
X25805800Y-45904000D02*
G01*
X25061000Y-45904000D01*
X25061000Y-45796000D01*
X25759600Y-45796000D01*
X25805800Y-45904000D01*
G37*
G36*
X25848500Y-46004000D02*
G01*
X25061000Y-46004000D01*
X25061000Y-45896000D01*
X25802400Y-45896000D01*
X25848500Y-46004000D01*
G37*
G36*
X25891300Y-46104000D02*
G01*
X25061000Y-46104000D01*
X25061000Y-45996000D01*
X25845100Y-45996000D01*
X25891300Y-46104000D01*
G37*
G36*
X25892400Y-43304000D02*
G01*
X25061000Y-43304000D01*
X25061000Y-43196000D01*
X25934800Y-43196000D01*
X25892400Y-43304000D01*
G37*
G36*
X25943200Y-42904000D02*
G01*
X25061000Y-42904000D01*
X25061000Y-42796000D01*
X25902500Y-42796000D01*
X25943200Y-42904000D01*
G37*
G36*
X27122400Y-46200000D02*
G01*
X26095500Y-46200000D01*
X26051000Y-46096000D01*
X27074600Y-46096000D01*
X27122400Y-46200000D01*
G37*
G36*
X27122400Y-46200000D02*
G01*
X26095500Y-46200000D01*
X26093800Y-46196000D01*
X27120500Y-46196000D01*
X27122400Y-46200000D01*
G37*
G36*
X26388400Y-44604000D02*
G01*
X25413100Y-44604000D01*
X25367000Y-44496000D01*
X26338700Y-44496000D01*
X26388400Y-44604000D01*
G37*
G36*
X26434400Y-44704000D02*
G01*
X25455900Y-44704000D01*
X25409700Y-44596000D01*
X26384700Y-44596000D01*
X26434400Y-44704000D01*
G37*
G36*
X26445900Y-44204000D02*
G01*
X23977600Y-44204000D01*
X23977600Y-44096000D01*
X26570600Y-44096000D01*
X26445900Y-44204000D01*
G37*
G36*
X26480400Y-44804000D02*
G01*
X25498600Y-44804000D01*
X25452500Y-44696000D01*
X26430700Y-44696000D01*
X26480400Y-44804000D01*
G37*
G36*
X26526400Y-44904000D02*
G01*
X25541400Y-44904000D01*
X25495200Y-44796000D01*
X26476700Y-44796000D01*
X26526400Y-44904000D01*
G37*
G36*
X26561300Y-44104000D02*
G01*
X23977600Y-44104000D01*
X23977600Y-43996000D01*
X26686000Y-43996000D01*
X26561300Y-44104000D01*
G37*
G36*
X26572400Y-45004000D02*
G01*
X25584100Y-45004000D01*
X25538000Y-44896000D01*
X26522700Y-44896000D01*
X26572400Y-45004000D01*
G37*
G36*
X26618300Y-45104000D02*
G01*
X25626900Y-45104000D01*
X25580700Y-44996000D01*
X26568700Y-44996000D01*
X26618300Y-45104000D01*
G37*
G36*
X26632900Y-42004000D02*
G01*
X23977600Y-42004000D01*
X23977600Y-41896000D01*
X26508900Y-41896000D01*
X26632900Y-42004000D01*
G37*
G36*
X26664300Y-45204000D02*
G01*
X25669700Y-45204000D01*
X25623500Y-45096000D01*
X26614700Y-45096000D01*
X26664300Y-45204000D01*
G37*
G36*
X26710300Y-45304000D02*
G01*
X25712400Y-45304000D01*
X25666200Y-45196000D01*
X26660700Y-45196000D01*
X26710300Y-45304000D01*
G37*
G36*
X26747700Y-42104000D02*
G01*
X23977600Y-42104000D01*
X23977600Y-41996000D01*
X26623700Y-41996000D01*
X26747700Y-42104000D01*
G37*
G36*
X26756300Y-45404000D02*
G01*
X25755200Y-45404000D01*
X25709000Y-45296000D01*
X26706600Y-45296000D01*
X26756300Y-45404000D01*
G37*
G36*
X26802300Y-45504000D02*
G01*
X25797900Y-45504000D01*
X25751700Y-45396000D01*
X26752600Y-45396000D01*
X26802300Y-45504000D01*
G37*
G36*
X26848300Y-45604000D02*
G01*
X25840700Y-45604000D01*
X25794500Y-45496000D01*
X26798600Y-45496000D01*
X26848300Y-45604000D01*
G37*
G36*
X26894300Y-45704000D02*
G01*
X25883400Y-45704000D01*
X25837200Y-45596000D01*
X26844600Y-45596000D01*
X26894300Y-45704000D01*
G37*
G36*
X26938900Y-42404000D02*
G01*
X23977600Y-42404000D01*
X23977600Y-42296000D01*
X26881800Y-42296000D01*
X26938900Y-42404000D01*
G37*
G36*
X26940300Y-45804000D02*
G01*
X25926200Y-45804000D01*
X25880000Y-45696000D01*
X26890600Y-45696000D01*
X26940300Y-45804000D01*
G37*
G36*
X26986300Y-45904000D02*
G01*
X25968900Y-45904000D01*
X25922700Y-45796000D01*
X26936600Y-45796000D01*
X26986300Y-45904000D01*
G37*
G36*
X27032200Y-46004000D02*
G01*
X26011700Y-46004000D01*
X25965500Y-45896000D01*
X26982600Y-45896000D01*
X27032200Y-46004000D01*
G37*
G36*
X27078200Y-46104000D02*
G01*
X26054400Y-46104000D01*
X26008200Y-45996000D01*
X27028600Y-45996000D01*
X27078200Y-46104000D01*
G37*
G36*
X30075100Y-41904000D02*
G01*
X26746500Y-41904000D01*
X26622500Y-41796000D01*
X30075100Y-41796000D01*
X30075100Y-41904000D01*
G37*
G36*
X30075100Y-42304000D02*
G01*
X27055700Y-42304000D01*
X26998600Y-42196000D01*
X30075100Y-42196000D01*
X30075100Y-42304000D01*
G37*
G36*
X30075100Y-42504000D02*
G01*
X27125200Y-42504000D01*
X27096300Y-42396000D01*
X30075100Y-42396000D01*
X30075100Y-42504000D01*
G37*
G36*
X30075100Y-42604000D02*
G01*
X27151900Y-42604000D01*
X27123000Y-42496000D01*
X30075100Y-42496000D01*
X30075100Y-42604000D01*
G37*
G36*
X30075100Y-42704000D02*
G01*
X27178700Y-42704000D01*
X27149800Y-42596000D01*
X30075100Y-42596000D01*
X30075100Y-42704000D01*
G37*
G36*
X30075100Y-42904000D02*
G01*
X27203900Y-42904000D01*
X27197500Y-42796000D01*
X30075100Y-42796000D01*
X30075100Y-42904000D01*
G37*
G36*
X30075100Y-43204000D02*
G01*
X27196900Y-43204000D01*
X27203600Y-43096000D01*
X30075100Y-43096000D01*
X30075100Y-43204000D01*
G37*
G36*
X30075100Y-43404000D02*
G01*
X27150300Y-43404000D01*
X27179700Y-43296000D01*
X30075100Y-43296000D01*
X30075100Y-43404000D01*
G37*
G36*
X30075100Y-43504000D02*
G01*
X27123100Y-43504000D01*
X27152500Y-43396000D01*
X30075100Y-43396000D01*
X30075100Y-43504000D01*
G37*
G36*
X30075100Y-43604000D02*
G01*
X27096000Y-43604000D01*
X27125300Y-43496000D01*
X30075100Y-43496000D01*
X30075100Y-43604000D01*
G37*
G36*
X30075100Y-43804000D02*
G01*
X27008600Y-43804000D01*
X27064900Y-43696000D01*
X30075100Y-43696000D01*
X30075100Y-43804000D01*
G37*
G36*
X30075100Y-44004000D02*
G01*
X26879200Y-44004000D01*
X26957200Y-43896000D01*
X30075100Y-43896000D01*
X30075100Y-44004000D01*
G37*
G36*
X30075100Y-44204000D02*
G01*
X26675000Y-44204000D01*
X26799700Y-44096000D01*
X30075100Y-44096000D01*
X30075100Y-44204000D01*
G37*
G36*
X30075100Y-44304000D02*
G01*
X26559500Y-44304000D01*
X26684200Y-44196000D01*
X30075100Y-44196000D01*
X30075100Y-44304000D01*
G37*
G36*
X30075100Y-44504000D02*
G01*
X26507500Y-44504000D01*
X26457800Y-44396000D01*
X30075100Y-44396000D01*
X30075100Y-44504000D01*
G37*
G36*
X30075100Y-44604000D02*
G01*
X26553500Y-44604000D01*
X26503800Y-44496000D01*
X30075100Y-44496000D01*
X30075100Y-44604000D01*
G37*
G36*
X30075100Y-44704000D02*
G01*
X26599500Y-44704000D01*
X26549800Y-44596000D01*
X30075100Y-44596000D01*
X30075100Y-44704000D01*
G37*
G36*
X30075100Y-44804000D02*
G01*
X26645500Y-44804000D01*
X26595800Y-44696000D01*
X30075100Y-44696000D01*
X30075100Y-44804000D01*
G37*
G36*
X30075100Y-44904000D02*
G01*
X26691500Y-44904000D01*
X26641800Y-44796000D01*
X30075100Y-44796000D01*
X30075100Y-44904000D01*
G37*
G36*
X30075100Y-45004000D02*
G01*
X26737500Y-45004000D01*
X26687800Y-44896000D01*
X30075100Y-44896000D01*
X30075100Y-45004000D01*
G37*
G36*
X30075100Y-45104000D02*
G01*
X26783400Y-45104000D01*
X26733800Y-44996000D01*
X30075100Y-44996000D01*
X30075100Y-45104000D01*
G37*
G36*
X30075100Y-45204000D02*
G01*
X26829400Y-45204000D01*
X26779800Y-45096000D01*
X30075100Y-45096000D01*
X30075100Y-45204000D01*
G37*
G36*
X30075100Y-45304000D02*
G01*
X26875400Y-45304000D01*
X26825800Y-45196000D01*
X30075100Y-45196000D01*
X30075100Y-45304000D01*
G37*
G36*
X30075100Y-45404000D02*
G01*
X26921400Y-45404000D01*
X26871700Y-45296000D01*
X30075100Y-45296000D01*
X30075100Y-45404000D01*
G37*
G36*
X30075100Y-45504000D02*
G01*
X26967400Y-45504000D01*
X26917700Y-45396000D01*
X30075100Y-45396000D01*
X30075100Y-45504000D01*
G37*
G36*
X30075100Y-45604000D02*
G01*
X27013400Y-45604000D01*
X26963700Y-45496000D01*
X30075100Y-45496000D01*
X30075100Y-45604000D01*
G37*
G36*
X30075100Y-45704000D02*
G01*
X27059400Y-45704000D01*
X27009700Y-45596000D01*
X30075100Y-45596000D01*
X30075100Y-45704000D01*
G37*
G36*
X30075100Y-45804000D02*
G01*
X27105400Y-45804000D01*
X27055700Y-45696000D01*
X30075100Y-45696000D01*
X30075100Y-45804000D01*
G37*
G36*
X30075100Y-45904000D02*
G01*
X27151400Y-45904000D01*
X27101700Y-45796000D01*
X30075100Y-45796000D01*
X30075100Y-45904000D01*
G37*
G36*
X30075100Y-46004000D02*
G01*
X27197400Y-46004000D01*
X27147700Y-45896000D01*
X30075100Y-45896000D01*
X30075100Y-46004000D01*
G37*
G36*
X30075100Y-46104000D02*
G01*
X27243300Y-46104000D01*
X27193700Y-45996000D01*
X30075100Y-45996000D01*
X30075100Y-46104000D01*
G37*
G36*
X31170300Y-46200000D02*
G01*
X30225100Y-46200000D01*
X30225100Y-46096000D01*
X31170300Y-46096000D01*
X31170300Y-46200000D01*
G37*
G36*
X31170300Y-46200000D02*
G01*
X30225100Y-46200000D01*
X30225100Y-46196000D01*
X31170300Y-46196000D01*
X31170300Y-46200000D01*
G37*
G36*
X31170300Y-41604000D02*
G01*
X30225100Y-41604000D01*
X30225100Y-41600000D01*
X31170300Y-41600000D01*
X31170300Y-41604000D01*
G37*
G36*
X31170300Y-41704000D02*
G01*
X30225100Y-41704000D01*
X30225100Y-41600000D01*
X31170300Y-41600000D01*
X31170300Y-41704000D01*
G37*
G36*
X31170300Y-41804000D02*
G01*
X30225100Y-41804000D01*
X30225100Y-41696000D01*
X31170300Y-41696000D01*
X31170300Y-41804000D01*
G37*
G36*
X31170300Y-41904000D02*
G01*
X30225100Y-41904000D01*
X30225100Y-41796000D01*
X31170300Y-41796000D01*
X31170300Y-41904000D01*
G37*
G36*
X31170300Y-42004000D02*
G01*
X30225100Y-42004000D01*
X30225100Y-41896000D01*
X31170300Y-41896000D01*
X31170300Y-42004000D01*
G37*
G36*
X31170300Y-42104000D02*
G01*
X30225100Y-42104000D01*
X30225100Y-41996000D01*
X31170300Y-41996000D01*
X31170300Y-42104000D01*
G37*
G36*
X31170300Y-42204000D02*
G01*
X30225100Y-42204000D01*
X30225100Y-42096000D01*
X31170300Y-42096000D01*
X31170300Y-42204000D01*
G37*
G36*
X31170300Y-42304000D02*
G01*
X30225100Y-42304000D01*
X30225100Y-42196000D01*
X31170300Y-42196000D01*
X31170300Y-42304000D01*
G37*
G36*
X31170300Y-42404000D02*
G01*
X30225100Y-42404000D01*
X30225100Y-42296000D01*
X31170300Y-42296000D01*
X31170300Y-42404000D01*
G37*
G36*
X31170300Y-42504000D02*
G01*
X30225100Y-42504000D01*
X30225100Y-42396000D01*
X31170300Y-42396000D01*
X31170300Y-42504000D01*
G37*
G36*
X31170300Y-42604000D02*
G01*
X30225100Y-42604000D01*
X30225100Y-42496000D01*
X31170300Y-42496000D01*
X31170300Y-42604000D01*
G37*
G36*
X31170300Y-42704000D02*
G01*
X30225100Y-42704000D01*
X30225100Y-42596000D01*
X31170300Y-42596000D01*
X31170300Y-42704000D01*
G37*
G36*
X31170300Y-42804000D02*
G01*
X30225100Y-42804000D01*
X30225100Y-42696000D01*
X31170300Y-42696000D01*
X31170300Y-42804000D01*
G37*
G36*
X31170300Y-42904000D02*
G01*
X30225100Y-42904000D01*
X30225100Y-42796000D01*
X31170300Y-42796000D01*
X31170300Y-42904000D01*
G37*
G36*
X31170300Y-43004000D02*
G01*
X30225100Y-43004000D01*
X30225100Y-42896000D01*
X31170300Y-42896000D01*
X31170300Y-43004000D01*
G37*
G36*
X31170300Y-43104000D02*
G01*
X30225100Y-43104000D01*
X30225100Y-42996000D01*
X31170300Y-42996000D01*
X31170300Y-43104000D01*
G37*
G36*
X31170300Y-43204000D02*
G01*
X30225100Y-43204000D01*
X30225100Y-43096000D01*
X31170300Y-43096000D01*
X31170300Y-43204000D01*
G37*
G36*
X31170300Y-43304000D02*
G01*
X30225100Y-43304000D01*
X30225100Y-43196000D01*
X31170300Y-43196000D01*
X31170300Y-43304000D01*
G37*
G36*
X31170300Y-44404000D02*
G01*
X30225100Y-44404000D01*
X30225100Y-44296000D01*
X31170300Y-44296000D01*
X31170300Y-44404000D01*
G37*
G36*
X31170300Y-44504000D02*
G01*
X30225100Y-44504000D01*
X30225100Y-44396000D01*
X31170300Y-44396000D01*
X31170300Y-44504000D01*
G37*
G36*
X31170300Y-44604000D02*
G01*
X30225100Y-44604000D01*
X30225100Y-44496000D01*
X31170300Y-44496000D01*
X31170300Y-44604000D01*
G37*
G36*
X31170300Y-44704000D02*
G01*
X30225100Y-44704000D01*
X30225100Y-44596000D01*
X31170300Y-44596000D01*
X31170300Y-44704000D01*
G37*
G36*
X31170300Y-44804000D02*
G01*
X30225100Y-44804000D01*
X30225100Y-44696000D01*
X31170300Y-44696000D01*
X31170300Y-44804000D01*
G37*
G36*
X31170300Y-44904000D02*
G01*
X30225100Y-44904000D01*
X30225100Y-44796000D01*
X31170300Y-44796000D01*
X31170300Y-44904000D01*
G37*
G36*
X31170300Y-45004000D02*
G01*
X30225100Y-45004000D01*
X30225100Y-44896000D01*
X31170300Y-44896000D01*
X31170300Y-45004000D01*
G37*
G36*
X31170300Y-45104000D02*
G01*
X30225100Y-45104000D01*
X30225100Y-44996000D01*
X31170300Y-44996000D01*
X31170300Y-45104000D01*
G37*
G36*
X31170300Y-45204000D02*
G01*
X30225100Y-45204000D01*
X30225100Y-45096000D01*
X31170300Y-45096000D01*
X31170300Y-45204000D01*
G37*
G36*
X31170300Y-45304000D02*
G01*
X30225100Y-45304000D01*
X30225100Y-45196000D01*
X31170300Y-45196000D01*
X31170300Y-45304000D01*
G37*
G36*
X31170300Y-45404000D02*
G01*
X30225100Y-45404000D01*
X30225100Y-45296000D01*
X31170300Y-45296000D01*
X31170300Y-45404000D01*
G37*
G36*
X31170300Y-45504000D02*
G01*
X30225100Y-45504000D01*
X30225100Y-45396000D01*
X31170300Y-45396000D01*
X31170300Y-45504000D01*
G37*
G36*
X31170300Y-45604000D02*
G01*
X30225100Y-45604000D01*
X30225100Y-45496000D01*
X31170300Y-45496000D01*
X31170300Y-45604000D01*
G37*
G36*
X31170300Y-45704000D02*
G01*
X30225100Y-45704000D01*
X30225100Y-45596000D01*
X31170300Y-45596000D01*
X31170300Y-45704000D01*
G37*
G36*
X31170300Y-45804000D02*
G01*
X30225100Y-45804000D01*
X30225100Y-45696000D01*
X31170300Y-45696000D01*
X31170300Y-45804000D01*
G37*
G36*
X31170300Y-45904000D02*
G01*
X30225100Y-45904000D01*
X30225100Y-45796000D01*
X31170300Y-45796000D01*
X31170300Y-45904000D01*
G37*
G36*
X31170300Y-46004000D02*
G01*
X30225100Y-46004000D01*
X30225100Y-45896000D01*
X31170300Y-45896000D01*
X31170300Y-46004000D01*
G37*
G36*
X31170300Y-46104000D02*
G01*
X30225100Y-46104000D01*
X30225100Y-45996000D01*
X31170300Y-45996000D01*
X31170300Y-46104000D01*
G37*
G36*
X32079700Y-43240000D02*
G01*
X31320300Y-43240000D01*
X31320300Y-43196000D01*
X32079700Y-43196000D01*
X32079700Y-43240000D01*
G37*
G36*
X32079700Y-41804000D02*
G01*
X31320300Y-41804000D01*
X31320300Y-41696000D01*
X32079700Y-41696000D01*
X32079700Y-41804000D01*
G37*
G36*
X32079700Y-41904000D02*
G01*
X31320300Y-41904000D01*
X31320300Y-41796000D01*
X32079700Y-41796000D01*
X32079700Y-41904000D01*
G37*
G36*
X32079700Y-42004000D02*
G01*
X31320300Y-42004000D01*
X31320300Y-41896000D01*
X32079700Y-41896000D01*
X32079700Y-42004000D01*
G37*
G36*
X32079700Y-42104000D02*
G01*
X31320300Y-42104000D01*
X31320300Y-41996000D01*
X32079700Y-41996000D01*
X32079700Y-42104000D01*
G37*
G36*
X32079700Y-42204000D02*
G01*
X31320300Y-42204000D01*
X31320300Y-42096000D01*
X32079700Y-42096000D01*
X32079700Y-42204000D01*
G37*
G36*
X32079700Y-42304000D02*
G01*
X31320300Y-42304000D01*
X31320300Y-42196000D01*
X32079700Y-42196000D01*
X32079700Y-42304000D01*
G37*
G36*
X32079700Y-42404000D02*
G01*
X31320300Y-42404000D01*
X31320300Y-42296000D01*
X32079700Y-42296000D01*
X32079700Y-42404000D01*
G37*
G36*
X32079700Y-42504000D02*
G01*
X31320300Y-42504000D01*
X31320300Y-42396000D01*
X32079700Y-42396000D01*
X32079700Y-42504000D01*
G37*
G36*
X32079700Y-42604000D02*
G01*
X31320300Y-42604000D01*
X31320300Y-42496000D01*
X32079700Y-42496000D01*
X32079700Y-42604000D01*
G37*
G36*
X32079700Y-42704000D02*
G01*
X31320300Y-42704000D01*
X31320300Y-42596000D01*
X32079700Y-42596000D01*
X32079700Y-42704000D01*
G37*
G36*
X32079700Y-42804000D02*
G01*
X31320300Y-42804000D01*
X31320300Y-42696000D01*
X32079700Y-42696000D01*
X32079700Y-42804000D01*
G37*
G36*
X32079700Y-42904000D02*
G01*
X31320300Y-42904000D01*
X31320300Y-42796000D01*
X32079700Y-42796000D01*
X32079700Y-42904000D01*
G37*
G36*
X32079700Y-43004000D02*
G01*
X31320300Y-43004000D01*
X31320300Y-42896000D01*
X32079700Y-42896000D01*
X32079700Y-43004000D01*
G37*
G36*
X32079700Y-43104000D02*
G01*
X31320300Y-43104000D01*
X31320300Y-42996000D01*
X32079700Y-42996000D01*
X32079700Y-43104000D01*
G37*
G36*
X32079700Y-43204000D02*
G01*
X31320300Y-43204000D01*
X31320300Y-43096000D01*
X32079700Y-43096000D01*
X32079700Y-43204000D01*
G37*
G36*
X32079700Y-44404000D02*
G01*
X31320300Y-44404000D01*
X31320300Y-44390700D01*
X32079700Y-44390700D01*
X32079700Y-44404000D01*
G37*
G36*
X32079700Y-44504000D02*
G01*
X31320300Y-44504000D01*
X31320300Y-44396000D01*
X32079700Y-44396000D01*
X32079700Y-44504000D01*
G37*
G36*
X32079700Y-44604000D02*
G01*
X31320300Y-44604000D01*
X31320300Y-44496000D01*
X32079700Y-44496000D01*
X32079700Y-44604000D01*
G37*
G36*
X32079700Y-44704000D02*
G01*
X31320300Y-44704000D01*
X31320300Y-44596000D01*
X32079700Y-44596000D01*
X32079700Y-44704000D01*
G37*
G36*
X32079700Y-44804000D02*
G01*
X31320300Y-44804000D01*
X31320300Y-44696000D01*
X32079700Y-44696000D01*
X32079700Y-44804000D01*
G37*
G36*
X32079700Y-44904000D02*
G01*
X31320300Y-44904000D01*
X31320300Y-44796000D01*
X32079700Y-44796000D01*
X32079700Y-44904000D01*
G37*
G36*
X32079700Y-45004000D02*
G01*
X31320300Y-45004000D01*
X31320300Y-44896000D01*
X32079700Y-44896000D01*
X32079700Y-45004000D01*
G37*
G36*
X32079700Y-45104000D02*
G01*
X31320300Y-45104000D01*
X31320300Y-44996000D01*
X32079700Y-44996000D01*
X32079700Y-45104000D01*
G37*
G36*
X32079700Y-45204000D02*
G01*
X31320300Y-45204000D01*
X31320300Y-45096000D01*
X32079700Y-45096000D01*
X32079700Y-45204000D01*
G37*
G36*
X32079700Y-45304000D02*
G01*
X31320300Y-45304000D01*
X31320300Y-45196000D01*
X32079700Y-45196000D01*
X32079700Y-45304000D01*
G37*
G36*
X32079700Y-45404000D02*
G01*
X31320300Y-45404000D01*
X31320300Y-45296000D01*
X32079700Y-45296000D01*
X32079700Y-45404000D01*
G37*
G36*
X32079700Y-45504000D02*
G01*
X31320300Y-45504000D01*
X31320300Y-45396000D01*
X32079700Y-45396000D01*
X32079700Y-45504000D01*
G37*
G36*
X32079700Y-45604000D02*
G01*
X31320300Y-45604000D01*
X31320300Y-45496000D01*
X32079700Y-45496000D01*
X32079700Y-45604000D01*
G37*
G36*
X32079700Y-45704000D02*
G01*
X31320300Y-45704000D01*
X31320300Y-45596000D01*
X32079700Y-45596000D01*
X32079700Y-45704000D01*
G37*
G36*
X32079700Y-45804000D02*
G01*
X31320300Y-45804000D01*
X31320300Y-45696000D01*
X32079700Y-45696000D01*
X32079700Y-45804000D01*
G37*
G36*
X32079700Y-45904000D02*
G01*
X31320300Y-45904000D01*
X31320300Y-45796000D01*
X32079700Y-45796000D01*
X32079700Y-45904000D01*
G37*
G36*
X32079700Y-46004000D02*
G01*
X31320300Y-46004000D01*
X31320300Y-45896000D01*
X32079700Y-45896000D01*
X32079700Y-46004000D01*
G37*
G36*
X32079700Y-46104000D02*
G01*
X31320300Y-46104000D01*
X31320300Y-45996000D01*
X32079700Y-45996000D01*
X32079700Y-46104000D01*
G37*
G36*
X33174900Y-46200000D02*
G01*
X32229700Y-46200000D01*
X32229700Y-46096000D01*
X33174900Y-46096000D01*
X33174900Y-46200000D01*
G37*
G36*
X33174900Y-46200000D02*
G01*
X32229700Y-46200000D01*
X32229700Y-46196000D01*
X33174900Y-46196000D01*
X33174900Y-46200000D01*
G37*
G36*
X33174900Y-41604000D02*
G01*
X32229700Y-41604000D01*
X32229700Y-41600000D01*
X33174900Y-41600000D01*
X33174900Y-41604000D01*
G37*
G36*
X33174900Y-41704000D02*
G01*
X32229700Y-41704000D01*
X32229700Y-41600000D01*
X33174900Y-41600000D01*
X33174900Y-41704000D01*
G37*
G36*
X33174900Y-41804000D02*
G01*
X32229700Y-41804000D01*
X32229700Y-41696000D01*
X33174900Y-41696000D01*
X33174900Y-41804000D01*
G37*
G36*
X33174900Y-41904000D02*
G01*
X32229700Y-41904000D01*
X32229700Y-41796000D01*
X33174900Y-41796000D01*
X33174900Y-41904000D01*
G37*
G36*
X33174900Y-42004000D02*
G01*
X32229700Y-42004000D01*
X32229700Y-41896000D01*
X33174900Y-41896000D01*
X33174900Y-42004000D01*
G37*
G36*
X33174900Y-42104000D02*
G01*
X32229700Y-42104000D01*
X32229700Y-41996000D01*
X33174900Y-41996000D01*
X33174900Y-42104000D01*
G37*
G36*
X33174900Y-42204000D02*
G01*
X32229700Y-42204000D01*
X32229700Y-42096000D01*
X33174900Y-42096000D01*
X33174900Y-42204000D01*
G37*
G36*
X33174900Y-42304000D02*
G01*
X32229700Y-42304000D01*
X32229700Y-42196000D01*
X33174900Y-42196000D01*
X33174900Y-42304000D01*
G37*
G36*
X33174900Y-42404000D02*
G01*
X32229700Y-42404000D01*
X32229700Y-42296000D01*
X33174900Y-42296000D01*
X33174900Y-42404000D01*
G37*
G36*
X33174900Y-42504000D02*
G01*
X32229700Y-42504000D01*
X32229700Y-42396000D01*
X33174900Y-42396000D01*
X33174900Y-42504000D01*
G37*
G36*
X33174900Y-42604000D02*
G01*
X32229700Y-42604000D01*
X32229700Y-42496000D01*
X33174900Y-42496000D01*
X33174900Y-42604000D01*
G37*
G36*
X33174900Y-42704000D02*
G01*
X32229700Y-42704000D01*
X32229700Y-42596000D01*
X33174900Y-42596000D01*
X33174900Y-42704000D01*
G37*
G36*
X33174900Y-42804000D02*
G01*
X32229700Y-42804000D01*
X32229700Y-42696000D01*
X33174900Y-42696000D01*
X33174900Y-42804000D01*
G37*
G36*
X33174900Y-42904000D02*
G01*
X32229700Y-42904000D01*
X32229700Y-42796000D01*
X33174900Y-42796000D01*
X33174900Y-42904000D01*
G37*
G36*
X33174900Y-43004000D02*
G01*
X32229700Y-43004000D01*
X32229700Y-42896000D01*
X33174900Y-42896000D01*
X33174900Y-43004000D01*
G37*
G36*
X33174900Y-43104000D02*
G01*
X32229700Y-43104000D01*
X32229700Y-42996000D01*
X33174900Y-42996000D01*
X33174900Y-43104000D01*
G37*
G36*
X33174900Y-43204000D02*
G01*
X32229700Y-43204000D01*
X32229700Y-43096000D01*
X33174900Y-43096000D01*
X33174900Y-43204000D01*
G37*
G36*
X33174900Y-43304000D02*
G01*
X32229700Y-43304000D01*
X32229700Y-43196000D01*
X33174900Y-43196000D01*
X33174900Y-43304000D01*
G37*
G36*
X33174900Y-43504000D02*
G01*
X30225100Y-43504000D01*
X30225100Y-43396000D01*
X33174900Y-43396000D01*
X33174900Y-43504000D01*
G37*
G36*
X33174900Y-43604000D02*
G01*
X30225100Y-43604000D01*
X30225100Y-43496000D01*
X33174900Y-43496000D01*
X33174900Y-43604000D01*
G37*
G36*
X33174900Y-43704000D02*
G01*
X30225100Y-43704000D01*
X30225100Y-43596000D01*
X33174900Y-43596000D01*
X33174900Y-43704000D01*
G37*
G36*
X33174900Y-43804000D02*
G01*
X30225100Y-43804000D01*
X30225100Y-43696000D01*
X33174900Y-43696000D01*
X33174900Y-43804000D01*
G37*
G36*
X33174900Y-43904000D02*
G01*
X30225100Y-43904000D01*
X30225100Y-43796000D01*
X33174900Y-43796000D01*
X33174900Y-43904000D01*
G37*
G36*
X33174900Y-44004000D02*
G01*
X30225100Y-44004000D01*
X30225100Y-43896000D01*
X33174900Y-43896000D01*
X33174900Y-44004000D01*
G37*
G36*
X33174900Y-44104000D02*
G01*
X30225100Y-44104000D01*
X30225100Y-43996000D01*
X33174900Y-43996000D01*
X33174900Y-44104000D01*
G37*
G36*
X33174900Y-44204000D02*
G01*
X30225100Y-44204000D01*
X30225100Y-44096000D01*
X33174900Y-44096000D01*
X33174900Y-44204000D01*
G37*
G36*
X33174900Y-44404000D02*
G01*
X32229700Y-44404000D01*
X32229700Y-44296000D01*
X33174900Y-44296000D01*
X33174900Y-44404000D01*
G37*
G36*
X33174900Y-44504000D02*
G01*
X32229700Y-44504000D01*
X32229700Y-44396000D01*
X33174900Y-44396000D01*
X33174900Y-44504000D01*
G37*
G36*
X33174900Y-44604000D02*
G01*
X32229700Y-44604000D01*
X32229700Y-44496000D01*
X33174900Y-44496000D01*
X33174900Y-44604000D01*
G37*
G36*
X33174900Y-44704000D02*
G01*
X32229700Y-44704000D01*
X32229700Y-44596000D01*
X33174900Y-44596000D01*
X33174900Y-44704000D01*
G37*
G36*
X33174900Y-44804000D02*
G01*
X32229700Y-44804000D01*
X32229700Y-44696000D01*
X33174900Y-44696000D01*
X33174900Y-44804000D01*
G37*
G36*
X33174900Y-44904000D02*
G01*
X32229700Y-44904000D01*
X32229700Y-44796000D01*
X33174900Y-44796000D01*
X33174900Y-44904000D01*
G37*
G36*
X33174900Y-45004000D02*
G01*
X32229700Y-45004000D01*
X32229700Y-44896000D01*
X33174900Y-44896000D01*
X33174900Y-45004000D01*
G37*
G36*
X33174900Y-45104000D02*
G01*
X32229700Y-45104000D01*
X32229700Y-44996000D01*
X33174900Y-44996000D01*
X33174900Y-45104000D01*
G37*
G36*
X33174900Y-45204000D02*
G01*
X32229700Y-45204000D01*
X32229700Y-45096000D01*
X33174900Y-45096000D01*
X33174900Y-45204000D01*
G37*
G36*
X33174900Y-45304000D02*
G01*
X32229700Y-45304000D01*
X32229700Y-45196000D01*
X33174900Y-45196000D01*
X33174900Y-45304000D01*
G37*
G36*
X33174900Y-45404000D02*
G01*
X32229700Y-45404000D01*
X32229700Y-45296000D01*
X33174900Y-45296000D01*
X33174900Y-45404000D01*
G37*
G36*
X33174900Y-45504000D02*
G01*
X32229700Y-45504000D01*
X32229700Y-45396000D01*
X33174900Y-45396000D01*
X33174900Y-45504000D01*
G37*
G36*
X33174900Y-45604000D02*
G01*
X32229700Y-45604000D01*
X32229700Y-45496000D01*
X33174900Y-45496000D01*
X33174900Y-45604000D01*
G37*
G36*
X33174900Y-45704000D02*
G01*
X32229700Y-45704000D01*
X32229700Y-45596000D01*
X33174900Y-45596000D01*
X33174900Y-45704000D01*
G37*
G36*
X33174900Y-45804000D02*
G01*
X32229700Y-45804000D01*
X32229700Y-45696000D01*
X33174900Y-45696000D01*
X33174900Y-45804000D01*
G37*
G36*
X33174900Y-45904000D02*
G01*
X32229700Y-45904000D01*
X32229700Y-45796000D01*
X33174900Y-45796000D01*
X33174900Y-45904000D01*
G37*
G36*
X33174900Y-46004000D02*
G01*
X32229700Y-46004000D01*
X32229700Y-45896000D01*
X33174900Y-45896000D01*
X33174900Y-46004000D01*
G37*
G36*
X33174900Y-46104000D02*
G01*
X32229700Y-46104000D01*
X32229700Y-45996000D01*
X33174900Y-45996000D01*
X33174900Y-46104000D01*
G37*
G36*
X35850000Y-42004000D02*
G01*
X33324900Y-42004000D01*
X33324900Y-41896000D01*
X35850000Y-41896000D01*
X35850000Y-42004000D01*
G37*
G36*
X35850000Y-42104000D02*
G01*
X33324900Y-42104000D01*
X33324900Y-41996000D01*
X35850000Y-41996000D01*
X35850000Y-42104000D01*
G37*
G36*
X35850000Y-42204000D02*
G01*
X33324900Y-42204000D01*
X33324900Y-42096000D01*
X35850000Y-42096000D01*
X35850000Y-42204000D01*
G37*
G36*
X35850000Y-42304000D02*
G01*
X33324900Y-42304000D01*
X33324900Y-42196000D01*
X35850000Y-42196000D01*
X35850000Y-42304000D01*
G37*
G36*
X35850000Y-42404000D02*
G01*
X33324900Y-42404000D01*
X33324900Y-42296000D01*
X35850000Y-42296000D01*
X35850000Y-42404000D01*
G37*
G36*
X35850000Y-42504000D02*
G01*
X33324900Y-42504000D01*
X33324900Y-42396000D01*
X35850000Y-42396000D01*
X35850000Y-42504000D01*
G37*
G36*
X35850000Y-42604000D02*
G01*
X33324900Y-42604000D01*
X33324900Y-42496000D01*
X35850000Y-42496000D01*
X35850000Y-42604000D01*
G37*
G36*
X35850000Y-42704000D02*
G01*
X33324900Y-42704000D01*
X33324900Y-42596000D01*
X35850000Y-42596000D01*
X35850000Y-42704000D01*
G37*
G36*
X35850000Y-42804000D02*
G01*
X33324900Y-42804000D01*
X33324900Y-42696000D01*
X35850000Y-42696000D01*
X35850000Y-42804000D01*
G37*
G36*
X35850000Y-42904000D02*
G01*
X33324900Y-42904000D01*
X33324900Y-42796000D01*
X35850000Y-42796000D01*
X35850000Y-42904000D01*
G37*
G36*
X35850000Y-43004000D02*
G01*
X33324900Y-43004000D01*
X33324900Y-42896000D01*
X35850000Y-42896000D01*
X35850000Y-43004000D01*
G37*
G36*
X35850000Y-43104000D02*
G01*
X33324900Y-43104000D01*
X33324900Y-42996000D01*
X35850000Y-42996000D01*
X35850000Y-43104000D01*
G37*
G36*
X35850000Y-43204000D02*
G01*
X33324900Y-43204000D01*
X33324900Y-43096000D01*
X35850000Y-43096000D01*
X35850000Y-43204000D01*
G37*
G36*
X35850000Y-43304000D02*
G01*
X33324900Y-43304000D01*
X33324900Y-43196000D01*
X35850000Y-43196000D01*
X35850000Y-43304000D01*
G37*
G36*
X35850000Y-43404000D02*
G01*
X33324900Y-43404000D01*
X33324900Y-43296000D01*
X35850000Y-43296000D01*
X35850000Y-43404000D01*
G37*
G36*
X35850000Y-43504000D02*
G01*
X33324900Y-43504000D01*
X33324900Y-43396000D01*
X35850000Y-43396000D01*
X35850000Y-43504000D01*
G37*
G36*
X35850000Y-43604000D02*
G01*
X33324900Y-43604000D01*
X33324900Y-43496000D01*
X35850000Y-43496000D01*
X35850000Y-43604000D01*
G37*
G36*
X35850000Y-43704000D02*
G01*
X33324900Y-43704000D01*
X33324900Y-43596000D01*
X35850000Y-43596000D01*
X35850000Y-43704000D01*
G37*
G36*
X35850000Y-43804000D02*
G01*
X33324900Y-43804000D01*
X33324900Y-43696000D01*
X35850000Y-43696000D01*
X35850000Y-43804000D01*
G37*
G36*
X35850000Y-43904000D02*
G01*
X33324900Y-43904000D01*
X33324900Y-43796000D01*
X35850000Y-43796000D01*
X35850000Y-43904000D01*
G37*
G36*
X35850000Y-44004000D02*
G01*
X33324900Y-44004000D01*
X33324900Y-43896000D01*
X35850000Y-43896000D01*
X35850000Y-44004000D01*
G37*
G36*
X35850000Y-44104000D02*
G01*
X33324900Y-44104000D01*
X33324900Y-43996000D01*
X35850000Y-43996000D01*
X35850000Y-44104000D01*
G37*
G36*
X35850000Y-44204000D02*
G01*
X33324900Y-44204000D01*
X33324900Y-44096000D01*
X35850000Y-44096000D01*
X35850000Y-44204000D01*
G37*
G36*
X35850000Y-44304000D02*
G01*
X33324900Y-44304000D01*
X33324900Y-44196000D01*
X35850000Y-44196000D01*
X35850000Y-44304000D01*
G37*
G36*
X35850000Y-44404000D02*
G01*
X33324900Y-44404000D01*
X33324900Y-44296000D01*
X35850000Y-44296000D01*
X35850000Y-44404000D01*
G37*
G36*
X35850000Y-44504000D02*
G01*
X33324900Y-44504000D01*
X33324900Y-44396000D01*
X35850000Y-44396000D01*
X35850000Y-44504000D01*
G37*
G36*
X35850000Y-44604000D02*
G01*
X33324900Y-44604000D01*
X33324900Y-44496000D01*
X35850000Y-44496000D01*
X35850000Y-44604000D01*
G37*
G36*
X35850000Y-44704000D02*
G01*
X33324900Y-44704000D01*
X33324900Y-44596000D01*
X35850000Y-44596000D01*
X35850000Y-44704000D01*
G37*
G36*
X35850000Y-44804000D02*
G01*
X33324900Y-44804000D01*
X33324900Y-44696000D01*
X35850000Y-44696000D01*
X35850000Y-44804000D01*
G37*
G36*
X35850000Y-44904000D02*
G01*
X33324900Y-44904000D01*
X33324900Y-44796000D01*
X35850000Y-44796000D01*
X35850000Y-44904000D01*
G37*
G36*
X35850000Y-45004000D02*
G01*
X33324900Y-45004000D01*
X33324900Y-44896000D01*
X35850000Y-44896000D01*
X35850000Y-45004000D01*
G37*
G36*
X35850000Y-45104000D02*
G01*
X33324900Y-45104000D01*
X33324900Y-44996000D01*
X35850000Y-44996000D01*
X35850000Y-45104000D01*
G37*
G36*
X35850000Y-45204000D02*
G01*
X33324900Y-45204000D01*
X33324900Y-45096000D01*
X35850000Y-45096000D01*
X35850000Y-45204000D01*
G37*
G36*
X35850000Y-45304000D02*
G01*
X33324900Y-45304000D01*
X33324900Y-45196000D01*
X35850000Y-45196000D01*
X35850000Y-45304000D01*
G37*
G36*
X35850000Y-45404000D02*
G01*
X33324900Y-45404000D01*
X33324900Y-45296000D01*
X35850000Y-45296000D01*
X35850000Y-45404000D01*
G37*
G36*
X35850000Y-45504000D02*
G01*
X33324900Y-45504000D01*
X33324900Y-45396000D01*
X35850000Y-45396000D01*
X35850000Y-45504000D01*
G37*
G36*
X35850000Y-45604000D02*
G01*
X33324900Y-45604000D01*
X33324900Y-45496000D01*
X35850000Y-45496000D01*
X35850000Y-45604000D01*
G37*
G36*
X35850000Y-45704000D02*
G01*
X33324900Y-45704000D01*
X33324900Y-45596000D01*
X35850000Y-45596000D01*
X35850000Y-45704000D01*
G37*
G36*
X35850000Y-45804000D02*
G01*
X33324900Y-45804000D01*
X33324900Y-45696000D01*
X35850000Y-45696000D01*
X35850000Y-45804000D01*
G37*
G36*
X35850000Y-45904000D02*
G01*
X33324900Y-45904000D01*
X33324900Y-45796000D01*
X35850000Y-45796000D01*
X35850000Y-45904000D01*
G37*
G36*
X17559100Y-41904000D02*
G01*
X14950000Y-41904000D01*
X14950000Y-41800000D01*
X14950100Y-41796000D01*
X17559100Y-41796000D01*
X17559100Y-41904000D01*
G37*
G36*
X17559100Y-46004000D02*
G01*
X14950100Y-46004000D01*
X14950000Y-46000000D01*
X14950000Y-45896000D01*
X17559100Y-45896000D01*
X17559100Y-46004000D01*
G37*
G36*
X19434400Y-46188400D02*
G01*
X19202700Y-46200000D01*
X17709100Y-46200000D01*
X17709100Y-46096000D01*
X19848800Y-46096000D01*
X19434400Y-46188400D01*
G37*
G36*
X19613800Y-45000900D02*
G01*
X19611200Y-45004000D01*
X18804300Y-45004000D01*
X18804300Y-44896000D01*
X19655400Y-44896000D01*
X19613800Y-45000900D01*
G37*
G36*
X19686800Y-44816900D02*
G01*
X19652300Y-44904000D01*
X18804300Y-44904000D01*
X18804300Y-44796000D01*
X19688600Y-44796000D01*
X19686800Y-44816900D01*
G37*
G36*
X19695700Y-44712800D02*
G01*
X19687900Y-44804000D01*
X18804300Y-44804000D01*
X18804300Y-44696000D01*
X19695700Y-44696000D01*
X19695700Y-44712800D01*
G37*
G36*
X19686800Y-42977600D02*
G01*
X19689100Y-43004000D01*
X18804300Y-43004000D01*
X18804300Y-42896000D01*
X19654300Y-42896000D01*
X19686800Y-42977600D01*
G37*
G36*
X19695700Y-43081300D02*
G01*
X19695700Y-43104000D01*
X18804300Y-43104000D01*
X18804300Y-42996000D01*
X19688400Y-42996000D01*
X19695700Y-43081300D01*
G37*
G36*
X20206000Y-45911600D02*
G01*
X20054000Y-46004000D01*
X17709100Y-46004000D01*
X17709100Y-45896000D01*
X20222600Y-45896000D01*
X20206000Y-45911600D01*
G37*
G36*
X20206000Y-41883500D02*
G01*
X20228100Y-41904000D01*
X17709100Y-41904000D01*
X17709100Y-41796000D01*
X20059200Y-41796000D01*
X20206000Y-41883500D01*
G37*
G36*
X20483100Y-45651700D02*
G01*
X20427400Y-45704000D01*
X17709100Y-45704000D01*
X17709100Y-45596000D01*
X20521600Y-45596000D01*
X20483100Y-45651700D01*
G37*
G36*
X20483100Y-42140000D02*
G01*
X20527800Y-42204000D01*
X17709100Y-42204000D01*
X17709100Y-42096000D01*
X20435600Y-42096000D01*
X20483100Y-42140000D01*
G37*
G36*
X20592000Y-45494000D02*
G01*
X20585100Y-45504000D01*
X17709100Y-45504000D01*
X17709100Y-45396000D01*
X20641100Y-45396000D01*
X20592000Y-45494000D01*
G37*
G36*
X20592000Y-42296100D02*
G01*
X20596000Y-42304000D01*
X17709100Y-42304000D01*
X17709100Y-42196000D01*
X20522200Y-42196000D01*
X20592000Y-42296100D01*
G37*
G36*
X20592000Y-42296100D02*
G01*
X20646300Y-42404000D01*
X17709100Y-42404000D01*
X17709100Y-42296000D01*
X20591900Y-42296000D01*
X20592000Y-42296100D01*
G37*
G36*
X20683200Y-45304000D02*
G01*
X19428100Y-45304000D01*
X19569400Y-45250200D01*
X19636900Y-45196000D01*
X20711000Y-45196000D01*
X20683200Y-45304000D01*
G37*
G36*
X20708900Y-45204000D02*
G01*
X19626900Y-45204000D01*
X19665500Y-45173100D01*
X19729800Y-45096000D01*
X20736600Y-45096000D01*
X20708900Y-45204000D01*
G37*
G36*
X20713500Y-42604000D02*
G01*
X19640200Y-42604000D01*
X19569400Y-42548200D01*
X19430100Y-42496000D01*
X20685900Y-42496000D01*
X20713500Y-42604000D01*
G37*
G36*
X20734600Y-45104000D02*
G01*
X19723100Y-45104000D01*
X19744300Y-45078600D01*
X19777100Y-44996000D01*
X20762300Y-44996000D01*
X20734600Y-45104000D01*
G37*
G36*
X20739100Y-42704000D02*
G01*
X19733200Y-42704000D01*
X19665500Y-42624000D01*
X19630000Y-42596000D01*
X20711500Y-42596000D01*
X20739100Y-42704000D01*
G37*
G36*
X20778500Y-44933000D02*
G01*
X20760200Y-45004000D01*
X19773900Y-45004000D01*
X19816800Y-44896000D01*
X20780600Y-44896000D01*
X20778500Y-44933000D01*
G37*
G36*
X20764600Y-42804000D02*
G01*
X19779000Y-42804000D01*
X19744300Y-42717100D01*
X19726400Y-42696000D01*
X20737000Y-42696000D01*
X20764600Y-42804000D01*
G37*
G36*
X20780100Y-44904000D02*
G01*
X19813600Y-44904000D01*
X19834400Y-44851700D01*
X19839100Y-44796000D01*
X20786400Y-44796000D01*
X20780100Y-44904000D01*
G37*
G36*
X20778500Y-42858200D02*
G01*
X20781100Y-42904000D01*
X19819000Y-42904000D01*
X19775800Y-42796000D01*
X20762600Y-42796000D01*
X20778500Y-42858200D01*
G37*
G36*
X20786800Y-43004000D02*
G01*
X19839600Y-43004000D01*
X19834400Y-42942600D01*
X19815800Y-42896000D01*
X20780600Y-42896000D01*
X20786800Y-43004000D01*
G37*
G36*
X23827600Y-42404000D02*
G01*
X20814100Y-42404000D01*
X20813000Y-42401400D01*
X20759900Y-42296000D01*
X23827600Y-42296000D01*
X23827600Y-42404000D01*
G37*
G36*
X25571600Y-42577800D02*
G01*
X25649500Y-42604000D01*
X25061000Y-42604000D01*
X25061000Y-42569200D01*
X25447300Y-42569200D01*
X25571600Y-42577800D01*
G37*
G36*
X25885400Y-42750600D02*
G01*
X25905500Y-42804000D01*
X25061000Y-42804000D01*
X25061000Y-42696000D01*
X25839400Y-42696000D01*
X25885400Y-42750600D01*
G37*
G36*
X25955600Y-43143100D02*
G01*
X25931700Y-43204000D01*
X25061000Y-43204000D01*
X25061000Y-43096000D01*
X25959400Y-43096000D01*
X25955600Y-43143100D01*
G37*
G36*
X25934000Y-46204000D02*
G01*
X25060700Y-46204000D01*
X25061000Y-46200000D01*
X25061000Y-46096000D01*
X25887900Y-46096000D01*
X25934000Y-46204000D01*
G37*
G36*
X25963700Y-43043100D02*
G01*
X25958800Y-43104000D01*
X25061000Y-43104000D01*
X25061000Y-42996000D01*
X25960000Y-42996000D01*
X25963700Y-43043100D01*
G37*
G36*
X25955400Y-42936400D02*
G01*
X25960700Y-43004000D01*
X25061000Y-43004000D01*
X25061000Y-42896000D01*
X25940200Y-42896000D01*
X25955400Y-42936400D01*
G37*
G36*
X26429000Y-44218600D02*
G01*
X26263800Y-44304000D01*
X23977600Y-44304000D01*
X23977600Y-44196000D01*
X26455100Y-44196000D01*
X26429000Y-44218600D01*
G37*
G36*
X26253000Y-44309600D02*
G01*
X26296400Y-44404000D01*
X23977600Y-44404000D01*
X23977600Y-44296000D01*
X26279300Y-44296000D01*
X26253000Y-44309600D01*
G37*
G36*
X26303200Y-41770300D02*
G01*
X26363800Y-41804000D01*
X23977600Y-41804000D01*
X23977600Y-41696000D01*
X26115700Y-41696000D01*
X26303200Y-41770300D01*
G37*
G36*
X26472800Y-41864500D02*
G01*
X26518100Y-41904000D01*
X23977600Y-41904000D01*
X23977600Y-41796000D01*
X26349400Y-41796000D01*
X26472800Y-41864500D01*
G37*
G36*
X26723400Y-43963600D02*
G01*
X26676800Y-44004000D01*
X23977600Y-44004000D01*
X23977600Y-43896000D01*
X26772200Y-43896000D01*
X26723400Y-43963600D01*
G37*
G36*
X26841800Y-43799600D02*
G01*
X26766400Y-43904000D01*
X23977600Y-43904000D01*
X23977600Y-43796000D01*
X26843600Y-43796000D01*
X26841800Y-43799600D01*
G37*
G36*
X26751400Y-42107200D02*
G01*
X26822500Y-42204000D01*
X23977600Y-42204000D01*
X23977600Y-42096000D01*
X26738500Y-42096000D01*
X26751400Y-42107200D01*
G37*
G36*
X26841800Y-43799600D02*
G01*
X26838600Y-43804000D01*
X23977600Y-43804000D01*
X23977600Y-43696000D01*
X26895800Y-43696000D01*
X26841800Y-43799600D01*
G37*
G36*
X26860500Y-42255700D02*
G01*
X26886000Y-42304000D01*
X23977600Y-42304000D01*
X23977600Y-42196000D01*
X26816600Y-42196000D01*
X26860500Y-42255700D01*
G37*
G36*
X26940500Y-43604000D02*
G01*
X25688600Y-43604000D01*
X25845400Y-43553400D01*
X25925000Y-43496000D01*
X26969900Y-43496000D01*
X26940500Y-43604000D01*
G37*
G36*
X26994900Y-43404000D02*
G01*
X26011300Y-43404000D01*
X26016700Y-43397900D01*
X26056700Y-43296000D01*
X27024200Y-43296000D01*
X26994900Y-43404000D01*
G37*
G36*
X27045800Y-43216800D02*
G01*
X27022100Y-43304000D01*
X26053600Y-43304000D01*
X26096000Y-43196000D01*
X27047100Y-43196000D01*
X27045800Y-43216800D01*
G37*
G36*
X27023400Y-42704000D02*
G01*
X26028100Y-42704000D01*
X26016700Y-42673600D01*
X25951300Y-42596000D01*
X26994500Y-42596000D01*
X27023400Y-42704000D01*
G37*
G36*
X27046600Y-43204000D02*
G01*
X26092900Y-43204000D01*
X26103300Y-43177300D01*
X26109900Y-43096000D01*
X27053300Y-43096000D01*
X27046600Y-43204000D01*
G37*
G36*
X27046900Y-42792000D02*
G01*
X27047700Y-42804000D01*
X26065800Y-42804000D01*
X26025100Y-42696000D01*
X27021300Y-42696000D01*
X27046900Y-42792000D01*
G37*
G36*
X27053700Y-42904000D02*
G01*
X26103400Y-42904000D01*
X26103300Y-42903500D01*
X26062800Y-42796000D01*
X27047200Y-42796000D01*
X27053700Y-42904000D01*
G37*
G36*
X30075100Y-42004000D02*
G01*
X26860100Y-42004000D01*
X26850000Y-41994100D01*
X26737300Y-41896000D01*
X30075100Y-41896000D01*
X30075100Y-42004000D01*
G37*
G36*
X30075100Y-43004000D02*
G01*
X27209100Y-43004000D01*
X27209100Y-42990100D01*
X27203500Y-42896000D01*
X30075100Y-42896000D01*
X30075100Y-43004000D01*
G37*
G36*
X30075100Y-43104000D02*
G01*
X27203100Y-43104000D01*
X27209100Y-43008500D01*
X27209100Y-42996000D01*
X30075100Y-42996000D01*
X30075100Y-43104000D01*
G37*
G36*
X35850000Y-46000000D02*
G01*
X35849900Y-46004000D01*
X33324900Y-46004000D01*
X33324900Y-45896000D01*
X35850000Y-45896000D01*
X35850000Y-46000000D01*
G37*
G36*
X35850000Y-41800000D02*
G01*
X35850000Y-41904000D01*
X33324900Y-41904000D01*
X33324900Y-41796000D01*
X35849900Y-41796000D01*
X35850000Y-41800000D01*
G37*
G36*
X17559100Y-41804000D02*
G01*
X14950000Y-41804000D01*
X14950000Y-41800000D01*
X14952100Y-41734600D01*
X14955900Y-41696000D01*
X17559100Y-41696000D01*
X17559100Y-41804000D01*
G37*
G36*
X17559100Y-46104000D02*
G01*
X14955900Y-46104000D01*
X14952100Y-46065400D01*
X14950000Y-46000000D01*
X14950000Y-45996000D01*
X17559100Y-45996000D01*
X17559100Y-46104000D01*
G37*
G36*
X19493900Y-45118400D02*
G01*
X19304600Y-45190500D01*
X19196600Y-45199300D01*
X18804300Y-45199300D01*
X18804300Y-45096000D01*
X19521900Y-45096000D01*
X19493900Y-45118400D01*
G37*
G36*
X19613800Y-45000900D02*
G01*
X19559900Y-45065500D01*
X19511900Y-45104000D01*
X18804300Y-45104000D01*
X18804300Y-44996000D01*
X19615700Y-44996000D01*
X19613800Y-45000900D01*
G37*
G36*
X19305100Y-42609400D02*
G01*
X19494900Y-42680400D01*
X19524700Y-42704000D01*
X18804300Y-42704000D01*
X18804300Y-42600700D01*
X19196700Y-42600700D01*
X19305100Y-42609400D01*
G37*
G36*
X19560700Y-42732400D02*
G01*
X19614100Y-42795400D01*
X19617500Y-42804000D01*
X18804300Y-42804000D01*
X18804300Y-42696000D01*
X19514600Y-42696000D01*
X19560700Y-42732400D01*
G37*
G36*
X20037700Y-46013900D02*
G01*
X19851800Y-46095300D01*
X19812900Y-46104000D01*
X17709100Y-46104000D01*
X17709100Y-45996000D01*
X20067100Y-45996000D01*
X20037700Y-46013900D01*
G37*
G36*
X19434400Y-41611400D02*
G01*
X19851800Y-41703000D01*
X19854100Y-41704000D01*
X17709100Y-41704000D01*
X17709100Y-41600000D01*
X19202700Y-41600000D01*
X19434400Y-41611400D01*
G37*
G36*
X19851800Y-41703000D02*
G01*
X20037700Y-41783100D01*
X20072700Y-41804000D01*
X17709100Y-41804000D01*
X17709100Y-41696000D01*
X19819900Y-41696000D01*
X19851800Y-41703000D01*
G37*
G36*
X20790900Y-44719200D02*
G01*
X20786000Y-44804000D01*
X19838500Y-44804000D01*
X19845700Y-44719200D01*
X19845700Y-44696000D01*
X20790900Y-44696000D01*
X20790900Y-44719200D01*
G37*
G36*
X20790900Y-43074900D02*
G01*
X20790900Y-43104000D01*
X19845700Y-43104000D01*
X19845700Y-43074900D01*
X19839000Y-42996000D01*
X20786400Y-42996000D01*
X20790900Y-43074900D01*
G37*
G36*
X23827600Y-42304000D02*
G01*
X20763900Y-42304000D01*
X20726000Y-42228600D01*
X20715000Y-42210300D01*
X20705100Y-42196000D01*
X23827600Y-42196000D01*
X23827600Y-42304000D01*
G37*
G36*
X23827600Y-42904000D02*
G01*
X20931300Y-42904000D01*
X20928200Y-42849700D01*
X20923800Y-42821100D01*
X20917400Y-42796000D01*
X23827600Y-42796000D01*
X23827600Y-42904000D01*
G37*
G36*
X23827600Y-43104000D02*
G01*
X20940900Y-43104000D01*
X20940900Y-43074900D01*
X20940600Y-43066300D01*
X20936600Y-42996000D01*
X23827600Y-42996000D01*
X23827600Y-43104000D01*
G37*
G36*
X23827600Y-44804000D02*
G01*
X20936200Y-44804000D01*
X20940600Y-44727900D01*
X20940900Y-44719200D01*
X20940900Y-44696000D01*
X23827600Y-44696000D01*
X23827600Y-44804000D01*
G37*
G36*
X23827600Y-45004000D02*
G01*
X20915100Y-45004000D01*
X20923700Y-44970300D01*
X20928200Y-44941700D01*
X20930900Y-44896000D01*
X23827600Y-44896000D01*
X23827600Y-45004000D01*
G37*
G36*
X23827600Y-45604000D02*
G01*
X20698400Y-45604000D01*
X20715400Y-45579300D01*
X20726100Y-45561300D01*
X20758800Y-45496000D01*
X23827600Y-45496000D01*
X23827600Y-45604000D01*
G37*
G36*
X25776800Y-43417900D02*
G01*
X25572800Y-43483700D01*
X25447600Y-43492000D01*
X25061000Y-43492000D01*
X25061000Y-43396000D01*
X25807200Y-43396000D01*
X25776800Y-43417900D01*
G37*
G36*
X25886600Y-43318700D02*
G01*
X25839200Y-43372900D01*
X25796100Y-43404000D01*
X25061000Y-43404000D01*
X25061000Y-43296000D01*
X25895600Y-43296000D01*
X25886600Y-43318700D01*
G37*
G36*
X25774500Y-42646100D02*
G01*
X25837100Y-42693200D01*
X25846200Y-42704000D01*
X25061000Y-42704000D01*
X25061000Y-42596000D01*
X25625800Y-42596000D01*
X25774500Y-42646100D01*
G37*
G36*
X25689900Y-41610600D02*
G01*
X26115300Y-41695800D01*
X26135900Y-41704000D01*
X23977600Y-41704000D01*
X23977600Y-41600000D01*
X25452500Y-41600000D01*
X25689900Y-41610600D01*
G37*
G36*
X26967700Y-43504000D02*
G01*
X25913900Y-43504000D01*
X25940900Y-43484500D01*
X26016700Y-43397900D01*
X26017400Y-43396000D01*
X26997100Y-43396000D01*
X26967700Y-43504000D01*
G37*
G36*
X26996600Y-42604000D02*
G01*
X25958100Y-42604000D01*
X25940900Y-42583600D01*
X25845400Y-42511700D01*
X25798800Y-42496000D01*
X26967700Y-42496000D01*
X26996600Y-42604000D01*
G37*
G36*
X27059400Y-42999100D02*
G01*
X27052800Y-43104000D01*
X26109300Y-43104000D01*
X26114200Y-43043400D01*
X26110500Y-42996000D01*
X27059200Y-42996000D01*
X27059400Y-42999100D01*
G37*
G36*
X27059400Y-42999100D02*
G01*
X27059100Y-43004000D01*
X26111100Y-43004000D01*
X26103300Y-42903500D01*
X26100500Y-42896000D01*
X27053200Y-42896000D01*
X27059400Y-42999100D01*
G37*
G36*
X30075100Y-42104000D02*
G01*
X26935200Y-42104000D01*
X26872300Y-42018500D01*
X26861800Y-42005700D01*
X26851900Y-41996000D01*
X30075100Y-41996000D01*
X30075100Y-42104000D01*
G37*
G36*
X30075100Y-42204000D02*
G01*
X27002800Y-42204000D01*
X26993100Y-42185600D01*
X26981400Y-42167000D01*
X26929300Y-42096000D01*
X30075100Y-42096000D01*
X30075100Y-42204000D01*
G37*
G36*
X30075100Y-43904000D02*
G01*
X26951400Y-43904000D01*
X26963400Y-43887400D01*
X26974800Y-43868900D01*
X27012800Y-43796000D01*
X30075100Y-43796000D01*
X30075100Y-43904000D01*
G37*
G36*
X32079700Y-41600000D02*
G01*
X32079700Y-41704000D01*
X31320300Y-41704000D01*
X31320300Y-41600000D01*
X31320000Y-41596000D01*
X32080000Y-41596000D01*
X32079700Y-41600000D01*
G37*
G36*
X32079700Y-46200000D02*
G01*
X32080000Y-46204000D01*
X31320000Y-46204000D01*
X31320300Y-46200000D01*
X31320300Y-46096000D01*
X32079700Y-46096000D01*
X32079700Y-46200000D01*
G37*
G36*
X35850000Y-46000000D02*
G01*
X35847900Y-46065400D01*
X35844100Y-46104000D01*
X33324900Y-46104000D01*
X33324900Y-45996000D01*
X35850000Y-45996000D01*
X35850000Y-46000000D01*
G37*
G36*
X35847900Y-41734600D02*
G01*
X35850000Y-41800000D01*
X35850000Y-41804000D01*
X33324900Y-41804000D01*
X33324900Y-41696000D01*
X35844100Y-41696000D01*
X35847900Y-41734600D01*
G37*
G36*
X17559100Y-41600000D02*
G01*
X17559100Y-41704000D01*
X14955200Y-41704000D01*
X14958600Y-41669500D01*
X14969200Y-41604900D01*
X14971300Y-41596000D01*
X17559400Y-41596000D01*
X17559100Y-41600000D01*
G37*
G36*
X17559100Y-46200000D02*
G01*
X17559400Y-46204000D01*
X14971300Y-46204000D01*
X14969200Y-46195100D01*
X14958600Y-46130500D01*
X14955200Y-46096000D01*
X17559100Y-46096000D01*
X17559100Y-46200000D01*
G37*
G36*
X23827600Y-41600000D02*
G01*
X23827600Y-41704000D01*
X20197800Y-41704000D01*
X20114500Y-41654300D01*
X20097100Y-41645400D01*
X19982500Y-41596000D01*
X23827900Y-41596000D01*
X23827600Y-41600000D01*
G37*
G36*
X23827600Y-41804000D02*
G01*
X20340900Y-41804000D01*
X20307900Y-41773400D01*
X20295800Y-41763400D01*
X20282800Y-41754700D01*
X20184400Y-41696000D01*
X23827600Y-41696000D01*
X23827600Y-41804000D01*
G37*
G36*
X23827600Y-42104000D02*
G01*
X20640900Y-42104000D01*
X20606200Y-42054200D01*
X20596300Y-42041500D01*
X20585000Y-42029900D01*
X20548400Y-41996000D01*
X23827600Y-41996000D01*
X23827600Y-42104000D01*
G37*
G36*
X23827600Y-42504000D02*
G01*
X20842800Y-42504000D01*
X20824300Y-42431700D01*
X20819500Y-42416200D01*
X20813000Y-42401400D01*
X20810300Y-42396000D01*
X23827600Y-42396000D01*
X23827600Y-42504000D01*
G37*
G36*
X23827600Y-45404000D02*
G01*
X20804900Y-45404000D01*
X20813100Y-45387700D01*
X20819500Y-45373000D01*
X20824300Y-45357700D01*
X20840100Y-45296000D01*
X23827600Y-45296000D01*
X23827600Y-45404000D01*
G37*
G36*
X23827600Y-45804000D02*
G01*
X20540000Y-45804000D01*
X20585700Y-45761100D01*
X20596800Y-45749600D01*
X20606600Y-45736900D01*
X20634800Y-45696000D01*
X23827600Y-45696000D01*
X23827600Y-45804000D01*
G37*
G36*
X23827600Y-46104000D02*
G01*
X20178300Y-46104000D01*
X20283900Y-46039800D01*
X20296700Y-46031100D01*
X20308600Y-46021100D01*
X20335300Y-45996000D01*
X23827600Y-45996000D01*
X23827600Y-46104000D01*
G37*
G36*
X23827600Y-46200000D02*
G01*
X23827900Y-46204000D01*
X19977600Y-46204000D01*
X20097900Y-46151300D01*
X20115600Y-46142100D01*
X20191400Y-46096000D01*
X23827600Y-46096000D01*
X23827600Y-46200000D01*
G37*
G36*
X30075100Y-41600000D02*
G01*
X30075100Y-41704000D01*
X26492700Y-41704000D01*
X26376100Y-41639200D01*
X26358500Y-41630900D01*
X26270500Y-41596000D01*
X30075300Y-41596000D01*
X30075100Y-41600000D01*
G37*
G36*
X30075100Y-41804000D02*
G01*
X26631700Y-41804000D01*
X26571300Y-41751400D01*
X26559000Y-41741800D01*
X26545600Y-41733400D01*
X26478300Y-41696000D01*
X30075100Y-41696000D01*
X30075100Y-41804000D01*
G37*
G36*
X30075100Y-42404000D02*
G01*
X27098400Y-42404000D01*
X27092400Y-42381600D01*
X27087100Y-42365600D01*
X27080100Y-42350200D01*
X27051400Y-42296000D01*
X30075100Y-42296000D01*
X30075100Y-42404000D01*
G37*
G36*
X30075100Y-42804000D02*
G01*
X27197900Y-42804000D01*
X27196700Y-42783000D01*
X27195000Y-42768000D01*
X27191800Y-42753300D01*
X27176500Y-42696000D01*
X30075100Y-42696000D01*
X30075100Y-42804000D01*
G37*
G36*
X30075100Y-43304000D02*
G01*
X27177500Y-43304000D01*
X27190500Y-43256100D01*
X27193800Y-43241200D01*
X27195500Y-43226100D01*
X27197400Y-43196000D01*
X30075100Y-43196000D01*
X30075100Y-43304000D01*
G37*
G36*
X30075100Y-43704000D02*
G01*
X27060800Y-43704000D01*
X27070000Y-43686300D01*
X27076700Y-43671700D01*
X27081700Y-43656300D01*
X27098100Y-43596000D01*
X30075100Y-43596000D01*
X30075100Y-43704000D01*
G37*
G36*
X30075100Y-44104000D02*
G01*
X26790400Y-44104000D01*
X26821600Y-44077000D01*
X26834000Y-44064900D01*
X26845000Y-44051400D01*
X26885000Y-43996000D01*
X30075100Y-43996000D01*
X30075100Y-44104000D01*
G37*
G36*
X35841400Y-46130500D02*
G01*
X35830800Y-46195100D01*
X35828700Y-46204000D01*
X33324700Y-46204000D01*
X33324900Y-46200000D01*
X33324900Y-46096000D01*
X35844800Y-46096000D01*
X35841400Y-46130500D01*
G37*
G36*
X35830800Y-41604900D02*
G01*
X35841400Y-41669500D01*
X35844800Y-41704000D01*
X33324900Y-41704000D01*
X33324900Y-41600000D01*
X33324700Y-41596000D01*
X35828700Y-41596000D01*
X35830800Y-41604900D01*
G37*
G36*
X26342400Y-44504000D02*
G01*
X25370400Y-44504000D01*
X25352100Y-44461200D01*
X24911000Y-44461200D01*
X24911000Y-44504000D01*
X23977600Y-44504000D01*
X23977600Y-44396000D01*
X26292700Y-44396000D01*
X26342400Y-44504000D01*
G37*
G36*
X30075100Y-44404000D02*
G01*
X26461500Y-44404000D01*
X26449100Y-44377100D01*
X26497900Y-44351900D01*
X26513100Y-44342800D01*
X26527200Y-44332000D01*
X26568800Y-44296000D01*
X30075100Y-44296000D01*
X30075100Y-44404000D01*
G37*
G36*
X31170300Y-43390000D02*
G01*
X32229700Y-43390000D01*
X32229700Y-43296000D01*
X33174900Y-43296000D01*
X33174900Y-43404000D01*
X30225100Y-43404000D01*
X30225100Y-43296000D01*
X31170300Y-43296000D01*
X31170300Y-43390000D01*
G37*
G36*
X33174900Y-44304000D02*
G01*
X32229700Y-44304000D01*
X32229700Y-44240700D01*
X31170300Y-44240700D01*
X31170300Y-44304000D01*
X30225100Y-44304000D01*
X30225100Y-44196000D01*
X33174900Y-44196000D01*
X33174900Y-44304000D01*
G37*
G36*
X35643400Y-46608800D02*
G01*
X35601800Y-46659300D01*
X35560000Y-46704000D01*
X15240000Y-46704000D01*
X15198200Y-46659300D01*
X15156600Y-46608800D01*
X15147500Y-46596000D01*
X35652500Y-46596000D01*
X35643400Y-46608800D01*
G37*
G36*
X35716000Y-46500000D02*
G01*
X35681500Y-46555600D01*
X35646800Y-46604000D01*
X15153200Y-46604000D01*
X15118500Y-46555600D01*
X15084000Y-46500000D01*
X15081800Y-46496000D01*
X35718200Y-46496000D01*
X35716000Y-46500000D01*
G37*
G36*
X35601800Y-41140700D02*
G01*
X35643400Y-41191200D01*
X35652500Y-41204000D01*
X15147500Y-41204000D01*
X15156600Y-41191200D01*
X15198200Y-41140700D01*
X15240000Y-41096000D01*
X35560000Y-41096000D01*
X35601800Y-41140700D01*
G37*
G36*
X35746900Y-46442300D02*
G01*
X35716000Y-46500000D01*
X35713500Y-46504000D01*
X15086500Y-46504000D01*
X15084000Y-46500000D01*
X15053100Y-46442300D01*
X15032200Y-46396000D01*
X35767800Y-46396000D01*
X35746900Y-46442300D01*
G37*
G36*
X35681500Y-41244400D02*
G01*
X35716000Y-41300000D01*
X35718200Y-41304000D01*
X15081800Y-41304000D01*
X15084000Y-41300000D01*
X15118500Y-41244400D01*
X15153200Y-41196000D01*
X35646800Y-41196000D01*
X35681500Y-41244400D01*
G37*
G36*
X35716000Y-41300000D02*
G01*
X35746900Y-41357700D01*
X35767800Y-41404000D01*
X15032200Y-41404000D01*
X15053100Y-41357700D01*
X15084000Y-41300000D01*
X15086500Y-41296000D01*
X35713500Y-41296000D01*
X35716000Y-41300000D01*
G37*
G36*
X30075100Y-46200000D02*
G01*
X30075300Y-46204000D01*
X27272000Y-46204000D01*
X27272300Y-46195400D01*
X27270400Y-46175500D01*
X27265800Y-46156000D01*
X27258700Y-46137300D01*
X27239700Y-46096000D01*
X30075100Y-46096000D01*
X30075100Y-46200000D01*
G37*
G36*
X18654300Y-45349300D02*
G01*
X19202700Y-45349300D01*
X19338000Y-45338300D01*
X19449100Y-45296000D01*
X20685300Y-45296000D01*
X20679000Y-45320500D01*
X20637100Y-45404000D01*
X17709100Y-45404000D01*
X17709100Y-45296000D01*
X18654300Y-45296000D01*
X18654300Y-45349300D01*
G37*
G36*
X20679000Y-42468800D02*
G01*
X20688000Y-42504000D01*
X19451500Y-42504000D01*
X19338000Y-42461500D01*
X19202700Y-42450700D01*
X18654300Y-42450700D01*
X18654300Y-42504000D01*
X17709100Y-42504000D01*
X17709100Y-42396000D01*
X20642300Y-42396000D01*
X20679000Y-42468800D01*
G37*
G36*
X24911000Y-43642000D02*
G01*
X25452500Y-43642000D01*
X25601200Y-43632200D01*
X25713400Y-43596000D01*
X26942700Y-43596000D01*
X26937000Y-43617000D01*
X26891600Y-43704000D01*
X23977600Y-43704000D01*
X23977600Y-43596000D01*
X24911000Y-43596000D01*
X24911000Y-43642000D01*
G37*
G36*
X26947500Y-42420300D02*
G01*
X26969900Y-42504000D01*
X25822600Y-42504000D01*
X25601200Y-42429500D01*
X25452500Y-42419200D01*
X24911000Y-42419200D01*
X24911000Y-42504000D01*
X23977600Y-42504000D01*
X23977600Y-42396000D01*
X26934600Y-42396000D01*
X26947500Y-42420300D01*
G37*
G36*
X35405600Y-46831500D02*
G01*
X35350000Y-46866000D01*
X35292300Y-46896900D01*
X35276600Y-46904000D01*
X15523400Y-46904000D01*
X15507700Y-46896900D01*
X15450000Y-46866000D01*
X15394400Y-46831500D01*
X15344900Y-46796000D01*
X35455100Y-46796000D01*
X35405600Y-46831500D01*
G37*
G36*
X35557100Y-46707100D02*
G01*
X35509300Y-46751800D01*
X35458800Y-46793400D01*
X35443900Y-46804000D01*
X15356100Y-46804000D01*
X15341200Y-46793400D01*
X15290700Y-46751800D01*
X15242900Y-46707100D01*
X15232500Y-46696000D01*
X35567500Y-46696000D01*
X35557100Y-46707100D01*
G37*
G36*
X35292300Y-40903100D02*
G01*
X35350000Y-40934000D01*
X35405600Y-40968500D01*
X35455100Y-41004000D01*
X15344900Y-41004000D01*
X15394400Y-40968500D01*
X15450000Y-40934000D01*
X15507700Y-40903100D01*
X15523400Y-40896000D01*
X35276600Y-40896000D01*
X35292300Y-40903100D01*
G37*
G36*
X35458800Y-41006600D02*
G01*
X35509300Y-41048200D01*
X35557100Y-41092900D01*
X35567500Y-41104000D01*
X15232500Y-41104000D01*
X15242900Y-41092900D01*
X15290700Y-41048200D01*
X15341200Y-41006600D01*
X15356100Y-40996000D01*
X35443900Y-40996000D01*
X35458800Y-41006600D01*
G37*
G36*
X17590100Y-41508700D02*
G01*
X17579200Y-41525000D01*
X17570500Y-41542600D01*
X17564200Y-41561200D01*
X17560400Y-41580400D01*
X17559100Y-41600000D01*
X17559100Y-41604000D01*
X14969400Y-41604000D01*
X14984100Y-41541200D01*
X14997800Y-41496000D01*
X17601200Y-41496000D01*
X17590100Y-41508700D01*
G37*
G36*
X17559100Y-46200000D02*
G01*
X17560400Y-46219600D01*
X17564200Y-46238800D01*
X17570500Y-46257400D01*
X17579200Y-46275000D01*
X17590100Y-46291300D01*
X17601200Y-46304000D01*
X14997800Y-46304000D01*
X14984100Y-46258800D01*
X14969400Y-46196000D01*
X17559100Y-46196000D01*
X17559100Y-46200000D01*
G37*
G36*
X35815900Y-46258800D02*
G01*
X35802200Y-46304000D01*
X33282800Y-46304000D01*
X33293900Y-46291300D01*
X33304800Y-46275000D01*
X33313500Y-46257400D01*
X33319800Y-46238800D01*
X33323600Y-46219600D01*
X33324900Y-46200000D01*
X33324900Y-46196000D01*
X35830600Y-46196000D01*
X35815900Y-46258800D01*
G37*
G36*
X35815900Y-41541200D02*
G01*
X35830600Y-41604000D01*
X33324900Y-41604000D01*
X33324900Y-41600000D01*
X33323600Y-41580400D01*
X33319800Y-41561200D01*
X33313500Y-41542600D01*
X33304800Y-41525000D01*
X33293900Y-41508700D01*
X33282800Y-41496000D01*
X35802200Y-41496000D01*
X35815900Y-41541200D01*
G37*
G36*
X23858600Y-41508700D02*
G01*
X23847700Y-41525000D01*
X23839000Y-41542600D01*
X23832700Y-41561200D01*
X23828900Y-41580400D01*
X23827600Y-41600000D01*
X23827600Y-41604000D01*
X20001100Y-41604000D01*
X19911200Y-41565300D01*
X19884000Y-41556500D01*
X19608200Y-41496000D01*
X23869700Y-41496000D01*
X23858600Y-41508700D01*
G37*
G36*
X23827600Y-46200000D02*
G01*
X23828900Y-46219600D01*
X23832700Y-46238800D01*
X23839000Y-46257400D01*
X23847700Y-46275000D01*
X23858600Y-46291300D01*
X23869700Y-46304000D01*
X19605100Y-46304000D01*
X19884500Y-46241700D01*
X19912000Y-46232700D01*
X19995800Y-46196000D01*
X23827600Y-46196000D01*
X23827600Y-46200000D01*
G37*
G36*
X30106100Y-41508700D02*
G01*
X30095200Y-41525000D01*
X30086500Y-41542600D01*
X30080200Y-41561200D01*
X30076400Y-41580400D01*
X30075100Y-41600000D01*
X30075100Y-41604000D01*
X26290700Y-41604000D01*
X26170600Y-41556400D01*
X26144700Y-41548700D01*
X25881400Y-41496000D01*
X30117200Y-41496000D01*
X30106100Y-41508700D01*
G37*
G36*
X25957500Y-46259000D02*
G01*
X25966300Y-46276300D01*
X25977300Y-46292400D01*
X25987600Y-46304000D01*
X25018900Y-46304000D01*
X25030000Y-46291300D01*
X25040900Y-46275000D01*
X25049600Y-46257400D01*
X25055900Y-46238800D01*
X25059700Y-46219600D01*
X25061000Y-46200000D01*
X25061000Y-46196000D01*
X25930600Y-46196000D01*
X25957500Y-46259000D01*
G37*
G36*
X30075100Y-46200000D02*
G01*
X30076400Y-46219600D01*
X30080200Y-46238800D01*
X30086500Y-46257400D01*
X30095200Y-46275000D01*
X30106100Y-46291300D01*
X30117200Y-46304000D01*
X27230400Y-46304000D01*
X27243000Y-46289200D01*
X27253800Y-46272300D01*
X27262300Y-46254200D01*
X27268200Y-46235100D01*
X27271600Y-46215400D01*
X27272300Y-46196000D01*
X30075100Y-46196000D01*
X30075100Y-46200000D01*
G37*
G36*
X32110700Y-41508700D02*
G01*
X32099800Y-41525000D01*
X32091100Y-41542600D01*
X32084800Y-41561200D01*
X32081000Y-41580400D01*
X32079700Y-41600000D01*
X32079700Y-41604000D01*
X31320300Y-41604000D01*
X31320300Y-41600000D01*
X31319000Y-41580400D01*
X31315200Y-41561200D01*
X31308900Y-41542600D01*
X31300200Y-41525000D01*
X31289300Y-41508700D01*
X31278200Y-41496000D01*
X32121800Y-41496000D01*
X32110700Y-41508700D01*
G37*
G36*
X32079700Y-46200000D02*
G01*
X32081000Y-46219600D01*
X32084800Y-46238800D01*
X32091100Y-46257400D01*
X32099800Y-46275000D01*
X32110700Y-46291300D01*
X32121800Y-46304000D01*
X31278200Y-46304000D01*
X31289300Y-46291300D01*
X31300200Y-46275000D01*
X31308900Y-46257400D01*
X31315200Y-46238800D01*
X31319000Y-46219600D01*
X31320300Y-46200000D01*
X31320300Y-46196000D01*
X32079700Y-46196000D01*
X32079700Y-46200000D01*
G37*
G36*
X35292300Y-46896900D02*
G01*
X35232700Y-46923900D01*
X35171400Y-46946900D01*
X35108800Y-46965900D01*
X35045100Y-46980800D01*
X34980500Y-46991400D01*
X34915400Y-46997900D01*
X34850000Y-47000000D01*
X15950000Y-47000000D01*
X15884600Y-46997900D01*
X15819500Y-46991400D01*
X15754900Y-46980800D01*
X15691200Y-46965900D01*
X15628600Y-46946900D01*
X15567300Y-46923900D01*
X15507700Y-46896900D01*
X15506100Y-46896000D01*
X35293900Y-46896000D01*
X35292300Y-46896900D01*
G37*
G36*
X34915400Y-40802100D02*
G01*
X34980500Y-40808600D01*
X35045100Y-40819200D01*
X35108800Y-40834100D01*
X35171400Y-40853100D01*
X35232700Y-40876100D01*
X35292300Y-40903100D01*
X35293900Y-40904000D01*
X15506100Y-40904000D01*
X15507700Y-40903100D01*
X15567300Y-40876100D01*
X15628600Y-40853100D01*
X15691200Y-40834100D01*
X15754900Y-40819200D01*
X15819500Y-40808600D01*
X15884600Y-40802100D01*
X15950000Y-40800000D01*
X34850000Y-40800000D01*
X34915400Y-40802100D01*
G37*
G36*
X2050000Y-5511000D02*
G01*
X2217000Y-5601000D01*
X2390000Y-5679000D01*
X2568000Y-5746000D01*
X2749000Y-5801000D01*
X2934000Y-5844000D01*
X3121000Y-5875000D01*
X3310000Y-5894000D01*
X3400000Y-5897000D01*
X3400000Y-13722000D01*
X3207000Y-13780000D01*
X2999000Y-13859000D01*
X2796000Y-13951000D01*
X2600000Y-14056000D01*
X2411000Y-14173000D01*
X2230000Y-14303000D01*
X2058000Y-14444000D01*
X2000000Y-14498000D01*
X2000000Y-5480000D01*
X2050000Y-5511000D01*
G37*
G36*
X2058000Y-74456000D02*
G01*
X2230000Y-74597000D01*
X2411000Y-74727000D01*
X2600000Y-74844000D01*
X2796000Y-74949000D01*
X2999000Y-75041000D01*
X3207000Y-75120000D01*
X3400000Y-75178000D01*
X3400000Y-83003000D01*
X3310000Y-83006000D01*
X3121000Y-83025000D01*
X2934000Y-83056000D01*
X2749000Y-83099000D01*
X2568000Y-83154000D01*
X2390000Y-83221000D01*
X2217000Y-83299000D01*
X2050000Y-83389000D01*
X2000000Y-83420000D01*
X2000000Y-74402000D01*
X2058000Y-74456000D01*
G37*
G36*
X48800000Y-14498000D02*
G01*
X48742000Y-14444000D01*
X48570000Y-14303000D01*
X48389000Y-14173000D01*
X48200000Y-14056000D01*
X48004000Y-13951000D01*
X47801000Y-13859000D01*
X47593000Y-13780000D01*
X47400000Y-13722000D01*
X47400000Y-5897000D01*
X47490000Y-5894000D01*
X47679000Y-5875000D01*
X47866000Y-5844000D01*
X48051000Y-5801000D01*
X48232000Y-5746000D01*
X48410000Y-5679000D01*
X48583000Y-5601000D01*
X48750000Y-5511000D01*
X48800000Y-5480000D01*
X48800000Y-14498000D01*
G37*
G36*
X48800000Y-83420000D02*
G01*
X48750000Y-83389000D01*
X48583000Y-83299000D01*
X48410000Y-83221000D01*
X48232000Y-83154000D01*
X48051000Y-83099000D01*
X47866000Y-83056000D01*
X47679000Y-83025000D01*
X47490000Y-83006000D01*
X47400000Y-83003000D01*
X47400000Y-75178000D01*
X47593000Y-75120000D01*
X47801000Y-75041000D01*
X48004000Y-74949000D01*
X48200000Y-74844000D01*
X48389000Y-74727000D01*
X48570000Y-74597000D01*
X48742000Y-74456000D01*
X48800000Y-74402000D01*
X48800000Y-83420000D01*
G37*
G36*
X44554000Y-2068000D02*
G01*
X44499000Y-2249000D01*
X44456000Y-2434000D01*
X44425000Y-2621000D01*
X44406000Y-2810000D01*
X44400000Y-3000000D01*
X44406000Y-3190000D01*
X44425000Y-3379000D01*
X44428000Y-3400000D01*
X6372000Y-3400000D01*
X6375000Y-3379000D01*
X6394000Y-3190000D01*
X6400000Y-3000000D01*
X6394000Y-2810000D01*
X6375000Y-2621000D01*
X6344000Y-2434000D01*
X6301000Y-2249000D01*
X6246000Y-2068000D01*
X6221000Y-2000000D01*
X44579000Y-2000000D01*
X44554000Y-2068000D01*
G37*
G36*
X44425000Y-85521000D02*
G01*
X44406000Y-85710000D01*
X44400000Y-85900000D01*
X44406000Y-86090000D01*
X44425000Y-86279000D01*
X44456000Y-86466000D01*
X44499000Y-86651000D01*
X44554000Y-86832000D01*
X44579000Y-86900000D01*
X6221000Y-86900000D01*
X6246000Y-86832000D01*
X6301000Y-86651000D01*
X6344000Y-86466000D01*
X6375000Y-86279000D01*
X6394000Y-86090000D01*
X6400000Y-85900000D01*
X6394000Y-85710000D01*
X6375000Y-85521000D01*
X6372000Y-85500000D01*
X44428000Y-85500000D01*
X44425000Y-85521000D01*
G37*
G36*
X35773900Y-41417300D02*
G01*
X35796900Y-41478600D01*
X35804600Y-41504000D01*
X33289800Y-41504000D01*
X33281000Y-41493900D01*
X33266200Y-41481000D01*
X33249900Y-41470100D01*
X33232300Y-41461400D01*
X33213700Y-41455100D01*
X33194500Y-41451300D01*
X33174900Y-41450000D01*
X32229700Y-41450000D01*
X32210100Y-41451300D01*
X32190900Y-41455100D01*
X32172300Y-41461400D01*
X32154700Y-41470100D01*
X32138400Y-41481000D01*
X32123600Y-41493900D01*
X32114800Y-41504000D01*
X31285200Y-41504000D01*
X31276400Y-41493900D01*
X31261600Y-41481000D01*
X31245300Y-41470100D01*
X31227700Y-41461400D01*
X31209100Y-41455100D01*
X31189900Y-41451300D01*
X31170300Y-41450000D01*
X30225100Y-41450000D01*
X30205500Y-41451300D01*
X30186300Y-41455100D01*
X30167700Y-41461400D01*
X30150100Y-41470100D01*
X30133800Y-41481000D01*
X30119000Y-41493900D01*
X30110200Y-41504000D01*
X25921300Y-41504000D01*
X25719400Y-41463600D01*
X25696700Y-41460800D01*
X25459200Y-41450200D01*
X25452500Y-41450000D01*
X23977600Y-41450000D01*
X23958000Y-41451300D01*
X23938800Y-41455100D01*
X23920200Y-41461400D01*
X23902600Y-41470100D01*
X23886300Y-41481000D01*
X23871500Y-41493900D01*
X23862700Y-41504000D01*
X19644600Y-41504000D01*
X19466500Y-41464900D01*
X19441800Y-41461600D01*
X19210100Y-41450200D01*
X19202700Y-41450000D01*
X17709100Y-41450000D01*
X17689500Y-41451300D01*
X17670300Y-41455100D01*
X17651700Y-41461400D01*
X17634100Y-41470100D01*
X17617800Y-41481000D01*
X17603100Y-41493900D01*
X17594200Y-41504000D01*
X14995400Y-41504000D01*
X15003100Y-41478600D01*
X15026100Y-41417300D01*
X15035800Y-41396000D01*
X35764200Y-41396000D01*
X35773900Y-41417300D01*
G37*
G36*
X17603100Y-46306100D02*
G01*
X17617800Y-46319000D01*
X17634100Y-46329900D01*
X17651700Y-46338600D01*
X17670300Y-46344900D01*
X17689500Y-46348700D01*
X17709100Y-46350000D01*
X19202700Y-46350000D01*
X19210300Y-46349800D01*
X19441900Y-46338200D01*
X19467000Y-46334800D01*
X19641000Y-46296000D01*
X23862700Y-46296000D01*
X23871500Y-46306100D01*
X23886300Y-46319000D01*
X23902600Y-46329900D01*
X23920200Y-46338600D01*
X23938800Y-46344900D01*
X23958000Y-46348700D01*
X23977600Y-46350000D01*
X24911000Y-46350000D01*
X24930600Y-46348700D01*
X24949800Y-46344900D01*
X24968400Y-46338600D01*
X24986000Y-46329900D01*
X25002300Y-46319000D01*
X25017100Y-46306100D01*
X25025900Y-46296000D01*
X25980500Y-46296000D01*
X25990200Y-46306900D01*
X26004900Y-46319600D01*
X26021100Y-46330300D01*
X26038600Y-46338800D01*
X26057000Y-46345000D01*
X26076100Y-46348700D01*
X26095500Y-46350000D01*
X27122400Y-46350000D01*
X27142300Y-46348700D01*
X27162000Y-46344700D01*
X27180900Y-46338100D01*
X27198700Y-46329100D01*
X27215200Y-46317800D01*
X27230100Y-46304400D01*
X27237200Y-46296000D01*
X30110200Y-46296000D01*
X30119000Y-46306100D01*
X30133800Y-46319000D01*
X30150100Y-46329900D01*
X30167700Y-46338600D01*
X30186300Y-46344900D01*
X30205500Y-46348700D01*
X30225100Y-46350000D01*
X31170300Y-46350000D01*
X31189900Y-46348700D01*
X31209100Y-46344900D01*
X31227700Y-46338600D01*
X31245300Y-46329900D01*
X31261600Y-46319000D01*
X31276400Y-46306100D01*
X31285200Y-46296000D01*
X32114800Y-46296000D01*
X32123600Y-46306100D01*
X32138400Y-46319000D01*
X32154700Y-46329900D01*
X32172300Y-46338600D01*
X32190900Y-46344900D01*
X32210100Y-46348700D01*
X32229700Y-46350000D01*
X33174900Y-46350000D01*
X33194500Y-46348700D01*
X33213700Y-46344900D01*
X33232300Y-46338600D01*
X33249900Y-46329900D01*
X33266200Y-46319000D01*
X33281000Y-46306100D01*
X33289800Y-46296000D01*
X35804600Y-46296000D01*
X35796900Y-46321400D01*
X35773900Y-46382700D01*
X35764200Y-46404000D01*
X15035800Y-46404000D01*
X15026100Y-46382700D01*
X15003100Y-46321400D01*
X14995400Y-46296000D01*
X17594200Y-46296000D01*
X17603100Y-46306100D01*
G37*
D11*
X1250000Y-3850000D02*
X3850000Y-1250000D01*
X1250000Y-85050000D02*
X1250000Y-3850000D01*
X3850000Y-1250000D02*
X46950000Y-1250000D01*
X3850000Y-87650000D02*
X1250000Y-85050000D01*
X46950000Y-1250000D02*
X49550000Y-3850000D01*
X46950000Y-87650000D02*
X3850000Y-87650000D01*
X49550000Y-3850000D02*
X49550000Y-85050000D01*
X49550000Y-85050000D02*
X46950000Y-87650000D01*
D12*
%TO.C,MH3*%
X3000000Y-3000000D03*
%TD*%
D13*
%TO.C,PV2*%
X7400000Y-71900000D03*
D14*
X4300000Y-71900000D03*
D13*
X43400000Y-71900000D03*
D14*
X46500000Y-71900000D03*
%TD*%
D12*
%TO.C,MH2*%
X47800000Y-85900000D03*
%TD*%
%TO.C,MH1*%
X3000000Y-85900000D03*
%TD*%
%TO.C,MH4*%
X47800000Y-3000000D03*
%TD*%
D13*
%TO.C,PV1*%
X7400000Y-17000000D03*
D14*
X4300000Y-17000000D03*
D13*
X43400000Y-17000000D03*
D14*
X46500000Y-17000000D03*
%TD*%
D15*
%TO.C,*%
X10760000Y-14360000D03*
X10760000Y-17535000D03*
D16*
X12284000Y-19440000D03*
X13300000Y-14360000D03*
X14316000Y-19440000D03*
D15*
X15840000Y-14360000D03*
X15840000Y-17535000D03*
D17*
X37900000Y-75400000D03*
%TD*%
M02*
