M48
; DRILL file KiCad 10.0.4-10.0.4~ubuntu25.10.1 date 2026-07-13T10:49:35
; FORMAT={-:-/ absolute / metric / decimal}
; #@! TF.CreationDate,2026-07-13T10:49:35+00:00
; #@! TF.GenerationSoftware,Kicad,Pcbnew,10.0.4-10.0.4~ubuntu25.10.1
; #@! TF.FileFunction,Plated,1,2,PTH
FMAT,2
METRIC
; #@! TA.AperFunction,Plated,PTH,ViaDrill
T1C0.300
; #@! TA.AperFunction,Plated,PTH,ComponentDrill
T2C2.200
%
G90
G05
T1
X3.476Y-40.72
X4.0Y-31.0
X5.417Y-44.383
X5.444Y-33.875
X5.543Y-38.501
X5.802Y-35.827
X6.22Y-27.912
X6.276Y-41.102
X6.528Y-42.669
X6.923Y-37.291
X7.0Y-8.0
X7.345Y-41.106
X7.4Y-40.1
X7.62Y-39.39
X7.63Y-25.4
X7.836Y-47.264
X7.925Y-37.262
X7.95Y-32.0
X8.456Y-27.9
X10.744Y-47.142
X10.91Y-21.2
X11.019Y-44.087
X11.242Y-42.308
X11.252Y-39.903
X11.627Y-30.293
X11.9Y-47.15
X12.0Y-45.65
X12.65Y-44.15
X13.211Y-16.123
X13.366Y-43.792
X13.375Y-39.625
X13.411Y-53.48
X14.001Y-48.741
X16.761Y-47.524
X20.185Y-47.503
X21.175Y-47.51
X22.256Y-48.176
X22.75Y-39.65
X24.13Y-47.697
X24.917Y-31.877
X25.225Y-30.125
X25.581Y-48.268
X25.65Y-37.15
X26.719Y-49.185
X28.352Y-47.698
X28.7Y-6.15
X29.524Y-48.19
X30.226Y-30.78
X30.226Y-33.02
X30.226Y-34.036
X31.323Y-29.186
X31.75Y-37.0
X32.004Y-32.131
X32.233Y-35.001
X32.47Y-48.32
X33.0Y-31.4
X33.25Y-33.203
X33.325Y-47.65
X33.895Y-33.676
X34.232Y-35.423
X34.323Y-36.526
X35.15Y-37.33
X35.733Y-47.69
X35.853Y-34.801
X36.0Y-48.77
X36.308Y-30.665
X42.9Y-38.0
X44.723Y-21.912
X44.75Y-23.0
X45.0Y-74.75
X45.24Y-68.08
X45.37Y-76.72
X45.7Y-74.04
X46.15Y-13.097
X46.16Y-22.12
X46.272Y-63.714
X46.29Y-68.65
X46.3Y-68.05
X46.696Y-19.635
X46.748Y-65.632
X46.773Y-67.11
X46.882Y-64.71
X46.9Y-80.45
X48.579Y-69.926
T2
X3.0Y-3.0
X3.0Y-28.5
X3.0Y-60.4
X3.0Y-85.9
X47.8Y-3.0
X47.8Y-28.5
X47.8Y-60.4
X47.8Y-85.9
M30
