%TF.GenerationSoftware,KiCad,Pcbnew,10.0.4-10.0.4~ubuntu25.10.1*%
%TF.CreationDate,Date%
%TF.ProjectId,solar-glow-drh-v3_0,736f6c61-722d-4676-9c6f-772d6472682d,rev?*%
%TF.SameCoordinates,Original*%
%TF.FileFunction,Paste,Bot*%
%TF.FilePolarity,Positive*%
%FSLAX46Y46*%
G04 Gerber Fmt 4.6, Leading zero omitted, Abs format (unit mm)*
G04 Created by KiCad*
%MOMM*%
%LPD*%
G01*
G04 APERTURE LIST*
G04 Aperture macros list*
%AMRoundRect*
0 Rectangle with rounded corners*
0 $1 Rounding radius*
0 $2 $3 $4 $5 $6 $7 $8 $9 X,Y pos of 4 corners*
0 Add a 4 corners polygon primitive as box body*
4,1,4,$2,$3,$4,$5,$6,$7,$8,$9,$2,$3,0*
0 Add four circle primitives for the rounded corners*
1,1,$1+$1,$2,$3*
1,1,$1+$1,$4,$5*
1,1,$1+$1,$6,$7*
1,1,$1+$1,$8,$9*
0 Add four rect primitives between the rounded corners*
20,1,$1+$1,$2,$3,$4,$5,0*
20,1,$1+$1,$4,$5,$6,$7,0*
20,1,$1+$1,$6,$7,$8,$9,0*
20,1,$1+$1,$8,$9,$2,$3,0*%
G04 Aperture macros list end*
%ADD10RoundRect,0.875000X5.250000X-0.875000X5.250000X0.875000X-5.250000X0.875000X-5.250000X-0.875000X0*%
%ADD11RoundRect,0.875000X3.000000X-0.875000X3.000000X0.875000X-3.000000X0.875000X-3.000000X-0.875000X0*%
%ADD12RoundRect,0.147500X-0.147500X-0.182500X0.147500X-0.182500X0.147500X0.182500X-0.147500X0.182500X0*%
%ADD13RoundRect,0.147500X-0.182500X-0.147500X0.182500X-0.147500X0.182500X0.147500X-0.182500X0.147500X0*%
%ADD14RoundRect,0.150000X0.150000X-0.512500X0.150000X0.512500X-0.150000X0.512500X-0.150000X-0.512500X0*%
%ADD15RoundRect,0.187500X-0.187500X-0.212500X0.187500X-0.212500X0.187500X0.212500X-0.187500X0.212500X0*%
%ADD16RoundRect,0.125000X-0.125000X-0.175000X0.125000X-0.175000X0.125000X0.175000X-0.125000X0.175000X0*%
%ADD17RoundRect,0.150000X-0.150000X-0.300000X0.150000X-0.300000X0.150000X0.300000X-0.150000X0.300000X0*%
%ADD18RoundRect,0.250000X-0.350000X-0.250000X0.350000X-0.250000X0.350000X0.250000X-0.350000X0.250000X0*%
%ADD19RoundRect,0.162500X-0.162500X-0.187500X0.162500X-0.187500X0.162500X0.187500X-0.162500X0.187500X0*%
%ADD20RoundRect,0.050000X-0.350000X-0.050000X0.350000X-0.050000X0.350000X0.050000X-0.350000X0.050000X0*%
%ADD21RoundRect,0.050000X-0.050000X-0.350000X0.050000X-0.350000X0.050000X0.350000X-0.050000X0.350000X0*%
%ADD22RoundRect,0.662500X-0.662500X-0.662500X0.662500X-0.662500X0.662500X0.662500X-0.662500X0.662500X0*%
%ADD23RoundRect,0.375000X-0.375000X-0.625000X0.375000X-0.625000X0.375000X0.625000X-0.375000X0.625000X0*%
%ADD24RoundRect,0.062500X-0.137500X-0.062500X0.137500X-0.062500X0.137500X0.062500X-0.137500X0.062500X0*%
%ADD25RoundRect,0.062500X-0.062500X-0.137500X0.062500X-0.137500X0.062500X0.137500X-0.062500X0.137500X0*%
%ADD26RoundRect,0.250000X-0.250000X-0.350000X0.250000X-0.350000X0.250000X0.350000X-0.250000X0.350000X0*%
%ADD27RoundRect,0.875000X-5.250000X0.875000X-5.250000X-0.875000X5.250000X-0.875000X5.250000X0.875000X0*%
%ADD28RoundRect,0.875000X-3.000000X0.875000X-3.000000X-0.875000X3.000000X-0.875000X3.000000X0.875000X0*%
%ADD29C,0.900000*%
%ADD30RoundRect,0.100000X-0.100000X-0.150000X0.100000X-0.150000X0.100000X0.150000X-0.100000X0.150000X0*%
%ADD31RoundRect,0.250000X-0.250000X-0.450000X0.250000X-0.450000X0.250000X0.450000X-0.250000X0.450000X0*%
%ADD32RoundRect,0.062500X-0.062500X-0.087500X0.062500X-0.087500X0.062500X0.087500X-0.062500X0.087500X0*%
%ADD33RoundRect,0.150000X-0.625000X-0.150000X0.625000X-0.150000X0.625000X0.150000X-0.625000X0.150000X0*%
G04 APERTURE END LIST*
D10*
%TO.C,SC1*%
X15500000Y-27900000D03*
D11*
X15500000Y-5900000D03*
%TD*%
D12*
%TO.C,R2*%
X21890000Y-49600000D03*
X22910000Y-49600000D03*
%TD*%
D13*
%TO.C,R7*%
X45990000Y-72000000D03*
X47010000Y-72000000D03*
%TD*%
D14*
%TO.C,U6*%
X7292500Y-33337500D03*
X6342500Y-33337500D03*
X5392500Y-33337500D03*
X5392500Y-31062500D03*
X6342500Y-31062500D03*
X7292500Y-31062500D03*
%TD*%
D12*
%TO.C,R10*%
X15490000Y-32400000D03*
X16510000Y-32400000D03*
%TD*%
D15*
%TO.C,SW2*%
X23100000Y-48600000D03*
X24000000Y-48600000D03*
X24900000Y-48600000D03*
%TD*%
D16*
%TO.C,U4*%
X46100000Y-67500000D03*
X46100000Y-68500000D03*
X47300000Y-68000000D03*
%TD*%
D12*
%TO.C,C1*%
X8990000Y-45500000D03*
X10010000Y-45500000D03*
%TD*%
%TO.C,C6*%
X22190000Y-36400000D03*
X23210000Y-36400000D03*
%TD*%
%TO.C,R6*%
X7090000Y-50400000D03*
X8110000Y-50400000D03*
%TD*%
D17*
%TO.C,SB2*%
X21950000Y-52000000D03*
X22850000Y-52000000D03*
%TD*%
D18*
%TO.C,SJ1*%
X13300000Y-45050000D03*
X13300000Y-46950000D03*
%TD*%
D13*
%TO.C,R12*%
X31040000Y-48600000D03*
X32060000Y-48600000D03*
%TD*%
D19*
%TO.C,D4*%
X27400000Y-44300000D03*
X30000000Y-43500000D03*
%TD*%
D20*
%TO.C,U1*%
X7500000Y-39700000D03*
X7500000Y-40100000D03*
X7500000Y-40500000D03*
X7500000Y-40900000D03*
X7500000Y-41300000D03*
X7500000Y-41700000D03*
X7500000Y-42100000D03*
D21*
X8300000Y-42900000D03*
X8700000Y-42900000D03*
X9100000Y-42900000D03*
X9500000Y-42900000D03*
X9900000Y-42900000D03*
X10300000Y-42900000D03*
X10700000Y-42900000D03*
D20*
X11500000Y-42100000D03*
X11500000Y-41700000D03*
X11500000Y-41300000D03*
X11500000Y-40900000D03*
X11500000Y-40500000D03*
X11500000Y-40100000D03*
X11500000Y-39700000D03*
D21*
X10700000Y-38900000D03*
X10300000Y-38900000D03*
X9900000Y-38900000D03*
X9500000Y-38900000D03*
X9100000Y-38900000D03*
X8700000Y-38900000D03*
X8300000Y-38900000D03*
D22*
X9500000Y-40900000D03*
%TD*%
D23*
%TO.C,J1*%
X4700000Y-35860000D03*
X4700000Y-38400000D03*
X4700000Y-40940000D03*
%TD*%
D19*
%TO.C,D5*%
X33400000Y-44300000D03*
X36000000Y-43500000D03*
%TD*%
D12*
%TO.C,R4*%
X34190000Y-49600000D03*
X35210000Y-49600000D03*
%TD*%
D24*
%TO.C,U5*%
X34100000Y-33750000D03*
X34100000Y-34250000D03*
D25*
X34550000Y-34700000D03*
X35050000Y-34700000D03*
D24*
X35500000Y-34250000D03*
X35500000Y-33750000D03*
D25*
X35050000Y-33300000D03*
X34550000Y-33300000D03*
%TD*%
D12*
%TO.C,R3*%
X28190000Y-49600000D03*
X29210000Y-49600000D03*
%TD*%
%TO.C,C2*%
X8990000Y-36600000D03*
X10010000Y-36600000D03*
%TD*%
%TO.C,C8*%
X31790000Y-35500000D03*
X32810000Y-35500000D03*
%TD*%
%TO.C,C4*%
X27990000Y-33000000D03*
X29010000Y-33000000D03*
%TD*%
D17*
%TO.C,SB1*%
X15650000Y-52000000D03*
X16550000Y-52000000D03*
%TD*%
D26*
%TO.C,D1*%
X46500000Y-10150000D03*
X46500000Y-13850000D03*
%TD*%
D27*
%TO.C,SC3*%
X15500000Y-61000000D03*
D28*
X15500000Y-83000000D03*
%TD*%
D17*
%TO.C,SB4*%
X34250000Y-52000000D03*
X35150000Y-52000000D03*
%TD*%
D29*
%TO.C,TC1*%
X12665000Y-15630000D03*
X13935000Y-15630000D03*
X12665000Y-16900000D03*
X13935000Y-16900000D03*
X12665000Y-18170000D03*
X13935000Y-18170000D03*
%TD*%
D12*
%TO.C,C9*%
X31500000Y-38500000D03*
X32520000Y-38500000D03*
%TD*%
D26*
%TO.C,D9*%
X46500000Y-59150000D03*
X46500000Y-62850000D03*
%TD*%
D30*
%TO.C,Q1*%
X46900000Y-64500000D03*
X46900000Y-65500000D03*
D31*
X45700000Y-65000000D03*
%TD*%
D12*
%TO.C,C3*%
X11990000Y-48500000D03*
X13010000Y-48500000D03*
%TD*%
D19*
%TO.C,D3*%
X21100000Y-44300000D03*
X23700000Y-43500000D03*
%TD*%
%TO.C,D2*%
X14800000Y-44300000D03*
X17400000Y-43500000D03*
%TD*%
D32*
%TO.C,U3*%
X19250000Y-36650000D03*
X19250000Y-36150000D03*
X19250000Y-35650000D03*
X19250000Y-35150000D03*
X19750000Y-35150000D03*
X20250000Y-35150000D03*
X20750000Y-35150000D03*
X20750000Y-35650000D03*
X20750000Y-36150000D03*
X20750000Y-36650000D03*
X20250000Y-36650000D03*
X19750000Y-36650000D03*
%TD*%
D12*
%TO.C,C5*%
X6890000Y-52600000D03*
X7910000Y-52600000D03*
%TD*%
%TO.C,R11*%
X15490000Y-34960000D03*
X16510000Y-34960000D03*
%TD*%
%TO.C,R13*%
X31790000Y-37000000D03*
X32810000Y-37000000D03*
%TD*%
%TO.C,R1*%
X15590000Y-49600000D03*
X16610000Y-49600000D03*
%TD*%
D13*
%TO.C,C7*%
X45990000Y-75000000D03*
X47010000Y-75000000D03*
%TD*%
D33*
%TO.C,U2*%
X24900000Y-35095000D03*
X24900000Y-36365000D03*
X24900000Y-37635000D03*
X24900000Y-38905000D03*
X30100000Y-38905000D03*
X30100000Y-37635000D03*
X30100000Y-36365000D03*
X30100000Y-35095000D03*
%TD*%
D10*
%TO.C,SC4*%
X35300000Y-83000000D03*
D11*
X35300000Y-61000000D03*
%TD*%
D27*
%TO.C,SC2*%
X35300000Y-5900000D03*
D28*
X35300000Y-27900000D03*
%TD*%
D13*
%TO.C,R8*%
X45990000Y-73500000D03*
X47010000Y-73500000D03*
%TD*%
D12*
%TO.C,R5*%
X3990000Y-50400000D03*
X5010000Y-50400000D03*
%TD*%
D13*
%TO.C,R9*%
X45990000Y-70500000D03*
X47010000Y-70500000D03*
%TD*%
D17*
%TO.C,SB3*%
X28250000Y-52000000D03*
X29150000Y-52000000D03*
%TD*%
M02*
