%TF.GenerationSoftware,KiCad,Pcbnew,10.0.4-10.0.4~ubuntu25.10.1*%
%TF.CreationDate,Date%
%TF.ProjectId,solar-glow-drh-v3_0,736f6c61-722d-4676-9c6f-772d6472682d,rev?*%
%TF.SameCoordinates,Original*%
%TF.FileFunction,Copper,L2,Bot*%
%TF.FilePolarity,Positive*%
%FSLAX46Y46*%
G04 Gerber Fmt 4.6, Leading zero omitted, Abs format (unit mm)*
G04 Created by KiCad*
%MOMM*%
%LPD*%
G01*
G04 APERTURE LIST*
G04 Aperture macros list*
%AMRoundRect*
0 Rectangle with rounded corners*
0 $1 Rounding radius*
0 $2 $3 $4 $5 $6 $7 $8 $9 X,Y pos of 4 corners*
0 Add a 4 corners polygon primitive as box body*
4,1,4,$2,$3,$4,$5,$6,$7,$8,$9,$2,$3,0*
0 Add four circle primitives for the rounded corners*
1,1,$1+$1,$2,$3*
1,1,$1+$1,$4,$5*
1,1,$1+$1,$6,$7*
1,1,$1+$1,$8,$9*
0 Add four rect primitives between the rounded corners*
20,1,$1+$1,$2,$3,$4,$5,0*
20,1,$1+$1,$4,$5,$6,$7,0*
20,1,$1+$1,$6,$7,$8,$9,0*
20,1,$1+$1,$8,$9,$2,$3,0*%
G04 Aperture macros list end*
%TA.AperFunction,ComponentPad*%
%ADD10C,3.600000*%
%TD*%
%TA.AperFunction,SMDPad,CuDef*%
%ADD11RoundRect,0.875000X5.250000X-0.875000X5.250000X0.875000X-5.250000X0.875000X-5.250000X-0.875000X0*%
%TD*%
%TA.AperFunction,SMDPad,CuDef*%
%ADD12RoundRect,0.875000X3.000000X-0.875000X3.000000X0.875000X-3.000000X0.875000X-3.000000X-0.875000X0*%
%TD*%
%TA.AperFunction,SMDPad,CuDef*%
%ADD13RoundRect,0.147500X-0.147500X-0.182500X0.147500X-0.182500X0.147500X0.182500X-0.147500X0.182500X0*%
%TD*%
%TA.AperFunction,SMDPad,CuDef*%
%ADD14RoundRect,0.147500X-0.182500X-0.147500X0.182500X-0.147500X0.182500X0.147500X-0.182500X0.147500X0*%
%TD*%
%TA.AperFunction,SMDPad,CuDef*%
%ADD15RoundRect,0.150000X0.150000X-0.512500X0.150000X0.512500X-0.150000X0.512500X-0.150000X-0.512500X0*%
%TD*%
%TA.AperFunction,SMDPad,CuDef*%
%ADD16RoundRect,0.187500X-0.187500X-0.212500X0.187500X-0.212500X0.187500X0.212500X-0.187500X0.212500X0*%
%TD*%
%TA.AperFunction,SMDPad,CuDef*%
%ADD17RoundRect,0.125000X-0.125000X-0.175000X0.125000X-0.175000X0.125000X0.175000X-0.125000X0.175000X0*%
%TD*%
%TA.AperFunction,SMDPad,CuDef*%
%ADD18RoundRect,0.150000X-0.150000X-0.300000X0.150000X-0.300000X0.150000X0.300000X-0.150000X0.300000X0*%
%TD*%
%TA.AperFunction,SMDPad,CuDef*%
%ADD19RoundRect,0.250000X-0.350000X-0.250000X0.350000X-0.250000X0.350000X0.250000X-0.350000X0.250000X0*%
%TD*%
%TA.AperFunction,SMDPad,CuDef*%
%ADD20RoundRect,0.162500X-0.162500X-0.187500X0.162500X-0.187500X0.162500X0.187500X-0.162500X0.187500X0*%
%TD*%
%TA.AperFunction,SMDPad,CuDef*%
%ADD21RoundRect,0.050000X-0.350000X-0.050000X0.350000X-0.050000X0.350000X0.050000X-0.350000X0.050000X0*%
%TD*%
%TA.AperFunction,SMDPad,CuDef*%
%ADD22RoundRect,0.050000X-0.050000X-0.350000X0.050000X-0.350000X0.050000X0.350000X-0.050000X0.350000X0*%
%TD*%
%TA.AperFunction,SMDPad,CuDef*%
%ADD23RoundRect,0.662500X-0.662500X-0.662500X0.662500X-0.662500X0.662500X0.662500X-0.662500X0.662500X0*%
%TD*%
%TA.AperFunction,SMDPad,CuDef*%
%ADD24RoundRect,0.375000X-0.375000X-0.625000X0.375000X-0.625000X0.375000X0.625000X-0.375000X0.625000X0*%
%TD*%
%TA.AperFunction,SMDPad,CuDef*%
%ADD25RoundRect,0.062500X-0.137500X-0.062500X0.137500X-0.062500X0.137500X0.062500X-0.137500X0.062500X0*%
%TD*%
%TA.AperFunction,SMDPad,CuDef*%
%ADD26RoundRect,0.062500X-0.062500X-0.137500X0.062500X-0.137500X0.062500X0.137500X-0.062500X0.137500X0*%
%TD*%
%TA.AperFunction,SMDPad,CuDef*%
%ADD27RoundRect,0.250000X-0.250000X-0.350000X0.250000X-0.350000X0.250000X0.350000X-0.250000X0.350000X0*%
%TD*%
%TA.AperFunction,SMDPad,CuDef*%
%ADD28RoundRect,0.875000X-5.250000X0.875000X-5.250000X-0.875000X5.250000X-0.875000X5.250000X0.875000X0*%
%TD*%
%TA.AperFunction,SMDPad,CuDef*%
%ADD29RoundRect,0.875000X-3.000000X0.875000X-3.000000X-0.875000X3.000000X-0.875000X3.000000X0.875000X0*%
%TD*%
%TA.AperFunction,SMDPad,CuDef*%
%ADD30C,0.900000*%
%TD*%
%TA.AperFunction,SMDPad,CuDef*%
%ADD31RoundRect,0.100000X-0.100000X-0.150000X0.100000X-0.150000X0.100000X0.150000X-0.100000X0.150000X0*%
%TD*%
%TA.AperFunction,SMDPad,CuDef*%
%ADD32RoundRect,0.250000X-0.250000X-0.450000X0.250000X-0.450000X0.250000X0.450000X-0.250000X0.450000X0*%
%TD*%
%TA.AperFunction,SMDPad,CuDef*%
%ADD33RoundRect,0.062500X-0.062500X-0.087500X0.062500X-0.087500X0.062500X0.087500X-0.062500X0.087500X0*%
%TD*%
%TA.AperFunction,SMDPad,CuDef*%
%ADD34RoundRect,0.150000X-0.625000X-0.150000X0.625000X-0.150000X0.625000X0.150000X-0.625000X0.150000X0*%
%TD*%
%TA.AperFunction,ViaPad*%
%ADD35C,0.600000*%
%TD*%
%TA.AperFunction,Conductor*%
%ADD36C,0.250000*%
%TD*%
%TA.AperFunction,Conductor*%
%ADD37C,0.220000*%
%TD*%
%TA.AperFunction,Conductor*%
%ADD38C,0.200000*%
%TD*%
%TA.AperFunction,Conductor*%
%ADD39C,0.160000*%
%TD*%
%TA.AperFunction,Conductor*%
%ADD40C,0.300000*%
%TD*%
%TA.AperFunction,Conductor*%
%ADD41C,0.500000*%
%TD*%
%TA.AperFunction,Conductor*%
%ADD42C,0.150000*%
%TD*%
%TA.AperFunction,Conductor*%
%ADD43C,0.400000*%
%TD*%
G04 APERTURE END LIST*
D10*
%TO.P,MH3,1,1_1*%
%TO.N,GND*%
X3000000Y-3000000D03*
%TD*%
%TO.P,MH2,1,1_1*%
%TO.N,GND*%
X47800000Y-85900000D03*
%TD*%
%TO.P,MH1,1,1_1*%
%TO.N,GND*%
X3000000Y-85900000D03*
%TD*%
%TO.P,MH4,1,1_1*%
%TO.N,GND*%
X47800000Y-3000000D03*
%TD*%
D11*
%TO.P,SC1,N,N_N*%
%TO.N,MID*%
X15500000Y-27900000D03*
D12*
%TO.P,SC1,P,P_P*%
%TO.N,VS*%
X15500000Y-5900000D03*
%TD*%
D13*
%TO.P,R2,1,1_1*%
%TO.N,K3*%
X21890000Y-49600000D03*
%TO.P,R2,2,2_2*%
%TO.N,LDRV2*%
X22910000Y-49600000D03*
%TD*%
D14*
%TO.P,R7,1,1_1*%
%TO.N,VS*%
X45990000Y-72000000D03*
%TO.P,R7,2,2_2*%
%TO.N,CLREF*%
X47010000Y-72000000D03*
%TD*%
D15*
%TO.P,U6,1,VOUT_1*%
%TO.N,VNFC*%
X7292500Y-33337500D03*
%TO.P,U6,2,QOD_2*%
X6342500Y-33337500D03*
%TO.P,U6,3,ON_3*%
%TO.N,NFC_EN*%
X5392500Y-33337500D03*
%TO.P,U6,4,CT_4*%
%TO.N,unconnected-(U6-CT-Pad4)*%
X5392500Y-31062500D03*
%TO.P,U6,5,GND_5*%
%TO.N,GND*%
X6342500Y-31062500D03*
%TO.P,U6,6,VIN_6*%
%TO.N,VS*%
X7292500Y-31062500D03*
%TD*%
D13*
%TO.P,R10,1,1_1*%
%TO.N,SDA*%
X15490000Y-32400000D03*
%TO.P,R10,2,2_2*%
%TO.N,VS*%
X16510000Y-32400000D03*
%TD*%
D16*
%TO.P,SW2,1,1_1*%
%TO.N,VS*%
X23100000Y-48600000D03*
%TO.P,SW2,2,2_2*%
%TO.N,ANODE*%
X24000000Y-48600000D03*
%TO.P,SW2,3,3_3*%
%TO.N,TINY*%
X24900000Y-48600000D03*
%TD*%
D17*
%TO.P,U4,1,REF_1*%
%TO.N,CLREF*%
X46100000Y-67500000D03*
%TO.P,U4,2,CATHODE_2*%
%TO.N,CLBASE*%
X46100000Y-68500000D03*
%TO.P,U4,3,ANODE_3*%
%TO.N,GND*%
X47300000Y-68000000D03*
%TD*%
D13*
%TO.P,C1,1,1_1*%
%TO.N,VS*%
X8990000Y-45500000D03*
%TO.P,C1,2,2_2*%
%TO.N,GND*%
X10010000Y-45500000D03*
%TD*%
%TO.P,C6,1,1_1*%
%TO.N,VS*%
X22190000Y-36400000D03*
%TO.P,C6,2,2_2*%
%TO.N,GND*%
X23210000Y-36400000D03*
%TD*%
%TO.P,R6,1,1_1*%
%TO.N,VSENSE*%
X7090000Y-50400000D03*
%TO.P,R6,2,2_2*%
%TO.N,GND*%
X8110000Y-50400000D03*
%TD*%
D18*
%TO.P,SB2,1,1_1*%
%TO.N,LDRV2*%
X21950000Y-52000000D03*
%TO.P,SB2,2,2_2*%
%TO.N,GND*%
X22850000Y-52000000D03*
%TD*%
D19*
%TO.P,SJ1,1,1_1*%
%TO.N,VS*%
X13300000Y-45050000D03*
%TO.P,SJ1,2,2_2*%
%TO.N,VDDIO2*%
X13300000Y-46950000D03*
%TD*%
D14*
%TO.P,R12,1,1_1*%
%TO.N,TINY*%
X31040000Y-48600000D03*
%TO.P,R12,2,2_2*%
%TO.N,VS*%
X32060000Y-48600000D03*
%TD*%
D20*
%TO.P,D4,A,A_A*%
%TO.N,ANODE*%
X27400000Y-44300000D03*
%TO.P,D4,K,K_K*%
%TO.N,K4*%
X30000000Y-43500000D03*
%TD*%
D21*
%TO.P,U1,1,PA3_1*%
%TO.N,LDRV1*%
X7500000Y-39700000D03*
%TO.P,U1,2,PA4_2*%
%TO.N,PA4*%
X7500000Y-40100000D03*
%TO.P,U1,3,PA5_3*%
%TO.N,BTN*%
X7500000Y-40500000D03*
%TO.P,U1,4,PA6_4*%
%TO.N,FD*%
X7500000Y-40900000D03*
%TO.P,U1,5,PA7_5*%
%TO.N,NFC_EN*%
X7500000Y-41300000D03*
%TO.P,U1,6,PC0_6*%
%TO.N,PC0*%
X7500000Y-41700000D03*
%TO.P,U1,7,PC1_7*%
%TO.N,PC1*%
X7500000Y-42100000D03*
D22*
%TO.P,U1,8,PC2_8*%
%TO.N,SDA*%
X8300000Y-42900000D03*
%TO.P,U1,9,PC3_9*%
%TO.N,SCL*%
X8700000Y-42900000D03*
%TO.P,U1,10,VDDIO2_10*%
%TO.N,VDDIO2*%
X9100000Y-42900000D03*
%TO.P,U1,11,PD1_11*%
%TO.N,unconnected-(U1-PD1-Pad11)*%
X9500000Y-42900000D03*
%TO.P,U1,12,PD2_12*%
%TO.N,VSENSE*%
X9900000Y-42900000D03*
%TO.P,U1,13,PD3_13*%
%TO.N,unconnected-(U1-PD3-Pad13)*%
X10300000Y-42900000D03*
%TO.P,U1,14,PD4_14*%
%TO.N,unconnected-(U1-PD4-Pad14)*%
X10700000Y-42900000D03*
D21*
%TO.P,U1,15,PD5_15*%
%TO.N,unconnected-(U1-PD5-Pad15)*%
X11500000Y-42100000D03*
%TO.P,U1,16,PD6_16*%
%TO.N,unconnected-(U1-PD6-Pad16)*%
X11500000Y-41700000D03*
%TO.P,U1,17,PD7_17*%
%TO.N,unconnected-(U1-PD7-Pad17)*%
X11500000Y-41300000D03*
%TO.P,U1,18,VDD_18*%
%TO.N,VS*%
X11500000Y-40900000D03*
%TO.P,U1,19,GND_19*%
%TO.N,GND*%
X11500000Y-40500000D03*
%TO.P,U1,20,PF0_20*%
%TO.N,INT2*%
X11500000Y-40100000D03*
%TO.P,U1,21,PF1_21*%
%TO.N,INT1*%
X11500000Y-39700000D03*
D22*
%TO.P,U1,22,PF6/RST_22*%
%TO.N,unconnected-(U1-PF6{slash}RST-Pad22)*%
X10700000Y-38900000D03*
%TO.P,U1,23,PF7/UPDI_23*%
%TO.N,UPDI*%
X10300000Y-38900000D03*
%TO.P,U1,24,VDD_24*%
%TO.N,VS*%
X9900000Y-38900000D03*
%TO.P,U1,25,GND_25*%
%TO.N,GND*%
X9500000Y-38900000D03*
%TO.P,U1,26,PA0_26*%
%TO.N,LDRV4*%
X9100000Y-38900000D03*
%TO.P,U1,27,PA1_27*%
%TO.N,LDRV3*%
X8700000Y-38900000D03*
%TO.P,U1,28,PA2_28*%
%TO.N,LDRV2*%
X8300000Y-38900000D03*
D23*
%TO.P,U1,EP,EP_EP*%
%TO.N,GND*%
X9500000Y-40900000D03*
%TD*%
D24*
%TO.P,J1,1,1_1*%
%TO.N,UPDI*%
X4700000Y-35860000D03*
%TO.P,J1,2,2_2*%
%TO.N,VS*%
X4700000Y-38400000D03*
%TO.P,J1,3,3_3*%
%TO.N,GND*%
X4700000Y-40940000D03*
%TD*%
D20*
%TO.P,D5,A,A_A*%
%TO.N,ANODE*%
X33400000Y-44300000D03*
%TO.P,D5,K,K_K*%
%TO.N,K5*%
X36000000Y-43500000D03*
%TD*%
D13*
%TO.P,R4,1,1_1*%
%TO.N,K5*%
X34190000Y-49600000D03*
%TO.P,R4,2,2_2*%
%TO.N,LDRV4*%
X35210000Y-49600000D03*
%TD*%
D25*
%TO.P,U5,1,LA_1*%
%TO.N,LA*%
X34100000Y-33750000D03*
%TO.P,U5,2,VSS_2*%
%TO.N,GND*%
X34100000Y-34250000D03*
D26*
%TO.P,U5,3,SCL_3*%
%TO.N,SCL*%
X34550000Y-34700000D03*
%TO.P,U5,4,FD_4*%
%TO.N,FD*%
X35050000Y-34700000D03*
D25*
%TO.P,U5,5,SDA_5*%
%TO.N,SDA*%
X35500000Y-34250000D03*
%TO.P,U5,6,VCC_6*%
%TO.N,VNFC*%
X35500000Y-33750000D03*
D26*
%TO.P,U5,7,VOUT_7*%
%TO.N,unconnected-(U5-VOUT-Pad7)*%
X35050000Y-33300000D03*
%TO.P,U5,8,LB_8*%
%TO.N,LB*%
X34550000Y-33300000D03*
%TD*%
D13*
%TO.P,R3,1,1_1*%
%TO.N,K4*%
X28190000Y-49600000D03*
%TO.P,R3,2,2_2*%
%TO.N,LDRV3*%
X29210000Y-49600000D03*
%TD*%
%TO.P,C2,1,1_1*%
%TO.N,VS*%
X8990000Y-36600000D03*
%TO.P,C2,2,2_2*%
%TO.N,GND*%
X10010000Y-36600000D03*
%TD*%
%TO.P,C8,1,1_1*%
%TO.N,VNFC*%
X31790000Y-35500000D03*
%TO.P,C8,2,2_2*%
%TO.N,GND*%
X32810000Y-35500000D03*
%TD*%
%TO.P,C4,1,1_1*%
%TO.N,VS*%
X27990000Y-33000000D03*
%TO.P,C4,2,2_2*%
%TO.N,GND*%
X29010000Y-33000000D03*
%TD*%
D18*
%TO.P,SB1,1,1_1*%
%TO.N,LDRV1*%
X15650000Y-52000000D03*
%TO.P,SB1,2,2_2*%
%TO.N,GND*%
X16550000Y-52000000D03*
%TD*%
D27*
%TO.P,D1,A,A_A*%
%TO.N,VIN*%
X46500000Y-10150000D03*
%TO.P,D1,K,K_K*%
%TO.N,VS*%
X46500000Y-13850000D03*
%TD*%
D28*
%TO.P,SC3,N,N_N*%
%TO.N,MID*%
X15500000Y-61000000D03*
D29*
%TO.P,SC3,P,P_P*%
%TO.N,VS*%
X15500000Y-83000000D03*
%TD*%
D18*
%TO.P,SB4,1,1_1*%
%TO.N,LDRV4*%
X34250000Y-52000000D03*
%TO.P,SB4,2,2_2*%
%TO.N,GND*%
X35150000Y-52000000D03*
%TD*%
D30*
%TO.P,TC1,1,1_1*%
%TO.N,UPDI*%
X12665000Y-15630000D03*
%TO.P,TC1,2,2_2*%
%TO.N,VS*%
X13935000Y-15630000D03*
%TO.P,TC1,3,3_3*%
%TO.N,GND*%
X12665000Y-16900000D03*
%TO.P,TC1,4,4_4*%
%TO.N,unconnected-(TC1-Pad4)*%
X13935000Y-16900000D03*
%TO.P,TC1,5,5_5*%
%TO.N,unconnected-(TC1-Pad5)*%
X12665000Y-18170000D03*
%TO.P,TC1,6,6_6*%
%TO.N,unconnected-(TC1-Pad6)*%
X13935000Y-18170000D03*
%TD*%
D13*
%TO.P,C9,1,1_1*%
%TO.N,LA*%
X31500000Y-38500000D03*
%TO.P,C9,2,2_2*%
%TO.N,LB*%
X32520000Y-38500000D03*
%TD*%
D27*
%TO.P,D9,A,A_A*%
%TO.N,VINB*%
X46500000Y-59150000D03*
%TO.P,D9,K,K_K*%
%TO.N,VS*%
X46500000Y-62850000D03*
%TD*%
D31*
%TO.P,Q1,1,B_1*%
%TO.N,CLBASE*%
X46900000Y-64500000D03*
%TO.P,Q1,2,E_2*%
%TO.N,VS*%
X46900000Y-65500000D03*
D32*
%TO.P,Q1,3,C_3*%
%TO.N,GND*%
X45700000Y-65000000D03*
%TD*%
D13*
%TO.P,C3,1,1_1*%
%TO.N,VDDIO2*%
X11990000Y-48500000D03*
%TO.P,C3,2,2_2*%
%TO.N,GND*%
X13010000Y-48500000D03*
%TD*%
D20*
%TO.P,D3,A,A_A*%
%TO.N,ANODE*%
X21100000Y-44300000D03*
%TO.P,D3,K,K_K*%
%TO.N,K3*%
X23700000Y-43500000D03*
%TD*%
%TO.P,D2,A,A_A*%
%TO.N,ANODE*%
X14800000Y-44300000D03*
%TO.P,D2,K,K_K*%
%TO.N,K2*%
X17400000Y-43500000D03*
%TD*%
D33*
%TO.P,U3,1,SCL_1*%
%TO.N,SCL*%
X19250000Y-36650000D03*
%TO.P,U3,2,CS_2*%
%TO.N,VS*%
X19250000Y-36150000D03*
%TO.P,U3,3,SDO/SA0_3*%
%TO.N,GND*%
X19250000Y-35650000D03*
%TO.P,U3,4,SDA_4*%
%TO.N,SDA*%
X19250000Y-35150000D03*
%TO.P,U3,5,RES_5*%
%TO.N,GND*%
X19750000Y-35150000D03*
%TO.P,U3,6,GND_6*%
X20250000Y-35150000D03*
%TO.P,U3,7,GND_7*%
X20750000Y-35150000D03*
%TO.P,U3,8,GND_8*%
X20750000Y-35650000D03*
%TO.P,U3,9,Vdd_9*%
%TO.N,VS*%
X20750000Y-36150000D03*
%TO.P,U3,10,Vdd_IO_10*%
X20750000Y-36650000D03*
%TO.P,U3,11,INT2_11*%
%TO.N,INT2*%
X20250000Y-36650000D03*
%TO.P,U3,12,INT1_12*%
%TO.N,INT1*%
X19750000Y-36650000D03*
%TD*%
D13*
%TO.P,C5,1,1_1*%
%TO.N,VSENSE*%
X6890000Y-52600000D03*
%TO.P,C5,2,2_2*%
%TO.N,GND*%
X7910000Y-52600000D03*
%TD*%
%TO.P,R11,1,1_1*%
%TO.N,SCL*%
X15490000Y-34960000D03*
%TO.P,R11,2,2_2*%
%TO.N,VS*%
X16510000Y-34960000D03*
%TD*%
%TO.P,R13,1,1_1*%
%TO.N,FD*%
X31790000Y-37000000D03*
%TO.P,R13,2,2_2*%
%TO.N,VS*%
X32810000Y-37000000D03*
%TD*%
%TO.P,R1,1,1_1*%
%TO.N,K2*%
X15590000Y-49600000D03*
%TO.P,R1,2,2_2*%
%TO.N,LDRV1*%
X16610000Y-49600000D03*
%TD*%
D14*
%TO.P,C7,1,1_1*%
%TO.N,VS*%
X45990000Y-75000000D03*
%TO.P,C7,2,2_2*%
%TO.N,GND*%
X47010000Y-75000000D03*
%TD*%
D34*
%TO.P,U2,1,IC_1*%
%TO.N,GND*%
X24900000Y-35095000D03*
%TO.P,U2,2,GN1_2*%
%TO.N,VS*%
X24900000Y-36365000D03*
%TO.P,U2,3,DN1_3*%
X24900000Y-37635000D03*
%TO.P,U2,4,SN1_4*%
%TO.N,MID*%
X24900000Y-38905000D03*
%TO.P,U2,5,SN2/V-_5*%
%TO.N,GND*%
X30100000Y-38905000D03*
%TO.P,U2,6,DN2_6*%
%TO.N,MID*%
X30100000Y-37635000D03*
%TO.P,U2,7,GN2_7*%
X30100000Y-36365000D03*
%TO.P,U2,8,V+_8*%
%TO.N,VS*%
X30100000Y-35095000D03*
%TD*%
D11*
%TO.P,SC4,N,N_N*%
%TO.N,GND*%
X35300000Y-83000000D03*
D12*
%TO.P,SC4,P,P_P*%
%TO.N,MID*%
X35300000Y-61000000D03*
%TD*%
D28*
%TO.P,SC2,N,N_N*%
%TO.N,GND*%
X35300000Y-5900000D03*
D29*
%TO.P,SC2,P,P_P*%
%TO.N,MID*%
X35300000Y-27900000D03*
%TD*%
D14*
%TO.P,R8,1,1_1*%
%TO.N,CLREF*%
X45990000Y-73500000D03*
%TO.P,R8,2,2_2*%
%TO.N,GND*%
X47010000Y-73500000D03*
%TD*%
D13*
%TO.P,R5,1,1_1*%
%TO.N,VIN*%
X3990000Y-50400000D03*
%TO.P,R5,2,2_2*%
%TO.N,VSENSE*%
X5010000Y-50400000D03*
%TD*%
D14*
%TO.P,R9,1,1_1*%
%TO.N,VS*%
X45990000Y-70500000D03*
%TO.P,R9,2,2_2*%
%TO.N,CLBASE*%
X47010000Y-70500000D03*
%TD*%
D18*
%TO.P,SB3,1,1_1*%
%TO.N,LDRV3*%
X28250000Y-52000000D03*
%TO.P,SB3,2,2_2*%
%TO.N,GND*%
X29150000Y-52000000D03*
%TD*%
D35*
%TO.N,GND*%
X4300000Y-71900000D03*
X13750000Y-31300000D03*
X3800000Y-51175000D03*
X8450000Y-42000000D03*
X10650000Y-47625000D03*
X9100000Y-47300000D03*
X17050000Y-33100000D03*
X15600000Y-35900000D03*
X34625000Y-56325000D03*
X8900000Y-44700000D03*
X4850000Y-28500000D03*
X12225000Y-25175000D03*
X32525000Y-33225000D03*
X33475000Y-56325000D03*
X4850000Y-27250000D03*
X36275000Y-30450000D03*
X34325000Y-31350000D03*
X10600000Y-46450000D03*
X47200000Y-67200000D03*
X19300000Y-31825000D03*
X3800000Y-49600000D03*
X48200000Y-66300000D03*
X7400000Y-15600000D03*
X7400000Y-71900000D03*
%TO.N,VINB*%
X45500000Y-63000000D03*
%TO.N,VIN*%
X45500000Y-25000000D03*
%TO.N,MID*%
X31400000Y-29250000D03*
X30850000Y-36050000D03*
X4200000Y-27900000D03*
X2300000Y-27900000D03*
%TO.N,VS*%
X35850000Y-57050000D03*
X13050000Y-43000000D03*
X3400000Y-40720000D03*
X30100000Y-35550000D03*
X16300000Y-32050000D03*
X5250000Y-38945000D03*
X11900000Y-47150000D03*
X6900000Y-37295000D03*
X16200000Y-34400000D03*
X28700000Y-6150000D03*
X23150000Y-48800000D03*
X32550000Y-36750000D03*
X31350000Y-49350000D03*
X13200000Y-44550000D03*
X46150000Y-13350000D03*
X10900000Y-32050000D03*
X6775000Y-43795000D03*
%TO.N,LDRV2*%
X7950000Y-38600000D03*
X12450000Y-44075000D03*
X21750000Y-51450000D03*
X11750000Y-45650000D03*
%TO.N,VNFC*%
X30550000Y-31465000D03*
X12850000Y-30565000D03*
%TO.N,NFC_EN*%
X6700000Y-42438000D03*
X4700000Y-34388000D03*
%TO.N,ANODE*%
X14975000Y-51200000D03*
X24900000Y-51975000D03*
X21175000Y-47650000D03*
X27475000Y-47650000D03*
X33325000Y-47650000D03*
X23775000Y-47850000D03*
%TO.N,TINY*%
X29175000Y-48500000D03*
X25675000Y-48500000D03*
%TO.N,VSENSE*%
X10050000Y-43750000D03*
X9900000Y-47600000D03*
%TO.N,LDRV1*%
X16350000Y-49050000D03*
X7700000Y-39500000D03*
%TO.N,FD*%
X8300000Y-37900000D03*
X33300000Y-36250000D03*
%TO.N,SCL*%
X16125000Y-38005000D03*
X34375000Y-35280000D03*
X8575000Y-43730000D03*
X8425000Y-33580000D03*
X10525000Y-33580000D03*
X12125000Y-34630000D03*
%TO.N,UPDI*%
X10750000Y-36810000D03*
X6000000Y-35960000D03*
X12400000Y-15980000D03*
%TO.N,LDRV4*%
X9400000Y-38025000D03*
X35500000Y-47550000D03*
%TO.N,LDRV3*%
X25500000Y-52450000D03*
X7675000Y-37425000D03*
%TO.N,LA*%
X33950000Y-33650000D03*
X36600000Y-34600000D03*
%TO.N,LB*%
X33300000Y-33225000D03*
X33275000Y-38350000D03*
X42900000Y-38000000D03*
%TD*%
%TO.N,GND*%
D36*
X12450000Y-16540000D02*
X12665000Y-16900000D01*
D37*
X13010000Y-48500000D02*
X13450000Y-48500000D01*
D36*
X8514000Y-49358000D02*
X8464000Y-53508000D01*
D37*
X23650000Y-36400000D02*
X23600000Y-36400000D01*
D38*
X10184000Y-29951000D02*
X12216000Y-29941000D01*
D36*
X36650000Y-43900000D02*
X36650000Y-43100000D01*
D37*
X32810000Y-35500000D02*
X33310000Y-35500000D01*
D39*
X11500000Y-40500000D02*
X10400000Y-40500000D01*
D37*
X23650000Y-36400000D02*
X23650000Y-37420000D01*
X8110000Y-50400000D02*
X8550000Y-50400000D01*
X20750000Y-35650000D02*
X20750000Y-35150000D01*
D38*
X10486000Y-29951000D02*
X12216000Y-29943000D01*
X9337000Y-30166000D02*
X12217000Y-30153000D01*
D40*
X11850000Y-16375000D02*
X11925000Y-16475000D01*
D38*
X10798000Y-29951000D02*
X12216000Y-29944000D01*
D37*
X19250000Y-35650000D02*
X20750000Y-35650000D01*
D38*
X11208000Y-29951000D02*
X12216000Y-29946000D01*
D37*
X10010000Y-45500000D02*
X10450000Y-45500000D01*
X34100000Y-34250000D02*
X33850000Y-34683000D01*
X10450000Y-45500000D02*
X10450000Y-46520000D01*
D38*
X8492000Y-44773000D02*
X9206000Y-44764000D01*
D36*
X36500000Y-47550000D02*
X36500000Y-49050000D01*
D38*
X8736000Y-44670000D02*
X9205000Y-44664000D01*
D37*
X20250000Y-35150000D02*
X20250000Y-34400000D01*
X19750000Y-35150000D02*
X20250000Y-35150000D01*
D38*
X8897000Y-47094000D02*
X9235000Y-47090000D01*
X11717000Y-29951000D02*
X12216000Y-29948000D01*
X15229000Y-31785000D02*
X15231000Y-31470000D01*
D37*
X47010000Y-73500000D02*
X47260000Y-73933000D01*
X20250000Y-35150000D02*
X20750000Y-35150000D01*
X10010000Y-36600000D02*
X10010000Y-36270001D01*
D38*
X9579000Y-29951000D02*
X12216000Y-29939000D01*
X8613000Y-44871000D02*
X9208000Y-44864000D01*
X8262000Y-47602000D02*
X9242000Y-47590000D01*
X6311000Y-30882000D02*
X6348000Y-30465000D01*
X8455000Y-44673000D02*
X9205000Y-44664000D01*
X18079000Y-32950000D02*
X16955000Y-32950000D01*
D37*
X8550000Y-50400000D02*
X8550000Y-49380000D01*
X13450000Y-48500000D02*
X13450000Y-49520000D01*
D38*
X9882000Y-29951000D02*
X12216000Y-29940000D01*
D39*
X9500000Y-38900000D02*
X9500000Y-40050000D01*
D37*
X10488665Y-35791336D02*
X10661336Y-35791336D01*
D38*
X9267000Y-29951000D02*
X12216000Y-29937000D01*
D37*
X8350000Y-52600000D02*
X8350000Y-53620000D01*
D38*
X8757000Y-47601000D02*
X9242000Y-47595000D01*
D36*
X12450000Y-16540000D02*
X11980000Y-16540000D01*
D37*
X7910000Y-52600000D02*
X8350000Y-52600000D01*
X10010000Y-36270001D02*
X10488665Y-35791336D01*
%TO.N,VINB*%
D38*
X45628000Y-62350000D02*
X45628000Y-62650000D01*
X46528000Y-59200000D02*
X45628000Y-62350000D01*
%TO.N,VIN*%
X45101000Y-29899000D02*
X45500000Y-29500000D01*
X9527000Y-31999908D02*
X9527000Y-31530092D01*
X14374529Y-29899000D02*
X45101000Y-29899000D01*
X9527000Y-31530092D02*
X9905094Y-31151998D01*
X11200000Y-33326471D02*
X10848529Y-32975000D01*
X13121531Y-31151998D02*
X14374529Y-29899000D01*
X9825092Y-34477000D02*
X10127092Y-34175000D01*
X10848529Y-34175000D02*
X11200000Y-33823529D01*
X10502092Y-32975000D02*
X9527000Y-31999908D01*
X45500000Y-29500000D02*
X45500000Y-25000000D01*
X8537592Y-34477000D02*
X9825092Y-34477000D01*
X9905094Y-31151998D02*
X13121531Y-31151998D01*
X5840000Y-48499000D02*
X5840000Y-43000977D01*
X11200000Y-33823529D02*
X11200000Y-33326471D01*
X8062593Y-34951999D02*
X8537592Y-34477000D01*
X3990000Y-50349000D02*
X5840000Y-48499000D01*
X10127092Y-34175000D02*
X10848529Y-34175000D01*
X46489000Y-10200000D02*
X45589000Y-11100000D01*
X7837000Y-34952000D02*
X8062593Y-34951999D01*
X45589000Y-11100000D02*
X45589000Y-24750000D01*
X5823000Y-36966000D02*
X7837000Y-34952000D01*
X5823000Y-42983977D02*
X5823000Y-36966000D01*
X5840000Y-43000977D02*
X5823000Y-42983977D01*
X10848529Y-32975000D02*
X10502092Y-32975000D01*
%TO.N,MID*%
X30150000Y-36415000D02*
X31050000Y-36415000D01*
D40*
X2300000Y-57450000D02*
X3400000Y-58550000D01*
D37*
X31100000Y-37630000D02*
X31100000Y-36370000D01*
D41*
X15500000Y-27900000D02*
X35300000Y-27900000D01*
D42*
X31095000Y-37635000D02*
X31100000Y-37630000D01*
D41*
X3400000Y-58550000D02*
X35300000Y-58550000D01*
D40*
X4200000Y-27900000D02*
X15500000Y-27900000D01*
D41*
X35300000Y-58550000D02*
X35300000Y-59600000D01*
D40*
X2300000Y-27900000D02*
X2300000Y-57450000D01*
D42*
X25674999Y-38905000D02*
X26944999Y-37635000D01*
X30100000Y-37635000D02*
X31095000Y-37635000D01*
X26944999Y-37635000D02*
X30100000Y-37635000D01*
X24900000Y-38905000D02*
X25674999Y-38905000D01*
D41*
X15500000Y-58550000D02*
X15500000Y-59600000D01*
%TO.N,VS*%
X15500000Y-5900000D02*
X28700000Y-5900000D01*
X4800000Y-5900000D02*
X3100000Y-7600000D01*
D40*
X8425000Y-45445000D02*
X6775000Y-43795000D01*
D43*
X47500000Y-75700000D02*
X47400000Y-75750000D01*
D41*
X15500000Y-86200000D02*
X15500000Y-84500000D01*
D40*
X7550000Y-36795000D02*
X8500000Y-36895000D01*
D43*
X47400000Y-75750000D02*
X46200000Y-75750000D01*
D41*
X45990000Y-76700000D02*
X44700000Y-77900000D01*
X44700000Y-86200000D02*
X43600000Y-87300000D01*
D40*
X9900000Y-37645000D02*
X9950000Y-37720000D01*
D43*
X45800000Y-63700000D02*
X46100000Y-63400000D01*
X19050000Y-32450000D02*
X20700000Y-34100000D01*
X46100000Y-63400000D02*
X46100000Y-63350000D01*
X47550000Y-64250000D02*
X47550000Y-65200000D01*
X47500000Y-64050000D02*
X47550000Y-64250000D01*
D37*
X20750000Y-36150000D02*
X21500000Y-36400000D01*
X7630000Y-36600000D02*
X8990000Y-36600000D01*
D43*
X24150000Y-36650000D02*
X24150000Y-37300000D01*
D37*
X20750000Y-36150000D02*
X20750000Y-36650000D01*
D43*
X47700000Y-71450000D02*
X47750000Y-71600000D01*
X47550000Y-71300000D02*
X47700000Y-71450000D01*
X30100000Y-35350000D02*
X30100000Y-35550000D01*
D41*
X3200000Y-38400000D02*
X4700000Y-38400000D01*
X3100000Y-38500000D02*
X3200000Y-38400000D01*
D37*
X46900000Y-65500000D02*
X47400000Y-65500000D01*
D43*
X47750000Y-71600000D02*
X47800000Y-73750000D01*
D41*
X3100000Y-40420000D02*
X3400000Y-40720000D01*
X43600000Y-87300000D02*
X16600000Y-87300000D01*
D43*
X48250000Y-67700000D02*
X48300000Y-67800000D01*
X48300000Y-67800000D02*
X48300000Y-70350000D01*
D41*
X3150000Y-32000000D02*
X3350000Y-32200000D01*
D39*
X12200000Y-40900000D02*
X13000000Y-43000000D01*
D43*
X3350000Y-32200000D02*
X7290000Y-32200000D01*
D38*
X45990000Y-72000000D02*
X45990000Y-70500000D01*
D41*
X3100000Y-38500000D02*
X3100000Y-40420000D01*
D39*
X11500000Y-40900000D02*
X12200000Y-40900000D01*
D37*
X11864000Y-34098567D02*
X11864000Y-33051433D01*
D40*
X31700000Y-48960000D02*
X32060000Y-48600000D01*
D43*
X47450000Y-71200000D02*
X47300000Y-71250000D01*
X21250000Y-34800000D02*
X21250000Y-36050000D01*
X47800000Y-75400000D02*
X47500000Y-75700000D01*
X26300000Y-35350000D02*
X27650000Y-33300000D01*
X44200000Y-62750000D02*
X45050000Y-63600000D01*
X47450000Y-63950000D02*
X47500000Y-64050000D01*
X28250000Y-33700000D02*
X29300000Y-34750000D01*
X25650000Y-36050000D02*
X25650000Y-36000000D01*
X45250000Y-63700000D02*
X45800000Y-63700000D01*
D39*
X9900000Y-38900000D02*
X9900000Y-38300000D01*
D43*
X45050000Y-63600000D02*
X45250000Y-63700000D01*
X22700000Y-35650000D02*
X23700000Y-35650000D01*
D41*
X3100000Y-7600000D02*
X3100000Y-32000000D01*
D37*
X8990000Y-36600000D02*
X8990000Y-36251130D01*
D36*
X10414000Y-47088000D02*
X11314000Y-46938000D01*
D37*
X19250000Y-36150000D02*
X20750000Y-36150000D01*
D41*
X3100000Y-32000000D02*
X3100000Y-38500000D01*
D40*
X36650000Y-57850000D02*
X44200000Y-57850000D01*
D41*
X15500000Y-5900000D02*
X4800000Y-5900000D01*
D37*
X11864000Y-33051433D02*
X10891566Y-32078999D01*
D43*
X48300000Y-70350000D02*
X47450000Y-71200000D01*
D37*
X16510000Y-32400000D02*
X17870000Y-32400000D01*
D41*
X45990000Y-75000000D02*
X45990000Y-76700000D01*
D43*
X17950000Y-32450000D02*
X19050000Y-32450000D01*
D40*
X7350000Y-36870000D02*
X7550000Y-36795000D01*
D41*
X16600000Y-87300000D02*
X15500000Y-86200000D01*
D43*
X47800000Y-73750000D02*
X47800000Y-75400000D01*
D37*
X8990000Y-36251130D02*
X10402130Y-34839000D01*
D43*
X47100000Y-63350000D02*
X47450000Y-63950000D01*
D40*
X9975000Y-38245000D02*
X9950000Y-38270000D01*
D36*
X11314000Y-46938000D02*
X13164000Y-45088000D01*
D40*
X31700000Y-49000000D02*
X31700000Y-48960000D01*
D43*
X11600000Y-46800000D02*
X11900000Y-47150000D01*
D36*
X13900000Y-15600000D02*
X14150000Y-14350000D01*
D40*
X36000000Y-57200000D02*
X36650000Y-57850000D01*
D41*
X3100000Y-32000000D02*
X3150000Y-32000000D01*
D37*
X10402130Y-34839000D02*
X11123567Y-34839000D01*
D41*
X44700000Y-77900000D02*
X44700000Y-86200000D01*
D43*
X20700000Y-34100000D02*
X21250000Y-34800000D01*
X23700000Y-35650000D02*
X24100000Y-36050000D01*
X7290000Y-32200000D02*
X7290000Y-31500000D01*
D40*
X6900000Y-37295000D02*
X7350000Y-36870000D01*
X9750000Y-37495000D02*
X9900000Y-37645000D01*
D43*
X22450000Y-36050000D02*
X22450000Y-35900000D01*
X47550000Y-65200000D02*
X47400000Y-65350000D01*
X47300000Y-71250000D02*
X46050000Y-71250000D01*
D37*
X11123567Y-34839000D02*
X11864000Y-34098567D01*
D43*
X21250000Y-36050000D02*
X21150000Y-36150000D01*
X22450000Y-35900000D02*
X22700000Y-35650000D01*
X44200000Y-58000000D02*
X44200000Y-62750000D01*
X25650000Y-36000000D02*
X26300000Y-35350000D01*
D37*
X21500000Y-36400000D02*
X22190000Y-36400000D01*
D43*
X16200000Y-34400000D02*
X16200000Y-34600000D01*
X47100000Y-65750000D02*
X48250000Y-67700000D01*
D40*
X31700000Y-49000000D02*
X31350000Y-49350000D01*
D37*
X8990000Y-45500000D02*
X8550000Y-45500000D01*
X8550000Y-45500000D02*
X8550000Y-46520000D01*
D40*
X8500000Y-36895000D02*
X9750000Y-37495000D01*
D43*
X28250000Y-33300000D02*
X28250000Y-33700000D01*
D36*
X8514000Y-46488000D02*
X10414000Y-47088000D01*
D40*
X9950000Y-37720000D02*
X10000000Y-37870000D01*
X10000000Y-38170000D02*
X9975000Y-38245000D01*
D36*
X14150000Y-14350000D02*
X14150000Y-7650000D01*
D40*
X10000000Y-37870000D02*
X10000000Y-38170000D01*
%TO.N,K3*%
D37*
X23700000Y-43500000D02*
X21890000Y-49600000D01*
%TO.N,LDRV2*%
D38*
X21750000Y-51450000D02*
X21750000Y-51500000D01*
X8300000Y-38600000D02*
X7950000Y-38600000D01*
D37*
X22910000Y-49600000D02*
X21950000Y-52000000D01*
D38*
X11750000Y-45650000D02*
X12450000Y-44075000D01*
%TO.N,CLREF*%
X46150000Y-67550000D02*
X45550000Y-68150000D01*
X45550000Y-68950000D02*
X45400000Y-69100000D01*
X45400000Y-69100000D02*
X45400000Y-72500000D01*
X46300000Y-72650000D02*
X46900000Y-72050000D01*
X46940000Y-72050000D02*
X46040000Y-72950000D01*
X46040000Y-72950000D02*
X46040000Y-73550000D01*
X45400000Y-72500000D02*
X45550000Y-72650000D01*
X45550000Y-68150000D02*
X45550000Y-68950000D01*
X45550000Y-72650000D02*
X46300000Y-72650000D01*
%TO.N,VNFC*%
D42*
X7292500Y-33337500D02*
X9470000Y-31160000D01*
X31790000Y-35500000D02*
X31790000Y-32660000D01*
X6342500Y-33337500D02*
X7292500Y-33337500D01*
D40*
X35500000Y-32615000D02*
X35500000Y-33750000D01*
X12350000Y-30565000D02*
X12850000Y-30565000D01*
X30550000Y-31465000D02*
X30650000Y-31565000D01*
D42*
X9470000Y-31160000D02*
X9470000Y-30540000D01*
X31790000Y-32660000D02*
X30750000Y-31620000D01*
X9470000Y-30540000D02*
X12290000Y-30540000D01*
D40*
X31850000Y-32615000D02*
X35500000Y-32615000D01*
%TO.N,NFC_EN*%
D42*
X6750000Y-41650000D02*
X6750000Y-42600000D01*
D36*
X4700000Y-33588000D02*
X5250000Y-33588000D01*
X4700000Y-33588000D02*
X4700000Y-34388000D01*
D42*
X7500000Y-41300000D02*
X7100000Y-41300000D01*
X7100000Y-41300000D02*
X6750000Y-41650000D01*
%TO.N,SDA*%
D36*
X15650000Y-32029000D02*
X15650000Y-31729000D01*
X16100000Y-31379000D02*
X30400000Y-30779000D01*
D38*
X8071001Y-35278999D02*
X8198041Y-35278999D01*
X8198041Y-35278999D02*
X8673040Y-34804000D01*
X8673040Y-34804000D02*
X9960540Y-34804000D01*
X12123529Y-32450000D02*
X15550000Y-32450000D01*
X8350000Y-42950000D02*
X8100000Y-43200000D01*
X10983977Y-34502000D02*
X11527000Y-33958977D01*
D36*
X30400000Y-30779000D02*
X35750000Y-30779000D01*
X36450000Y-33879000D02*
X36079000Y-34250000D01*
D38*
X10983977Y-32648000D02*
X10637540Y-32648000D01*
X9854000Y-31814458D02*
X10189459Y-31478999D01*
D36*
X36400000Y-31429000D02*
X36450000Y-31579000D01*
X35750000Y-30779000D02*
X36400000Y-31429000D01*
D38*
X6150000Y-42848529D02*
X6150000Y-37200000D01*
X10262540Y-34502000D02*
X10983977Y-34502000D01*
D36*
X36450000Y-31579000D02*
X36450000Y-33879000D01*
X36079000Y-34250000D02*
X35500000Y-34250000D01*
D38*
X10637540Y-32648000D02*
X9854000Y-31864460D01*
D36*
X15650000Y-31729000D02*
X16100000Y-31379000D01*
D38*
X8100000Y-43200000D02*
X6501471Y-43200000D01*
X15540000Y-32450000D02*
X18240000Y-35150000D01*
X10189459Y-31478999D02*
X11152528Y-31478999D01*
X6150000Y-37200000D02*
X8071001Y-35278999D01*
X9854000Y-31864460D02*
X9854000Y-31814458D01*
X11527000Y-33191023D02*
X10983977Y-32648000D01*
X18240000Y-35150000D02*
X19290000Y-35150000D01*
X11527000Y-33958977D02*
X11527000Y-33191023D01*
X6501471Y-43200000D02*
X6150000Y-42848529D01*
X9960540Y-34804000D02*
X10262540Y-34502000D01*
X11152528Y-31478999D02*
X12123529Y-32450000D01*
%TO.N,ANODE*%
D40*
X24125000Y-48000000D02*
X24075000Y-48200000D01*
X24375000Y-47750000D02*
X24125000Y-48000000D01*
X14975000Y-51200000D02*
X14825000Y-47700000D01*
D37*
X21100000Y-44300000D02*
X21100000Y-47600000D01*
D40*
X23975000Y-47850000D02*
X23775000Y-47850000D01*
D37*
X33400000Y-44300000D02*
X33400000Y-47600000D01*
X27400000Y-44300000D02*
X27400000Y-47600000D01*
D40*
X27175000Y-47750000D02*
X24375000Y-47750000D01*
X24125000Y-49000000D02*
X24900000Y-51975000D01*
D37*
X14800000Y-44300000D02*
X14800000Y-47600000D01*
%TO.N,TINY*%
X29300000Y-48600000D02*
X30600000Y-48600000D01*
D38*
X31010000Y-48650000D02*
X30710000Y-48650000D01*
D37*
X24900000Y-48600000D02*
X25600000Y-48600000D01*
%TO.N,CLBASE*%
D38*
X46600000Y-66650000D02*
X46600000Y-68000000D01*
X46150000Y-68550000D02*
X47050000Y-69450000D01*
X46450000Y-65000000D02*
X46450000Y-66500000D01*
X46450000Y-66500000D02*
X46600000Y-66650000D01*
X47050000Y-69450000D02*
X47050000Y-70500000D01*
X46600000Y-68000000D02*
X46150000Y-68450000D01*
X46900000Y-64550000D02*
X46450000Y-65000000D01*
%TO.N,VSENSE*%
D39*
X6000000Y-50790000D02*
X6000000Y-50400000D01*
D38*
X9900000Y-43500000D02*
X10050000Y-43750000D01*
D36*
X9900000Y-47900000D02*
X9900000Y-47600000D01*
D37*
X6000000Y-50400000D02*
X7090000Y-50400000D01*
D39*
X6890000Y-52600000D02*
X6890000Y-51680000D01*
D38*
X9900000Y-42900000D02*
X9900000Y-43400000D01*
X10000000Y-48000000D02*
X8400000Y-48000000D01*
X8400000Y-48000000D02*
X6000000Y-50400000D01*
X9900000Y-43400000D02*
X10330000Y-43830000D01*
X9900000Y-42900000D02*
X9900000Y-43500000D01*
D39*
X6890000Y-51680000D02*
X6000000Y-50790000D01*
X5010000Y-50400000D02*
X6000000Y-50400000D01*
%TO.N,VDDIO2*%
X9100000Y-42900000D02*
X9100000Y-43566690D01*
X14200000Y-43550000D02*
X14200000Y-47500000D01*
X12600000Y-47000000D02*
X11990000Y-48500000D01*
X9893310Y-44360000D02*
X10841338Y-44360000D01*
X14200000Y-47500000D02*
X13300000Y-47500000D01*
X11651338Y-43550000D02*
X14200000Y-43550000D01*
X13300000Y-47500000D02*
X13300000Y-46950000D01*
X13300000Y-46950000D02*
X12600000Y-47000000D01*
X10841338Y-44360000D02*
X11651338Y-43550000D01*
X9100000Y-43566690D02*
X9893310Y-44360000D01*
%TO.N,K4*%
D37*
X30000000Y-43500000D02*
X28190000Y-49600000D01*
%TO.N,LDRV1*%
X16610000Y-49600000D02*
X15650000Y-52000000D01*
D36*
X16350000Y-49250000D02*
X16350000Y-49050000D01*
X7700000Y-39500000D02*
X7700000Y-39600000D01*
%TO.N,FD*%
D38*
X7500000Y-40900000D02*
X6900000Y-40900000D01*
D36*
X8300000Y-37900000D02*
X7675000Y-38050000D01*
X6800000Y-39450000D02*
X6800000Y-40800000D01*
D38*
X31790000Y-36150000D02*
X35050000Y-36150000D01*
D36*
X7475000Y-38200000D02*
X6850000Y-39325000D01*
D38*
X31790000Y-37000000D02*
X31790000Y-36150000D01*
D36*
X7675000Y-38050000D02*
X7475000Y-38200000D01*
D38*
X35050000Y-36150000D02*
X35050000Y-34700000D01*
%TO.N,SCL*%
X34600000Y-35050000D02*
X34600000Y-34750000D01*
X15540000Y-35010000D02*
X17190000Y-36660000D01*
X17190000Y-36660000D02*
X19290000Y-36660000D01*
X34450000Y-35200000D02*
X34600000Y-35050000D01*
D36*
X17150000Y-36755000D02*
X16125000Y-38005000D01*
X15175000Y-34630000D02*
X12125000Y-34630000D01*
X10525000Y-33580000D02*
X8425000Y-33580000D01*
X8575000Y-43730000D02*
X8650000Y-43730000D01*
D38*
X8750000Y-42960000D02*
X8750000Y-43710000D01*
%TO.N,INT2*%
D36*
X20250000Y-37350000D02*
X20250000Y-36650000D01*
X17650000Y-39950000D02*
X20250000Y-37350000D01*
X15300000Y-39950000D02*
X17650000Y-39950000D01*
X13550000Y-40100000D02*
X15300000Y-39950000D01*
D39*
X13500000Y-40200000D02*
X11500000Y-40100000D01*
%TO.N,INT1*%
X13300000Y-39600000D02*
X11500000Y-39700000D01*
X19750000Y-36650000D02*
X19400000Y-37600000D01*
D36*
X13350000Y-39500000D02*
X19300000Y-37650000D01*
%TO.N,UPDI*%
X5450000Y-35960000D02*
X6000000Y-35960000D01*
D39*
X10300000Y-38900000D02*
X10500000Y-37600000D01*
D36*
X10750000Y-36810000D02*
X10550000Y-37510000D01*
%TO.N,LDRV4*%
D39*
X9150000Y-38400000D02*
X9150000Y-38500000D01*
D37*
X35210000Y-49600000D02*
X34250000Y-52000000D01*
D39*
X35500000Y-49250000D02*
X35500000Y-47550000D01*
X9400000Y-38025000D02*
X9150000Y-38400000D01*
%TO.N,LDRV3*%
D37*
X29210000Y-49600000D02*
X28250000Y-52000000D01*
D38*
X8500000Y-37350000D02*
X8600000Y-37400000D01*
X27950000Y-52450000D02*
X25500000Y-52450000D01*
X8600000Y-37400000D02*
X8775000Y-37575000D01*
X8775000Y-37575000D02*
X8825000Y-37675000D01*
X7675000Y-37425000D02*
X8150000Y-37325000D01*
X8150000Y-37325000D02*
X8500000Y-37350000D01*
X8850000Y-38250000D02*
X8725000Y-38400000D01*
X8825000Y-37675000D02*
X8850000Y-37750000D01*
X8850000Y-37750000D02*
X8850000Y-38250000D01*
X8725000Y-38400000D02*
X8725000Y-38500000D01*
%TO.N,K5*%
D37*
X36000000Y-43500000D02*
X34190000Y-49600000D01*
%TO.N,LA*%
D40*
X40340000Y-34000000D02*
X45460000Y-34000000D01*
X48400000Y-33700000D02*
X48400000Y-55300000D01*
X46420000Y-56200000D02*
X39380000Y-56200000D01*
X44800000Y-52420000D02*
X44020000Y-53200000D01*
X41300000Y-35200000D02*
X44500000Y-35200000D01*
X37400000Y-55300000D02*
X37400000Y-34300000D01*
X39860000Y-33400000D02*
X45940000Y-33400000D01*
X38000000Y-34780000D02*
X38600000Y-34660000D01*
X39800000Y-35620000D02*
X40820000Y-34600000D01*
X41300000Y-53800000D02*
X40400000Y-52900000D01*
X48400000Y-55300000D02*
X46900000Y-56800000D01*
X45400000Y-52900000D02*
X44500000Y-53800000D01*
X44980000Y-54400000D02*
X40820000Y-54400000D01*
X46600000Y-35140000D02*
X46600000Y-53860000D01*
X46900000Y-32200000D02*
X48400000Y-33700000D01*
X47200000Y-34660000D02*
X47200000Y-54340000D01*
X38000000Y-34180000D02*
X39380000Y-32800000D01*
X44800000Y-36580000D02*
X44800000Y-52420000D01*
X44980000Y-34600000D02*
X46000000Y-35620000D01*
X40820000Y-34600000D02*
X44980000Y-34600000D01*
X47800000Y-34180000D02*
X47800000Y-54820000D01*
X41000000Y-52420000D02*
X41000000Y-38000000D01*
X45940000Y-33400000D02*
X47200000Y-34660000D01*
X44500000Y-53800000D02*
X41300000Y-53800000D01*
X37000000Y-33700000D02*
X37400000Y-33700000D01*
X46420000Y-32800000D02*
X47800000Y-34180000D01*
X38900000Y-56800000D02*
X37400000Y-55300000D01*
X40400000Y-52900000D02*
X40400000Y-36700000D01*
X38600000Y-34660000D02*
X39860000Y-33400000D01*
X39380000Y-32800000D02*
X46420000Y-32800000D01*
X45940000Y-55600000D02*
X39860000Y-55600000D01*
X37400000Y-33700000D02*
X38900000Y-32200000D01*
X46600000Y-53860000D02*
X45460000Y-55000000D01*
X39800000Y-53380000D02*
X39800000Y-36220000D01*
X40400000Y-36100000D02*
X41300000Y-35200000D01*
X44500000Y-35200000D02*
X45400000Y-36100000D01*
X39380000Y-56200000D02*
X38000000Y-54820000D01*
X38900000Y-32200000D02*
X46900000Y-32200000D01*
X45400000Y-36100000D02*
X45400000Y-52900000D01*
X41000000Y-36580000D02*
X41780000Y-35800000D01*
X39860000Y-55600000D02*
X38600000Y-54340000D01*
X41780000Y-35800000D02*
X44020000Y-35800000D01*
D38*
X34100000Y-33750000D02*
X33950000Y-33650000D01*
D40*
X38600000Y-35260000D02*
X39200000Y-35140000D01*
X44020000Y-53200000D02*
X41780000Y-53200000D01*
X46000000Y-53380000D02*
X44980000Y-54400000D01*
X40340000Y-55000000D02*
X39200000Y-53860000D01*
X37205000Y-39150000D02*
X32005000Y-39150000D01*
X41780000Y-53200000D02*
X41000000Y-52420000D01*
X47200000Y-54340000D02*
X45940000Y-55600000D01*
X40820000Y-54400000D02*
X39800000Y-53380000D01*
X32005000Y-39150000D02*
X31755000Y-38800000D01*
X39200000Y-35740000D02*
X39800000Y-35620000D01*
X44020000Y-35800000D02*
X44800000Y-36580000D01*
X45460000Y-55000000D02*
X40340000Y-55000000D01*
X46000000Y-35620000D02*
X46000000Y-53380000D01*
X37400000Y-34300000D02*
X38000000Y-34180000D01*
X36600000Y-34600000D02*
X37000000Y-33700000D01*
X46900000Y-56800000D02*
X38900000Y-56800000D01*
X38000000Y-54820000D02*
X38000000Y-34780000D01*
X39200000Y-35140000D02*
X40340000Y-34000000D01*
X39200000Y-53860000D02*
X39200000Y-35740000D01*
X39800000Y-36220000D02*
X40400000Y-36100000D01*
X47800000Y-54820000D02*
X46420000Y-56200000D01*
X45460000Y-34000000D02*
X46600000Y-35140000D01*
X40400000Y-36700000D02*
X41000000Y-36580000D01*
X38600000Y-54340000D02*
X38600000Y-35260000D01*
%TO.N,LB*%
D38*
X33300000Y-33225000D02*
X33800000Y-33075000D01*
D40*
X41000000Y-38000000D02*
X42900000Y-38000000D01*
D38*
X34325000Y-33075000D02*
X34550000Y-33300000D01*
D40*
X33275000Y-38350000D02*
X32800000Y-38350000D01*
D38*
X33800000Y-33075000D02*
X34325000Y-33075000D01*
%TO.N,K2*%
D37*
X17400000Y-43500000D02*
X15590000Y-49600000D01*
%TD*%
%TA.AperFunction,Conductor*%
%TO.N,GND*%
G36*
X47133593Y-66702560D02*
G01*
X47138775Y-66710461D01*
X47516357Y-67350710D01*
X47529631Y-67410438D01*
X47505263Y-67466561D01*
X47452560Y-67497642D01*
X47431082Y-67500000D01*
X47425001Y-67500000D01*
X47425000Y-67500001D01*
X47425000Y-68499998D01*
X47425001Y-68499999D01*
X47463081Y-68499999D01*
X47463091Y-68499998D01*
X47510413Y-68493769D01*
X47510415Y-68493769D01*
X47614285Y-68445333D01*
X47676496Y-68383123D01*
X47731013Y-68355346D01*
X47791445Y-68364917D01*
X47834710Y-68408182D01*
X47845500Y-68453127D01*
X47845500Y-70120732D01*
X47843031Y-70128329D01*
X47844281Y-70136219D01*
X47833756Y-70156874D01*
X47826593Y-70178923D01*
X47816504Y-70190736D01*
X47743099Y-70264141D01*
X47688582Y-70291918D01*
X47628150Y-70282347D01*
X47584885Y-70239082D01*
X47580542Y-70228597D01*
X47579590Y-70226729D01*
X47579590Y-70226727D01*
X47543572Y-70156038D01*
X47521781Y-70113268D01*
X47521780Y-70113267D01*
X47521779Y-70113265D01*
X47433494Y-70024980D01*
X47405719Y-69970466D01*
X47404500Y-69954979D01*
X47404500Y-69403328D01*
X47404499Y-69403326D01*
X47380342Y-69313171D01*
X47380341Y-69313170D01*
X47380341Y-69313168D01*
X47333671Y-69232332D01*
X47329074Y-69227735D01*
X47267668Y-69166328D01*
X47267668Y-69166329D01*
X46671342Y-68570003D01*
X46643565Y-68515486D01*
X46653136Y-68455054D01*
X46671338Y-68429999D01*
X46752212Y-68349126D01*
X46806726Y-68321351D01*
X46867158Y-68330922D01*
X46898521Y-68358185D01*
X46898544Y-68358163D01*
X46898862Y-68358481D01*
X46903306Y-68362344D01*
X46904663Y-68364282D01*
X46985714Y-68445333D01*
X47089581Y-68493767D01*
X47089582Y-68493768D01*
X47136916Y-68499999D01*
X47175000Y-68499998D01*
X47175000Y-67500000D01*
X47174999Y-67499999D01*
X47136920Y-67500000D01*
X47136907Y-67500001D01*
X47089586Y-67506230D01*
X47082314Y-67508350D01*
X47081414Y-67505263D01*
X47034572Y-67510997D01*
X46981069Y-67481312D01*
X46955233Y-67425849D01*
X46954500Y-67413823D01*
X46954500Y-66760751D01*
X46973407Y-66702560D01*
X47022907Y-66666596D01*
X47084093Y-66666596D01*
X47133593Y-66702560D01*
G37*
%TD.AperFunction*%
%TA.AperFunction,Conductor*%
G36*
X6363501Y-44167683D02*
G01*
X6434529Y-44238711D01*
X6560971Y-44311712D01*
X6701999Y-44349500D01*
X6716443Y-44349500D01*
X6774634Y-44368407D01*
X6786447Y-44378496D01*
X8156504Y-45748553D01*
X8184281Y-45803070D01*
X8185500Y-45818557D01*
X8185500Y-46268440D01*
X8169974Y-46321667D01*
X8167161Y-46326077D01*
X8167157Y-46326085D01*
X8137071Y-46421358D01*
X8137070Y-46421363D01*
X8137070Y-46421364D01*
X8132667Y-46521191D01*
X8154251Y-46618757D01*
X8200351Y-46707411D01*
X8267826Y-46781113D01*
X8352078Y-46834839D01*
X8383508Y-46844764D01*
X8409308Y-46859660D01*
X8502013Y-46884500D01*
X8509338Y-46884500D01*
X8522853Y-46888768D01*
X8651480Y-46929387D01*
X9375826Y-47158127D01*
X9425621Y-47193680D01*
X9445010Y-47251712D01*
X9431750Y-47302031D01*
X9383288Y-47385969D01*
X9345500Y-47527000D01*
X9345500Y-47546500D01*
X9326593Y-47604691D01*
X9277093Y-47640655D01*
X9246500Y-47645500D01*
X8452750Y-47645500D01*
X8452734Y-47645499D01*
X8446671Y-47645499D01*
X8353329Y-47645499D01*
X8353326Y-47645499D01*
X8263169Y-47669657D01*
X8263165Y-47669659D01*
X8182334Y-47716327D01*
X5862157Y-50036504D01*
X5807640Y-50064281D01*
X5792153Y-50065500D01*
X5591895Y-50065500D01*
X5533704Y-50046593D01*
X5503685Y-50011445D01*
X5486780Y-49978267D01*
X5486779Y-49978265D01*
X5396735Y-49888221D01*
X5396732Y-49888219D01*
X5396731Y-49888218D01*
X5283274Y-49830410D01*
X5283275Y-49830410D01*
X5239207Y-49823430D01*
X5184691Y-49795651D01*
X5156915Y-49741134D01*
X5166487Y-49680702D01*
X5184688Y-49655649D01*
X6123671Y-48716668D01*
X6170341Y-48635832D01*
X6194500Y-48545671D01*
X6194500Y-48452329D01*
X6194500Y-44237689D01*
X6213407Y-44179498D01*
X6262907Y-44143534D01*
X6324093Y-44143534D01*
X6363501Y-44167683D01*
G37*
%TD.AperFunction*%
%TA.AperFunction,Conductor*%
G36*
X7979691Y-43573407D02*
G01*
X8015655Y-43622907D01*
X8020500Y-43653500D01*
X8020500Y-43656999D01*
X8020500Y-43803001D01*
X8058288Y-43944029D01*
X8131289Y-44070471D01*
X8234529Y-44173711D01*
X8360971Y-44246712D01*
X8501999Y-44284500D01*
X8502001Y-44284500D01*
X8647999Y-44284500D01*
X8648001Y-44284500D01*
X8789029Y-44246712D01*
X8915471Y-44173711D01*
X9004716Y-44084465D01*
X9059230Y-44056689D01*
X9119663Y-44066260D01*
X9144718Y-44084463D01*
X9687923Y-44627667D01*
X9764198Y-44671704D01*
X9764200Y-44671704D01*
X9764201Y-44671705D01*
X9806735Y-44683102D01*
X9849269Y-44694499D01*
X9849271Y-44694500D01*
X9849272Y-44694500D01*
X10885377Y-44694500D01*
X10885377Y-44694499D01*
X10970450Y-44671704D01*
X11046726Y-44627667D01*
X11726498Y-43947894D01*
X11781013Y-43920119D01*
X11841445Y-43929690D01*
X11884710Y-43972955D01*
X11895500Y-44017900D01*
X11895500Y-44148001D01*
X11933288Y-44289029D01*
X11933288Y-44289030D01*
X11934968Y-44295297D01*
X11933785Y-44295613D01*
X11938058Y-44349966D01*
X11932262Y-44367054D01*
X11618443Y-45073145D01*
X11577532Y-45118641D01*
X11553603Y-45128563D01*
X11535967Y-45133289D01*
X11409531Y-45206287D01*
X11409529Y-45206289D01*
X11306289Y-45309529D01*
X11233288Y-45435971D01*
X11195500Y-45576999D01*
X11195500Y-45723001D01*
X11233288Y-45864029D01*
X11306289Y-45990471D01*
X11409529Y-46093711D01*
X11432239Y-46106823D01*
X11473179Y-46152291D01*
X11479575Y-46213141D01*
X11452742Y-46262562D01*
X11154081Y-46561223D01*
X11100353Y-46588872D01*
X10464871Y-46694786D01*
X10418783Y-46691538D01*
X9261496Y-46326078D01*
X9108944Y-46277903D01*
X9059149Y-46242351D01*
X9039760Y-46184319D01*
X9058185Y-46125973D01*
X9107386Y-46089601D01*
X9138757Y-46084499D01*
X9169139Y-46084499D01*
X9199458Y-46079696D01*
X9263273Y-46069590D01*
X9376735Y-46011779D01*
X9466779Y-45921735D01*
X9466780Y-45921732D01*
X9468533Y-45919980D01*
X9523050Y-45892203D01*
X9583482Y-45901774D01*
X9608541Y-45919980D01*
X9660109Y-45971548D01*
X9771173Y-46023338D01*
X9771171Y-46023338D01*
X9821774Y-46029999D01*
X9821779Y-46030000D01*
X9884999Y-46030000D01*
X9885000Y-46029999D01*
X9885000Y-45625001D01*
X10135000Y-45625001D01*
X10135000Y-46029999D01*
X10135001Y-46030000D01*
X10198221Y-46030000D01*
X10198225Y-46029999D01*
X10248827Y-46023338D01*
X10359890Y-45971548D01*
X10446548Y-45884890D01*
X10498338Y-45773827D01*
X10504999Y-45723225D01*
X10505000Y-45723221D01*
X10505000Y-45625001D01*
X10504999Y-45625000D01*
X10135001Y-45625000D01*
X10135000Y-45625001D01*
X9885000Y-45625001D01*
X9885000Y-44970001D01*
X10135000Y-44970001D01*
X10135000Y-45374999D01*
X10135001Y-45375000D01*
X10504999Y-45375000D01*
X10505000Y-45374999D01*
X10505000Y-45276779D01*
X10504999Y-45276774D01*
X10498338Y-45226172D01*
X10446548Y-45115109D01*
X10359890Y-45028451D01*
X10248826Y-44976661D01*
X10248828Y-44976661D01*
X10198225Y-44970000D01*
X10135001Y-44970000D01*
X10135000Y-44970001D01*
X9885000Y-44970001D01*
X9884999Y-44970000D01*
X9821774Y-44970000D01*
X9771172Y-44976661D01*
X9660109Y-45028451D01*
X9608541Y-45080020D01*
X9554024Y-45107797D01*
X9493592Y-45098226D01*
X9468533Y-45080020D01*
X9466780Y-45078267D01*
X9466779Y-45078265D01*
X9376735Y-44988221D01*
X9376732Y-44988219D01*
X9376731Y-44988218D01*
X9263274Y-44930410D01*
X9169138Y-44915500D01*
X8810860Y-44915500D01*
X8716727Y-44930410D01*
X8625619Y-44976830D01*
X8565187Y-44986400D01*
X8510672Y-44958623D01*
X7358496Y-43806447D01*
X7331052Y-43753904D01*
X7329500Y-43745242D01*
X7329500Y-43721999D01*
X7316927Y-43675078D01*
X7316190Y-43670961D01*
X7319820Y-43644598D01*
X7321214Y-43618021D01*
X7323945Y-43614647D01*
X7324538Y-43610348D01*
X7342972Y-43591151D01*
X7359719Y-43570472D01*
X7364069Y-43569183D01*
X7366918Y-43566217D01*
X7385051Y-43562968D01*
X7413638Y-43554500D01*
X7921500Y-43554500D01*
X7979691Y-43573407D01*
G37*
%TD.AperFunction*%
%TA.AperFunction,Conductor*%
G36*
X9518522Y-39361537D02*
G01*
X9519900Y-39361368D01*
X9526783Y-39365184D01*
X9532775Y-39367829D01*
X9540830Y-39368818D01*
X9546062Y-39373696D01*
X9566014Y-39382505D01*
X9571404Y-39389924D01*
X9573411Y-39391037D01*
X9584811Y-39403265D01*
X9594437Y-39425065D01*
X9674935Y-39505563D01*
X9779077Y-39551546D01*
X9804540Y-39554500D01*
X9995460Y-39554500D01*
X10020923Y-39551546D01*
X10060013Y-39534285D01*
X10120882Y-39528078D01*
X10139983Y-39534284D01*
X10179077Y-39551546D01*
X10204540Y-39554500D01*
X10395460Y-39554500D01*
X10420923Y-39551546D01*
X10460013Y-39534285D01*
X10520882Y-39528078D01*
X10539983Y-39534284D01*
X10579077Y-39551546D01*
X10604540Y-39554500D01*
X10746500Y-39554500D01*
X10804691Y-39573407D01*
X10840655Y-39622907D01*
X10845500Y-39653500D01*
X10845500Y-39795464D01*
X10848453Y-39820920D01*
X10848455Y-39820927D01*
X10865713Y-39860013D01*
X10871920Y-39920883D01*
X10865713Y-39939987D01*
X10848455Y-39979072D01*
X10848453Y-39979079D01*
X10845500Y-40004535D01*
X10845500Y-40195464D01*
X10848453Y-40220920D01*
X10848453Y-40220922D01*
X10848454Y-40220923D01*
X10894437Y-40325065D01*
X10974935Y-40405563D01*
X10996734Y-40415188D01*
X11008963Y-40426589D01*
X11014960Y-40437405D01*
X11029307Y-40450247D01*
X11033906Y-40471577D01*
X11038632Y-40480100D01*
X11037585Y-40488634D01*
X11042205Y-40510058D01*
X11032169Y-40532777D01*
X11031182Y-40540830D01*
X11026300Y-40546065D01*
X11017484Y-40566026D01*
X10983717Y-40590559D01*
X10981453Y-40591559D01*
X10941453Y-40600000D01*
X10905048Y-40600000D01*
X10905047Y-40600001D01*
X10906080Y-40605192D01*
X10898887Y-40665953D01*
X10896707Y-40669794D01*
X10848453Y-40779079D01*
X10845500Y-40804535D01*
X10845500Y-40995464D01*
X10848453Y-41020920D01*
X10848455Y-41020927D01*
X10865713Y-41060013D01*
X10871920Y-41120883D01*
X10865713Y-41139987D01*
X10848455Y-41179072D01*
X10848453Y-41179079D01*
X10845500Y-41204535D01*
X10845500Y-41395464D01*
X10848453Y-41420920D01*
X10848455Y-41420927D01*
X10865713Y-41460013D01*
X10871920Y-41520883D01*
X10865713Y-41539987D01*
X10848455Y-41579072D01*
X10848453Y-41579079D01*
X10845500Y-41604535D01*
X10845500Y-41795464D01*
X10848453Y-41820920D01*
X10848455Y-41820927D01*
X10865713Y-41860013D01*
X10871920Y-41920883D01*
X10865713Y-41939987D01*
X10848455Y-41979072D01*
X10848453Y-41979079D01*
X10845500Y-42004535D01*
X10845500Y-42146500D01*
X10826593Y-42204691D01*
X10777093Y-42240655D01*
X10746500Y-42245500D01*
X10604535Y-42245500D01*
X10579079Y-42248453D01*
X10579072Y-42248455D01*
X10539987Y-42265713D01*
X10479117Y-42271920D01*
X10460013Y-42265713D01*
X10420927Y-42248455D01*
X10420920Y-42248453D01*
X10395464Y-42245500D01*
X10395460Y-42245500D01*
X10204540Y-42245500D01*
X10204535Y-42245500D01*
X10179079Y-42248453D01*
X10179072Y-42248455D01*
X10139987Y-42265713D01*
X10079117Y-42271920D01*
X10060013Y-42265713D01*
X10020927Y-42248455D01*
X10020920Y-42248453D01*
X9995464Y-42245500D01*
X9995460Y-42245500D01*
X9804540Y-42245500D01*
X9804535Y-42245500D01*
X9779079Y-42248453D01*
X9779072Y-42248455D01*
X9739987Y-42265713D01*
X9679117Y-42271920D01*
X9660013Y-42265713D01*
X9620927Y-42248455D01*
X9620920Y-42248453D01*
X9595464Y-42245500D01*
X9595460Y-42245500D01*
X9404540Y-42245500D01*
X9404535Y-42245500D01*
X9379079Y-42248453D01*
X9379072Y-42248455D01*
X9339987Y-42265713D01*
X9279117Y-42271920D01*
X9260013Y-42265713D01*
X9220927Y-42248455D01*
X9220920Y-42248453D01*
X9195464Y-42245500D01*
X9195460Y-42245500D01*
X9004540Y-42245500D01*
X9004535Y-42245500D01*
X8979079Y-42248453D01*
X8979072Y-42248455D01*
X8939987Y-42265713D01*
X8879117Y-42271920D01*
X8860013Y-42265713D01*
X8820927Y-42248455D01*
X8820920Y-42248453D01*
X8795464Y-42245500D01*
X8795460Y-42245500D01*
X8604540Y-42245500D01*
X8604535Y-42245500D01*
X8579079Y-42248453D01*
X8579072Y-42248455D01*
X8539987Y-42265713D01*
X8479117Y-42271920D01*
X8460013Y-42265713D01*
X8420927Y-42248455D01*
X8420920Y-42248453D01*
X8395464Y-42245500D01*
X8395460Y-42245500D01*
X8253500Y-42245500D01*
X8195309Y-42226593D01*
X8159345Y-42177093D01*
X8154500Y-42146500D01*
X8154500Y-42004539D01*
X8154499Y-42004533D01*
X8151546Y-41979079D01*
X8151546Y-41979077D01*
X8134285Y-41939986D01*
X8128078Y-41879118D01*
X8134286Y-41860012D01*
X8151546Y-41820923D01*
X8154500Y-41795460D01*
X8154500Y-41604540D01*
X8151546Y-41579077D01*
X8134285Y-41539986D01*
X8128078Y-41479118D01*
X8134286Y-41460012D01*
X8138707Y-41450000D01*
X8151546Y-41420923D01*
X8154500Y-41395460D01*
X8154500Y-41204540D01*
X8151546Y-41179077D01*
X8134285Y-41139986D01*
X8128078Y-41079118D01*
X8134286Y-41060012D01*
X8151546Y-41020923D01*
X8154500Y-40995460D01*
X8154500Y-40804540D01*
X8151546Y-40779077D01*
X8134285Y-40739986D01*
X8128078Y-40679118D01*
X8134286Y-40660012D01*
X8151546Y-40620923D01*
X8154500Y-40595460D01*
X8154500Y-40404540D01*
X8151546Y-40379077D01*
X8134285Y-40339986D01*
X8128078Y-40279118D01*
X8134286Y-40260012D01*
X8151546Y-40220923D01*
X8154500Y-40195460D01*
X8154500Y-40004540D01*
X8151546Y-39979077D01*
X8134285Y-39939986D01*
X8133243Y-39929767D01*
X8128080Y-39920888D01*
X8130208Y-39900006D01*
X8128078Y-39879118D01*
X8134284Y-39860018D01*
X8138164Y-39851229D01*
X8142995Y-39841711D01*
X8216710Y-39714032D01*
X8216711Y-39714030D01*
X8216712Y-39714029D01*
X8239796Y-39627876D01*
X8273120Y-39576562D01*
X8318445Y-39555967D01*
X8326872Y-39554500D01*
X8395460Y-39554500D01*
X8420923Y-39551546D01*
X8471089Y-39529395D01*
X8483022Y-39527318D01*
X8501903Y-39530013D01*
X8520882Y-39528078D01*
X8539983Y-39534284D01*
X8579077Y-39551546D01*
X8604540Y-39554500D01*
X8795460Y-39554500D01*
X8820923Y-39551546D01*
X8860013Y-39534285D01*
X8920882Y-39528078D01*
X8939983Y-39534284D01*
X8979077Y-39551546D01*
X9004540Y-39554500D01*
X9195460Y-39554500D01*
X9220923Y-39551546D01*
X9325065Y-39505563D01*
X9405563Y-39425065D01*
X9415188Y-39403265D01*
X9426589Y-39391037D01*
X9437398Y-39385043D01*
X9450233Y-39370700D01*
X9471576Y-39366094D01*
X9480100Y-39361368D01*
X9488628Y-39362414D01*
X9510042Y-39357793D01*
X9518522Y-39361537D01*
G37*
%TD.AperFunction*%
%TA.AperFunction,Conductor*%
G36*
X11641423Y-34933365D02*
G01*
X11676101Y-34966271D01*
X11677338Y-34965322D01*
X11681286Y-34970467D01*
X11681287Y-34970468D01*
X11681289Y-34970471D01*
X11784529Y-35073711D01*
X11910971Y-35146712D01*
X12051999Y-35184500D01*
X12052001Y-35184500D01*
X12197999Y-35184500D01*
X12198001Y-35184500D01*
X12339029Y-35146712D01*
X12465471Y-35073711D01*
X12491833Y-35047349D01*
X12500687Y-35038496D01*
X12555204Y-35010719D01*
X12570690Y-35009500D01*
X14841501Y-35009500D01*
X14899692Y-35028407D01*
X14935656Y-35077907D01*
X14940501Y-35108500D01*
X14940501Y-35174139D01*
X14955410Y-35268273D01*
X15013218Y-35381731D01*
X15013219Y-35381732D01*
X15013221Y-35381735D01*
X15103265Y-35471779D01*
X15103267Y-35471780D01*
X15103268Y-35471781D01*
X15190622Y-35516289D01*
X15216727Y-35529590D01*
X15310863Y-35544500D01*
X15532152Y-35544499D01*
X15590342Y-35563406D01*
X15602156Y-35573495D01*
X16138497Y-36109836D01*
X16651868Y-36623206D01*
X16679645Y-36677723D01*
X16670074Y-36738155D01*
X16658418Y-36755984D01*
X16118204Y-37414782D01*
X16066686Y-37447790D01*
X16054576Y-37450161D01*
X16051999Y-37450500D01*
X15910971Y-37488288D01*
X15784529Y-37561289D01*
X15681289Y-37664529D01*
X15608288Y-37790971D01*
X15570500Y-37931999D01*
X15570500Y-38078001D01*
X15608288Y-38219029D01*
X15635149Y-38265553D01*
X15647870Y-38325402D01*
X15622983Y-38381297D01*
X15578806Y-38409589D01*
X13189614Y-39152447D01*
X13189609Y-39152450D01*
X13105130Y-39205797D01*
X13064163Y-39250147D01*
X13010790Y-39280063D01*
X12996933Y-39281820D01*
X11853453Y-39345348D01*
X11847961Y-39345500D01*
X11153500Y-39345500D01*
X11095309Y-39326593D01*
X11059345Y-39277093D01*
X11054500Y-39246500D01*
X11054500Y-38504539D01*
X11054499Y-38504535D01*
X11051546Y-38479079D01*
X11051546Y-38479077D01*
X11005563Y-38374935D01*
X10925065Y-38294437D01*
X10820923Y-38248454D01*
X10820920Y-38248453D01*
X10814111Y-38245447D01*
X10815442Y-38242431D01*
X10776098Y-38216671D01*
X10754385Y-38159467D01*
X10755418Y-38139611D01*
X10804633Y-37819714D01*
X10832169Y-37765076D01*
X10833612Y-37763650D01*
X10849790Y-37747998D01*
X10901173Y-37662296D01*
X10992573Y-37342389D01*
X11026739Y-37291633D01*
X11038257Y-37283855D01*
X11090471Y-37253711D01*
X11193711Y-37150471D01*
X11266712Y-37024029D01*
X11304500Y-36883001D01*
X11304500Y-36736999D01*
X11266712Y-36595971D01*
X11193711Y-36469529D01*
X11090471Y-36366289D01*
X10964029Y-36293288D01*
X10823001Y-36255500D01*
X10676999Y-36255500D01*
X10638969Y-36265689D01*
X10569125Y-36284404D01*
X10508024Y-36281201D01*
X10460474Y-36242696D01*
X10453778Y-36230615D01*
X10446547Y-36215108D01*
X10359890Y-36128451D01*
X10248826Y-36076661D01*
X10248828Y-36076661D01*
X10198225Y-36070000D01*
X10135001Y-36070000D01*
X10135000Y-36070001D01*
X10135000Y-36501000D01*
X10130155Y-36515911D01*
X10130155Y-36531593D01*
X10120938Y-36544278D01*
X10116093Y-36559191D01*
X10103407Y-36568407D01*
X10094191Y-36581093D01*
X10079278Y-36585938D01*
X10066593Y-36595155D01*
X10036000Y-36600000D01*
X9984000Y-36600000D01*
X9925809Y-36581093D01*
X9889845Y-36531593D01*
X9885000Y-36501000D01*
X9885000Y-36070001D01*
X9856003Y-36041004D01*
X9858374Y-36038632D01*
X9831463Y-36001593D01*
X9831463Y-35940407D01*
X9855614Y-35900996D01*
X10524115Y-35232496D01*
X10578632Y-35204719D01*
X10594119Y-35203500D01*
X11171552Y-35203500D01*
X11171554Y-35203500D01*
X11264259Y-35178660D01*
X11347375Y-35130672D01*
X11415239Y-35062808D01*
X11415238Y-35062808D01*
X11526474Y-34951572D01*
X11580991Y-34923794D01*
X11641423Y-34933365D01*
G37*
%TD.AperFunction*%
%TA.AperFunction,Conductor*%
G36*
X17223190Y-34634530D02*
G01*
X17223191Y-34634530D01*
X17956329Y-35367668D01*
X17956328Y-35367668D01*
X17989661Y-35401000D01*
X18022332Y-35433671D01*
X18103168Y-35480341D01*
X18103170Y-35480341D01*
X18103171Y-35480342D01*
X18140428Y-35490325D01*
X18193326Y-35504499D01*
X18193328Y-35504500D01*
X18193329Y-35504500D01*
X18863668Y-35504500D01*
X18875635Y-35505226D01*
X19043979Y-35525726D01*
X19051895Y-35529407D01*
X19073849Y-35534274D01*
X19104189Y-35548422D01*
X19130206Y-35551847D01*
X19185431Y-35578189D01*
X19214625Y-35631960D01*
X19206639Y-35692622D01*
X19164521Y-35737003D01*
X19146157Y-35744696D01*
X19138325Y-35747083D01*
X19104189Y-35751578D01*
X19067542Y-35768666D01*
X19060886Y-35770696D01*
X19052145Y-35770536D01*
X19032012Y-35775000D01*
X18927316Y-35775000D01*
X18934293Y-35810077D01*
X18927101Y-35870838D01*
X18926920Y-35871230D01*
X18923823Y-35877870D01*
X18923823Y-35877871D01*
X18921118Y-35883672D01*
X18877009Y-35978265D01*
X18876578Y-35979189D01*
X18873629Y-36001593D01*
X18870500Y-36025357D01*
X18870500Y-36206500D01*
X18851593Y-36264691D01*
X18802093Y-36300655D01*
X18771500Y-36305500D01*
X17377846Y-36305500D01*
X17319655Y-36286593D01*
X17307842Y-36276504D01*
X16728718Y-35697380D01*
X16700941Y-35642863D01*
X16710512Y-35582431D01*
X16753777Y-35539166D01*
X16783236Y-35529595D01*
X16783273Y-35529590D01*
X16896735Y-35471779D01*
X16986779Y-35381735D01*
X17044590Y-35268273D01*
X17059500Y-35174137D01*
X17059499Y-34745864D01*
X17059441Y-34745500D01*
X17056749Y-34728500D01*
X17055406Y-34720021D01*
X17064977Y-34659590D01*
X17108241Y-34616325D01*
X17168673Y-34606753D01*
X17223190Y-34634530D01*
G37*
%TD.AperFunction*%
%TA.AperFunction,Conductor*%
G36*
X29948435Y-31187094D02*
G01*
X29977496Y-31194881D01*
X29977837Y-31195302D01*
X29978359Y-31195448D01*
X29997052Y-31219031D01*
X30016001Y-31242431D01*
X30016029Y-31242972D01*
X30016366Y-31243397D01*
X30019204Y-31303532D01*
X29995500Y-31391999D01*
X29995500Y-31538001D01*
X30033288Y-31679029D01*
X30106289Y-31805471D01*
X30209529Y-31908711D01*
X30335971Y-31981712D01*
X30476999Y-32019500D01*
X30477001Y-32019500D01*
X30622996Y-32019500D01*
X30623001Y-32019500D01*
X30623005Y-32019498D01*
X30628068Y-32018832D01*
X30688229Y-32029980D01*
X30710998Y-32046981D01*
X31431504Y-32767487D01*
X31459281Y-32822004D01*
X31460500Y-32837491D01*
X31460500Y-34898391D01*
X31441593Y-34956582D01*
X31430172Y-34969701D01*
X31419565Y-34979915D01*
X31403265Y-34988221D01*
X31313221Y-35078265D01*
X31309157Y-35086239D01*
X31297172Y-35097782D01*
X31283849Y-35104257D01*
X31273367Y-35114721D01*
X31257024Y-35117294D01*
X31242142Y-35124528D01*
X31227556Y-35121935D01*
X31212927Y-35124239D01*
X31198192Y-35116715D01*
X31181901Y-35113819D01*
X31171626Y-35103149D01*
X31158435Y-35096414D01*
X31150936Y-35081665D01*
X31139459Y-35069747D01*
X31137417Y-35055076D01*
X31130705Y-35041873D01*
X31129500Y-35026472D01*
X31129500Y-34913163D01*
X31123399Y-34874644D01*
X31114498Y-34818445D01*
X31114495Y-34818440D01*
X31114495Y-34818438D01*
X31056328Y-34704281D01*
X31056327Y-34704279D01*
X31056326Y-34704277D01*
X30965723Y-34613674D01*
X30965720Y-34613672D01*
X30965718Y-34613671D01*
X30851561Y-34555504D01*
X30851556Y-34555502D01*
X30851555Y-34555502D01*
X30827874Y-34551751D01*
X30756837Y-34540500D01*
X30756834Y-34540500D01*
X29761014Y-34540500D01*
X29702823Y-34521593D01*
X29675278Y-34491001D01*
X29663690Y-34470930D01*
X28873883Y-33681123D01*
X28846106Y-33626606D01*
X28855677Y-33566174D01*
X28873884Y-33541115D01*
X28885000Y-33529999D01*
X28885000Y-33125001D01*
X29135000Y-33125001D01*
X29135000Y-33529999D01*
X29135001Y-33530000D01*
X29198221Y-33530000D01*
X29198225Y-33529999D01*
X29248827Y-33523338D01*
X29359890Y-33471548D01*
X29446548Y-33384890D01*
X29498338Y-33273827D01*
X29504999Y-33223225D01*
X29505000Y-33223221D01*
X29505000Y-33125001D01*
X29504999Y-33125000D01*
X29135001Y-33125000D01*
X29135000Y-33125001D01*
X28885000Y-33125001D01*
X28885000Y-32470001D01*
X29135000Y-32470001D01*
X29135000Y-32874999D01*
X29135001Y-32875000D01*
X29504999Y-32875000D01*
X29505000Y-32874999D01*
X29505000Y-32776779D01*
X29504999Y-32776774D01*
X29498338Y-32726172D01*
X29446548Y-32615109D01*
X29359890Y-32528451D01*
X29248826Y-32476661D01*
X29248828Y-32476661D01*
X29198225Y-32470000D01*
X29135001Y-32470000D01*
X29135000Y-32470001D01*
X28885000Y-32470001D01*
X28884999Y-32470000D01*
X28821774Y-32470000D01*
X28771172Y-32476661D01*
X28660109Y-32528451D01*
X28608541Y-32580020D01*
X28554024Y-32607797D01*
X28493592Y-32598226D01*
X28468533Y-32580020D01*
X28466780Y-32578267D01*
X28466779Y-32578265D01*
X28376735Y-32488221D01*
X28376732Y-32488219D01*
X28376731Y-32488218D01*
X28263274Y-32430410D01*
X28169138Y-32415500D01*
X27810860Y-32415500D01*
X27716726Y-32430410D01*
X27603268Y-32488218D01*
X27513218Y-32578268D01*
X27455410Y-32691725D01*
X27440500Y-32785861D01*
X27440500Y-32835699D01*
X27421593Y-32893890D01*
X27397056Y-32917641D01*
X27392772Y-32920545D01*
X27303323Y-33000056D01*
X26048813Y-34905053D01*
X26001018Y-34943253D01*
X25939897Y-34946065D01*
X25888797Y-34912413D01*
X25868165Y-34864876D01*
X25865087Y-34843749D01*
X25813785Y-34738811D01*
X25731187Y-34656213D01*
X25626248Y-34604912D01*
X25558216Y-34595000D01*
X25025001Y-34595000D01*
X25025000Y-34595001D01*
X25025000Y-35594998D01*
X25025001Y-35594999D01*
X25187542Y-35594999D01*
X25197602Y-35598267D01*
X25208124Y-35597162D01*
X25226048Y-35607510D01*
X25245733Y-35613906D01*
X25251951Y-35622464D01*
X25261113Y-35627754D01*
X25269531Y-35646661D01*
X25281697Y-35663406D01*
X25281697Y-35673985D01*
X25286000Y-35683650D01*
X25281697Y-35703894D01*
X25281697Y-35724592D01*
X25273279Y-35743498D01*
X25263175Y-35760999D01*
X25217706Y-35801941D01*
X25177438Y-35810500D01*
X24542875Y-35810500D01*
X24484684Y-35791593D01*
X24464336Y-35771772D01*
X24463692Y-35770933D01*
X24463691Y-35770932D01*
X24463690Y-35770930D01*
X24456760Y-35764000D01*
X24428985Y-35709486D01*
X24438556Y-35649054D01*
X24481821Y-35605789D01*
X24526766Y-35594999D01*
X24774999Y-35594999D01*
X24775000Y-35594998D01*
X24775000Y-35220001D01*
X24774999Y-35220000D01*
X23901087Y-35220000D01*
X23895309Y-35222943D01*
X23854214Y-35220787D01*
X23848201Y-35219176D01*
X23848199Y-35219174D01*
X23848199Y-35219176D01*
X23794245Y-35204719D01*
X23759836Y-35195499D01*
X23640164Y-35195499D01*
X23634101Y-35195499D01*
X23634085Y-35195500D01*
X22640164Y-35195500D01*
X22548727Y-35220000D01*
X22524565Y-35226474D01*
X22420930Y-35286308D01*
X22336308Y-35370929D01*
X22336309Y-35370930D01*
X22336307Y-35370932D01*
X22170932Y-35536307D01*
X22170930Y-35536309D01*
X22170929Y-35536308D01*
X22086308Y-35620930D01*
X22026472Y-35724568D01*
X22023100Y-35737155D01*
X22023099Y-35737159D01*
X22020154Y-35748153D01*
X22018359Y-35754851D01*
X21985034Y-35806164D01*
X21938220Y-35827006D01*
X21916726Y-35830410D01*
X21848444Y-35865201D01*
X21788012Y-35874772D01*
X21733496Y-35846994D01*
X21705719Y-35792477D01*
X21704500Y-35776991D01*
X21704500Y-34911784D01*
X23925000Y-34911784D01*
X23925000Y-34969999D01*
X23925001Y-34970000D01*
X24774999Y-34970000D01*
X24775000Y-34969999D01*
X24775000Y-34595001D01*
X24774999Y-34595000D01*
X24241786Y-34595000D01*
X24241783Y-34595001D01*
X24173749Y-34604912D01*
X24068811Y-34656214D01*
X23986213Y-34738812D01*
X23934912Y-34843751D01*
X23925000Y-34911784D01*
X21704500Y-34911784D01*
X21704500Y-34833103D01*
X21705205Y-34821308D01*
X21706887Y-34807288D01*
X21708393Y-34794742D01*
X21704500Y-34767584D01*
X21704500Y-34740164D01*
X21696047Y-34708617D01*
X21691412Y-34676281D01*
X21691411Y-34676277D01*
X21683405Y-34657562D01*
X21678799Y-34644246D01*
X21673527Y-34624569D01*
X21670027Y-34618507D01*
X21657194Y-34596279D01*
X21644350Y-34566250D01*
X21627405Y-34544684D01*
X21623874Y-34538569D01*
X21623874Y-34538566D01*
X21613695Y-34520934D01*
X21613691Y-34520930D01*
X21594774Y-34502012D01*
X21586933Y-34493174D01*
X21081763Y-33850230D01*
X21081763Y-33850229D01*
X21077400Y-33844677D01*
X21063690Y-33820930D01*
X21040595Y-33797835D01*
X21037330Y-33793680D01*
X21036937Y-33793179D01*
X21020413Y-33772149D01*
X21020409Y-33772145D01*
X21004113Y-33759935D01*
X20993472Y-33750712D01*
X19413692Y-32170932D01*
X19413691Y-32170930D01*
X19329070Y-32086309D01*
X19326299Y-32084709D01*
X19225434Y-32026474D01*
X19225427Y-32026471D01*
X19199408Y-32019499D01*
X19199408Y-32019500D01*
X19151679Y-32006711D01*
X19109836Y-31995499D01*
X18990164Y-31995499D01*
X18984101Y-31995499D01*
X18984085Y-31995500D01*
X17890164Y-31995500D01*
X17835992Y-32010014D01*
X17774563Y-32026474D01*
X17770966Y-32027965D01*
X17733083Y-32035500D01*
X17076609Y-32035500D01*
X17018418Y-32016593D01*
X16988398Y-31981442D01*
X16986780Y-31978267D01*
X16986779Y-31978265D01*
X16899934Y-31891420D01*
X16872159Y-31836906D01*
X16881730Y-31776474D01*
X16924995Y-31733209D01*
X16965788Y-31722506D01*
X29919429Y-31178997D01*
X29948435Y-31187094D01*
G37*
%TD.AperFunction*%
%TA.AperFunction,Conductor*%
G36*
X32710175Y-33038407D02*
G01*
X32746139Y-33087907D01*
X32747610Y-33144124D01*
X32745500Y-33151996D01*
X32745500Y-33151999D01*
X32745500Y-33298001D01*
X32783288Y-33439029D01*
X32856289Y-33565471D01*
X32959529Y-33668711D01*
X33085971Y-33741712D01*
X33226999Y-33779500D01*
X33227001Y-33779500D01*
X33334673Y-33779500D01*
X33392864Y-33798407D01*
X33428828Y-33847907D01*
X33430299Y-33852875D01*
X33433288Y-33864029D01*
X33506289Y-33990471D01*
X33609529Y-34093711D01*
X33735971Y-34166712D01*
X33786958Y-34180373D01*
X33838271Y-34213697D01*
X33860198Y-34270818D01*
X33844363Y-34329919D01*
X33796813Y-34368424D01*
X33761334Y-34375000D01*
X33707289Y-34375000D01*
X33715229Y-34414923D01*
X33773245Y-34501748D01*
X33773250Y-34501753D01*
X33860076Y-34559768D01*
X33936643Y-34574999D01*
X33936645Y-34575000D01*
X33974999Y-34575000D01*
X34001496Y-34548503D01*
X34022151Y-34537978D01*
X34040907Y-34524352D01*
X34048896Y-34524352D01*
X34056013Y-34520726D01*
X34078908Y-34524352D01*
X34102093Y-34524352D01*
X34108555Y-34529047D01*
X34116445Y-34530297D01*
X34132836Y-34546688D01*
X34151593Y-34560316D01*
X34154061Y-34567913D01*
X34159710Y-34573562D01*
X34170500Y-34618507D01*
X34170500Y-34700628D01*
X34151593Y-34758819D01*
X34121001Y-34786364D01*
X34034530Y-34836288D01*
X34034529Y-34836289D01*
X33931289Y-34939529D01*
X33858288Y-35065971D01*
X33820500Y-35206999D01*
X33820500Y-35353001D01*
X33858288Y-35494029D01*
X33931289Y-35620471D01*
X33937316Y-35626498D01*
X33965092Y-35681013D01*
X33955521Y-35741445D01*
X33912256Y-35784710D01*
X33867311Y-35795500D01*
X33648311Y-35795500D01*
X33598812Y-35782237D01*
X33514029Y-35733288D01*
X33442556Y-35714137D01*
X33378377Y-35696940D01*
X33327062Y-35663615D01*
X33316750Y-35636751D01*
X33304999Y-35625000D01*
X32909000Y-35625000D01*
X32894088Y-35620155D01*
X32878407Y-35620155D01*
X32865721Y-35610938D01*
X32850809Y-35606093D01*
X32841592Y-35593407D01*
X32828907Y-35584191D01*
X32824061Y-35569278D01*
X32814845Y-35556593D01*
X32810000Y-35526000D01*
X32810000Y-35500000D01*
X32784000Y-35500000D01*
X32725809Y-35481093D01*
X32689845Y-35431593D01*
X32685000Y-35401000D01*
X32685000Y-34970001D01*
X32935000Y-34970001D01*
X32935000Y-35375000D01*
X33304999Y-35375000D01*
X33305000Y-35374999D01*
X33305000Y-35276779D01*
X33304999Y-35276774D01*
X33298338Y-35226172D01*
X33246548Y-35115109D01*
X33159890Y-35028451D01*
X33048826Y-34976661D01*
X33048828Y-34976661D01*
X32998225Y-34970000D01*
X32935001Y-34970000D01*
X32935000Y-34970001D01*
X32685000Y-34970001D01*
X32684999Y-34970000D01*
X32621774Y-34970000D01*
X32571172Y-34976661D01*
X32460109Y-35028451D01*
X32408541Y-35080020D01*
X32396133Y-35086341D01*
X32386653Y-35096537D01*
X32369550Y-35099885D01*
X32354024Y-35107797D01*
X32340272Y-35105619D01*
X32326608Y-35108295D01*
X32311873Y-35101121D01*
X32293592Y-35098226D01*
X32271120Y-35082514D01*
X32266984Y-35078668D01*
X32266779Y-35078265D01*
X32176735Y-34988221D01*
X32161220Y-34980315D01*
X32151083Y-34970889D01*
X32142613Y-34955659D01*
X32130290Y-34943336D01*
X32126135Y-34926029D01*
X32121345Y-34917416D01*
X32122259Y-34909884D01*
X32119500Y-34898391D01*
X32119500Y-33118500D01*
X32138407Y-33060309D01*
X32187907Y-33024345D01*
X32218500Y-33019500D01*
X32651984Y-33019500D01*
X32710175Y-33038407D01*
G37*
%TD.AperFunction*%
%TA.AperFunction,Conductor*%
G36*
X17638923Y-32783407D02*
G01*
X17650729Y-32793490D01*
X17670930Y-32813691D01*
X17765032Y-32868021D01*
X17774566Y-32873525D01*
X17774569Y-32873527D01*
X17890164Y-32904500D01*
X18820732Y-32904500D01*
X18878923Y-32923407D01*
X18890736Y-32933496D01*
X20355225Y-34397985D01*
X20363059Y-34406816D01*
X20583857Y-34687832D01*
X20590531Y-34706013D01*
X20601294Y-34722121D01*
X20600825Y-34734054D01*
X20604941Y-34745266D01*
X20599652Y-34763901D01*
X20598892Y-34783260D01*
X20591496Y-34792640D01*
X20588237Y-34804127D01*
X20561012Y-34831309D01*
X20555000Y-34835326D01*
X20496111Y-34851934D01*
X20444997Y-34835325D01*
X20414922Y-34815229D01*
X20375000Y-34807287D01*
X20375000Y-35024999D01*
X20375001Y-35025000D01*
X20651000Y-35025000D01*
X20665912Y-35029845D01*
X20681593Y-35029845D01*
X20694278Y-35039061D01*
X20709191Y-35043907D01*
X20718407Y-35056592D01*
X20731093Y-35065809D01*
X20735938Y-35080721D01*
X20745155Y-35093407D01*
X20750000Y-35124000D01*
X20750000Y-35176000D01*
X20731093Y-35234191D01*
X20681593Y-35270155D01*
X20651000Y-35275000D01*
X20375001Y-35275000D01*
X20375000Y-35275001D01*
X20375000Y-35492710D01*
X20391260Y-35506055D01*
X20399748Y-35507059D01*
X20412890Y-35519205D01*
X20424076Y-35525000D01*
X20651000Y-35525000D01*
X20709191Y-35543907D01*
X20745155Y-35593407D01*
X20750000Y-35624000D01*
X20750000Y-35646500D01*
X20731093Y-35704691D01*
X20681593Y-35740655D01*
X20653578Y-35745091D01*
X20653591Y-35745288D01*
X20651454Y-35745428D01*
X20651000Y-35745500D01*
X20650356Y-35745500D01*
X20604189Y-35751578D01*
X20604187Y-35751578D01*
X20604186Y-35751579D01*
X20588236Y-35759016D01*
X20573849Y-35765725D01*
X20532012Y-35775000D01*
X20416235Y-35775000D01*
X20416226Y-35775009D01*
X20405774Y-35776592D01*
X20396871Y-35782292D01*
X20371874Y-35785500D01*
X19628126Y-35785500D01*
X19595810Y-35775000D01*
X19467988Y-35775000D01*
X19453076Y-35770155D01*
X19437395Y-35770155D01*
X19426153Y-35765726D01*
X19395811Y-35751578D01*
X19369792Y-35748152D01*
X19314568Y-35721812D01*
X19285374Y-35668041D01*
X19293360Y-35607379D01*
X19335478Y-35562997D01*
X19369791Y-35551847D01*
X19395811Y-35548422D01*
X19426150Y-35534274D01*
X19433558Y-35532632D01*
X19437395Y-35529845D01*
X19446132Y-35529845D01*
X19467988Y-35525000D01*
X19579480Y-35525000D01*
X19607557Y-35507025D01*
X19625000Y-35492710D01*
X19625000Y-35315312D01*
X19625404Y-35306372D01*
X19625583Y-35304393D01*
X19629453Y-35275001D01*
X19875000Y-35275001D01*
X19875000Y-35492710D01*
X19914920Y-35484770D01*
X19914923Y-35484769D01*
X19944998Y-35464674D01*
X20003886Y-35448065D01*
X20055002Y-35464674D01*
X20085076Y-35484769D01*
X20085079Y-35484770D01*
X20124999Y-35492710D01*
X20125000Y-35492710D01*
X20125000Y-35275001D01*
X20124999Y-35275000D01*
X19875001Y-35275000D01*
X19875000Y-35275001D01*
X19629453Y-35275001D01*
X19629500Y-35274644D01*
X19629500Y-35261197D01*
X19629904Y-35256742D01*
X19631020Y-35254135D01*
X19632873Y-35240060D01*
X19644500Y-35196671D01*
X19644500Y-35103329D01*
X19632873Y-35059937D01*
X19629904Y-35043254D01*
X19629500Y-35038798D01*
X19629500Y-35025356D01*
X19625583Y-34995610D01*
X19625404Y-34993626D01*
X19625545Y-34993005D01*
X19625000Y-34984686D01*
X19625000Y-34807288D01*
X19624998Y-34807287D01*
X19875000Y-34807287D01*
X19875000Y-35024999D01*
X19875001Y-35025000D01*
X20124999Y-35025000D01*
X20125000Y-35024999D01*
X20125000Y-34807288D01*
X20124999Y-34807287D01*
X20085078Y-34815229D01*
X20055001Y-34835326D01*
X19996113Y-34851934D01*
X19944999Y-34835326D01*
X19914921Y-34815229D01*
X19875000Y-34807287D01*
X19624998Y-34807287D01*
X19576300Y-34816975D01*
X19515539Y-34809785D01*
X19500201Y-34800974D01*
X19497126Y-34798821D01*
X19395819Y-34751581D01*
X19395814Y-34751579D01*
X19395811Y-34751578D01*
X19349644Y-34745500D01*
X19150356Y-34745500D01*
X19104189Y-34751578D01*
X19104187Y-34751578D01*
X19104186Y-34751579D01*
X19029888Y-34786225D01*
X18988049Y-34795500D01*
X18427847Y-34795500D01*
X18369656Y-34776593D01*
X18357843Y-34766504D01*
X16728719Y-33137380D01*
X16700942Y-33082863D01*
X16710513Y-33022431D01*
X16753778Y-32979166D01*
X16783240Y-32969595D01*
X16783273Y-32969590D01*
X16896735Y-32911779D01*
X16986779Y-32821735D01*
X16988398Y-32818558D01*
X16990920Y-32816035D01*
X16991361Y-32815429D01*
X16991457Y-32815498D01*
X17031661Y-32775292D01*
X17076609Y-32764500D01*
X17580732Y-32764500D01*
X17638923Y-32783407D01*
G37*
%TD.AperFunction*%
%TA.AperFunction,Conductor*%
G36*
X35609989Y-31177407D02*
G01*
X35621802Y-31187496D01*
X36041504Y-31607198D01*
X36069281Y-31661715D01*
X36070500Y-31677202D01*
X36070500Y-32429288D01*
X36051593Y-32487479D01*
X36002093Y-32523443D01*
X35940907Y-32523443D01*
X35891407Y-32487479D01*
X35880420Y-32464444D01*
X35879416Y-32464861D01*
X35876932Y-32458865D01*
X35823683Y-32366635D01*
X35823681Y-32366633D01*
X35823680Y-32366631D01*
X35748369Y-32291320D01*
X35748366Y-32291318D01*
X35748364Y-32291316D01*
X35656134Y-32238067D01*
X35656136Y-32238067D01*
X35616217Y-32227371D01*
X35553253Y-32210500D01*
X35553251Y-32210500D01*
X31847491Y-32210500D01*
X31789300Y-32191593D01*
X31777487Y-32181504D01*
X31133496Y-31537513D01*
X31105719Y-31482996D01*
X31104500Y-31467509D01*
X31104500Y-31392000D01*
X31080795Y-31303532D01*
X31075327Y-31283122D01*
X31078530Y-31222021D01*
X31117035Y-31174471D01*
X31170954Y-31158500D01*
X35551798Y-31158500D01*
X35609989Y-31177407D01*
G37*
%TD.AperFunction*%
%TA.AperFunction,Conductor*%
G36*
X3773501Y-28257683D02*
G01*
X3859529Y-28343711D01*
X3985971Y-28416712D01*
X4126999Y-28454500D01*
X4127001Y-28454500D01*
X4272999Y-28454500D01*
X4273001Y-28454500D01*
X4414029Y-28416712D01*
X4540471Y-28343711D01*
X4550687Y-28333494D01*
X4605202Y-28305719D01*
X4620689Y-28304500D01*
X9021500Y-28304500D01*
X9079691Y-28323407D01*
X9115655Y-28372907D01*
X9120500Y-28403500D01*
X9120500Y-28861250D01*
X9123386Y-28909702D01*
X9169238Y-29120483D01*
X9254151Y-29318771D01*
X9254154Y-29318777D01*
X9375053Y-29497407D01*
X9375055Y-29497409D01*
X9375058Y-29497413D01*
X9527587Y-29649942D01*
X9527590Y-29649944D01*
X9527592Y-29649946D01*
X9627651Y-29717667D01*
X9706226Y-29770848D01*
X9904518Y-29855762D01*
X10115297Y-29901614D01*
X10163746Y-29904500D01*
X12515546Y-29904500D01*
X12517329Y-29905079D01*
X12519132Y-29904565D01*
X12546255Y-29914477D01*
X12573737Y-29923407D01*
X12574839Y-29924924D01*
X12576600Y-29925568D01*
X12592714Y-29949527D01*
X12609701Y-29972907D01*
X12609701Y-29974782D01*
X12610747Y-29976338D01*
X12609701Y-30005199D01*
X12609701Y-30034093D01*
X12608598Y-30035609D01*
X12608531Y-30037483D01*
X12598975Y-30048855D01*
X12573737Y-30083593D01*
X12570797Y-30085648D01*
X12567982Y-30087541D01*
X12509529Y-30121289D01*
X12492527Y-30138290D01*
X12484562Y-30143648D01*
X12463923Y-30149536D01*
X12444798Y-30159281D01*
X12429311Y-30160500D01*
X12296747Y-30160500D01*
X12245308Y-30174283D01*
X12193867Y-30188066D01*
X12177984Y-30197237D01*
X12128485Y-30210500D01*
X9513379Y-30210500D01*
X9426621Y-30210500D01*
X9396112Y-30218675D01*
X9342813Y-30232956D01*
X9267686Y-30276331D01*
X9206331Y-30337686D01*
X9162956Y-30412813D01*
X9140500Y-30496622D01*
X9140500Y-30982508D01*
X9121593Y-31040699D01*
X9111504Y-31052512D01*
X7913504Y-32250512D01*
X7858987Y-32278289D01*
X7798555Y-32268718D01*
X7755290Y-32225453D01*
X7744500Y-32180508D01*
X7744500Y-31886056D01*
X7763407Y-31827865D01*
X7773490Y-31816058D01*
X7773826Y-31815723D01*
X7831998Y-31701555D01*
X7844759Y-31620985D01*
X7847000Y-31606836D01*
X7847000Y-30518163D01*
X7842167Y-30487654D01*
X7831998Y-30423445D01*
X7831995Y-30423440D01*
X7831995Y-30423438D01*
X7773828Y-30309281D01*
X7773827Y-30309279D01*
X7773826Y-30309277D01*
X7683223Y-30218674D01*
X7683220Y-30218672D01*
X7683218Y-30218671D01*
X7569061Y-30160504D01*
X7569056Y-30160502D01*
X7569055Y-30160502D01*
X7545374Y-30156751D01*
X7474337Y-30145500D01*
X7474334Y-30145500D01*
X7110666Y-30145500D01*
X7110663Y-30145500D01*
X7015945Y-30160502D01*
X7015938Y-30160504D01*
X6901781Y-30218671D01*
X6901775Y-30218675D01*
X6848964Y-30271485D01*
X6794447Y-30299261D01*
X6734015Y-30289689D01*
X6708958Y-30271484D01*
X6698687Y-30261213D01*
X6593748Y-30209912D01*
X6525716Y-30200000D01*
X6467501Y-30200000D01*
X6467500Y-30200001D01*
X6467500Y-30963500D01*
X6462655Y-30978411D01*
X6462655Y-30994093D01*
X6453438Y-31006778D01*
X6448593Y-31021691D01*
X6435907Y-31030907D01*
X6426691Y-31043593D01*
X6411778Y-31048438D01*
X6399093Y-31057655D01*
X6368500Y-31062500D01*
X6316500Y-31062500D01*
X6258309Y-31043593D01*
X6222345Y-30994093D01*
X6217500Y-30963500D01*
X6217500Y-30199999D01*
X6159286Y-30200000D01*
X6159282Y-30200001D01*
X6091250Y-30209912D01*
X5986310Y-30261214D01*
X5986307Y-30261217D01*
X5976035Y-30271488D01*
X5921517Y-30299262D01*
X5861085Y-30289687D01*
X5836035Y-30271486D01*
X5783223Y-30218674D01*
X5783220Y-30218672D01*
X5783218Y-30218671D01*
X5669061Y-30160504D01*
X5669056Y-30160502D01*
X5669055Y-30160502D01*
X5645374Y-30156751D01*
X5574337Y-30145500D01*
X5574334Y-30145500D01*
X5210666Y-30145500D01*
X5210663Y-30145500D01*
X5115945Y-30160502D01*
X5115938Y-30160504D01*
X5001781Y-30218671D01*
X5001779Y-30218672D01*
X4911172Y-30309279D01*
X4911171Y-30309281D01*
X4853004Y-30423438D01*
X4853002Y-30423445D01*
X4838000Y-30518163D01*
X4838000Y-31606837D01*
X4841829Y-31631013D01*
X4832258Y-31691445D01*
X4788993Y-31734710D01*
X4744048Y-31745500D01*
X3703500Y-31745500D01*
X3645309Y-31726593D01*
X3609345Y-31677093D01*
X3604500Y-31646500D01*
X3604500Y-28327689D01*
X3623407Y-28269498D01*
X3672907Y-28233534D01*
X3734093Y-28233534D01*
X3773501Y-28257683D01*
G37*
%TD.AperFunction*%
%TA.AperFunction,Conductor*%
G36*
X29208808Y-30272407D02*
G01*
X29244772Y-30321907D01*
X29244772Y-30383093D01*
X29208808Y-30432593D01*
X29154767Y-30451413D01*
X16123932Y-30998160D01*
X16123933Y-30998161D01*
X16115691Y-30998506D01*
X16097495Y-30996233D01*
X16065968Y-31000593D01*
X16061243Y-31000792D01*
X16034172Y-31001928D01*
X16034171Y-31001928D01*
X16024549Y-31004944D01*
X16008509Y-31008541D01*
X15998509Y-31009924D01*
X15973539Y-31020458D01*
X15969169Y-31022301D01*
X15938822Y-31031814D01*
X15923347Y-31041634D01*
X15915747Y-31044841D01*
X15915745Y-31044843D01*
X15906447Y-31048766D01*
X15906445Y-31048767D01*
X15885060Y-31065399D01*
X15877339Y-31070833D01*
X15854454Y-31085359D01*
X15847620Y-31092791D01*
X15835529Y-31103923D01*
X15443013Y-31409215D01*
X15437630Y-31413401D01*
X15416981Y-31425324D01*
X15398355Y-31443948D01*
X15393486Y-31447736D01*
X15393483Y-31447736D01*
X15377573Y-31460112D01*
X15377568Y-31460117D01*
X15367291Y-31473693D01*
X15358369Y-31483934D01*
X15346324Y-31495980D01*
X15336236Y-31513452D01*
X15329439Y-31523697D01*
X15317261Y-31539785D01*
X15317259Y-31539788D01*
X15310845Y-31555565D01*
X15308278Y-31561877D01*
X15296362Y-31582518D01*
X15289548Y-31607943D01*
X15287229Y-31613649D01*
X15287227Y-31613657D01*
X15279628Y-31632351D01*
X15279626Y-31632355D01*
X15277514Y-31649249D01*
X15276669Y-31656012D01*
X15270500Y-31679038D01*
X15270500Y-31705368D01*
X15269736Y-31711480D01*
X15267233Y-31731503D01*
X15267276Y-31737994D01*
X15265618Y-31738004D01*
X15256275Y-31790307D01*
X15213913Y-31831843D01*
X15103267Y-31888219D01*
X15013218Y-31978268D01*
X14981030Y-32041444D01*
X14937766Y-32084709D01*
X14892820Y-32095500D01*
X12311376Y-32095500D01*
X12253185Y-32076593D01*
X12241372Y-32066504D01*
X11850370Y-31675502D01*
X11822593Y-31620985D01*
X11832164Y-31560553D01*
X11875429Y-31517288D01*
X11920374Y-31506498D01*
X13168203Y-31506498D01*
X13168203Y-31506497D01*
X13258363Y-31482339D01*
X13339199Y-31435669D01*
X14492372Y-30282496D01*
X14546889Y-30254719D01*
X14562376Y-30253500D01*
X29150617Y-30253500D01*
X29208808Y-30272407D01*
G37*
%TD.AperFunction*%
%TA.AperFunction,Conductor*%
G36*
X47792118Y-500574D02*
G01*
X47992250Y-508394D01*
X47999988Y-509003D01*
X48130994Y-524518D01*
X48186994Y-531150D01*
X48194686Y-532369D01*
X48379602Y-569192D01*
X48387114Y-570996D01*
X48568541Y-622112D01*
X48575977Y-624527D01*
X48752735Y-689792D01*
X48759881Y-692752D01*
X48931078Y-771668D01*
X48937984Y-775187D01*
X49102476Y-867320D01*
X49109049Y-871346D01*
X49215104Y-942157D01*
X49265692Y-975934D01*
X49272027Y-980536D01*
X49419891Y-1097211D01*
X49425762Y-1102228D01*
X49440931Y-1116248D01*
X49564265Y-1230244D01*
X49569754Y-1235733D01*
X49621307Y-1291509D01*
X49697770Y-1374236D01*
X49702787Y-1380107D01*
X49819458Y-1527967D01*
X49824064Y-1534306D01*
X49917452Y-1674174D01*
X49928645Y-1690937D01*
X49932682Y-1697529D01*
X50021735Y-1856524D01*
X50024800Y-1861995D01*
X50028332Y-1868925D01*
X50042656Y-1900000D01*
X50107248Y-2040124D01*
X50110211Y-2047277D01*
X50175464Y-2224002D01*
X50177883Y-2231446D01*
X50229003Y-2412888D01*
X50230807Y-2420400D01*
X50267628Y-2605304D01*
X50268847Y-2612996D01*
X50290994Y-2800001D01*
X50291605Y-2807778D01*
X50299424Y-3007830D01*
X50299500Y-3011696D01*
X50299500Y-85888302D01*
X50299424Y-85892168D01*
X50291605Y-86092220D01*
X50290994Y-86099996D01*
X50290994Y-86099997D01*
X50268847Y-86287002D01*
X50267628Y-86294694D01*
X50230807Y-86479598D01*
X50229003Y-86487110D01*
X50177883Y-86668552D01*
X50175464Y-86675996D01*
X50110211Y-86852721D01*
X50107248Y-86859874D01*
X50028334Y-87031069D01*
X50024800Y-87038003D01*
X49932685Y-87202465D01*
X49928645Y-87209061D01*
X49824064Y-87365692D01*
X49819449Y-87372044D01*
X49702787Y-87519891D01*
X49697770Y-87525762D01*
X49569762Y-87664257D01*
X49564257Y-87669762D01*
X49425762Y-87797770D01*
X49419891Y-87802787D01*
X49272044Y-87919449D01*
X49265692Y-87924064D01*
X49109061Y-88028645D01*
X49102465Y-88032685D01*
X48937998Y-88124803D01*
X48931064Y-88128337D01*
X48759884Y-88207244D01*
X48752731Y-88210208D01*
X48575985Y-88275468D01*
X48568541Y-88277886D01*
X48387114Y-88329002D01*
X48379602Y-88330806D01*
X48194686Y-88367629D01*
X48186994Y-88368848D01*
X47999995Y-88390994D01*
X47992219Y-88391605D01*
X47806394Y-88398868D01*
X47792167Y-88399424D01*
X47788303Y-88399500D01*
X3011697Y-88399500D01*
X3007831Y-88399424D01*
X2807778Y-88391605D01*
X2800001Y-88390994D01*
X2612996Y-88368847D01*
X2605304Y-88367628D01*
X2420400Y-88330807D01*
X2412888Y-88329003D01*
X2231446Y-88277883D01*
X2224002Y-88275464D01*
X2047277Y-88210211D01*
X2040124Y-88207248D01*
X1967291Y-88173675D01*
X1868925Y-88128332D01*
X1861995Y-88124800D01*
X1697533Y-88032685D01*
X1690937Y-88028645D01*
X1662085Y-88009381D01*
X1534306Y-87924064D01*
X1527967Y-87919458D01*
X1380107Y-87802787D01*
X1374236Y-87797770D01*
X1272462Y-87703702D01*
X1235733Y-87669754D01*
X1230244Y-87664265D01*
X1139885Y-87566504D01*
X1102228Y-87525762D01*
X1097211Y-87519891D01*
X1020693Y-87422918D01*
X1020693Y-87422917D01*
X980550Y-87372044D01*
X975934Y-87365692D01*
X931712Y-87299460D01*
X871346Y-87209049D01*
X867320Y-87202476D01*
X775187Y-87037984D01*
X771664Y-87031069D01*
X692750Y-86859874D01*
X689790Y-86852731D01*
X624527Y-86675977D01*
X622112Y-86668541D01*
X607478Y-86616602D01*
X570995Y-86487110D01*
X569192Y-86479602D01*
X532369Y-86294686D01*
X531150Y-86286994D01*
X515824Y-86157584D01*
X509003Y-86099988D01*
X508394Y-86092250D01*
X500574Y-85892119D01*
X500500Y-85888302D01*
X500500Y-85768912D01*
X1000000Y-85768912D01*
X1000000Y-86031087D01*
X1034220Y-86291010D01*
X1034220Y-86291015D01*
X1102075Y-86544255D01*
X1102078Y-86544262D01*
X1202403Y-86786470D01*
X1333495Y-87013527D01*
X1493091Y-87221517D01*
X1497398Y-87225824D01*
X2138097Y-86585124D01*
X2160967Y-86616602D01*
X2283398Y-86739033D01*
X2314874Y-86761901D01*
X1674175Y-87402601D01*
X1678482Y-87406908D01*
X1886472Y-87566504D01*
X2113529Y-87697596D01*
X2355737Y-87797921D01*
X2355744Y-87797924D01*
X2608986Y-87865779D01*
X2868912Y-87899999D01*
X2868914Y-87900000D01*
X3131086Y-87900000D01*
X3131087Y-87899999D01*
X3391010Y-87865779D01*
X3391015Y-87865779D01*
X3644255Y-87797924D01*
X3644262Y-87797921D01*
X3886470Y-87697596D01*
X4113527Y-87566504D01*
X4321511Y-87406913D01*
X4321524Y-87406901D01*
X4325824Y-87402600D01*
X3685125Y-86761901D01*
X3716602Y-86739033D01*
X3839033Y-86616602D01*
X3861901Y-86585125D01*
X4502600Y-87225824D01*
X4506901Y-87221524D01*
X4506913Y-87221511D01*
X4666504Y-87013527D01*
X4797596Y-86786470D01*
X4897921Y-86544262D01*
X4897924Y-86544255D01*
X4965779Y-86291015D01*
X4965779Y-86291010D01*
X4999999Y-86031087D01*
X5000000Y-86031086D01*
X5000000Y-85768914D01*
X4999999Y-85768912D01*
X4965779Y-85508989D01*
X4965779Y-85508984D01*
X4897924Y-85255744D01*
X4897921Y-85255737D01*
X4797596Y-85013529D01*
X4666504Y-84786472D01*
X4506908Y-84578482D01*
X4502601Y-84574175D01*
X3861901Y-85214874D01*
X3839033Y-85183398D01*
X3716602Y-85060967D01*
X3685124Y-85038097D01*
X4325824Y-84397398D01*
X4321517Y-84393091D01*
X4113527Y-84233495D01*
X3886470Y-84102403D01*
X3644262Y-84002078D01*
X3644255Y-84002075D01*
X3391013Y-83934220D01*
X3131087Y-83900000D01*
X2868912Y-83900000D01*
X2608989Y-83934220D01*
X2608984Y-83934220D01*
X2355744Y-84002075D01*
X2355737Y-84002078D01*
X2113529Y-84102403D01*
X1886472Y-84233495D01*
X1678481Y-84393091D01*
X1674174Y-84397397D01*
X2314874Y-85038097D01*
X2283398Y-85060967D01*
X2160967Y-85183398D01*
X2138097Y-85214874D01*
X1497397Y-84574174D01*
X1493091Y-84578481D01*
X1333495Y-84786472D01*
X1202403Y-85013529D01*
X1102078Y-85255737D01*
X1102075Y-85255744D01*
X1034220Y-85508984D01*
X1034220Y-85508989D01*
X1000000Y-85768912D01*
X500500Y-85768912D01*
X500500Y-75336421D01*
X37254500Y-75336421D01*
X37254500Y-75463578D01*
X37279305Y-75588282D01*
X37279307Y-75588288D01*
X37327965Y-75705758D01*
X37327966Y-75705759D01*
X37398608Y-75811482D01*
X37488518Y-75901392D01*
X37594241Y-75972034D01*
X37711715Y-76020694D01*
X37836424Y-76045500D01*
X37836425Y-76045500D01*
X37963575Y-76045500D01*
X37963576Y-76045500D01*
X38088285Y-76020694D01*
X38205759Y-75972034D01*
X38311482Y-75901392D01*
X38401392Y-75811482D01*
X38472034Y-75705759D01*
X38520694Y-75588285D01*
X38545500Y-75463576D01*
X38545500Y-75336424D01*
X38520694Y-75211715D01*
X38472034Y-75094241D01*
X38401392Y-74988518D01*
X38311482Y-74898608D01*
X38205759Y-74827966D01*
X38205760Y-74827966D01*
X38205758Y-74827965D01*
X38088288Y-74779307D01*
X38088282Y-74779305D01*
X37963578Y-74754500D01*
X37963576Y-74754500D01*
X37836424Y-74754500D01*
X37836421Y-74754500D01*
X37711717Y-74779305D01*
X37711711Y-74779307D01*
X37594241Y-74827965D01*
X37488518Y-74898608D01*
X37488514Y-74898611D01*
X37398611Y-74988514D01*
X37398608Y-74988518D01*
X37327965Y-75094241D01*
X37279307Y-75211711D01*
X37279305Y-75211717D01*
X37254500Y-75336421D01*
X500500Y-75336421D01*
X500500Y-65125001D01*
X45000001Y-65125001D01*
X45000001Y-65504203D01*
X45002850Y-65534600D01*
X45002850Y-65534602D01*
X45047654Y-65662647D01*
X45128207Y-65771790D01*
X45128209Y-65771792D01*
X45237352Y-65852345D01*
X45365398Y-65897149D01*
X45395789Y-65899999D01*
X45575000Y-65899999D01*
X45575000Y-65125000D01*
X45000002Y-65125000D01*
X45000001Y-65125001D01*
X500500Y-65125001D01*
X500500Y-27826999D01*
X1745500Y-27826999D01*
X1745500Y-27973001D01*
X1783288Y-28114029D01*
X1856289Y-28240471D01*
X1866505Y-28250687D01*
X1894281Y-28305202D01*
X1895500Y-28320689D01*
X1895500Y-57396747D01*
X1895500Y-57503253D01*
X1912504Y-57566712D01*
X1923067Y-57606135D01*
X1976316Y-57698364D01*
X1976317Y-57698365D01*
X1976318Y-57698366D01*
X1976320Y-57698369D01*
X2451631Y-58173680D01*
X2877155Y-58599204D01*
X2902777Y-58643583D01*
X2929881Y-58744731D01*
X2929882Y-58744733D01*
X2996296Y-58859765D01*
X2996298Y-58859767D01*
X2996300Y-58859770D01*
X3090230Y-58953700D01*
X3090232Y-58953701D01*
X3090234Y-58953703D01*
X3205266Y-59020117D01*
X3205267Y-59020117D01*
X3205270Y-59020119D01*
X3333581Y-59054500D01*
X9493625Y-59054500D01*
X9551816Y-59073407D01*
X9587780Y-59122907D01*
X9587780Y-59184093D01*
X9551816Y-59233593D01*
X9549115Y-59235487D01*
X9527592Y-59250053D01*
X9375053Y-59402592D01*
X9254154Y-59581222D01*
X9254151Y-59581228D01*
X9169238Y-59779516D01*
X9169238Y-59779518D01*
X9123386Y-59990297D01*
X9121287Y-60025544D01*
X9120500Y-60038749D01*
X9120500Y-61961250D01*
X9123386Y-62009702D01*
X9169238Y-62220483D01*
X9204715Y-62303329D01*
X9242180Y-62390818D01*
X9254151Y-62418771D01*
X9254154Y-62418777D01*
X9375053Y-62597407D01*
X9375055Y-62597409D01*
X9375058Y-62597413D01*
X9527587Y-62749942D01*
X9527590Y-62749944D01*
X9527592Y-62749946D01*
X9648674Y-62831895D01*
X9706226Y-62870848D01*
X9904518Y-62955762D01*
X10115297Y-63001614D01*
X10163746Y-63004500D01*
X10163759Y-63004500D01*
X20836241Y-63004500D01*
X20836254Y-63004500D01*
X20884703Y-63001614D01*
X21095482Y-62955762D01*
X21293774Y-62870848D01*
X21472413Y-62749942D01*
X21624942Y-62597413D01*
X21745848Y-62418774D01*
X21830762Y-62220482D01*
X21876614Y-62009703D01*
X21879500Y-61961254D01*
X21879500Y-60038746D01*
X21876614Y-59990297D01*
X21830762Y-59779518D01*
X21745848Y-59581226D01*
X21706895Y-59523674D01*
X21624946Y-59402592D01*
X21624944Y-59402590D01*
X21624942Y-59402587D01*
X21472413Y-59250058D01*
X21472409Y-59250055D01*
X21472407Y-59250053D01*
X21450885Y-59235487D01*
X21413292Y-59187213D01*
X21411253Y-59126062D01*
X21445548Y-59075391D01*
X21503076Y-59054555D01*
X21506375Y-59054500D01*
X31543625Y-59054500D01*
X31601816Y-59073407D01*
X31637780Y-59122907D01*
X31637780Y-59184093D01*
X31601816Y-59233593D01*
X31599115Y-59235487D01*
X31577592Y-59250053D01*
X31425053Y-59402592D01*
X31304154Y-59581222D01*
X31304151Y-59581228D01*
X31219238Y-59779516D01*
X31219238Y-59779518D01*
X31173386Y-59990297D01*
X31171287Y-60025544D01*
X31170500Y-60038749D01*
X31170500Y-61961250D01*
X31173386Y-62009702D01*
X31219238Y-62220483D01*
X31254715Y-62303329D01*
X31292180Y-62390818D01*
X31304151Y-62418771D01*
X31304154Y-62418777D01*
X31425053Y-62597407D01*
X31425055Y-62597409D01*
X31425058Y-62597413D01*
X31577587Y-62749942D01*
X31577590Y-62749944D01*
X31577592Y-62749946D01*
X31698674Y-62831895D01*
X31756226Y-62870848D01*
X31954518Y-62955762D01*
X32165297Y-63001614D01*
X32213746Y-63004500D01*
X32213759Y-63004500D01*
X38386241Y-63004500D01*
X38386254Y-63004500D01*
X38434703Y-63001614D01*
X38645482Y-62955762D01*
X38843774Y-62870848D01*
X39022413Y-62749942D01*
X39174942Y-62597413D01*
X39295848Y-62418774D01*
X39380762Y-62220482D01*
X39426614Y-62009703D01*
X39429500Y-61961254D01*
X39429500Y-60038746D01*
X39426614Y-59990297D01*
X39380762Y-59779518D01*
X39295848Y-59581226D01*
X39256895Y-59523674D01*
X39174946Y-59402592D01*
X39174944Y-59402590D01*
X39174942Y-59402587D01*
X39022413Y-59250058D01*
X39022409Y-59250055D01*
X39022407Y-59250053D01*
X38843777Y-59129154D01*
X38843776Y-59129153D01*
X38843774Y-59129152D01*
X38713598Y-59073407D01*
X38645483Y-59044238D01*
X38534599Y-59020117D01*
X38434703Y-58998386D01*
X38386254Y-58995500D01*
X38386250Y-58995500D01*
X35903500Y-58995500D01*
X35845309Y-58976593D01*
X35809345Y-58927093D01*
X35804500Y-58896500D01*
X35804500Y-58483582D01*
X35804500Y-58483581D01*
X35770119Y-58355270D01*
X35770117Y-58355267D01*
X35770117Y-58355265D01*
X35703703Y-58240234D01*
X35703701Y-58240232D01*
X35703700Y-58240230D01*
X35609770Y-58146300D01*
X35609767Y-58146298D01*
X35609765Y-58146296D01*
X35494733Y-58079882D01*
X35494734Y-58079882D01*
X35479572Y-58075819D01*
X35366419Y-58045500D01*
X35366417Y-58045500D01*
X3508557Y-58045500D01*
X3450366Y-58026593D01*
X3438553Y-58016504D01*
X2733496Y-57311447D01*
X2705719Y-57256930D01*
X2704500Y-57241443D01*
X2704500Y-40993832D01*
X2723407Y-40935641D01*
X2772907Y-40899677D01*
X2834093Y-40899677D01*
X2883593Y-40935641D01*
X2889231Y-40944323D01*
X2956289Y-41060471D01*
X3059529Y-41163711D01*
X3185971Y-41236712D01*
X3326999Y-41274500D01*
X3327001Y-41274500D01*
X3472999Y-41274500D01*
X3473001Y-41274500D01*
X3614029Y-41236712D01*
X3740471Y-41163711D01*
X3843711Y-41060471D01*
X3916712Y-40934029D01*
X3954500Y-40793001D01*
X3954500Y-40646999D01*
X3916712Y-40505971D01*
X3843711Y-40379529D01*
X3740471Y-40276289D01*
X3701304Y-40253676D01*
X3653999Y-40226364D01*
X3613059Y-40180894D01*
X3604500Y-40140628D01*
X3604500Y-39405221D01*
X3623407Y-39347030D01*
X3672907Y-39311066D01*
X3734093Y-39311066D01*
X3783593Y-39347030D01*
X3788703Y-39354810D01*
X3823644Y-39413891D01*
X3936109Y-39526356D01*
X3936111Y-39526357D01*
X3936112Y-39526358D01*
X3959587Y-39540241D01*
X4073008Y-39607318D01*
X4225742Y-39651691D01*
X4261433Y-39654500D01*
X5138566Y-39654499D01*
X5174258Y-39651691D01*
X5326992Y-39607318D01*
X5326997Y-39607314D01*
X5330177Y-39605939D01*
X5332490Y-39605720D01*
X5332973Y-39605580D01*
X5332999Y-39605671D01*
X5391091Y-39600177D01*
X5443757Y-39631320D01*
X5468060Y-39687472D01*
X5468500Y-39696794D01*
X5468500Y-43030648D01*
X5468499Y-43030648D01*
X5482126Y-43081498D01*
X5485500Y-43107123D01*
X5485500Y-48311152D01*
X5466593Y-48369343D01*
X5456504Y-48381156D01*
X4051155Y-49786504D01*
X3996638Y-49814281D01*
X3981152Y-49815500D01*
X3810861Y-49815500D01*
X3716726Y-49830410D01*
X3603268Y-49888218D01*
X3513218Y-49978268D01*
X3455410Y-50091725D01*
X3440500Y-50185861D01*
X3440500Y-50614139D01*
X3455410Y-50708273D01*
X3513218Y-50821731D01*
X3513219Y-50821732D01*
X3513221Y-50821735D01*
X3603265Y-50911779D01*
X3603267Y-50911780D01*
X3603268Y-50911781D01*
X3716725Y-50969589D01*
X3716727Y-50969590D01*
X3810863Y-50984500D01*
X4169136Y-50984499D01*
X4169139Y-50984499D01*
X4199458Y-50979696D01*
X4263273Y-50969590D01*
X4376735Y-50911779D01*
X4429998Y-50858515D01*
X4484513Y-50830740D01*
X4544945Y-50840311D01*
X4570000Y-50858514D01*
X4623265Y-50911779D01*
X4623267Y-50911780D01*
X4623268Y-50911781D01*
X4736725Y-50969589D01*
X4736727Y-50969590D01*
X4830863Y-50984500D01*
X5189136Y-50984499D01*
X5189139Y-50984499D01*
X5219458Y-50979696D01*
X5283273Y-50969590D01*
X5396735Y-50911779D01*
X5486779Y-50821735D01*
X5486782Y-50821730D01*
X5491361Y-50815429D01*
X5493543Y-50817014D01*
X5502795Y-50807760D01*
X5518949Y-50787812D01*
X5524123Y-50786425D01*
X5527911Y-50782637D01*
X5553259Y-50778618D01*
X5578050Y-50771976D01*
X5583051Y-50773895D01*
X5588342Y-50773057D01*
X5611211Y-50784705D01*
X5635171Y-50793902D01*
X5638088Y-50798394D01*
X5642863Y-50800826D01*
X5668495Y-50845216D01*
X5676829Y-50876318D01*
X5676829Y-50876319D01*
X5688295Y-50919110D01*
X5688296Y-50919112D01*
X5732330Y-50995384D01*
X5732331Y-50995385D01*
X5732333Y-50995388D01*
X6526505Y-51789560D01*
X6530130Y-51796675D01*
X6536593Y-51801371D01*
X6543756Y-51823419D01*
X6554281Y-51844075D01*
X6555500Y-51859562D01*
X6555500Y-52000939D01*
X6536593Y-52059130D01*
X6508925Y-52082760D01*
X6509567Y-52083643D01*
X6503267Y-52088219D01*
X6413218Y-52178268D01*
X6355410Y-52291725D01*
X6340500Y-52385861D01*
X6340500Y-52814139D01*
X6355410Y-52908273D01*
X6413218Y-53021731D01*
X6413219Y-53021732D01*
X6413221Y-53021735D01*
X6503265Y-53111779D01*
X6503267Y-53111780D01*
X6503268Y-53111781D01*
X6539024Y-53129999D01*
X6616727Y-53169590D01*
X6710863Y-53184500D01*
X7069136Y-53184499D01*
X7069139Y-53184499D01*
X7099458Y-53179696D01*
X7163273Y-53169590D01*
X7276735Y-53111779D01*
X7366779Y-53021735D01*
X7366780Y-53021732D01*
X7368533Y-53019980D01*
X7423050Y-52992203D01*
X7483482Y-53001774D01*
X7508541Y-53019980D01*
X7560109Y-53071548D01*
X7671173Y-53123338D01*
X7671171Y-53123338D01*
X7721774Y-53129999D01*
X7721779Y-53130000D01*
X7784999Y-53130000D01*
X7785000Y-53129999D01*
X7785000Y-52725001D01*
X8035000Y-52725001D01*
X8035000Y-53129999D01*
X8035001Y-53130000D01*
X8098221Y-53130000D01*
X8098225Y-53129999D01*
X8148827Y-53123338D01*
X8259890Y-53071548D01*
X8346548Y-52984890D01*
X8398338Y-52873827D01*
X8404999Y-52823225D01*
X8405000Y-52823221D01*
X8405000Y-52725001D01*
X8404999Y-52725000D01*
X8035001Y-52725000D01*
X8035000Y-52725001D01*
X7785000Y-52725001D01*
X7785000Y-52070001D01*
X8035000Y-52070001D01*
X8035000Y-52474999D01*
X8035001Y-52475000D01*
X8404999Y-52475000D01*
X8405000Y-52474999D01*
X8405000Y-52376779D01*
X8404999Y-52376774D01*
X8398338Y-52326172D01*
X8346548Y-52215109D01*
X8259890Y-52128451D01*
X8148826Y-52076661D01*
X8148828Y-52076661D01*
X8098225Y-52070000D01*
X8035001Y-52070000D01*
X8035000Y-52070001D01*
X7785000Y-52070001D01*
X7784999Y-52070000D01*
X7721774Y-52070000D01*
X7671172Y-52076661D01*
X7560109Y-52128451D01*
X7508541Y-52180020D01*
X7495714Y-52186555D01*
X7485811Y-52197000D01*
X7469135Y-52200097D01*
X7454024Y-52207797D01*
X7439806Y-52205545D01*
X7425655Y-52208174D01*
X7411095Y-52200998D01*
X7393592Y-52198226D01*
X7370419Y-52181856D01*
X7366916Y-52178535D01*
X7366779Y-52178265D01*
X7276735Y-52088221D01*
X7265781Y-52082640D01*
X7255382Y-52072779D01*
X7247281Y-52057874D01*
X7235289Y-52045881D01*
X7230957Y-52027838D01*
X7226165Y-52019020D01*
X7227110Y-52011814D01*
X7224500Y-52000939D01*
X7224500Y-51635961D01*
X7224499Y-51635959D01*
X7201705Y-51550891D01*
X7201704Y-51550890D01*
X7201704Y-51550888D01*
X7190389Y-51531289D01*
X7157667Y-51474612D01*
X7014147Y-51331092D01*
X6836523Y-51153467D01*
X6808746Y-51098951D01*
X6818317Y-51038519D01*
X6861582Y-50995254D01*
X6906973Y-50986272D01*
X6906973Y-50984500D01*
X6910862Y-50984499D01*
X6910863Y-50984500D01*
X7268859Y-50984499D01*
X7269139Y-50984499D01*
X7299458Y-50979696D01*
X7363273Y-50969590D01*
X7476735Y-50911779D01*
X7566779Y-50821735D01*
X7566780Y-50821732D01*
X7568533Y-50819980D01*
X7623050Y-50792203D01*
X7683482Y-50801774D01*
X7708541Y-50819980D01*
X7760109Y-50871548D01*
X7871173Y-50923338D01*
X7871171Y-50923338D01*
X7921774Y-50929999D01*
X7921779Y-50930000D01*
X7984999Y-50930000D01*
X7985000Y-50929999D01*
X7985000Y-50525001D01*
X8235000Y-50525001D01*
X8235000Y-50929999D01*
X8235001Y-50930000D01*
X8298221Y-50930000D01*
X8298225Y-50929999D01*
X8348827Y-50923338D01*
X8459890Y-50871548D01*
X8546548Y-50784890D01*
X8598338Y-50673827D01*
X8604999Y-50623225D01*
X8605000Y-50623221D01*
X8605000Y-50525001D01*
X8604999Y-50525000D01*
X8235001Y-50525000D01*
X8235000Y-50525001D01*
X7985000Y-50525001D01*
X7985000Y-49870001D01*
X8235000Y-49870001D01*
X8235000Y-50274999D01*
X8235001Y-50275000D01*
X8604999Y-50275000D01*
X8605000Y-50274999D01*
X8605000Y-50176779D01*
X8604999Y-50176774D01*
X8598338Y-50126172D01*
X8546548Y-50015109D01*
X8459890Y-49928451D01*
X8348826Y-49876661D01*
X8348828Y-49876661D01*
X8298225Y-49870000D01*
X8235001Y-49870000D01*
X8235000Y-49870001D01*
X7985000Y-49870001D01*
X7984999Y-49870000D01*
X7921774Y-49870000D01*
X7871172Y-49876661D01*
X7760109Y-49928451D01*
X7708541Y-49980020D01*
X7654024Y-50007797D01*
X7593592Y-49998226D01*
X7568533Y-49980020D01*
X7566780Y-49978267D01*
X7566779Y-49978265D01*
X7476735Y-49888221D01*
X7476732Y-49888219D01*
X7476731Y-49888218D01*
X7363274Y-49830410D01*
X7363275Y-49830410D01*
X7302805Y-49820832D01*
X7248289Y-49793053D01*
X7220513Y-49738536D01*
X7230085Y-49678104D01*
X7248287Y-49653051D01*
X8517843Y-48383496D01*
X8572360Y-48355719D01*
X8587847Y-48354500D01*
X10046672Y-48354500D01*
X10046672Y-48354499D01*
X10136832Y-48330341D01*
X10217668Y-48283671D01*
X10283671Y-48217668D01*
X10330341Y-48136832D01*
X10354500Y-48046671D01*
X10354500Y-47953329D01*
X10354500Y-47948308D01*
X10367763Y-47898809D01*
X10416712Y-47814029D01*
X10454500Y-47673001D01*
X10454500Y-47549849D01*
X10473407Y-47491658D01*
X10522907Y-47455694D01*
X10537219Y-47452197D01*
X11287763Y-47327107D01*
X11348267Y-47336191D01*
X11389771Y-47375260D01*
X11450281Y-47480065D01*
X11456289Y-47490471D01*
X11559529Y-47593711D01*
X11685971Y-47666712D01*
X11826999Y-47704500D01*
X11827002Y-47704500D01*
X11831745Y-47705771D01*
X11849891Y-47717555D01*
X11869930Y-47725705D01*
X11875001Y-47733862D01*
X11883059Y-47739095D01*
X11890811Y-47759291D01*
X11902236Y-47777666D01*
X11901543Y-47787249D01*
X11904986Y-47796216D01*
X11897829Y-47838693D01*
X11891456Y-47854364D01*
X11852020Y-47901145D01*
X11814483Y-47913486D01*
X11814706Y-47914892D01*
X11716726Y-47930410D01*
X11603268Y-47988218D01*
X11513218Y-48078268D01*
X11455410Y-48191725D01*
X11440500Y-48285861D01*
X11440500Y-48714139D01*
X11455410Y-48808273D01*
X11513218Y-48921731D01*
X11513219Y-48921732D01*
X11513221Y-48921735D01*
X11603265Y-49011779D01*
X11603267Y-49011780D01*
X11603268Y-49011781D01*
X11687109Y-49054499D01*
X11716727Y-49069590D01*
X11810863Y-49084500D01*
X12169136Y-49084499D01*
X12169139Y-49084499D01*
X12203939Y-49078987D01*
X12263273Y-49069590D01*
X12376735Y-49011779D01*
X12466779Y-48921735D01*
X12466780Y-48921732D01*
X12468533Y-48919980D01*
X12523050Y-48892203D01*
X12583482Y-48901774D01*
X12608541Y-48919980D01*
X12660109Y-48971548D01*
X12771173Y-49023338D01*
X12771171Y-49023338D01*
X12821774Y-49029999D01*
X12821779Y-49030000D01*
X12884999Y-49030000D01*
X12885000Y-49029999D01*
X12885000Y-48625001D01*
X13135000Y-48625001D01*
X13135000Y-49029999D01*
X13135001Y-49030000D01*
X13198221Y-49030000D01*
X13198225Y-49029999D01*
X13248827Y-49023338D01*
X13359890Y-48971548D01*
X13446548Y-48884890D01*
X13498338Y-48773827D01*
X13504999Y-48723225D01*
X13505000Y-48723221D01*
X13505000Y-48625001D01*
X13504999Y-48625000D01*
X13135001Y-48625000D01*
X13135000Y-48625001D01*
X12885000Y-48625001D01*
X12885000Y-47970001D01*
X12884999Y-47970000D01*
X12821774Y-47970000D01*
X12771173Y-47976661D01*
X12743967Y-47989348D01*
X12719209Y-47992387D01*
X12694999Y-47998366D01*
X12689321Y-47996057D01*
X12683238Y-47996804D01*
X12661422Y-47984711D01*
X12638321Y-47975317D01*
X12635085Y-47970112D01*
X12629724Y-47967141D01*
X12619182Y-47944534D01*
X12606015Y-47923356D01*
X12606456Y-47917243D01*
X12603866Y-47911688D01*
X12610421Y-47862330D01*
X12628311Y-47818338D01*
X12662668Y-47733851D01*
X12702102Y-47687071D01*
X12761503Y-47672403D01*
X12788966Y-47678386D01*
X12841658Y-47698040D01*
X12901745Y-47704500D01*
X12990437Y-47704499D01*
X12991710Y-47704912D01*
X12992994Y-47704532D01*
X13000628Y-47707810D01*
X13048628Y-47723406D01*
X13050677Y-47724935D01*
X13055838Y-47728892D01*
X13094612Y-47767666D01*
X13142361Y-47795234D01*
X13147496Y-47799171D01*
X13161347Y-47819308D01*
X13177698Y-47837469D01*
X13178394Y-47844093D01*
X13182170Y-47849583D01*
X13181538Y-47874015D01*
X13184093Y-47898319D01*
X13180752Y-47904472D01*
X13180590Y-47910748D01*
X13169471Y-47925249D01*
X13157261Y-47947738D01*
X13135000Y-47969999D01*
X13135000Y-48374999D01*
X13135001Y-48375000D01*
X13504999Y-48375000D01*
X13505000Y-48374999D01*
X13505000Y-48276779D01*
X13504999Y-48276774D01*
X13498338Y-48226172D01*
X13446548Y-48115109D01*
X13359890Y-48028451D01*
X13348680Y-48023224D01*
X13303932Y-47981495D01*
X13292258Y-47921434D01*
X13318117Y-47865981D01*
X13371631Y-47836319D01*
X13390520Y-47834500D01*
X14244038Y-47834500D01*
X14304581Y-47818277D01*
X14365681Y-47821478D01*
X14413231Y-47859982D01*
X14429113Y-47909664D01*
X14552712Y-50793645D01*
X14536314Y-50852592D01*
X14532354Y-50858139D01*
X14531296Y-50859517D01*
X14531289Y-50859528D01*
X14531289Y-50859529D01*
X14458288Y-50985971D01*
X14420500Y-51126999D01*
X14420500Y-51273001D01*
X14458288Y-51414029D01*
X14531289Y-51540471D01*
X14634529Y-51643711D01*
X14760971Y-51716712D01*
X14901999Y-51754500D01*
X14902001Y-51754500D01*
X14996500Y-51754500D01*
X15054691Y-51773407D01*
X15090655Y-51822907D01*
X15095500Y-51853500D01*
X15095500Y-52331836D01*
X15110502Y-52426554D01*
X15110504Y-52426561D01*
X15168671Y-52540718D01*
X15168674Y-52540723D01*
X15259277Y-52631326D01*
X15259279Y-52631327D01*
X15259281Y-52631328D01*
X15373438Y-52689495D01*
X15373440Y-52689495D01*
X15373445Y-52689498D01*
X15437654Y-52699667D01*
X15468163Y-52704500D01*
X15468166Y-52704500D01*
X15831837Y-52704500D01*
X15859387Y-52700136D01*
X15926555Y-52689498D01*
X16040723Y-52631326D01*
X16070025Y-52602023D01*
X16124538Y-52574248D01*
X16184970Y-52583819D01*
X16190428Y-52587132D01*
X16298751Y-52640087D01*
X16366783Y-52649999D01*
X16424999Y-52649998D01*
X16425000Y-52649998D01*
X16425000Y-52125001D01*
X16675000Y-52125001D01*
X16675000Y-52649998D01*
X16675001Y-52649999D01*
X16733213Y-52649999D01*
X16733216Y-52649998D01*
X16801250Y-52640087D01*
X16906188Y-52588785D01*
X16988786Y-52506187D01*
X17040087Y-52401248D01*
X17050000Y-52333215D01*
X17050000Y-52125001D01*
X17049999Y-52125000D01*
X16675001Y-52125000D01*
X16675000Y-52125001D01*
X16425000Y-52125001D01*
X16425000Y-51350001D01*
X16675000Y-51350001D01*
X16675000Y-51874999D01*
X16675001Y-51875000D01*
X17049998Y-51875000D01*
X17049999Y-51874999D01*
X17049999Y-51666786D01*
X17049998Y-51666783D01*
X17040087Y-51598749D01*
X16988785Y-51493811D01*
X16906187Y-51411213D01*
X16801248Y-51359912D01*
X16733216Y-51350000D01*
X16675001Y-51350000D01*
X16675000Y-51350001D01*
X16425000Y-51350001D01*
X16425000Y-51349999D01*
X16413542Y-51338542D01*
X16390613Y-51331092D01*
X16354649Y-51281592D01*
X16354649Y-51220406D01*
X16356873Y-51214262D01*
X16746516Y-50240155D01*
X16785681Y-50193151D01*
X16822948Y-50179144D01*
X16883273Y-50169590D01*
X16996735Y-50111779D01*
X17086779Y-50021735D01*
X17144590Y-49908273D01*
X17159500Y-49814137D01*
X17159499Y-49385864D01*
X17159499Y-49385861D01*
X17159499Y-49385860D01*
X17152006Y-49338552D01*
X17144590Y-49291727D01*
X17104832Y-49213696D01*
X17086781Y-49178268D01*
X17086780Y-49178267D01*
X17086779Y-49178265D01*
X16996735Y-49088221D01*
X16960168Y-49069589D01*
X16958553Y-49068766D01*
X16915289Y-49025500D01*
X16904500Y-48980557D01*
X16904500Y-48977000D01*
X16904042Y-48975290D01*
X16866712Y-48835971D01*
X16793711Y-48709529D01*
X16690471Y-48606289D01*
X16564029Y-48533288D01*
X16423001Y-48495500D01*
X16423000Y-48495500D01*
X16422993Y-48495498D01*
X16417607Y-48494789D01*
X16362384Y-48468444D01*
X16333192Y-48414671D01*
X16335625Y-48368479D01*
X16647982Y-47315786D01*
X16661319Y-47270838D01*
X16695998Y-47220430D01*
X16753684Y-47200033D01*
X16756229Y-47200000D01*
X20623053Y-47200000D01*
X20681244Y-47218907D01*
X20717208Y-47268407D01*
X20717208Y-47329593D01*
X20708792Y-47348493D01*
X20658288Y-47435971D01*
X20620500Y-47576999D01*
X20620500Y-47723001D01*
X20658288Y-47864029D01*
X20731289Y-47990471D01*
X20834529Y-48093711D01*
X20960971Y-48166712D01*
X21101999Y-48204500D01*
X21102001Y-48204500D01*
X21247999Y-48204500D01*
X21248001Y-48204500D01*
X21389029Y-48166712D01*
X21515471Y-48093711D01*
X21618711Y-47990471D01*
X21691712Y-47864029D01*
X21729500Y-47723001D01*
X21729500Y-47576999D01*
X21691712Y-47435971D01*
X21641209Y-47348497D01*
X21628489Y-47288652D01*
X21653376Y-47232756D01*
X21706364Y-47202163D01*
X21726947Y-47200000D01*
X22089281Y-47200000D01*
X22147472Y-47218907D01*
X22183436Y-47268407D01*
X22184191Y-47327162D01*
X21699621Y-48960241D01*
X21664942Y-49010649D01*
X21620202Y-49029859D01*
X21616730Y-49030408D01*
X21616726Y-49030410D01*
X21503268Y-49088218D01*
X21413218Y-49178268D01*
X21355410Y-49291725D01*
X21340500Y-49385861D01*
X21340500Y-49814139D01*
X21355410Y-49908273D01*
X21413218Y-50021731D01*
X21413219Y-50021732D01*
X21413221Y-50021735D01*
X21503265Y-50111779D01*
X21503267Y-50111780D01*
X21503268Y-50111781D01*
X21531513Y-50126172D01*
X21616727Y-50169590D01*
X21710863Y-50184500D01*
X22069136Y-50184499D01*
X22069137Y-50184499D01*
X22078881Y-50182955D01*
X22125998Y-50175493D01*
X22186428Y-50185064D01*
X22229693Y-50228328D01*
X22239265Y-50288760D01*
X22233403Y-50310042D01*
X22014804Y-50856539D01*
X21975638Y-50903545D01*
X21916321Y-50918553D01*
X21897263Y-50915398D01*
X21860366Y-50905512D01*
X21823001Y-50895500D01*
X21676999Y-50895500D01*
X21535971Y-50933288D01*
X21409529Y-51006289D01*
X21306289Y-51109529D01*
X21233288Y-51235971D01*
X21195500Y-51376999D01*
X21195500Y-51523001D01*
X21233288Y-51664029D01*
X21306289Y-51790471D01*
X21366505Y-51850687D01*
X21394281Y-51905202D01*
X21395500Y-51920689D01*
X21395500Y-52331836D01*
X21410502Y-52426554D01*
X21410504Y-52426561D01*
X21468671Y-52540718D01*
X21468674Y-52540723D01*
X21559277Y-52631326D01*
X21559279Y-52631327D01*
X21559281Y-52631328D01*
X21673438Y-52689495D01*
X21673440Y-52689495D01*
X21673445Y-52689498D01*
X21737654Y-52699667D01*
X21768163Y-52704500D01*
X21768166Y-52704500D01*
X22131837Y-52704500D01*
X22159387Y-52700136D01*
X22226555Y-52689498D01*
X22340723Y-52631326D01*
X22370025Y-52602023D01*
X22424538Y-52574248D01*
X22484970Y-52583819D01*
X22490428Y-52587132D01*
X22598751Y-52640087D01*
X22666783Y-52649999D01*
X22724999Y-52649998D01*
X22725000Y-52649998D01*
X22725000Y-52125001D01*
X22975000Y-52125001D01*
X22975000Y-52649998D01*
X22975001Y-52649999D01*
X23033213Y-52649999D01*
X23033216Y-52649998D01*
X23101250Y-52640087D01*
X23206188Y-52588785D01*
X23288786Y-52506187D01*
X23340087Y-52401248D01*
X23350000Y-52333215D01*
X23350000Y-52125001D01*
X23349999Y-52125000D01*
X22975001Y-52125000D01*
X22975000Y-52125001D01*
X22725000Y-52125001D01*
X22725000Y-51350001D01*
X22975000Y-51350001D01*
X22975000Y-51874999D01*
X22975001Y-51875000D01*
X23349998Y-51875000D01*
X23349999Y-51874999D01*
X23349999Y-51666786D01*
X23349998Y-51666783D01*
X23340087Y-51598749D01*
X23288785Y-51493811D01*
X23206187Y-51411213D01*
X23101248Y-51359912D01*
X23033216Y-51350000D01*
X22975001Y-51350000D01*
X22975000Y-51350001D01*
X22725000Y-51350001D01*
X22725000Y-51349999D01*
X22713542Y-51338542D01*
X22690613Y-51331092D01*
X22654649Y-51281592D01*
X22654649Y-51220406D01*
X22656873Y-51214262D01*
X23046516Y-50240155D01*
X23085681Y-50193151D01*
X23122948Y-50179144D01*
X23183273Y-50169590D01*
X23296735Y-50111779D01*
X23386779Y-50021735D01*
X23444590Y-49908273D01*
X23459500Y-49814137D01*
X23459499Y-49385864D01*
X23459498Y-49385860D01*
X23453877Y-49350365D01*
X23451994Y-49338478D01*
X23454689Y-49321458D01*
X23452544Y-49304359D01*
X23459074Y-49293775D01*
X23461565Y-49278048D01*
X23482066Y-49250767D01*
X23488184Y-49245031D01*
X23490471Y-49243711D01*
X23503639Y-49230542D01*
X23504794Y-49229460D01*
X23531108Y-49217104D01*
X23557013Y-49203904D01*
X23558866Y-49204070D01*
X23560178Y-49203455D01*
X23567398Y-49204838D01*
X23605199Y-49208240D01*
X23679414Y-49234209D01*
X23727095Y-49250894D01*
X23775775Y-49287959D01*
X23790200Y-49319381D01*
X24402652Y-51670408D01*
X24399024Y-51731486D01*
X24392587Y-51744862D01*
X24383290Y-51760965D01*
X24383289Y-51760967D01*
X24383288Y-51760971D01*
X24345500Y-51901999D01*
X24345500Y-52048001D01*
X24383288Y-52189029D01*
X24456289Y-52315471D01*
X24559529Y-52418711D01*
X24685971Y-52491712D01*
X24826999Y-52529500D01*
X24871276Y-52529500D01*
X24929467Y-52548407D01*
X24965431Y-52597907D01*
X24966896Y-52602853D01*
X24983288Y-52664029D01*
X25056289Y-52790471D01*
X25159529Y-52893711D01*
X25285971Y-52966712D01*
X25426999Y-53004500D01*
X25427001Y-53004500D01*
X25572999Y-53004500D01*
X25573001Y-53004500D01*
X25714029Y-52966712D01*
X25840471Y-52893711D01*
X25870580Y-52863602D01*
X25900687Y-52833496D01*
X25955204Y-52805719D01*
X25970690Y-52804500D01*
X27996672Y-52804500D01*
X27996672Y-52804499D01*
X28086832Y-52780341D01*
X28167668Y-52733671D01*
X28167844Y-52733494D01*
X28168005Y-52733412D01*
X28172818Y-52729720D01*
X28173502Y-52730611D01*
X28222359Y-52705719D01*
X28237846Y-52704500D01*
X28431837Y-52704500D01*
X28459387Y-52700136D01*
X28526555Y-52689498D01*
X28640723Y-52631326D01*
X28670025Y-52602023D01*
X28724538Y-52574248D01*
X28784970Y-52583819D01*
X28790428Y-52587132D01*
X28898751Y-52640087D01*
X28966783Y-52649999D01*
X29024999Y-52649998D01*
X29025000Y-52649998D01*
X29025000Y-52125001D01*
X29275000Y-52125001D01*
X29275000Y-52649998D01*
X29275001Y-52649999D01*
X29333213Y-52649999D01*
X29333216Y-52649998D01*
X29401250Y-52640087D01*
X29506188Y-52588785D01*
X29588786Y-52506187D01*
X29640087Y-52401248D01*
X29650000Y-52333215D01*
X29650000Y-52125001D01*
X29649999Y-52125000D01*
X29275001Y-52125000D01*
X29275000Y-52125001D01*
X29025000Y-52125001D01*
X29025000Y-51350001D01*
X29275000Y-51350001D01*
X29275000Y-51874999D01*
X29275001Y-51875000D01*
X29649998Y-51875000D01*
X29649999Y-51874999D01*
X29649999Y-51666786D01*
X29649998Y-51666783D01*
X29640087Y-51598749D01*
X29588785Y-51493811D01*
X29506187Y-51411213D01*
X29401248Y-51359912D01*
X29333216Y-51350000D01*
X29275001Y-51350000D01*
X29275000Y-51350001D01*
X29025000Y-51350001D01*
X29025000Y-51349999D01*
X29013542Y-51338542D01*
X28990613Y-51331092D01*
X28954649Y-51281592D01*
X28954649Y-51220406D01*
X28956873Y-51214262D01*
X29346516Y-50240155D01*
X29385681Y-50193151D01*
X29422948Y-50179144D01*
X29483273Y-50169590D01*
X29596735Y-50111779D01*
X29686779Y-50021735D01*
X29744590Y-49908273D01*
X29759500Y-49814137D01*
X29759499Y-49385864D01*
X29759499Y-49385861D01*
X29759499Y-49385860D01*
X29752006Y-49338552D01*
X29744590Y-49291727D01*
X29704832Y-49213696D01*
X29686781Y-49178268D01*
X29686780Y-49178267D01*
X29686779Y-49178265D01*
X29642015Y-49133501D01*
X29614240Y-49078987D01*
X29623811Y-49018555D01*
X29667076Y-48975290D01*
X29712021Y-48964500D01*
X30464979Y-48964500D01*
X30523170Y-48983407D01*
X30534976Y-48993490D01*
X30618265Y-49076779D01*
X30618267Y-49076780D01*
X30618268Y-49076781D01*
X30731723Y-49134588D01*
X30731727Y-49134590D01*
X30731731Y-49134590D01*
X30736144Y-49136025D01*
X30785644Y-49171988D01*
X30804552Y-49230179D01*
X30801179Y-49255800D01*
X30795500Y-49276994D01*
X30795500Y-49276999D01*
X30795500Y-49423001D01*
X30833288Y-49564029D01*
X30906289Y-49690471D01*
X31009529Y-49793711D01*
X31135971Y-49866712D01*
X31276999Y-49904500D01*
X31277001Y-49904500D01*
X31422999Y-49904500D01*
X31423001Y-49904500D01*
X31564029Y-49866712D01*
X31690471Y-49793711D01*
X31793711Y-49690471D01*
X31866712Y-49564029D01*
X31904500Y-49423001D01*
X31904500Y-49408556D01*
X31923407Y-49350365D01*
X31933490Y-49338558D01*
X32023680Y-49248369D01*
X32046848Y-49208241D01*
X32052185Y-49198998D01*
X32097655Y-49158058D01*
X32137921Y-49149499D01*
X32274139Y-49149499D01*
X32304458Y-49144696D01*
X32368273Y-49134590D01*
X32481735Y-49076779D01*
X32571779Y-48986735D01*
X32629590Y-48873273D01*
X32644500Y-48779137D01*
X32644499Y-48420864D01*
X32644499Y-48420860D01*
X32636202Y-48368475D01*
X32629590Y-48326727D01*
X32580486Y-48230354D01*
X32571781Y-48213268D01*
X32571780Y-48213267D01*
X32571779Y-48213265D01*
X32481735Y-48123221D01*
X32481732Y-48123219D01*
X32481731Y-48123218D01*
X32368274Y-48065410D01*
X32274138Y-48050500D01*
X31845860Y-48050500D01*
X31751726Y-48065410D01*
X31638266Y-48123219D01*
X31638264Y-48123220D01*
X31620002Y-48141483D01*
X31565485Y-48169259D01*
X31505053Y-48159687D01*
X31479998Y-48141483D01*
X31461735Y-48123220D01*
X31461733Y-48123219D01*
X31348274Y-48065410D01*
X31254138Y-48050500D01*
X30825860Y-48050500D01*
X30731726Y-48065410D01*
X30618268Y-48123218D01*
X30618265Y-48123220D01*
X30618265Y-48123221D01*
X30534980Y-48206505D01*
X30480466Y-48234281D01*
X30464979Y-48235500D01*
X29719731Y-48235500D01*
X29661540Y-48216593D01*
X29633995Y-48186001D01*
X29618712Y-48159531D01*
X29618711Y-48159529D01*
X29515471Y-48056289D01*
X29389029Y-47983288D01*
X29248001Y-47945500D01*
X29193774Y-47945500D01*
X29135583Y-47926593D01*
X29099619Y-47877093D01*
X29098864Y-47818338D01*
X29100833Y-47811704D01*
X29221128Y-47406289D01*
X29261319Y-47270838D01*
X29295998Y-47220430D01*
X29353684Y-47200033D01*
X29356229Y-47200000D01*
X32773053Y-47200000D01*
X32831244Y-47218907D01*
X32867208Y-47268407D01*
X32867208Y-47329593D01*
X32858792Y-47348493D01*
X32808288Y-47435971D01*
X32770500Y-47576999D01*
X32770500Y-47723001D01*
X32808288Y-47864029D01*
X32881289Y-47990471D01*
X32984529Y-48093711D01*
X33110971Y-48166712D01*
X33251999Y-48204500D01*
X33252001Y-48204500D01*
X33397999Y-48204500D01*
X33398001Y-48204500D01*
X33539029Y-48166712D01*
X33665471Y-48093711D01*
X33768711Y-47990471D01*
X33841712Y-47864029D01*
X33879500Y-47723001D01*
X33879500Y-47576999D01*
X33841712Y-47435971D01*
X33791209Y-47348497D01*
X33778489Y-47288652D01*
X33803376Y-47232756D01*
X33856364Y-47202163D01*
X33876947Y-47200000D01*
X34389281Y-47200000D01*
X34447472Y-47218907D01*
X34483436Y-47268407D01*
X34484191Y-47327162D01*
X33999621Y-48960241D01*
X33964942Y-49010649D01*
X33920202Y-49029859D01*
X33916730Y-49030408D01*
X33916726Y-49030410D01*
X33803268Y-49088218D01*
X33713218Y-49178268D01*
X33655410Y-49291725D01*
X33640500Y-49385861D01*
X33640500Y-49814139D01*
X33655410Y-49908273D01*
X33713218Y-50021731D01*
X33713219Y-50021732D01*
X33713221Y-50021735D01*
X33803265Y-50111779D01*
X33803267Y-50111780D01*
X33803268Y-50111781D01*
X33831513Y-50126172D01*
X33916727Y-50169590D01*
X34010863Y-50184500D01*
X34369136Y-50184499D01*
X34369137Y-50184499D01*
X34378881Y-50182955D01*
X34425998Y-50175493D01*
X34486428Y-50185064D01*
X34529693Y-50228328D01*
X34539265Y-50288760D01*
X34533403Y-50310042D01*
X34164114Y-51233268D01*
X34124948Y-51280274D01*
X34072195Y-51295500D01*
X34068163Y-51295500D01*
X33973445Y-51310502D01*
X33973438Y-51310504D01*
X33859281Y-51368671D01*
X33859279Y-51368672D01*
X33768672Y-51459279D01*
X33768671Y-51459281D01*
X33710504Y-51573438D01*
X33710502Y-51573445D01*
X33695500Y-51668163D01*
X33695500Y-52331836D01*
X33710502Y-52426554D01*
X33710504Y-52426561D01*
X33768671Y-52540718D01*
X33768674Y-52540723D01*
X33859277Y-52631326D01*
X33859279Y-52631327D01*
X33859281Y-52631328D01*
X33973438Y-52689495D01*
X33973440Y-52689495D01*
X33973445Y-52689498D01*
X34037654Y-52699667D01*
X34068163Y-52704500D01*
X34068166Y-52704500D01*
X34431837Y-52704500D01*
X34459387Y-52700136D01*
X34526555Y-52689498D01*
X34640723Y-52631326D01*
X34670025Y-52602023D01*
X34724538Y-52574248D01*
X34784970Y-52583819D01*
X34790428Y-52587132D01*
X34898751Y-52640087D01*
X34966783Y-52649999D01*
X35024999Y-52649998D01*
X35025000Y-52649998D01*
X35025000Y-52125001D01*
X35275000Y-52125001D01*
X35275000Y-52649998D01*
X35275001Y-52649999D01*
X35333213Y-52649999D01*
X35333216Y-52649998D01*
X35401250Y-52640087D01*
X35506188Y-52588785D01*
X35588786Y-52506187D01*
X35640087Y-52401248D01*
X35650000Y-52333215D01*
X35650000Y-52125001D01*
X35649999Y-52125000D01*
X35275001Y-52125000D01*
X35275000Y-52125001D01*
X35025000Y-52125001D01*
X35025000Y-51350001D01*
X35275000Y-51350001D01*
X35275000Y-51874999D01*
X35275001Y-51875000D01*
X35649998Y-51875000D01*
X35649999Y-51874999D01*
X35649999Y-51666786D01*
X35649998Y-51666783D01*
X35640087Y-51598749D01*
X35588785Y-51493811D01*
X35506187Y-51411213D01*
X35401248Y-51359912D01*
X35333216Y-51350000D01*
X35275001Y-51350000D01*
X35275000Y-51350001D01*
X35025000Y-51350001D01*
X35025000Y-51349999D01*
X35013542Y-51338542D01*
X34990613Y-51331092D01*
X34954649Y-51281592D01*
X34954649Y-51220406D01*
X34956873Y-51214262D01*
X35346516Y-50240155D01*
X35385681Y-50193151D01*
X35422948Y-50179144D01*
X35483273Y-50169590D01*
X35596735Y-50111779D01*
X35686779Y-50021735D01*
X35744590Y-49908273D01*
X35759500Y-49814137D01*
X35759499Y-49496059D01*
X35772763Y-49446559D01*
X35811704Y-49379112D01*
X35834500Y-49294038D01*
X35834500Y-48040689D01*
X35853407Y-47982498D01*
X35863490Y-47970691D01*
X35943711Y-47890471D01*
X36016712Y-47764029D01*
X36054500Y-47623001D01*
X36054500Y-47476999D01*
X36016712Y-47335971D01*
X35943711Y-47209529D01*
X35862092Y-47127910D01*
X35834317Y-47073396D01*
X35837440Y-47028910D01*
X35846297Y-47000000D01*
X35850000Y-47000000D01*
X35850000Y-46987912D01*
X35854342Y-46973739D01*
X35863810Y-46960233D01*
X35868907Y-46944547D01*
X35882506Y-46929392D01*
X35907100Y-46907100D01*
X35973000Y-46834400D01*
X36031500Y-46755600D01*
X36081900Y-46671400D01*
X36123900Y-46582700D01*
X36156900Y-46490300D01*
X36180800Y-46395100D01*
X36195200Y-46298000D01*
X36200000Y-46200000D01*
X36200000Y-44188312D01*
X36218907Y-44130121D01*
X36268407Y-44094157D01*
X36283514Y-44090530D01*
X36292966Y-44089034D01*
X36410662Y-44029065D01*
X36504065Y-43935662D01*
X36564034Y-43817966D01*
X36579500Y-43720319D01*
X36579499Y-43279682D01*
X36579499Y-43279678D01*
X36569101Y-43214029D01*
X36564034Y-43182034D01*
X36564031Y-43182029D01*
X36564031Y-43182027D01*
X36504066Y-43064340D01*
X36504065Y-43064338D01*
X36410662Y-42970935D01*
X36410659Y-42970933D01*
X36292969Y-42910967D01*
X36292963Y-42910965D01*
X36283508Y-42909467D01*
X36228993Y-42881687D01*
X36201218Y-42827169D01*
X36200000Y-42811687D01*
X36200000Y-41450009D01*
X36199998Y-41449963D01*
X36195200Y-41352000D01*
X36180800Y-41254900D01*
X36156900Y-41159700D01*
X36156898Y-41159695D01*
X36156897Y-41159690D01*
X36136891Y-41103676D01*
X36123900Y-41067300D01*
X36123894Y-41067287D01*
X36081907Y-40978614D01*
X36081904Y-40978608D01*
X36081900Y-40978600D01*
X36031500Y-40894400D01*
X35973000Y-40815600D01*
X35907100Y-40742900D01*
X35834400Y-40677000D01*
X35755600Y-40618500D01*
X35697666Y-40583822D01*
X35671409Y-40568105D01*
X35671385Y-40568092D01*
X35582712Y-40526105D01*
X35582697Y-40526099D01*
X35490309Y-40493102D01*
X35395108Y-40469201D01*
X35298000Y-40454800D01*
X35200036Y-40450001D01*
X35200007Y-40450000D01*
X35200000Y-40450000D01*
X17912448Y-40450000D01*
X17854257Y-40431093D01*
X17818293Y-40381593D01*
X17818293Y-40320407D01*
X17846672Y-40277010D01*
X17854209Y-40270309D01*
X17883019Y-40253676D01*
X17953676Y-40183019D01*
X17953677Y-40183016D01*
X20483016Y-37653677D01*
X20483019Y-37653676D01*
X20553676Y-37583019D01*
X20603638Y-37496482D01*
X20629500Y-37399962D01*
X20629500Y-37153500D01*
X20648407Y-37095309D01*
X20697907Y-37059345D01*
X20728500Y-37054500D01*
X20849642Y-37054500D01*
X20849644Y-37054500D01*
X20895811Y-37048422D01*
X20997129Y-37001177D01*
X21076177Y-36922129D01*
X21123422Y-36820811D01*
X21128210Y-36784436D01*
X21138878Y-36762069D01*
X21146715Y-36738561D01*
X21151837Y-36734898D01*
X21154550Y-36729212D01*
X21176331Y-36717385D01*
X21196487Y-36702975D01*
X21202784Y-36703022D01*
X21208321Y-36700017D01*
X21257670Y-36703440D01*
X21340207Y-36730953D01*
X21358403Y-36739137D01*
X21359308Y-36739660D01*
X21395100Y-36749250D01*
X21430259Y-36760970D01*
X21441315Y-36761633D01*
X21450998Y-36764228D01*
X21451000Y-36764229D01*
X21451004Y-36764229D01*
X21452013Y-36764500D01*
X21489074Y-36764500D01*
X21526062Y-36766720D01*
X21536911Y-36764500D01*
X21623391Y-36764500D01*
X21681582Y-36783407D01*
X21711602Y-36818558D01*
X21713218Y-36821731D01*
X21713221Y-36821735D01*
X21803265Y-36911779D01*
X21803267Y-36911780D01*
X21803268Y-36911781D01*
X21916725Y-36969589D01*
X21916727Y-36969590D01*
X22010863Y-36984500D01*
X22369136Y-36984499D01*
X22369139Y-36984499D01*
X22399458Y-36979696D01*
X22463273Y-36969590D01*
X22576735Y-36911779D01*
X22666779Y-36821735D01*
X22724590Y-36708273D01*
X22739500Y-36614137D01*
X22739499Y-36444268D01*
X22758406Y-36386078D01*
X22768497Y-36374263D01*
X22813689Y-36329072D01*
X22813689Y-36329071D01*
X22813691Y-36329070D01*
X22873527Y-36225431D01*
X22886269Y-36177874D01*
X22919592Y-36126563D01*
X22976713Y-36104636D01*
X22981895Y-36104500D01*
X23470732Y-36104500D01*
X23528923Y-36123407D01*
X23540736Y-36133496D01*
X23729614Y-36322374D01*
X23757391Y-36376891D01*
X23747820Y-36437323D01*
X23745347Y-36441877D01*
X23726474Y-36474566D01*
X23726473Y-36474568D01*
X23726473Y-36474569D01*
X23695500Y-36590164D01*
X23695500Y-37359836D01*
X23720507Y-37453166D01*
X23726474Y-37475434D01*
X23786307Y-37579067D01*
X23786309Y-37579070D01*
X23841505Y-37634266D01*
X23869281Y-37688781D01*
X23870500Y-37704268D01*
X23870500Y-37816836D01*
X23875674Y-37849500D01*
X23882186Y-37890621D01*
X23885502Y-37911554D01*
X23885504Y-37911561D01*
X23943671Y-38025718D01*
X23943674Y-38025723D01*
X24034277Y-38116326D01*
X24148445Y-38174498D01*
X24148453Y-38174499D01*
X24152590Y-38175844D01*
X24202091Y-38211807D01*
X24221000Y-38269997D01*
X24202095Y-38328188D01*
X24152596Y-38364154D01*
X24152590Y-38364156D01*
X24148447Y-38365501D01*
X24148445Y-38365502D01*
X24148442Y-38365503D01*
X24148437Y-38365505D01*
X24034281Y-38423671D01*
X24034279Y-38423672D01*
X23943672Y-38514279D01*
X23943671Y-38514281D01*
X23885504Y-38628438D01*
X23885502Y-38628445D01*
X23870500Y-38723163D01*
X23870500Y-39086836D01*
X23885502Y-39181554D01*
X23885504Y-39181561D01*
X23943540Y-39295460D01*
X23943674Y-39295723D01*
X24034277Y-39386326D01*
X24034279Y-39386327D01*
X24034281Y-39386328D01*
X24148438Y-39444495D01*
X24148440Y-39444495D01*
X24148445Y-39444498D01*
X24212654Y-39454667D01*
X24243163Y-39459500D01*
X24243166Y-39459500D01*
X25556837Y-39459500D01*
X25584387Y-39455136D01*
X25651555Y-39444498D01*
X25765723Y-39386326D01*
X25856326Y-39295723D01*
X25885927Y-39237627D01*
X25914497Y-39181558D01*
X25914497Y-39181556D01*
X25914498Y-39181555D01*
X25918888Y-39153833D01*
X25946662Y-39099319D01*
X25946661Y-39099319D01*
X26015979Y-39030001D01*
X29125001Y-39030001D01*
X29125001Y-39088216D01*
X29134912Y-39156250D01*
X29186214Y-39261188D01*
X29268812Y-39343786D01*
X29373751Y-39395087D01*
X29441784Y-39404999D01*
X29974998Y-39404999D01*
X29975000Y-39404998D01*
X29975000Y-39030001D01*
X29974999Y-39030000D01*
X29125002Y-39030000D01*
X29125001Y-39030001D01*
X26015979Y-39030001D01*
X26324197Y-38721784D01*
X29125000Y-38721784D01*
X29125000Y-38779999D01*
X29125001Y-38780000D01*
X29974999Y-38780000D01*
X29975000Y-38779999D01*
X29975000Y-38405001D01*
X29974999Y-38405000D01*
X29441786Y-38405000D01*
X29441783Y-38405001D01*
X29373749Y-38414912D01*
X29268811Y-38466214D01*
X29186213Y-38548812D01*
X29134912Y-38653751D01*
X29125000Y-38721784D01*
X26324197Y-38721784D01*
X27052486Y-37993496D01*
X27107003Y-37965719D01*
X27122490Y-37964500D01*
X29051812Y-37964500D01*
X29110003Y-37983407D01*
X29140021Y-38018555D01*
X29143671Y-38025718D01*
X29143674Y-38025723D01*
X29234277Y-38116326D01*
X29234279Y-38116327D01*
X29234281Y-38116328D01*
X29348438Y-38174495D01*
X29348440Y-38174495D01*
X29348445Y-38174498D01*
X29412654Y-38184667D01*
X29443163Y-38189500D01*
X29443166Y-38189500D01*
X30756836Y-38189500D01*
X30788251Y-38184524D01*
X30836589Y-38176868D01*
X30860093Y-38180590D01*
X30883886Y-38180899D01*
X30889768Y-38185290D01*
X30897021Y-38186439D01*
X30913849Y-38203267D01*
X30932916Y-38217501D01*
X30934749Y-38224167D01*
X30940285Y-38229703D01*
X30951068Y-38275932D01*
X30950978Y-38282842D01*
X30950500Y-38285863D01*
X30950500Y-38319755D01*
X30950492Y-38320379D01*
X30940856Y-38348776D01*
X30931593Y-38377287D01*
X30931048Y-38377682D01*
X30930832Y-38378320D01*
X30906372Y-38395610D01*
X30882093Y-38413251D01*
X30881411Y-38413255D01*
X30880870Y-38413639D01*
X30862083Y-38413395D01*
X30834210Y-38413596D01*
X30833857Y-38416021D01*
X30758216Y-38405000D01*
X30225001Y-38405000D01*
X30225000Y-38405001D01*
X30225000Y-39404998D01*
X30225001Y-39404999D01*
X30758213Y-39404999D01*
X30758216Y-39404998D01*
X30826250Y-39395087D01*
X30931188Y-39343785D01*
X31013786Y-39261187D01*
X31065087Y-39156248D01*
X31068107Y-39135524D01*
X31095206Y-39080667D01*
X31149374Y-39052215D01*
X31209920Y-39061035D01*
X31211017Y-39061586D01*
X31226725Y-39069589D01*
X31226727Y-39069590D01*
X31320863Y-39084500D01*
X31410174Y-39084499D01*
X31468364Y-39103406D01*
X31490733Y-39125956D01*
X31661693Y-39365299D01*
X31661694Y-39365300D01*
X31664478Y-39369198D01*
X31681320Y-39398369D01*
X31695301Y-39412350D01*
X31700061Y-39419014D01*
X31700062Y-39419016D01*
X31703223Y-39423441D01*
X31706797Y-39428444D01*
X31729114Y-39446816D01*
X31736184Y-39453234D01*
X31756629Y-39473678D01*
X31756631Y-39473680D01*
X31766663Y-39479472D01*
X31766662Y-39479472D01*
X31773758Y-39483569D01*
X31789025Y-39496137D01*
X31819690Y-39510087D01*
X31848869Y-39526934D01*
X31867973Y-39532053D01*
X31885972Y-39540241D01*
X31919190Y-39545777D01*
X31923809Y-39547015D01*
X31923819Y-39547017D01*
X31951747Y-39554500D01*
X31971524Y-39554500D01*
X31991029Y-39557751D01*
X32024561Y-39554500D01*
X36681000Y-39554500D01*
X36739191Y-39573407D01*
X36775155Y-39622907D01*
X36780000Y-39653500D01*
X36780000Y-57168943D01*
X36761093Y-57227134D01*
X36711593Y-57263098D01*
X36650407Y-57263098D01*
X36610996Y-57238947D01*
X36433496Y-57061447D01*
X36405719Y-57006930D01*
X36404500Y-56991443D01*
X36404500Y-56977000D01*
X36404500Y-56976999D01*
X36366712Y-56835971D01*
X36293711Y-56709529D01*
X36190471Y-56606289D01*
X36064029Y-56533288D01*
X35923001Y-56495500D01*
X35776999Y-56495500D01*
X35635971Y-56533288D01*
X35509529Y-56606289D01*
X35406289Y-56709529D01*
X35333288Y-56835971D01*
X35295500Y-56976999D01*
X35295500Y-57123001D01*
X35333288Y-57264029D01*
X35406289Y-57390471D01*
X35509529Y-57493711D01*
X35635971Y-57566712D01*
X35776999Y-57604500D01*
X35791443Y-57604500D01*
X35849634Y-57623407D01*
X35861447Y-57633496D01*
X36401631Y-58173680D01*
X36401633Y-58173681D01*
X36401634Y-58173682D01*
X36401635Y-58173683D01*
X36493865Y-58226932D01*
X36493863Y-58226932D01*
X36493867Y-58226933D01*
X36493869Y-58226934D01*
X36596747Y-58254500D01*
X36703253Y-58254500D01*
X43646500Y-58254500D01*
X43704691Y-58273407D01*
X43740655Y-58322907D01*
X43745500Y-58353500D01*
X43745500Y-62684084D01*
X43745499Y-62684102D01*
X43745499Y-62809835D01*
X43768381Y-62895234D01*
X43776473Y-62925433D01*
X43776474Y-62925434D01*
X43836307Y-63029067D01*
X43836309Y-63029070D01*
X43920930Y-63113691D01*
X43920932Y-63113692D01*
X44696072Y-63888832D01*
X44703683Y-63900359D01*
X44738262Y-63931022D01*
X44770931Y-63963691D01*
X44770934Y-63963693D01*
X44770936Y-63963694D01*
X44774206Y-63965582D01*
X44790386Y-63977244D01*
X44792446Y-63979070D01*
X44793222Y-63979758D01*
X44831918Y-63999106D01*
X44837107Y-64001898D01*
X44843413Y-64005539D01*
X44874568Y-64023527D01*
X44874570Y-64023528D01*
X44878226Y-64024508D01*
X44896876Y-64031585D01*
X45031896Y-64099094D01*
X45037123Y-64101907D01*
X45070416Y-64121129D01*
X45111356Y-64166599D01*
X45117751Y-64227449D01*
X45100571Y-64265652D01*
X45047655Y-64337351D01*
X45002850Y-64465398D01*
X45000000Y-64495788D01*
X45000000Y-64874999D01*
X45000001Y-64875000D01*
X45601000Y-64875000D01*
X45615912Y-64879845D01*
X45631593Y-64879845D01*
X45644278Y-64889061D01*
X45659191Y-64893907D01*
X45668407Y-64906592D01*
X45681093Y-64915809D01*
X45685938Y-64930721D01*
X45695155Y-64943407D01*
X45700000Y-64974000D01*
X45700000Y-65000000D01*
X45726000Y-65000000D01*
X45784191Y-65018907D01*
X45820155Y-65068407D01*
X45825000Y-65099000D01*
X45825000Y-65899998D01*
X45825001Y-65899999D01*
X45996500Y-65899999D01*
X46054691Y-65918906D01*
X46090655Y-65968406D01*
X46095500Y-65998999D01*
X46095500Y-66546673D01*
X46119657Y-66636828D01*
X46119658Y-66636829D01*
X46119659Y-66636832D01*
X46166329Y-66717668D01*
X46216505Y-66767844D01*
X46220130Y-66774959D01*
X46226593Y-66779655D01*
X46233756Y-66801703D01*
X46244281Y-66822359D01*
X46245500Y-66837846D01*
X46245500Y-66846500D01*
X46226593Y-66904691D01*
X46177093Y-66940655D01*
X46146500Y-66945500D01*
X45938992Y-66945500D01*
X45938989Y-66945500D01*
X45938988Y-66945501D01*
X45865218Y-66956248D01*
X45865216Y-66956248D01*
X45865215Y-66956249D01*
X45751433Y-67011873D01*
X45661873Y-67101433D01*
X45606249Y-67215214D01*
X45606248Y-67215216D01*
X45595500Y-67288990D01*
X45595500Y-67562153D01*
X45576593Y-67620344D01*
X45566509Y-67632150D01*
X45332332Y-67866329D01*
X45332331Y-67866328D01*
X45266331Y-67932329D01*
X45219658Y-68013170D01*
X45219657Y-68013171D01*
X45195500Y-68103326D01*
X45195500Y-68762153D01*
X45176593Y-68820344D01*
X45166504Y-68832156D01*
X45116331Y-68882329D01*
X45069658Y-68963170D01*
X45069657Y-68963171D01*
X45045500Y-69053326D01*
X45045500Y-72546673D01*
X45069657Y-72636828D01*
X45069658Y-72636829D01*
X45069659Y-72636832D01*
X45116329Y-72717668D01*
X45332332Y-72933671D01*
X45413168Y-72980341D01*
X45413173Y-72980342D01*
X45419163Y-72982824D01*
X45418545Y-72984314D01*
X45463222Y-73013325D01*
X45485150Y-73070446D01*
X45474496Y-73120574D01*
X45420410Y-73226725D01*
X45405500Y-73320861D01*
X45405500Y-73679139D01*
X45420410Y-73773273D01*
X45478218Y-73886731D01*
X45478219Y-73886732D01*
X45478221Y-73886735D01*
X45568265Y-73976779D01*
X45568267Y-73976780D01*
X45568268Y-73976781D01*
X45625813Y-74006101D01*
X45681727Y-74034590D01*
X45775863Y-74049500D01*
X46204136Y-74049499D01*
X46204139Y-74049499D01*
X46234458Y-74044696D01*
X46298273Y-74034590D01*
X46411735Y-73976779D01*
X46468535Y-73919978D01*
X46523050Y-73892203D01*
X46583482Y-73901774D01*
X46608541Y-73919980D01*
X46625109Y-73936548D01*
X46736173Y-73988338D01*
X46736171Y-73988338D01*
X46786774Y-73994999D01*
X46786779Y-73995000D01*
X46884999Y-73995000D01*
X46885000Y-73994999D01*
X46885000Y-73005001D01*
X46884999Y-73005000D01*
X46786772Y-73005000D01*
X46729936Y-73012482D01*
X46669776Y-73001331D01*
X46627659Y-72956948D01*
X46619674Y-72896286D01*
X46647013Y-72844325D01*
X46912844Y-72578495D01*
X46967360Y-72550718D01*
X46982847Y-72549499D01*
X47220734Y-72549499D01*
X47278925Y-72568406D01*
X47314889Y-72617906D01*
X47319707Y-72646197D01*
X47325523Y-72896286D01*
X47325696Y-72903698D01*
X47308147Y-72962313D01*
X47259497Y-72999418D01*
X47226723Y-73005000D01*
X47135001Y-73005000D01*
X47135000Y-73005001D01*
X47135000Y-73994999D01*
X47135001Y-73995000D01*
X47233217Y-73995000D01*
X47233574Y-73994953D01*
X47233669Y-73994970D01*
X47236455Y-73994788D01*
X47236501Y-73995495D01*
X47293736Y-74006101D01*
X47335854Y-74050482D01*
X47345500Y-74093106D01*
X47345500Y-75170732D01*
X47343031Y-75178329D01*
X47344281Y-75186219D01*
X47333756Y-75206874D01*
X47326593Y-75228923D01*
X47316504Y-75240736D01*
X47290736Y-75266504D01*
X47236219Y-75294281D01*
X47220732Y-75295500D01*
X46671984Y-75295500D01*
X46613793Y-75276593D01*
X46577829Y-75227093D01*
X46574363Y-75183032D01*
X46574195Y-75183019D01*
X46574278Y-75181955D01*
X46574204Y-75181007D01*
X46574257Y-75180669D01*
X46574500Y-75179137D01*
X46574499Y-74820864D01*
X46574499Y-74820861D01*
X46574499Y-74820860D01*
X46567917Y-74779305D01*
X46559590Y-74726727D01*
X46501779Y-74613265D01*
X46411735Y-74523221D01*
X46411732Y-74523219D01*
X46411731Y-74523218D01*
X46298274Y-74465410D01*
X46204138Y-74450500D01*
X45775860Y-74450500D01*
X45681726Y-74465410D01*
X45568268Y-74523218D01*
X45478218Y-74613268D01*
X45420410Y-74726725D01*
X45405500Y-74820861D01*
X45405500Y-75179139D01*
X45420410Y-75273273D01*
X45474710Y-75379845D01*
X45485500Y-75424789D01*
X45485500Y-76437151D01*
X45466593Y-76495342D01*
X45453932Y-76509634D01*
X45099468Y-76839369D01*
X44406450Y-77484036D01*
X44406449Y-77484035D01*
X44398231Y-77491679D01*
X44390230Y-77496300D01*
X44349759Y-77536769D01*
X44348441Y-77537996D01*
X44348416Y-77538021D01*
X44307751Y-77575850D01*
X44307747Y-77575854D01*
X44302834Y-77583694D01*
X44296300Y-77590230D01*
X44267675Y-77639808D01*
X44266712Y-77641346D01*
X44266710Y-77641346D01*
X44237220Y-77688416D01*
X44237217Y-77688423D01*
X44234501Y-77697266D01*
X44229881Y-77705270D01*
X44215065Y-77760557D01*
X44214533Y-77762292D01*
X44214527Y-77762316D01*
X44198229Y-77815397D01*
X44197151Y-77821798D01*
X44197048Y-77821780D01*
X44196245Y-77827136D01*
X44196347Y-77827150D01*
X44195500Y-77833579D01*
X44195500Y-77833581D01*
X44195500Y-77890907D01*
X44193431Y-77948152D01*
X44195500Y-77957164D01*
X44195500Y-85950021D01*
X44176593Y-86008212D01*
X44166504Y-86020025D01*
X43420025Y-86766504D01*
X43365508Y-86794281D01*
X43350021Y-86795500D01*
X16849979Y-86795500D01*
X16791788Y-86776593D01*
X16779975Y-86766504D01*
X16033496Y-86020025D01*
X16005719Y-85965508D01*
X16004500Y-85950021D01*
X16004500Y-85103500D01*
X16023407Y-85045309D01*
X16072907Y-85009345D01*
X16103500Y-85004500D01*
X18586241Y-85004500D01*
X18586254Y-85004500D01*
X18634703Y-85001614D01*
X18845482Y-84955762D01*
X19043774Y-84870848D01*
X19222413Y-84749942D01*
X19374942Y-84597413D01*
X19495848Y-84418774D01*
X19580762Y-84220482D01*
X19626614Y-84009703D01*
X19629500Y-83961254D01*
X19629500Y-83125001D01*
X28975000Y-83125001D01*
X28975000Y-83957086D01*
X28977747Y-84003205D01*
X28977748Y-84003214D01*
X29021384Y-84203804D01*
X29021387Y-84203811D01*
X29102202Y-84392534D01*
X29217276Y-84562554D01*
X29362445Y-84707723D01*
X29532465Y-84822797D01*
X29721188Y-84903612D01*
X29721195Y-84903615D01*
X29921785Y-84947251D01*
X29921794Y-84947252D01*
X29967913Y-84949999D01*
X29967923Y-84950000D01*
X35174999Y-84950000D01*
X35175000Y-84949999D01*
X35175000Y-83125001D01*
X35425000Y-83125001D01*
X35425000Y-84949999D01*
X35425001Y-84950000D01*
X40632077Y-84950000D01*
X40632086Y-84949999D01*
X40678205Y-84947252D01*
X40678214Y-84947251D01*
X40878804Y-84903615D01*
X40878811Y-84903612D01*
X41067534Y-84822797D01*
X41237554Y-84707723D01*
X41382723Y-84562554D01*
X41497797Y-84392534D01*
X41578612Y-84203811D01*
X41578615Y-84203804D01*
X41622251Y-84003214D01*
X41622252Y-84003205D01*
X41624999Y-83957086D01*
X41625000Y-83957077D01*
X41625000Y-83125001D01*
X41624999Y-83125000D01*
X35425001Y-83125000D01*
X35425000Y-83125001D01*
X35175000Y-83125001D01*
X35174999Y-83125000D01*
X28975001Y-83125000D01*
X28975000Y-83125001D01*
X19629500Y-83125001D01*
X19629500Y-82042913D01*
X28975000Y-82042913D01*
X28975000Y-82874999D01*
X28975001Y-82875000D01*
X35174999Y-82875000D01*
X35175000Y-82874999D01*
X35175000Y-81050001D01*
X35425000Y-81050001D01*
X35425000Y-82874999D01*
X35425001Y-82875000D01*
X41624999Y-82875000D01*
X41625000Y-82874999D01*
X41625000Y-82042923D01*
X41624999Y-82042913D01*
X41622252Y-81996794D01*
X41622251Y-81996785D01*
X41578615Y-81796195D01*
X41578612Y-81796188D01*
X41497797Y-81607465D01*
X41382723Y-81437445D01*
X41237554Y-81292276D01*
X41067534Y-81177202D01*
X40878811Y-81096387D01*
X40878804Y-81096384D01*
X40678214Y-81052748D01*
X40678205Y-81052747D01*
X40632086Y-81050000D01*
X35425001Y-81050000D01*
X35425000Y-81050001D01*
X35175000Y-81050001D01*
X35174999Y-81050000D01*
X29967913Y-81050000D01*
X29921794Y-81052747D01*
X29921785Y-81052748D01*
X29721195Y-81096384D01*
X29721188Y-81096387D01*
X29532465Y-81177202D01*
X29362445Y-81292276D01*
X29217276Y-81437445D01*
X29102202Y-81607465D01*
X29021387Y-81796188D01*
X29021384Y-81796195D01*
X28977748Y-81996785D01*
X28977747Y-81996794D01*
X28975000Y-82042913D01*
X19629500Y-82042913D01*
X19629500Y-82038746D01*
X19626614Y-81990297D01*
X19580762Y-81779518D01*
X19495848Y-81581226D01*
X19398535Y-81437445D01*
X19374946Y-81402592D01*
X19374944Y-81402590D01*
X19374942Y-81402587D01*
X19222413Y-81250058D01*
X19222409Y-81250055D01*
X19222407Y-81250053D01*
X19043777Y-81129154D01*
X19043776Y-81129153D01*
X19043774Y-81129152D01*
X18865355Y-81052748D01*
X18845483Y-81044238D01*
X18740092Y-81021312D01*
X18634703Y-80998386D01*
X18586254Y-80995500D01*
X12413746Y-80995500D01*
X12365297Y-80998386D01*
X12154516Y-81044238D01*
X11956228Y-81129151D01*
X11956222Y-81129154D01*
X11777592Y-81250053D01*
X11625053Y-81402592D01*
X11504154Y-81581222D01*
X11504151Y-81581228D01*
X11419238Y-81779516D01*
X11415610Y-81796195D01*
X11373386Y-81990297D01*
X11370500Y-82038746D01*
X11370500Y-83961254D01*
X11373386Y-84009702D01*
X11419238Y-84220483D01*
X11470243Y-84339589D01*
X11492915Y-84392534D01*
X11504151Y-84418771D01*
X11504154Y-84418777D01*
X11625053Y-84597407D01*
X11625055Y-84597409D01*
X11625058Y-84597413D01*
X11777587Y-84749942D01*
X11777590Y-84749944D01*
X11777592Y-84749946D01*
X11898674Y-84831895D01*
X11956226Y-84870848D01*
X12154518Y-84955762D01*
X12365297Y-85001614D01*
X12413746Y-85004500D01*
X14896500Y-85004500D01*
X14954691Y-85023407D01*
X14990655Y-85072907D01*
X14995500Y-85103500D01*
X14995500Y-86266419D01*
X15029881Y-86394730D01*
X15040495Y-86413113D01*
X15096299Y-86509770D01*
X16290230Y-87703701D01*
X16360234Y-87744117D01*
X16405270Y-87770119D01*
X16533581Y-87804500D01*
X16533582Y-87804500D01*
X16533583Y-87804500D01*
X43666417Y-87804500D01*
X43666419Y-87804500D01*
X43794730Y-87770119D01*
X43839766Y-87744117D01*
X43909770Y-87703701D01*
X45103701Y-86509770D01*
X45159505Y-86413113D01*
X45170119Y-86394730D01*
X45204500Y-86266419D01*
X45204500Y-85768912D01*
X45800000Y-85768912D01*
X45800000Y-86031087D01*
X45834220Y-86291010D01*
X45834220Y-86291015D01*
X45902075Y-86544255D01*
X45902078Y-86544262D01*
X46002403Y-86786470D01*
X46133495Y-87013527D01*
X46293091Y-87221517D01*
X46297398Y-87225824D01*
X46938097Y-86585124D01*
X46960967Y-86616602D01*
X47083398Y-86739033D01*
X47114874Y-86761901D01*
X46474175Y-87402601D01*
X46478482Y-87406908D01*
X46686472Y-87566504D01*
X46913529Y-87697596D01*
X47155737Y-87797921D01*
X47155744Y-87797924D01*
X47408986Y-87865779D01*
X47668912Y-87899999D01*
X47668914Y-87900000D01*
X47931086Y-87900000D01*
X47931087Y-87899999D01*
X48191010Y-87865779D01*
X48191015Y-87865779D01*
X48444255Y-87797924D01*
X48444262Y-87797921D01*
X48686470Y-87697596D01*
X48913527Y-87566504D01*
X49121511Y-87406913D01*
X49121524Y-87406901D01*
X49125824Y-87402600D01*
X48485125Y-86761901D01*
X48516602Y-86739033D01*
X48639033Y-86616602D01*
X48661901Y-86585125D01*
X49302600Y-87225824D01*
X49306901Y-87221524D01*
X49306913Y-87221511D01*
X49466504Y-87013527D01*
X49597596Y-86786470D01*
X49697921Y-86544262D01*
X49697924Y-86544255D01*
X49765779Y-86291015D01*
X49765779Y-86291010D01*
X49799999Y-86031087D01*
X49800000Y-86031086D01*
X49800000Y-85768914D01*
X49799999Y-85768912D01*
X49765779Y-85508989D01*
X49765779Y-85508984D01*
X49697924Y-85255744D01*
X49697921Y-85255737D01*
X49597596Y-85013529D01*
X49466504Y-84786472D01*
X49306908Y-84578482D01*
X49302601Y-84574175D01*
X48661901Y-85214874D01*
X48639033Y-85183398D01*
X48516602Y-85060967D01*
X48485124Y-85038097D01*
X49125824Y-84397398D01*
X49121517Y-84393091D01*
X48913527Y-84233495D01*
X48686470Y-84102403D01*
X48444262Y-84002078D01*
X48444255Y-84002075D01*
X48191013Y-83934220D01*
X47931087Y-83900000D01*
X47668912Y-83900000D01*
X47408989Y-83934220D01*
X47408984Y-83934220D01*
X47155744Y-84002075D01*
X47155737Y-84002078D01*
X46913529Y-84102403D01*
X46686472Y-84233495D01*
X46478481Y-84393091D01*
X46474174Y-84397397D01*
X47114874Y-85038097D01*
X47083398Y-85060967D01*
X46960967Y-85183398D01*
X46938097Y-85214874D01*
X46297397Y-84574174D01*
X46293091Y-84578481D01*
X46133495Y-84786472D01*
X46002403Y-85013529D01*
X45902078Y-85255737D01*
X45902075Y-85255744D01*
X45834220Y-85508984D01*
X45834220Y-85508989D01*
X45800000Y-85768912D01*
X45204500Y-85768912D01*
X45204500Y-78162846D01*
X45223407Y-78104655D01*
X45236067Y-78090363D01*
X46291760Y-77108324D01*
X46299770Y-77103700D01*
X46340280Y-77063189D01*
X46382248Y-77024150D01*
X46382252Y-77024142D01*
X46386383Y-77019145D01*
X46386464Y-77019212D01*
X46389831Y-77014985D01*
X46389747Y-77014921D01*
X46393698Y-77009772D01*
X46393698Y-77009771D01*
X46393700Y-77009770D01*
X46422348Y-76960150D01*
X46452779Y-76911583D01*
X46455494Y-76902740D01*
X46460119Y-76894730D01*
X46474952Y-76839369D01*
X46491771Y-76784598D01*
X46492105Y-76775356D01*
X46494500Y-76766419D01*
X46494500Y-76709108D01*
X46496570Y-76651848D01*
X46494500Y-76642831D01*
X46494500Y-76303500D01*
X46513407Y-76245309D01*
X46562907Y-76209345D01*
X46593500Y-76204500D01*
X47383397Y-76204500D01*
X47389329Y-76204678D01*
X47390954Y-76204775D01*
X47432497Y-76207269D01*
X47446028Y-76204500D01*
X47459836Y-76204500D01*
X47504466Y-76192541D01*
X47549740Y-76183277D01*
X47553123Y-76181585D01*
X47571782Y-76174504D01*
X47575431Y-76173527D01*
X47612887Y-76151900D01*
X47618085Y-76149103D01*
X47653131Y-76131580D01*
X47671773Y-76124506D01*
X47675430Y-76123527D01*
X47715445Y-76100423D01*
X47756777Y-76079758D01*
X47767110Y-76070594D01*
X47779070Y-76063690D01*
X47809676Y-76033082D01*
X47813944Y-76029064D01*
X47846317Y-76000359D01*
X47848402Y-75997199D01*
X47861010Y-75981748D01*
X48079067Y-75763692D01*
X48079070Y-75763691D01*
X48163691Y-75679070D01*
X48223527Y-75575431D01*
X48237155Y-75524570D01*
X48254501Y-75459836D01*
X48254501Y-75340164D01*
X48254501Y-75334102D01*
X48254500Y-75334084D01*
X48254500Y-73804467D01*
X48255768Y-73799253D01*
X48254500Y-73744728D01*
X48254500Y-73690164D01*
X48253655Y-73683749D01*
X48252834Y-73673122D01*
X48238818Y-73070446D01*
X48205571Y-71640792D01*
X48207269Y-71632498D01*
X48204183Y-71581093D01*
X48202986Y-71529613D01*
X48202983Y-71529603D01*
X48201989Y-71523199D01*
X48202174Y-71523170D01*
X48201511Y-71519369D01*
X48201327Y-71519405D01*
X48200097Y-71513037D01*
X48184388Y-71465910D01*
X48183312Y-71462475D01*
X48169334Y-71414770D01*
X48169333Y-71414769D01*
X48169333Y-71414767D01*
X48166714Y-71408839D01*
X48166884Y-71408763D01*
X48161392Y-71396923D01*
X48136373Y-71321865D01*
X48136191Y-71321312D01*
X48135394Y-71318860D01*
X48123527Y-71274570D01*
X48117750Y-71264565D01*
X48114536Y-71254672D01*
X48114535Y-71233968D01*
X48110233Y-71213721D01*
X48114534Y-71204061D01*
X48114534Y-71193486D01*
X48126702Y-71176737D01*
X48135123Y-71157827D01*
X48138667Y-71154091D01*
X48579067Y-70713692D01*
X48579070Y-70713691D01*
X48663691Y-70629070D01*
X48723527Y-70525431D01*
X48723528Y-70525430D01*
X48754501Y-70409836D01*
X48754501Y-70290164D01*
X48754501Y-70284102D01*
X48754500Y-70284084D01*
X48754500Y-67813636D01*
X48757269Y-67767503D01*
X48754500Y-67753972D01*
X48754500Y-67740164D01*
X48742538Y-67695524D01*
X48733276Y-67650260D01*
X48727102Y-67637912D01*
X48723527Y-67624569D01*
X48701897Y-67587105D01*
X48699092Y-67581892D01*
X48680427Y-67544561D01*
X48673591Y-67526795D01*
X48671887Y-67520663D01*
X48671886Y-67520661D01*
X48651212Y-67485606D01*
X48647963Y-67479634D01*
X48629758Y-67443222D01*
X48629755Y-67443219D01*
X48629755Y-67443218D01*
X48625533Y-67438457D01*
X48614327Y-67423062D01*
X48608878Y-67413823D01*
X47680642Y-65839858D01*
X47667369Y-65780130D01*
X47681520Y-65737820D01*
X47687638Y-65727841D01*
X47691672Y-65723808D01*
X47716841Y-65680213D01*
X47717530Y-65679090D01*
X47718650Y-65678133D01*
X47731920Y-65660838D01*
X47829067Y-65563692D01*
X47829070Y-65563691D01*
X47913691Y-65479070D01*
X47973527Y-65375431D01*
X47987075Y-65324869D01*
X48004501Y-65259836D01*
X48004501Y-65140164D01*
X48004501Y-65134102D01*
X48004500Y-65134084D01*
X48004500Y-64253838D01*
X48005442Y-64197817D01*
X48004500Y-64194049D01*
X48004500Y-64190164D01*
X47991740Y-64142541D01*
X47990205Y-64136813D01*
X47989788Y-64135203D01*
X47943307Y-63949281D01*
X47933276Y-63900260D01*
X47928828Y-63891365D01*
X47926417Y-63881718D01*
X47903154Y-63839813D01*
X47901183Y-63836074D01*
X47881022Y-63795752D01*
X47874059Y-63777526D01*
X47872737Y-63772676D01*
X47851570Y-63736390D01*
X47848554Y-63730816D01*
X47829758Y-63693222D01*
X47826413Y-63689450D01*
X47814971Y-63673650D01*
X47462439Y-63069307D01*
X47377438Y-62985062D01*
X47304383Y-62943318D01*
X47263239Y-62898032D01*
X47254499Y-62857361D01*
X47254499Y-62451751D01*
X47254499Y-62451746D01*
X47248040Y-62391658D01*
X47197342Y-62255733D01*
X47163553Y-62210595D01*
X47110406Y-62139598D01*
X47110401Y-62139593D01*
X46994266Y-62052657D01*
X46858342Y-62001960D01*
X46858341Y-62001959D01*
X46817790Y-61997600D01*
X46798255Y-61995500D01*
X46798251Y-61995500D01*
X46229217Y-61995500D01*
X46171026Y-61976593D01*
X46135062Y-61927093D01*
X46134026Y-61869306D01*
X46646314Y-60076302D01*
X46680480Y-60025544D01*
X46737956Y-60004563D01*
X46741505Y-60004499D01*
X46798249Y-60004499D01*
X46798254Y-60004499D01*
X46858342Y-59998040D01*
X46994267Y-59947342D01*
X47110404Y-59860404D01*
X47197342Y-59744267D01*
X47248040Y-59608342D01*
X47254500Y-59548255D01*
X47254499Y-58751746D01*
X47248040Y-58691658D01*
X47197342Y-58555733D01*
X47143331Y-58483582D01*
X47110406Y-58439598D01*
X47110401Y-58439593D01*
X46994266Y-58352657D01*
X46858342Y-58301960D01*
X46858341Y-58301959D01*
X46817790Y-58297600D01*
X46798255Y-58295500D01*
X46798251Y-58295500D01*
X46201751Y-58295500D01*
X46201745Y-58295501D01*
X46141660Y-58301959D01*
X46141658Y-58301960D01*
X46005733Y-58352657D01*
X45889598Y-58439593D01*
X45889593Y-58439598D01*
X45802657Y-58555733D01*
X45751960Y-58691657D01*
X45751959Y-58691658D01*
X45745500Y-58751748D01*
X45745500Y-59548248D01*
X45745501Y-59548254D01*
X45751959Y-59608339D01*
X45751960Y-59608341D01*
X45802657Y-59744266D01*
X45802658Y-59744267D01*
X45889596Y-59860404D01*
X45901749Y-59869501D01*
X45937002Y-59919505D01*
X45937613Y-59975952D01*
X45301634Y-62201877D01*
X45299142Y-62210597D01*
X45297659Y-62213168D01*
X45286345Y-62255388D01*
X45286119Y-62256181D01*
X45274317Y-62297487D01*
X45274215Y-62298180D01*
X45274111Y-62298678D01*
X45273995Y-62299567D01*
X45273766Y-62301201D01*
X45273627Y-62302135D01*
X45273589Y-62302649D01*
X45273500Y-62303325D01*
X45273500Y-62346248D01*
X45273487Y-62347880D01*
X45272778Y-62390818D01*
X45272852Y-62391454D01*
X45273500Y-62402761D01*
X45273500Y-62433330D01*
X45254593Y-62491521D01*
X45224000Y-62519066D01*
X45159531Y-62556287D01*
X45056288Y-62659530D01*
X45009526Y-62740523D01*
X44964056Y-62781464D01*
X44903205Y-62787858D01*
X44853786Y-62761026D01*
X44683496Y-62590736D01*
X44655719Y-62536219D01*
X44654500Y-62520732D01*
X44654500Y-57940165D01*
X44654500Y-57940164D01*
X44623527Y-57824569D01*
X44608447Y-57798450D01*
X44598560Y-57774580D01*
X44576934Y-57693869D01*
X44576932Y-57693866D01*
X44576932Y-57693864D01*
X44523683Y-57601635D01*
X44523681Y-57601633D01*
X44523680Y-57601631D01*
X44491050Y-57569001D01*
X44463275Y-57514487D01*
X44472846Y-57454055D01*
X44516111Y-57410790D01*
X44561056Y-57400000D01*
X48999999Y-57400000D01*
X49000000Y-57400000D01*
X49000000Y-31600000D01*
X49000000Y-31550000D01*
X48999999Y-31550000D01*
X36911717Y-31550000D01*
X36882923Y-31540644D01*
X36854133Y-31531530D01*
X36853900Y-31531214D01*
X36853526Y-31531093D01*
X36817796Y-31482304D01*
X36816734Y-31479119D01*
X36814561Y-31472598D01*
X36812856Y-31466918D01*
X36803639Y-31432521D01*
X36803638Y-31432520D01*
X36803638Y-31432518D01*
X36802885Y-31431214D01*
X36794701Y-31413022D01*
X36763625Y-31319790D01*
X36753638Y-31282519D01*
X36747872Y-31272533D01*
X36744226Y-31261593D01*
X36722964Y-31229391D01*
X36703676Y-31195982D01*
X36695523Y-31187829D01*
X36689169Y-31178205D01*
X36689168Y-31178204D01*
X36689166Y-31178201D01*
X36662520Y-31154573D01*
X36658199Y-31150505D01*
X36053677Y-30545983D01*
X36053676Y-30545981D01*
X35983019Y-30475324D01*
X35941604Y-30451413D01*
X35918781Y-30438236D01*
X35877840Y-30392767D01*
X35871444Y-30331917D01*
X35902037Y-30278929D01*
X35957933Y-30254042D01*
X35968281Y-30253500D01*
X45147672Y-30253500D01*
X45147672Y-30253499D01*
X45237832Y-30229341D01*
X45318668Y-30182671D01*
X45783671Y-29717668D01*
X45830341Y-29636832D01*
X45854500Y-29546671D01*
X45854500Y-29453329D01*
X45854500Y-25470689D01*
X45873407Y-25412498D01*
X45883490Y-25400691D01*
X45943711Y-25340471D01*
X46016712Y-25214029D01*
X46054500Y-25073001D01*
X46054500Y-24926999D01*
X46016712Y-24785971D01*
X45956762Y-24682134D01*
X45943500Y-24632637D01*
X45943500Y-14766717D01*
X45962407Y-14708526D01*
X46011907Y-14672562D01*
X46073093Y-14672562D01*
X46077053Y-14673943D01*
X46141658Y-14698040D01*
X46201745Y-14704500D01*
X46798254Y-14704499D01*
X46858342Y-14698040D01*
X46994267Y-14647342D01*
X47110404Y-14560404D01*
X47197342Y-14444267D01*
X47248040Y-14308342D01*
X47254500Y-14248255D01*
X47254499Y-13451746D01*
X47248040Y-13391658D01*
X47197342Y-13255733D01*
X47135349Y-13172919D01*
X47110406Y-13139598D01*
X47110401Y-13139593D01*
X46994266Y-13052657D01*
X46858342Y-13001960D01*
X46858341Y-13001959D01*
X46817790Y-12997600D01*
X46798255Y-12995500D01*
X46798251Y-12995500D01*
X46620690Y-12995500D01*
X46562499Y-12976593D01*
X46550687Y-12966504D01*
X46490473Y-12906291D01*
X46490471Y-12906289D01*
X46364029Y-12833288D01*
X46223001Y-12795500D01*
X46076999Y-12795500D01*
X46076996Y-12795500D01*
X46068118Y-12797879D01*
X46007017Y-12794674D01*
X45959469Y-12756166D01*
X45943500Y-12702251D01*
X45943500Y-11287845D01*
X45962407Y-11229654D01*
X45972490Y-11217848D01*
X46156843Y-11033494D01*
X46211358Y-11005718D01*
X46226832Y-11004499D01*
X46798254Y-11004499D01*
X46858342Y-10998040D01*
X46994267Y-10947342D01*
X47110404Y-10860404D01*
X47197342Y-10744267D01*
X47248040Y-10608342D01*
X47254500Y-10548255D01*
X47254499Y-9751746D01*
X47248040Y-9691658D01*
X47197342Y-9555733D01*
X47110406Y-9439598D01*
X47110401Y-9439593D01*
X46994266Y-9352657D01*
X46858342Y-9301960D01*
X46858341Y-9301959D01*
X46817790Y-9297600D01*
X46798255Y-9295500D01*
X46798251Y-9295500D01*
X46201751Y-9295500D01*
X46201745Y-9295501D01*
X46141660Y-9301959D01*
X46141658Y-9301960D01*
X46005733Y-9352657D01*
X45889598Y-9439593D01*
X45889593Y-9439598D01*
X45802657Y-9555733D01*
X45751960Y-9691657D01*
X45751959Y-9691658D01*
X45745500Y-9751748D01*
X45745500Y-10401153D01*
X45726593Y-10459344D01*
X45716509Y-10471150D01*
X45371332Y-10816329D01*
X45371331Y-10816328D01*
X45305331Y-10882329D01*
X45258658Y-10963170D01*
X45258657Y-10963171D01*
X45234500Y-11053326D01*
X45234500Y-24455846D01*
X45215593Y-24514037D01*
X45185001Y-24541582D01*
X45159531Y-24556287D01*
X45159529Y-24556289D01*
X45056289Y-24659529D01*
X44983288Y-24785971D01*
X44945500Y-24926999D01*
X44945500Y-25073001D01*
X44983288Y-25214029D01*
X45056289Y-25340471D01*
X45116505Y-25400687D01*
X45144281Y-25455202D01*
X45145500Y-25470689D01*
X45145500Y-29312153D01*
X45143031Y-29319750D01*
X45144281Y-29327640D01*
X45133756Y-29348295D01*
X45126593Y-29370344D01*
X45116504Y-29382157D01*
X44983157Y-29515504D01*
X44928640Y-29543281D01*
X44913153Y-29544500D01*
X39329622Y-29544500D01*
X39271431Y-29525593D01*
X39235467Y-29476093D01*
X39235467Y-29414907D01*
X39247635Y-29390010D01*
X39272574Y-29353161D01*
X39295848Y-29318774D01*
X39380762Y-29120482D01*
X39426614Y-28909703D01*
X39429500Y-28861254D01*
X39429500Y-26938746D01*
X39426614Y-26890297D01*
X39380762Y-26679518D01*
X39295848Y-26481226D01*
X39256895Y-26423674D01*
X39174946Y-26302592D01*
X39174944Y-26302590D01*
X39174942Y-26302587D01*
X39022413Y-26150058D01*
X39022409Y-26150055D01*
X39022407Y-26150053D01*
X38843777Y-26029154D01*
X38843776Y-26029153D01*
X38843774Y-26029152D01*
X38764589Y-25995243D01*
X38645483Y-25944238D01*
X38540092Y-25921312D01*
X38434703Y-25898386D01*
X38386254Y-25895500D01*
X32213746Y-25895500D01*
X32165297Y-25898386D01*
X31954516Y-25944238D01*
X31756228Y-26029151D01*
X31756222Y-26029154D01*
X31577592Y-26150053D01*
X31425053Y-26302592D01*
X31304154Y-26481222D01*
X31304151Y-26481228D01*
X31219238Y-26679516D01*
X31173386Y-26890297D01*
X31170500Y-26938749D01*
X31170500Y-27296500D01*
X31151593Y-27354691D01*
X31102093Y-27390655D01*
X31071500Y-27395500D01*
X21978500Y-27395500D01*
X21920309Y-27376593D01*
X21884345Y-27327093D01*
X21879500Y-27296500D01*
X21879500Y-26938759D01*
X21879500Y-26938746D01*
X21876614Y-26890297D01*
X21830762Y-26679518D01*
X21745848Y-26481226D01*
X21706895Y-26423674D01*
X21624946Y-26302592D01*
X21624944Y-26302590D01*
X21624942Y-26302587D01*
X21472413Y-26150058D01*
X21472409Y-26150055D01*
X21472407Y-26150053D01*
X21293777Y-26029154D01*
X21293776Y-26029153D01*
X21293774Y-26029152D01*
X21214589Y-25995243D01*
X21095483Y-25944238D01*
X20990092Y-25921312D01*
X20884703Y-25898386D01*
X20836254Y-25895500D01*
X10163746Y-25895500D01*
X10115297Y-25898386D01*
X9904516Y-25944238D01*
X9706228Y-26029151D01*
X9706222Y-26029154D01*
X9527592Y-26150053D01*
X9375053Y-26302592D01*
X9254154Y-26481222D01*
X9254151Y-26481228D01*
X9169238Y-26679516D01*
X9123386Y-26890297D01*
X9120500Y-26938749D01*
X9120500Y-27396500D01*
X9101593Y-27454691D01*
X9052093Y-27490655D01*
X9021500Y-27495500D01*
X4620689Y-27495500D01*
X4562498Y-27476593D01*
X4550691Y-27466509D01*
X4540471Y-27456289D01*
X4414029Y-27383288D01*
X4273001Y-27345500D01*
X4126999Y-27345500D01*
X3985971Y-27383288D01*
X3859529Y-27456289D01*
X3773501Y-27542316D01*
X3718987Y-27570092D01*
X3658555Y-27560521D01*
X3615290Y-27517256D01*
X3604500Y-27472311D01*
X3604500Y-14250762D01*
X9372050Y-14250762D01*
X9372050Y-14469237D01*
X9406225Y-14685009D01*
X9473733Y-14892781D01*
X9473735Y-14892784D01*
X9473736Y-14892788D01*
X9572919Y-15087444D01*
X9701331Y-15264189D01*
X9855811Y-15418669D01*
X10032556Y-15547081D01*
X10227212Y-15646264D01*
X10434988Y-15713774D01*
X10521299Y-15727444D01*
X10650763Y-15747950D01*
X10650766Y-15747950D01*
X10869237Y-15747950D01*
X10977123Y-15730862D01*
X11085012Y-15713774D01*
X11292788Y-15646264D01*
X11487444Y-15547081D01*
X11664189Y-15418669D01*
X11818669Y-15264189D01*
X11947081Y-15087444D01*
X12046264Y-14892788D01*
X12113774Y-14685012D01*
X12147950Y-14469234D01*
X12147950Y-14250766D01*
X12147950Y-14250762D01*
X12113774Y-14034990D01*
X12113774Y-14034988D01*
X12046264Y-13827212D01*
X11947081Y-13632556D01*
X11818669Y-13455811D01*
X11664189Y-13301331D01*
X11487444Y-13172919D01*
X11487443Y-13172918D01*
X11487441Y-13172917D01*
X11399045Y-13127877D01*
X11292788Y-13073736D01*
X11292784Y-13073735D01*
X11292781Y-13073733D01*
X11085009Y-13006225D01*
X10869237Y-12972050D01*
X10869234Y-12972050D01*
X10650766Y-12972050D01*
X10650763Y-12972050D01*
X10434990Y-13006225D01*
X10227218Y-13073733D01*
X10032558Y-13172917D01*
X9944183Y-13237125D01*
X9855811Y-13301331D01*
X9701331Y-13455811D01*
X9701329Y-13455814D01*
X9572917Y-13632558D01*
X9473733Y-13827218D01*
X9406225Y-14034990D01*
X9372050Y-14250762D01*
X3604500Y-14250762D01*
X3604500Y-7849979D01*
X3623407Y-7791788D01*
X3633496Y-7779975D01*
X4979975Y-6433496D01*
X5034492Y-6405719D01*
X5049979Y-6404500D01*
X11271500Y-6404500D01*
X11329691Y-6423407D01*
X11365655Y-6472907D01*
X11370500Y-6503500D01*
X11370500Y-6861254D01*
X11373386Y-6909703D01*
X11419238Y-7120482D01*
X11492915Y-7292534D01*
X11504151Y-7318771D01*
X11504154Y-7318777D01*
X11625053Y-7497407D01*
X11625055Y-7497409D01*
X11625058Y-7497413D01*
X11777587Y-7649942D01*
X11777590Y-7649944D01*
X11777592Y-7649946D01*
X11885230Y-7722797D01*
X11956226Y-7770848D01*
X12154518Y-7855762D01*
X12365297Y-7901614D01*
X12413746Y-7904500D01*
X13671500Y-7904500D01*
X13729691Y-7923407D01*
X13765655Y-7972907D01*
X13770500Y-8003500D01*
X13770500Y-13653594D01*
X13751593Y-13711785D01*
X13702093Y-13747749D01*
X13640907Y-13747749D01*
X13633615Y-13745058D01*
X13502957Y-13690939D01*
X13368532Y-13664200D01*
X13368530Y-13664200D01*
X13231470Y-13664200D01*
X13231467Y-13664200D01*
X13097043Y-13690939D01*
X13097041Y-13690939D01*
X12970419Y-13743387D01*
X12970408Y-13743393D01*
X12856453Y-13819537D01*
X12856449Y-13819540D01*
X12759540Y-13916449D01*
X12759537Y-13916453D01*
X12683393Y-14030408D01*
X12683387Y-14030419D01*
X12630939Y-14157041D01*
X12630939Y-14157043D01*
X12604200Y-14291467D01*
X12604200Y-14428532D01*
X12630939Y-14562956D01*
X12630939Y-14562958D01*
X12683387Y-14689580D01*
X12683393Y-14689591D01*
X12738123Y-14771498D01*
X12754732Y-14830386D01*
X12733555Y-14887789D01*
X12682682Y-14921783D01*
X12655808Y-14925500D01*
X12595610Y-14925500D01*
X12459506Y-14952572D01*
X12331295Y-15005679D01*
X12331286Y-15005683D01*
X12215907Y-15082779D01*
X12215897Y-15082787D01*
X12121276Y-15177407D01*
X12121269Y-15177416D01*
X12117779Y-15180907D01*
X12048576Y-15284477D01*
X12048398Y-15284739D01*
X12040683Y-15296287D01*
X12040679Y-15296295D01*
X11987572Y-15424506D01*
X11960500Y-15560610D01*
X11960500Y-15605709D01*
X11947237Y-15655206D01*
X11883288Y-15765971D01*
X11845500Y-15906999D01*
X11845500Y-16053001D01*
X11883288Y-16194029D01*
X11956289Y-16320471D01*
X12059529Y-16423711D01*
X12185971Y-16496712D01*
X12326999Y-16534500D01*
X12327001Y-16534500D01*
X12472999Y-16534500D01*
X12473001Y-16534500D01*
X12614029Y-16496712D01*
X12740471Y-16423711D01*
X12833239Y-16330942D01*
X12866680Y-16310929D01*
X12866001Y-16309288D01*
X12870492Y-16307427D01*
X12870495Y-16307427D01*
X12998706Y-16254320D01*
X12998709Y-16254317D01*
X12998713Y-16254316D01*
X13032028Y-16232054D01*
X13114093Y-16177221D01*
X13212221Y-16079093D01*
X13217685Y-16070915D01*
X13265732Y-16033036D01*
X13326870Y-16030632D01*
X13370004Y-16055913D01*
X13376895Y-16062804D01*
X13387779Y-16079093D01*
X13485907Y-16177221D01*
X13502192Y-16188102D01*
X13509087Y-16194997D01*
X13518765Y-16213992D01*
X13531964Y-16230735D01*
X13532353Y-16240661D01*
X13536864Y-16249513D01*
X13533528Y-16270568D01*
X13534366Y-16291874D01*
X13528845Y-16300135D01*
X13527292Y-16309945D01*
X13512217Y-16325019D01*
X13500372Y-16342747D01*
X13494091Y-16347310D01*
X13493184Y-16347917D01*
X13485907Y-16352778D01*
X13387782Y-16450903D01*
X13387779Y-16450907D01*
X13310683Y-16566286D01*
X13310679Y-16566295D01*
X13257572Y-16694506D01*
X13230500Y-16830610D01*
X13230500Y-16969389D01*
X13257572Y-17105493D01*
X13310679Y-17233704D01*
X13310683Y-17233713D01*
X13365815Y-17316222D01*
X13387779Y-17349093D01*
X13485907Y-17447221D01*
X13494085Y-17452685D01*
X13531964Y-17500735D01*
X13534366Y-17561874D01*
X13509087Y-17605004D01*
X13502195Y-17611895D01*
X13485907Y-17622779D01*
X13387779Y-17720907D01*
X13376895Y-17737195D01*
X13370004Y-17744087D01*
X13351005Y-17753766D01*
X13334265Y-17766964D01*
X13324338Y-17767353D01*
X13315487Y-17771864D01*
X13294429Y-17768529D01*
X13273126Y-17769366D01*
X13264866Y-17763846D01*
X13255055Y-17762293D01*
X13239978Y-17747216D01*
X13222253Y-17735372D01*
X13217685Y-17729085D01*
X13212221Y-17720907D01*
X13114096Y-17622782D01*
X13114093Y-17622779D01*
X13081222Y-17600815D01*
X12998713Y-17545683D01*
X12998704Y-17545679D01*
X12870493Y-17492572D01*
X12734389Y-17465500D01*
X12734387Y-17465500D01*
X12595613Y-17465500D01*
X12595610Y-17465500D01*
X12459506Y-17492572D01*
X12331295Y-17545679D01*
X12331283Y-17545685D01*
X12301950Y-17565285D01*
X12243062Y-17581893D01*
X12185658Y-17560714D01*
X12151666Y-17509840D01*
X12147950Y-17482969D01*
X12147950Y-17425762D01*
X12125166Y-17281914D01*
X12113774Y-17209988D01*
X12046264Y-17002212D01*
X11947081Y-16807556D01*
X11818669Y-16630811D01*
X11664189Y-16476331D01*
X11487444Y-16347919D01*
X11487443Y-16347918D01*
X11487441Y-16347917D01*
X11335635Y-16270568D01*
X11292788Y-16248736D01*
X11292784Y-16248735D01*
X11292781Y-16248733D01*
X11085009Y-16181225D01*
X10869237Y-16147050D01*
X10869234Y-16147050D01*
X10650766Y-16147050D01*
X10650763Y-16147050D01*
X10434990Y-16181225D01*
X10227218Y-16248733D01*
X10032558Y-16347917D01*
X9944183Y-16412125D01*
X9855811Y-16476331D01*
X9701331Y-16630811D01*
X9680861Y-16658986D01*
X9572917Y-16807558D01*
X9473733Y-17002218D01*
X9406225Y-17209990D01*
X9372050Y-17425762D01*
X9372050Y-17644237D01*
X9406225Y-17860009D01*
X9473733Y-18067781D01*
X9473735Y-18067784D01*
X9473736Y-18067788D01*
X9527877Y-18174045D01*
X9561170Y-18239387D01*
X9572919Y-18262444D01*
X9701331Y-18439189D01*
X9855811Y-18593669D01*
X10032556Y-18722081D01*
X10227212Y-18821264D01*
X10434988Y-18888774D01*
X10502943Y-18899537D01*
X10650763Y-18922950D01*
X10650766Y-18922950D01*
X10869237Y-18922950D01*
X10977123Y-18905862D01*
X11085012Y-18888774D01*
X11292788Y-18821264D01*
X11487444Y-18722081D01*
X11664189Y-18593669D01*
X11818669Y-18439189D01*
X11839140Y-18411012D01*
X11888635Y-18375049D01*
X11949821Y-18375047D01*
X11999322Y-18411010D01*
X12010695Y-18431317D01*
X12040679Y-18503704D01*
X12040683Y-18503713D01*
X12120481Y-18623136D01*
X12119184Y-18624002D01*
X12139080Y-18674882D01*
X12123613Y-18734080D01*
X12078136Y-18772143D01*
X11954416Y-18823389D01*
X11954408Y-18823393D01*
X11840453Y-18899537D01*
X11840449Y-18899540D01*
X11743540Y-18996449D01*
X11743537Y-18996453D01*
X11667393Y-19110408D01*
X11667387Y-19110419D01*
X11614939Y-19237041D01*
X11614939Y-19237043D01*
X11588200Y-19371467D01*
X11588200Y-19508532D01*
X11614939Y-19642956D01*
X11614939Y-19642958D01*
X11667387Y-19769580D01*
X11667393Y-19769591D01*
X11713202Y-19838148D01*
X11743537Y-19883547D01*
X11840453Y-19980463D01*
X11908394Y-20025860D01*
X11954408Y-20056606D01*
X11954419Y-20056612D01*
X12001193Y-20075986D01*
X12081043Y-20109061D01*
X12215470Y-20135800D01*
X12215471Y-20135800D01*
X12352529Y-20135800D01*
X12352530Y-20135800D01*
X12486957Y-20109061D01*
X12613585Y-20056610D01*
X12727547Y-19980463D01*
X12824463Y-19883547D01*
X12900610Y-19769585D01*
X12953061Y-19642957D01*
X12979800Y-19508530D01*
X12979800Y-19371470D01*
X12953061Y-19237043D01*
X12900610Y-19110415D01*
X12900606Y-19110407D01*
X12823470Y-18994967D01*
X12806861Y-18936079D01*
X12828038Y-18878675D01*
X12867900Y-18848501D01*
X12870490Y-18847427D01*
X12870495Y-18847427D01*
X12998706Y-18794320D01*
X12998708Y-18794318D01*
X12998713Y-18794316D01*
X13033698Y-18770939D01*
X13114093Y-18717221D01*
X13212221Y-18619093D01*
X13217685Y-18610915D01*
X13265732Y-18573036D01*
X13326870Y-18570632D01*
X13377745Y-18604624D01*
X13382304Y-18610899D01*
X13387779Y-18619093D01*
X13485907Y-18717221D01*
X13526284Y-18744200D01*
X13601286Y-18794316D01*
X13601298Y-18794322D01*
X13656134Y-18817035D01*
X13729505Y-18847427D01*
X13729507Y-18847427D01*
X13732099Y-18848501D01*
X13778625Y-18888237D01*
X13792909Y-18947732D01*
X13776529Y-18994966D01*
X13699396Y-19110402D01*
X13699387Y-19110419D01*
X13646939Y-19237041D01*
X13646939Y-19237043D01*
X13620200Y-19371467D01*
X13620200Y-19508532D01*
X13646939Y-19642956D01*
X13646939Y-19642958D01*
X13699387Y-19769580D01*
X13699393Y-19769591D01*
X13745202Y-19838148D01*
X13775537Y-19883547D01*
X13872453Y-19980463D01*
X13940394Y-20025860D01*
X13986408Y-20056606D01*
X13986419Y-20056612D01*
X14033193Y-20075986D01*
X14113043Y-20109061D01*
X14247470Y-20135800D01*
X14247471Y-20135800D01*
X14384529Y-20135800D01*
X14384530Y-20135800D01*
X14518957Y-20109061D01*
X14645585Y-20056610D01*
X14759547Y-19980463D01*
X14856463Y-19883547D01*
X14932610Y-19769585D01*
X14985061Y-19642957D01*
X15011800Y-19508530D01*
X15011800Y-19371470D01*
X14985061Y-19237043D01*
X14932610Y-19110415D01*
X14932609Y-19110413D01*
X14932606Y-19110408D01*
X14901860Y-19064394D01*
X14856463Y-18996453D01*
X14759547Y-18899537D01*
X14714148Y-18869202D01*
X14645591Y-18823393D01*
X14645580Y-18823387D01*
X14521864Y-18772143D01*
X14475338Y-18732407D01*
X14461054Y-18672912D01*
X14480764Y-18623968D01*
X14479519Y-18623136D01*
X14482219Y-18619094D01*
X14482221Y-18619093D01*
X14515575Y-18569174D01*
X14559316Y-18503713D01*
X14559321Y-18503704D01*
X14589304Y-18431317D01*
X14629040Y-18384792D01*
X14688535Y-18370508D01*
X14745063Y-18393922D01*
X14760856Y-18411008D01*
X14781331Y-18439189D01*
X14935811Y-18593669D01*
X15112556Y-18722081D01*
X15307212Y-18821264D01*
X15514988Y-18888774D01*
X15582943Y-18899537D01*
X15730763Y-18922950D01*
X15730766Y-18922950D01*
X15949237Y-18922950D01*
X16057123Y-18905862D01*
X16165012Y-18888774D01*
X16372788Y-18821264D01*
X16567444Y-18722081D01*
X16744189Y-18593669D01*
X16898669Y-18439189D01*
X17027081Y-18262444D01*
X17126264Y-18067788D01*
X17193774Y-17860012D01*
X17227950Y-17644234D01*
X17227950Y-17425766D01*
X17227950Y-17425762D01*
X17205166Y-17281914D01*
X17193774Y-17209988D01*
X17126264Y-17002212D01*
X17027081Y-16807556D01*
X16898669Y-16630811D01*
X16744189Y-16476331D01*
X16567444Y-16347919D01*
X16567443Y-16347918D01*
X16567441Y-16347917D01*
X16415635Y-16270568D01*
X16372788Y-16248736D01*
X16372784Y-16248735D01*
X16372781Y-16248733D01*
X16165009Y-16181225D01*
X15949237Y-16147050D01*
X15949234Y-16147050D01*
X15730766Y-16147050D01*
X15730763Y-16147050D01*
X15514990Y-16181225D01*
X15307218Y-16248733D01*
X15112558Y-16347917D01*
X15024183Y-16412125D01*
X14935811Y-16476331D01*
X14935809Y-16476333D01*
X14781328Y-16630814D01*
X14760860Y-16658987D01*
X14711360Y-16694951D01*
X14650175Y-16694950D01*
X14600675Y-16658986D01*
X14589304Y-16638682D01*
X14559320Y-16566295D01*
X14559316Y-16566286D01*
X14499210Y-16476333D01*
X14482221Y-16450907D01*
X14384093Y-16352779D01*
X14375915Y-16347314D01*
X14338036Y-16299268D01*
X14335632Y-16238130D01*
X14369624Y-16187255D01*
X14375899Y-16182695D01*
X14384093Y-16177221D01*
X14482221Y-16079093D01*
X14537054Y-15997028D01*
X14559316Y-15963713D01*
X14559317Y-15963709D01*
X14559320Y-15963706D01*
X14612427Y-15835495D01*
X14639500Y-15699387D01*
X14639500Y-15560613D01*
X14612427Y-15424505D01*
X14559320Y-15296294D01*
X14559318Y-15296292D01*
X14559316Y-15296286D01*
X14551425Y-15284477D01*
X14534816Y-15225588D01*
X14555994Y-15168185D01*
X14606867Y-15134192D01*
X14668006Y-15136594D01*
X14713830Y-15171282D01*
X14781331Y-15264189D01*
X14935811Y-15418669D01*
X15112556Y-15547081D01*
X15307212Y-15646264D01*
X15514988Y-15713774D01*
X15601299Y-15727444D01*
X15730763Y-15747950D01*
X15730766Y-15747950D01*
X15949237Y-15747950D01*
X16057123Y-15730862D01*
X16165012Y-15713774D01*
X16372788Y-15646264D01*
X16567444Y-15547081D01*
X16744189Y-15418669D01*
X16898669Y-15264189D01*
X17027081Y-15087444D01*
X17126264Y-14892788D01*
X17193774Y-14685012D01*
X17227950Y-14469234D01*
X17227950Y-14250766D01*
X17227950Y-14250762D01*
X17193774Y-14034990D01*
X17193774Y-14034988D01*
X17126264Y-13827212D01*
X17027081Y-13632556D01*
X16898669Y-13455811D01*
X16744189Y-13301331D01*
X16567444Y-13172919D01*
X16567443Y-13172918D01*
X16567441Y-13172917D01*
X16479045Y-13127877D01*
X16372788Y-13073736D01*
X16372784Y-13073735D01*
X16372781Y-13073733D01*
X16165009Y-13006225D01*
X15949237Y-12972050D01*
X15949234Y-12972050D01*
X15730766Y-12972050D01*
X15730763Y-12972050D01*
X15514990Y-13006225D01*
X15307218Y-13073733D01*
X15112558Y-13172917D01*
X15024183Y-13237125D01*
X14935811Y-13301331D01*
X14935809Y-13301333D01*
X14781328Y-13455814D01*
X14708592Y-13555927D01*
X14659092Y-13591891D01*
X14597907Y-13591890D01*
X14548407Y-13555926D01*
X14529500Y-13497736D01*
X14529500Y-8003500D01*
X14548407Y-7945309D01*
X14597907Y-7909345D01*
X14628500Y-7904500D01*
X18586241Y-7904500D01*
X18586254Y-7904500D01*
X18634703Y-7901614D01*
X18845482Y-7855762D01*
X19043774Y-7770848D01*
X19222413Y-7649942D01*
X19374942Y-7497413D01*
X19495848Y-7318774D01*
X19580762Y-7120482D01*
X19626614Y-6909703D01*
X19629500Y-6861254D01*
X19629500Y-6503500D01*
X19648407Y-6445309D01*
X19697907Y-6409345D01*
X19728500Y-6404500D01*
X28149496Y-6404500D01*
X28207687Y-6423407D01*
X28235232Y-6454000D01*
X28246148Y-6472907D01*
X28256289Y-6490471D01*
X28359529Y-6593711D01*
X28485971Y-6666712D01*
X28626999Y-6704500D01*
X28627001Y-6704500D01*
X28773000Y-6704500D01*
X28773001Y-6704500D01*
X28850377Y-6683767D01*
X28911478Y-6686968D01*
X28959028Y-6725473D01*
X28975000Y-6779393D01*
X28975000Y-6857086D01*
X28977747Y-6903205D01*
X28977748Y-6903214D01*
X29021384Y-7103804D01*
X29021387Y-7103811D01*
X29102202Y-7292534D01*
X29217276Y-7462554D01*
X29362445Y-7607723D01*
X29532465Y-7722797D01*
X29721188Y-7803612D01*
X29721195Y-7803615D01*
X29921785Y-7847251D01*
X29921794Y-7847252D01*
X29967913Y-7849999D01*
X29967923Y-7850000D01*
X35174999Y-7850000D01*
X35175000Y-7849999D01*
X35175000Y-6025001D01*
X35425000Y-6025001D01*
X35425000Y-7849999D01*
X35425001Y-7850000D01*
X40632077Y-7850000D01*
X40632086Y-7849999D01*
X40678205Y-7847252D01*
X40678214Y-7847251D01*
X40878804Y-7803615D01*
X40878811Y-7803612D01*
X41067534Y-7722797D01*
X41237554Y-7607723D01*
X41382723Y-7462554D01*
X41497797Y-7292534D01*
X41578612Y-7103811D01*
X41578615Y-7103804D01*
X41622251Y-6903214D01*
X41622252Y-6903205D01*
X41624999Y-6857086D01*
X41625000Y-6857077D01*
X41625000Y-6025001D01*
X41624999Y-6025000D01*
X35425001Y-6025000D01*
X35425000Y-6025001D01*
X35175000Y-6025001D01*
X35175000Y-3950001D01*
X35425000Y-3950001D01*
X35425000Y-5774999D01*
X35425001Y-5775000D01*
X41624999Y-5775000D01*
X41625000Y-5774999D01*
X41625000Y-4942923D01*
X41624999Y-4942913D01*
X41622252Y-4896794D01*
X41622251Y-4896785D01*
X41578615Y-4696195D01*
X41578612Y-4696188D01*
X41497797Y-4507465D01*
X41382723Y-4337445D01*
X41237554Y-4192276D01*
X41067534Y-4077202D01*
X40878811Y-3996387D01*
X40878804Y-3996384D01*
X40678214Y-3952748D01*
X40678205Y-3952747D01*
X40632086Y-3950000D01*
X35425001Y-3950000D01*
X35425000Y-3950001D01*
X35175000Y-3950001D01*
X35174999Y-3950000D01*
X29967913Y-3950000D01*
X29921794Y-3952747D01*
X29921785Y-3952748D01*
X29721195Y-3996384D01*
X29721188Y-3996387D01*
X29532465Y-4077202D01*
X29362445Y-4192276D01*
X29217276Y-4337445D01*
X29102202Y-4507465D01*
X29021387Y-4696188D01*
X29021384Y-4696195D01*
X28977748Y-4896785D01*
X28977747Y-4896794D01*
X28975000Y-4942913D01*
X28975000Y-5322370D01*
X28956093Y-5380561D01*
X28906593Y-5416525D01*
X28850378Y-5417996D01*
X28766419Y-5395500D01*
X28766417Y-5395500D01*
X19728500Y-5395500D01*
X19670309Y-5376593D01*
X19634345Y-5327093D01*
X19629500Y-5296500D01*
X19629500Y-4938759D01*
X19629500Y-4938746D01*
X19626614Y-4890297D01*
X19580762Y-4679518D01*
X19495848Y-4481226D01*
X19398535Y-4337445D01*
X19374946Y-4302592D01*
X19374944Y-4302590D01*
X19374942Y-4302587D01*
X19222413Y-4150058D01*
X19222409Y-4150055D01*
X19222407Y-4150053D01*
X19043777Y-4029154D01*
X19043776Y-4029153D01*
X19043774Y-4029152D01*
X18865355Y-3952748D01*
X18845483Y-3944238D01*
X18740092Y-3921312D01*
X18634703Y-3898386D01*
X18586254Y-3895500D01*
X12413746Y-3895500D01*
X12365297Y-3898386D01*
X12154516Y-3944238D01*
X11956228Y-4029151D01*
X11956222Y-4029154D01*
X11777592Y-4150053D01*
X11625053Y-4302592D01*
X11504154Y-4481222D01*
X11504151Y-4481228D01*
X11419238Y-4679516D01*
X11373386Y-4890297D01*
X11370500Y-4938749D01*
X11370500Y-5296500D01*
X11351593Y-5354691D01*
X11302093Y-5390655D01*
X11271500Y-5395500D01*
X4733581Y-5395500D01*
X4605270Y-5429881D01*
X4563162Y-5454191D01*
X4563160Y-5454191D01*
X4490234Y-5496295D01*
X2696294Y-7290235D01*
X2663915Y-7346321D01*
X2663914Y-7346324D01*
X2629882Y-7405267D01*
X2595500Y-7533582D01*
X2595500Y-27276099D01*
X2576593Y-27334290D01*
X2527093Y-27370254D01*
X2470878Y-27371725D01*
X2373001Y-27345500D01*
X2226999Y-27345500D01*
X2085971Y-27383288D01*
X1959529Y-27456289D01*
X1856289Y-27559529D01*
X1783288Y-27685971D01*
X1745500Y-27826999D01*
X500500Y-27826999D01*
X500500Y-3011696D01*
X500574Y-3007881D01*
X506004Y-2868912D01*
X1000000Y-2868912D01*
X1000000Y-3131087D01*
X1034220Y-3391010D01*
X1034220Y-3391015D01*
X1102075Y-3644255D01*
X1102078Y-3644262D01*
X1202403Y-3886470D01*
X1333495Y-4113527D01*
X1493091Y-4321517D01*
X1497398Y-4325824D01*
X2138097Y-3685124D01*
X2160967Y-3716602D01*
X2283398Y-3839033D01*
X2314874Y-3861901D01*
X1674175Y-4502601D01*
X1678482Y-4506908D01*
X1886472Y-4666504D01*
X2113529Y-4797596D01*
X2355737Y-4897921D01*
X2355744Y-4897924D01*
X2608986Y-4965779D01*
X2868912Y-4999999D01*
X2868914Y-5000000D01*
X3131086Y-5000000D01*
X3131087Y-4999999D01*
X3391010Y-4965779D01*
X3391015Y-4965779D01*
X3644255Y-4897924D01*
X3644262Y-4897921D01*
X3886470Y-4797596D01*
X4113527Y-4666504D01*
X4321511Y-4506913D01*
X4321524Y-4506901D01*
X4325824Y-4502600D01*
X3685125Y-3861901D01*
X3716602Y-3839033D01*
X3839033Y-3716602D01*
X3861901Y-3685125D01*
X4502600Y-4325824D01*
X4506901Y-4321524D01*
X4506913Y-4321511D01*
X4666504Y-4113527D01*
X4797596Y-3886470D01*
X4897921Y-3644262D01*
X4897924Y-3644255D01*
X4965779Y-3391015D01*
X4965779Y-3391010D01*
X4999999Y-3131087D01*
X5000000Y-3131086D01*
X5000000Y-2868914D01*
X4999999Y-2868912D01*
X45800000Y-2868912D01*
X45800000Y-3131087D01*
X45834220Y-3391010D01*
X45834220Y-3391015D01*
X45902075Y-3644255D01*
X45902078Y-3644262D01*
X46002403Y-3886470D01*
X46133495Y-4113527D01*
X46293091Y-4321517D01*
X46297398Y-4325824D01*
X46938097Y-3685124D01*
X46960967Y-3716602D01*
X47083398Y-3839033D01*
X47114874Y-3861901D01*
X46474175Y-4502601D01*
X46478482Y-4506908D01*
X46686472Y-4666504D01*
X46913529Y-4797596D01*
X47155737Y-4897921D01*
X47155744Y-4897924D01*
X47408986Y-4965779D01*
X47668912Y-4999999D01*
X47668914Y-5000000D01*
X47931086Y-5000000D01*
X47931087Y-4999999D01*
X48191010Y-4965779D01*
X48191015Y-4965779D01*
X48444255Y-4897924D01*
X48444262Y-4897921D01*
X48686470Y-4797596D01*
X48913527Y-4666504D01*
X49121511Y-4506913D01*
X49121524Y-4506901D01*
X49125824Y-4502600D01*
X48485125Y-3861901D01*
X48516602Y-3839033D01*
X48639033Y-3716602D01*
X48661901Y-3685125D01*
X49302600Y-4325824D01*
X49306901Y-4321524D01*
X49306913Y-4321511D01*
X49466504Y-4113527D01*
X49597596Y-3886470D01*
X49697921Y-3644262D01*
X49697924Y-3644255D01*
X49765779Y-3391015D01*
X49765779Y-3391010D01*
X49799999Y-3131087D01*
X49800000Y-3131086D01*
X49800000Y-2868914D01*
X49799999Y-2868912D01*
X49765779Y-2608989D01*
X49765779Y-2608984D01*
X49697924Y-2355744D01*
X49697921Y-2355737D01*
X49597596Y-2113529D01*
X49466504Y-1886472D01*
X49306908Y-1678482D01*
X49302601Y-1674175D01*
X48661901Y-2314874D01*
X48639033Y-2283398D01*
X48516602Y-2160967D01*
X48485124Y-2138097D01*
X49125824Y-1497398D01*
X49121517Y-1493091D01*
X48913527Y-1333495D01*
X48686470Y-1202403D01*
X48444262Y-1102078D01*
X48444255Y-1102075D01*
X48191013Y-1034220D01*
X47931087Y-1000000D01*
X47668912Y-1000000D01*
X47408989Y-1034220D01*
X47408984Y-1034220D01*
X47155744Y-1102075D01*
X47155737Y-1102078D01*
X46913529Y-1202403D01*
X46686472Y-1333495D01*
X46478481Y-1493091D01*
X46474174Y-1497397D01*
X47114874Y-2138097D01*
X47083398Y-2160967D01*
X46960967Y-2283398D01*
X46938097Y-2314874D01*
X46297397Y-1674174D01*
X46293091Y-1678481D01*
X46133495Y-1886472D01*
X46002403Y-2113529D01*
X45902078Y-2355737D01*
X45902075Y-2355744D01*
X45834220Y-2608984D01*
X45834220Y-2608989D01*
X45800000Y-2868912D01*
X4999999Y-2868912D01*
X4965779Y-2608989D01*
X4965779Y-2608984D01*
X4897924Y-2355744D01*
X4897921Y-2355737D01*
X4797596Y-2113529D01*
X4666504Y-1886472D01*
X4506908Y-1678482D01*
X4502601Y-1674175D01*
X3861901Y-2314874D01*
X3839033Y-2283398D01*
X3716602Y-2160967D01*
X3685124Y-2138097D01*
X4325824Y-1497398D01*
X4321517Y-1493091D01*
X4113527Y-1333495D01*
X3886470Y-1202403D01*
X3644262Y-1102078D01*
X3644255Y-1102075D01*
X3391013Y-1034220D01*
X3131087Y-1000000D01*
X2868912Y-1000000D01*
X2608989Y-1034220D01*
X2608984Y-1034220D01*
X2355744Y-1102075D01*
X2355737Y-1102078D01*
X2113529Y-1202403D01*
X1886472Y-1333495D01*
X1678481Y-1493091D01*
X1674174Y-1497397D01*
X2314874Y-2138097D01*
X2283398Y-2160967D01*
X2160967Y-2283398D01*
X2138097Y-2314874D01*
X1497397Y-1674174D01*
X1493091Y-1678481D01*
X1333495Y-1886472D01*
X1202403Y-2113529D01*
X1102078Y-2355737D01*
X1102075Y-2355744D01*
X1034220Y-2608984D01*
X1034220Y-2608989D01*
X1000000Y-2868912D01*
X506004Y-2868912D01*
X508394Y-2807746D01*
X509004Y-2800002D01*
X509005Y-2800001D01*
X531151Y-2612996D01*
X532369Y-2605312D01*
X553823Y-2497576D01*
X569193Y-2420389D01*
X570996Y-2412884D01*
X622116Y-2231446D01*
X624524Y-2224028D01*
X689795Y-2047253D01*
X692750Y-2040124D01*
X771673Y-1868909D01*
X775182Y-1862024D01*
X867326Y-1697510D01*
X871338Y-1690960D01*
X975946Y-1534289D01*
X980540Y-1527967D01*
X1097213Y-1380105D01*
X1102228Y-1374236D01*
X1121566Y-1353314D01*
X1230256Y-1235720D01*
X1235720Y-1230256D01*
X1374238Y-1102225D01*
X1380092Y-1097223D01*
X1527983Y-980527D01*
X1534289Y-975946D01*
X1690960Y-871338D01*
X1697510Y-867326D01*
X1862019Y-775185D01*
X1868904Y-771676D01*
X2040144Y-692741D01*
X2047257Y-689795D01*
X2224027Y-624525D01*
X2231427Y-622120D01*
X2375073Y-581648D01*
X2412888Y-570995D01*
X2420400Y-569191D01*
X2487269Y-555875D01*
X2605306Y-532369D01*
X2612993Y-531151D01*
X2800009Y-509003D01*
X2807745Y-508394D01*
X2995680Y-501050D01*
X3007858Y-500575D01*
X3011723Y-500500D01*
X47788303Y-500500D01*
X47792118Y-500574D01*
G37*
%TD.AperFunction*%
%TD*%
M02*
