M48
; DRILL file KiCad 10.0.4-10.0.4~ubuntu25.10.1 date 2026-07-05T13:18:05
; FORMAT={-:-/ absolute / metric / decimal}
; #@! TF.CreationDate,2026-07-05T13:18:05+00:00
; #@! TF.GenerationSoftware,Kicad,Pcbnew,10.0.4-10.0.4~ubuntu25.10.1
; #@! TF.FileFunction,Plated,1,2,PTH
FMAT,2
METRIC
; #@! TA.AperFunction,Plated,PTH,ViaDrill
T1C0.300
; #@! TA.AperFunction,Plated,PTH,ComponentDrill
T2C2.200
%
G90
G05
T1
X2.3Y-27.9
X3.4Y-40.72
X3.88Y-30.6
X4.3Y-71.9
X4.45Y-33.08
X5.25Y-38.945
X5.65Y-34.24
X6.0Y-35.96
X6.771Y-41.35
X6.923Y-37.291
X7.395Y-44.095
X7.4Y-15.6
X7.4Y-71.9
X7.54Y-45.62
X7.7Y-39.5
X7.723Y-37.315
X7.921Y-38.669
X8.232Y-37.932
X8.355Y-46.455
X8.425Y-33.58
X8.456Y-27.9
X8.575Y-43.73
X9.4Y-38.025
X9.91Y-30.55
X10.05Y-43.75
X10.575Y-33.695
X10.75Y-36.81
X11.007Y-32.182
X11.75Y-45.65
X11.9Y-47.15
X12.206Y-34.711
X12.539Y-44.061
X13.211Y-16.123
X13.64Y-44.06
X13.78Y-41.02
X14.001Y-48.741
X15.52Y-33.847
X16.125Y-38.005
X16.3Y-32.05
X16.405Y-35.875
X16.704Y-33.556
X16.761Y-47.524
X17.243Y-34.984
X17.986Y-34.287
X19.438Y-36.9
X19.595Y-33.074
X20.155Y-33.623
X20.185Y-47.503
X20.415Y-36.9
X20.845Y-34.142
X21.175Y-47.51
X21.37Y-34.78
X22.256Y-48.176
X24.13Y-47.697
X25.675Y-48.36
X26.898Y-49.146
X27.475Y-47.535
X28.7Y-6.15
X29.524Y-48.19
X29.972Y-32.004
X30.1Y-35.55
X31.039Y-35.816
X31.4Y-29.25
X32.47Y-48.32
X32.524Y-36.656
X33.125Y-36.25
X33.325Y-47.65
X33.354Y-33.279
X33.4Y-30.78
X34.034Y-33.702
X34.232Y-35.423
X35.05Y-37.23
X35.733Y-47.69
X36.45Y-48.23
X36.6Y-34.6
X42.9Y-38.0
X44.0Y-68.0
X44.75Y-63.0
X45.5Y-25.0
X46.15Y-13.35
X46.5Y-68.0
X46.672Y-64.0
X47.41Y-69.9
X48.4Y-19.62
X48.4Y-22.16
X48.5Y-63.75
X48.75Y-66.75
T2
X3.0Y-3.0
X3.0Y-85.9
X47.8Y-3.0
X47.8Y-85.9
M30
