%TF.GenerationSoftware,KiCad,Pcbnew,10.0.4-10.0.4~ubuntu25.10.1*%
%TF.CreationDate,Date%
%TF.ProjectId,solar-glow-drh-v4_0,736f6c61-722d-4676-9c6f-772d6472682d,rev?*%
%TF.SameCoordinates,Original*%
%TF.FileFunction,Legend,Bot*%
%TF.FilePolarity,Positive*%
%FSLAX46Y46*%
G04 Gerber Fmt 4.6, Leading zero omitted, Abs format (unit mm)*
G04 Created by KiCad*
%MOMM*%
%LPD*%
G01*
G04 APERTURE LIST*
%ADD10C,0.150000*%
%ADD11C,0.120000*%
%ADD12C,0.240000*%
%ADD13C,0.260391*%
G04 APERTURE END LIST*
D10*
X28861904Y-36254819D02*
X28861904Y-37064342D01*
X28861904Y-37064342D02*
X28814285Y-37159580D01*
X28814285Y-37159580D02*
X28766666Y-37207200D01*
X28766666Y-37207200D02*
X28671428Y-37254819D01*
X28671428Y-37254819D02*
X28480952Y-37254819D01*
X28480952Y-37254819D02*
X28385714Y-37207200D01*
X28385714Y-37207200D02*
X28338095Y-37159580D01*
X28338095Y-37159580D02*
X28290476Y-37064342D01*
X28290476Y-37064342D02*
X28290476Y-36254819D01*
X27909523Y-36254819D02*
X27242857Y-36254819D01*
X27242857Y-36254819D02*
X27671428Y-37254819D01*
%TO.C,SC1*%
D11*
X9500000Y-250000D02*
X9500000Y-1250000D01*
X10000000Y-750000D02*
X9000000Y-750000D01*
%TO.C,U6*%
X3001214Y-5754658D02*
X3001214Y-5804658D01*
X3001214Y-8824658D02*
X3001214Y-8874658D01*
X3001214Y-8874658D02*
X4821214Y-8874658D01*
X4821214Y-5754658D02*
X3001214Y-5754658D01*
X4821214Y-5804658D02*
X4821214Y-5754658D01*
X4821214Y-8874658D02*
X4821214Y-8824658D01*
X2461214Y-8824658D02*
X2221214Y-9154658D01*
X2701214Y-9154658D01*
X2461214Y-8824658D01*
G36*
X2701214Y-9154658D02*
G01*
X2221214Y-9154658D01*
X2461214Y-8824658D01*
X2701214Y-9154658D01*
G37*
%TO.C,U8*%
D12*
X29120000Y-51800000D02*
G75*
G02*
X28880000Y-51800000I-120000J0D01*
G01*
X28880000Y-51800000D02*
G75*
G02*
X29120000Y-51800000I120000J0D01*
G01*
%TO.C,D4*%
D10*
X30525000Y-43100000D02*
X30525000Y-44700000D01*
%TO.C,U1*%
D12*
X6149600Y-41869000D02*
G75*
G02*
X5909600Y-41869000I-120000J0D01*
G01*
X5909600Y-41869000D02*
G75*
G02*
X6149600Y-41869000I120000J0D01*
G01*
%TO.C,U7*%
D11*
X26040000Y-34740000D02*
X26040000Y-34835000D01*
X26040000Y-39765000D02*
X26040000Y-39860000D01*
X26040000Y-39860000D02*
X30160000Y-39860000D01*
X30160000Y-34740000D02*
X26040000Y-34740000D01*
X30160000Y-34835000D02*
X30160000Y-34740000D01*
X30160000Y-39860000D02*
X30160000Y-39765000D01*
X25500000Y-39770000D02*
X25260000Y-40100000D01*
X25740000Y-40100000D01*
X25500000Y-39770000D01*
G36*
X25740000Y-40100000D02*
G01*
X25260000Y-40100000D01*
X25500000Y-39770000D01*
X25740000Y-40100000D01*
G37*
%TO.C,J1*%
D12*
X5770000Y-34660000D02*
G75*
G02*
X5530000Y-34660000I-120000J0D01*
G01*
X5530000Y-34660000D02*
G75*
G02*
X5770000Y-34660000I120000J0D01*
G01*
%TO.C,D5*%
D10*
X36525000Y-43100000D02*
X36525000Y-44700000D01*
%TO.C,C25*%
D11*
X24640000Y-55140580D02*
X24640000Y-54859420D01*
X25660000Y-55140580D02*
X25660000Y-54859420D01*
%TO.C,U5*%
D12*
X34472000Y-33300000D02*
G75*
G02*
X34232000Y-33300000I-120000J0D01*
G01*
X34232000Y-33300000D02*
G75*
G02*
X34472000Y-33300000I120000J0D01*
G01*
%TO.C,C4*%
D11*
X4540000Y-10459420D02*
X4540000Y-10740580D01*
X5560000Y-10459420D02*
X5560000Y-10740580D01*
%TO.C,SC3*%
X21146400Y-83480300D02*
X22146400Y-83480300D01*
X21646400Y-83980300D02*
X21646400Y-82980300D01*
%TO.C,U9*%
X3140002Y-55070000D02*
X2845456Y-55400000D01*
X3434546Y-55400000D01*
X3140002Y-55070000D01*
G36*
X3434546Y-55400000D02*
G01*
X2845456Y-55400000D01*
X3140002Y-55070000D01*
X3434546Y-55400000D01*
G37*
%TO.C,C27*%
X5640000Y-55809420D02*
X5640000Y-56090580D01*
X6660000Y-55809420D02*
X6660000Y-56090580D01*
%TO.C,TC1*%
D12*
X12135000Y-14980000D02*
G75*
G02*
X11895000Y-14980000I-120000J0D01*
G01*
X11895000Y-14980000D02*
G75*
G02*
X12135000Y-14980000I120000J0D01*
G01*
%TO.C,D3*%
D10*
X24225000Y-43100000D02*
X24225000Y-44700000D01*
%TO.C,L2*%
D11*
X27588748Y-55790000D02*
X28111252Y-55790000D01*
X27588748Y-58010000D02*
X28111252Y-58010000D01*
%TO.C,D2*%
D10*
X17925000Y-43100000D02*
X17925000Y-44700000D01*
%TO.C,U3*%
D12*
X27069000Y-31575000D02*
G75*
G02*
X26829000Y-31575000I-120000J0D01*
G01*
X26829000Y-31575000D02*
G75*
G02*
X27069000Y-31575000I120000J0D01*
G01*
%TO.C,C28*%
D11*
X32922164Y-39140000D02*
X33137836Y-39140000D01*
X32922164Y-39860000D02*
X33137836Y-39860000D01*
%TO.C,SC4*%
D13*
X35650000Y-65665103D02*
X35650000Y-67834897D01*
X36734897Y-66750000D02*
X34565103Y-66750000D01*
%TO.C,SC2*%
D11*
X40800000Y-32400000D02*
X41800000Y-32400000D01*
X41300000Y-32900000D02*
X41300000Y-31900000D01*
%TD*%
M02*
