M48
; DRILL file KiCad 10.0.4-10.0.4~ubuntu25.10.1 date 2026-07-19T02:20:40
; FORMAT={-:-/ absolute / metric / decimal}
; #@! TF.CreationDate,2026-07-19T02:20:40+00:00
; #@! TF.GenerationSoftware,Kicad,Pcbnew,10.0.4-10.0.4~ubuntu25.10.1
; #@! TF.FileFunction,Plated,1,2,PTH
FMAT,2
METRIC
; #@! TA.AperFunction,Plated,PTH,ViaDrill
T1C0.300
; #@! TA.AperFunction,Plated,PTH,ComponentDrill
T2C2.200
%
G90
G05
T1
X2.883Y-50.918
X3.476Y-40.72
X4.0Y-31.0
X4.15Y-57.725
X4.2Y-43.4
X4.463Y-50.041
X4.753Y-46.456
X5.364Y-47.448
X5.392Y-44.6
X5.444Y-33.875
X5.802Y-35.827
X5.975Y-53.75
X6.0Y-38.4
X6.0Y-57.0
X6.22Y-22.5
X6.351Y-41.173
X6.403Y-42.449
X7.0Y-8.0
X7.014Y-47.632
X7.323Y-51.221
X7.343Y-46.903
X7.364Y-40.184
X7.405Y-54.685
X7.501Y-41.032
X7.63Y-25.4
X7.678Y-39.448
X7.95Y-32.0
X8.275Y-48.375
X8.313Y-50.586
X8.313Y-37.065
X8.456Y-22.5
X8.976Y-52.229
X9.228Y-47.463
X9.255Y-54.358
X9.347Y-40.237
X10.002Y-48.378
X10.91Y-21.2
X10.911Y-47.59
X11.019Y-44.087
X11.242Y-42.308
X11.252Y-39.903
X11.417Y-46.837
X11.627Y-30.293
X12.0Y-45.65
X12.201Y-41.209
X13.192Y-44.05
X13.211Y-16.123
X13.541Y-42.112
X13.832Y-48.458
X14.0Y-26.0
X15.291Y-31.709
X15.291Y-35.154
X17.0Y-26.0
X20.0Y-31.877
X20.185Y-47.503
X21.373Y-47.571
X23.0Y-36.0
X24.0Y-48.094
X25.225Y-27.4
X26.0Y-29.2
X26.165Y-48.886
X26.6Y-34.2
X27.295Y-32.451
X27.31Y-48.772
X27.83Y-47.519
X28.456Y-48.76
X28.957Y-48.196
X30.226Y-30.78
X32.004Y-32.131
X33.0Y-31.4
X33.07Y-56.9
X33.25Y-33.203
X33.325Y-47.65
X33.895Y-33.676
X34.232Y-35.423
X34.323Y-36.526
X34.544Y-56.335
X35.044Y-53.043
X35.15Y-37.33
X35.6Y-52.0
X35.733Y-47.69
X35.853Y-34.801
X36.0Y-48.77
X36.308Y-30.851
X39.6Y-61.0
X42.9Y-38.0
X44.125Y-22.303
X44.75Y-23.0
X46.16Y-22.12
X46.334Y-14.482
X46.5Y-69.5
X46.696Y-19.635
T2
X3.0Y-3.0
X3.0Y-28.5
X3.0Y-60.4
X3.0Y-85.9
X47.8Y-3.0
X47.8Y-28.5
X47.8Y-60.4
X47.8Y-85.9
M30
