M48
; DRILL file KiCad 10.0.4-10.0.4~ubuntu25.10.1 date 2026-07-02T06:37:17
; FORMAT={-:-/ absolute / metric / decimal}
; #@! TF.CreationDate,2026-07-02T06:37:17+00:00
; #@! TF.GenerationSoftware,Kicad,Pcbnew,10.0.4-10.0.4~ubuntu25.10.1
; #@! TF.FileFunction,Plated,1,2,PTH
FMAT,2
METRIC
; #@! TA.AperFunction,Plated,PTH,ViaDrill
T1C0.300
; #@! TA.AperFunction,Plated,PTH,ComponentDrill
T2C2.200
%
G90
G05
T1
X2.3Y-27.9
X3.4Y-40.72
X3.8Y-49.6
X3.8Y-51.175
X4.2Y-27.9
X4.3Y-71.9
X4.7Y-34.388
X4.85Y-27.25
X4.85Y-28.5
X5.25Y-38.945
X6.0Y-35.96
X6.7Y-42.438
X6.775Y-43.795
X6.9Y-37.295
X7.4Y-15.6
X7.4Y-71.9
X7.675Y-37.425
X7.7Y-39.5
X7.95Y-38.6
X8.3Y-37.9
X8.425Y-33.58
X8.45Y-42.0
X8.575Y-43.73
X8.9Y-44.7
X9.1Y-47.3
X9.4Y-38.025
X9.9Y-47.6
X10.05Y-43.75
X10.525Y-33.58
X10.6Y-46.45
X10.65Y-47.625
X10.75Y-36.81
X10.9Y-32.05
X11.75Y-45.65
X11.9Y-47.15
X12.125Y-34.63
X12.225Y-25.175
X12.4Y-15.98
X12.45Y-44.075
X12.85Y-30.565
X13.05Y-43.0
X13.2Y-44.55
X13.75Y-31.3
X14.975Y-51.2
X15.6Y-35.9
X16.125Y-38.005
X16.2Y-34.4
X16.3Y-32.05
X16.35Y-49.05
X17.05Y-33.1
X19.3Y-31.825
X21.175Y-47.65
X21.75Y-51.45
X23.15Y-48.8
X23.775Y-47.85
X24.9Y-51.975
X25.5Y-52.45
X25.675Y-48.5
X27.475Y-47.65
X28.7Y-6.15
X29.175Y-48.5
X30.1Y-35.55
X30.55Y-31.465
X30.85Y-36.05
X31.35Y-49.35
X31.4Y-29.25
X32.525Y-33.225
X32.55Y-36.75
X33.275Y-38.35
X33.3Y-33.225
X33.3Y-36.25
X33.325Y-47.65
X33.475Y-56.325
X33.95Y-33.65
X34.325Y-31.35
X34.375Y-35.28
X34.625Y-56.325
X35.5Y-47.55
X35.85Y-57.05
X36.275Y-30.45
X36.6Y-34.6
X42.9Y-38.0
X45.5Y-25.0
X45.5Y-63.0
X46.15Y-13.35
X47.2Y-67.2
X48.2Y-66.3
T2
X3.0Y-3.0
X3.0Y-85.9
X47.8Y-3.0
X47.8Y-85.9
M30
