%TF.GenerationSoftware,KiCad,Pcbnew,10.0.4-10.0.4~ubuntu25.10.1*%
%TF.CreationDate,Date%
%TF.ProjectId,solar-glow-drh-v3_0,736f6c61-722d-4676-9c6f-772d6472682d,rev?*%
%TF.SameCoordinates,Original*%
%TF.FileFunction,Profile,NP*%
%FSLAX46Y46*%
G04 Gerber Fmt 4.6, Leading zero omitted, Abs format (unit mm)*
G04 Created by KiCad*
%MOMM*%
%LPD*%
G01*
G04 APERTURE LIST*
%TA.AperFunction,Profile*%
%ADD10C,0.100000*%
%TD*%
G04 APERTURE END LIST*
D10*
X0Y-3000000D02*
X0Y-85900000D01*
X0Y-85900000D02*
X9200Y-86135400D01*
X9200Y-2764600D02*
X0Y-3000000D01*
X9200Y-86135400D02*
X36900Y-86369300D01*
X36900Y-2530700D02*
X9200Y-2764600D01*
X36900Y-86369300D02*
X82900Y-86600300D01*
X82900Y-2299700D02*
X36900Y-2530700D01*
X82900Y-86600300D02*
X146800Y-86827100D01*
X146800Y-2072900D02*
X82900Y-2299700D01*
X146800Y-86827100D02*
X228400Y-87048100D01*
X228400Y-1851900D02*
X146800Y-2072900D01*
X228400Y-87048100D02*
X327000Y-87262000D01*
X327000Y-1638000D02*
X228400Y-1851900D01*
X327000Y-87262000D02*
X442100Y-87467500D01*
X442100Y-1432500D02*
X327000Y-1638000D01*
X442100Y-87467500D02*
X572900Y-87663400D01*
X572900Y-1236600D02*
X442100Y-1432500D01*
X572900Y-87663400D02*
X718800Y-87848300D01*
X718800Y-1051700D02*
X572900Y-1236600D01*
X718800Y-87848300D02*
X878700Y-88021300D01*
X878700Y-878700D02*
X718800Y-1051700D01*
X878700Y-88021300D02*
X1051700Y-88181200D01*
X1051700Y-718800D02*
X878700Y-878700D01*
X1051700Y-88181200D02*
X1236600Y-88327100D01*
X1236600Y-572900D02*
X1051700Y-718800D01*
X1236600Y-88327100D02*
X1432500Y-88457900D01*
X1432500Y-442100D02*
X1236600Y-572900D01*
X1432500Y-88457900D02*
X1638000Y-88573000D01*
X1638000Y-327000D02*
X1432500Y-442100D01*
X1638000Y-88573000D02*
X1851900Y-88671600D01*
X1851900Y-228400D02*
X1638000Y-327000D01*
X1851900Y-88671600D02*
X2072900Y-88753200D01*
X2072900Y-146800D02*
X1851900Y-228400D01*
X2072900Y-88753200D02*
X2299700Y-88817100D01*
X2299700Y-82900D02*
X2072900Y-146800D01*
X2299700Y-88817100D02*
X2530700Y-88863100D01*
X2530700Y-36900D02*
X2299700Y-82900D01*
X2530700Y-88863100D02*
X2764600Y-88890800D01*
X2764600Y-9200D02*
X2530700Y-36900D01*
X2764600Y-88890800D02*
X3000000Y-88900000D01*
X3000000Y0D02*
X2764600Y-9200D01*
X3000000Y-88900000D02*
X47800000Y-88900000D01*
X47800000Y0D02*
X3000000Y0D01*
X47800000Y-88900000D02*
X48035400Y-88890800D01*
X48035400Y-9200D02*
X47800000Y0D01*
X48035400Y-88890800D02*
X48269300Y-88863100D01*
X48269300Y-36900D02*
X48035400Y-9200D01*
X48269300Y-88863100D02*
X48500300Y-88817100D01*
X48500300Y-82900D02*
X48269300Y-36900D01*
X48500300Y-88817100D02*
X48727100Y-88753200D01*
X48727100Y-146800D02*
X48500300Y-82900D01*
X48727100Y-88753200D02*
X48948100Y-88671600D01*
X48948100Y-228400D02*
X48727100Y-146800D01*
X48948100Y-88671600D02*
X49162000Y-88573000D01*
X49162000Y-327000D02*
X48948100Y-228400D01*
X49162000Y-88573000D02*
X49367500Y-88457900D01*
X49367500Y-442100D02*
X49162000Y-327000D01*
X49367500Y-88457900D02*
X49563400Y-88327100D01*
X49563400Y-572900D02*
X49367500Y-442100D01*
X49563400Y-88327100D02*
X49748300Y-88181200D01*
X49748300Y-718800D02*
X49563400Y-572900D01*
X49748300Y-88181200D02*
X49921300Y-88021300D01*
X49921300Y-878700D02*
X49748300Y-718800D01*
X49921300Y-88021300D02*
X50081200Y-87848300D01*
X50081200Y-1051700D02*
X49921300Y-878700D01*
X50081200Y-87848300D02*
X50227100Y-87663400D01*
X50227100Y-1236600D02*
X50081200Y-1051700D01*
X50227100Y-87663400D02*
X50357900Y-87467500D01*
X50357900Y-1432500D02*
X50227100Y-1236600D01*
X50357900Y-87467500D02*
X50473000Y-87262000D01*
X50473000Y-1638000D02*
X50357900Y-1432500D01*
X50473000Y-87262000D02*
X50571600Y-87048100D01*
X50571600Y-1851900D02*
X50473000Y-1638000D01*
X50571600Y-87048100D02*
X50653200Y-86827100D01*
X50653200Y-2072900D02*
X50571600Y-1851900D01*
X50653200Y-86827100D02*
X50717100Y-86600300D01*
X50717100Y-2299700D02*
X50653200Y-2072900D01*
X50717100Y-86600300D02*
X50763100Y-86369300D01*
X50763100Y-2530700D02*
X50717100Y-2299700D01*
X50763100Y-86369300D02*
X50790800Y-86135400D01*
X50790800Y-2764600D02*
X50763100Y-2530700D01*
X50790800Y-86135400D02*
X50800000Y-85900000D01*
X50800000Y-3000000D02*
X50790800Y-2764600D01*
X50800000Y-85900000D02*
X50800000Y-3000000D01*
M02*
