%TF.GenerationSoftware,KiCad,Pcbnew,10.0.5-unknown-202607221313~667fa36054~ubuntu25.10.1*%
%TF.CreationDate,2026-08-01T13:23:04+00:00*%
%TF.ProjectId,solar-glow-drh-v4_0,736f6c61-722d-4676-9c6f-772d6472682d,rev?*%
%TF.SameCoordinates,Original*%
%TF.FileFunction,Paste,Bot*%
%TF.FilePolarity,Positive*%
%FSLAX46Y46*%
G04 Gerber Fmt 4.6, Leading zero omitted, Abs format (unit mm)*
G04 Created by KiCad (PCBNEW 10.0.5-unknown-202607221313~667fa36054~ubuntu25.10.1) date 2026-08-01 13:23:04*
%MOMM*%
%LPD*%
G01*
G04 APERTURE LIST*
G04 Aperture macros list*
%AMRoundRect*
0 Rectangle with rounded corners*
0 $1 Rounding radius*
0 $2 $3 $4 $5 $6 $7 $8 $9 X,Y pos of 4 corners*
0 Add a 4 corners polygon primitive as box body*
4,1,4,$2,$3,$4,$5,$6,$7,$8,$9,$2,$3,0*
0 Add four circle primitives for the rounded corners*
1,1,$1+$1,$2,$3*
1,1,$1+$1,$4,$5*
1,1,$1+$1,$6,$7*
1,1,$1+$1,$8,$9*
0 Add four rect primitives between the rounded corners*
20,1,$1+$1,$2,$3,$4,$5,0*
20,1,$1+$1,$4,$5,$6,$7,0*
20,1,$1+$1,$6,$7,$8,$9,0*
20,1,$1+$1,$8,$9,$2,$3,0*%
G04 Aperture macros list end*
%ADD10RoundRect,0.147500X-0.182500X0.147500X-0.182500X-0.147500X0.182500X-0.147500X0.182500X0.147500X0*%
%ADD11RoundRect,0.150000X-0.512500X-0.150000X0.512500X-0.150000X0.512500X0.150000X-0.512500X0.150000X0*%
%ADD12RoundRect,0.147500X0.147500X0.182500X-0.147500X0.182500X-0.147500X-0.182500X0.147500X-0.182500X0*%
%ADD13RoundRect,0.147500X0.182500X-0.147500X0.182500X0.147500X-0.182500X0.147500X-0.182500X-0.147500X0*%
%ADD14RoundRect,0.200000X-0.275000X0.200000X-0.275000X-0.200000X0.275000X-0.200000X0.275000X0.200000X0*%
%ADD15RoundRect,0.225000X0.225000X0.250000X-0.225000X0.250000X-0.225000X-0.250000X0.225000X-0.250000X0*%
%ADD16RoundRect,0.147500X-0.147500X-0.182500X0.147500X-0.182500X0.147500X0.182500X-0.147500X0.182500X0*%
%ADD17RoundRect,0.050000X-0.350000X-0.050000X0.350000X-0.050000X0.350000X0.050000X-0.350000X0.050000X0*%
%ADD18RoundRect,0.050000X-0.050000X-0.350000X0.050000X-0.350000X0.050000X0.350000X-0.050000X0.350000X0*%
%ADD19RoundRect,0.575000X-0.575000X-0.575000X0.575000X-0.575000X0.575000X0.575000X-0.575000X0.575000X0*%
%ADD20RoundRect,0.147500X-0.182500X-0.147500X0.182500X-0.147500X0.182500X0.147500X-0.182500X0.147500X0*%
%ADD21RoundRect,0.162500X-0.162500X-0.187500X0.162500X-0.187500X0.162500X0.187500X-0.162500X0.187500X0*%
%ADD22RoundRect,0.662500X-0.662500X-0.662500X0.662500X-0.662500X0.662500X0.662500X-0.662500X0.662500X0*%
%ADD23RoundRect,0.150000X-0.650000X-0.150000X0.650000X-0.150000X0.650000X0.150000X-0.650000X0.150000X0*%
%ADD24RoundRect,0.250000X0.475000X-0.250000X0.475000X0.250000X-0.475000X0.250000X-0.475000X-0.250000X0*%
%ADD25RoundRect,0.150000X0.587500X0.150000X-0.587500X0.150000X-0.587500X-0.150000X0.587500X-0.150000X0*%
%ADD26RoundRect,0.062500X-0.137500X-0.062500X0.137500X-0.062500X0.137500X0.062500X-0.137500X0.062500X0*%
%ADD27RoundRect,0.062500X-0.062500X-0.137500X0.062500X-0.137500X0.062500X0.137500X-0.062500X0.137500X0*%
%ADD28RoundRect,0.250000X-0.475000X0.250000X-0.475000X-0.250000X0.475000X-0.250000X0.475000X0.250000X0*%
%ADD29RoundRect,0.225000X-0.250000X0.225000X-0.250000X-0.225000X0.250000X-0.225000X0.250000X0.225000X0*%
%ADD30RoundRect,0.200000X0.275000X-0.200000X0.275000X0.200000X-0.275000X0.200000X-0.275000X-0.200000X0*%
%ADD31RoundRect,0.150000X-0.150000X0.512500X-0.150000X-0.512500X0.150000X-0.512500X0.150000X0.512500X0*%
%ADD32RoundRect,0.218750X-0.256250X0.218750X-0.256250X-0.218750X0.256250X-0.218750X0.256250X0.218750X0*%
%ADD33RoundRect,0.250000X-0.850000X0.375000X-0.850000X-0.375000X0.850000X-0.375000X0.850000X0.375000X0*%
%ADD34R,0.381000X0.330200*%
%ADD35R,0.330200X0.381000*%
%ADD36RoundRect,0.350000X0.375000X-0.350000X0.375000X0.350000X-0.375000X0.350000X-0.375000X-0.350000X0*%
%ADD37RoundRect,0.140000X-0.140000X-0.170000X0.140000X-0.170000X0.140000X0.170000X-0.140000X0.170000X0*%
%ADD38RoundRect,0.225000X-0.225000X-0.250000X0.225000X-0.250000X0.225000X0.250000X-0.225000X0.250000X0*%
%ADD39RoundRect,0.200000X-0.200000X-0.275000X0.200000X-0.275000X0.200000X0.275000X-0.200000X0.275000X0*%
G04 APERTURE END LIST*
D10*
%TO.C,R2*%
X25150000Y-51615000D03*
X25150000Y-52635000D03*
%TD*%
D11*
%TO.C,U6*%
X2773714Y-8264658D03*
X2773714Y-7314658D03*
X2773714Y-6364658D03*
X5048714Y-6364658D03*
X5048714Y-7314658D03*
X5048714Y-8264658D03*
%TD*%
D12*
%TO.C,R10*%
X31150000Y-31880000D03*
X30130000Y-31880000D03*
%TD*%
D13*
%TO.C,C12*%
X26000000Y-31010000D03*
X26000000Y-29990000D03*
%TD*%
D14*
%TO.C,R16*%
X6149213Y-54950453D03*
X6149213Y-56600453D03*
%TD*%
D15*
%TO.C,C13*%
X26775000Y-48150000D03*
X25225000Y-48150000D03*
%TD*%
D16*
%TO.C,C1*%
X10300000Y-41220000D03*
X11320000Y-41220000D03*
%TD*%
D10*
%TO.C,C6*%
X3098800Y-9624600D03*
X3098800Y-10644600D03*
%TD*%
D17*
%TO.C,U8*%
X29200000Y-52800000D03*
X29200000Y-53200000D03*
X29200000Y-53600000D03*
X29200000Y-54000000D03*
X29200000Y-54400000D03*
X29200000Y-54800000D03*
X29200000Y-55200000D03*
D18*
X30000000Y-56000000D03*
X30400000Y-56000000D03*
X30800000Y-56000000D03*
X31200000Y-56000000D03*
X31600000Y-56000000D03*
X32000000Y-56000000D03*
X32400000Y-56000000D03*
D17*
X33200000Y-55200000D03*
X33200000Y-54800000D03*
X33200000Y-54400000D03*
X33200000Y-54000000D03*
X33200000Y-53600000D03*
X33200000Y-53200000D03*
X33200000Y-52800000D03*
D18*
X32400000Y-52000000D03*
X32000000Y-52000000D03*
X31600000Y-52000000D03*
X31200000Y-52000000D03*
X30800000Y-52000000D03*
X30400000Y-52000000D03*
X30000000Y-52000000D03*
D19*
X31200000Y-54000000D03*
%TD*%
D20*
%TO.C,R12*%
X31031668Y-48443825D03*
X32051668Y-48443825D03*
%TD*%
D21*
%TO.C,D4*%
X27150000Y-44300000D03*
X30250000Y-43500000D03*
%TD*%
D17*
%TO.C,U1*%
X6229600Y-42869000D03*
X6229600Y-43269000D03*
X6229600Y-43669000D03*
X6229600Y-44069000D03*
X6229600Y-44469000D03*
X6229600Y-44869000D03*
X6229600Y-45269000D03*
D18*
X7029600Y-46069000D03*
X7429600Y-46069000D03*
X7829600Y-46069000D03*
X8229600Y-46069000D03*
X8629600Y-46069000D03*
X9029600Y-46069000D03*
X9429600Y-46069000D03*
D17*
X10229600Y-45269000D03*
X10229600Y-44869000D03*
X10229600Y-44469000D03*
X10229600Y-44069000D03*
X10229600Y-43669000D03*
X10229600Y-43269000D03*
X10229600Y-42869000D03*
D18*
X9429600Y-42069000D03*
X9029600Y-42069000D03*
X8629600Y-42069000D03*
X8229600Y-42069000D03*
X7829600Y-42069000D03*
X7429600Y-42069000D03*
X7029600Y-42069000D03*
D22*
X8229600Y-44069000D03*
%TD*%
D23*
%TO.C,U7*%
X26109412Y-39304989D03*
X26109412Y-38034989D03*
X26109412Y-36764989D03*
X26109412Y-35494989D03*
X30309412Y-35494989D03*
X30309412Y-36764989D03*
X30309412Y-38034989D03*
X30309412Y-39304989D03*
%TD*%
D12*
%TO.C,C24*%
X6416394Y-59414396D03*
X5396394Y-59414396D03*
%TD*%
D21*
%TO.C,D5*%
X33150000Y-44300000D03*
X36250000Y-43500000D03*
%TD*%
D24*
%TO.C,C27*%
X2700000Y-50250000D03*
X2700000Y-48350000D03*
%TD*%
D16*
%TO.C,R4*%
X34310000Y-48300000D03*
X35330000Y-48300000D03*
%TD*%
D24*
%TO.C,C25*%
X25875000Y-55970000D03*
X25875000Y-54070000D03*
%TD*%
D25*
%TO.C,Q2*%
X48475000Y-63650000D03*
X48475000Y-65550000D03*
X46600000Y-64600000D03*
%TD*%
D26*
%TO.C,U5*%
X34352000Y-33750000D03*
X34352000Y-34250000D03*
D27*
X34802000Y-34700000D03*
X35302000Y-34700000D03*
D26*
X35752000Y-34250000D03*
X35752000Y-33750000D03*
D27*
X35302000Y-33300000D03*
X34802000Y-33300000D03*
%TD*%
D28*
%TO.C,C26*%
X35696010Y-52803444D03*
X35696010Y-54703444D03*
%TD*%
D16*
%TO.C,R14*%
X4840825Y-4924502D03*
X5860825Y-4924502D03*
%TD*%
%TO.C,R3*%
X28299773Y-49684168D03*
X29319773Y-49684168D03*
%TD*%
D12*
%TO.C,C8*%
X31140000Y-32850000D03*
X30120000Y-32850000D03*
%TD*%
D29*
%TO.C,C4*%
X5050000Y-9825000D03*
X5050000Y-11375000D03*
%TD*%
D10*
%TO.C,R17*%
X35623636Y-56100612D03*
X35623636Y-57120612D03*
%TD*%
D30*
%TO.C,R6*%
X46491833Y-25601872D03*
X46491833Y-23951872D03*
%TD*%
D31*
%TO.C,U9*%
X2950000Y-54262500D03*
X3900000Y-54262500D03*
X4850000Y-54262500D03*
X4850000Y-56537500D03*
X2950000Y-56537500D03*
%TD*%
D32*
%TO.C,FB1*%
X1675000Y-53237500D03*
X1675000Y-54812500D03*
%TD*%
D12*
%TO.C,C3*%
X6199600Y-47955200D03*
X5179600Y-47955200D03*
%TD*%
D21*
%TO.C,D3*%
X20850000Y-44300000D03*
X23950000Y-43500000D03*
%TD*%
D33*
%TO.C,L2*%
X26225000Y-57600000D03*
X26225000Y-59750000D03*
%TD*%
D21*
%TO.C,D2*%
X14550000Y-44300000D03*
X17650000Y-43500000D03*
%TD*%
D10*
%TO.C,R18*%
X46100000Y-65665000D03*
X46100000Y-66685000D03*
%TD*%
D34*
%TO.C,U3*%
X26663600Y-32049999D03*
X26663600Y-32550000D03*
X26663600Y-33050000D03*
X26663600Y-33550001D03*
D35*
X26050000Y-33714400D03*
X25550000Y-33714400D03*
D34*
X24936400Y-33550001D03*
X24936400Y-33050000D03*
X24936400Y-32550000D03*
X24936400Y-32049999D03*
D35*
X25550000Y-31885600D03*
X26050000Y-31885600D03*
%TD*%
D13*
%TO.C,C5*%
X45220187Y-25057402D03*
X45220187Y-24037402D03*
%TD*%
D36*
%TO.C,C9*%
X35520000Y-39030000D03*
X35520000Y-36730000D03*
%TD*%
D29*
%TO.C,C22*%
X1677448Y-56214966D03*
X1677448Y-57764966D03*
%TD*%
D13*
%TO.C,R11*%
X28600000Y-33110000D03*
X28600000Y-32090000D03*
%TD*%
D12*
%TO.C,R1*%
X6199600Y-49047400D03*
X5179600Y-49047400D03*
%TD*%
D20*
%TO.C,C7*%
X4740000Y-12450000D03*
X5760000Y-12450000D03*
%TD*%
D37*
%TO.C,C28*%
X32261221Y-39322571D03*
X33221221Y-39322571D03*
%TD*%
D10*
%TO.C,C29*%
X11575000Y-44115000D03*
X11575000Y-45135000D03*
%TD*%
D38*
%TO.C,C23*%
X4598422Y-58200091D03*
X6148422Y-58200091D03*
%TD*%
D14*
%TO.C,R5*%
X48079001Y-23942311D03*
X48079001Y-25592311D03*
%TD*%
D13*
%TO.C,C11*%
X25000000Y-31010000D03*
X25000000Y-29990000D03*
%TD*%
D39*
%TO.C,R15*%
X2200000Y-51775000D03*
X3850000Y-51775000D03*
%TD*%
M02*
