0
SECTION
2
ENTITIES
0
LWPOLYLINE
8
SHIM
90
420
70
1
10
6.8094
20
48.5150
10
6.8318
20
48.6151
10
6.8867
20
48.7018
10
6.9807
20
48.7715
10
7.0796
20
48.7989
10
9.5035
20
48.7945
10
9.5864
20
48.7649
10
9.6673
20
48.7018
10
9.7162
20
48.6286
10
9.7418
20
48.5443
10
9.7451
20
47.4001
10
11.8513
20
47.4000
10
11.8608
20
48.5588
10
11.8904
20
48.6417
10
11.9429
20
48.7124
10
12.0267
20
48.7715
10
12.1110
20
48.7971
10
22.2651
20
48.8004
10
22.2684
20
86.5940
10
22.3006
20
86.6914
10
22.3637
20
86.7723
10
22.4504
20
86.8272
10
22.5505
20
86.8496
10
25.9668
20
86.8496
10
26.0924
20
86.8152
10
26.1916
20
86.7309
10
26.2382
20
86.6406
10
26.2521
20
86.5400
10
26.2315
20
86.4405
10
26.1741
20
86.3479
10
26.1726
20
85.0074
10
26.1512
20
84.9220
10
26.1059
20
84.8465
10
26.0407
20
84.7874
10
25.9751
20
84.7543
10
25.8515
20
84.7372
10
25.7379
20
84.7656
10
25.6439
20
84.8353
10
25.5791
20
84.9497
10
25.5662
20
85.0368
10
25.5661
20
86.0191
10
24.1163
20
86.0191
10
24.1162
20
83.0729
10
24.1551
20
82.9860
10
24.1670
20
82.9022
10
24.1671
20
80.0591
10
27.0901
20
80.0721
10
27.0863
20
83.0785
10
27.1096
20
83.1905
10
27.1154
20
84.6065
10
27.1777
20
84.7383
10
27.2948
20
84.8252
10
27.3949
20
84.8476
10
27.6739
20
84.8481
10
27.6739
20
86.3480
10
27.6154
20
86.4432
10
27.5958
20
86.5450
10
27.6038
20
86.6188
10
27.6368
20
86.7014
10
27.7275
20
86.7984
10
27.8513
20
86.8467
10
28.2703
20
86.8496
10
28.3970
20
86.8146
10
28.4571
20
86.7723
10
28.5129
20
86.7042
10
28.5466
20
86.6229
10
28.5556
20
86.5500
10
28.5542
20
60.9106
10
28.5268
20
60.8117
10
28.4677
20
60.7279
10
28.3839
20
60.6688
10
28.2850
20
60.6414
10
25.7101
20
60.6399
10
25.7100
20
58.4900
10
25.6746
20
58.3486
10
25.5767
20
58.2406
10
25.4394
20
58.1914
10
24.3601
20
58.1899
10
24.3601
20
56.6901
10
24.8347
20
56.6896
10
24.9211
20
56.6725
10
24.9867
20
56.6394
10
25.0519
20
56.5803
10
25.0972
20
56.5048
10
25.1186
20
56.4194
10
25.1201
20
51.7751
10
27.4199
20
51.7751
10
27.4258
20
56.4985
10
27.4554
20
56.5814
10
27.5079
20
56.6521
10
27.5786
20
56.7046
10
27.6471
20
56.7310
10
28.3085
20
56.7342
10
28.4042
20
56.6973
10
28.4819
20
56.6303
10
28.5272
20
56.5548
10
28.5496
20
56.4547
10
28.5501
20
51.3501
10
30.6938
20
51.3496
10
30.8065
20
51.3217
10
30.9097
20
51.2420
10
30.9606
20
51.1540
10
30.9790
20
51.0393
10
30.9392
20
50.9003
10
30.8451
20
50.7999
10
30.8451
20
48.5001
10
35.7949
20
48.5001
10
35.7982
20
49.2540
10
35.8377
20
49.3642
10
35.9163
20
49.4510
10
35.9939
20
49.4925
10
36.0803
20
49.5096
10
37.0899
20
49.5101
10
37.0899
20
51.0099
10
36.9471
20
51.0190
10
36.8413
20
51.0690
10
36.7554
20
51.1686
10
36.7204
20
51.2953
10
36.7199
20
55.7649
10
36.4742
20
55.7664
10
36.3754
20
55.7938
10
36.2717
20
55.8747
10
36.2126
20
55.9921
10
36.2035
20
57.6655
10
35.0437
20
57.6655
10
35.0436
20
56.0650
10
35.0148
20
55.9367
10
34.9451
20
55.8427
10
34.8447
20
55.7825
10
34.7584
20
55.7654
10
34.4201
20
55.7649
10
34.3667
20
55.6882
10
34.2833
20
55.6269
10
34.1840
20
55.5976
10
34.0807
20
55.6038
10
33.9982
20
55.6369
10
33.9394
20
55.6820
10
33.8861
20
55.7530
10
33.8559
20
55.8366
10
33.8499
20
56.6499
10
30.1399
20
56.6500
10
30.0537
20
56.6627
10
29.9747
20
56.6996
10
29.8769
20
56.8058
10
29.8400
20
56.9454
10
29.8726
20
57.0860
10
29.9599
20
57.1900
10
29.9599
20
58.6899
10
28.7100
20
58.6900
10
28.5817
20
58.7188
10
28.4979
20
58.7779
10
28.4454
20
58.8486
10
28.4158
20
58.9315
10
28.4114
20
59.0294
10
28.4328
20
59.1148
10
28.4877
20
59.2015
10
28.5558
20
59.2573
10
28.6371
20
59.2910
10
45.0765
20
59.2986
10
45.1875
20
59.2653
10
45.2776
20
59.1924
10
45.4512
20
58.8636
10
45.6010
20
58.6275
10
45.8171
20
58.3574
10
46.0174
20
58.1571
10
46.2337
20
57.9798
10
46.4664
20
57.8245
10
46.7131
20
57.6929
10
47.0343
20
57.5644
10
47.3038
20
57.4897
10
47.5793
20
57.4417
10
47.8582
20
57.4209
10
48.1378
20
57.4276
10
48.4191
20
57.4623
10
48.7555
20
57.5422
10
49.0223
20
57.6377
10
49.3884
20
57.8048
10
49.5206
20
57.8028
10
49.6391
20
57.7441
10
49.7209
20
57.6402
10
49.7500
20
57.5112
10
49.7500
20
31.3888
10
49.7323
20
31.2871
10
49.6714
20
31.1863
10
49.5764
20
31.1167
10
49.4620
20
31.0890
10
49.3457
20
31.1075
10
49.0223
20
31.2623
10
48.7555
20
31.3578
10
48.4842
20
31.4256
10
48.1415
20
31.4721
10
47.8582
20
31.4791
10
47.5136
20
31.4494
10
47.2357
20
31.3941
10
46.9060
20
31.2897
10
46.6503
20
31.1765
10
46.4632
20
31.0736
10
46.2308
20
30.9180
10
46.0147
20
30.7405
10
45.7732
20
30.4929
10
45.6010
20
30.2725
10
45.4512
20
30.0364
10
45.2921
20
29.7362
10
45.2012
20
29.6604
10
45.0881
20
29.6257
10
28.4038
20
29.6242
10
28.4038
20
18.8349
10
28.3802
20
18.7184
10
28.2909
20
18.6004
10
28.2134
20
18.5557
10
28.1412
20
18.5372
10
26.9401
20
18.5349
10
26.9342
20
18.3865
10
26.8894
20
18.2783
10
26.8067
20
18.1956
10
26.6840
20
18.1482
10
23.8950
20
18.1413
10
23.8951
20
16.6951
10
26.2093
20
16.6946
10
26.2957
20
16.6775
10
26.3733
20
16.6360
10
26.4265
20
16.5853
10
26.4718
20
16.5098
10
26.4946
20
16.3950
10
26.4943
20
15.5753
10
26.4771
20
15.4889
10
26.4356
20
15.4113
10
26.3489
20
15.3327
10
26.2386
20
15.2932
10
25.5951
20
15.2899
10
25.5951
20
14.1301
10
27.7049
20
14.1301
10
27.7064
20
15.0119
10
27.7325
20
15.1086
10
27.8045
20
15.2065
10
27.8509
20
15.3463
10
27.9092
20
15.4132
10
27.9711
20
15.4539
10
28.0556
20
15.4809
10
28.1444
20
15.4821
10
28.2296
20
15.4572
10
28.3037
20
15.4085
10
28.3604
20
15.3402
10
28.3946
20
15.2583
10
28.4038
20
13.7599
10
28.3672
20
13.6165
10
28.2666
20
13.5079
10
28.1263
20
13.4608
10
26.6001
20
13.4599
10
26.6000
20
12.1097
10
26.5684
20
11.9759
10
26.6037
20
11.9600
10
28.1412
20
11.9578
10
28.2407
20
11.9270
10
28.3133
20
11.8748
10
28.3672
20
11.8035
10
28.4004
20
11.7048
10
28.4038
20
2.3500
10
28.3948
20
2.2771
10
28.3611
20
2.1958
10
28.3052
20
2.1277
10
28.2320
20
2.0788
10
28.1038
20
2.0500
10
22.4803
20
2.0504
10
22.3802
20
2.0728
10
22.3047
20
2.1181
10
22.2377
20
2.1958
10
22.2007
20
2.2915
10
22.2009
20
31.9436
10
22.2314
20
32.0276
10
22.2962
20
32.1090
10
22.3849
20
32.1633
10
22.4719
20
32.1834
10
24.1647
20
32.1796
10
24.3042
20
32.1373
10
24.3910
20
32.0587
10
24.4442
20
31.9385
10
24.4501
20
31.4001
10
25.1785
20
31.3942
10
25.3103
20
31.3319
10
25.3972
20
31.2148
10
25.4200
20
31.1000
10
25.4201
20
29.4451
10
26.5799
20
29.4451
10
26.5890
20
31.1729
10
26.6481
20
31.2903
10
26.7652
20
31.3772
10
26.8653
20
31.3996
10
27.1499
20
31.4001
10
27.1556
20
31.7481
10
27.1846
20
31.8302
10
27.2464
20
31.9106
10
27.3449
20
31.9713
10
27.4445
20
31.9902
10
27.5167
20
31.9828
10
27.6037
20
31.9500
10
29.1999
20
31.9501
10
29.2004
20
33.8647
10
29.2228
20
33.9648
10
29.2879
20
34.0621
10
29.3717
20
34.1212
10
29.4853
20
34.1496
10
31.3593
20
34.1501
10
31.3594
20
38.4713
10
31.3829
20
38.5876
10
31.4496
20
38.6858
10
31.5354
20
38.7445
10
31.6510
20
38.7712
10
33.5200
20
38.7626
10
33.6483
20
38.7338
10
33.7103
20
38.6945
10
33.7694
20
38.6292
10
33.8186
20
38.4920
10
33.8201
20
36.9101
10
34.6850
20
36.9100
10
34.7861
20
36.8925
10
34.8865
20
36.8323
10
34.9562
20
36.7383
10
34.9836
20
36.6394
10
34.9851
20
36.4751
10
36.4349
20
36.4751
10
36.4349
20
39.4249
10
34.9851
20
39.4249
10
34.9836
20
39.2606
10
34.9622
20
39.1752
10
34.8971
20
39.0779
10
34.8133
20
39.0188
10
34.6997
20
38.9904
10
34.0218
20
38.9914
10
33.9364
20
39.0128
10
33.8609
20
39.0581
10
33.8018
20
39.1233
10
33.7641
20
39.2029
10
33.7512
20
39.2900
10
33.7511
20
39.8825
10
31.6510
20
39.8739
10
31.5632
20
39.8897
10
31.4392
20
39.9701
10
31.3687
20
40.0999
10
31.3593
20
40.6499
10
25.0595
20
40.6499
10
25.0594
20
34.5000
10
25.0419
20
34.3989
10
24.9715
20
34.2879
10
24.8605
20
34.2175
10
24.7741
20
34.2004
10
24.4501
20
34.1999
10
24.4442
20
33.5815
10
24.3819
20
33.4497
10
24.2648
20
33.3628
10
24.1500
20
33.3400
10
22.4884
20
33.3358
10
22.4028
20
33.3502
10
22.3249
20
33.3886
10
22.2613
20
33.4476
10
22.2172
20
33.5224
10
22.1953
20
33.6212
10
22.1949
20
40.0999
10
11.9712
20
40.1033
10
11.8730
20
40.1361
10
11.7918
20
40.2003
10
11.7372
20
40.2882
10
11.7158
20
40.3895
10
11.7259
20
40.4778
10
11.7614
20
40.5592
10
11.8192
20
40.6267
10
11.8849
20
40.6701
10
11.8849
20
41.8299
10
11.1211
20
41.8358
10
11.0513
20
41.8588
10
10.9781
20
41.9077
10
10.8971
20
42.0289
10
10.8796
20
42.1300
10
10.8796
20
43.2700
10
10.9150
20
43.4114
10
11.0129
20
43.5194
10
11.1356
20
43.5668
10
12.1549
20
43.5701
10
12.1638
20
44.5925
10
12.2043
20
44.6853
10
12.2621
20
44.7503
10
12.3360
20
44.7959
10
12.4344
20
44.8198
10
12.5537
20
44.8050
10
13.7044
20
44.8036
10
13.8164
20
44.7696
10
13.9160
20
44.6837
10
13.9575
20
44.6061
10
13.9746
20
44.5197
10
13.9751
20
42.7001
10
18.2249
20
42.7001
10
18.2249
20
45.0999
10
14.0100
20
45.1000
10
13.8952
20
45.1228
10
13.8313
20
45.1590
10
13.7690
20
45.2213
10
13.7328
20
45.2852
10
13.7114
20
45.3706
10
13.7099
20
46.9149
10
12.5501
20
46.9149
10
12.5412
20
45.8925
10
12.5007
20
45.7997
10
12.4429
20
45.7347
10
12.3555
20
45.6836
10
12.2560
20
45.6645
10
12.1513
20
45.6800
10
11.1649
20
45.6804
10
11.0785
20
45.6975
10
11.0009
20
45.7390
10
10.9223
20
45.8258
10
10.8828
20
45.9360
10
10.8795
20
46.7189
10
7.0882
20
46.7190
10
7.0021
20
46.7316
10
6.9233
20
46.7683
10
6.8584
20
46.8261
10
6.8127
20
46.9001
10
6.7902
20
46.9841
10
6.8090
20
47.1323
10
6.8094
20
48.5150
0
LWPOLYLINE
8
SHIM
90
7
70
1
10
26.1781
20
11.8356
10
26.1463
20
11.8500
10
24.6501
20
11.8499
10
24.6501
20
10.3501
10
26.1499
20
10.3501
10
26.1500
20
11.7003
10
26.1781
20
11.8356
0
LWPOLYLINE
8
SHIM
90
5
70
1
10
32.5751
20
42.7001
10
36.8249
20
42.7001
10
36.8249
20
45.0999
10
32.5751
20
45.0999
10
32.5751
20
42.7001
0
LWPOLYLINE
8
SHIM
90
12
70
1
10
33.9020
20
35.1463
10
33.9021
20
32.8501
10
34.7640
20
32.8468
10
34.8867
20
32.7994
10
34.9846
20
32.6914
10
35.0200
20
32.5500
10
35.0201
20
30.8051
10
36.1799
20
30.8051
10
36.1800
20
32.7374
10
36.2020
20
32.8537
10
36.2019
20
35.1499
10
33.9020
20
35.1463
0
LWPOLYLINE
8
SHIM
90
5
70
1
10
26.5751
20
42.7001
10
30.8249
20
42.7001
10
30.8249
20
45.0999
10
26.5751
20
45.0999
10
26.5751
20
42.7001
0
LWPOLYLINE
8
SHIM
90
21
70
1
10
24.5251
20
47.4251
10
27.4749
20
47.4251
10
27.4989
20
47.5201
10
27.5543
20
47.6044
10
27.6346
20
47.6657
10
27.7306
20
47.6969
10
29.5099
20
47.7001
10
29.5099
20
48.9999
10
27.5653
20
49.0004
10
27.4652
20
49.0228
10
27.3785
20
49.0777
10
27.3088
20
49.1717
10
27.2804
20
49.2853
10
27.2799
20
51.0999
10
24.7801
20
51.0999
10
24.7797
20
49.1571
10
24.7579
20
49.0587
10
24.7048
20
48.9730
10
24.6263
20
48.9097
10
24.5251
20
48.8749
10
24.5251
20
47.4251
0
LWPOLYLINE
8
SHIM
90
10
70
1
10
25.6700
20
64.7313
10
25.6700
20
62.4387
10
25.7088
20
62.3593
10
25.7247
20
62.2762
10
25.7251
20
61.2901
10
27.8349
20
61.2901
10
27.8354
20
62.3100
10
27.8700
20
62.4387
10
27.8699
20
64.7349
10
25.6700
20
64.7313
0
LWPOLYLINE
8
SHIM
90
5
70
1
10
24.5451
20
22.1151
10
27.5749
20
22.1051
10
27.5749
20
25.0549
10
24.5451
20
25.0649
10
24.5451
20
22.1151
0
LWPOLYLINE
8
SHIM
90
5
70
1
10
20.2751
20
42.7001
10
24.5249
20
42.7001
10
24.5249
20
45.0999
10
20.2751
20
45.0999
10
20.2751
20
42.7001
0
ENDSEC
0
EOF
